<?xml version="1.0" encoding="iso-8859-1"?>
<!-- Generator: Adobe Illustrator 17.1.0, SVG Export Plug-In . SVG Version: 6.00 Build 0)  -->
<!DOCTYPE svg PUBLIC "-//W3C//DTD SVG 1.1//EN" "http://www.w3.org/Graphics/SVG/1.1/DTD/svg11.dtd">
<svg version="1.1" id="Capa_1" xmlns="http://www.w3.org/2000/svg" xmlns:xlink="http://www.w3.org/1999/xlink" x="0px" y="0px"
	 viewBox="0 0 512 512" style="enable-background:new 0 0 512 512;" xml:space="preserve">
<g>
	<path style="fill:#FFFFFF" d="M356.612,507.307c0.128-0.281,0.237-0.57,0.331-0.864c0.024-0.074,0.042-0.149,0.063-0.224
		c0.064-0.22,0.119-0.443,0.163-0.668c0.019-0.094,0.036-0.188,0.051-0.283c0.038-0.236,0.065-0.473,0.082-0.711
		c0.004-0.065,0.013-0.129,0.016-0.194c0.014-0.309,0.011-0.619-0.01-0.93c-0.003-0.038-0.009-0.077-0.013-0.115
		c-0.023-0.269-0.06-0.538-0.111-0.806c-0.014-0.076-0.031-0.151-0.048-0.227c-0.053-0.24-0.117-0.478-0.193-0.714
		c-0.022-0.07-0.042-0.139-0.066-0.208c-0.106-0.304-0.226-0.604-0.372-0.899c-0.287-0.595-14.057-29.596-7.303-67.044
		c6.207-34.419,8.801-62.159,7.615-86.695c0.01-0.34-0.01-0.685-0.045-1.031c-1.322-25.026-6.616-46.739-16.09-68.844
		c-15.623-36.454-11.149-83.967-8.189-115.407c0.29-3.08,0.565-6.002,0.805-8.741c0.069-0.787,0.017-1.555-0.132-2.291
		c4.151-3.419,7.139-8.006,8.036-12.991c2.013-11.183-1.805-22.783-10.213-31.03c-6.223-6.104-20.633-15.553-47.229-10.231
		c-24.022,4.805-32.014-8.323-36.247-24.359c5.154-6.93,14.343-23.04,5.776-41.441c-5.963-12.81-14.13-30.354-39.959-30.354
		l-1.583-0.001c-15.118-0.014-35.827-0.043-44.664,11.003c-8.043,10.055-12.767,39.517-9.189,57.316
		c1.854,9.222,5.758,15.515,11.605,18.704c4.314,2.353,8.303,4.125,11.822,5.688c2.476,1.1,4.598,2.044,6.413,2.973
		c0.375,0.271,0.774,0.518,1.206,0.726c0.259,0.125,0.512,0.239,0.769,0.359c5.19,3.084,7.235,6.606,7.629,15.582
		c0.242,5.508-12.688,17.821-29.056,33.41l-0.468,0.446c-12.516,11.919-16.115,33.474-10.698,64.066
		c1.671,9.439,3.86,17.616,5.402,22.813c0.019,0.064,0.036,0.12,0.055,0.184c0.293,4.17,1.708,8.09,4.138,11.245
		c0.871,1.338,1.847,2.094,3.216,2.719c0.048,0.022,0.095,0.046,0.143,0.067c0.022,0.01,0.042,0.021,0.065,0.03
		c4.526,1.973,9.332,2.848,14.127,2.848c11.932,0,23.775-5.428,31.023-12.854c0.094,14.709-8.433,36.651-17.192,55.266
		c-11.132,23.656-14.07,57.389-14.541,81.998c-3.667,2.006-6.813,3.86-9.285,5.508c-4.323,2.882-8.935,6.416-8.935,11.9
		c0,11.165,6.21,16.582,10.745,20.538c0.333,0.291,0.66,0.576,0.98,0.859c0.317,0.3,0.638,0.592,0.964,0.871
		c1.647,1.522,3.053,3.056,4.027,5.044c1.954,5.344,9.336,47.771,15.382,85.938c0.616,3.887,3.966,6.748,7.901,6.748h143.992
		c0.005,0,0.01,0.001,0.016,0.001c0.12,0,0.239-0.019,0.359-0.024c0.227-0.01,0.455-0.017,0.679-0.046
		c0.156-0.021,0.311-0.061,0.466-0.091c0.191-0.037,0.383-0.069,0.569-0.119c0.151-0.041,0.298-0.098,0.448-0.147
		c0.19-0.064,0.381-0.126,0.566-0.204c0.138-0.058,0.272-0.127,0.408-0.194c0.193-0.094,0.384-0.192,0.568-0.302
		c0.056-0.033,0.114-0.055,0.169-0.09c0.112-0.07,0.213-0.149,0.32-0.223c0.078-0.055,0.158-0.106,0.235-0.164
		c0.511-0.382,0.964-0.816,1.358-1.29c0.036-0.044,0.069-0.09,0.104-0.134c0.165-0.207,0.318-0.421,0.46-0.641
		c0.022-0.034,0.049-0.063,0.07-0.098c0.018-0.029,0.031-0.06,0.048-0.089c0.145-0.239,0.278-0.484,0.396-0.736
		C356.577,507.374,356.597,507.341,356.612,507.307z M212.569,299.406c11.837-25.154,17.959-44.456,18.718-59.011
		c0.281-5.385-0.181-10.212-1.37-14.472c4.785-0.468,8.661-1.676,10.797-2.673c4.003-1.868,5.734-6.628,3.866-10.632
		c-1.868-4.005-6.628-5.736-10.633-3.866c-0.111,0.051-11.952,4.589-21.359-3.302c-0.135-0.113-0.276-0.212-0.415-0.314
		c-5.116-4.844-6.842-10.723-6.842-21.135v-6.708c0-4.418-3.582-8-8-8s-8,3.582-8,8v6.708c0,17.904,4.913,28.588,17.346,37.192
		c-0.03,1.59-1.382,3.375-2.329,4.431c-5.243,5.843-16.121,10.065-24.886,8.009c-0.265-0.787-0.571-1.733-0.903-2.793
		c0.038-0.381,0.095-0.771,0.194-1.178c0.401-1.64,1.666-4.634,5.624-6.264c4.085-1.682,6.034-6.357,4.352-10.443
		c-1.682-4.085-6.356-6.033-10.443-4.352c-1.69,0.696-3.266,1.551-4.73,2.534c-0.645-3.256-1.235-6.689-1.71-10.219
		c-2.807-20.834-0.319-36.149,7.004-43.124l0.469-0.446c23.015-21.919,34.567-32.921,34.006-45.697
		c-0.167-3.809-0.648-7.117-1.383-10.029c6.034-0.425,10.004-2.385,11.942-3.344c3.959-1.962,5.579-6.761,3.617-10.721
		c-1.961-3.958-6.76-5.575-10.72-3.617c-2.425,1.202-8.039,3.949-19.949-1.513c-2.862-1.601-5.916-2.96-9.013-4.336
		c-3.398-1.51-6.913-3.07-10.656-5.112c-1.042-0.568-2.604-2.954-3.58-7.81c-3.104-15.442,2.183-39.402,5.997-44.169
		c4.025-5.032,23.729-5.013,32.15-4.998l1.602,0.001c14.903,0,19.179,7.626,25.455,21.105c6.509,13.982-5.26,26.638-5.733,27.138
		c-1.883,1.942-2.657,4.704-2.058,7.343c2.004,8.815,5.311,20.056,13.165,28.805c10.101,11.253,24.483,15.103,42.741,11.453
		c14.358-2.872,26.039-0.755,32.887,5.964c4.556,4.469,6.729,10.896,5.67,16.774c-0.359,1.993-3.689,5.278-7.555,5.733
		c-3.755,0.456-6.865-2.09-9.242-7.523c-1.771-4.047-6.489-5.895-10.536-4.122c-4.048,1.771-5.894,6.488-4.123,10.536
		c4.756,10.87,13.184,17.096,22.9,17.143c-0.109,1.173-0.221,2.365-0.337,3.59c-3.112,33.056-7.816,83.011,9.413,123.21
		c4.151,9.686,7.43,19.324,9.857,29.286c-4.273,0.866-10.836,2.813-21.622,6.567c-13.33,4.642-30.875,11.341-49.403,18.866
		c-21.411,8.695-45.973,19.253-64.992,28.436C201.01,337.71,205.372,314.702,212.569,299.406z M198.8,420.581
		c12.749-0.59,27.361-6.682,41.051-13.409c3.965-1.948,5.601-6.742,3.652-10.708c-1.949-3.965-6.743-5.601-10.708-3.651
		c-23.978,11.781-38.606,14.711-44.729,8.968c-0.502-0.449-0.997-0.885-1.472-1.299c-2.978-2.598-4.439-3.971-4.991-6.036
		c6.33-4.711,30.048-17.185,77.276-36.837c38.905-16.189,71.14-27.711,80.025-29.497c0.59,3.94,1.053,7.958,1.401,12.066
		c-19.926,5.117-42.279,16.966-63.651,28.833c-3.863,2.145-5.256,7.015-3.111,10.878c1.462,2.633,4.189,4.117,7.001,4.117
		c1.313,0,2.646-0.324,3.876-1.007c18.449-10.243,39.095-21.268,56.635-26.441c0.194,21.138-2.375,45.057-7.598,74.022
		c-0.598,3.315-1.05,6.568-1.384,9.754c-4.928-18.867-6.77-33.05-6.805-33.325c-0.548-4.385-4.554-7.495-8.93-6.946
		c-4.384,0.548-7.494,4.547-6.946,8.931c0.266,2.131,6.186,47.93,26.232,87.007h-97.026c-0.003-0.23-0.005-0.452-0.008-0.685
		c-0.211-17.511-0.564-46.818,5.895-59.737c1.976-3.952,0.374-8.758-3.578-10.733s-8.757-0.374-10.733,3.577
		c-8.195,16.39-7.841,45.691-7.583,67.087c0.002,0.167,0.004,0.325,0.006,0.491h-10.44
		C208.624,473.922,202.568,437.215,198.8,420.581z"/>
	<path style="fill:#FFFFFF" d="M279.355,217.562c11.132,0,21.37-4.438,27.881-12.554c2.765-3.446,2.213-8.481-1.233-11.247
		c-3.445-2.764-8.481-2.212-11.246,1.233c-4.729,5.895-14.054,8.075-23.207,5.433c-4.243-1.229-8.68,1.221-9.906,5.465
		c-1.227,4.245,1.221,8.68,5.465,9.906C271.22,216.985,275.345,217.562,279.355,217.562z"/>
</g>
<g>
</g>
<g>
</g>
<g>
</g>
<g>
</g>
<g>
</g>
<g>
</g>
<g>
</g>
<g>
</g>
<g>
</g>
<g>
</g>
<g>
</g>
<g>
</g>
<g>
</g>
<g>
</g>
<g>
</g>
</svg>
