<svg version="1.1" viewBox="0.0 0.0 600.0 371.0" fill="none" stroke="none" stroke-linecap="square" stroke-miterlimit="10" width="600" height="371" xmlns:xlink="http://www.w3.org/1999/xlink" xmlns="http://www.w3.org/2000/svg"><path fill="#ffffff" d="M0 0L600.0 0L600.0 371.0L0 371.0L0 0Z" fill-rule="nonzero"/><path fill="#fbbc04" d="M171.13011 173.36557C190.51196 135.19087 242.12296 109.68916 300.0 109.68916L300.0 205.42583Z" fill-rule="nonzero"/><path fill="#a42f25" d="M178.5669 269.98593C168.49194 256.37527 163.23334 241.27013 163.23334 225.94083L163.23334 205.42583C163.23334 220.75511 168.49194 235.86028 178.5669 249.47093Z" fill-rule="nonzero"/><path fill="#ea4335" d="M178.5669 249.47093C161.13322 225.91911 158.44022 198.35974 171.13011 173.36557L300.0 205.42583Z" fill-rule="nonzero"/><path fill="#2e5dab" d="M436.76666 225.94083C436.76666 270.08356 393.64954 308.504 332.38147 318.9554C271.11343 329.40686 207.57909 309.1796 178.5669 269.98593L178.5669 249.47093C207.57909 288.6646 271.11343 308.89185 332.38147 298.44043C393.64954 287.989 436.76666 249.56857 436.76666 205.42583Z" fill-rule="nonzero"/><path fill="#4285f4" d="M300.0 109.68916C367.15665 109.68916 424.3772 143.82008 435.03378 190.2341C445.69037 236.6481 406.6296 281.611 342.855 296.3412C279.0804 311.07135 209.46332 291.21008 178.5669 249.47093L300.0 205.42583Z" fill-rule="nonzero"/><path fill="#1a1a1a" d="M19.440624 126.62256L19.440624 118.02881L21.159374 118.02881L23.190624 124.10693Q23.471874 124.96631 23.596874 125.38818Q23.7375 124.91943 24.05 124.01318L26.1125 118.02881L27.64375 118.02881L27.64375 126.62256L26.55 126.62256L26.55 119.43506L24.05 126.62256L23.01875 126.62256L20.534374 119.31006L20.534374 126.62256L19.440624 126.62256ZM33.409374 125.85693Q32.815624 126.35693 32.26875 126.56006Q31.7375 126.76318 31.1125 126.76318Q30.08125 126.76318 29.534374 126.26318Q28.9875 125.76318 28.9875 124.98193Q28.9875 124.52881 29.190624 124.15381Q29.39375 123.76318 29.7375 123.54443Q30.08125 123.31006 30.503124 123.20068Q30.8 123.10693 31.440624 123.02881Q32.70625 122.88818 33.315624 122.66943Q33.315624 122.45068 33.315624 122.40381Q33.315624 121.74756 33.01875 121.48193Q32.6125 121.13818 31.815624 121.13818Q31.08125 121.13818 30.721874 121.40381Q30.3625 121.65381 30.190624 122.31006L29.159374 122.16943Q29.3 121.51318 29.628124 121.10693Q29.95625 120.70068 30.565624 120.48193Q31.175 120.26318 31.971874 120.26318Q32.76875 120.26318 33.26875 120.45068Q33.76875 120.63818 34.003124 120.91943Q34.2375 121.20068 34.33125 121.63818Q34.378124 121.90381 34.378124 122.60693L34.378124 124.01318Q34.378124 125.48193 34.440624 125.87256Q34.51875 126.26318 34.721874 126.62256L33.6125 126.62256Q33.45625 126.29443 33.409374 125.85693ZM33.315624 123.49756Q32.7375 123.73193 31.596874 123.90381Q30.940624 123.99756 30.675 124.12256Q30.409374 124.23193 30.253124 124.45068Q30.1125 124.66943 30.1125 124.95068Q30.1125 125.37256 30.425 125.65381Q30.753124 125.93506 31.3625 125.93506Q31.971874 125.93506 32.440624 125.66943Q32.925 125.40381 33.14375 124.93506Q33.315624 124.57568 33.315624 123.88818L33.315624 123.49756ZM36.3 129.01318L36.175 128.02881Q36.51875 128.12256 36.784374 128.12256Q37.128124 128.12256 37.33125 127.99756Q37.55 127.88818 37.690624 127.68506Q37.784374 127.51318 38.01875 126.88818Q38.034374 126.81006 38.1125 126.63818L35.7375 120.40381L36.878124 120.40381L38.175 123.99756Q38.425 124.68506 38.628124 125.45068Q38.815624 124.71631 39.065624 124.02881L40.39375 120.40381L41.440624 120.40381L39.08125 126.73193Q38.690624 127.74756 38.4875 128.13818Q38.20625 128.66943 37.83125 128.90381Q37.471874 129.15381 36.971874 129.15381Q36.675 129.15381 36.3 129.01318ZM43.315624 126.62256L42.33125 126.62256L42.33125 118.02881L43.39375 118.02881L43.39375 121.09131Q44.065624 120.26318 45.096874 120.26318Q45.675 120.26318 46.175 120.49756Q46.690624 120.71631 47.01875 121.13818Q47.3625 121.56006 47.55 122.15381Q47.7375 122.74756 47.7375 123.41943Q47.7375 125.01318 46.940624 125.88818Q46.14375 126.76318 45.05 126.76318Q43.940624 126.76318 43.315624 125.84131L43.315624 126.62256ZM43.3 123.46631Q43.3 124.57568 43.6125 125.07568Q44.1125 125.88818 44.95625 125.88818Q45.64375 125.88818 46.14375 125.29443Q46.659374 124.70068 46.659374 123.49756Q46.659374 122.27881 46.175 121.70068Q45.690624 121.12256 45.003124 121.12256Q44.315624 121.12256 43.8 121.73193Q43.3 122.32568 43.3 123.46631ZM53.596874 124.62256L54.690624 124.74756Q54.440624 125.70068 53.7375 126.23193Q53.034374 126.76318 51.95625 126.76318Q50.596874 126.76318 49.784374 125.91943Q48.9875 125.07568 48.9875 123.56006Q48.9875 121.99756 49.8 121.13818Q50.6125 120.26318 51.89375 120.26318Q53.14375 120.26318 53.925 121.10693Q54.721874 121.95068 54.721874 123.49756Q54.721874 123.59131 54.721874 123.77881L50.08125 123.77881Q50.14375 124.81006 50.659374 125.35693Q51.175 125.88818 51.95625 125.88818Q52.534374 125.88818 52.940624 125.59131Q53.3625 125.27881 53.596874 124.62256ZM50.14375 122.91943L53.6125 122.91943Q53.55 122.12256 53.221874 121.73193Q52.70625 121.12256 51.909374 121.12256Q51.175 121.12256 50.675 121.60693Q50.190624 122.09131 50.14375 122.91943Z" fill-rule="nonzero"/><path fill="#9e9e9e" d="M23.01875 143.62256L21.971874 143.62256L21.971874 136.90381Q21.58125 137.26318 20.95625 137.63818Q20.346874 137.99756 19.8625 138.16943L19.8625 137.15381Q20.7375 136.73193 21.39375 136.15381Q22.065624 135.56006 22.346874 134.99756L23.01875 134.99756L23.01875 143.62256ZM26.20625 141.63818L27.221874 141.54443Q27.346874 142.26318 27.70625 142.59131Q28.08125 142.90381 28.64375 142.90381Q29.128124 142.90381 29.4875 142.68506Q29.8625 142.45068 30.096874 142.09131Q30.33125 141.71631 30.4875 141.09131Q30.64375 140.45068 30.64375 139.79443Q30.64375 139.71631 30.64375 139.57568Q30.33125 140.07568 29.784374 140.40381Q29.2375 140.71631 28.596874 140.71631Q27.51875 140.71631 26.784374 139.95068Q26.05 139.16943 26.05 137.90381Q26.05 136.59131 26.815624 135.79443Q27.596874 134.99756 28.753124 134.99756Q29.58125 134.99756 30.26875 135.45068Q30.971874 135.90381 31.33125 136.74756Q31.690624 137.57568 31.690624 139.15381Q31.690624 140.79443 31.33125 141.77881Q30.9875 142.74756 30.26875 143.26318Q29.565624 143.76318 28.628124 143.76318Q27.6125 143.76318 26.971874 143.21631Q26.33125 142.65381 26.20625 141.63818ZM30.51875 137.84131Q30.51875 136.93506 30.034374 136.40381Q29.565624 135.87256 28.878124 135.87256Q28.175 135.87256 27.64375 136.45068Q27.128124 137.01318 27.128124 137.93506Q27.128124 138.74756 27.628124 139.26318Q28.128124 139.77881 28.846874 139.77881Q29.58125 139.77881 30.05 139.26318Q30.51875 138.74756 30.51875 137.84131ZM33.6125 143.62256L33.6125 142.41943L34.815624 142.41943L34.815624 143.62256Q34.815624 144.27881 34.58125 144.68506Q34.346874 145.10693 33.846874 145.32568L33.55 144.87256Q33.878124 144.73193 34.034374 144.43506Q34.190624 144.15381 34.221874 143.62256L33.6125 143.62256ZM41.51875 137.13818L40.471874 137.21631Q40.33125 136.59131 40.08125 136.31006Q39.64375 135.85693 39.01875 135.85693Q38.51875 135.85693 38.128124 136.13818Q37.64375 136.51318 37.346874 137.21631Q37.065624 137.90381 37.05 139.18506Q37.425 138.60693 37.971874 138.32568Q38.534374 138.04443 39.14375 138.04443Q40.190624 138.04443 40.925 138.82568Q41.675 139.60693 41.675 140.82568Q41.675 141.63818 41.315624 142.34131Q40.971874 143.02881 40.3625 143.40381Q39.753124 143.76318 38.9875 143.76318Q37.659374 143.76318 36.83125 142.79443Q36.003124 141.82568 36.003124 139.60693Q36.003124 137.10693 36.925 135.98193Q37.721874 134.99756 39.08125 134.99756Q40.096874 134.99756 40.7375 135.57568Q41.39375 136.13818 41.51875 137.13818ZM37.221874 140.84131Q37.221874 141.38818 37.440624 141.88818Q37.675 142.37256 38.08125 142.63818Q38.503124 142.90381 38.971874 142.90381Q39.628124 142.90381 40.1125 142.37256Q40.596874 141.82568 40.596874 140.90381Q40.596874 140.01318 40.1125 139.49756Q39.64375 138.98193 38.925 138.98193Q38.20625 138.98193 37.70625 139.49756Q37.221874 140.01318 37.221874 140.84131ZM43.253124 137.09131Q43.253124 136.16943 43.70625 135.52881Q44.175 134.88818 45.05 134.88818Q45.8625 134.88818 46.39375 135.46631Q46.925 136.04443 46.925 137.15381Q46.925 138.24756 46.378124 138.84131Q45.846874 139.41943 45.065624 139.41943Q44.284374 139.41943 43.76875 138.84131Q43.253124 138.26318 43.253124 137.09131ZM45.08125 135.60693Q44.690624 135.60693 44.425 135.95068Q44.175 136.29443 44.175 137.20068Q44.175 138.02881 44.425 138.37256Q44.690624 138.70068 45.08125 138.70068Q45.4875 138.70068 45.7375 138.35693Q46.003124 138.01318 46.003124 137.12256Q46.003124 136.27881 45.7375 135.95068Q45.471874 135.60693 45.08125 135.60693ZM45.08125 143.93506L49.784374 134.88818L50.64375 134.88818L45.95625 143.93506L45.08125 143.93506ZM48.8 141.60693Q48.8 140.68506 49.253124 140.04443Q49.721874 139.40381 50.6125 139.40381Q51.425 139.40381 51.95625 139.98193Q52.4875 140.54443 52.4875 141.66943Q52.4875 142.76318 51.940624 143.35693Q51.409374 143.93506 50.6125 143.93506Q49.846874 143.93506 49.315624 143.35693Q48.8 142.77881 48.8 141.60693ZM50.64375 140.12256Q50.2375 140.12256 49.971874 140.46631Q49.721874 140.81006 49.721874 141.71631Q49.721874 142.52881 49.9875 142.87256Q50.253124 143.21631 50.64375 143.21631Q51.034374 143.21631 51.3 142.87256Q51.565624 142.52881 51.565624 141.62256Q51.565624 140.79443 51.3 140.46631Q51.034374 140.12256 50.64375 140.12256Z" fill-rule="nonzero"/><path stroke="#757575" stroke-width="1.0" stroke-linecap="butt" d="M18.55 131.12256L157.23334 131.12256L225.07289 131.12256" fill-rule="nonzero"/><path fill="#9e9e9e" d="M227.07289 131.12256C227.07289 130.01799 226.17746 129.12256 225.07289 129.12256C223.96832 129.12256 223.07289 130.01799 223.07289 131.12256C223.07289 132.22713 223.96832 133.12256 225.07289 133.12256C226.17746 133.12256 227.07289 132.22713 227.07289 131.12256" fill-rule="nonzero"/><path fill="#1a1a1a" d="M19.471874 207.13248L19.471874 198.53873L20.628124 198.53873L25.14375 205.28873L25.14375 198.53873L26.2375 198.53873L26.2375 207.13248L25.065624 207.13248L20.55 200.38248L20.55 207.13248L19.471874 207.13248ZM27.95625 204.0231Q27.95625 202.28873 28.909374 201.4606Q29.70625 200.7731 30.8625 200.7731Q32.14375 200.7731 32.95625 201.61685Q33.784374 202.44498 33.784374 203.92935Q33.784374 205.13248 33.425 205.81998Q33.065624 206.50748 32.3625 206.8981Q31.675 207.2731 30.8625 207.2731Q29.565624 207.2731 28.753124 206.44498Q27.95625 205.60123 27.95625 204.0231ZM29.034374 204.0231Q29.034374 205.2106 29.55 205.80435Q30.08125 206.3981 30.8625 206.3981Q31.659374 206.3981 32.175 205.80435Q32.690624 205.2106 32.690624 203.99185Q32.690624 202.8356 32.159374 202.24185Q31.64375 201.6481 30.8625 201.6481Q30.08125 201.6481 29.55 202.24185Q29.034374 202.81998 29.034374 204.0231Z" fill-rule="nonzero"/><path fill="#9e9e9e" d="M23.01875 224.13248L21.971874 224.13248L21.971874 217.41373Q21.58125 217.7731 20.95625 218.1481Q20.346874 218.50748 19.8625 218.67935L19.8625 217.66373Q20.7375 217.24185 21.39375 216.66373Q22.065624 216.06998 22.346874 215.50748L23.01875 215.50748L23.01875 224.13248ZM26.05 221.86685L27.1125 221.72623Q27.284374 222.61685 27.721874 223.0231Q28.159374 223.41373 28.784374 223.41373Q29.534374 223.41373 30.05 222.8981Q30.565624 222.38248 30.565624 221.61685Q30.565624 220.8981 30.08125 220.42935Q29.6125 219.94498 28.878124 219.94498Q28.58125 219.94498 28.128124 220.06998L28.253124 219.13248Q28.3625 219.1481 28.425 219.1481Q29.096874 219.1481 29.628124 218.80435Q30.175 218.44498 30.175 217.7106Q30.175 217.13248 29.784374 216.75748Q29.39375 216.36685 28.76875 216.36685Q28.159374 216.36685 27.7375 216.75748Q27.33125 217.1481 27.221874 217.91373L26.159374 217.72623Q26.346874 216.67935 27.034374 216.10123Q27.721874 215.50748 28.7375 215.50748Q29.440624 215.50748 30.034374 215.81998Q30.628124 216.11685 30.940624 216.63248Q31.253124 217.1481 31.253124 217.74185Q31.253124 218.28873 30.95625 218.75748Q30.659374 219.2106 30.08125 219.47623Q30.83125 219.6481 31.253124 220.2106Q31.675 220.75748 31.675 221.60123Q31.675 222.72623 30.846874 223.50748Q30.034374 224.28873 28.784374 224.28873Q27.659374 224.28873 26.909374 223.61685Q26.159374 222.92935 26.05 221.86685ZM33.6125 224.13248L33.6125 222.92935L34.815624 222.92935L34.815624 224.13248Q34.815624 224.78873 34.58125 225.19498Q34.346874 225.61685 33.846874 225.8356L33.55 225.38248Q33.878124 225.24185 34.034374 224.94498Q34.190624 224.66373 34.221874 224.13248L33.6125 224.13248ZM36.05 219.8981Q36.05 218.36685 36.3625 217.44498Q36.675 216.50748 37.284374 216.00748Q37.909374 215.50748 38.846874 215.50748Q39.534374 215.50748 40.05 215.78873Q40.58125 216.06998 40.925 216.60123Q41.26875 217.11685 41.45625 217.86685Q41.64375 218.61685 41.64375 219.8981Q41.64375 221.41373 41.33125 222.3356Q41.034374 223.25748 40.409374 223.7731Q39.8 224.2731 38.846874 224.2731Q37.6125 224.2731 36.89375 223.38248Q36.05 222.31998 36.05 219.8981ZM37.128124 219.8981Q37.128124 222.00748 37.628124 222.7106Q38.128124 223.41373 38.846874 223.41373Q39.58125 223.41373 40.065624 222.7106Q40.565624 222.00748 40.565624 219.8981Q40.565624 217.7731 40.065624 217.0856Q39.58125 216.38248 38.83125 216.38248Q38.1125 216.38248 37.675 216.99185Q37.128124 217.7731 37.128124 219.8981ZM43.253124 217.60123Q43.253124 216.67935 43.70625 216.03873Q44.175 215.3981 45.05 215.3981Q45.8625 215.3981 46.39375 215.97623Q46.925 216.55435 46.925 217.66373Q46.925 218.75748 46.378124 219.35123Q45.846874 219.92935 45.065624 219.92935Q44.284374 219.92935 43.76875 219.35123Q43.253124 218.7731 43.253124 217.60123ZM45.08125 216.11685Q44.690624 216.11685 44.425 216.4606Q44.175 216.80435 44.175 217.7106Q44.175 218.53873 44.425 218.88248Q44.690624 219.2106 45.08125 219.2106Q45.4875 219.2106 45.7375 218.86685Q46.003124 218.5231 46.003124 217.63248Q46.003124 216.78873 45.7375 216.4606Q45.471874 216.11685 45.08125 216.11685ZM45.08125 224.44498L49.784374 215.3981L50.64375 215.3981L45.95625 224.44498L45.08125 224.44498ZM48.8 222.11685Q48.8 221.19498 49.253124 220.55435Q49.721874 219.91373 50.6125 219.91373Q51.425 219.91373 51.95625 220.49185Q52.4875 221.05435 52.4875 222.17935Q52.4875 223.2731 51.940624 223.86685Q51.409374 224.44498 50.6125 224.44498Q49.846874 224.44498 49.315624 223.86685Q48.8 223.28873 48.8 222.11685ZM50.64375 220.63248Q50.2375 220.63248 49.971874 220.97623Q49.721874 221.31998 49.721874 222.22623Q49.721874 223.03873 49.9875 223.38248Q50.253124 223.72623 50.64375 223.72623Q51.034374 223.72623 51.3 223.38248Q51.565624 223.03873 51.565624 222.13248Q51.565624 221.30435 51.3 220.97623Q51.034374 220.63248 50.64375 220.63248Z" fill-rule="nonzero"/><path stroke="#757575" stroke-width="1.0" stroke-linecap="butt" d="M18.55 211.63248L157.23334 211.63248L170.37456 211.63248" fill-rule="nonzero"/><path fill="#9e9e9e" d="M172.37456 211.63248C172.37456 210.5279 171.47913 209.63248 170.37456 209.63248C169.26999 209.63248 168.37456 210.5279 168.37456 211.63248C168.37456 212.73705 169.26999 213.63248 170.37456 213.63248C171.47913 213.63248 172.37456 212.73705 172.37456 211.63248" fill-rule="nonzero"/><path fill="#1a1a1a" d="M563.79376 248.1819L563.79376 244.54128L560.48126 239.58815L561.8719 239.58815L563.5594 242.1819Q564.02814 242.90065 564.4344 243.63503Q564.825 242.96315 565.3719 242.1194L567.04376 239.58815L568.35626 239.58815L564.9344 244.54128L564.9344 248.1819L563.79376 248.1819ZM573.4969 246.1819L574.59064 246.3069Q574.34064 247.26003 573.6375 247.79128Q572.9344 248.32253 571.85626 248.32253Q570.4969 248.32253 569.6844 247.47878Q568.8875 246.63503 568.8875 245.1194Q568.8875 243.5569 569.7 242.69753Q570.5125 241.82253 571.79376 241.82253Q573.04376 241.82253 573.825 242.66628Q574.6219 243.51003 574.6219 245.0569Q574.6219 245.15065 574.6219 245.33815L569.98126 245.33815Q570.04376 246.3694 570.5594 246.91628Q571.075 247.44753 571.85626 247.44753Q572.4344 247.44753 572.84064 247.15065Q573.2625 246.83815 573.4969 246.1819ZM570.04376 244.47878L573.5125 244.47878Q573.45 243.6819 573.1219 243.29128Q572.60626 242.6819 571.8094 242.6819Q571.075 242.6819 570.575 243.16628Q570.09064 243.65065 570.04376 244.47878ZM575.825 246.32253L576.85626 246.16628Q576.95 246.79128 577.34064 247.1194Q577.7469 247.44753 578.48126 247.44753Q579.2 247.44753 579.54376 247.16628Q579.90314 246.8694 579.90314 246.46315Q579.90314 246.10378 579.59064 245.90065Q579.3719 245.76003 578.5125 245.54128Q577.35626 245.2444 576.90314 245.04128Q576.46564 244.82253 576.23126 244.44753Q575.9969 244.07253 575.9969 243.60378Q575.9969 243.19753 576.1844 242.83815Q576.3719 242.47878 576.7 242.2444Q576.95 242.07253 577.3719 241.94753Q577.79376 241.82253 578.29376 241.82253Q579.0125 241.82253 579.5594 242.04128Q580.1219 242.2444 580.3875 242.60378Q580.65314 242.96315 580.7469 243.5569L579.71564 243.69753Q579.65314 243.22878 579.3094 242.96315Q578.98126 242.6819 578.35626 242.6819Q577.6375 242.6819 577.325 242.9319Q577.0125 243.16628 577.0125 243.4944Q577.0125 243.69753 577.1375 243.85378Q577.27814 244.02565 577.54376 244.13503Q577.7 244.19753 578.48126 244.40065Q579.60626 244.71315 580.04376 244.90065Q580.48126 245.08815 580.73126 245.44753Q580.98126 245.8069 580.98126 246.35378Q580.98126 246.88503 580.66876 247.35378Q580.3719 247.8069 579.79376 248.07253Q579.21564 248.32253 578.48126 248.32253Q577.2625 248.32253 576.6219 247.82253Q575.9969 247.3069 575.825 246.32253Z" fill-rule="nonzero"/><path fill="#9e9e9e" d="M552.41876 258.69754L551.3719 258.77567Q551.23126 258.15067 550.98126 257.86942Q550.54376 257.4163 549.91876 257.4163Q549.41876 257.4163 549.02814 257.69754Q548.54376 258.07254 548.2469 258.77567Q547.96564 259.46317 547.95 260.74442Q548.325 260.1663 548.8719 259.88504Q549.4344 259.6038 550.04376 259.6038Q551.09064 259.6038 551.825 260.38504Q552.575 261.1663 552.575 262.38504Q552.575 263.19754 552.21564 263.90067Q551.8719 264.58817 551.2625 264.96317Q550.65314 265.32254 549.8875 265.32254Q548.5594 265.32254 547.73126 264.3538Q546.90314 263.38504 546.90314 261.1663Q546.90314 258.6663 547.825 257.5413Q548.6219 256.55692 549.98126 256.55692Q550.9969 256.55692 551.6375 257.13504Q552.29376 257.69754 552.41876 258.69754ZM548.1219 262.40067Q548.1219 262.94754 548.34064 263.44754Q548.575 263.93192 548.98126 264.19754Q549.40314 264.46317 549.8719 264.46317Q550.52814 264.46317 551.0125 263.93192Q551.4969 263.38504 551.4969 262.46317Q551.4969 261.57254 551.0125 261.05692Q550.54376 260.5413 549.825 260.5413Q549.10626 260.5413 548.60626 261.05692Q548.1219 261.57254 548.1219 262.40067ZM554.0125 257.71317L554.0125 256.69754L559.575 256.69754L559.575 257.52567Q558.7625 258.40067 557.95 259.8538Q557.15314 261.2913 556.71564 262.82254Q556.3875 263.90067 556.3094 265.18192L555.21564 265.18192Q555.23126 264.1663 555.60626 262.7288Q555.9969 261.2913 556.7 259.96317Q557.41876 258.63504 558.23126 257.71317L554.0125 257.71317ZM561.5125 265.18192L561.5125 263.9788L562.71564 263.9788L562.71564 265.18192Q562.71564 265.83817 562.48126 266.24442Q562.2469 266.6663 561.7469 266.88504L561.45 266.43192Q561.77814 266.2913 561.9344 265.99442Q562.09064 265.71317 562.1219 265.18192L561.5125 265.18192ZM567.325 265.18192L567.325 263.11942L563.60626 263.11942L563.60626 262.15067L567.52814 256.58817L568.3875 256.58817L568.3875 262.15067L569.54376 262.15067L569.54376 263.11942L568.3875 263.11942L568.3875 265.18192L567.325 265.18192ZM567.325 262.15067L567.325 258.2913L564.6375 262.15067L567.325 262.15067ZM571.15314 258.65067Q571.15314 257.7288 571.60626 257.08817Q572.075 256.44754 572.95 256.44754Q573.7625 256.44754 574.29376 257.02567Q574.825 257.6038 574.825 258.71317Q574.825 259.80692 574.27814 260.40067Q573.7469 260.9788 572.96564 260.9788Q572.1844 260.9788 571.66876 260.40067Q571.15314 259.82254 571.15314 258.65067ZM572.98126 257.1663Q572.59064 257.1663 572.325 257.51004Q572.075 257.8538 572.075 258.76004Q572.075 259.58817 572.325 259.93192Q572.59064 260.26004 572.98126 260.26004Q573.3875 260.26004 573.6375 259.9163Q573.90314 259.57254 573.90314 258.68192Q573.90314 257.83817 573.6375 257.51004Q573.3719 257.1663 572.98126 257.1663ZM572.98126 265.49442L577.6844 256.44754L578.54376 256.44754L573.85626 265.49442L572.98126 265.49442ZM576.7 263.1663Q576.7 262.24442 577.15314 261.6038Q577.6219 260.96317 578.5125 260.96317Q579.325 260.96317 579.85626 261.5413Q580.3875 262.1038 580.3875 263.2288Q580.3875 264.32254 579.84064 264.9163Q579.3094 265.49442 578.5125 265.49442Q577.7469 265.49442 577.21564 264.9163Q576.7 264.33817 576.7 263.1663ZM578.54376 261.68192Q578.1375 261.68192 577.8719 262.02567Q577.6219 262.36942 577.6219 263.27567Q577.6219 264.08817 577.8875 264.43192Q578.15314 264.77567 578.54376 264.77567Q578.9344 264.77567 579.2 264.43192Q579.46564 264.08817 579.46564 263.18192Q579.46564 262.3538 579.2 262.02567Q578.9344 261.68192 578.54376 261.68192Z" fill-rule="nonzero"/><path stroke="#757575" stroke-width="1.0" stroke-linecap="butt" d="M581.45 252.6819L442.76666 252.6819L411.01328 252.6819" fill-rule="nonzero"/><path fill="#9e9e9e" d="M413.01328 252.6819C413.01328 251.57733 412.11786 250.6819 411.01328 250.6819C409.90872 250.6819 409.01328 251.57733 409.01328 252.6819C409.01328 253.78648 409.90872 254.6819 411.01328 254.6819C412.11786 254.6819 413.01328 253.78648 413.01328 252.6819" fill-rule="nonzero"/><path fill="#757575" d="M22.596874 37.55L18.8 23.2375L20.7375 23.2375L22.909374 32.6125Q23.26875 34.096874 23.51875 35.55Q24.065624 33.253124 24.159374 32.89375L26.89375 23.2375L29.175 23.2375L31.221874 30.471874Q32.003124 33.175 32.346874 35.55Q32.6125 34.190624 33.05 32.425L35.3 23.2375L37.20625 23.2375L33.284374 37.55L31.45625 37.55L28.440624 26.64375Q28.05 25.26875 27.9875 24.95625Q27.753124 25.940624 27.565624 26.64375L24.534374 37.55L22.596874 37.55ZM38.221874 32.3625Q38.221874 29.4875 39.815624 28.096874Q41.159374 26.940624 43.08125 26.940624Q45.221874 26.940624 46.565624 28.346874Q47.925 29.753124 47.925 32.221874Q47.925 34.221874 47.33125 35.378124Q46.7375 36.51875 45.58125 37.159374Q44.440624 37.784374 43.08125 37.784374Q40.89375 37.784374 39.55 36.39375Q38.221874 34.9875 38.221874 32.3625ZM40.01875 32.3625Q40.01875 34.3625 40.878124 35.346874Q41.753124 36.33125 43.08125 36.33125Q44.39375 36.33125 45.253124 35.346874Q46.128124 34.346874 46.128124 32.3Q46.128124 30.378124 45.253124 29.39375Q44.378124 28.39375 43.08125 28.39375Q41.753124 28.39375 40.878124 29.39375Q40.01875 30.378124 40.01875 32.3625ZM56.659374 37.55L56.659374 36.01875Q55.45625 37.784374 53.378124 37.784374Q52.45625 37.784374 51.659374 37.440624Q50.8625 37.08125 50.471874 36.55Q50.096874 36.01875 49.940624 35.2375Q49.83125 34.721874 49.83125 33.596874L49.83125 27.175L51.58125 27.175L51.58125 32.925Q51.58125 34.3 51.690624 34.784374Q51.8625 35.471874 52.39375 35.878124Q52.940624 36.26875 53.721874 36.26875Q54.51875 36.26875 55.20625 35.8625Q55.909374 35.45625 56.190624 34.76875Q56.4875 34.065624 56.4875 32.7375L56.4875 27.175L58.2375 27.175L58.2375 37.55L56.659374 37.55ZM60.83125 37.55L60.83125 23.2375L62.58125 23.2375L62.58125 37.55L60.83125 37.55ZM71.59688 37.55L71.59688 36.2375Q70.6125 37.784374 68.69063 37.784374Q67.45625 37.784374 66.40938 37.096874Q65.37813 36.409374 64.8 35.190624Q64.2375 33.971874 64.2375 32.378124Q64.2375 30.815624 64.75313 29.55Q65.26875 28.284374 66.3 27.6125Q67.34688 26.940624 68.6125 26.940624Q69.55 26.940624 70.28438 27.346874Q71.01875 27.7375 71.4875 28.3625L71.4875 23.2375L73.22188 23.2375L73.22188 37.55L71.59688 37.55ZM66.03438 32.378124Q66.03438 34.3625 66.87813 35.346874Q67.72188 36.33125 68.8625 36.33125Q70.01875 36.33125 70.81563 35.39375Q71.62813 34.45625 71.62813 32.51875Q71.62813 30.39375 70.8 29.39375Q69.9875 28.39375 68.78438 28.39375Q67.6125 28.39375 66.81563 29.3625Q66.03438 30.315624 66.03438 32.378124ZM81.78438 41.55L81.59688 39.89375Q82.175 40.05 82.59688 40.05Q83.19063 40.05 83.53438 39.846874Q83.89375 39.659374 84.1125 39.315624Q84.28438 39.05 84.65938 38.003124Q84.70625 37.846874 84.81563 37.565624L80.87813 27.175L82.76875 27.175L84.925 33.190624Q85.34688 34.33125 85.675 35.58125Q85.9875 34.378124 86.39375 33.221874L88.6125 27.175L90.37813 27.175L86.425 37.721874Q85.8 39.440624 85.44063 40.08125Q84.97188 40.95625 84.3625 41.346874Q83.76875 41.753124 82.925 41.753124Q82.40938 41.753124 81.78438 41.55ZM91.22188 32.3625Q91.22188 29.4875 92.81563 28.096874Q94.15938 26.940624 96.08125 26.940624Q98.22188 26.940624 99.56563 28.346874Q100.925 29.753124 100.925 32.221874Q100.925 34.221874 100.33125 35.378124Q99.7375 36.51875 98.58125 37.159374Q97.44063 37.784374 96.08125 37.784374Q93.89375 37.784374 92.55 36.39375Q91.22188 34.9875 91.22188 32.3625ZM93.01875 32.3625Q93.01875 34.3625 93.87813 35.346874Q94.75313 36.33125 96.08125 36.33125Q97.39375 36.33125 98.25313 35.346874Q99.12813 34.346874 99.12813 32.3Q99.12813 30.378124 98.25313 29.39375Q97.37813 28.39375 96.08125 28.39375Q94.75313 28.39375 93.87813 29.39375Q93.01875 30.378124 93.01875 32.3625ZM109.65938 37.55L109.65938 36.01875Q108.45625 37.784374 106.37813 37.784374Q105.45625 37.784374 104.65938 37.440624Q103.8625 37.08125 103.47188 36.55Q103.09688 36.01875 102.94063 35.2375Q102.83125 34.721874 102.83125 33.596874L102.83125 27.175L104.58125 27.175L104.58125 32.925Q104.58125 34.3 104.69063 34.784374Q104.8625 35.471874 105.39375 35.878124Q105.94063 36.26875 106.72188 36.26875Q107.51875 36.26875 108.20625 35.8625Q108.90938 35.45625 109.19063 34.76875Q109.4875 34.065624 109.4875 32.7375L109.4875 27.175L111.2375 27.175L111.2375 37.55L109.65938 37.55ZM126.65938 37.55L126.65938 36.01875Q125.45625 37.784374 123.37813 37.784374Q122.45625 37.784374 121.65938 37.440624Q120.8625 37.08125 120.47188 36.55Q120.09688 36.01875 119.94063 35.2375Q119.83125 34.721874 119.83125 33.596874L119.83125 27.175L121.58125 27.175L121.58125 32.925Q121.58125 34.3 121.69063 34.784374Q121.8625 35.471874 122.39375 35.878124Q122.94063 36.26875 123.72188 36.26875Q124.51875 36.26875 125.20625 35.8625Q125.90938 35.45625 126.19063 34.76875Q126.4875 34.065624 126.4875 32.7375L126.4875 27.175L128.2375 27.175L128.2375 37.55L126.65938 37.55ZM130.15938 34.45625L131.90938 34.175Q132.05 35.221874 132.72188 35.784374Q133.39375 36.33125 134.59688 36.33125Q135.8 36.33125 136.37813 35.846874Q136.97188 35.346874 136.97188 34.690624Q136.97188 34.096874 136.45625 33.753124Q136.09688 33.51875 134.65938 33.159374Q132.72188 32.659374 131.97188 32.315624Q131.2375 31.95625 130.84688 31.33125Q130.45625 30.690624 130.45625 29.925Q130.45625 29.2375 130.76875 28.64375Q131.09688 28.05 131.64375 27.659374Q132.05 27.3625 132.75313 27.159374Q133.47188 26.940624 134.28438 26.940624Q135.50313 26.940624 136.425 27.3Q137.34688 27.64375 137.78438 28.253124Q138.22188 28.846874 138.39375 29.846874L136.675 30.08125Q136.55 29.284374 135.9875 28.846874Q135.425 28.39375 134.40938 28.39375Q133.19063 28.39375 132.675 28.8Q132.15938 29.190624 132.15938 29.721874Q132.15938 30.065624 132.37813 30.346874Q132.58125 30.628124 133.05 30.815624Q133.31563 30.909374 134.59688 31.253124Q136.47188 31.753124 137.20625 32.08125Q137.94063 32.39375 138.3625 33.003124Q138.78438 33.596874 138.78438 34.503124Q138.78438 35.378124 138.26875 36.159374Q137.75313 36.940624 136.78438 37.3625Q135.81563 37.784374 134.59688 37.784374Q132.58125 37.784374 131.51875 36.940624Q130.45625 36.096874 130.15938 34.45625ZM147.97188 34.20625L149.78438 34.440624Q149.3625 36.01875 148.19063 36.909374Q147.03438 37.784374 145.22188 37.784374Q142.95625 37.784374 141.6125 36.39375Q140.28438 34.9875 140.28438 32.45625Q140.28438 29.83125 141.62813 28.39375Q142.97188 26.940624 145.12813 26.940624Q147.20625 26.940624 148.51875 28.3625Q149.84688 29.76875 149.84688 32.346874Q149.84688 32.503124 149.83125 32.815624L142.09688 32.815624Q142.19063 34.51875 143.06563 35.425Q143.94063 36.33125 145.2375 36.33125Q146.20625 36.33125 146.87813 35.83125Q147.56563 35.315624 147.97188 34.20625ZM142.19063 31.3625L147.9875 31.3625Q147.87813 30.065624 147.33125 29.409374Q146.4875 28.39375 145.14375 28.39375Q143.94063 28.39375 143.1125 29.20625Q142.28438 30.003124 142.19063 31.3625ZM164.64375 36.26875Q163.65938 37.096874 162.75313 37.440624Q161.84688 37.784374 160.81563 37.784374Q159.1125 37.784374 158.19063 36.95625Q157.26875 36.1125 157.26875 34.815624Q157.26875 34.05 157.6125 33.425Q157.97188 32.8 158.53438 32.425Q159.09688 32.034374 159.8 31.83125Q160.31563 31.70625 161.3625 31.565624Q163.4875 31.315624 164.4875 30.971874Q164.50313 30.6125 164.50313 30.503124Q164.50313 29.440624 164.00313 28.9875Q163.33125 28.39375 162.00313 28.39375Q160.75313 28.39375 160.15938 28.83125Q159.58125 29.26875 159.3 30.378124L157.58125 30.14375Q157.81563 29.034374 158.34688 28.3625Q158.87813 27.675 159.89375 27.315624Q160.90938 26.940624 162.25313 26.940624Q163.58125 26.940624 164.40938 27.253124Q165.2375 27.565624 165.62813 28.05Q166.01875 28.51875 166.175 29.2375Q166.26875 29.690624 166.26875 30.8625L166.26875 33.20625Q166.26875 35.659374 166.37813 36.315624Q166.4875 36.95625 166.83125 37.55L164.9875 37.55Q164.72188 37.003124 164.64375 36.26875ZM164.4875 32.346874Q163.53438 32.7375 161.6125 33.003124Q160.53438 33.159374 160.08125 33.3625Q159.64375 33.55 159.39375 33.925Q159.14375 34.3 159.14375 34.76875Q159.14375 35.471874 159.675 35.940624Q160.20625 36.409374 161.2375 36.409374Q162.25313 36.409374 163.03438 35.971874Q163.83125 35.51875 164.20625 34.753124Q164.4875 34.14375 164.4875 32.9875L164.4875 32.346874ZM168.8625 37.55L168.8625 27.175L170.45625 27.175L170.45625 28.659374Q171.59688 26.940624 173.75313 26.940624Q174.69063 26.940624 175.47188 27.284374Q176.26875 27.6125 176.65938 28.159374Q177.05 28.70625 177.20625 29.45625Q177.3 29.95625 177.3 31.175L177.3 37.55L175.53438 37.55L175.53438 31.2375Q175.53438 30.159374 175.33125 29.628124Q175.12813 29.096874 174.59688 28.784374Q174.08125 28.471874 173.37813 28.471874Q172.25313 28.471874 171.44063 29.190624Q170.62813 29.89375 170.62813 31.878124L170.62813 37.55L168.8625 37.55ZM192.64375 36.26875Q191.65938 37.096874 190.75313 37.440624Q189.84688 37.784374 188.81563 37.784374Q187.1125 37.784374 186.19063 36.95625Q185.26875 36.1125 185.26875 34.815624Q185.26875 34.05 185.6125 33.425Q185.97188 32.8 186.53438 32.425Q187.09688 32.034374 187.8 31.83125Q188.31563 31.70625 189.3625 31.565624Q191.4875 31.315624 192.4875 30.971874Q192.50313 30.6125 192.50313 30.503124Q192.50313 29.440624 192.00313 28.9875Q191.33125 28.39375 190.00313 28.39375Q188.75313 28.39375 188.15938 28.83125Q187.58125 29.26875 187.3 30.378124L185.58125 30.14375Q185.81563 29.034374 186.34688 28.3625Q186.87813 27.675 187.89375 27.315624Q188.90938 26.940624 190.25313 26.940624Q191.58125 26.940624 192.40938 27.253124Q193.2375 27.565624 193.62813 28.05Q194.01875 28.51875 194.175 29.2375Q194.26875 29.690624 194.26875 30.8625L194.26875 33.20625Q194.26875 35.659374 194.37813 36.315624Q194.4875 36.95625 194.83125 37.55L192.9875 37.55Q192.72188 37.003124 192.64375 36.26875ZM192.4875 32.346874Q191.53438 32.7375 189.6125 33.003124Q188.53438 33.159374 188.08125 33.3625Q187.64375 33.55 187.39375 33.925Q187.14375 34.3 187.14375 34.76875Q187.14375 35.471874 187.675 35.940624Q188.20625 36.409374 189.2375 36.409374Q190.25313 36.409374 191.03438 35.971874Q191.83125 35.51875 192.20625 34.753124Q192.4875 34.14375 192.4875 32.9875L192.4875 32.346874ZM196.8625 41.51875L196.8625 27.175L198.47188 27.175L198.47188 28.51875Q199.03438 27.7375 199.7375 27.346874Q200.45625 26.940624 201.47188 26.940624Q202.8 26.940624 203.81563 27.628124Q204.83125 28.315624 205.34688 29.565624Q205.87813 30.8 205.87813 32.284374Q205.87813 33.878124 205.3 35.159374Q204.7375 36.425 203.64375 37.1125Q202.55 37.784374 201.34688 37.784374Q200.47188 37.784374 199.76875 37.409374Q199.08125 37.034374 198.62813 36.471874L198.62813 41.51875L196.8625 41.51875ZM198.45625 32.425Q198.45625 34.425 199.26875 35.378124Q200.08125 36.33125 201.2375 36.33125Q202.40938 36.33125 203.2375 35.346874Q204.08125 34.3625 204.08125 32.26875Q204.08125 30.3 203.25313 29.315624Q202.44063 28.315624 201.31563 28.315624Q200.19063 28.315624 199.31563 29.378124Q198.45625 30.425 198.45625 32.425ZM207.8625 41.51875L207.8625 27.175L209.47188 27.175L209.47188 28.51875Q210.03438 27.7375 210.7375 27.346874Q211.45625 26.940624 212.47188 26.940624Q213.8 26.940624 214.81563 27.628124Q215.83125 28.315624 216.34688 29.565624Q216.87813 30.8 216.87813 32.284374Q216.87813 33.878124 216.3 35.159374Q215.7375 36.425 214.64375 37.1125Q213.55 37.784374 212.34688 37.784374Q211.47188 37.784374 210.76875 37.409374Q210.08125 37.034374 209.62813 36.471874L209.62813 41.51875L207.8625 41.51875ZM209.45625 32.425Q209.45625 34.425 210.26875 35.378124Q211.08125 36.33125 212.2375 36.33125Q213.40938 36.33125 214.2375 35.346874Q215.08125 34.3625 215.08125 32.26875Q215.08125 30.3 214.25313 29.315624Q213.44063 28.315624 212.31563 28.315624Q211.19063 28.315624 210.31563 29.378124Q209.45625 30.425 209.45625 32.425ZM228.70625 35.971874L228.95625 37.534374Q228.22188 37.690624 227.62813 37.690624Q226.675 37.690624 226.14375 37.39375Q225.62813 37.08125 225.40938 36.596874Q225.19063 36.096874 225.19063 34.51875L225.19063 28.55L223.90938 28.55L223.90938 27.175L225.19063 27.175L225.19063 24.6125L226.94063 23.55L226.94063 27.175L228.70625 27.175L228.70625 28.55L226.94063 28.55L226.94063 34.6125Q226.94063 35.3625 227.03438 35.58125Q227.12813 35.784374 227.33125 35.925Q227.55 36.05 227.94063 36.05Q228.22188 36.05 228.70625 35.971874ZM230.22188 32.3625Q230.22188 29.4875 231.81563 28.096874Q233.15938 26.940624 235.08125 26.940624Q237.22188 26.940624 238.56563 28.346874Q239.925 29.753124 239.925 32.221874Q239.925 34.221874 239.33125 35.378124Q238.7375 36.51875 237.58125 37.159374Q236.44063 37.784374 235.08125 37.784374Q232.89375 37.784374 231.55 36.39375Q230.22188 34.9875 230.22188 32.3625ZM232.01875 32.3625Q232.01875 34.3625 232.87813 35.346874Q233.75313 36.33125 235.08125 36.33125Q236.39375 36.33125 237.25313 35.346874Q238.12813 34.346874 238.12813 32.3Q238.12813 30.378124 237.25313 29.39375Q236.37813 28.39375 235.08125 28.39375Q233.75313 28.39375 232.87813 29.39375Q232.01875 30.378124 232.01875 32.3625ZM247.87813 25.253124L247.87813 23.2375L249.64375 23.2375L249.64375 25.253124L247.87813 25.253124ZM247.87813 37.55L247.87813 27.175L249.64375 27.175L249.64375 37.55L247.87813 37.55ZM251.8625 37.55L251.8625 27.175L253.44063 27.175L253.44063 28.628124Q253.925 27.878124 254.7375 27.409374Q255.55 26.940624 256.58124 26.940624Q257.7375 26.940624 258.47186 27.425Q259.20624 27.89375 259.51874 28.753124Q260.7531 26.940624 262.72186 26.940624Q264.26874 26.940624 265.09686 27.8Q265.925 28.659374 265.925 30.425L265.925 37.55L264.175 37.55L264.175 31.01875Q264.175 29.95625 264.0031 29.503124Q263.83124 29.034374 263.3781 28.753124Q262.9406 28.471874 262.33124 28.471874Q261.2375 28.471874 260.5031 29.20625Q259.78436 29.925 259.78436 31.51875L259.78436 37.55L258.03436 37.55L258.03436 30.815624Q258.03436 29.64375 257.59686 29.065624Q257.175 28.471874 256.1906 28.471874Q255.45625 28.471874 254.81563 28.8625Q254.19063 29.253124 253.90938 30.003124Q253.62813 30.753124 253.62813 32.175L253.62813 37.55L251.8625 37.55ZM268.8625 41.51875L268.8625 27.175L270.47186 27.175L270.47186 28.51875Q271.03436 27.7375 271.7375 27.346874Q272.45624 26.940624 273.47186 26.940624Q274.8 26.940624 275.8156 27.628124Q276.83124 28.315624 277.34686 29.565624Q277.8781 30.8 277.8781 32.284374Q277.8781 33.878124 277.3 35.159374Q276.7375 36.425 275.64374 37.1125Q274.55 37.784374 273.34686 37.784374Q272.47186 37.784374 271.76874 37.409374Q271.08124 37.034374 270.6281 36.471874L270.6281 41.51875L268.8625 41.51875ZM270.45624 32.425Q270.45624 34.425 271.26874 35.378124Q272.08124 36.33125 273.2375 36.33125Q274.40936 36.33125 275.2375 35.346874Q276.08124 34.3625 276.08124 32.26875Q276.08124 30.3 275.2531 29.315624Q274.4406 28.315624 273.3156 28.315624Q272.1906 28.315624 271.3156 29.378124Q270.45624 30.425 270.45624 32.425ZM279.84686 37.55L279.84686 27.175L281.425 27.175L281.425 28.753124Q282.03436 27.64375 282.55 27.3Q283.0656 26.940624 283.675 26.940624Q284.5656 26.940624 285.4875 27.503124L284.8781 29.14375Q284.2375 28.753124 283.59686 28.753124Q283.01874 28.753124 282.55 29.1125Q282.09686 29.45625 281.89374 30.065624Q281.6125 31.003124 281.6125 32.1125L281.6125 37.55L279.84686 37.55ZM286.22186 32.3625Q286.22186 29.4875 287.8156 28.096874Q289.15936 26.940624 291.08124 26.940624Q293.22186 26.940624 294.5656 28.346874Q295.925 29.753124 295.925 32.221874Q295.925 34.221874 295.33124 35.378124Q294.7375 36.51875 293.58124 37.159374Q292.4406 37.784374 291.08124 37.784374Q288.89374 37.784374 287.55 36.39375Q286.22186 34.9875 286.22186 32.3625ZM288.01874 32.3625Q288.01874 34.3625 288.8781 35.346874Q289.7531 36.33125 291.08124 36.33125Q292.39374 36.33125 293.2531 35.346874Q294.1281 34.346874 294.1281 32.3Q294.1281 30.378124 293.2531 29.39375Q292.3781 28.39375 291.08124 28.39375Q289.7531 28.39375 288.8781 29.39375Q288.01874 30.378124 288.01874 32.3625ZM300.7531 37.55L296.8 27.175L298.65936 27.175L300.89374 33.39375Q301.2531 34.39375 301.55 35.471874Q301.78436 34.659374 302.20624 33.503124L304.5031 27.175L306.3156 27.175L302.39374 37.55L300.7531 37.55ZM314.97186 34.20625L316.78436 34.440624Q316.3625 36.01875 315.1906 36.909374Q314.03436 37.784374 312.22186 37.784374Q309.95624 37.784374 308.6125 36.39375Q307.28436 34.9875 307.28436 32.45625Q307.28436 29.83125 308.6281 28.39375Q309.97186 26.940624 312.1281 26.940624Q314.20624 26.940624 315.51874 28.3625Q316.84686 29.76875 316.84686 32.346874Q316.84686 32.503124 316.83124 32.815624L309.09686 32.815624Q309.1906 34.51875 310.0656 35.425Q310.9406 36.33125 312.2375 36.33125Q313.20624 36.33125 313.8781 35.83125Q314.5656 35.315624 314.97186 34.20625ZM309.1906 31.3625L314.9875 31.3625Q314.8781 30.065624 314.33124 29.409374Q313.4875 28.39375 312.14374 28.39375Q310.9406 28.39375 310.1125 29.20625Q309.28436 30.003124 309.1906 31.3625ZM324.78436 41.55L324.59686 39.89375Q325.175 40.05 325.59686 40.05Q326.1906 40.05 326.53436 39.846874Q326.89374 39.659374 327.1125 39.315624Q327.28436 39.05 327.65936 38.003124Q327.70624 37.846874 327.8156 37.565624L323.8781 27.175L325.76874 27.175L327.925 33.190624Q328.34686 34.33125 328.675 35.58125Q328.9875 34.378124 329.39374 33.221874L331.6125 27.175L333.3781 27.175L329.425 37.721874Q328.8 39.440624 328.4406 40.08125Q327.97186 40.95625 327.3625 41.346874Q326.76874 41.753124 325.925 41.753124Q325.40936 41.753124 324.78436 41.55ZM334.22186 32.3625Q334.22186 29.4875 335.8156 28.096874Q337.15936 26.940624 339.08124 26.940624Q341.22186 26.940624 342.5656 28.346874Q343.925 29.753124 343.925 32.221874Q343.925 34.221874 343.33124 35.378124Q342.7375 36.51875 341.58124 37.159374Q340.4406 37.784374 339.08124 37.784374Q336.89374 37.784374 335.55 36.39375Q334.22186 34.9875 334.22186 32.3625ZM336.01874 32.3625Q336.01874 34.3625 336.8781 35.346874Q337.7531 36.33125 339.08124 36.33125Q340.39374 36.33125 341.2531 35.346874Q342.1281 34.346874 342.1281 32.3Q342.1281 30.378124 341.2531 29.39375Q340.3781 28.39375 339.08124 28.39375Q337.7531 28.39375 336.8781 29.39375Q336.01874 30.378124 336.01874 32.3625ZM352.65936 37.55L352.65936 36.01875Q351.45624 37.784374 349.3781 37.784374Q348.45624 37.784374 347.65936 37.440624Q346.8625 37.08125 346.47186 36.55Q346.09686 36.01875 345.9406 35.2375Q345.83124 34.721874 345.83124 33.596874L345.83124 27.175L347.58124 27.175L347.58124 32.925Q347.58124 34.3 347.6906 34.784374Q347.8625 35.471874 348.39374 35.878124Q348.9406 36.26875 349.72186 36.26875Q350.51874 36.26875 351.20624 35.8625Q351.90936 35.45625 352.1906 34.76875Q352.4875 34.065624 352.4875 32.7375L352.4875 27.175L354.2375 27.175L354.2375 37.55L352.65936 37.55ZM356.84686 37.55L356.84686 27.175L358.425 27.175L358.425 28.753124Q359.03436 27.64375 359.55 27.3Q360.0656 26.940624 360.675 26.940624Q361.5656 26.940624 362.4875 27.503124L361.8781 29.14375Q361.2375 28.753124 360.59686 28.753124Q360.01874 28.753124 359.55 29.1125Q359.09686 29.45625 358.89374 30.065624Q358.6125 31.003124 358.6125 32.1125L358.6125 37.55L356.84686 37.55ZM376.97186 34.20625L378.78436 34.440624Q378.3625 36.01875 377.1906 36.909374Q376.03436 37.784374 374.22186 37.784374Q371.95624 37.784374 370.6125 36.39375Q369.28436 34.9875 369.28436 32.45625Q369.28436 29.83125 370.6281 28.39375Q371.97186 26.940624 374.1281 26.940624Q376.20624 26.940624 377.51874 28.3625Q378.84686 29.76875 378.84686 32.346874Q378.84686 32.503124 378.83124 32.815624L371.09686 32.815624Q371.1906 34.51875 372.0656 35.425Q372.9406 36.33125 374.2375 36.33125Q375.20624 36.33125 375.8781 35.83125Q376.5656 35.315624 376.97186 34.20625ZM371.1906 31.3625L376.9875 31.3625Q376.8781 30.065624 376.33124 29.409374Q375.4875 28.39375 374.14374 28.39375Q372.9406 28.39375 372.1125 29.20625Q371.28436 30.003124 371.1906 31.3625ZM379.6906 37.55L383.4875 32.159374L379.9875 27.175L382.175 27.175L383.76874 29.6125Q384.22186 30.3 384.4875 30.76875Q384.925 30.128124 385.28436 29.628124L387.03436 27.175L389.1281 27.175L385.55 32.065624L389.40936 37.55L387.2531 37.55L385.1125 34.33125L384.55 33.45625L381.83124 37.55L379.6906 37.55ZM390.8625 41.51875L390.8625 27.175L392.47186 27.175L392.47186 28.51875Q393.03436 27.7375 393.7375 27.346874Q394.45624 26.940624 395.47186 26.940624Q396.8 26.940624 397.8156 27.628124Q398.83124 28.315624 399.34686 29.565624Q399.8781 30.8 399.8781 32.284374Q399.8781 33.878124 399.3 35.159374Q398.7375 36.425 397.64374 37.1125Q396.55 37.784374 395.34686 37.784374Q394.47186 37.784374 393.76874 37.409374Q393.08124 37.034374 392.6281 36.471874L392.6281 41.51875L390.8625 41.51875ZM392.45624 32.425Q392.45624 34.425 393.26874 35.378124Q394.08124 36.33125 395.2375 36.33125Q396.40936 36.33125 397.2375 35.346874Q398.08124 34.3625 398.08124 32.26875Q398.08124 30.3 397.2531 29.315624Q396.4406 28.315624 395.3156 28.315624Q394.1906 28.315624 393.3156 29.378124Q392.45624 30.425 392.45624 32.425ZM408.97186 34.20625L410.78436 34.440624Q410.3625 36.01875 409.1906 36.909374Q408.03436 37.784374 406.22186 37.784374Q403.95624 37.784374 402.6125 36.39375Q401.28436 34.9875 401.28436 32.45625Q401.28436 29.83125 402.6281 28.39375Q403.97186 26.940624 406.1281 26.940624Q408.20624 26.940624 409.51874 28.3625Q410.84686 29.76875 410.84686 32.346874Q410.84686 32.503124 410.83124 32.815624L403.09686 32.815624Q403.1906 34.51875 404.0656 35.425Q404.9406 36.33125 406.2375 36.33125Q407.20624 36.33125 407.8781 35.83125Q408.5656 35.315624 408.97186 34.20625ZM403.1906 31.3625L408.9875 31.3625Q408.8781 30.065624 408.33124 29.409374Q407.4875 28.39375 406.14374 28.39375Q404.9406 28.39375 404.1125 29.20625Q403.28436 30.003124 403.1906 31.3625ZM412.84686 37.55L412.84686 27.175L414.425 27.175L414.425 28.753124Q415.03436 27.64375 415.55 27.3Q416.0656 26.940624 416.675 26.940624Q417.5656 26.940624 418.4875 27.503124L417.8781 29.14375Q417.2375 28.753124 416.59686 28.753124Q416.01874 28.753124 415.55 29.1125Q415.09686 29.45625 414.89374 30.065624Q414.6125 31.003124 414.6125 32.1125L414.6125 37.55L412.84686 37.55ZM419.8781 25.253124L419.8781 23.2375L421.64374 23.2375L421.64374 25.253124L419.8781 25.253124ZM419.8781 37.55L419.8781 27.175L421.64374 27.175L421.64374 37.55L419.8781 37.55ZM430.97186 34.20625L432.78436 34.440624Q432.3625 36.01875 431.1906 36.909374Q430.03436 37.784374 428.22186 37.784374Q425.95624 37.784374 424.6125 36.39375Q423.28436 34.9875 423.28436 32.45625Q423.28436 29.83125 424.6281 28.39375Q425.97186 26.940624 428.1281 26.940624Q430.20624 26.940624 431.51874 28.3625Q432.84686 29.76875 432.84686 32.346874Q432.84686 32.503124 432.83124 32.815624L425.09686 32.815624Q425.1906 34.51875 426.0656 35.425Q426.9406 36.33125 428.2375 36.33125Q429.20624 36.33125 429.8781 35.83125Q430.5656 35.315624 430.97186 34.20625ZM425.1906 31.3625L430.9875 31.3625Q430.8781 30.065624 430.33124 29.409374Q429.4875 28.39375 428.14374 28.39375Q426.9406 28.39375 426.1125 29.20625Q425.28436 30.003124 425.1906 31.3625ZM434.8625 37.55L434.8625 27.175L436.45624 27.175L436.45624 28.659374Q437.59686 26.940624 439.7531 26.940624Q440.6906 26.940624 441.47186 27.284374Q442.26874 27.6125 442.65936 28.159374Q443.05 28.70625 443.20624 29.45625Q443.3 29.95625 443.3 31.175L443.3 37.55L441.53436 37.55L441.53436 31.2375Q441.53436 30.159374 441.33124 29.628124Q441.1281 29.096874 440.59686 28.784374Q440.08124 28.471874 439.3781 28.471874Q438.2531 28.471874 437.4406 29.190624Q436.6281 29.89375 436.6281 31.878124L436.6281 37.55L434.8625 37.55ZM452.64374 33.753124L454.3625 33.971874Q454.08124 35.76875 452.90936 36.784374Q451.7531 37.784374 450.05 37.784374Q447.925 37.784374 446.6281 36.39375Q445.33124 35.003124 445.33124 32.409374Q445.33124 30.721874 445.8781 29.471874Q446.4406 28.20625 447.58124 27.58125Q448.72186 26.940624 450.0656 26.940624Q451.7531 26.940624 452.8156 27.8Q453.89374 28.659374 454.20624 30.221874L452.4875 30.4875Q452.2531 29.440624 451.6281 28.925Q451.0031 28.39375 450.1281 28.39375Q448.8 28.39375 447.97186 29.346874Q447.14374 30.3 447.14374 32.346874Q447.14374 34.440624 447.9406 35.39375Q448.7375 36.33125 450.03436 36.33125Q451.0656 36.33125 451.7531 35.70625Q452.45624 35.065624 452.64374 33.753124ZM462.97186 34.20625L464.78436 34.440624Q464.3625 36.01875 463.1906 36.909374Q462.03436 37.784374 460.22186 37.784374Q457.95624 37.784374 456.6125 36.39375Q455.28436 34.9875 455.28436 32.45625Q455.28436 29.83125 456.6281 28.39375Q457.97186 26.940624 460.1281 26.940624Q462.20624 26.940624 463.51874 28.3625Q464.84686 29.76875 464.84686 32.346874Q464.84686 32.503124 464.83124 32.815624L457.09686 32.815624Q457.1906 34.51875 458.0656 35.425Q458.9406 36.33125 460.2375 36.33125Q461.20624 36.33125 461.8781 35.83125Q462.5656 35.315624 462.97186 34.20625ZM457.1906 31.3625L462.9875 31.3625Q462.8781 30.065624 462.33124 29.409374Q461.4875 28.39375 460.14374 28.39375Q458.9406 28.39375 458.1125 29.20625Q457.28436 30.003124 457.1906 31.3625ZM472.8781 25.253124L472.8781 23.2375L474.64374 23.2375L474.64374 25.253124L472.8781 25.253124ZM472.8781 37.55L472.8781 27.175L474.64374 27.175L474.64374 37.55L472.8781 37.55ZM476.8625 37.55L476.8625 27.175L478.45624 27.175L478.45624 28.659374Q479.59686 26.940624 481.7531 26.940624Q482.6906 26.940624 483.47186 27.284374Q484.26874 27.6125 484.65936 28.159374Q485.05 28.70625 485.20624 29.45625Q485.3 29.95625 485.3 31.175L485.3 37.55L483.53436 37.55L483.53436 31.2375Q483.53436 30.159374 483.33124 29.628124Q483.1281 29.096874 482.59686 28.784374Q482.08124 28.471874 481.3781 28.471874Q480.2531 28.471874 479.4406 29.190624Q478.6281 29.89375 478.6281 31.878124L478.6281 37.55L476.8625 37.55ZM496.7531 37.55L492.8 27.175L494.65936 27.175L496.89374 33.39375Q497.2531 34.39375 497.55 35.471874Q497.78436 34.659374 498.20624 33.503124L500.5031 27.175L502.3156 27.175L498.39374 37.55L496.7531 37.55ZM503.8781 25.253124L503.8781 23.2375L505.64374 23.2375L505.64374 25.253124L503.8781 25.253124ZM503.8781 37.55L503.8781 27.175L505.64374 27.175L505.64374 37.55L503.8781 37.55ZM507.15936 34.45625L508.90936 34.175Q509.05 35.221874 509.72186 35.784374Q510.39374 36.33125 511.59686 36.33125Q512.8 36.33125 513.3781 35.846874Q513.97186 35.346874 513.97186 34.690624Q513.97186 34.096874 513.45624 33.753124Q513.09686 33.51875 511.65936 33.159374Q509.72186 32.659374 508.97186 32.315624Q508.2375 31.95625 507.84686 31.33125Q507.45624 30.690624 507.45624 29.925Q507.45624 29.2375 507.76874 28.64375Q508.09686 28.05 508.64374 27.659374Q509.05 27.3625 509.7531 27.159374Q510.47186 26.940624 511.28436 26.940624Q512.5031 26.940624 513.425 27.3Q514.34686 27.64375 514.78436 28.253124Q515.22186 28.846874 515.39374 29.846874L513.675 30.08125Q513.55 29.284374 512.9875 28.846874Q512.425 28.39375 511.40936 28.39375Q510.1906 28.39375 509.675 28.8Q509.15936 29.190624 509.15936 29.721874Q509.15936 30.065624 509.3781 30.346874Q509.58124 30.628124 510.05 30.815624Q510.3156 30.909374 511.59686 31.253124Q513.47186 31.753124 514.20624 32.08125Q514.9406 32.39375 515.3625 33.003124Q515.78436 33.596874 515.78436 34.503124Q515.78436 35.378124 515.26874 36.159374Q514.7531 36.940624 513.78436 37.3625Q512.8156 37.784374 511.59686 37.784374Q509.58124 37.784374 508.51874 36.940624Q507.45624 36.096874 507.15936 34.45625ZM517.8781 25.253124L517.8781 23.2375L519.64374 23.2375L519.64374 25.253124L517.8781 25.253124ZM517.8781 37.55L517.8781 27.175L519.64374 27.175L519.64374 37.55L517.8781 37.55ZM525.70624 35.971874L525.95624 37.534374Q525.22186 37.690624 524.6281 37.690624Q523.675 37.690624 523.14374 37.39375Q522.6281 37.08125 522.40936 36.596874Q522.1906 36.096874 522.1906 34.51875L522.1906 28.55L520.90936 28.55L520.90936 27.175L522.1906 27.175L522.1906 24.6125L523.9406 23.55L523.9406 27.175L525.70624 27.175L525.70624 28.55L523.9406 28.55L523.9406 34.6125Q523.9406 35.3625 524.03436 35.58125Q524.1281 35.784374 524.33124 35.925Q524.55 36.05 524.9406 36.05Q525.22186 36.05 525.70624 35.971874ZM527.8781 25.253124L527.8781 23.2375L529.64374 23.2375L529.64374 25.253124L527.8781 25.253124ZM527.8781 37.55L527.8781 27.175L529.64374 27.175L529.64374 37.55L527.8781 37.55ZM531.8625 37.55L531.8625 27.175L533.45624 27.175L533.45624 28.659374Q534.59686 26.940624 536.7531 26.940624Q537.6906 26.940624 538.47186 27.284374Q539.26874 27.6125 539.65936 28.159374Q540.05 28.70625 540.20624 29.45625Q540.3 29.95625 540.3 31.175L540.3 37.55L538.53436 37.55L538.53436 31.2375Q538.53436 30.159374 538.33124 29.628124Q538.1281 29.096874 537.59686 28.784374Q537.08124 28.471874 536.3781 28.471874Q535.2531 28.471874 534.4406 29.190624Q533.6281 29.89375 533.6281 31.878124L533.6281 37.55L531.8625 37.55ZM542.55 38.409374L544.2531 38.659374Q544.3625 39.45625 544.84686 39.815624Q545.5031 40.3 546.64374 40.3Q547.8625 40.3 548.51874 39.815624Q549.1906 39.33125 549.425 38.45625Q549.5656 37.909374 549.55 36.190624Q548.39374 37.55 546.675 37.55Q544.53436 37.55 543.3625 36.003124Q542.1906 34.45625 542.1906 32.3Q542.1906 30.815624 542.72186 29.565624Q543.26874 28.315624 544.28436 27.628124Q545.3156 26.940624 546.6906 26.940624Q548.51874 26.940624 549.72186 28.425L549.72186 27.175L551.33124 27.175L551.33124 36.14375Q551.33124 38.565624 550.83124 39.565624Q550.34686 40.58125 549.26874 41.159374Q548.20624 41.753124 546.64374 41.753124Q544.8 41.753124 543.64374 40.925Q542.5031 40.096874 542.55 38.409374ZM544.0031 32.175Q544.0031 34.221874 544.8156 35.159374Q545.6281 36.096874 546.84686 36.096874Q548.05 36.096874 548.8625 35.159374Q549.6906 34.221874 549.6906 32.2375Q549.6906 30.33125 548.84686 29.3625Q548.0031 28.39375 546.8156 28.39375Q545.64374 28.39375 544.8156 29.346874Q544.0031 30.3 544.0031 32.175ZM566.64374 36.26875Q565.65936 37.096874 564.7531 37.440624Q563.84686 37.784374 562.8156 37.784374Q561.1125 37.784374 560.1906 36.95625Q559.26874 36.1125 559.26874 34.815624Q559.26874 34.05 559.6125 33.425Q559.97186 32.8 560.53436 32.425Q561.09686 32.034374 561.8 31.83125Q562.3156 31.70625 563.3625 31.565624Q565.4875 31.315624 566.4875 30.971874Q566.5031 30.6125 566.5031 30.503124Q566.5031 29.440624 566.0031 28.9875Q565.33124 28.39375 564.0031 28.39375Q562.7531 28.39375 562.15936 28.83125Q561.58124 29.26875 561.3 30.378124L559.58124 30.14375Q559.8156 29.034374 560.34686 28.3625Q560.8781 27.675 561.89374 27.315624Q562.90936 26.940624 564.2531 26.940624Q565.58124 26.940624 566.40936 27.253124Q567.2375 27.565624 567.6281 28.05Q568.01874 28.51875 568.175 29.2375Q568.26874 29.690624 568.26874 30.8625L568.26874 33.20625Q568.26874 35.659374 568.3781 36.315624Q568.4875 36.95625 568.83124 37.55L566.9875 37.55Q566.72186 37.003124 566.64374 36.26875ZM566.4875 32.346874Q565.53436 32.7375 563.6125 33.003124Q562.53436 33.159374 562.08124 33.3625Q561.64374 33.55 561.39374 33.925Q561.14374 34.3 561.14374 34.76875Q561.14374 35.471874 561.675 35.940624Q562.20624 36.409374 563.2375 36.409374Q564.2531 36.409374 565.03436 35.971874Q565.83124 35.51875 566.20624 34.753124Q566.4875 34.14375 566.4875 32.9875L566.4875 32.346874Z" fill-rule="nonzero"/><path fill="#757575" d="M19.8625 61.55L19.8625 51.175L21.440624 51.175L21.440624 52.628124Q21.925 51.878124 22.7375 51.409374Q23.55 50.940624 24.58125 50.940624Q25.7375 50.940624 26.471874 51.425Q27.20625 51.89375 27.51875 52.753124Q28.753124 50.940624 30.721874 50.940624Q32.26875 50.940624 33.096874 51.8Q33.925 52.659374 33.925 54.425L33.925 61.55L32.175 61.55L32.175 55.01875Q32.175 53.95625 32.003124 53.503124Q31.83125 53.034374 31.378124 52.753124Q30.940624 52.471874 30.33125 52.471874Q29.2375 52.471874 28.503124 53.20625Q27.784374 53.925 27.784374 55.51875L27.784374 61.55L26.034374 61.55L26.034374 54.815624Q26.034374 53.64375 25.596874 53.065624Q25.175 52.471874 24.190624 52.471874Q23.45625 52.471874 22.815624 52.8625Q22.190624 53.253124 21.909374 54.003124Q21.628124 54.753124 21.628124 56.175L21.628124 61.55L19.8625 61.55ZM43.659374 61.55L43.659374 60.01875Q42.45625 61.784374 40.378124 61.784374Q39.45625 61.784374 38.659374 61.440624Q37.8625 61.08125 37.471874 60.55Q37.096874 60.01875 36.940624 59.2375Q36.83125 58.721874 36.83125 57.596874L36.83125 51.175L38.58125 51.175L38.58125 56.925Q38.58125 58.3 38.690624 58.784374Q38.8625 59.471874 39.39375 59.878124Q39.940624 60.26875 40.721874 60.26875Q41.51875 60.26875 42.20625 59.8625Q42.909374 59.45625 43.190624 58.76875Q43.4875 58.065624 43.4875 56.7375L43.4875 51.175L45.2375 51.175L45.2375 61.55L43.659374 61.55ZM47.159374 58.45625L48.909374 58.175Q49.05 59.221874 49.721874 59.784374Q50.39375 60.33125 51.596874 60.33125Q52.8 60.33125 53.378124 59.846874Q53.971874 59.346874 53.971874 58.690624Q53.971874 58.096874 53.45625 57.753124Q53.096874 57.51875 51.659374 57.159374Q49.721874 56.659374 48.971874 56.315624Q48.2375 55.95625 47.846874 55.33125Q47.45625 54.690624 47.45625 53.925Q47.45625 53.2375 47.76875 52.64375Q48.096874 52.05 48.64375 51.659374Q49.05 51.3625 49.753124 51.159374Q50.471874 50.940624 51.284374 50.940624Q52.503124 50.940624 53.425 51.3Q54.346874 51.64375 54.784374 52.253124Q55.221874 52.846874 55.39375 53.846874L53.675 54.08125Q53.55 53.284374 52.9875 52.846874Q52.425 52.39375 51.409374 52.39375Q50.190624 52.39375 49.675 52.8Q49.159374 53.190624 49.159374 53.721874Q49.159374 54.065624 49.378124 54.346874Q49.58125 54.628124 50.05 54.815624Q50.315624 54.909374 51.596874 55.253124Q53.471874 55.753124 54.20625 56.08125Q54.940624 56.39375 55.3625 57.003124Q55.784374 57.596874 55.784374 58.503124Q55.784374 59.378124 55.26875 60.159374Q54.753124 60.940624 53.784374 61.3625Q52.815624 61.784374 51.596874 61.784374Q49.58125 61.784374 48.51875 60.940624Q47.45625 60.096874 47.159374 58.45625ZM64.97188 58.20625L66.78438 58.440624Q66.3625 60.01875 65.19063 60.909374Q64.03438 61.784374 62.221874 61.784374Q59.95625 61.784374 58.6125 60.39375Q57.284374 58.9875 57.284374 56.45625Q57.284374 53.83125 58.628124 52.39375Q59.971874 50.940624 62.128124 50.940624Q64.20625 50.940624 65.51875 52.3625Q66.84688 53.76875 66.84688 56.346874Q66.84688 56.503124 66.83125 56.815624L59.096874 56.815624Q59.190624 58.51875 60.065624 59.425Q60.940624 60.33125 62.2375 60.33125Q63.20625 60.33125 63.878124 59.83125Q64.56563 59.315624 64.97188 58.20625ZM59.190624 55.3625L64.9875 55.3625Q64.87813 54.065624 64.33125 53.409374Q63.4875 52.39375 62.14375 52.39375Q60.940624 52.39375 60.1125 53.20625Q59.284374 54.003124 59.190624 55.3625ZM75.65938 61.55L75.65938 60.01875Q74.45625 61.784374 72.37813 61.784374Q71.45625 61.784374 70.65938 61.440624Q69.8625 61.08125 69.47188 60.55Q69.09688 60.01875 68.94063 59.2375Q68.83125 58.721874 68.83125 57.596874L68.83125 51.175L70.58125 51.175L70.58125 56.925Q70.58125 58.3 70.69063 58.784374Q70.8625 59.471874 71.39375 59.878124Q71.94063 60.26875 72.72188 60.26875Q73.51875 60.26875 74.20625 59.8625Q74.90938 59.45625 75.19063 58.76875Q75.4875 58.065624 75.4875 56.7375L75.4875 51.175L77.2375 51.175L77.2375 61.55L75.65938 61.55ZM79.8625 61.55L79.8625 51.175L81.44063 51.175L81.44063 52.628124Q81.925 51.878124 82.7375 51.409374Q83.55 50.940624 84.58125 50.940624Q85.7375 50.940624 86.47188 51.425Q87.20625 51.89375 87.51875 52.753124Q88.75313 50.940624 90.72188 50.940624Q92.26875 50.940624 93.09688 51.8Q93.925 52.659374 93.925 54.425L93.925 61.55L92.175 61.55L92.175 55.01875Q92.175 53.95625 92.00313 53.503124Q91.83125 53.034374 91.37813 52.753124Q90.94063 52.471874 90.33125 52.471874Q89.2375 52.471874 88.50313 53.20625Q87.78438 53.925 87.78438 55.51875L87.78438 61.55L86.03438 61.55L86.03438 54.815624Q86.03438 53.64375 85.59688 53.065624Q85.175 52.471874 84.19063 52.471874Q83.45625 52.471874 82.81563 52.8625Q82.19063 53.253124 81.90938 54.003124Q81.62813 54.753124 81.62813 56.175L81.62813 61.55L79.8625 61.55ZM100.15938 58.01875Q100.14375 57.675 100.14375 57.503124Q100.14375 56.45625 100.44063 55.70625Q100.65938 55.14375 101.14375 54.565624Q101.4875 54.14375 102.39375 53.346874Q103.31563 52.534374 103.58125 52.065624Q103.8625 51.58125 103.8625 51.01875Q103.8625 49.9875 103.05 49.221874Q102.25313 48.440624 101.09688 48.440624Q99.97188 48.440624 99.22188 49.14375Q98.47188 49.846874 98.2375 51.33125L96.425 51.1125Q96.675 49.1125 97.87813 48.05Q99.08125 46.9875 101.06563 46.9875Q103.175 46.9875 104.425 48.128124Q105.675 49.26875 105.675 50.89375Q105.675 51.83125 105.22188 52.628124Q104.78438 53.409374 103.50313 54.55Q102.64375 55.315624 102.37813 55.675Q102.12813 56.034374 101.9875 56.503124Q101.8625 56.971874 101.84688 58.01875L100.15938 58.01875ZM100.05 61.55L100.05 59.55L102.05 59.55L102.05 61.55L100.05 61.55Z" fill-rule="nonzero"/></svg>