<svg version="1.1" viewBox="0.0 0.0 600.0 371.0" fill="none" stroke="none" stroke-linecap="square" stroke-miterlimit="10" width="600" height="371" xmlns:xlink="http://www.w3.org/1999/xlink" xmlns="http://www.w3.org/2000/svg"><path fill="#ffffff" d="M0 0L600.0 0L600.0 371.0L0 371.0L0 0Z" fill-rule="nonzero"/><path fill="#34a853" d="M300.0 109.68916C367.2745 109.68916 424.55878 143.93694 435.08286 190.44933L300.0 205.42583Z" fill-rule="nonzero"/><path fill="#a42f25" d="M436.76666 225.94083C436.76666 261.94153 407.91486 294.89883 362.09076 311.24283L362.09076 290.7278C407.91486 274.38385 436.76666 241.42654 436.76666 205.42583Z" fill-rule="nonzero"/><path fill="#ea4335" d="M435.08286 190.44933C444.3517 231.41432 414.88373 271.8983 362.09076 290.7278L300.0 205.42583Z" fill-rule="nonzero"/><path fill="#2e5dab" d="M178.14001 269.40436C168.34145 255.94283 163.23334 241.04907 163.23334 225.94083L163.23334 205.42583C163.23334 220.53407 168.34145 235.42783 178.14001 248.88937Z" fill-rule="nonzero"/><path fill="#4285f4" d="M178.14001 248.88937C156.53685 219.21036 158.52412 183.80461 183.38725 155.40356C208.25037 127.00252 252.41496 109.68916 300.0 109.68916L300.0 205.42583Z" fill-rule="nonzero"/><path fill="#b08403" d="M362.09076 311.24283C294.78934 335.24707 212.4318 316.51535 178.14001 269.40436L178.14001 248.88937C212.4318 296.00037 294.78934 314.7321 362.09076 290.7278Z" fill-rule="nonzero"/><path fill="#fbbc04" d="M362.09076 290.7278C294.78934 314.7321 212.4318 296.00037 178.14001 248.88937L300.0 205.42583Z" fill-rule="nonzero"/><path fill="#1a1a1a" d="M21.89375 153.40468L21.89375 149.76405L18.58125 144.81093L19.971874 144.81093L21.659374 147.40468Q22.128124 148.12343 22.534374 148.8578Q22.925 148.18593 23.471874 147.34218L25.14375 144.81093L26.45625 144.81093L23.034374 149.76405L23.034374 153.40468L21.89375 153.40468ZM31.596874 151.40468L32.690624 151.52968Q32.440624 152.4828 31.7375 153.01405Q31.034374 153.5453 29.95625 153.5453Q28.596874 153.5453 27.784374 152.70155Q26.9875 151.8578 26.9875 150.34218Q26.9875 148.77968 27.8 147.9203Q28.6125 147.0453 29.89375 147.0453Q31.14375 147.0453 31.925 147.88905Q32.721874 148.7328 32.721874 150.27968Q32.721874 150.37343 32.721874 150.56093L28.08125 150.56093Q28.14375 151.59218 28.659374 152.13905Q29.175 152.6703 29.95625 152.6703Q30.534374 152.6703 30.940624 152.37343Q31.3625 152.06093 31.596874 151.40468ZM28.14375 149.70155L31.6125 149.70155Q31.55 148.90468 31.221874 148.51405Q30.70625 147.90468 29.909374 147.90468Q29.175 147.90468 28.675 148.38905Q28.190624 148.87343 28.14375 149.70155ZM33.925 151.5453L34.95625 151.38905Q35.05 152.01405 35.440624 152.34218Q35.846874 152.6703 36.58125 152.6703Q37.3 152.6703 37.64375 152.38905Q38.003124 152.09218 38.003124 151.68593Q38.003124 151.32655 37.690624 151.12343Q37.471874 150.9828 36.6125 150.76405Q35.45625 150.46718 35.003124 150.26405Q34.565624 150.0453 34.33125 149.6703Q34.096874 149.2953 34.096874 148.82655Q34.096874 148.4203 34.284374 148.06093Q34.471874 147.70155 34.8 147.46718Q35.05 147.2953 35.471874 147.1703Q35.89375 147.0453 36.39375 147.0453Q37.1125 147.0453 37.659374 147.26405Q38.221874 147.46718 38.4875 147.82655Q38.753124 148.18593 38.846874 148.77968L37.815624 148.9203Q37.753124 148.45155 37.409374 148.18593Q37.08125 147.90468 36.45625 147.90468Q35.7375 147.90468 35.425 148.15468Q35.1125 148.38905 35.1125 148.71718Q35.1125 148.9203 35.2375 149.07655Q35.378124 149.24843 35.64375 149.3578Q35.8 149.4203 36.58125 149.62343Q37.70625 149.93593 38.14375 150.12343Q38.58125 150.31093 38.83125 150.6703Q39.08125 151.02968 39.08125 151.57655Q39.08125 152.1078 38.76875 152.57655Q38.471874 153.02968 37.89375 153.2953Q37.315624 153.5453 36.58125 153.5453Q35.3625 153.5453 34.721874 153.0453Q34.096874 152.52968 33.925 151.5453Z" fill-rule="nonzero"/><path fill="#9e9e9e" d="M19.05 168.13905L20.1125 167.99843Q20.284374 168.88905 20.721874 169.2953Q21.159374 169.68593 21.784374 169.68593Q22.534374 169.68593 23.05 169.1703Q23.565624 168.65468 23.565624 167.88905Q23.565624 167.1703 23.08125 166.70155Q22.6125 166.21718 21.878124 166.21718Q21.58125 166.21718 21.128124 166.34218L21.253124 165.40468Q21.3625 165.4203 21.425 165.4203Q22.096874 165.4203 22.628124 165.07655Q23.175 164.71718 23.175 163.9828Q23.175 163.40468 22.784374 163.02968Q22.39375 162.63905 21.76875 162.63905Q21.159374 162.63905 20.7375 163.02968Q20.33125 163.4203 20.221874 164.18593L19.159374 163.99843Q19.346874 162.95155 20.034374 162.37343Q20.721874 161.77968 21.7375 161.77968Q22.440624 161.77968 23.034374 162.09218Q23.628124 162.38905 23.940624 162.90468Q24.253124 163.4203 24.253124 164.01405Q24.253124 164.56093 23.95625 165.02968Q23.659374 165.4828 23.08125 165.74843Q23.83125 165.9203 24.253124 166.4828Q24.675 167.02968 24.675 167.87343Q24.675 168.99843 23.846874 169.77968Q23.034374 170.56093 21.784374 170.56093Q20.659374 170.56093 19.909374 169.88905Q19.159374 169.20155 19.05 168.13905ZM31.596874 169.38905L31.596874 170.40468L25.909374 170.40468Q25.909374 170.02968 26.034374 169.6703Q26.253124 169.09218 26.721874 168.52968Q27.20625 167.96718 28.1125 167.2328Q29.51875 166.07655 30.003124 165.40468Q30.503124 164.7328 30.503124 164.13905Q30.503124 163.51405 30.05 163.09218Q29.596874 162.65468 28.878124 162.65468Q28.1125 162.65468 27.659374 163.1078Q27.20625 163.56093 27.190624 164.37343L26.1125 164.26405Q26.221874 163.0453 26.940624 162.4203Q27.675 161.77968 28.909374 161.77968Q30.14375 161.77968 30.8625 162.46718Q31.58125 163.15468 31.58125 164.1703Q31.58125 164.68593 31.3625 165.18593Q31.159374 165.6703 30.659374 166.2328Q30.175 166.77968 29.05 167.7328Q28.096874 168.52968 27.815624 168.82655Q27.55 169.1078 27.378124 169.38905L31.596874 169.38905ZM33.6125 170.40468L33.6125 169.20155L34.815624 169.20155L34.815624 170.40468Q34.815624 171.06093 34.58125 171.46718Q34.346874 171.88905 33.846874 172.1078L33.55 171.65468Q33.878124 171.51405 34.034374 171.21718Q34.190624 170.93593 34.221874 170.40468L33.6125 170.40468ZM36.05 168.15468L37.159374 168.06093Q37.284374 168.87343 37.721874 169.27968Q38.175 169.68593 38.815624 169.68593Q39.565624 169.68593 40.096874 169.1078Q40.628124 168.52968 40.628124 167.59218Q40.628124 166.68593 40.1125 166.1703Q39.6125 165.63905 38.784374 165.63905Q38.284374 165.63905 37.8625 165.87343Q37.45625 166.1078 37.221874 166.46718L36.2375 166.34218L37.065624 161.93593L41.346874 161.93593L41.346874 162.93593L37.909374 162.93593L37.45625 165.24843Q38.221874 164.70155 39.065624 164.70155Q40.190624 164.70155 40.95625 165.4828Q41.7375 166.26405 41.7375 167.49843Q41.7375 168.65468 41.065624 169.51405Q40.2375 170.5453 38.815624 170.5453Q37.64375 170.5453 36.89375 169.88905Q36.159374 169.2328 36.05 168.15468ZM43.253124 163.87343Q43.253124 162.95155 43.70625 162.31093Q44.175 161.6703 45.05 161.6703Q45.8625 161.6703 46.39375 162.24843Q46.925 162.82655 46.925 163.93593Q46.925 165.02968 46.378124 165.62343Q45.846874 166.20155 45.065624 166.20155Q44.284374 166.20155 43.76875 165.62343Q43.253124 165.0453 43.253124 163.87343ZM45.08125 162.38905Q44.690624 162.38905 44.425 162.7328Q44.175 163.07655 44.175 163.9828Q44.175 164.81093 44.425 165.15468Q44.690624 165.4828 45.08125 165.4828Q45.4875 165.4828 45.7375 165.13905Q46.003124 164.7953 46.003124 163.90468Q46.003124 163.06093 45.7375 162.7328Q45.471874 162.38905 45.08125 162.38905ZM45.08125 170.71718L49.784374 161.6703L50.64375 161.6703L45.95625 170.71718L45.08125 170.71718ZM48.8 168.38905Q48.8 167.46718 49.253124 166.82655Q49.721874 166.18593 50.6125 166.18593Q51.425 166.18593 51.95625 166.76405Q52.4875 167.32655 52.4875 168.45155Q52.4875 169.5453 51.940624 170.13905Q51.409374 170.71718 50.6125 170.71718Q49.846874 170.71718 49.315624 170.13905Q48.8 169.56093 48.8 168.38905ZM50.64375 166.90468Q50.2375 166.90468 49.971874 167.24843Q49.721874 167.59218 49.721874 168.49843Q49.721874 169.31093 49.9875 169.65468Q50.253124 169.99843 50.64375 169.99843Q51.034374 169.99843 51.3 169.65468Q51.565624 169.31093 51.565624 168.40468Q51.565624 167.57655 51.3 167.24843Q51.034374 166.90468 50.64375 166.90468Z" fill-rule="nonzero"/><path stroke="#757575" stroke-width="1.0" stroke-linecap="butt" d="M18.55 157.90468L157.23334 157.90468L189.21788 157.90468" fill-rule="nonzero"/><path fill="#9e9e9e" d="M191.21788 157.90468C191.21788 156.80011 190.32245 155.90468 189.21788 155.90468C188.11331 155.90468 187.21788 156.80011 187.21788 157.90468C187.21788 159.00925 188.11331 159.90468 189.21788 159.90468C190.32245 159.90468 191.21788 159.00925 191.21788 157.90468" fill-rule="nonzero"/><path fill="#1a1a1a" d="M19.440624 287.42426L19.440624 278.8305L21.159374 278.8305L23.190624 284.90863Q23.471874 285.768 23.596874 286.18988Q23.7375 285.72113 24.05 284.81488L26.1125 278.8305L27.64375 278.8305L27.64375 287.42426L26.55 287.42426L26.55 280.23676L24.05 287.42426L23.01875 287.42426L20.534374 280.11176L20.534374 287.42426L19.440624 287.42426ZM33.409374 286.65863Q32.815624 287.15863 32.26875 287.36176Q31.7375 287.56488 31.1125 287.56488Q30.08125 287.56488 29.534374 287.06488Q28.9875 286.56488 28.9875 285.78363Q28.9875 285.3305 29.190624 284.9555Q29.39375 284.56488 29.7375 284.34613Q30.08125 284.11176 30.503124 284.00238Q30.8 283.90863 31.440624 283.8305Q32.70625 283.68988 33.315624 283.47113Q33.315624 283.25238 33.315624 283.2055Q33.315624 282.54926 33.01875 282.28363Q32.6125 281.93988 31.815624 281.93988Q31.08125 281.93988 30.721874 282.2055Q30.3625 282.4555 30.190624 283.11176L29.159374 282.97113Q29.3 282.31488 29.628124 281.90863Q29.95625 281.50238 30.565624 281.28363Q31.175 281.06488 31.971874 281.06488Q32.76875 281.06488 33.26875 281.25238Q33.76875 281.43988 34.003124 281.72113Q34.2375 282.00238 34.33125 282.43988Q34.378124 282.7055 34.378124 283.40863L34.378124 284.81488Q34.378124 286.28363 34.440624 286.67426Q34.51875 287.06488 34.721874 287.42426L33.6125 287.42426Q33.45625 287.09613 33.409374 286.65863ZM33.315624 284.29926Q32.7375 284.53363 31.596874 284.7055Q30.940624 284.79926 30.675 284.92426Q30.409374 285.03363 30.253124 285.25238Q30.1125 285.47113 30.1125 285.75238Q30.1125 286.17426 30.425 286.4555Q30.753124 286.73676 31.3625 286.73676Q31.971874 286.73676 32.440624 286.47113Q32.925 286.2055 33.14375 285.73676Q33.315624 285.37738 33.315624 284.68988L33.315624 284.29926ZM36.3 289.81488L36.175 288.8305Q36.51875 288.92426 36.784374 288.92426Q37.128124 288.92426 37.33125 288.79926Q37.55 288.68988 37.690624 288.48676Q37.784374 288.31488 38.01875 287.68988Q38.034374 287.61176 38.1125 287.43988L35.7375 281.2055L36.878124 281.2055L38.175 284.79926Q38.425 285.48676 38.628124 286.25238Q38.815624 285.518 39.065624 284.8305L40.39375 281.2055L41.440624 281.2055L39.08125 287.53363Q38.690624 288.54926 38.4875 288.93988Q38.20625 289.47113 37.83125 289.7055Q37.471874 289.9555 36.971874 289.9555Q36.675 289.9555 36.3 289.81488ZM43.315624 287.42426L42.33125 287.42426L42.33125 278.8305L43.39375 278.8305L43.39375 281.893Q44.065624 281.06488 45.096874 281.06488Q45.675 281.06488 46.175 281.29926Q46.690624 281.518 47.01875 281.93988Q47.3625 282.36176 47.55 282.9555Q47.7375 283.54926 47.7375 284.22113Q47.7375 285.81488 46.940624 286.68988Q46.14375 287.56488 45.05 287.56488Q43.940624 287.56488 43.315624 286.643L43.315624 287.42426ZM43.3 284.268Q43.3 285.37738 43.6125 285.87738Q44.1125 286.68988 44.95625 286.68988Q45.64375 286.68988 46.14375 286.09613Q46.659374 285.50238 46.659374 284.29926Q46.659374 283.0805 46.175 282.50238Q45.690624 281.92426 45.003124 281.92426Q44.315624 281.92426 43.8 282.53363Q43.3 283.12738 43.3 284.268ZM53.596874 285.42426L54.690624 285.54926Q54.440624 286.50238 53.7375 287.03363Q53.034374 287.56488 51.95625 287.56488Q50.596874 287.56488 49.784374 286.72113Q48.9875 285.87738 48.9875 284.36176Q48.9875 282.79926 49.8 281.93988Q50.6125 281.06488 51.89375 281.06488Q53.14375 281.06488 53.925 281.90863Q54.721874 282.75238 54.721874 284.29926Q54.721874 284.393 54.721874 284.5805L50.08125 284.5805Q50.14375 285.61176 50.659374 286.15863Q51.175 286.68988 51.95625 286.68988Q52.534374 286.68988 52.940624 286.393Q53.3625 286.0805 53.596874 285.42426ZM50.14375 283.72113L53.6125 283.72113Q53.55 282.92426 53.221874 282.53363Q52.70625 281.92426 51.909374 281.92426Q51.175 281.92426 50.675 282.40863Q50.190624 282.893 50.14375 283.72113ZM59.346874 287.42426L59.346874 281.2055L60.284374 281.2055L60.284374 282.0805Q60.971874 281.06488 62.26875 281.06488Q62.83125 281.06488 63.3 281.268Q63.784374 281.47113 64.01875 281.79926Q64.25313 282.12738 64.34688 282.56488Q64.39375 282.86176 64.39375 283.59613L64.39375 287.42426L63.346874 287.42426L63.346874 283.643Q63.346874 282.98676 63.221874 282.67426Q63.096874 282.36176 62.784374 282.17426Q62.471874 281.97113 62.05 281.97113Q61.378124 281.97113 60.878124 282.40863Q60.39375 282.8305 60.39375 284.018L60.39375 287.42426L59.346874 287.42426ZM65.95625 284.31488Q65.95625 282.5805 66.90938 281.75238Q67.70625 281.06488 68.8625 281.06488Q70.14375 281.06488 70.95625 281.90863Q71.78438 282.73676 71.78438 284.22113Q71.78438 285.42426 71.425 286.11176Q71.06563 286.79926 70.3625 287.18988Q69.675 287.56488 68.8625 287.56488Q67.56563 287.56488 66.75313 286.73676Q65.95625 285.893 65.95625 284.31488ZM67.03438 284.31488Q67.03438 285.50238 67.55 286.09613Q68.08125 286.68988 68.8625 286.68988Q69.65938 286.68988 70.175 286.09613Q70.69063 285.50238 70.69063 284.28363Q70.69063 283.12738 70.15938 282.53363Q69.64375 281.93988 68.8625 281.93988Q68.08125 281.93988 67.55 282.53363Q67.03438 283.11176 67.03438 284.31488Z" fill-rule="nonzero"/><path fill="#9e9e9e" d="M24.596874 303.40863L24.596874 304.42426L18.909374 304.42426Q18.909374 304.04926 19.034374 303.68988Q19.253124 303.11176 19.721874 302.54926Q20.20625 301.98676 21.1125 301.25238Q22.51875 300.09613 23.003124 299.42426Q23.503124 298.75238 23.503124 298.15863Q23.503124 297.53363 23.05 297.11176Q22.596874 296.67426 21.878124 296.67426Q21.1125 296.67426 20.659374 297.12738Q20.20625 297.5805 20.190624 298.393L19.1125 298.28363Q19.221874 297.06488 19.940624 296.43988Q20.675 295.79926 21.909374 295.79926Q23.14375 295.79926 23.8625 296.48676Q24.58125 297.17426 24.58125 298.18988Q24.58125 298.7055 24.3625 299.2055Q24.159374 299.68988 23.659374 300.25238Q23.175 300.79926 22.05 301.75238Q21.096874 302.54926 20.815624 302.84613Q20.55 303.12738 20.378124 303.40863L24.596874 303.40863ZM26.05 302.17426L27.159374 302.0805Q27.284374 302.893 27.721874 303.29926Q28.175 303.7055 28.815624 303.7055Q29.565624 303.7055 30.096874 303.12738Q30.628124 302.54926 30.628124 301.61176Q30.628124 300.7055 30.1125 300.18988Q29.6125 299.65863 28.784374 299.65863Q28.284374 299.65863 27.8625 299.893Q27.45625 300.12738 27.221874 300.48676L26.2375 300.36176L27.065624 295.9555L31.346874 295.9555L31.346874 296.9555L27.909374 296.9555L27.45625 299.268Q28.221874 298.72113 29.065624 298.72113Q30.190624 298.72113 30.95625 299.50238Q31.7375 300.28363 31.7375 301.518Q31.7375 302.67426 31.065624 303.53363Q30.2375 304.56488 28.815624 304.56488Q27.64375 304.56488 26.89375 303.90863Q26.159374 303.25238 26.05 302.17426ZM33.6125 304.42426L33.6125 303.22113L34.815624 303.22113L34.815624 304.42426Q34.815624 305.0805 34.58125 305.48676Q34.346874 305.90863 33.846874 306.12738L33.55 305.67426Q33.878124 305.53363 34.034374 305.23676Q34.190624 304.9555 34.221874 304.42426L33.6125 304.42426ZM36.05 300.18988Q36.05 298.65863 36.3625 297.73676Q36.675 296.79926 37.284374 296.29926Q37.909374 295.79926 38.846874 295.79926Q39.534374 295.79926 40.05 296.0805Q40.58125 296.36176 40.925 296.893Q41.26875 297.40863 41.45625 298.15863Q41.64375 298.90863 41.64375 300.18988Q41.64375 301.7055 41.33125 302.62738Q41.034374 303.54926 40.409374 304.06488Q39.8 304.56488 38.846874 304.56488Q37.6125 304.56488 36.89375 303.67426Q36.05 302.61176 36.05 300.18988ZM37.128124 300.18988Q37.128124 302.29926 37.628124 303.00238Q38.128124 303.7055 38.846874 303.7055Q39.58125 303.7055 40.065624 303.00238Q40.565624 302.29926 40.565624 300.18988Q40.565624 298.06488 40.065624 297.37738Q39.58125 296.67426 38.83125 296.67426Q38.1125 296.67426 37.675 297.28363Q37.128124 298.06488 37.128124 300.18988ZM43.253124 297.893Q43.253124 296.97113 43.70625 296.3305Q44.175 295.68988 45.05 295.68988Q45.8625 295.68988 46.39375 296.268Q46.925 296.84613 46.925 297.9555Q46.925 299.04926 46.378124 299.643Q45.846874 300.22113 45.065624 300.22113Q44.284374 300.22113 43.76875 299.643Q43.253124 299.06488 43.253124 297.893ZM45.08125 296.40863Q44.690624 296.40863 44.425 296.75238Q44.175 297.09613 44.175 298.00238Q44.175 298.8305 44.425 299.17426Q44.690624 299.50238 45.08125 299.50238Q45.4875 299.50238 45.7375 299.15863Q46.003124 298.81488 46.003124 297.92426Q46.003124 297.0805 45.7375 296.75238Q45.471874 296.40863 45.08125 296.40863ZM45.08125 304.73676L49.784374 295.68988L50.64375 295.68988L45.95625 304.73676L45.08125 304.73676ZM48.8 302.40863Q48.8 301.48676 49.253124 300.84613Q49.721874 300.2055 50.6125 300.2055Q51.425 300.2055 51.95625 300.78363Q52.4875 301.34613 52.4875 302.47113Q52.4875 303.56488 51.940624 304.15863Q51.409374 304.73676 50.6125 304.73676Q49.846874 304.73676 49.315624 304.15863Q48.8 303.5805 48.8 302.40863ZM50.64375 300.92426Q50.2375 300.92426 49.971874 301.268Q49.721874 301.61176 49.721874 302.518Q49.721874 303.3305 49.9875 303.67426Q50.253124 304.018 50.64375 304.018Q51.034374 304.018 51.3 303.67426Q51.565624 303.3305 51.565624 302.42426Q51.565624 301.59613 51.3 301.268Q51.034374 300.92426 50.64375 300.92426Z" fill-rule="nonzero"/><path stroke="#757575" stroke-width="1.0" stroke-linecap="butt" d="M18.55 291.92426L157.23334 291.92426L259.84995 291.92426" fill-rule="nonzero"/><path fill="#9e9e9e" d="M261.84995 291.92426C261.84995 290.8197 260.9545 289.92426 259.84995 289.92426C258.74536 289.92426 257.84995 290.8197 257.84995 291.92426C257.84995 293.02884 258.74536 293.92426 259.84995 293.92426C260.9545 293.92426 261.84995 293.02884 261.84995 291.92426" fill-rule="nonzero"/><path fill="#1a1a1a" d="M523.34064 131.76704L523.34064 123.173294L525.0594 123.173294L527.09064 129.25142Q527.3719 130.1108 527.4969 130.53267Q527.6375 130.06392 527.95 129.15767L530.0125 123.173294L531.54376 123.173294L531.54376 131.76704L530.45 131.76704L530.45 124.579544L527.95 131.76704L526.91876 131.76704L524.4344 124.454544L524.4344 131.76704L523.34064 131.76704ZM537.3094 131.00142Q536.71564 131.50142 536.16876 131.70454Q535.6375 131.90767 535.0125 131.90767Q533.98126 131.90767 533.4344 131.40767Q532.8875 130.90767 532.8875 130.12642Q532.8875 129.6733 533.09064 129.2983Q533.29376 128.90767 533.6375 128.68892Q533.98126 128.45454 534.40314 128.34517Q534.7 128.25142 535.34064 128.1733Q536.60626 128.03267 537.21564 127.81392Q537.21564 127.59517 537.21564 127.548294Q537.21564 126.892044 536.91876 126.62642Q536.5125 126.28267 535.71564 126.28267Q534.98126 126.28267 534.6219 126.548294Q534.2625 126.798294 534.09064 127.454544L533.0594 127.31392Q533.2 126.65767 533.52814 126.25142Q533.85626 125.84517 534.46564 125.62642Q535.075 125.40767 535.8719 125.40767Q536.66876 125.40767 537.16876 125.59517Q537.66876 125.78267 537.90314 126.06392Q538.1375 126.34517 538.23126 126.78267Q538.27814 127.048294 538.27814 127.75142L538.27814 129.15767Q538.27814 130.62642 538.34064 131.01704Q538.41876 131.40767 538.6219 131.76704L537.5125 131.76704Q537.35626 131.43892 537.3094 131.00142ZM537.21564 128.64204Q536.6375 128.87642 535.4969 129.0483Q534.84064 129.14204 534.575 129.26704Q534.3094 129.37642 534.15314 129.59517Q534.0125 129.81392 534.0125 130.09517Q534.0125 130.51704 534.325 130.7983Q534.65314 131.07954 535.2625 131.07954Q535.8719 131.07954 536.34064 130.81392Q536.825 130.5483 537.04376 130.07954Q537.21564 129.72017 537.21564 129.03267L537.21564 128.64204ZM540.2 134.15767L540.075 133.1733Q540.41876 133.26704 540.6844 133.26704Q541.02814 133.26704 541.23126 133.14204Q541.45 133.03267 541.59064 132.82954Q541.6844 132.65767 541.91876 132.03267Q541.9344 131.95454 542.0125 131.78267L539.6375 125.548294L540.77814 125.548294L542.075 129.14204Q542.325 129.82954 542.52814 130.59517Q542.71564 129.8608 542.96564 129.1733L544.29376 125.548294L545.34064 125.548294L542.98126 131.87642Q542.59064 132.89204 542.3875 133.28267Q542.10626 133.81392 541.73126 134.0483Q541.3719 134.2983 540.8719 134.2983Q540.575 134.2983 540.2 134.15767ZM547.21564 131.76704L546.23126 131.76704L546.23126 123.173294L547.29376 123.173294L547.29376 126.235794Q547.96564 125.40767 548.9969 125.40767Q549.575 125.40767 550.075 125.642044Q550.59064 125.860794 550.91876 126.28267Q551.2625 126.704544 551.45 127.298294Q551.6375 127.892044 551.6375 128.56392Q551.6375 130.15767 550.84064 131.03267Q550.04376 131.90767 548.95 131.90767Q547.84064 131.90767 547.21564 130.9858L547.21564 131.76704ZM547.2 128.6108Q547.2 129.72017 547.5125 130.22017Q548.0125 131.03267 548.85626 131.03267Q549.54376 131.03267 550.04376 130.43892Q550.5594 129.84517 550.5594 128.64204Q550.5594 127.423294 550.075 126.84517Q549.59064 126.267044 548.90314 126.267044Q548.21564 126.267044 547.7 126.87642Q547.2 127.47017 547.2 128.6108ZM557.4969 129.76704L558.59064 129.89204Q558.34064 130.84517 557.6375 131.37642Q556.9344 131.90767 555.85626 131.90767Q554.4969 131.90767 553.6844 131.06392Q552.8875 130.22017 552.8875 128.70454Q552.8875 127.142044 553.7 126.28267Q554.5125 125.40767 555.79376 125.40767Q557.04376 125.40767 557.825 126.25142Q558.6219 127.09517 558.6219 128.64204Q558.6219 128.7358 558.6219 128.9233L553.98126 128.9233Q554.04376 129.95454 554.5594 130.50142Q555.075 131.03267 555.85626 131.03267Q556.4344 131.03267 556.84064 130.7358Q557.2625 130.4233 557.4969 129.76704ZM554.04376 128.06392L557.5125 128.06392Q557.45 127.267044 557.1219 126.87642Q556.60626 126.267044 555.8094 126.267044Q555.075 126.267044 554.575 126.75142Q554.09064 127.235794 554.04376 128.06392ZM563.2 134.15767L563.075 133.1733Q563.41876 133.26704 563.6844 133.26704Q564.02814 133.26704 564.23126 133.14204Q564.45 133.03267 564.59064 132.82954Q564.6844 132.65767 564.91876 132.03267Q564.9344 131.95454 565.0125 131.78267L562.6375 125.548294L563.77814 125.548294L565.075 129.14204Q565.325 129.82954 565.52814 130.59517Q565.71564 129.8608 565.96564 129.1733L567.29376 125.548294L568.34064 125.548294L565.98126 131.87642Q565.59064 132.89204 565.3875 133.28267Q565.10626 133.81392 564.73126 134.0483Q564.3719 134.2983 563.8719 134.2983Q563.575 134.2983 563.2 134.15767ZM573.4969 129.76704L574.59064 129.89204Q574.34064 130.84517 573.6375 131.37642Q572.9344 131.90767 571.85626 131.90767Q570.4969 131.90767 569.6844 131.06392Q568.8875 130.22017 568.8875 128.70454Q568.8875 127.142044 569.7 126.28267Q570.5125 125.40767 571.79376 125.40767Q573.04376 125.40767 573.825 126.25142Q574.6219 127.09517 574.6219 128.64204Q574.6219 128.7358 574.6219 128.9233L569.98126 128.9233Q570.04376 129.95454 570.5594 130.50142Q571.075 131.03267 571.85626 131.03267Q572.4344 131.03267 572.84064 130.7358Q573.2625 130.4233 573.4969 129.76704ZM570.04376 128.06392L573.5125 128.06392Q573.45 127.267044 573.1219 126.87642Q572.60626 126.267044 571.8094 126.267044Q571.075 126.267044 570.575 126.75142Q570.09064 127.235794 570.04376 128.06392ZM575.825 129.90767L576.85626 129.75142Q576.95 130.37642 577.34064 130.70454Q577.7469 131.03267 578.48126 131.03267Q579.2 131.03267 579.54376 130.75142Q579.90314 130.45454 579.90314 130.0483Q579.90314 129.68892 579.59064 129.4858Q579.3719 129.34517 578.5125 129.12642Q577.35626 128.82954 576.90314 128.62642Q576.46564 128.40767 576.23126 128.03267Q575.9969 127.65767 575.9969 127.18892Q575.9969 126.78267 576.1844 126.423294Q576.3719 126.06392 576.7 125.829544Q576.95 125.65767 577.3719 125.53267Q577.79376 125.40767 578.29376 125.40767Q579.0125 125.40767 579.5594 125.62642Q580.1219 125.829544 580.3875 126.18892Q580.65314 126.548294 580.7469 127.142044L579.71564 127.28267Q579.65314 126.81392 579.3094 126.548294Q578.98126 126.267044 578.35626 126.267044Q577.6375 126.267044 577.325 126.517044Q577.0125 126.75142 577.0125 127.079544Q577.0125 127.28267 577.1375 127.43892Q577.27814 127.610794 577.54376 127.72017Q577.7 127.78267 578.48126 127.985794Q579.60626 128.2983 580.04376 128.4858Q580.48126 128.6733 580.73126 129.03267Q580.98126 129.39204 580.98126 129.93892Q580.98126 130.47017 580.66876 130.93892Q580.3719 131.39204 579.79376 131.65767Q579.21564 131.90767 578.48126 131.90767Q577.2625 131.90767 576.6219 131.40767Q575.9969 130.89204 575.825 129.90767Z" fill-rule="nonzero"/><path fill="#9e9e9e" d="M552.4969 147.75142L552.4969 148.76704L546.8094 148.76704Q546.8094 148.39204 546.9344 148.03267Q547.15314 147.45454 547.6219 146.89204Q548.10626 146.32954 549.0125 145.59517Q550.41876 144.43892 550.90314 143.76704Q551.40314 143.09517 551.40314 142.50142Q551.40314 141.87642 550.95 141.45454Q550.4969 141.01704 549.77814 141.01704Q549.0125 141.01704 548.5594 141.47017Q548.10626 141.9233 548.09064 142.7358L547.0125 142.62642Q547.1219 141.40767 547.84064 140.78267Q548.575 140.14204 549.8094 140.14204Q551.04376 140.14204 551.7625 140.82954Q552.48126 141.51704 552.48126 142.53267Q552.48126 143.0483 552.2625 143.5483Q552.0594 144.03267 551.5594 144.59517Q551.075 145.14204 549.95 146.09517Q548.9969 146.89204 548.71564 147.18892Q548.45 147.47017 548.27814 147.75142L552.4969 147.75142ZM559.4969 147.75142L559.4969 148.76704L553.8094 148.76704Q553.8094 148.39204 553.9344 148.03267Q554.15314 147.45454 554.6219 146.89204Q555.10626 146.32954 556.0125 145.59517Q557.41876 144.43892 557.90314 143.76704Q558.40314 143.09517 558.40314 142.50142Q558.40314 141.87642 557.95 141.45454Q557.4969 141.01704 556.77814 141.01704Q556.0125 141.01704 555.5594 141.47017Q555.10626 141.9233 555.09064 142.7358L554.0125 142.62642Q554.1219 141.40767 554.84064 140.78267Q555.575 140.14204 556.8094 140.14204Q558.04376 140.14204 558.7625 140.82954Q559.48126 141.51704 559.48126 142.53267Q559.48126 143.0483 559.2625 143.5483Q559.0594 144.03267 558.5594 144.59517Q558.075 145.14204 556.95 146.09517Q555.9969 146.89204 555.71564 147.18892Q555.45 147.47017 555.27814 147.75142L559.4969 147.75142ZM561.5125 148.76704L561.5125 147.56392L562.71564 147.56392L562.71564 148.76704Q562.71564 149.4233 562.48126 149.82954Q562.2469 150.25142 561.7469 150.47017L561.45 150.01704Q561.77814 149.87642 561.9344 149.57954Q562.09064 149.2983 562.1219 148.76704L561.5125 148.76704ZM563.95 146.51704L565.0594 146.4233Q565.1844 147.2358 565.6219 147.64204Q566.075 148.0483 566.71564 148.0483Q567.46564 148.0483 567.9969 147.47017Q568.52814 146.89204 568.52814 145.95454Q568.52814 145.0483 568.0125 144.53267Q567.5125 144.00142 566.6844 144.00142Q566.1844 144.00142 565.7625 144.2358Q565.35626 144.47017 565.1219 144.82954L564.1375 144.70454L564.96564 140.2983L569.2469 140.2983L569.2469 141.2983L565.8094 141.2983L565.35626 143.6108Q566.1219 143.06392 566.96564 143.06392Q568.09064 143.06392 568.85626 143.84517Q569.6375 144.62642 569.6375 145.8608Q569.6375 147.01704 568.96564 147.87642Q568.1375 148.90767 566.71564 148.90767Q565.54376 148.90767 564.79376 148.25142Q564.0594 147.59517 563.95 146.51704ZM571.15314 142.2358Q571.15314 141.31392 571.60626 140.6733Q572.075 140.03267 572.95 140.03267Q573.7625 140.03267 574.29376 140.6108Q574.825 141.18892 574.825 142.2983Q574.825 143.39204 574.27814 143.9858Q573.7469 144.56392 572.96564 144.56392Q572.1844 144.56392 571.66876 143.9858Q571.15314 143.40767 571.15314 142.2358ZM572.98126 140.75142Q572.59064 140.75142 572.325 141.09517Q572.075 141.43892 572.075 142.34517Q572.075 143.1733 572.325 143.51704Q572.59064 143.84517 572.98126 143.84517Q573.3875 143.84517 573.6375 143.50142Q573.90314 143.15767 573.90314 142.26704Q573.90314 141.4233 573.6375 141.09517Q573.3719 140.75142 572.98126 140.75142ZM572.98126 149.07954L577.6844 140.03267L578.54376 140.03267L573.85626 149.07954L572.98126 149.07954ZM576.7 146.75142Q576.7 145.82954 577.15314 145.18892Q577.6219 144.5483 578.5125 144.5483Q579.325 144.5483 579.85626 145.12642Q580.3875 145.68892 580.3875 146.81392Q580.3875 147.90767 579.84064 148.50142Q579.3094 149.07954 578.5125 149.07954Q577.7469 149.07954 577.21564 148.50142Q576.7 147.9233 576.7 146.75142ZM578.54376 145.26704Q578.1375 145.26704 577.8719 145.6108Q577.6219 145.95454 577.6219 146.8608Q577.6219 147.6733 577.8875 148.01704Q578.15314 148.3608 578.54376 148.3608Q578.9344 148.3608 579.2 148.01704Q579.46564 147.6733 579.46564 146.76704Q579.46564 145.93892 579.2 145.6108Q578.9344 145.26704 578.54376 145.26704Z" fill-rule="nonzero"/><path stroke="#757575" stroke-width="1.0" stroke-linecap="butt" d="M581.45 136.26704L442.76666 136.26704L384.3817 136.26704" fill-rule="nonzero"/><path fill="#9e9e9e" d="M386.3817 136.26704C386.3817 135.16248 385.48627 134.26704 384.3817 134.26704C383.27713 134.26704 382.3817 135.16248 382.3817 136.26704C382.3817 137.37161 383.27713 138.26704 384.3817 138.26704C385.48627 138.26704 386.3817 137.37161 386.3817 136.26704" fill-rule="nonzero"/><path fill="#1a1a1a" d="M566.3719 242.21619L566.3719 233.62244L567.52814 233.62244L572.04376 240.37244L572.04376 233.62244L573.1375 233.62244L573.1375 242.21619L571.96564 242.21619L567.45 235.46619L567.45 242.21619L566.3719 242.21619ZM574.85626 239.10681Q574.85626 237.37244 575.8094 236.54431Q576.60626 235.85681 577.7625 235.85681Q579.04376 235.85681 579.85626 236.70056Q580.6844 237.52869 580.6844 239.01306Q580.6844 240.21619 580.325 240.90369Q579.96564 241.59119 579.2625 241.98181Q578.575 242.35681 577.7625 242.35681Q576.46564 242.35681 575.65314 241.52869Q574.85626 240.68494 574.85626 239.10681ZM575.9344 239.10681Q575.9344 240.29431 576.45 240.88806Q576.98126 241.48181 577.7625 241.48181Q578.5594 241.48181 579.075 240.88806Q579.59064 240.29431 579.59064 239.07556Q579.59064 237.91931 579.0594 237.32556Q578.54376 236.73181 577.7625 236.73181Q576.98126 236.73181 576.45 237.32556Q575.9344 237.90369 575.9344 239.10681Z" fill-rule="nonzero"/><path fill="#9e9e9e" d="M552.4969 258.20056L552.4969 259.2162L546.8094 259.2162Q546.8094 258.8412 546.9344 258.4818Q547.15314 257.9037 547.6219 257.3412Q548.10626 256.7787 549.0125 256.0443Q550.41876 254.88806 550.90314 254.21619Q551.40314 253.54431 551.40314 252.95056Q551.40314 252.32556 550.95 251.90369Q550.4969 251.46619 549.77814 251.46619Q549.0125 251.46619 548.5594 251.91931Q548.10626 252.37244 548.09064 253.18494L547.0125 253.07556Q547.1219 251.85681 547.84064 251.23181Q548.575 250.59119 549.8094 250.59119Q551.04376 250.59119 551.7625 251.27869Q552.48126 251.96619 552.48126 252.98181Q552.48126 253.49744 552.2625 253.99744Q552.0594 254.48181 551.5594 255.04431Q551.075 255.59119 549.95 256.5443Q548.9969 257.3412 548.71564 257.63806Q548.45 257.9193 548.27814 258.20056L552.4969 258.20056ZM553.95 254.98181Q553.95 253.45056 554.2625 252.52869Q554.575 251.59119 555.1844 251.09119Q555.8094 250.59119 556.7469 250.59119Q557.4344 250.59119 557.95 250.87244Q558.48126 251.15369 558.825 251.68494Q559.16876 252.20056 559.35626 252.95056Q559.54376 253.70056 559.54376 254.98181Q559.54376 256.49744 559.23126 257.4193Q558.9344 258.3412 558.3094 258.8568Q557.7 259.3568 556.7469 259.3568Q555.5125 259.3568 554.79376 258.4662Q553.95 257.4037 553.95 254.98181ZM555.02814 254.98181Q555.02814 257.0912 555.52814 257.7943Q556.02814 258.49744 556.7469 258.49744Q557.48126 258.49744 557.96564 257.7943Q558.46564 257.0912 558.46564 254.98181Q558.46564 252.85681 557.96564 252.16931Q557.48126 251.46619 556.73126 251.46619Q556.0125 251.46619 555.575 252.07556Q555.02814 252.85681 555.02814 254.98181ZM561.5125 259.2162L561.5125 258.01306L562.71564 258.01306L562.71564 259.2162Q562.71564 259.87244 562.48126 260.2787Q562.2469 260.70056 561.7469 260.9193L561.45 260.4662Q561.77814 260.32556 561.9344 260.0287Q562.09064 259.74744 562.1219 259.2162L561.5125 259.2162ZM563.95 254.98181Q563.95 253.45056 564.2625 252.52869Q564.575 251.59119 565.1844 251.09119Q565.8094 250.59119 566.7469 250.59119Q567.4344 250.59119 567.95 250.87244Q568.48126 251.15369 568.825 251.68494Q569.16876 252.20056 569.35626 252.95056Q569.54376 253.70056 569.54376 254.98181Q569.54376 256.49744 569.23126 257.4193Q568.9344 258.3412 568.3094 258.8568Q567.7 259.3568 566.7469 259.3568Q565.5125 259.3568 564.79376 258.4662Q563.95 257.4037 563.95 254.98181ZM565.02814 254.98181Q565.02814 257.0912 565.52814 257.7943Q566.02814 258.49744 566.7469 258.49744Q567.48126 258.49744 567.96564 257.7943Q568.46564 257.0912 568.46564 254.98181Q568.46564 252.85681 567.96564 252.16931Q567.48126 251.46619 566.73126 251.46619Q566.0125 251.46619 565.575 252.07556Q565.02814 252.85681 565.02814 254.98181ZM571.15314 252.68494Q571.15314 251.76306 571.60626 251.12244Q572.075 250.48181 572.95 250.48181Q573.7625 250.48181 574.29376 251.05994Q574.825 251.63806 574.825 252.74744Q574.825 253.84119 574.27814 254.43494Q573.7469 255.01306 572.96564 255.01306Q572.1844 255.01306 571.66876 254.43494Q571.15314 253.85681 571.15314 252.68494ZM572.98126 251.20056Q572.59064 251.20056 572.325 251.54431Q572.075 251.88806 572.075 252.79431Q572.075 253.62244 572.325 253.96619Q572.59064 254.29431 572.98126 254.29431Q573.3875 254.29431 573.6375 253.95056Q573.90314 253.60681 573.90314 252.71619Q573.90314 251.87244 573.6375 251.54431Q573.3719 251.20056 572.98126 251.20056ZM572.98126 259.5287L577.6844 250.48181L578.54376 250.48181L573.85626 259.5287L572.98126 259.5287ZM576.7 257.20056Q576.7 256.2787 577.15314 255.63806Q577.6219 254.99744 578.5125 254.99744Q579.325 254.99744 579.85626 255.57556Q580.3875 256.13806 580.3875 257.26306Q580.3875 258.3568 579.84064 258.95056Q579.3094 259.5287 578.5125 259.5287Q577.7469 259.5287 577.21564 258.95056Q576.7 258.37244 576.7 257.20056ZM578.54376 255.71619Q578.1375 255.71619 577.8719 256.05994Q577.6219 256.4037 577.6219 257.30994Q577.6219 258.12244 577.8875 258.4662Q578.15314 258.80994 578.54376 258.80994Q578.9344 258.80994 579.2 258.4662Q579.46564 258.12244 579.46564 257.2162Q579.46564 256.38806 579.2 256.05994Q578.9344 255.71619 578.54376 255.71619Z" fill-rule="nonzero"/><path stroke="#757575" stroke-width="1.0" stroke-linecap="butt" d="M581.45 246.71619L442.76666 246.71619L415.767 246.71619" fill-rule="nonzero"/><path fill="#9e9e9e" d="M417.767 246.71619C417.767 245.61162 416.87155 244.71619 415.767 244.71619C414.6624 244.71619 413.767 245.61162 413.767 246.71619C413.767 247.82077 414.6624 248.71619 415.767 248.71619C416.87155 248.71619 417.767 247.82077 417.767 246.71619" fill-rule="nonzero"/><path fill="#757575" d="M20.096874 37.55L20.096874 23.2375L25.01875 23.2375Q26.690624 23.2375 27.58125 23.440624Q28.8 23.721874 29.675 24.45625Q30.8 25.425 31.3625 26.909374Q31.925 28.39375 31.925 30.315624Q31.925 31.940624 31.55 33.20625Q31.175 34.45625 30.565624 35.284374Q29.971874 36.1125 29.26875 36.596874Q28.565624 37.065624 27.565624 37.315624Q26.565624 37.55 25.253124 37.55L20.096874 37.55ZM21.9875 35.8625L25.05 35.8625Q26.45625 35.8625 27.253124 35.596874Q28.065624 35.33125 28.55 34.846874Q29.221874 34.175 29.596874 33.05Q29.971874 31.909374 29.971874 30.284374Q29.971874 28.034374 29.2375 26.83125Q28.503124 25.628124 27.440624 25.221874Q26.690624 24.925 25.003124 24.925L21.9875 24.925L21.9875 35.8625ZM33.221874 32.3625Q33.221874 29.4875 34.815624 28.096874Q36.159374 26.940624 38.08125 26.940624Q40.221874 26.940624 41.565624 28.346874Q42.925 29.753124 42.925 32.221874Q42.925 34.221874 42.33125 35.378124Q41.7375 36.51875 40.58125 37.159374Q39.440624 37.784374 38.08125 37.784374Q35.89375 37.784374 34.55 36.39375Q33.221874 34.9875 33.221874 32.3625ZM35.01875 32.3625Q35.01875 34.3625 35.878124 35.346874Q36.753124 36.33125 38.08125 36.33125Q39.39375 36.33125 40.253124 35.346874Q41.128124 34.346874 41.128124 32.3Q41.128124 30.378124 40.253124 29.39375Q39.378124 28.39375 38.08125 28.39375Q36.753124 28.39375 35.878124 29.39375Q35.01875 30.378124 35.01875 32.3625ZM50.784374 41.55L50.596874 39.89375Q51.175 40.05 51.596874 40.05Q52.190624 40.05 52.534374 39.846874Q52.89375 39.659374 53.1125 39.315624Q53.284374 39.05 53.659374 38.003124Q53.70625 37.846874 53.815624 37.565624L49.878124 27.175L51.76875 27.175L53.925 33.190624Q54.346874 34.33125 54.675 35.58125Q54.9875 34.378124 55.39375 33.221874L57.6125 27.175L59.378124 27.175L55.425 37.721874Q54.8 39.440624 54.440624 40.08125Q53.971874 40.95625 53.3625 41.346874Q52.76875 41.753124 51.925 41.753124Q51.409374 41.753124 50.784374 41.55ZM60.221874 32.3625Q60.221874 29.4875 61.815624 28.096874Q63.159374 26.940624 65.08125 26.940624Q67.22188 26.940624 68.56563 28.346874Q69.925 29.753124 69.925 32.221874Q69.925 34.221874 69.33125 35.378124Q68.7375 36.51875 67.58125 37.159374Q66.44063 37.784374 65.08125 37.784374Q62.89375 37.784374 61.55 36.39375Q60.221874 34.9875 60.221874 32.3625ZM62.01875 32.3625Q62.01875 34.3625 62.878124 35.346874Q63.753124 36.33125 65.08125 36.33125Q66.39375 36.33125 67.25313 35.346874Q68.12813 34.346874 68.12813 32.3Q68.12813 30.378124 67.25313 29.39375Q66.37813 28.39375 65.08125 28.39375Q63.753124 28.39375 62.878124 29.39375Q62.01875 30.378124 62.01875 32.3625ZM78.65938 37.55L78.65938 36.01875Q77.45625 37.784374 75.37813 37.784374Q74.45625 37.784374 73.65938 37.440624Q72.8625 37.08125 72.47188 36.55Q72.09688 36.01875 71.94063 35.2375Q71.83125 34.721874 71.83125 33.596874L71.83125 27.175L73.58125 27.175L73.58125 32.925Q73.58125 34.3 73.69063 34.784374Q73.8625 35.471874 74.39375 35.878124Q74.94063 36.26875 75.72188 36.26875Q76.51875 36.26875 77.20625 35.8625Q77.90938 35.45625 78.19063 34.76875Q78.4875 34.065624 78.4875 32.7375L78.4875 27.175L80.2375 27.175L80.2375 37.55L78.65938 37.55ZM92.70625 35.971874L92.95625 37.534374Q92.22188 37.690624 91.62813 37.690624Q90.675 37.690624 90.14375 37.39375Q89.62813 37.08125 89.40938 36.596874Q89.19063 36.096874 89.19063 34.51875L89.19063 28.55L87.90938 28.55L87.90938 27.175L89.19063 27.175L89.19063 24.6125L90.94063 23.55L90.94063 27.175L92.70625 27.175L92.70625 28.55L90.94063 28.55L90.94063 34.6125Q90.94063 35.3625 91.03438 35.58125Q91.12813 35.784374 91.33125 35.925Q91.55 36.05 91.94063 36.05Q92.22188 36.05 92.70625 35.971874ZM94.8625 37.55L94.8625 23.2375L96.62813 23.2375L96.62813 28.3625Q97.8625 26.940624 99.7375 26.940624Q100.87813 26.940624 101.72188 27.39375Q102.58125 27.846874 102.94063 28.659374Q103.31563 29.45625 103.31563 30.971874L103.31563 37.55L101.56563 37.55L101.56563 30.971874Q101.56563 29.659374 100.9875 29.065624Q100.40938 28.45625 99.37813 28.45625Q98.59688 28.45625 97.89375 28.8625Q97.20625 29.26875 96.90938 29.971874Q96.62813 30.659374 96.62813 31.878124L96.62813 37.55L94.8625 37.55ZM105.87813 25.253124L105.87813 23.2375L107.64375 23.2375L107.64375 25.253124L105.87813 25.253124ZM105.87813 37.55L105.87813 27.175L107.64375 27.175L107.64375 37.55L105.87813 37.55ZM109.8625 37.55L109.8625 27.175L111.45625 27.175L111.45625 28.659374Q112.59688 26.940624 114.75313 26.940624Q115.69063 26.940624 116.47188 27.284374Q117.26875 27.6125 117.65938 28.159374Q118.05 28.70625 118.20625 29.45625Q118.3 29.95625 118.3 31.175L118.3 37.55L116.53438 37.55L116.53438 31.2375Q116.53438 30.159374 116.33125 29.628124Q116.12813 29.096874 115.59688 28.784374Q115.08125 28.471874 114.37813 28.471874Q113.25313 28.471874 112.44063 29.190624Q111.62813 29.89375 111.62813 31.878124L111.62813 37.55L109.8625 37.55ZM120.87813 37.55L120.87813 23.2375L122.64375 23.2375L122.64375 31.39375L126.8 27.175L129.06563 27.175L125.1125 31.01875L129.47188 37.55L127.3 37.55L123.87813 32.253124L122.64375 33.440624L122.64375 37.55L120.87813 37.55ZM140.70625 35.971874L140.95625 37.534374Q140.22188 37.690624 139.62813 37.690624Q138.675 37.690624 138.14375 37.39375Q137.62813 37.08125 137.40938 36.596874Q137.19063 36.096874 137.19063 34.51875L137.19063 28.55L135.90938 28.55L135.90938 27.175L137.19063 27.175L137.19063 24.6125L138.94063 23.55L138.94063 27.175L140.70625 27.175L140.70625 28.55L138.94063 28.55L138.94063 34.6125Q138.94063 35.3625 139.03438 35.58125Q139.12813 35.784374 139.33125 35.925Q139.55 36.05 139.94063 36.05Q140.22188 36.05 140.70625 35.971874ZM142.8625 37.55L142.8625 23.2375L144.62813 23.2375L144.62813 28.3625Q145.8625 26.940624 147.7375 26.940624Q148.87813 26.940624 149.72188 27.39375Q150.58125 27.846874 150.94063 28.659374Q151.31563 29.45625 151.31563 30.971874L151.31563 37.55L149.56563 37.55L149.56563 30.971874Q149.56563 29.659374 148.9875 29.065624Q148.40938 28.45625 147.37813 28.45625Q146.59688 28.45625 145.89375 28.8625Q145.20625 29.26875 144.90938 29.971874Q144.62813 30.659374 144.62813 31.878124L144.62813 37.55L142.8625 37.55ZM160.97188 34.20625L162.78438 34.440624Q162.3625 36.01875 161.19063 36.909374Q160.03438 37.784374 158.22188 37.784374Q155.95625 37.784374 154.6125 36.39375Q153.28438 34.9875 153.28438 32.45625Q153.28438 29.83125 154.62813 28.39375Q155.97188 26.940624 158.12813 26.940624Q160.20625 26.940624 161.51875 28.3625Q162.84688 29.76875 162.84688 32.346874Q162.84688 32.503124 162.83125 32.815624L155.09688 32.815624Q155.19063 34.51875 156.06563 35.425Q156.94063 36.33125 158.2375 36.33125Q159.20625 36.33125 159.87813 35.83125Q160.56563 35.315624 160.97188 34.20625ZM155.19063 31.3625L160.9875 31.3625Q160.87813 30.065624 160.33125 29.409374Q159.4875 28.39375 158.14375 28.39375Q156.94063 28.39375 156.1125 29.20625Q155.28438 30.003124 155.19063 31.3625ZM177.64375 36.26875Q176.65938 37.096874 175.75313 37.440624Q174.84688 37.784374 173.81563 37.784374Q172.1125 37.784374 171.19063 36.95625Q170.26875 36.1125 170.26875 34.815624Q170.26875 34.05 170.6125 33.425Q170.97188 32.8 171.53438 32.425Q172.09688 32.034374 172.8 31.83125Q173.31563 31.70625 174.3625 31.565624Q176.4875 31.315624 177.4875 30.971874Q177.50313 30.6125 177.50313 30.503124Q177.50313 29.440624 177.00313 28.9875Q176.33125 28.39375 175.00313 28.39375Q173.75313 28.39375 173.15938 28.83125Q172.58125 29.26875 172.3 30.378124L170.58125 30.14375Q170.81563 29.034374 171.34688 28.3625Q171.87813 27.675 172.89375 27.315624Q173.90938 26.940624 175.25313 26.940624Q176.58125 26.940624 177.40938 27.253124Q178.2375 27.565624 178.62813 28.05Q179.01875 28.51875 179.175 29.2375Q179.26875 29.690624 179.26875 30.8625L179.26875 33.20625Q179.26875 35.659374 179.37813 36.315624Q179.4875 36.95625 179.83125 37.55L177.9875 37.55Q177.72188 37.003124 177.64375 36.26875ZM177.4875 32.346874Q176.53438 32.7375 174.6125 33.003124Q173.53438 33.159374 173.08125 33.3625Q172.64375 33.55 172.39375 33.925Q172.14375 34.3 172.14375 34.76875Q172.14375 35.471874 172.675 35.940624Q173.20625 36.409374 174.2375 36.409374Q175.25313 36.409374 176.03438 35.971874Q176.83125 35.51875 177.20625 34.753124Q177.4875 34.14375 177.4875 32.9875L177.4875 32.346874ZM181.8625 41.51875L181.8625 27.175L183.47188 27.175L183.47188 28.51875Q184.03438 27.7375 184.7375 27.346874Q185.45625 26.940624 186.47188 26.940624Q187.8 26.940624 188.81563 27.628124Q189.83125 28.315624 190.34688 29.565624Q190.87813 30.8 190.87813 32.284374Q190.87813 33.878124 190.3 35.159374Q189.7375 36.425 188.64375 37.1125Q187.55 37.784374 186.34688 37.784374Q185.47188 37.784374 184.76875 37.409374Q184.08125 37.034374 183.62813 36.471874L183.62813 41.51875L181.8625 41.51875ZM183.45625 32.425Q183.45625 34.425 184.26875 35.378124Q185.08125 36.33125 186.2375 36.33125Q187.40938 36.33125 188.2375 35.346874Q189.08125 34.3625 189.08125 32.26875Q189.08125 30.3 188.25313 29.315624Q187.44063 28.315624 186.31563 28.315624Q185.19063 28.315624 184.31563 29.378124Q183.45625 30.425 183.45625 32.425ZM192.8625 41.51875L192.8625 27.175L194.47188 27.175L194.47188 28.51875Q195.03438 27.7375 195.7375 27.346874Q196.45625 26.940624 197.47188 26.940624Q198.8 26.940624 199.81563 27.628124Q200.83125 28.315624 201.34688 29.565624Q201.87813 30.8 201.87813 32.284374Q201.87813 33.878124 201.3 35.159374Q200.7375 36.425 199.64375 37.1125Q198.55 37.784374 197.34688 37.784374Q196.47188 37.784374 195.76875 37.409374Q195.08125 37.034374 194.62813 36.471874L194.62813 41.51875L192.8625 41.51875ZM194.45625 32.425Q194.45625 34.425 195.26875 35.378124Q196.08125 36.33125 197.2375 36.33125Q198.40938 36.33125 199.2375 35.346874Q200.08125 34.3625 200.08125 32.26875Q200.08125 30.3 199.25313 29.315624Q198.44063 28.315624 197.31563 28.315624Q196.19063 28.315624 195.31563 29.378124Q194.45625 30.425 194.45625 32.425ZM216.64375 33.753124L218.3625 33.971874Q218.08125 35.76875 216.90938 36.784374Q215.75313 37.784374 214.05 37.784374Q211.925 37.784374 210.62813 36.39375Q209.33125 35.003124 209.33125 32.409374Q209.33125 30.721874 209.87813 29.471874Q210.44063 28.20625 211.58125 27.58125Q212.72188 26.940624 214.06563 26.940624Q215.75313 26.940624 216.81563 27.8Q217.89375 28.659374 218.20625 30.221874L216.4875 30.4875Q216.25313 29.440624 215.62813 28.925Q215.00313 28.39375 214.12813 28.39375Q212.8 28.39375 211.97188 29.346874Q211.14375 30.3 211.14375 32.346874Q211.14375 34.440624 211.94063 35.39375Q212.7375 36.33125 214.03438 36.33125Q215.06563 36.33125 215.75313 35.70625Q216.45625 35.065624 216.64375 33.753124ZM226.64375 36.26875Q225.65938 37.096874 224.75313 37.440624Q223.84688 37.784374 222.81563 37.784374Q221.1125 37.784374 220.19063 36.95625Q219.26875 36.1125 219.26875 34.815624Q219.26875 34.05 219.6125 33.425Q219.97188 32.8 220.53438 32.425Q221.09688 32.034374 221.8 31.83125Q222.31563 31.70625 223.3625 31.565624Q225.4875 31.315624 226.4875 30.971874Q226.50313 30.6125 226.50313 30.503124Q226.50313 29.440624 226.00313 28.9875Q225.33125 28.39375 224.00313 28.39375Q222.75313 28.39375 222.15938 28.83125Q221.58125 29.26875 221.3 30.378124L219.58125 30.14375Q219.81563 29.034374 220.34688 28.3625Q220.87813 27.675 221.89375 27.315624Q222.90938 26.940624 224.25313 26.940624Q225.58125 26.940624 226.40938 27.253124Q227.2375 27.565624 227.62813 28.05Q228.01875 28.51875 228.175 29.2375Q228.26875 29.690624 228.26875 30.8625L228.26875 33.20625Q228.26875 35.659374 228.37813 36.315624Q228.4875 36.95625 228.83125 37.55L226.9875 37.55Q226.72188 37.003124 226.64375 36.26875ZM226.4875 32.346874Q225.53438 32.7375 223.6125 33.003124Q222.53438 33.159374 222.08125 33.3625Q221.64375 33.55 221.39375 33.925Q221.14375 34.3 221.14375 34.76875Q221.14375 35.471874 221.675 35.940624Q222.20625 36.409374 223.2375 36.409374Q224.25313 36.409374 225.03438 35.971874Q225.83125 35.51875 226.20625 34.753124Q226.4875 34.14375 226.4875 32.9875L226.4875 32.346874ZM230.8625 37.55L230.8625 27.175L232.45625 27.175L232.45625 28.659374Q233.59688 26.940624 235.75313 26.940624Q236.69063 26.940624 237.47188 27.284374Q238.26875 27.6125 238.65938 28.159374Q239.05 28.70625 239.20625 29.45625Q239.3 29.95625 239.3 31.175L239.3 37.55L237.53438 37.55L237.53438 31.2375Q237.53438 30.159374 237.33125 29.628124Q237.12813 29.096874 236.59688 28.784374Q236.08125 28.471874 235.37813 28.471874Q234.25313 28.471874 233.44063 29.190624Q232.62813 29.89375 232.62813 31.878124L232.62813 37.55L230.8625 37.55ZM251.70625 35.971874L251.95625 37.534374Q251.22188 37.690624 250.62813 37.690624Q249.675 37.690624 249.14375 37.39375Q248.62813 37.08125 248.40938 36.596874Q248.19063 36.096874 248.19063 34.51875L248.19063 28.55L246.90938 28.55L246.90938 27.175L248.19063 27.175L248.19063 24.6125L249.94063 23.55L249.94063 27.175L251.70625 27.175L251.70625 28.55L249.94063 28.55L249.94063 34.6125Q249.94063 35.3625 250.03438 35.58125Q250.12813 35.784374 250.33125 35.925Q250.55 36.05 250.94063 36.05Q251.22188 36.05 251.70625 35.971874ZM260.97186 34.20625L262.78436 34.440624Q262.3625 36.01875 261.1906 36.909374Q260.03436 37.784374 258.22186 37.784374Q255.95625 37.784374 254.6125 36.39375Q253.28438 34.9875 253.28438 32.45625Q253.28438 29.83125 254.62813 28.39375Q255.97188 26.940624 258.1281 26.940624Q260.20624 26.940624 261.51874 28.3625Q262.84686 29.76875 262.84686 32.346874Q262.84686 32.503124 262.83124 32.815624L255.09688 32.815624Q255.19063 34.51875 256.0656 35.425Q256.9406 36.33125 258.2375 36.33125Q259.20624 36.33125 259.8781 35.83125Q260.5656 35.315624 260.97186 34.20625ZM255.19063 31.3625L260.9875 31.3625Q260.8781 30.065624 260.33124 29.409374Q259.4875 28.39375 258.14374 28.39375Q256.9406 28.39375 256.1125 29.20625Q255.28438 30.003124 255.19063 31.3625ZM264.8625 37.55L264.8625 27.175L266.4406 27.175L266.4406 28.628124Q266.925 27.878124 267.7375 27.409374Q268.55 26.940624 269.58124 26.940624Q270.7375 26.940624 271.47186 27.425Q272.20624 27.89375 272.51874 28.753124Q273.7531 26.940624 275.72186 26.940624Q277.26874 26.940624 278.09686 27.8Q278.925 28.659374 278.925 30.425L278.925 37.55L277.175 37.55L277.175 31.01875Q277.175 29.95625 277.0031 29.503124Q276.83124 29.034374 276.3781 28.753124Q275.9406 28.471874 275.33124 28.471874Q274.2375 28.471874 273.5031 29.20625Q272.78436 29.925 272.78436 31.51875L272.78436 37.55L271.03436 37.55L271.03436 30.815624Q271.03436 29.64375 270.59686 29.065624Q270.175 28.471874 269.1906 28.471874Q268.45624 28.471874 267.8156 28.8625Q267.1906 29.253124 266.90936 30.003124Q266.6281 30.753124 266.6281 32.175L266.6281 37.55L264.8625 37.55ZM281.8625 41.51875L281.8625 27.175L283.47186 27.175L283.47186 28.51875Q284.03436 27.7375 284.7375 27.346874Q285.45624 26.940624 286.47186 26.940624Q287.8 26.940624 288.8156 27.628124Q289.83124 28.315624 290.34686 29.565624Q290.8781 30.8 290.8781 32.284374Q290.8781 33.878124 290.3 35.159374Q289.7375 36.425 288.64374 37.1125Q287.55 37.784374 286.34686 37.784374Q285.47186 37.784374 284.76874 37.409374Q284.08124 37.034374 283.6281 36.471874L283.6281 41.51875L281.8625 41.51875ZM283.45624 32.425Q283.45624 34.425 284.26874 35.378124Q285.08124 36.33125 286.2375 36.33125Q287.40936 36.33125 288.2375 35.346874Q289.08124 34.3625 289.08124 32.26875Q289.08124 30.3 288.2531 29.315624Q287.4406 28.315624 286.3156 28.315624Q285.1906 28.315624 284.3156 29.378124Q283.45624 30.425 283.45624 32.425ZM296.70624 35.971874L296.95624 37.534374Q296.22186 37.690624 295.6281 37.690624Q294.675 37.690624 294.14374 37.39375Q293.6281 37.08125 293.40936 36.596874Q293.1906 36.096874 293.1906 34.51875L293.1906 28.55L291.90936 28.55L291.90936 27.175L293.1906 27.175L293.1906 24.6125L294.9406 23.55L294.9406 27.175L296.70624 27.175L296.70624 28.55L294.9406 28.55L294.9406 34.6125Q294.9406 35.3625 295.03436 35.58125Q295.1281 35.784374 295.33124 35.925Q295.55 36.05 295.9406 36.05Q296.22186 36.05 296.70624 35.971874ZM304.78436 41.55L304.59686 39.89375Q305.175 40.05 305.59686 40.05Q306.1906 40.05 306.53436 39.846874Q306.89374 39.659374 307.1125 39.315624Q307.28436 39.05 307.65936 38.003124Q307.70624 37.846874 307.8156 37.565624L303.8781 27.175L305.76874 27.175L307.925 33.190624Q308.34686 34.33125 308.675 35.58125Q308.9875 34.378124 309.39374 33.221874L311.6125 27.175L313.3781 27.175L309.425 37.721874Q308.8 39.440624 308.4406 40.08125Q307.97186 40.95625 307.3625 41.346874Q306.76874 41.753124 305.925 41.753124Q305.40936 41.753124 304.78436 41.55ZM314.22186 32.3625Q314.22186 29.4875 315.8156 28.096874Q317.15936 26.940624 319.08124 26.940624Q321.22186 26.940624 322.5656 28.346874Q323.925 29.753124 323.925 32.221874Q323.925 34.221874 323.33124 35.378124Q322.7375 36.51875 321.58124 37.159374Q320.4406 37.784374 319.08124 37.784374Q316.89374 37.784374 315.55 36.39375Q314.22186 34.9875 314.22186 32.3625ZM316.01874 32.3625Q316.01874 34.3625 316.8781 35.346874Q317.7531 36.33125 319.08124 36.33125Q320.39374 36.33125 321.2531 35.346874Q322.1281 34.346874 322.1281 32.3Q322.1281 30.378124 321.2531 29.39375Q320.3781 28.39375 319.08124 28.39375Q317.7531 28.39375 316.8781 29.39375Q316.01874 30.378124 316.01874 32.3625ZM332.65936 37.55L332.65936 36.01875Q331.45624 37.784374 329.3781 37.784374Q328.45624 37.784374 327.65936 37.440624Q326.8625 37.08125 326.47186 36.55Q326.09686 36.01875 325.9406 35.2375Q325.83124 34.721874 325.83124 33.596874L325.83124 27.175L327.58124 27.175L327.58124 32.925Q327.58124 34.3 327.6906 34.784374Q327.8625 35.471874 328.39374 35.878124Q328.9406 36.26875 329.72186 36.26875Q330.51874 36.26875 331.20624 35.8625Q331.90936 35.45625 332.1906 34.76875Q332.4875 34.065624 332.4875 32.7375L332.4875 27.175L334.2375 27.175L334.2375 37.55L332.65936 37.55ZM346.70624 35.971874L346.95624 37.534374Q346.22186 37.690624 345.6281 37.690624Q344.675 37.690624 344.14374 37.39375Q343.6281 37.08125 343.40936 36.596874Q343.1906 36.096874 343.1906 34.51875L343.1906 28.55L341.90936 28.55L341.90936 27.175L343.1906 27.175L343.1906 24.6125L344.9406 23.55L344.9406 27.175L346.70624 27.175L346.70624 28.55L344.9406 28.55L344.9406 34.6125Q344.9406 35.3625 345.03436 35.58125Q345.1281 35.784374 345.33124 35.925Q345.55 36.05 345.9406 36.05Q346.22186 36.05 346.70624 35.971874ZM348.22186 32.3625Q348.22186 29.4875 349.8156 28.096874Q351.15936 26.940624 353.08124 26.940624Q355.22186 26.940624 356.5656 28.346874Q357.925 29.753124 357.925 32.221874Q357.925 34.221874 357.33124 35.378124Q356.7375 36.51875 355.58124 37.159374Q354.4406 37.784374 353.08124 37.784374Q350.89374 37.784374 349.55 36.39375Q348.22186 34.9875 348.22186 32.3625ZM350.01874 32.3625Q350.01874 34.3625 350.8781 35.346874Q351.7531 36.33125 353.08124 36.33125Q354.39374 36.33125 355.2531 35.346874Q356.1281 34.346874 356.1281 32.3Q356.1281 30.378124 355.2531 29.39375Q354.3781 28.39375 353.08124 28.39375Q351.7531 28.39375 350.8781 29.39375Q350.01874 30.378124 350.01874 32.3625ZM368.7531 37.55L364.8 27.175L366.65936 27.175L368.89374 33.39375Q369.2531 34.39375 369.55 35.471874Q369.78436 34.659374 370.20624 33.503124L372.5031 27.175L374.3156 27.175L370.39374 37.55L368.7531 37.55ZM375.8781 25.253124L375.8781 23.2375L377.64374 23.2375L377.64374 25.253124L375.8781 25.253124ZM375.8781 37.55L375.8781 27.175L377.64374 27.175L377.64374 37.55L375.8781 37.55ZM379.15936 34.45625L380.90936 34.175Q381.05 35.221874 381.72186 35.784374Q382.39374 36.33125 383.59686 36.33125Q384.8 36.33125 385.3781 35.846874Q385.97186 35.346874 385.97186 34.690624Q385.97186 34.096874 385.45624 33.753124Q385.09686 33.51875 383.65936 33.159374Q381.72186 32.659374 380.97186 32.315624Q380.2375 31.95625 379.84686 31.33125Q379.45624 30.690624 379.45624 29.925Q379.45624 29.2375 379.76874 28.64375Q380.09686 28.05 380.64374 27.659374Q381.05 27.3625 381.7531 27.159374Q382.47186 26.940624 383.28436 26.940624Q384.5031 26.940624 385.425 27.3Q386.34686 27.64375 386.78436 28.253124Q387.22186 28.846874 387.39374 29.846874L385.675 30.08125Q385.55 29.284374 384.9875 28.846874Q384.425 28.39375 383.40936 28.39375Q382.1906 28.39375 381.675 28.8Q381.15936 29.190624 381.15936 29.721874Q381.15936 30.065624 381.3781 30.346874Q381.58124 30.628124 382.05 30.815624Q382.3156 30.909374 383.59686 31.253124Q385.47186 31.753124 386.20624 32.08125Q386.9406 32.39375 387.3625 33.003124Q387.78436 33.596874 387.78436 34.503124Q387.78436 35.378124 387.26874 36.159374Q386.7531 36.940624 385.78436 37.3625Q384.8156 37.784374 383.59686 37.784374Q381.58124 37.784374 380.51874 36.940624Q379.45624 36.096874 379.15936 34.45625ZM389.8781 25.253124L389.8781 23.2375L391.64374 23.2375L391.64374 25.253124L389.8781 25.253124ZM389.8781 37.55L389.8781 27.175L391.64374 27.175L391.64374 37.55L389.8781 37.55ZM397.70624 35.971874L397.95624 37.534374Q397.22186 37.690624 396.6281 37.690624Q395.675 37.690624 395.14374 37.39375Q394.6281 37.08125 394.40936 36.596874Q394.1906 36.096874 394.1906 34.51875L394.1906 28.55L392.90936 28.55L392.90936 27.175L394.1906 27.175L394.1906 24.6125L395.9406 23.55L395.9406 27.175L397.70624 27.175L397.70624 28.55L395.9406 28.55L395.9406 34.6125Q395.9406 35.3625 396.03436 35.58125Q396.1281 35.784374 396.33124 35.925Q396.55 36.05 396.9406 36.05Q397.22186 36.05 397.70624 35.971874ZM412.64374 36.26875Q411.65936 37.096874 410.7531 37.440624Q409.84686 37.784374 408.8156 37.784374Q407.1125 37.784374 406.1906 36.95625Q405.26874 36.1125 405.26874 34.815624Q405.26874 34.05 405.6125 33.425Q405.97186 32.8 406.53436 32.425Q407.09686 32.034374 407.8 31.83125Q408.3156 31.70625 409.3625 31.565624Q411.4875 31.315624 412.4875 30.971874Q412.5031 30.6125 412.5031 30.503124Q412.5031 29.440624 412.0031 28.9875Q411.33124 28.39375 410.0031 28.39375Q408.7531 28.39375 408.15936 28.83125Q407.58124 29.26875 407.3 30.378124L405.58124 30.14375Q405.8156 29.034374 406.34686 28.3625Q406.8781 27.675 407.89374 27.315624Q408.90936 26.940624 410.2531 26.940624Q411.58124 26.940624 412.40936 27.253124Q413.2375 27.565624 413.6281 28.05Q414.01874 28.51875 414.175 29.2375Q414.26874 29.690624 414.26874 30.8625L414.26874 33.20625Q414.26874 35.659374 414.3781 36.315624Q414.4875 36.95625 414.83124 37.55L412.9875 37.55Q412.72186 37.003124 412.64374 36.26875ZM412.4875 32.346874Q411.53436 32.7375 409.6125 33.003124Q408.53436 33.159374 408.08124 33.3625Q407.64374 33.55 407.39374 33.925Q407.14374 34.3 407.14374 34.76875Q407.14374 35.471874 407.675 35.940624Q408.20624 36.409374 409.2375 36.409374Q410.2531 36.409374 411.03436 35.971874Q411.83124 35.51875 412.20624 34.753124Q412.4875 34.14375 412.4875 32.9875L412.4875 32.346874ZM422.8625 37.55L422.8625 27.175L424.4406 27.175L424.4406 28.628124Q424.925 27.878124 425.7375 27.409374Q426.55 26.940624 427.58124 26.940624Q428.7375 26.940624 429.47186 27.425Q430.20624 27.89375 430.51874 28.753124Q431.7531 26.940624 433.72186 26.940624Q435.26874 26.940624 436.09686 27.8Q436.925 28.659374 436.925 30.425L436.925 37.55L435.175 37.55L435.175 31.01875Q435.175 29.95625 435.0031 29.503124Q434.83124 29.034374 434.3781 28.753124Q433.9406 28.471874 433.33124 28.471874Q432.2375 28.471874 431.5031 29.20625Q430.78436 29.925 430.78436 31.51875L430.78436 37.55L429.03436 37.55L429.03436 30.815624Q429.03436 29.64375 428.59686 29.065624Q428.175 28.471874 427.1906 28.471874Q426.45624 28.471874 425.8156 28.8625Q425.1906 29.253124 424.90936 30.003124Q424.6281 30.753124 424.6281 32.175L424.6281 37.55L422.8625 37.55ZM446.65936 37.55L446.65936 36.01875Q445.45624 37.784374 443.3781 37.784374Q442.45624 37.784374 441.65936 37.440624Q440.8625 37.08125 440.47186 36.55Q440.09686 36.01875 439.9406 35.2375Q439.83124 34.721874 439.83124 33.596874L439.83124 27.175L441.58124 27.175L441.58124 32.925Q441.58124 34.3 441.6906 34.784374Q441.8625 35.471874 442.39374 35.878124Q442.9406 36.26875 443.72186 36.26875Q444.51874 36.26875 445.20624 35.8625Q445.90936 35.45625 446.1906 34.76875Q446.4875 34.065624 446.4875 32.7375L446.4875 27.175L448.2375 27.175L448.2375 37.55L446.65936 37.55ZM450.15936 34.45625L451.90936 34.175Q452.05 35.221874 452.72186 35.784374Q453.39374 36.33125 454.59686 36.33125Q455.8 36.33125 456.3781 35.846874Q456.97186 35.346874 456.97186 34.690624Q456.97186 34.096874 456.45624 33.753124Q456.09686 33.51875 454.65936 33.159374Q452.72186 32.659374 451.97186 32.315624Q451.2375 31.95625 450.84686 31.33125Q450.45624 30.690624 450.45624 29.925Q450.45624 29.2375 450.76874 28.64375Q451.09686 28.05 451.64374 27.659374Q452.05 27.3625 452.7531 27.159374Q453.47186 26.940624 454.28436 26.940624Q455.5031 26.940624 456.425 27.3Q457.34686 27.64375 457.78436 28.253124Q458.22186 28.846874 458.39374 29.846874L456.675 30.08125Q456.55 29.284374 455.9875 28.846874Q455.425 28.39375 454.40936 28.39375Q453.1906 28.39375 452.675 28.8Q452.15936 29.190624 452.15936 29.721874Q452.15936 30.065624 452.3781 30.346874Q452.58124 30.628124 453.05 30.815624Q453.3156 30.909374 454.59686 31.253124Q456.47186 31.753124 457.20624 32.08125Q457.9406 32.39375 458.3625 33.003124Q458.78436 33.596874 458.78436 34.503124Q458.78436 35.378124 458.26874 36.159374Q457.7531 36.940624 456.78436 37.3625Q455.8156 37.784374 454.59686 37.784374Q452.58124 37.784374 451.51874 36.940624Q450.45624 36.096874 450.15936 34.45625ZM467.97186 34.20625L469.78436 34.440624Q469.3625 36.01875 468.1906 36.909374Q467.03436 37.784374 465.22186 37.784374Q462.95624 37.784374 461.6125 36.39375Q460.28436 34.9875 460.28436 32.45625Q460.28436 29.83125 461.6281 28.39375Q462.97186 26.940624 465.1281 26.940624Q467.20624 26.940624 468.51874 28.3625Q469.84686 29.76875 469.84686 32.346874Q469.84686 32.503124 469.83124 32.815624L462.09686 32.815624Q462.1906 34.51875 463.0656 35.425Q463.9406 36.33125 465.2375 36.33125Q466.20624 36.33125 466.8781 35.83125Q467.5656 35.315624 467.97186 34.20625ZM462.1906 31.3625L467.9875 31.3625Q467.8781 30.065624 467.33124 29.409374Q466.4875 28.39375 465.14374 28.39375Q463.9406 28.39375 463.1125 29.20625Q462.28436 30.003124 462.1906 31.3625ZM478.65936 37.55L478.65936 36.01875Q477.45624 37.784374 475.3781 37.784374Q474.45624 37.784374 473.65936 37.440624Q472.8625 37.08125 472.47186 36.55Q472.09686 36.01875 471.9406 35.2375Q471.83124 34.721874 471.83124 33.596874L471.83124 27.175L473.58124 27.175L473.58124 32.925Q473.58124 34.3 473.6906 34.784374Q473.8625 35.471874 474.39374 35.878124Q474.9406 36.26875 475.72186 36.26875Q476.51874 36.26875 477.20624 35.8625Q477.90936 35.45625 478.1906 34.76875Q478.4875 34.065624 478.4875 32.7375L478.4875 27.175L480.2375 27.175L480.2375 37.55L478.65936 37.55ZM482.8625 37.55L482.8625 27.175L484.4406 27.175L484.4406 28.628124Q484.925 27.878124 485.7375 27.409374Q486.55 26.940624 487.58124 26.940624Q488.7375 26.940624 489.47186 27.425Q490.20624 27.89375 490.51874 28.753124Q491.7531 26.940624 493.72186 26.940624Q495.26874 26.940624 496.09686 27.8Q496.925 28.659374 496.925 30.425L496.925 37.55L495.175 37.55L495.175 31.01875Q495.175 29.95625 495.0031 29.503124Q494.83124 29.034374 494.3781 28.753124Q493.9406 28.471874 493.33124 28.471874Q492.2375 28.471874 491.5031 29.20625Q490.78436 29.925 490.78436 31.51875L490.78436 37.55L489.03436 37.55L489.03436 30.815624Q489.03436 29.64375 488.59686 29.065624Q488.175 28.471874 487.1906 28.471874Q486.45624 28.471874 485.8156 28.8625Q485.1906 29.253124 484.90936 30.003124Q484.6281 30.753124 484.6281 32.175L484.6281 37.55L482.8625 37.55ZM505.78436 41.55L505.59686 39.89375Q506.175 40.05 506.59686 40.05Q507.1906 40.05 507.53436 39.846874Q507.89374 39.659374 508.1125 39.315624Q508.28436 39.05 508.65936 38.003124Q508.70624 37.846874 508.8156 37.565624L504.8781 27.175L506.76874 27.175L508.925 33.190624Q509.34686 34.33125 509.675 35.58125Q509.9875 34.378124 510.39374 33.221874L512.6125 27.175L514.3781 27.175L510.425 37.721874Q509.8 39.440624 509.4406 40.08125Q508.97186 40.95625 508.3625 41.346874Q507.76874 41.753124 506.925 41.753124Q506.40936 41.753124 505.78436 41.55ZM515.22186 32.3625Q515.22186 29.4875 516.8156 28.096874Q518.15936 26.940624 520.08124 26.940624Q522.22186 26.940624 523.5656 28.346874Q524.925 29.753124 524.925 32.221874Q524.925 34.221874 524.33124 35.378124Q523.7375 36.51875 522.58124 37.159374Q521.4406 37.784374 520.08124 37.784374Q517.89374 37.784374 516.55 36.39375Q515.22186 34.9875 515.22186 32.3625ZM517.01874 32.3625Q517.01874 34.3625 517.8781 35.346874Q518.7531 36.33125 520.08124 36.33125Q521.39374 36.33125 522.2531 35.346874Q523.1281 34.346874 523.1281 32.3Q523.1281 30.378124 522.2531 29.39375Q521.3781 28.39375 520.08124 28.39375Q518.7531 28.39375 517.8781 29.39375Q517.01874 30.378124 517.01874 32.3625ZM533.65936 37.55L533.65936 36.01875Q532.45624 37.784374 530.3781 37.784374Q529.45624 37.784374 528.65936 37.440624Q527.8625 37.08125 527.47186 36.55Q527.09686 36.01875 526.9406 35.2375Q526.83124 34.721874 526.83124 33.596874L526.83124 27.175L528.58124 27.175L528.58124 32.925Q528.58124 34.3 528.6906 34.784374Q528.8625 35.471874 529.39374 35.878124Q529.9406 36.26875 530.72186 36.26875Q531.51874 36.26875 532.20624 35.8625Q532.90936 35.45625 533.1906 34.76875Q533.4875 34.065624 533.4875 32.7375L533.4875 27.175L535.2375 27.175L535.2375 37.55L533.65936 37.55Z" fill-rule="nonzero"/><path fill="#757575" d="M21.784374 61.55L18.6125 51.175L20.425 51.175L22.08125 57.159374L22.690624 59.39375Q22.7375 59.221874 23.221874 57.253124L24.878124 51.175L26.690624 51.175L28.2375 57.190624L28.753124 59.175L29.346874 57.175L31.128124 51.175L32.83125 51.175L29.596874 61.55L27.76875 61.55L26.1125 55.33125L25.721874 53.565624L23.6125 61.55L21.784374 61.55ZM33.221874 56.3625Q33.221874 53.4875 34.815624 52.096874Q36.159374 50.940624 38.08125 50.940624Q40.221874 50.940624 41.565624 52.346874Q42.925 53.753124 42.925 56.221874Q42.925 58.221874 42.33125 59.378124Q41.7375 60.51875 40.58125 61.159374Q39.440624 61.784374 38.08125 61.784374Q35.89375 61.784374 34.55 60.39375Q33.221874 58.9875 33.221874 56.3625ZM35.01875 56.3625Q35.01875 58.3625 35.878124 59.346874Q36.753124 60.33125 38.08125 60.33125Q39.39375 60.33125 40.253124 59.346874Q41.128124 58.346874 41.128124 56.3Q41.128124 54.378124 40.253124 53.39375Q39.378124 52.39375 38.08125 52.39375Q36.753124 52.39375 35.878124 53.39375Q35.01875 54.378124 35.01875 56.3625ZM51.659374 61.55L51.659374 60.01875Q50.45625 61.784374 48.378124 61.784374Q47.45625 61.784374 46.659374 61.440624Q45.8625 61.08125 45.471874 60.55Q45.096874 60.01875 44.940624 59.2375Q44.83125 58.721874 44.83125 57.596874L44.83125 51.175L46.58125 51.175L46.58125 56.925Q46.58125 58.3 46.690624 58.784374Q46.8625 59.471874 47.39375 59.878124Q47.940624 60.26875 48.721874 60.26875Q49.51875 60.26875 50.20625 59.8625Q50.909374 59.45625 51.190624 58.76875Q51.4875 58.065624 51.4875 56.7375L51.4875 51.175L53.2375 51.175L53.2375 61.55L51.659374 61.55ZM55.83125 61.55L55.83125 47.2375L57.58125 47.2375L57.58125 61.55L55.83125 61.55ZM66.59688 61.55L66.59688 60.2375Q65.6125 61.784374 63.690624 61.784374Q62.45625 61.784374 61.409374 61.096874Q60.378124 60.409374 59.8 59.190624Q59.2375 57.971874 59.2375 56.378124Q59.2375 54.815624 59.753124 53.55Q60.26875 52.284374 61.3 51.6125Q62.346874 50.940624 63.6125 50.940624Q64.55 50.940624 65.28438 51.346874Q66.01875 51.7375 66.4875 52.3625L66.4875 47.2375L68.22188 47.2375L68.22188 61.55L66.59688 61.55ZM61.034374 56.378124Q61.034374 58.3625 61.878124 59.346874Q62.721874 60.33125 63.8625 60.33125Q65.01875 60.33125 65.81563 59.39375Q66.62813 58.45625 66.62813 56.51875Q66.62813 54.39375 65.8 53.39375Q64.9875 52.39375 63.784374 52.39375Q62.6125 52.39375 61.815624 53.3625Q61.034374 54.315624 61.034374 56.378124ZM76.8625 61.55L76.8625 51.175L78.45625 51.175L78.45625 52.659374Q79.59688 50.940624 81.75313 50.940624Q82.69063 50.940624 83.47188 51.284374Q84.26875 51.6125 84.65938 52.159374Q85.05 52.70625 85.20625 53.45625Q85.3 53.95625 85.3 55.175L85.3 61.55L83.53438 61.55L83.53438 55.2375Q83.53438 54.159374 83.33125 53.628124Q83.12813 53.096874 82.59688 52.784374Q82.08125 52.471874 81.37813 52.471874Q80.25313 52.471874 79.44063 53.190624Q78.62813 53.89375 78.62813 55.878124L78.62813 61.55L76.8625 61.55ZM94.97188 58.20625L96.78438 58.440624Q96.3625 60.01875 95.19063 60.909374Q94.03438 61.784374 92.22188 61.784374Q89.95625 61.784374 88.6125 60.39375Q87.28438 58.9875 87.28438 56.45625Q87.28438 53.83125 88.62813 52.39375Q89.97188 50.940624 92.12813 50.940624Q94.20625 50.940624 95.51875 52.3625Q96.84688 53.76875 96.84688 56.346874Q96.84688 56.503124 96.83125 56.815624L89.09688 56.815624Q89.19063 58.51875 90.06563 59.425Q90.94063 60.33125 92.2375 60.33125Q93.20625 60.33125 93.87813 59.83125Q94.56563 59.315624 94.97188 58.20625ZM89.19063 55.3625L94.9875 55.3625Q94.87813 54.065624 94.33125 53.409374Q93.4875 52.39375 92.14375 52.39375Q90.94063 52.39375 90.1125 53.20625Q89.28438 54.003124 89.19063 55.3625ZM101.75313 61.55L97.8 51.175L99.65938 51.175L101.89375 57.39375Q102.25313 58.39375 102.55 59.471874Q102.78438 58.659374 103.20625 57.503124L105.50313 51.175L107.31563 51.175L103.39375 61.55L101.75313 61.55ZM115.97188 58.20625L117.78438 58.440624Q117.3625 60.01875 116.19063 60.909374Q115.03438 61.784374 113.22188 61.784374Q110.95625 61.784374 109.6125 60.39375Q108.28438 58.9875 108.28438 56.45625Q108.28438 53.83125 109.62813 52.39375Q110.97188 50.940624 113.12813 50.940624Q115.20625 50.940624 116.51875 52.3625Q117.84688 53.76875 117.84688 56.346874Q117.84688 56.503124 117.83125 56.815624L110.09688 56.815624Q110.19063 58.51875 111.06563 59.425Q111.94063 60.33125 113.2375 60.33125Q114.20625 60.33125 114.87813 59.83125Q115.56563 59.315624 115.97188 58.20625ZM110.19063 55.3625L115.9875 55.3625Q115.87813 54.065624 115.33125 53.409374Q114.4875 52.39375 113.14375 52.39375Q111.94063 52.39375 111.1125 53.20625Q110.28438 54.003124 110.19063 55.3625ZM119.84688 61.55L119.84688 51.175L121.425 51.175L121.425 52.753124Q122.03438 51.64375 122.55 51.3Q123.06563 50.940624 123.675 50.940624Q124.56563 50.940624 125.4875 51.503124L124.87813 53.14375Q124.2375 52.753124 123.59688 52.753124Q123.01875 52.753124 122.55 53.1125Q122.09688 53.45625 121.89375 54.065624Q121.6125 55.003124 121.6125 56.1125L121.6125 61.55L119.84688 61.55ZM132.8625 61.55L132.8625 47.2375L134.62813 47.2375L134.62813 52.3625Q135.8625 50.940624 137.7375 50.940624Q138.87813 50.940624 139.72188 51.39375Q140.58125 51.846874 140.94063 52.659374Q141.31563 53.45625 141.31563 54.971874L141.31563 61.55L139.56563 61.55L139.56563 54.971874Q139.56563 53.659374 138.9875 53.065624Q138.40938 52.45625 137.37813 52.45625Q136.59688 52.45625 135.89375 52.8625Q135.20625 53.26875 134.90938 53.971874Q134.62813 54.659374 134.62813 55.878124L134.62813 61.55L132.8625 61.55ZM150.64375 60.26875Q149.65938 61.096874 148.75313 61.440624Q147.84688 61.784374 146.81563 61.784374Q145.1125 61.784374 144.19063 60.95625Q143.26875 60.1125 143.26875 58.815624Q143.26875 58.05 143.6125 57.425Q143.97188 56.8 144.53438 56.425Q145.09688 56.034374 145.8 55.83125Q146.31563 55.70625 147.3625 55.565624Q149.4875 55.315624 150.4875 54.971874Q150.50313 54.6125 150.50313 54.503124Q150.50313 53.440624 150.00313 52.9875Q149.33125 52.39375 148.00313 52.39375Q146.75313 52.39375 146.15938 52.83125Q145.58125 53.26875 145.3 54.378124L143.58125 54.14375Q143.81563 53.034374 144.34688 52.3625Q144.87813 51.675 145.89375 51.315624Q146.90938 50.940624 148.25313 50.940624Q149.58125 50.940624 150.40938 51.253124Q151.2375 51.565624 151.62813 52.05Q152.01875 52.51875 152.175 53.2375Q152.26875 53.690624 152.26875 54.8625L152.26875 57.20625Q152.26875 59.659374 152.37813 60.315624Q152.4875 60.95625 152.83125 61.55L150.9875 61.55Q150.72188 61.003124 150.64375 60.26875ZM150.4875 56.346874Q149.53438 56.7375 147.6125 57.003124Q146.53438 57.159374 146.08125 57.3625Q145.64375 57.55 145.39375 57.925Q145.14375 58.3 145.14375 58.76875Q145.14375 59.471874 145.675 59.940624Q146.20625 60.409374 147.2375 60.409374Q148.25313 60.409374 149.03438 59.971874Q149.83125 59.51875 150.20625 58.753124Q150.4875 58.14375 150.4875 56.9875L150.4875 56.346874ZM161.59688 61.55L161.59688 60.2375Q160.6125 61.784374 158.69063 61.784374Q157.45625 61.784374 156.40938 61.096874Q155.37813 60.409374 154.8 59.190624Q154.2375 57.971874 154.2375 56.378124Q154.2375 54.815624 154.75313 53.55Q155.26875 52.284374 156.3 51.6125Q157.34688 50.940624 158.6125 50.940624Q159.55 50.940624 160.28438 51.346874Q161.01875 51.7375 161.4875 52.3625L161.4875 47.2375L163.22188 47.2375L163.22188 61.55L161.59688 61.55ZM156.03438 56.378124Q156.03438 58.3625 156.87813 59.346874Q157.72188 60.33125 158.8625 60.33125Q160.01875 60.33125 160.81563 59.39375Q161.62813 58.45625 161.62813 56.51875Q161.62813 54.39375 160.8 53.39375Q159.9875 52.39375 158.78438 52.39375Q157.6125 52.39375 156.81563 53.3625Q156.03438 54.315624 156.03438 56.378124ZM174.75313 61.55L170.8 51.175L172.65938 51.175L174.89375 57.39375Q175.25313 58.39375 175.55 59.471874Q175.78438 58.659374 176.20625 57.503124L178.50313 51.175L180.31563 51.175L176.39375 61.55L174.75313 61.55ZM181.87813 49.253124L181.87813 47.2375L183.64375 47.2375L183.64375 49.253124L181.87813 49.253124ZM181.87813 61.55L181.87813 51.175L183.64375 51.175L183.64375 61.55L181.87813 61.55ZM185.15938 58.45625L186.90938 58.175Q187.05 59.221874 187.72188 59.784374Q188.39375 60.33125 189.59688 60.33125Q190.8 60.33125 191.37813 59.846874Q191.97188 59.346874 191.97188 58.690624Q191.97188 58.096874 191.45625 57.753124Q191.09688 57.51875 189.65938 57.159374Q187.72188 56.659374 186.97188 56.315624Q186.2375 55.95625 185.84688 55.33125Q185.45625 54.690624 185.45625 53.925Q185.45625 53.2375 185.76875 52.64375Q186.09688 52.05 186.64375 51.659374Q187.05 51.3625 187.75313 51.159374Q188.47188 50.940624 189.28438 50.940624Q190.50313 50.940624 191.425 51.3Q192.34688 51.64375 192.78438 52.253124Q193.22188 52.846874 193.39375 53.846874L191.675 54.08125Q191.55 53.284374 190.9875 52.846874Q190.425 52.39375 189.40938 52.39375Q188.19063 52.39375 187.675 52.8Q187.15938 53.190624 187.15938 53.721874Q187.15938 54.065624 187.37813 54.346874Q187.58125 54.628124 188.05 54.815624Q188.31563 54.909374 189.59688 55.253124Q191.47188 55.753124 192.20625 56.08125Q192.94063 56.39375 193.3625 57.003124Q193.78438 57.596874 193.78438 58.503124Q193.78438 59.378124 193.26875 60.159374Q192.75313 60.940624 191.78438 61.3625Q190.81563 61.784374 189.59688 61.784374Q187.58125 61.784374 186.51875 60.940624Q185.45625 60.096874 185.15938 58.45625ZM195.87813 49.253124L195.87813 47.2375L197.64375 47.2375L197.64375 49.253124L195.87813 49.253124ZM195.87813 61.55L195.87813 51.175L197.64375 51.175L197.64375 61.55L195.87813 61.55ZM203.70625 59.971874L203.95625 61.534374Q203.22188 61.690624 202.62813 61.690624Q201.675 61.690624 201.14375 61.39375Q200.62813 61.08125 200.40938 60.596874Q200.19063 60.096874 200.19063 58.51875L200.19063 52.55L198.90938 52.55L198.90938 51.175L200.19063 51.175L200.19063 48.6125L201.94063 47.55L201.94063 51.175L203.70625 51.175L203.70625 52.55L201.94063 52.55L201.94063 58.6125Q201.94063 59.3625 202.03438 59.58125Q202.12813 59.784374 202.33125 59.925Q202.55 60.05 202.94063 60.05Q203.22188 60.05 203.70625 59.971874ZM212.97188 58.20625L214.78438 58.440624Q214.3625 60.01875 213.19063 60.909374Q212.03438 61.784374 210.22188 61.784374Q207.95625 61.784374 206.6125 60.39375Q205.28438 58.9875 205.28438 56.45625Q205.28438 53.83125 206.62813 52.39375Q207.97188 50.940624 210.12813 50.940624Q212.20625 50.940624 213.51875 52.3625Q214.84688 53.76875 214.84688 56.346874Q214.84688 56.503124 214.83125 56.815624L207.09688 56.815624Q207.19063 58.51875 208.06563 59.425Q208.94063 60.33125 210.2375 60.33125Q211.20625 60.33125 211.87813 59.83125Q212.56563 59.315624 212.97188 58.20625ZM207.19063 55.3625L212.9875 55.3625Q212.87813 54.065624 212.33125 53.409374Q211.4875 52.39375 210.14375 52.39375Q208.94063 52.39375 208.1125 53.20625Q207.28438 54.003124 207.19063 55.3625ZM223.59688 61.55L223.59688 60.2375Q222.6125 61.784374 220.69063 61.784374Q219.45625 61.784374 218.40938 61.096874Q217.37813 60.409374 216.8 59.190624Q216.2375 57.971874 216.2375 56.378124Q216.2375 54.815624 216.75313 53.55Q217.26875 52.284374 218.3 51.6125Q219.34688 50.940624 220.6125 50.940624Q221.55 50.940624 222.28438 51.346874Q223.01875 51.7375 223.4875 52.3625L223.4875 47.2375L225.22188 47.2375L225.22188 61.55L223.59688 61.55ZM218.03438 56.378124Q218.03438 58.3625 218.87813 59.346874Q219.72188 60.33125 220.8625 60.33125Q222.01875 60.33125 222.81563 59.39375Q223.62813 58.45625 223.62813 56.51875Q223.62813 54.39375 222.8 53.39375Q221.9875 52.39375 220.78438 52.39375Q219.6125 52.39375 218.81563 53.3625Q218.03438 54.315624 218.03438 56.378124ZM235.78438 61.55L232.6125 51.175L234.425 51.175L236.08125 57.159374L236.69063 59.39375Q236.7375 59.221874 237.22188 57.253124L238.87813 51.175L240.69063 51.175L242.2375 57.190624L242.75313 59.175L243.34688 57.175L245.12813 51.175L246.83125 51.175L243.59688 61.55L241.76875 61.55L240.1125 55.33125L239.72188 53.565624L237.6125 61.55L235.78438 61.55ZM247.87813 49.253124L247.87813 47.2375L249.64375 47.2375L249.64375 49.253124L247.87813 49.253124ZM247.87813 61.55L247.87813 51.175L249.64375 51.175L249.64375 61.55L247.87813 61.55ZM255.70625 59.971874L255.95625 61.534374Q255.22188 61.690624 254.62813 61.690624Q253.675 61.690624 253.14375 61.39375Q252.62813 61.08125 252.40938 60.596874Q252.19063 60.096874 252.19063 58.51875L252.19063 52.55L250.90938 52.55L250.90938 51.175L252.19063 51.175L252.19063 48.6125L253.94063 47.55L253.94063 51.175L255.70625 51.175L255.70625 52.55L253.94063 52.55L253.94063 58.6125Q253.94063 59.3625 254.03438 59.58125Q254.12813 59.784374 254.33125 59.925Q254.55 60.05 254.94063 60.05Q255.22188 60.05 255.70625 59.971874ZM257.8625 61.55L257.8625 47.2375L259.6281 47.2375L259.6281 52.3625Q260.8625 50.940624 262.7375 50.940624Q263.8781 50.940624 264.72186 51.39375Q265.58124 51.846874 265.9406 52.659374Q266.3156 53.45625 266.3156 54.971874L266.3156 61.55L264.5656 61.55L264.5656 54.971874Q264.5656 53.659374 263.9875 53.065624Q263.40936 52.45625 262.3781 52.45625Q261.59686 52.45625 260.89374 52.8625Q260.20624 53.26875 259.90936 53.971874Q259.6281 54.659374 259.6281 55.878124L259.6281 61.55L257.8625 61.55ZM268.22186 56.3625Q268.22186 53.4875 269.8156 52.096874Q271.15936 50.940624 273.08124 50.940624Q275.22186 50.940624 276.5656 52.346874Q277.925 53.753124 277.925 56.221874Q277.925 58.221874 277.33124 59.378124Q276.7375 60.51875 275.58124 61.159374Q274.4406 61.784374 273.08124 61.784374Q270.89374 61.784374 269.55 60.39375Q268.22186 58.9875 268.22186 56.3625ZM270.01874 56.3625Q270.01874 58.3625 270.8781 59.346874Q271.7531 60.33125 273.08124 60.33125Q274.39374 60.33125 275.2531 59.346874Q276.1281 58.346874 276.1281 56.3Q276.1281 54.378124 275.2531 53.39375Q274.3781 52.39375 273.08124 52.39375Q271.7531 52.39375 270.8781 53.39375Q270.01874 54.378124 270.01874 56.3625ZM286.65936 61.55L286.65936 60.01875Q285.45624 61.784374 283.3781 61.784374Q282.45624 61.784374 281.65936 61.440624Q280.8625 61.08125 280.47186 60.55Q280.09686 60.01875 279.9406 59.2375Q279.83124 58.721874 279.83124 57.596874L279.83124 51.175L281.58124 51.175L281.58124 56.925Q281.58124 58.3 281.6906 58.784374Q281.8625 59.471874 282.39374 59.878124Q282.9406 60.26875 283.72186 60.26875Q284.51874 60.26875 285.20624 59.8625Q285.90936 59.45625 286.1906 58.76875Q286.4875 58.065624 286.4875 56.7375L286.4875 51.175L288.2375 51.175L288.2375 61.55L286.65936 61.55ZM294.70624 59.971874L294.95624 61.534374Q294.22186 61.690624 293.6281 61.690624Q292.675 61.690624 292.14374 61.39375Q291.6281 61.08125 291.40936 60.596874Q291.1906 60.096874 291.1906 58.51875L291.1906 52.55L289.90936 52.55L289.90936 51.175L291.1906 51.175L291.1906 48.6125L292.9406 47.55L292.9406 51.175L294.70624 51.175L294.70624 52.55L292.9406 52.55L292.9406 58.6125Q292.9406 59.3625 293.03436 59.58125Q293.1281 59.784374 293.33124 59.925Q293.55 60.05 293.9406 60.05Q294.22186 60.05 294.70624 59.971874ZM300.15936 58.01875Q300.14374 57.675 300.14374 57.503124Q300.14374 56.45625 300.4406 55.70625Q300.65936 55.14375 301.14374 54.565624Q301.4875 54.14375 302.39374 53.346874Q303.3156 52.534374 303.58124 52.065624Q303.8625 51.58125 303.8625 51.01875Q303.8625 49.9875 303.05 49.221874Q302.2531 48.440624 301.09686 48.440624Q299.97186 48.440624 299.22186 49.14375Q298.47186 49.846874 298.2375 51.33125L296.425 51.1125Q296.675 49.1125 297.8781 48.05Q299.08124 46.9875 301.0656 46.9875Q303.175 46.9875 304.425 48.128124Q305.675 49.26875 305.675 50.89375Q305.675 51.83125 305.22186 52.628124Q304.78436 53.409374 303.5031 54.55Q302.64374 55.315624 302.3781 55.675Q302.1281 56.034374 301.9875 56.503124Q301.8625 56.971874 301.84686 58.01875L300.15936 58.01875ZM300.05 61.55L300.05 59.55L302.05 59.55L302.05 61.55L300.05 61.55Z" fill-rule="nonzero"/></svg>