<svg version="1.1" viewBox="0.0 0.0 600.0 371.0" fill="none" stroke="none" stroke-linecap="square" stroke-miterlimit="10" width="600" height="371" xmlns:xlink="http://www.w3.org/1999/xlink" xmlns="http://www.w3.org/2000/svg"><path fill="#ffffff" d="M0 0L600.0 0L600.0 371.0L0 371.0L0 0Z" fill-rule="nonzero"/><path fill="#ea4335" d="M248.67598 116.68591C264.98196 112.06483 282.4084 109.68916 300.0 109.68916L300.0 205.42583Z" fill-rule="nonzero"/><path fill="#2e5dab" d="M436.76666 225.94083C436.76666 278.81473 375.53415 321.6775 300.0 321.6775C224.46585 321.6775 163.23334 278.81473 163.23334 225.94083L163.23334 205.42583C163.23334 258.29974 224.46585 301.1625 300.0 301.1625C375.53415 301.1625 436.76666 258.29974 436.76666 205.42583Z" fill-rule="nonzero"/><path fill="#4285f4" d="M300.0 109.68916C370.44727 109.68916 429.37012 147.1477 436.13467 196.23291C442.89923 245.31812 395.29227 289.97043 326.14413 299.39703C256.99597 308.82367 188.93037 279.94043 168.8862 232.66556C148.84201 185.3907 183.37724 135.19148 248.67598 116.68591L300.0 205.42583Z" fill-rule="nonzero"/><path fill="#1a1a1a" d="M19.471874 111.65319L19.471874 103.05944L20.628124 103.05944L25.14375 109.80944L25.14375 103.05944L26.2375 103.05944L26.2375 111.65319L25.065624 111.65319L20.55 104.90319L20.55 111.65319L19.471874 111.65319ZM27.95625 108.543816Q27.95625 106.80944 28.909374 105.981316Q29.70625 105.293816 30.8625 105.293816Q32.14375 105.293816 32.95625 106.137566Q33.784374 106.96569 33.784374 108.450066Q33.784374 109.65319 33.425 110.34069Q33.065624 111.02819 32.3625 111.418816Q31.675 111.793816 30.8625 111.793816Q29.565624 111.793816 28.753124 110.96569Q27.95625 110.12194 27.95625 108.543816ZM29.034374 108.543816Q29.034374 109.731316 29.55 110.325066Q30.08125 110.918816 30.8625 110.918816Q31.659374 110.918816 32.175 110.325066Q32.690624 109.731316 32.690624 108.512566Q32.690624 107.356316 32.159374 106.762566Q31.64375 106.168816 30.8625 106.168816Q30.08125 106.168816 29.55 106.762566Q29.034374 107.34069 29.034374 108.543816Z" fill-rule="nonzero"/><path fill="#9e9e9e" d="M24.51875 122.16882L23.471874 122.24695Q23.33125 121.62195 23.08125 121.3407Q22.64375 120.88757 22.01875 120.88757Q21.51875 120.88757 21.128124 121.16882Q20.64375 121.54382 20.346874 122.24695Q20.065624 122.93445 20.05 124.2157Q20.425 123.63757 20.971874 123.35632Q21.534374 123.07507 22.14375 123.07507Q23.190624 123.07507 23.925 123.85632Q24.675 124.63757 24.675 125.85632Q24.675 126.66882 24.315624 127.37195Q23.971874 128.05945 23.3625 128.43445Q22.753124 128.79382 21.9875 128.79382Q20.659374 128.79382 19.83125 127.82507Q19.003124 126.85632 19.003124 124.63757Q19.003124 122.13757 19.925 121.01257Q20.721874 120.0282 22.08125 120.0282Q23.096874 120.0282 23.7375 120.60632Q24.39375 121.16882 24.51875 122.16882ZM20.221874 125.87195Q20.221874 126.41882 20.440624 126.91882Q20.675 127.4032 21.08125 127.66882Q21.503124 127.93445 21.971874 127.93445Q22.628124 127.93445 23.1125 127.4032Q23.596874 126.85632 23.596874 125.93445Q23.596874 125.04382 23.1125 124.5282Q22.64375 124.01257 21.925 124.01257Q21.20625 124.01257 20.70625 124.5282Q20.221874 125.04382 20.221874 125.87195ZM26.6125 128.6532L26.6125 127.45007L27.815624 127.45007L27.815624 128.6532Q27.815624 129.30945 27.58125 129.7157Q27.346874 130.13757 26.846874 130.35632L26.55 129.9032Q26.878124 129.76257 27.034374 129.4657Q27.190624 129.18445 27.221874 128.6532L26.6125 128.6532ZM33.01875 128.6532L31.971874 128.6532L31.971874 121.93445Q31.58125 122.29382 30.95625 122.66882Q30.346874 123.0282 29.8625 123.20007L29.8625 122.18445Q30.7375 121.76257 31.39375 121.18445Q32.065624 120.5907 32.346874 120.0282L33.01875 120.0282L33.01875 128.6532ZM36.253124 122.12195Q36.253124 121.20007 36.70625 120.55945Q37.175 119.91882 38.05 119.91882Q38.8625 119.91882 39.39375 120.49695Q39.925 121.07507 39.925 122.18445Q39.925 123.2782 39.378124 123.87195Q38.846874 124.45007 38.065624 124.45007Q37.284374 124.45007 36.76875 123.87195Q36.253124 123.29382 36.253124 122.12195ZM38.08125 120.63757Q37.690624 120.63757 37.425 120.98132Q37.175 121.32507 37.175 122.23132Q37.175 123.05945 37.425 123.4032Q37.690624 123.73132 38.08125 123.73132Q38.4875 123.73132 38.7375 123.38757Q39.003124 123.04382 39.003124 122.1532Q39.003124 121.30945 38.7375 120.98132Q38.471874 120.63757 38.08125 120.63757ZM38.08125 128.9657L42.784374 119.91882L43.64375 119.91882L38.95625 128.9657L38.08125 128.9657ZM41.8 126.63757Q41.8 125.7157 42.253124 125.07507Q42.721874 124.43445 43.6125 124.43445Q44.425 124.43445 44.95625 125.01257Q45.4875 125.57507 45.4875 126.70007Q45.4875 127.79382 44.940624 128.38757Q44.409374 128.9657 43.6125 128.9657Q42.846874 128.9657 42.315624 128.38757Q41.8 127.80945 41.8 126.63757ZM43.64375 125.1532Q43.2375 125.1532 42.971874 125.49695Q42.721874 125.8407 42.721874 126.74695Q42.721874 127.55945 42.9875 127.9032Q43.253124 128.24695 43.64375 128.24695Q44.034374 128.24695 44.3 127.9032Q44.565624 127.55945 44.565624 126.6532Q44.565624 125.82507 44.3 125.49695Q44.034374 125.1532 43.64375 125.1532Z" fill-rule="nonzero"/><path stroke="#757575" stroke-width="1.0" stroke-linecap="butt" d="M18.55 116.15319L157.23334 116.15319L275.1631 116.15319" fill-rule="nonzero"/><path fill="#9e9e9e" d="M277.1631 116.15319C277.1631 115.04862 276.26764 114.15319 275.1631 114.15319C274.0585 114.15319 273.1631 115.04862 273.1631 116.15319C273.1631 117.25776 274.0585 118.15319 275.1631 118.15319C276.26764 118.15319 277.1631 117.25776 277.1631 116.15319" fill-rule="nonzero"/><path fill="#1a1a1a" d="M570.9969 287.43286L572.0594 287.3391Q572.1375 287.99536 572.41876 288.4016Q572.7 288.80786 573.27814 289.0735Q573.8719 289.3235 574.60626 289.3235Q575.2469 289.3235 575.7469 289.136Q576.2469 288.93286 576.48126 288.60474Q576.73126 288.261 576.73126 287.87036Q576.73126 287.4641 576.4969 287.16724Q576.2625 286.85474 575.73126 286.6516Q575.3719 286.511 574.1844 286.22974Q573.0125 285.9485 572.54376 285.6985Q571.91876 285.37036 571.6219 284.9016Q571.325 284.41724 571.325 283.8235Q571.325 283.18286 571.6844 282.62036Q572.0594 282.04224 572.7625 281.761Q573.48126 281.4641 574.34064 281.4641Q575.29376 281.4641 576.02814 281.7766Q576.7625 282.0735 577.15314 282.68286Q577.54376 283.2766 577.575 284.0266L576.48126 284.10474Q576.3875 283.29224 575.8719 282.886Q575.3719 282.4641 574.3875 282.4641Q573.35626 282.4641 572.8875 282.8391Q572.41876 283.2141 572.41876 283.74536Q572.41876 284.2141 572.7469 284.511Q573.075 284.80786 574.45 285.12036Q575.84064 285.43286 576.35626 285.66724Q577.10626 286.0266 577.46564 286.55786Q577.825 287.0735 577.825 287.7766Q577.825 288.4641 577.4344 289.0735Q577.04376 289.66724 576.3094 290.011Q575.575 290.3391 574.65314 290.3391Q573.48126 290.3391 572.6844 290.011Q571.90314 289.66724 571.45 288.97974Q571.0125 288.29224 570.9969 287.43286ZM579.60626 290.1985L579.60626 283.97974L580.66876 283.97974L580.66876 290.1985L579.60626 290.1985ZM581.16876 283.1985L580.325 283.1985L578.96564 281.55786L580.3875 281.55786L581.16876 283.1985Z" fill-rule="nonzero"/><path fill="#9e9e9e" d="M547.10626 305.2141L548.1219 305.12036Q548.2469 305.8391 548.60626 306.16724Q548.98126 306.47974 549.54376 306.47974Q550.02814 306.47974 550.3875 306.261Q550.7625 306.0266 550.9969 305.66724Q551.23126 305.29224 551.3875 304.66724Q551.54376 304.0266 551.54376 303.37036Q551.54376 303.29224 551.54376 303.1516Q551.23126 303.6516 550.6844 303.97974Q550.1375 304.29224 549.4969 304.29224Q548.41876 304.29224 547.6844 303.5266Q546.95 302.74536 546.95 301.47974Q546.95 300.16724 547.71564 299.37036Q548.4969 298.5735 549.65314 298.5735Q550.48126 298.5735 551.16876 299.0266Q551.8719 299.47974 552.23126 300.3235Q552.59064 301.1516 552.59064 302.72974Q552.59064 304.37036 552.23126 305.35474Q551.8875 306.3235 551.16876 306.8391Q550.46564 307.3391 549.52814 307.3391Q548.5125 307.3391 547.8719 306.79224Q547.23126 306.22974 547.10626 305.2141ZM551.41876 301.41724Q551.41876 300.511 550.9344 299.97974Q550.46564 299.4485 549.77814 299.4485Q549.075 299.4485 548.54376 300.0266Q548.02814 300.5891 548.02814 301.511Q548.02814 302.3235 548.52814 302.8391Q549.02814 303.35474 549.7469 303.35474Q550.48126 303.35474 550.95 302.8391Q551.41876 302.3235 551.41876 301.41724ZM553.95 304.93286L555.0125 304.79224Q555.1844 305.68286 555.6219 306.0891Q556.0594 306.47974 556.6844 306.47974Q557.4344 306.47974 557.95 305.9641Q558.46564 305.4485 558.46564 304.68286Q558.46564 303.9641 557.98126 303.49536Q557.5125 303.011 556.77814 303.011Q556.48126 303.011 556.02814 303.136L556.15314 302.1985Q556.2625 302.2141 556.325 302.2141Q556.9969 302.2141 557.52814 301.87036Q558.075 301.511 558.075 300.7766Q558.075 300.1985 557.6844 299.8235Q557.29376 299.43286 556.66876 299.43286Q556.0594 299.43286 555.6375 299.8235Q555.23126 300.2141 555.1219 300.97974L554.0594 300.79224Q554.2469 299.74536 554.9344 299.16724Q555.6219 298.5735 556.6375 298.5735Q557.34064 298.5735 557.9344 298.886Q558.52814 299.18286 558.84064 299.6985Q559.15314 300.2141 559.15314 300.80786Q559.15314 301.35474 558.85626 301.8235Q558.5594 302.2766 557.98126 302.54224Q558.73126 302.7141 559.15314 303.2766Q559.575 303.8235 559.575 304.66724Q559.575 305.79224 558.7469 306.5735Q557.9344 307.35474 556.6844 307.35474Q555.5594 307.35474 554.8094 306.68286Q554.0594 305.99536 553.95 304.93286ZM561.5125 307.1985L561.5125 305.99536L562.71564 305.99536L562.71564 307.1985Q562.71564 307.85474 562.48126 308.261Q562.2469 308.68286 561.7469 308.9016L561.45 308.4485Q561.77814 308.30786 561.9344 308.011Q562.09064 307.72974 562.1219 307.1985L561.5125 307.1985ZM564.10626 305.2141L565.1219 305.12036Q565.2469 305.8391 565.60626 306.16724Q565.98126 306.47974 566.54376 306.47974Q567.02814 306.47974 567.3875 306.261Q567.7625 306.0266 567.9969 305.66724Q568.23126 305.29224 568.3875 304.66724Q568.54376 304.0266 568.54376 303.37036Q568.54376 303.29224 568.54376 303.1516Q568.23126 303.6516 567.6844 303.97974Q567.1375 304.29224 566.4969 304.29224Q565.41876 304.29224 564.6844 303.5266Q563.95 302.74536 563.95 301.47974Q563.95 300.16724 564.71564 299.37036Q565.4969 298.5735 566.65314 298.5735Q567.48126 298.5735 568.16876 299.0266Q568.8719 299.47974 569.23126 300.3235Q569.59064 301.1516 569.59064 302.72974Q569.59064 304.37036 569.23126 305.35474Q568.8875 306.3235 568.16876 306.8391Q567.46564 307.3391 566.52814 307.3391Q565.5125 307.3391 564.8719 306.79224Q564.23126 306.22974 564.10626 305.2141ZM568.41876 301.41724Q568.41876 300.511 567.9344 299.97974Q567.46564 299.4485 566.77814 299.4485Q566.075 299.4485 565.54376 300.0266Q565.02814 300.5891 565.02814 301.511Q565.02814 302.3235 565.52814 302.8391Q566.02814 303.35474 566.7469 303.35474Q567.48126 303.35474 567.95 302.8391Q568.41876 302.3235 568.41876 301.41724ZM571.15314 300.66724Q571.15314 299.74536 571.60626 299.10474Q572.075 298.4641 572.95 298.4641Q573.7625 298.4641 574.29376 299.04224Q574.825 299.62036 574.825 300.72974Q574.825 301.8235 574.27814 302.41724Q573.7469 302.99536 572.96564 302.99536Q572.1844 302.99536 571.66876 302.41724Q571.15314 301.8391 571.15314 300.66724ZM572.98126 299.18286Q572.59064 299.18286 572.325 299.5266Q572.075 299.87036 572.075 300.7766Q572.075 301.60474 572.325 301.9485Q572.59064 302.2766 572.98126 302.2766Q573.3875 302.2766 573.6375 301.93286Q573.90314 301.5891 573.90314 300.6985Q573.90314 299.85474 573.6375 299.5266Q573.3719 299.18286 572.98126 299.18286ZM572.98126 307.511L577.6844 298.4641L578.54376 298.4641L573.85626 307.511L572.98126 307.511ZM576.7 305.18286Q576.7 304.261 577.15314 303.62036Q577.6219 302.97974 578.5125 302.97974Q579.325 302.97974 579.85626 303.55786Q580.3875 304.12036 580.3875 305.24536Q580.3875 306.3391 579.84064 306.93286Q579.3094 307.511 578.5125 307.511Q577.7469 307.511 577.21564 306.93286Q576.7 306.35474 576.7 305.18286ZM578.54376 303.6985Q578.1375 303.6985 577.8719 304.04224Q577.6219 304.386 577.6219 305.29224Q577.6219 306.10474 577.8875 306.4485Q578.15314 306.79224 578.54376 306.79224Q578.9344 306.79224 579.2 306.4485Q579.46564 306.10474 579.46564 305.1985Q579.46564 304.37036 579.2 304.04224Q578.9344 303.6985 578.54376 303.6985Z" fill-rule="nonzero"/><path stroke="#757575" stroke-width="1.0" stroke-linecap="butt" d="M581.45 294.6985L442.76666 294.6985L324.8369 294.6985" fill-rule="nonzero"/><path fill="#9e9e9e" d="M326.8369 294.6985C326.8369 293.5939 325.9415 292.6985 324.8369 292.6985C323.73236 292.6985 322.8369 293.5939 322.8369 294.6985C322.8369 295.80304 323.73236 296.6985 324.8369 296.6985C325.9415 296.6985 326.8369 295.80304 326.8369 294.6985" fill-rule="nonzero"/><path fill="#757575" d="M22.596874 37.55L18.8 23.2375L20.7375 23.2375L22.909374 32.6125Q23.26875 34.096874 23.51875 35.55Q24.065624 33.253124 24.159374 32.89375L26.89375 23.2375L29.175 23.2375L31.221874 30.471874Q32.003124 33.175 32.346874 35.55Q32.6125 34.190624 33.05 32.425L35.3 23.2375L37.20625 23.2375L33.284374 37.55L31.45625 37.55L28.440624 26.64375Q28.05 25.26875 27.9875 24.95625Q27.753124 25.940624 27.565624 26.64375L24.534374 37.55L22.596874 37.55ZM38.221874 32.3625Q38.221874 29.4875 39.815624 28.096874Q41.159374 26.940624 43.08125 26.940624Q45.221874 26.940624 46.565624 28.346874Q47.925 29.753124 47.925 32.221874Q47.925 34.221874 47.33125 35.378124Q46.7375 36.51875 45.58125 37.159374Q44.440624 37.784374 43.08125 37.784374Q40.89375 37.784374 39.55 36.39375Q38.221874 34.9875 38.221874 32.3625ZM40.01875 32.3625Q40.01875 34.3625 40.878124 35.346874Q41.753124 36.33125 43.08125 36.33125Q44.39375 36.33125 45.253124 35.346874Q46.128124 34.346874 46.128124 32.3Q46.128124 30.378124 45.253124 29.39375Q44.378124 28.39375 43.08125 28.39375Q41.753124 28.39375 40.878124 29.39375Q40.01875 30.378124 40.01875 32.3625ZM56.659374 37.55L56.659374 36.01875Q55.45625 37.784374 53.378124 37.784374Q52.45625 37.784374 51.659374 37.440624Q50.8625 37.08125 50.471874 36.55Q50.096874 36.01875 49.940624 35.2375Q49.83125 34.721874 49.83125 33.596874L49.83125 27.175L51.58125 27.175L51.58125 32.925Q51.58125 34.3 51.690624 34.784374Q51.8625 35.471874 52.39375 35.878124Q52.940624 36.26875 53.721874 36.26875Q54.51875 36.26875 55.20625 35.8625Q55.909374 35.45625 56.190624 34.76875Q56.4875 34.065624 56.4875 32.7375L56.4875 27.175L58.2375 27.175L58.2375 37.55L56.659374 37.55ZM60.83125 37.55L60.83125 23.2375L62.58125 23.2375L62.58125 37.55L60.83125 37.55ZM71.59688 37.55L71.59688 36.2375Q70.6125 37.784374 68.69063 37.784374Q67.45625 37.784374 66.40938 37.096874Q65.37813 36.409374 64.8 35.190624Q64.2375 33.971874 64.2375 32.378124Q64.2375 30.815624 64.75313 29.55Q65.26875 28.284374 66.3 27.6125Q67.34688 26.940624 68.6125 26.940624Q69.55 26.940624 70.28438 27.346874Q71.01875 27.7375 71.4875 28.3625L71.4875 23.2375L73.22188 23.2375L73.22188 37.55L71.59688 37.55ZM66.03438 32.378124Q66.03438 34.3625 66.87813 35.346874Q67.72188 36.33125 68.8625 36.33125Q70.01875 36.33125 70.81563 35.39375Q71.62813 34.45625 71.62813 32.51875Q71.62813 30.39375 70.8 29.39375Q69.9875 28.39375 68.78438 28.39375Q67.6125 28.39375 66.81563 29.3625Q66.03438 30.315624 66.03438 32.378124ZM81.78438 41.55L81.59688 39.89375Q82.175 40.05 82.59688 40.05Q83.19063 40.05 83.53438 39.846874Q83.89375 39.659374 84.1125 39.315624Q84.28438 39.05 84.65938 38.003124Q84.70625 37.846874 84.81563 37.565624L80.87813 27.175L82.76875 27.175L84.925 33.190624Q85.34688 34.33125 85.675 35.58125Q85.9875 34.378124 86.39375 33.221874L88.6125 27.175L90.37813 27.175L86.425 37.721874Q85.8 39.440624 85.44063 40.08125Q84.97188 40.95625 84.3625 41.346874Q83.76875 41.753124 82.925 41.753124Q82.40938 41.753124 81.78438 41.55ZM91.22188 32.3625Q91.22188 29.4875 92.81563 28.096874Q94.15938 26.940624 96.08125 26.940624Q98.22188 26.940624 99.56563 28.346874Q100.925 29.753124 100.925 32.221874Q100.925 34.221874 100.33125 35.378124Q99.7375 36.51875 98.58125 37.159374Q97.44063 37.784374 96.08125 37.784374Q93.89375 37.784374 92.55 36.39375Q91.22188 34.9875 91.22188 32.3625ZM93.01875 32.3625Q93.01875 34.3625 93.87813 35.346874Q94.75313 36.33125 96.08125 36.33125Q97.39375 36.33125 98.25313 35.346874Q99.12813 34.346874 99.12813 32.3Q99.12813 30.378124 98.25313 29.39375Q97.37813 28.39375 96.08125 28.39375Q94.75313 28.39375 93.87813 29.39375Q93.01875 30.378124 93.01875 32.3625ZM109.65938 37.55L109.65938 36.01875Q108.45625 37.784374 106.37813 37.784374Q105.45625 37.784374 104.65938 37.440624Q103.8625 37.08125 103.47188 36.55Q103.09688 36.01875 102.94063 35.2375Q102.83125 34.721874 102.83125 33.596874L102.83125 27.175L104.58125 27.175L104.58125 32.925Q104.58125 34.3 104.69063 34.784374Q104.8625 35.471874 105.39375 35.878124Q105.94063 36.26875 106.72188 36.26875Q107.51875 36.26875 108.20625 35.8625Q108.90938 35.45625 109.19063 34.76875Q109.4875 34.065624 109.4875 32.7375L109.4875 27.175L111.2375 27.175L111.2375 37.55L109.65938 37.55ZM119.83125 37.55L119.83125 23.2375L121.58125 23.2375L121.58125 37.55L119.83125 37.55ZM123.87813 25.253124L123.87813 23.2375L125.64375 23.2375L125.64375 25.253124L123.87813 25.253124ZM123.87813 37.55L123.87813 27.175L125.64375 27.175L125.64375 37.55L123.87813 37.55ZM127.87813 37.55L127.87813 23.2375L129.64375 23.2375L129.64375 31.39375L133.8 27.175L136.06563 27.175L132.1125 31.01875L136.47188 37.55L134.3 37.55L130.87813 32.253124L129.64375 33.440624L129.64375 37.55L127.87813 37.55ZM144.97188 34.20625L146.78438 34.440624Q146.3625 36.01875 145.19063 36.909374Q144.03438 37.784374 142.22188 37.784374Q139.95625 37.784374 138.6125 36.39375Q137.28438 34.9875 137.28438 32.45625Q137.28438 29.83125 138.62813 28.39375Q139.97188 26.940624 142.12813 26.940624Q144.20625 26.940624 145.51875 28.3625Q146.84688 29.76875 146.84688 32.346874Q146.84688 32.503124 146.83125 32.815624L139.09688 32.815624Q139.19063 34.51875 140.06563 35.425Q140.94063 36.33125 142.2375 36.33125Q143.20625 36.33125 143.87813 35.83125Q144.56563 35.315624 144.97188 34.20625ZM139.19063 31.3625L144.9875 31.3625Q144.87813 30.065624 144.33125 29.409374Q143.4875 28.39375 142.14375 28.39375Q140.94063 28.39375 140.1125 29.20625Q139.28438 30.003124 139.19063 31.3625ZM158.70625 35.971874L158.95625 37.534374Q158.22188 37.690624 157.62813 37.690624Q156.675 37.690624 156.14375 37.39375Q155.62813 37.08125 155.40938 36.596874Q155.19063 36.096874 155.19063 34.51875L155.19063 28.55L153.90938 28.55L153.90938 27.175L155.19063 27.175L155.19063 24.6125L156.94063 23.55L156.94063 27.175L158.70625 27.175L158.70625 28.55L156.94063 28.55L156.94063 34.6125Q156.94063 35.3625 157.03438 35.58125Q157.12813 35.784374 157.33125 35.925Q157.55 36.05 157.94063 36.05Q158.22188 36.05 158.70625 35.971874ZM160.22188 32.3625Q160.22188 29.4875 161.81563 28.096874Q163.15938 26.940624 165.08125 26.940624Q167.22188 26.940624 168.56563 28.346874Q169.925 29.753124 169.925 32.221874Q169.925 34.221874 169.33125 35.378124Q168.7375 36.51875 167.58125 37.159374Q166.44063 37.784374 165.08125 37.784374Q162.89375 37.784374 161.55 36.39375Q160.22188 34.9875 160.22188 32.3625ZM162.01875 32.3625Q162.01875 34.3625 162.87813 35.346874Q163.75313 36.33125 165.08125 36.33125Q166.39375 36.33125 167.25313 35.346874Q168.12813 34.346874 168.12813 32.3Q168.12813 30.378124 167.25313 29.39375Q166.37813 28.39375 165.08125 28.39375Q163.75313 28.39375 162.87813 29.39375Q162.01875 30.378124 162.01875 32.3625ZM177.8625 37.55L177.8625 23.2375L179.62813 23.2375L179.62813 28.3625Q180.8625 26.940624 182.7375 26.940624Q183.87813 26.940624 184.72188 27.39375Q185.58125 27.846874 185.94063 28.659374Q186.31563 29.45625 186.31563 30.971874L186.31563 37.55L184.56563 37.55L184.56563 30.971874Q184.56563 29.659374 183.9875 29.065624Q183.40938 28.45625 182.37813 28.45625Q181.59688 28.45625 180.89375 28.8625Q180.20625 29.26875 179.90938 29.971874Q179.62813 30.659374 179.62813 31.878124L179.62813 37.55L177.8625 37.55ZM195.64375 36.26875Q194.65938 37.096874 193.75313 37.440624Q192.84688 37.784374 191.81563 37.784374Q190.1125 37.784374 189.19063 36.95625Q188.26875 36.1125 188.26875 34.815624Q188.26875 34.05 188.6125 33.425Q188.97188 32.8 189.53438 32.425Q190.09688 32.034374 190.8 31.83125Q191.31563 31.70625 192.3625 31.565624Q194.4875 31.315624 195.4875 30.971874Q195.50313 30.6125 195.50313 30.503124Q195.50313 29.440624 195.00313 28.9875Q194.33125 28.39375 193.00313 28.39375Q191.75313 28.39375 191.15938 28.83125Q190.58125 29.26875 190.3 30.378124L188.58125 30.14375Q188.81563 29.034374 189.34688 28.3625Q189.87813 27.675 190.89375 27.315624Q191.90938 26.940624 193.25313 26.940624Q194.58125 26.940624 195.40938 27.253124Q196.2375 27.565624 196.62813 28.05Q197.01875 28.51875 197.175 29.2375Q197.26875 29.690624 197.26875 30.8625L197.26875 33.20625Q197.26875 35.659374 197.37813 36.315624Q197.4875 36.95625 197.83125 37.55L195.9875 37.55Q195.72188 37.003124 195.64375 36.26875ZM195.4875 32.346874Q194.53438 32.7375 192.6125 33.003124Q191.53438 33.159374 191.08125 33.3625Q190.64375 33.55 190.39375 33.925Q190.14375 34.3 190.14375 34.76875Q190.14375 35.471874 190.675 35.940624Q191.20625 36.409374 192.2375 36.409374Q193.25313 36.409374 194.03438 35.971874Q194.83125 35.51875 195.20625 34.753124Q195.4875 34.14375 195.4875 32.9875L195.4875 32.346874ZM202.75313 37.55L198.8 27.175L200.65938 27.175L202.89375 33.39375Q203.25313 34.39375 203.55 35.471874Q203.78438 34.659374 204.20625 33.503124L206.50313 27.175L208.31563 27.175L204.39375 37.55L202.75313 37.55ZM216.97188 34.20625L218.78438 34.440624Q218.3625 36.01875 217.19063 36.909374Q216.03438 37.784374 214.22188 37.784374Q211.95625 37.784374 210.6125 36.39375Q209.28438 34.9875 209.28438 32.45625Q209.28438 29.83125 210.62813 28.39375Q211.97188 26.940624 214.12813 26.940624Q216.20625 26.940624 217.51875 28.3625Q218.84688 29.76875 218.84688 32.346874Q218.84688 32.503124 218.83125 32.815624L211.09688 32.815624Q211.19063 34.51875 212.06563 35.425Q212.94063 36.33125 214.2375 36.33125Q215.20625 36.33125 215.87813 35.83125Q216.56563 35.315624 216.97188 34.20625ZM211.19063 31.3625L216.9875 31.3625Q216.87813 30.065624 216.33125 29.409374Q215.4875 28.39375 214.14375 28.39375Q212.94063 28.39375 212.1125 29.20625Q211.28438 30.003124 211.19063 31.3625ZM233.59688 37.55L233.59688 36.2375Q232.6125 37.784374 230.69063 37.784374Q229.45625 37.784374 228.40938 37.096874Q227.37813 36.409374 226.8 35.190624Q226.2375 33.971874 226.2375 32.378124Q226.2375 30.815624 226.75313 29.55Q227.26875 28.284374 228.3 27.6125Q229.34688 26.940624 230.6125 26.940624Q231.55 26.940624 232.28438 27.346874Q233.01875 27.7375 233.4875 28.3625L233.4875 23.2375L235.22188 23.2375L235.22188 37.55L233.59688 37.55ZM228.03438 32.378124Q228.03438 34.3625 228.87813 35.346874Q229.72188 36.33125 230.8625 36.33125Q232.01875 36.33125 232.81563 35.39375Q233.62813 34.45625 233.62813 32.51875Q233.62813 30.39375 232.8 29.39375Q231.9875 28.39375 230.78438 28.39375Q229.6125 28.39375 228.81563 29.3625Q228.03438 30.315624 228.03438 32.378124ZM237.87813 25.253124L237.87813 23.2375L239.64375 23.2375L239.64375 25.253124L237.87813 25.253124ZM237.87813 37.55L237.87813 27.175L239.64375 27.175L239.64375 37.55L237.87813 37.55ZM242.28438 37.55L242.28438 28.55L240.7375 28.55L240.7375 27.175L242.28438 27.175L242.28438 26.08125Q242.28438 25.034374 242.47188 24.51875Q242.72188 23.83125 243.3625 23.409374Q244.00313 22.9875 245.15938 22.9875Q245.90938 22.9875 246.8 23.159374L246.53438 24.690624Q245.9875 24.596874 245.50313 24.596874Q244.70625 24.596874 244.3625 24.940624Q244.03438 25.284374 244.03438 26.221874L244.03438 27.175L246.06563 27.175L246.06563 28.55L244.03438 28.55L244.03438 37.55L242.28438 37.55ZM248.28438 37.55L248.28438 28.55L246.7375 28.55L246.7375 27.175L248.28438 27.175L248.28438 26.08125Q248.28438 25.034374 248.47188 24.51875Q248.72188 23.83125 249.3625 23.409374Q250.00313 22.9875 251.15938 22.9875Q251.90938 22.9875 252.8 23.159374L252.53438 24.690624Q251.9875 24.596874 251.50313 24.596874Q250.70625 24.596874 250.3625 24.940624Q250.03438 25.284374 250.03438 26.221874L250.03438 27.175L252.06563 27.175L252.06563 28.55L250.03438 28.55L250.03438 37.55L248.28438 37.55ZM260.97186 34.20625L262.78436 34.440624Q262.3625 36.01875 261.1906 36.909374Q260.03436 37.784374 258.22186 37.784374Q255.95625 37.784374 254.6125 36.39375Q253.28438 34.9875 253.28438 32.45625Q253.28438 29.83125 254.62813 28.39375Q255.97188 26.940624 258.1281 26.940624Q260.20624 26.940624 261.51874 28.3625Q262.84686 29.76875 262.84686 32.346874Q262.84686 32.503124 262.83124 32.815624L255.09688 32.815624Q255.19063 34.51875 256.0656 35.425Q256.9406 36.33125 258.2375 36.33125Q259.20624 36.33125 259.8781 35.83125Q260.5656 35.315624 260.97186 34.20625ZM255.19063 31.3625L260.9875 31.3625Q260.8781 30.065624 260.33124 29.409374Q259.4875 28.39375 258.14374 28.39375Q256.9406 28.39375 256.1125 29.20625Q255.28438 30.003124 255.19063 31.3625ZM264.84686 37.55L264.84686 27.175L266.425 27.175L266.425 28.753124Q267.03436 27.64375 267.55 27.3Q268.0656 26.940624 268.675 26.940624Q269.5656 26.940624 270.4875 27.503124L269.8781 29.14375Q269.2375 28.753124 268.59686 28.753124Q268.01874 28.753124 267.55 29.1125Q267.09686 29.45625 266.89374 30.065624Q266.6125 31.003124 266.6125 32.1125L266.6125 37.55L264.84686 37.55ZM278.97186 34.20625L280.78436 34.440624Q280.3625 36.01875 279.1906 36.909374Q278.03436 37.784374 276.22186 37.784374Q273.95624 37.784374 272.6125 36.39375Q271.28436 34.9875 271.28436 32.45625Q271.28436 29.83125 272.6281 28.39375Q273.97186 26.940624 276.1281 26.940624Q278.20624 26.940624 279.51874 28.3625Q280.84686 29.76875 280.84686 32.346874Q280.84686 32.503124 280.83124 32.815624L273.09686 32.815624Q273.1906 34.51875 274.0656 35.425Q274.9406 36.33125 276.2375 36.33125Q277.20624 36.33125 277.8781 35.83125Q278.5656 35.315624 278.97186 34.20625ZM273.1906 31.3625L278.9875 31.3625Q278.8781 30.065624 278.33124 29.409374Q277.4875 28.39375 276.14374 28.39375Q274.9406 28.39375 274.1125 29.20625Q273.28436 30.003124 273.1906 31.3625ZM282.8625 37.55L282.8625 27.175L284.45624 27.175L284.45624 28.659374Q285.59686 26.940624 287.7531 26.940624Q288.6906 26.940624 289.47186 27.284374Q290.26874 27.6125 290.65936 28.159374Q291.05 28.70625 291.20624 29.45625Q291.3 29.95625 291.3 31.175L291.3 37.55L289.53436 37.55L289.53436 31.2375Q289.53436 30.159374 289.33124 29.628124Q289.1281 29.096874 288.59686 28.784374Q288.08124 28.471874 287.3781 28.471874Q286.2531 28.471874 285.4406 29.190624Q284.6281 29.89375 284.6281 31.878124L284.6281 37.55L282.8625 37.55ZM297.70624 35.971874L297.95624 37.534374Q297.22186 37.690624 296.6281 37.690624Q295.675 37.690624 295.14374 37.39375Q294.6281 37.08125 294.40936 36.596874Q294.1906 36.096874 294.1906 34.51875L294.1906 28.55L292.90936 28.55L292.90936 27.175L294.1906 27.175L294.1906 24.6125L295.9406 23.55L295.9406 27.175L297.70624 27.175L297.70624 28.55L295.9406 28.55L295.9406 34.6125Q295.9406 35.3625 296.03436 35.58125Q296.1281 35.784374 296.33124 35.925Q296.55 36.05 296.9406 36.05Q297.22186 36.05 297.70624 35.971874ZM309.70624 35.971874L309.95624 37.534374Q309.22186 37.690624 308.6281 37.690624Q307.675 37.690624 307.14374 37.39375Q306.6281 37.08125 306.40936 36.596874Q306.1906 36.096874 306.1906 34.51875L306.1906 28.55L304.90936 28.55L304.90936 27.175L306.1906 27.175L306.1906 24.6125L307.9406 23.55L307.9406 27.175L309.70624 27.175L309.70624 28.55L307.9406 28.55L307.9406 34.6125Q307.9406 35.3625 308.03436 35.58125Q308.1281 35.784374 308.33124 35.925Q308.55 36.05 308.9406 36.05Q309.22186 36.05 309.70624 35.971874ZM311.78436 41.55L311.59686 39.89375Q312.175 40.05 312.59686 40.05Q313.1906 40.05 313.53436 39.846874Q313.89374 39.659374 314.1125 39.315624Q314.28436 39.05 314.65936 38.003124Q314.70624 37.846874 314.8156 37.565624L310.8781 27.175L312.76874 27.175L314.925 33.190624Q315.34686 34.33125 315.675 35.58125Q315.9875 34.378124 316.39374 33.221874L318.6125 27.175L320.3781 27.175L316.425 37.721874Q315.8 39.440624 315.4406 40.08125Q314.97186 40.95625 314.3625 41.346874Q313.76874 41.753124 312.925 41.753124Q312.40936 41.753124 311.78436 41.55ZM321.8625 41.51875L321.8625 27.175L323.47186 27.175L323.47186 28.51875Q324.03436 27.7375 324.7375 27.346874Q325.45624 26.940624 326.47186 26.940624Q327.8 26.940624 328.8156 27.628124Q329.83124 28.315624 330.34686 29.565624Q330.8781 30.8 330.8781 32.284374Q330.8781 33.878124 330.3 35.159374Q329.7375 36.425 328.64374 37.1125Q327.55 37.784374 326.34686 37.784374Q325.47186 37.784374 324.76874 37.409374Q324.08124 37.034374 323.6281 36.471874L323.6281 41.51875L321.8625 41.51875ZM323.45624 32.425Q323.45624 34.425 324.26874 35.378124Q325.08124 36.33125 326.2375 36.33125Q327.40936 36.33125 328.2375 35.346874Q329.08124 34.3625 329.08124 32.26875Q329.08124 30.3 328.2531 29.315624Q327.4406 28.315624 326.3156 28.315624Q325.1906 28.315624 324.3156 29.378124Q323.45624 30.425 323.45624 32.425ZM339.97186 34.20625L341.78436 34.440624Q341.3625 36.01875 340.1906 36.909374Q339.03436 37.784374 337.22186 37.784374Q334.95624 37.784374 333.6125 36.39375Q332.28436 34.9875 332.28436 32.45625Q332.28436 29.83125 333.6281 28.39375Q334.97186 26.940624 337.1281 26.940624Q339.20624 26.940624 340.51874 28.3625Q341.84686 29.76875 341.84686 32.346874Q341.84686 32.503124 341.83124 32.815624L334.09686 32.815624Q334.1906 34.51875 335.0656 35.425Q335.9406 36.33125 337.2375 36.33125Q338.20624 36.33125 338.8781 35.83125Q339.5656 35.315624 339.97186 34.20625ZM334.1906 31.3625L339.9875 31.3625Q339.8781 30.065624 339.33124 29.409374Q338.4875 28.39375 337.14374 28.39375Q335.9406 28.39375 335.1125 29.20625Q334.28436 30.003124 334.1906 31.3625ZM343.15936 34.45625L344.90936 34.175Q345.05 35.221874 345.72186 35.784374Q346.39374 36.33125 347.59686 36.33125Q348.8 36.33125 349.3781 35.846874Q349.97186 35.346874 349.97186 34.690624Q349.97186 34.096874 349.45624 33.753124Q349.09686 33.51875 347.65936 33.159374Q345.72186 32.659374 344.97186 32.315624Q344.2375 31.95625 343.84686 31.33125Q343.45624 30.690624 343.45624 29.925Q343.45624 29.2375 343.76874 28.64375Q344.09686 28.05 344.64374 27.659374Q345.05 27.3625 345.7531 27.159374Q346.47186 26.940624 347.28436 26.940624Q348.5031 26.940624 349.425 27.3Q350.34686 27.64375 350.78436 28.253124Q351.22186 28.846874 351.39374 29.846874L349.675 30.08125Q349.55 29.284374 348.9875 28.846874Q348.425 28.39375 347.40936 28.39375Q346.1906 28.39375 345.675 28.8Q345.15936 29.190624 345.15936 29.721874Q345.15936 30.065624 345.3781 30.346874Q345.58124 30.628124 346.05 30.815624Q346.3156 30.909374 347.59686 31.253124Q349.47186 31.753124 350.20624 32.08125Q350.9406 32.39375 351.3625 33.003124Q351.78436 33.596874 351.78436 34.503124Q351.78436 35.378124 351.26874 36.159374Q350.7531 36.940624 349.78436 37.3625Q348.8156 37.784374 347.59686 37.784374Q345.58124 37.784374 344.51874 36.940624Q343.45624 36.096874 343.15936 34.45625ZM359.22186 32.3625Q359.22186 29.4875 360.8156 28.096874Q362.15936 26.940624 364.08124 26.940624Q366.22186 26.940624 367.5656 28.346874Q368.925 29.753124 368.925 32.221874Q368.925 34.221874 368.33124 35.378124Q367.7375 36.51875 366.58124 37.159374Q365.4406 37.784374 364.08124 37.784374Q361.89374 37.784374 360.55 36.39375Q359.22186 34.9875 359.22186 32.3625ZM361.01874 32.3625Q361.01874 34.3625 361.8781 35.346874Q362.7531 36.33125 364.08124 36.33125Q365.39374 36.33125 366.2531 35.346874Q367.1281 34.346874 367.1281 32.3Q367.1281 30.378124 366.2531 29.39375Q365.3781 28.39375 364.08124 28.39375Q362.7531 28.39375 361.8781 29.39375Q361.01874 30.378124 361.01874 32.3625ZM371.28436 37.55L371.28436 28.55L369.7375 28.55L369.7375 27.175L371.28436 27.175L371.28436 26.08125Q371.28436 25.034374 371.47186 24.51875Q371.72186 23.83125 372.3625 23.409374Q373.0031 22.9875 374.15936 22.9875Q374.90936 22.9875 375.8 23.159374L375.53436 24.690624Q374.9875 24.596874 374.5031 24.596874Q373.70624 24.596874 373.3625 24.940624Q373.03436 25.284374 373.03436 26.221874L373.03436 27.175L375.0656 27.175L375.0656 28.55L373.03436 28.55L373.03436 37.55L371.28436 37.55ZM382.8781 25.253124L382.8781 23.2375L384.64374 23.2375L384.64374 25.253124L382.8781 25.253124ZM382.8781 37.55L382.8781 27.175L384.64374 27.175L384.64374 37.55L382.8781 37.55ZM386.8625 37.55L386.8625 27.175L388.45624 27.175L388.45624 28.659374Q389.59686 26.940624 391.7531 26.940624Q392.6906 26.940624 393.47186 27.284374Q394.26874 27.6125 394.65936 28.159374Q395.05 28.70625 395.20624 29.45625Q395.3 29.95625 395.3 31.175L395.3 37.55L393.53436 37.55L393.53436 31.2375Q393.53436 30.159374 393.33124 29.628124Q393.1281 29.096874 392.59686 28.784374Q392.08124 28.471874 391.3781 28.471874Q390.2531 28.471874 389.4406 29.190624Q388.6281 29.89375 388.6281 31.878124L388.6281 37.55L386.8625 37.55ZM401.70624 35.971874L401.95624 37.534374Q401.22186 37.690624 400.6281 37.690624Q399.675 37.690624 399.14374 37.39375Q398.6281 37.08125 398.40936 36.596874Q398.1906 36.096874 398.1906 34.51875L398.1906 28.55L396.90936 28.55L396.90936 27.175L398.1906 27.175L398.1906 24.6125L399.9406 23.55L399.9406 27.175L401.70624 27.175L401.70624 28.55L399.9406 28.55L399.9406 34.6125Q399.9406 35.3625 400.03436 35.58125Q400.1281 35.784374 400.33124 35.925Q400.55 36.05 400.9406 36.05Q401.22186 36.05 401.70624 35.971874ZM410.97186 34.20625L412.78436 34.440624Q412.3625 36.01875 411.1906 36.909374Q410.03436 37.784374 408.22186 37.784374Q405.95624 37.784374 404.6125 36.39375Q403.28436 34.9875 403.28436 32.45625Q403.28436 29.83125 404.6281 28.39375Q405.97186 26.940624 408.1281 26.940624Q410.20624 26.940624 411.51874 28.3625Q412.84686 29.76875 412.84686 32.346874Q412.84686 32.503124 412.83124 32.815624L405.09686 32.815624Q405.1906 34.51875 406.0656 35.425Q406.9406 36.33125 408.2375 36.33125Q409.20624 36.33125 409.8781 35.83125Q410.5656 35.315624 410.97186 34.20625ZM405.1906 31.3625L410.9875 31.3625Q410.8781 30.065624 410.33124 29.409374Q409.4875 28.39375 408.14374 28.39375Q406.9406 28.39375 406.1125 29.20625Q405.28436 30.003124 405.1906 31.3625ZM414.84686 37.55L414.84686 27.175L416.425 27.175L416.425 28.753124Q417.03436 27.64375 417.55 27.3Q418.0656 26.940624 418.675 26.940624Q419.5656 26.940624 420.4875 27.503124L419.8781 29.14375Q419.2375 28.753124 418.59686 28.753124Q418.01874 28.753124 417.55 29.1125Q417.09686 29.45625 416.89374 30.065624Q416.6125 31.003124 416.6125 32.1125L416.6125 37.55L414.84686 37.55ZM428.64374 36.26875Q427.65936 37.096874 426.7531 37.440624Q425.84686 37.784374 424.8156 37.784374Q423.1125 37.784374 422.1906 36.95625Q421.26874 36.1125 421.26874 34.815624Q421.26874 34.05 421.6125 33.425Q421.97186 32.8 422.53436 32.425Q423.09686 32.034374 423.8 31.83125Q424.3156 31.70625 425.3625 31.565624Q427.4875 31.315624 428.4875 30.971874Q428.5031 30.6125 428.5031 30.503124Q428.5031 29.440624 428.0031 28.9875Q427.33124 28.39375 426.0031 28.39375Q424.7531 28.39375 424.15936 28.83125Q423.58124 29.26875 423.3 30.378124L421.58124 30.14375Q421.8156 29.034374 422.34686 28.3625Q422.8781 27.675 423.89374 27.315624Q424.90936 26.940624 426.2531 26.940624Q427.58124 26.940624 428.40936 27.253124Q429.2375 27.565624 429.6281 28.05Q430.01874 28.51875 430.175 29.2375Q430.26874 29.690624 430.26874 30.8625L430.26874 33.20625Q430.26874 35.659374 430.3781 36.315624Q430.4875 36.95625 430.83124 37.55L428.9875 37.55Q428.72186 37.003124 428.64374 36.26875ZM428.4875 32.346874Q427.53436 32.7375 425.6125 33.003124Q424.53436 33.159374 424.08124 33.3625Q423.64374 33.55 423.39374 33.925Q423.14374 34.3 423.14374 34.76875Q423.14374 35.471874 423.675 35.940624Q424.20624 36.409374 425.2375 36.409374Q426.2531 36.409374 427.03436 35.971874Q427.83124 35.51875 428.20624 34.753124Q428.4875 34.14375 428.4875 32.9875L428.4875 32.346874ZM439.64374 33.753124L441.3625 33.971874Q441.08124 35.76875 439.90936 36.784374Q438.7531 37.784374 437.05 37.784374Q434.925 37.784374 433.6281 36.39375Q432.33124 35.003124 432.33124 32.409374Q432.33124 30.721874 432.8781 29.471874Q433.4406 28.20625 434.58124 27.58125Q435.72186 26.940624 437.0656 26.940624Q438.7531 26.940624 439.8156 27.8Q440.89374 28.659374 441.20624 30.221874L439.4875 30.4875Q439.2531 29.440624 438.6281 28.925Q438.0031 28.39375 437.1281 28.39375Q435.8 28.39375 434.97186 29.346874Q434.14374 30.3 434.14374 32.346874Q434.14374 34.440624 434.9406 35.39375Q435.7375 36.33125 437.03436 36.33125Q438.0656 36.33125 438.7531 35.70625Q439.45624 35.065624 439.64374 33.753124ZM446.70624 35.971874L446.95624 37.534374Q446.22186 37.690624 445.6281 37.690624Q444.675 37.690624 444.14374 37.39375Q443.6281 37.08125 443.40936 36.596874Q443.1906 36.096874 443.1906 34.51875L443.1906 28.55L441.90936 28.55L441.90936 27.175L443.1906 27.175L443.1906 24.6125L444.9406 23.55L444.9406 27.175L446.70624 27.175L446.70624 28.55L444.9406 28.55L444.9406 34.6125Q444.9406 35.3625 445.03436 35.58125Q445.1281 35.784374 445.33124 35.925Q445.55 36.05 445.9406 36.05Q446.22186 36.05 446.70624 35.971874ZM448.8781 25.253124L448.8781 23.2375L450.64374 23.2375L450.64374 25.253124L448.8781 25.253124ZM448.8781 37.55L448.8781 27.175L450.64374 27.175L450.64374 37.55L448.8781 37.55ZM452.22186 32.3625Q452.22186 29.4875 453.8156 28.096874Q455.15936 26.940624 457.08124 26.940624Q459.22186 26.940624 460.5656 28.346874Q461.925 29.753124 461.925 32.221874Q461.925 34.221874 461.33124 35.378124Q460.7375 36.51875 459.58124 37.159374Q458.4406 37.784374 457.08124 37.784374Q454.89374 37.784374 453.55 36.39375Q452.22186 34.9875 452.22186 32.3625ZM454.01874 32.3625Q454.01874 34.3625 454.8781 35.346874Q455.7531 36.33125 457.08124 36.33125Q458.39374 36.33125 459.2531 35.346874Q460.1281 34.346874 460.1281 32.3Q460.1281 30.378124 459.2531 29.39375Q458.3781 28.39375 457.08124 28.39375Q455.7531 28.39375 454.8781 29.39375Q454.01874 30.378124 454.01874 32.3625ZM463.8625 37.55L463.8625 27.175L465.45624 27.175L465.45624 28.659374Q466.59686 26.940624 468.7531 26.940624Q469.6906 26.940624 470.47186 27.284374Q471.26874 27.6125 471.65936 28.159374Q472.05 28.70625 472.20624 29.45625Q472.3 29.95625 472.3 31.175L472.3 37.55L470.53436 37.55L470.53436 31.2375Q470.53436 30.159374 470.33124 29.628124Q470.1281 29.096874 469.59686 28.784374Q469.08124 28.471874 468.3781 28.471874Q467.2531 28.471874 466.4406 29.190624Q465.6281 29.89375 465.6281 31.878124L465.6281 37.55L463.8625 37.55ZM482.78436 37.55L479.6125 27.175L481.425 27.175L483.08124 33.159374L483.6906 35.39375Q483.7375 35.221874 484.22186 33.253124L485.8781 27.175L487.6906 27.175L489.2375 33.190624L489.7531 35.175L490.34686 33.175L492.1281 27.175L493.83124 27.175L490.59686 37.55L488.76874 37.55L487.1125 31.33125L486.72186 29.565624L484.6125 37.55L482.78436 37.55ZM494.8781 25.253124L494.8781 23.2375L496.64374 23.2375L496.64374 25.253124L494.8781 25.253124ZM494.8781 37.55L494.8781 27.175L496.64374 27.175L496.64374 37.55L494.8781 37.55ZM502.70624 35.971874L502.95624 37.534374Q502.22186 37.690624 501.6281 37.690624Q500.675 37.690624 500.14374 37.39375Q499.6281 37.08125 499.40936 36.596874Q499.1906 36.096874 499.1906 34.51875L499.1906 28.55L497.90936 28.55L497.90936 27.175L499.1906 27.175L499.1906 24.6125L500.9406 23.55L500.9406 27.175L502.70624 27.175L502.70624 28.55L500.9406 28.55L500.9406 34.6125Q500.9406 35.3625 501.03436 35.58125Q501.1281 35.784374 501.33124 35.925Q501.55 36.05 501.9406 36.05Q502.22186 36.05 502.70624 35.971874ZM504.8625 37.55L504.8625 23.2375L506.6281 23.2375L506.6281 28.3625Q507.8625 26.940624 509.7375 26.940624Q510.8781 26.940624 511.72186 27.39375Q512.58124 27.846874 512.9406 28.659374Q513.3156 29.45625 513.3156 30.971874L513.3156 37.55L511.5656 37.55L511.5656 30.971874Q511.5656 29.659374 510.9875 29.065624Q510.40936 28.45625 509.3781 28.45625Q508.59686 28.45625 507.89374 28.8625Q507.20624 29.26875 506.90936 29.971874Q506.6281 30.659374 506.6281 31.878124L506.6281 37.55L504.8625 37.55ZM525.70624 35.971874L525.95624 37.534374Q525.22186 37.690624 524.6281 37.690624Q523.675 37.690624 523.14374 37.39375Q522.6281 37.08125 522.40936 36.596874Q522.1906 36.096874 522.1906 34.51875L522.1906 28.55L520.90936 28.55L520.90936 27.175L522.1906 27.175L522.1906 24.6125L523.9406 23.55L523.9406 27.175L525.70624 27.175L525.70624 28.55L523.9406 28.55L523.9406 34.6125Q523.9406 35.3625 524.03436 35.58125Q524.1281 35.784374 524.33124 35.925Q524.55 36.05 524.9406 36.05Q525.22186 36.05 525.70624 35.971874ZM527.8625 37.55L527.8625 23.2375L529.6281 23.2375L529.6281 28.3625Q530.8625 26.940624 532.7375 26.940624Q533.8781 26.940624 534.72186 27.39375Q535.58124 27.846874 535.9406 28.659374Q536.3156 29.45625 536.3156 30.971874L536.3156 37.55L534.5656 37.55L534.5656 30.971874Q534.5656 29.659374 533.9875 29.065624Q533.40936 28.45625 532.3781 28.45625Q531.59686 28.45625 530.89374 28.8625Q530.20624 29.26875 529.90936 29.971874Q529.6281 30.659374 529.6281 31.878124L529.6281 37.55L527.8625 37.55ZM545.97186 34.20625L547.78436 34.440624Q547.3625 36.01875 546.1906 36.909374Q545.03436 37.784374 543.22186 37.784374Q540.95624 37.784374 539.6125 36.39375Q538.28436 34.9875 538.28436 32.45625Q538.28436 29.83125 539.6281 28.39375Q540.97186 26.940624 543.1281 26.940624Q545.20624 26.940624 546.51874 28.3625Q547.84686 29.76875 547.84686 32.346874Q547.84686 32.503124 547.83124 32.815624L540.09686 32.815624Q540.1906 34.51875 541.0656 35.425Q541.9406 36.33125 543.2375 36.33125Q544.20624 36.33125 544.8781 35.83125Q545.5656 35.315624 545.97186 34.20625ZM540.1906 31.3625L545.9875 31.3625Q545.8781 30.065624 545.33124 29.409374Q544.4875 28.39375 543.14374 28.39375Q541.9406 28.39375 541.1125 29.20625Q540.28436 30.003124 540.1906 31.3625Z" fill-rule="nonzero"/><path fill="#757575" d="M26.64375 60.26875Q25.659374 61.096874 24.753124 61.440624Q23.846874 61.784374 22.815624 61.784374Q21.1125 61.784374 20.190624 60.95625Q19.26875 60.1125 19.26875 58.815624Q19.26875 58.05 19.6125 57.425Q19.971874 56.8 20.534374 56.425Q21.096874 56.034374 21.8 55.83125Q22.315624 55.70625 23.3625 55.565624Q25.4875 55.315624 26.4875 54.971874Q26.503124 54.6125 26.503124 54.503124Q26.503124 53.440624 26.003124 52.9875Q25.33125 52.39375 24.003124 52.39375Q22.753124 52.39375 22.159374 52.83125Q21.58125 53.26875 21.3 54.378124L19.58125 54.14375Q19.815624 53.034374 20.346874 52.3625Q20.878124 51.675 21.89375 51.315624Q22.909374 50.940624 24.253124 50.940624Q25.58125 50.940624 26.409374 51.253124Q27.2375 51.565624 27.628124 52.05Q28.01875 52.51875 28.175 53.2375Q28.26875 53.690624 28.26875 54.8625L28.26875 57.20625Q28.26875 59.659374 28.378124 60.315624Q28.4875 60.95625 28.83125 61.55L26.9875 61.55Q26.721874 61.003124 26.64375 60.26875ZM26.4875 56.346874Q25.534374 56.7375 23.6125 57.003124Q22.534374 57.159374 22.08125 57.3625Q21.64375 57.55 21.39375 57.925Q21.14375 58.3 21.14375 58.76875Q21.14375 59.471874 21.675 59.940624Q22.20625 60.409374 23.2375 60.409374Q24.253124 60.409374 25.034374 59.971874Q25.83125 59.51875 26.20625 58.753124Q26.4875 58.14375 26.4875 56.9875L26.4875 56.346874ZM30.846874 61.55L30.846874 51.175L32.425 51.175L32.425 52.753124Q33.034374 51.64375 33.55 51.3Q34.065624 50.940624 34.675 50.940624Q35.565624 50.940624 36.4875 51.503124L35.878124 53.14375Q35.2375 52.753124 34.596874 52.753124Q34.01875 52.753124 33.55 53.1125Q33.096874 53.45625 32.89375 54.065624Q32.6125 55.003124 32.6125 56.1125L32.6125 61.55L30.846874 61.55ZM41.70625 59.971874L41.95625 61.534374Q41.221874 61.690624 40.628124 61.690624Q39.675 61.690624 39.14375 61.39375Q38.628124 61.08125 38.409374 60.596874Q38.190624 60.096874 38.190624 58.51875L38.190624 52.55L36.909374 52.55L36.909374 51.175L38.190624 51.175L38.190624 48.6125L39.940624 47.55L39.940624 51.175L41.70625 51.175L41.70625 52.55L39.940624 52.55L39.940624 58.6125Q39.940624 59.3625 40.034374 59.58125Q40.128124 59.784374 40.33125 59.925Q40.55 60.05 40.940624 60.05Q41.221874 60.05 41.70625 59.971874ZM45.784374 61.55L42.6125 51.175L44.425 51.175L46.08125 57.159374L46.690624 59.39375Q46.7375 59.221874 47.221874 57.253124L48.878124 51.175L50.690624 51.175L52.2375 57.190624L52.753124 59.175L53.346874 57.175L55.128124 51.175L56.83125 51.175L53.596874 61.55L51.76875 61.55L50.1125 55.33125L49.721874 53.565624L47.6125 61.55L45.784374 61.55ZM57.221874 56.3625Q57.221874 53.4875 58.815624 52.096874Q60.159374 50.940624 62.08125 50.940624Q64.22188 50.940624 65.56563 52.346874Q66.925 53.753124 66.925 56.221874Q66.925 58.221874 66.33125 59.378124Q65.7375 60.51875 64.58125 61.159374Q63.440624 61.784374 62.08125 61.784374Q59.89375 61.784374 58.55 60.39375Q57.221874 58.9875 57.221874 56.3625ZM59.01875 56.3625Q59.01875 58.3625 59.878124 59.346874Q60.753124 60.33125 62.08125 60.33125Q63.39375 60.33125 64.25313 59.346874Q65.12813 58.346874 65.12813 56.3Q65.12813 54.378124 64.25313 53.39375Q63.378124 52.39375 62.08125 52.39375Q60.753124 52.39375 59.878124 53.39375Q59.01875 54.378124 59.01875 56.3625ZM68.84688 61.55L68.84688 51.175L70.425 51.175L70.425 52.753124Q71.03438 51.64375 71.55 51.3Q72.06563 50.940624 72.675 50.940624Q73.56563 50.940624 74.4875 51.503124L73.87813 53.14375Q73.2375 52.753124 72.59688 52.753124Q72.01875 52.753124 71.55 53.1125Q71.09688 53.45625 70.89375 54.065624Q70.6125 55.003124 70.6125 56.1125L70.6125 61.55L68.84688 61.55ZM75.87813 61.55L75.87813 47.2375L77.64375 47.2375L77.64375 55.39375L81.8 51.175L84.06563 51.175L80.1125 55.01875L84.47188 61.55L82.3 61.55L78.87813 56.253124L77.64375 57.440624L77.64375 61.55L75.87813 61.55ZM85.15938 58.45625L86.90938 58.175Q87.05 59.221874 87.72188 59.784374Q88.39375 60.33125 89.59688 60.33125Q90.8 60.33125 91.37813 59.846874Q91.97188 59.346874 91.97188 58.690624Q91.97188 58.096874 91.45625 57.753124Q91.09688 57.51875 89.65938 57.159374Q87.72188 56.659374 86.97188 56.315624Q86.2375 55.95625 85.84688 55.33125Q85.45625 54.690624 85.45625 53.925Q85.45625 53.2375 85.76875 52.64375Q86.09688 52.05 86.64375 51.659374Q87.05 51.3625 87.75313 51.159374Q88.47188 50.940624 89.28438 50.940624Q90.50313 50.940624 91.425 51.3Q92.34688 51.64375 92.78438 52.253124Q93.22188 52.846874 93.39375 53.846874L91.675 54.08125Q91.55 53.284374 90.9875 52.846874Q90.425 52.39375 89.40938 52.39375Q88.19063 52.39375 87.675 52.8Q87.15938 53.190624 87.15938 53.721874Q87.15938 54.065624 87.37813 54.346874Q87.58125 54.628124 88.05 54.815624Q88.31563 54.909374 89.59688 55.253124Q91.47188 55.753124 92.20625 56.08125Q92.94063 56.39375 93.3625 57.003124Q93.78438 57.596874 93.78438 58.503124Q93.78438 59.378124 93.26875 60.159374Q92.75313 60.940624 91.78438 61.3625Q90.81563 61.784374 89.59688 61.784374Q87.58125 61.784374 86.51875 60.940624Q85.45625 60.096874 85.15938 58.45625ZM99.15938 58.01875Q99.14375 57.675 99.14375 57.503124Q99.14375 56.45625 99.44063 55.70625Q99.65938 55.14375 100.14375 54.565624Q100.4875 54.14375 101.39375 53.346874Q102.31563 52.534374 102.58125 52.065624Q102.8625 51.58125 102.8625 51.01875Q102.8625 49.9875 102.05 49.221874Q101.25313 48.440624 100.09688 48.440624Q98.97188 48.440624 98.22188 49.14375Q97.47188 49.846874 97.2375 51.33125L95.425 51.1125Q95.675 49.1125 96.87813 48.05Q98.08125 46.9875 100.06563 46.9875Q102.175 46.9875 103.425 48.128124Q104.675 49.26875 104.675 50.89375Q104.675 51.83125 104.22188 52.628124Q103.78438 53.409374 102.50313 54.55Q101.64375 55.315624 101.37813 55.675Q101.12813 56.034374 100.9875 56.503124Q100.8625 56.971874 100.84688 58.01875L99.15938 58.01875ZM99.05 61.55L99.05 59.55L101.05 59.55L101.05 61.55L99.05 61.55Z" fill-rule="nonzero"/></svg>