<svg version="1.1" viewBox="0.0 0.0 600.0 371.0" fill="none" stroke="none" stroke-linecap="square" stroke-miterlimit="10" width="600" height="371" xmlns:xlink="http://www.w3.org/1999/xlink" xmlns="http://www.w3.org/2000/svg"><path fill="#ffffff" d="M0 0L600.0 0L600.0 371.0L0 371.0L0 0Z" fill-rule="nonzero"/><path fill="#fde49b" d="M277.34866 100.37789C285.8208 99.35395 294.40253 98.839165 303.0 98.839165L303.0 204.37584Z" fill-rule="nonzero"/><path fill="#f7b4ae" d="M271.0238 101.24013C273.12308 100.9212 275.23184 100.63373 277.34866 100.37789L303.0 204.37584Z" fill-rule="nonzero"/><path fill="#b3cefb" d="M264.75735 102.29076C266.83524 101.90934 268.92453 101.559044 271.0238 101.24013L303.0 204.37584Z" fill-rule="nonzero"/><path fill="#7ed1d7" d="M258.56073 103.52786C260.61346 103.08464 262.67944 102.67218 264.75735 102.29076L303.0 204.37584Z" fill-rule="nonzero"/><path fill="#ff994d" d="M234.69695 110.29083C242.36153 107.56434 250.34523 105.30177 258.56073 103.52786L303.0 204.37584Z" fill-rule="nonzero"/><path fill="#71c287" d="M229.01614 112.41976C230.88786 111.68187 232.7819 110.97206 234.69695 110.29083L303.0 204.37584Z" fill-rule="nonzero"/><path fill="#fcd04f" d="M218.07011 117.177345C221.62027 115.483025 225.2723 113.89571 229.01614 112.41976L303.0 204.37584Z" fill-rule="nonzero"/><path fill="#f07b72" d="M207.74434 122.57177C211.07487 120.671455 214.51994 118.871666 218.07011 117.177345L303.0 204.37584Z" fill-rule="nonzero"/><path fill="#7baaf7" d="M202.83781 125.49566C204.44339 124.49667 206.07927 123.52182 207.74434 122.57177L303.0 204.37584Z" fill-rule="nonzero"/><path fill="#46bdc6" d="M198.11426 128.56364C199.65738 127.51754 201.23225 126.494644 202.83781 125.49566L303.0 204.37584Z" fill-rule="nonzero"/><path fill="#ff6d01" d="M193.58229 131.7701C195.06013 130.6788 196.57114 129.60974 198.11426 128.56364L303.0 204.37584Z" fill-rule="nonzero"/><path fill="#34a853" d="M185.12587 138.5748C187.80487 136.22325 190.62625 133.95294 193.58229 131.7701L303.0 204.37584Z" fill-rule="nonzero"/><path fill="#b08403" d="M226.22578 317.81918C180.36386 298.82407 152.23334 264.29285 152.23334 226.99083L152.23334 204.37584C152.23334 241.67784 180.36386 276.20908 226.22578 295.2042Z" fill-rule="nonzero"/><path fill="#fbbc04" d="M226.22578 295.2042C188.67854 279.65286 162.5958 253.47873 154.71408 223.44202C146.83238 193.40529 157.92459 162.45132 185.12587 138.5748L303.0 204.37584Z" fill-rule="nonzero"/><path fill="#a42f25" d="M293.34033 332.31067C269.65103 331.24603 246.65558 326.28082 226.22578 317.81918L226.22578 295.2042C246.65558 303.66583 269.65103 308.63104 293.34033 309.69568Z" fill-rule="nonzero"/><path fill="#ea4335" d="M293.34033 309.69568C269.65103 308.63104 246.65558 303.66583 226.22578 295.2042L303.0 204.37584Z" fill-rule="nonzero"/><path fill="#2e5dab" d="M453.76666 226.99083C453.76666 256.15515 436.5259 284.01935 406.1364 303.97006C375.7469 323.92078 334.91806 334.17923 293.34033 332.31067L293.34033 309.69568C334.91806 311.56424 375.7469 301.30576 406.1364 281.35504C436.5259 261.40436 453.76666 233.54015 453.76666 204.37584Z" fill-rule="nonzero"/><path fill="#4285f4" d="M303.0 98.839165C358.01654 98.839165 408.66507 119.81681 435.14886 153.5727C461.6327 187.32857 459.74643 228.50261 430.2274 261.00137C400.70837 293.50012 348.24387 312.16312 293.34033 309.69568L303.0 204.37584Z" fill-rule="nonzero"/><path fill="#1a1a1a" d="M22.471874 76.340866L22.471874 67.747116L25.721874 67.747116Q26.565624 67.747116 27.01875 67.82524Q27.659374 67.934616 28.08125 68.23149Q28.51875 68.528366 28.76875 69.059616Q29.034374 69.590866 29.034374 70.23149Q29.034374 71.32524 28.33125 72.090866Q27.64375 72.840866 25.815624 72.840866L23.6125 72.840866L23.6125 76.340866L22.471874 76.340866ZM23.6125 71.840866L25.83125 71.840866Q26.940624 71.840866 27.39375 71.434616Q27.8625 71.01274 27.8625 70.26274Q27.8625 69.73149 27.58125 69.35649Q27.315624 68.965866 26.878124 68.840866Q26.58125 68.76274 25.815624 68.76274L23.6125 68.76274L23.6125 71.840866ZM34.596874 74.340866L35.690624 74.465866Q35.440624 75.41899 34.7375 75.95024Q34.034374 76.48149 32.95625 76.48149Q31.596874 76.48149 30.784374 75.63774Q29.9875 74.79399 29.9875 73.278366Q29.9875 71.715866 30.8 70.85649Q31.6125 69.98149 32.89375 69.98149Q34.14375 69.98149 34.925 70.82524Q35.721874 71.66899 35.721874 73.215866Q35.721874 73.309616 35.721874 73.497116L31.08125 73.497116Q31.14375 74.528366 31.659374 75.07524Q32.175 75.60649 32.95625 75.60649Q33.534374 75.60649 33.940624 75.309616Q34.3625 74.997116 34.596874 74.340866ZM31.14375 72.63774L34.6125 72.63774Q34.55 71.840866 34.221874 71.45024Q33.70625 70.840866 32.909374 70.840866Q32.175 70.840866 31.675 71.32524Q31.190624 71.809616 31.14375 72.63774ZM37.346874 76.340866L37.346874 70.122116L38.284374 70.122116L38.284374 70.997116Q38.971874 69.98149 40.26875 69.98149Q40.83125 69.98149 41.3 70.184616Q41.784374 70.38774 42.01875 70.715866Q42.253124 71.04399 42.346874 71.48149Q42.39375 71.778366 42.39375 72.51274L42.39375 76.340866L41.346874 76.340866L41.346874 72.559616Q41.346874 71.903366 41.221874 71.590866Q41.096874 71.278366 40.784374 71.090866Q40.471874 70.88774 40.05 70.88774Q39.378124 70.88774 38.878124 71.32524Q38.39375 71.747116 38.39375 72.934616L38.39375 76.340866L37.346874 76.340866ZM43.925 74.48149L44.95625 74.32524Q45.05 74.95024 45.440624 75.278366Q45.846874 75.60649 46.58125 75.60649Q47.3 75.60649 47.64375 75.32524Q48.003124 75.028366 48.003124 74.622116Q48.003124 74.26274 47.690624 74.059616Q47.471874 73.91899 46.6125 73.70024Q45.45625 73.403366 45.003124 73.20024Q44.565624 72.98149 44.33125 72.60649Q44.096874 72.23149 44.096874 71.76274Q44.096874 71.35649 44.284374 70.997116Q44.471874 70.63774 44.8 70.403366Q45.05 70.23149 45.471874 70.10649Q45.89375 69.98149 46.39375 69.98149Q47.1125 69.98149 47.659374 70.20024Q48.221874 70.403366 48.4875 70.76274Q48.753124 71.122116 48.846874 71.715866L47.815624 71.85649Q47.753124 71.38774 47.409374 71.122116Q47.08125 70.840866 46.45625 70.840866Q45.7375 70.840866 45.425 71.090866Q45.1125 71.32524 45.1125 71.653366Q45.1125 71.85649 45.2375 72.01274Q45.378124 72.184616 45.64375 72.29399Q45.8 72.35649 46.58125 72.559616Q47.70625 72.872116 48.14375 73.059616Q48.58125 73.247116 48.83125 73.60649Q49.08125 73.965866 49.08125 74.51274Q49.08125 75.04399 48.76875 75.51274Q48.471874 75.965866 47.89375 76.23149Q47.315624 76.48149 46.58125 76.48149Q45.3625 76.48149 44.721874 75.98149Q44.096874 75.465866 43.925 74.48149ZM50.346874 68.965866L50.346874 67.747116L51.409374 67.747116L51.409374 68.965866L50.346874 68.965866ZM50.346874 76.340866L50.346874 70.122116L51.409374 70.122116L51.409374 76.340866L50.346874 76.340866ZM52.95625 73.23149Q52.95625 71.497116 53.909374 70.66899Q54.70625 69.98149 55.8625 69.98149Q57.14375 69.98149 57.95625 70.82524Q58.784374 71.653366 58.784374 73.13774Q58.784374 74.340866 58.425 75.028366Q58.065624 75.715866 57.3625 76.10649Q56.675 76.48149 55.8625 76.48149Q54.565624 76.48149 53.753124 75.653366Q52.95625 74.809616 52.95625 73.23149ZM54.034374 73.23149Q54.034374 74.41899 54.55 75.01274Q55.08125 75.60649 55.8625 75.60649Q56.659374 75.60649 57.175 75.01274Q57.690624 74.41899 57.690624 73.20024Q57.690624 72.04399 57.159374 71.45024Q56.64375 70.85649 55.8625 70.85649Q55.08125 70.85649 54.55 71.45024Q54.034374 72.028366 54.034374 73.23149ZM60.346874 76.340866L60.346874 70.122116L61.284374 70.122116L61.284374 70.997116Q61.971874 69.98149 63.26875 69.98149Q63.83125 69.98149 64.3 70.184616Q64.78438 70.38774 65.01875 70.715866Q65.25313 71.04399 65.34688 71.48149Q65.39375 71.778366 65.39375 72.51274L65.39375 76.340866L64.34688 76.340866L64.34688 72.559616Q64.34688 71.903366 64.22188 71.590866Q64.09688 71.278366 63.784374 71.090866Q63.471874 70.88774 63.05 70.88774Q62.378124 70.88774 61.878124 71.32524Q61.39375 71.747116 61.39375 72.934616L61.39375 76.340866L60.346874 76.340866ZM71.40938 75.57524Q70.81563 76.07524 70.26875 76.278366Q69.7375 76.48149 69.1125 76.48149Q68.08125 76.48149 67.53438 75.98149Q66.9875 75.48149 66.9875 74.70024Q66.9875 74.247116 67.19063 73.872116Q67.39375 73.48149 67.7375 73.26274Q68.08125 73.028366 68.50313 72.91899Q68.8 72.82524 69.44063 72.747116Q70.70625 72.60649 71.31563 72.38774Q71.31563 72.16899 71.31563 72.122116Q71.31563 71.465866 71.01875 71.20024Q70.6125 70.85649 69.81563 70.85649Q69.08125 70.85649 68.72188 71.122116Q68.3625 71.372116 68.19063 72.028366L67.15938 71.88774Q67.3 71.23149 67.62813 70.82524Q67.95625 70.41899 68.56563 70.20024Q69.175 69.98149 69.97188 69.98149Q70.76875 69.98149 71.26875 70.16899Q71.76875 70.35649 72.00313 70.63774Q72.2375 70.91899 72.33125 71.35649Q72.37813 71.622116 72.37813 72.32524L72.37813 73.73149Q72.37813 75.20024 72.44063 75.590866Q72.51875 75.98149 72.72188 76.340866L71.6125 76.340866Q71.45625 76.01274 71.40938 75.57524ZM71.31563 73.215866Q70.7375 73.45024 69.59688 73.622116Q68.94063 73.715866 68.675 73.840866Q68.40938 73.95024 68.25313 74.16899Q68.1125 74.38774 68.1125 74.66899Q68.1125 75.090866 68.425 75.372116Q68.75313 75.653366 69.3625 75.653366Q69.97188 75.653366 70.44063 75.38774Q70.925 75.122116 71.14375 74.653366Q71.31563 74.29399 71.31563 73.60649L71.31563 73.215866ZM76.64375 75.403366L76.8 76.32524Q76.34688 76.41899 76.00313 76.41899Q75.425 76.41899 75.1125 76.247116Q74.8 76.059616 74.65938 75.76274Q74.53438 75.465866 74.53438 74.51274L74.53438 70.934616L73.76875 70.934616L73.76875 70.122116L74.53438 70.122116L74.53438 68.57524L75.58125 67.95024L75.58125 70.122116L76.64375 70.122116L76.64375 70.934616L75.58125 70.934616L75.58125 74.57524Q75.58125 75.028366 75.62813 75.153366Q75.69063 75.278366 75.81563 75.35649Q75.94063 75.434616 76.175 75.434616Q76.3625 75.434616 76.64375 75.403366ZM76.95625 73.23149Q76.95625 71.497116 77.90938 70.66899Q78.70625 69.98149 79.8625 69.98149Q81.14375 69.98149 81.95625 70.82524Q82.78438 71.653366 82.78438 73.13774Q82.78438 74.340866 82.425 75.028366Q82.06563 75.715866 81.3625 76.10649Q80.675 76.48149 79.8625 76.48149Q78.56563 76.48149 77.75313 75.653366Q76.95625 74.809616 76.95625 73.23149ZM78.03438 73.23149Q78.03438 74.41899 78.55 75.01274Q79.08125 75.60649 79.8625 75.60649Q80.65938 75.60649 81.175 75.01274Q81.69063 74.41899 81.69063 73.20024Q81.69063 72.04399 81.15938 71.45024Q80.64375 70.85649 79.8625 70.85649Q79.08125 70.85649 78.55 71.45024Q78.03438 72.028366 78.03438 73.23149Z" fill-rule="nonzero"/><path fill="#9e9e9e" d="M27.596874 92.32524L27.596874 93.340866L21.909374 93.340866Q21.909374 92.965866 22.034374 92.60649Q22.253124 92.028366 22.721874 91.465866Q23.20625 90.903366 24.1125 90.16899Q25.51875 89.01274 26.003124 88.340866Q26.503124 87.66899 26.503124 87.07524Q26.503124 86.45024 26.05 86.028366Q25.596874 85.590866 24.878124 85.590866Q24.1125 85.590866 23.659374 86.04399Q23.20625 86.497116 23.190624 87.309616L22.1125 87.20024Q22.221874 85.98149 22.940624 85.35649Q23.675 84.715866 24.909374 84.715866Q26.14375 84.715866 26.8625 85.403366Q27.58125 86.090866 27.58125 87.10649Q27.58125 87.622116 27.3625 88.122116Q27.159374 88.60649 26.659374 89.16899Q26.175 89.715866 25.05 90.66899Q24.096874 91.465866 23.815624 91.76274Q23.55 92.04399 23.378124 92.32524L27.596874 92.32524ZM29.6125 93.340866L29.6125 92.13774L30.815624 92.13774L30.815624 93.340866Q30.815624 93.997116 30.58125 94.403366Q30.346874 94.82524 29.846874 95.04399L29.55 94.590866Q29.878124 94.45024 30.034374 94.153366Q30.190624 93.872116 30.221874 93.340866L29.6125 93.340866ZM32.1125 85.872116L32.1125 84.85649L37.675 84.85649L37.675 85.684616Q36.8625 86.559616 36.05 88.01274Q35.253124 89.45024 34.815624 90.98149Q34.4875 92.059616 34.409374 93.340866L33.315624 93.340866Q33.33125 92.32524 33.70625 90.88774Q34.096874 89.45024 34.8 88.122116Q35.51875 86.79399 36.33125 85.872116L32.1125 85.872116ZM39.253124 86.809616Q39.253124 85.88774 39.70625 85.247116Q40.175 84.60649 41.05 84.60649Q41.8625 84.60649 42.39375 85.184616Q42.925 85.76274 42.925 86.872116Q42.925 87.965866 42.378124 88.559616Q41.846874 89.13774 41.065624 89.13774Q40.284374 89.13774 39.76875 88.559616Q39.253124 87.98149 39.253124 86.809616ZM41.08125 85.32524Q40.690624 85.32524 40.425 85.66899Q40.175 86.01274 40.175 86.91899Q40.175 87.747116 40.425 88.090866Q40.690624 88.41899 41.08125 88.41899Q41.4875 88.41899 41.7375 88.07524Q42.003124 87.73149 42.003124 86.840866Q42.003124 85.997116 41.7375 85.66899Q41.471874 85.32524 41.08125 85.32524ZM41.08125 93.653366L45.784374 84.60649L46.64375 84.60649L41.95625 93.653366L41.08125 93.653366ZM44.8 91.32524Q44.8 90.403366 45.253124 89.76274Q45.721874 89.122116 46.6125 89.122116Q47.425 89.122116 47.95625 89.70024Q48.4875 90.26274 48.4875 91.38774Q48.4875 92.48149 47.940624 93.07524Q47.409374 93.653366 46.6125 93.653366Q45.846874 93.653366 45.315624 93.07524Q44.8 92.497116 44.8 91.32524ZM46.64375 89.840866Q46.2375 89.840866 45.971874 90.184616Q45.721874 90.528366 45.721874 91.434616Q45.721874 92.247116 45.9875 92.590866Q46.253124 92.934616 46.64375 92.934616Q47.034374 92.934616 47.3 92.590866Q47.565624 92.247116 47.565624 91.340866Q47.565624 90.51274 47.3 90.184616Q47.034374 89.840866 46.64375 89.840866Z" fill-rule="nonzero"/><path stroke="#757575" stroke-width="1.0" stroke-linecap="butt" d="M21.55 80.840866L146.23334 80.840866L290.77097 104.48212" fill-rule="nonzero"/><path fill="#9e9e9e" d="M292.77097 104.48212C292.77097 103.37755 291.87552 102.48212 290.77097 102.48212C289.66638 102.48212 288.77097 103.37755 288.77097 104.48212C288.77097 105.586685 289.66638 106.48212 290.77097 106.48212C291.87552 106.48212 292.77097 105.586685 292.77097 104.48212" fill-rule="nonzero"/><path fill="#1a1a1a" d="M22.471874 107.340866L22.471874 98.747116L25.440624 98.747116Q26.440624 98.747116 26.971874 98.872116Q27.70625 99.04399 28.221874 99.48149Q28.909374 100.059616 29.2375 100.965866Q29.58125 101.85649 29.58125 102.997116Q29.58125 103.98149 29.346874 104.73149Q29.128124 105.48149 28.76875 105.98149Q28.409374 106.48149 27.971874 106.76274Q27.55 107.04399 26.95625 107.20024Q26.3625 107.340866 25.58125 107.340866L22.471874 107.340866ZM23.6125 106.32524L25.440624 106.32524Q26.3 106.32524 26.784374 106.16899Q27.26875 106.01274 27.55 105.715866Q27.95625 105.32524 28.175 104.63774Q28.409374 103.95024 28.409374 102.98149Q28.409374 101.63774 27.95625 100.91899Q27.51875 100.184616 26.89375 99.934616Q26.425 99.76274 25.425 99.76274L23.6125 99.76274L23.6125 106.32524ZM31.346874 99.965866L31.346874 98.747116L32.409374 98.747116L32.409374 99.965866L31.346874 99.965866ZM31.346874 107.340866L31.346874 101.122116L32.409374 101.122116L32.409374 107.340866L31.346874 107.340866ZM33.925 105.48149L34.95625 105.32524Q35.05 105.95024 35.440624 106.278366Q35.846874 106.60649 36.58125 106.60649Q37.3 106.60649 37.64375 106.32524Q38.003124 106.028366 38.003124 105.622116Q38.003124 105.26274 37.690624 105.059616Q37.471874 104.91899 36.6125 104.70024Q35.45625 104.403366 35.003124 104.20024Q34.565624 103.98149 34.33125 103.60649Q34.096874 103.23149 34.096874 102.76274Q34.096874 102.35649 34.284374 101.997116Q34.471874 101.63774 34.8 101.403366Q35.05 101.23149 35.471874 101.10649Q35.89375 100.98149 36.39375 100.98149Q37.1125 100.98149 37.659374 101.20024Q38.221874 101.403366 38.4875 101.76274Q38.753124 102.122116 38.846874 102.715866L37.815624 102.85649Q37.753124 102.38774 37.409374 102.122116Q37.08125 101.840866 36.45625 101.840866Q35.7375 101.840866 35.425 102.090866Q35.1125 102.32524 35.1125 102.653366Q35.1125 102.85649 35.2375 103.01274Q35.378124 103.184616 35.64375 103.29399Q35.8 103.35649 36.58125 103.559616Q37.70625 103.872116 38.14375 104.059616Q38.58125 104.247116 38.83125 104.60649Q39.08125 104.965866 39.08125 105.51274Q39.08125 106.04399 38.76875 106.51274Q38.471874 106.965866 37.89375 107.23149Q37.315624 107.48149 36.58125 107.48149Q35.3625 107.48149 34.721874 106.98149Q34.096874 106.465866 33.925 105.48149ZM39.95625 104.23149Q39.95625 102.497116 40.909374 101.66899Q41.70625 100.98149 42.8625 100.98149Q44.14375 100.98149 44.95625 101.82524Q45.784374 102.653366 45.784374 104.13774Q45.784374 105.340866 45.425 106.028366Q45.065624 106.715866 44.3625 107.10649Q43.675 107.48149 42.8625 107.48149Q41.565624 107.48149 40.753124 106.653366Q39.95625 105.809616 39.95625 104.23149ZM41.034374 104.23149Q41.034374 105.41899 41.55 106.01274Q42.08125 106.60649 42.8625 106.60649Q43.659374 106.60649 44.175 106.01274Q44.690624 105.41899 44.690624 104.20024Q44.690624 103.04399 44.159374 102.45024Q43.64375 101.85649 42.8625 101.85649Q42.08125 101.85649 41.55 102.45024Q41.034374 103.028366 41.034374 104.23149ZM51.409374 105.059616L52.440624 105.20024Q52.26875 106.26274 51.565624 106.872116Q50.8625 107.48149 49.846874 107.48149Q48.565624 107.48149 47.784374 106.653366Q47.01875 105.809616 47.01875 104.247116Q47.01875 103.247116 47.346874 102.497116Q47.690624 101.73149 48.3625 101.35649Q49.05 100.98149 49.8625 100.98149Q50.8625 100.98149 51.503124 101.497116Q52.159374 101.997116 52.346874 102.95024L51.315624 103.10649Q51.175 102.48149 50.8 102.16899Q50.425 101.840866 49.89375 101.840866Q49.096874 101.840866 48.596874 102.41899Q48.096874 102.98149 48.096874 104.215866Q48.096874 105.48149 48.58125 106.04399Q49.065624 106.60649 49.83125 106.60649Q50.45625 106.60649 50.8625 106.23149Q51.284374 105.85649 51.409374 105.059616ZM57.409374 105.059616L58.440624 105.20024Q58.26875 106.26274 57.565624 106.872116Q56.8625 107.48149 55.846874 107.48149Q54.565624 107.48149 53.784374 106.653366Q53.01875 105.809616 53.01875 104.247116Q53.01875 103.247116 53.346874 102.497116Q53.690624 101.73149 54.3625 101.35649Q55.05 100.98149 55.8625 100.98149Q56.8625 100.98149 57.503124 101.497116Q58.159374 101.997116 58.346874 102.95024L57.315624 103.10649Q57.175 102.48149 56.8 102.16899Q56.425 101.840866 55.89375 101.840866Q55.096874 101.840866 54.596874 102.41899Q54.096874 102.98149 54.096874 104.215866Q54.096874 105.48149 54.58125 106.04399Q55.065624 106.60649 55.83125 106.60649Q56.45625 106.60649 56.8625 106.23149Q57.284374 105.85649 57.409374 105.059616ZM63.425 107.340866L63.425 106.41899Q62.690624 107.48149 61.440624 107.48149Q60.89375 107.48149 60.409374 107.278366Q59.940624 107.059616 59.70625 106.747116Q59.471874 106.41899 59.378124 105.95024Q59.315624 105.653366 59.315624 104.965866L59.315624 101.122116L60.378124 101.122116L60.378124 104.57524Q60.378124 105.38774 60.440624 105.684616Q60.534374 106.090866 60.846874 106.340866Q61.175 106.57524 61.659374 106.57524Q62.128124 106.57524 62.534374 106.340866Q62.95625 106.090866 63.128124 105.66899Q63.315624 105.247116 63.315624 104.45024L63.315624 101.122116L64.3625 101.122116L64.3625 107.340866L63.425 107.340866ZM66.34688 109.73149L66.34688 101.122116L67.3 101.122116L67.3 101.91899Q67.64375 101.45024 68.06563 101.215866Q68.50313 100.98149 69.1125 100.98149Q69.90938 100.98149 70.51875 101.38774Q71.12813 101.79399 71.425 102.54399Q71.7375 103.29399 71.7375 104.184616Q71.7375 105.13774 71.39375 105.903366Q71.06563 106.66899 70.40938 107.07524Q69.75313 107.48149 69.03438 107.48149Q68.50313 107.48149 68.08125 107.26274Q67.65938 107.028366 67.39375 106.70024L67.39375 109.73149L66.34688 109.73149ZM67.3 104.26274Q67.3 105.465866 67.78438 106.04399Q68.26875 106.60649 68.95625 106.60649Q69.65938 106.60649 70.15938 106.01274Q70.65938 105.41899 70.65938 104.16899Q70.65938 102.98149 70.175 102.403366Q69.69063 101.809616 69.00313 101.809616Q68.33125 101.809616 67.81563 102.434616Q67.3 103.059616 67.3 104.26274ZM77.40938 106.57524Q76.81563 107.07524 76.26875 107.278366Q75.7375 107.48149 75.1125 107.48149Q74.08125 107.48149 73.53438 106.98149Q72.9875 106.48149 72.9875 105.70024Q72.9875 105.247116 73.19063 104.872116Q73.39375 104.48149 73.7375 104.26274Q74.08125 104.028366 74.50313 103.91899Q74.8 103.82524 75.44063 103.747116Q76.70625 103.60649 77.31563 103.38774Q77.31563 103.16899 77.31563 103.122116Q77.31563 102.465866 77.01875 102.20024Q76.6125 101.85649 75.81563 101.85649Q75.08125 101.85649 74.72188 102.122116Q74.3625 102.372116 74.19063 103.028366L73.15938 102.88774Q73.3 102.23149 73.62813 101.82524Q73.95625 101.41899 74.56563 101.20024Q75.175 100.98149 75.97188 100.98149Q76.76875 100.98149 77.26875 101.16899Q77.76875 101.35649 78.00313 101.63774Q78.2375 101.91899 78.33125 102.35649Q78.37813 102.622116 78.37813 103.32524L78.37813 104.73149Q78.37813 106.20024 78.44063 106.590866Q78.51875 106.98149 78.72188 107.340866L77.6125 107.340866Q77.45625 107.01274 77.40938 106.57524ZM77.31563 104.215866Q76.7375 104.45024 75.59688 104.622116Q74.94063 104.715866 74.675 104.840866Q74.40938 104.95024 74.25313 105.16899Q74.1125 105.38774 74.1125 105.66899Q74.1125 106.090866 74.425 106.372116Q74.75313 106.653366 75.3625 106.653366Q75.97188 106.653366 76.44063 106.38774Q76.925 106.122116 77.14375 105.653366Q77.31563 105.29399 77.31563 104.60649L77.31563 104.215866ZM82.64375 106.403366L82.8 107.32524Q82.34688 107.41899 82.00313 107.41899Q81.425 107.41899 81.1125 107.247116Q80.8 107.059616 80.65938 106.76274Q80.53438 106.465866 80.53438 105.51274L80.53438 101.934616L79.76875 101.934616L79.76875 101.122116L80.53438 101.122116L80.53438 99.57524L81.58125 98.95024L81.58125 101.122116L82.64375 101.122116L82.64375 101.934616L81.58125 101.934616L81.58125 105.57524Q81.58125 106.028366 81.62813 106.153366Q81.69063 106.278366 81.81563 106.35649Q81.94063 106.434616 82.175 106.434616Q82.3625 106.434616 82.64375 106.403366ZM82.95625 104.23149Q82.95625 102.497116 83.90938 101.66899Q84.70625 100.98149 85.8625 100.98149Q87.14375 100.98149 87.95625 101.82524Q88.78438 102.653366 88.78438 104.13774Q88.78438 105.340866 88.425 106.028366Q88.06563 106.715866 87.3625 107.10649Q86.675 107.48149 85.8625 107.48149Q84.56563 107.48149 83.75313 106.653366Q82.95625 105.809616 82.95625 104.23149ZM84.03438 104.23149Q84.03438 105.41899 84.55 106.01274Q85.08125 106.60649 85.8625 106.60649Q86.65938 106.60649 87.175 106.01274Q87.69063 105.41899 87.69063 104.20024Q87.69063 103.04399 87.15938 102.45024Q86.64375 101.85649 85.8625 101.85649Q85.08125 101.85649 84.55 102.45024Q84.03438 103.028366 84.03438 104.23149Z" fill-rule="nonzero"/><path fill="#9e9e9e" d="M27.596874 123.32524L27.596874 124.340866L21.909374 124.340866Q21.909374 123.965866 22.034374 123.60649Q22.253124 123.028366 22.721874 122.465866Q23.20625 121.903366 24.1125 121.16899Q25.51875 120.01274 26.003124 119.340866Q26.503124 118.66899 26.503124 118.07524Q26.503124 117.45024 26.05 117.028366Q25.596874 116.590866 24.878124 116.590866Q24.1125 116.590866 23.659374 117.04399Q23.20625 117.497116 23.190624 118.309616L22.1125 118.20024Q22.221874 116.98149 22.940624 116.35649Q23.675 115.715866 24.909374 115.715866Q26.14375 115.715866 26.8625 116.403366Q27.58125 117.090866 27.58125 118.10649Q27.58125 118.622116 27.3625 119.122116Q27.159374 119.60649 26.659374 120.16899Q26.175 120.715866 25.05 121.66899Q24.096874 122.465866 23.815624 122.76274Q23.55 123.04399 23.378124 123.32524L27.596874 123.32524ZM29.6125 124.340866L29.6125 123.13774L30.815624 123.13774L30.815624 124.340866Q30.815624 124.997116 30.58125 125.403366Q30.346874 125.82524 29.846874 126.04399L29.55 125.590866Q29.878124 125.45024 30.034374 125.153366Q30.190624 124.872116 30.221874 124.340866L29.6125 124.340866ZM32.1125 116.872116L32.1125 115.85649L37.675 115.85649L37.675 116.684616Q36.8625 117.559616 36.05 119.01274Q35.253124 120.45024 34.815624 121.98149Q34.4875 123.059616 34.409374 124.340866L33.315624 124.340866Q33.33125 123.32524 33.70625 121.88774Q34.096874 120.45024 34.8 119.122116Q35.51875 117.79399 36.33125 116.872116L32.1125 116.872116ZM39.253124 117.809616Q39.253124 116.88774 39.70625 116.247116Q40.175 115.60649 41.05 115.60649Q41.8625 115.60649 42.39375 116.184616Q42.925 116.76274 42.925 117.872116Q42.925 118.965866 42.378124 119.559616Q41.846874 120.13774 41.065624 120.13774Q40.284374 120.13774 39.76875 119.559616Q39.253124 118.98149 39.253124 117.809616ZM41.08125 116.32524Q40.690624 116.32524 40.425 116.66899Q40.175 117.01274 40.175 117.91899Q40.175 118.747116 40.425 119.090866Q40.690624 119.41899 41.08125 119.41899Q41.4875 119.41899 41.7375 119.07524Q42.003124 118.73149 42.003124 117.840866Q42.003124 116.997116 41.7375 116.66899Q41.471874 116.32524 41.08125 116.32524ZM41.08125 124.653366L45.784374 115.60649L46.64375 115.60649L41.95625 124.653366L41.08125 124.653366ZM44.8 122.32524Q44.8 121.403366 45.253124 120.76274Q45.721874 120.122116 46.6125 120.122116Q47.425 120.122116 47.95625 120.70024Q48.4875 121.26274 48.4875 122.38774Q48.4875 123.48149 47.940624 124.07524Q47.409374 124.653366 46.6125 124.653366Q45.846874 124.653366 45.315624 124.07524Q44.8 123.497116 44.8 122.32524ZM46.64375 120.840866Q46.2375 120.840866 45.971874 121.184616Q45.721874 121.528366 45.721874 122.434616Q45.721874 123.247116 45.9875 123.590866Q46.253124 123.934616 46.64375 123.934616Q47.034374 123.934616 47.3 123.590866Q47.565624 123.247116 47.565624 122.340866Q47.565624 121.51274 47.3 121.184616Q47.034374 120.840866 46.64375 120.840866Z" fill-rule="nonzero"/><path stroke="#757575" stroke-width="1.0" stroke-linecap="butt" d="M21.55 111.840866L146.23334 111.840866L249.25113 111.44331" fill-rule="nonzero"/><path fill="#9e9e9e" d="M251.25113 111.44331C251.25113 110.338745 250.3557 109.44331 249.25113 109.44331C248.14656 109.44331 247.25113 110.338745 247.25113 111.44331C247.25113 112.54788 248.14656 113.44331 249.25113 113.44331C250.3557 113.44331 251.25113 112.54788 251.25113 111.44331" fill-rule="nonzero"/><path fill="#1a1a1a" d="M28.6125 135.32524L29.7375 135.62212Q29.378124 137.01274 28.45625 137.74712Q27.534374 138.48149 26.190624 138.48149Q24.8 138.48149 23.925 137.91899Q23.05 137.35649 22.596874 136.29399Q22.14375 135.21587 22.14375 133.98149Q22.14375 132.63774 22.659374 131.63774Q23.175 130.63774 24.1125 130.12212Q25.065624 129.60649 26.20625 129.60649Q27.4875 129.60649 28.3625 130.26274Q29.253124 130.91899 29.596874 132.10649L28.471874 132.37212Q28.175 131.43462 27.596874 131.01274Q27.034374 130.57524 26.175 130.57524Q25.190624 130.57524 24.51875 131.05962Q23.8625 131.52837 23.58125 132.32524Q23.315624 133.12212 23.315624 133.98149Q23.315624 135.07524 23.628124 135.88774Q23.95625 136.70024 24.628124 137.10649Q25.3 137.51274 26.096874 137.51274Q27.05 137.51274 27.70625 136.96587Q28.378124 136.41899 28.6125 135.32524ZM35.409374 137.57524Q34.815624 138.07524 34.26875 138.27837Q33.7375 138.48149 33.1125 138.48149Q32.08125 138.48149 31.534374 137.98149Q30.9875 137.48149 30.9875 136.70024Q30.9875 136.24712 31.190624 135.87212Q31.39375 135.48149 31.7375 135.26274Q32.08125 135.02837 32.503124 134.91899Q32.8 134.82524 33.440624 134.74712Q34.70625 134.60649 35.315624 134.38774Q35.315624 134.16899 35.315624 134.12212Q35.315624 133.46587 35.01875 133.20024Q34.6125 132.85649 33.815624 132.85649Q33.08125 132.85649 32.721874 133.12212Q32.3625 133.37212 32.190624 134.02837L31.159374 133.88774Q31.3 133.23149 31.628124 132.82524Q31.95625 132.41899 32.565624 132.20024Q33.175 131.98149 33.971874 131.98149Q34.76875 131.98149 35.26875 132.16899Q35.76875 132.35649 36.003124 132.63774Q36.2375 132.91899 36.33125 133.35649Q36.378124 133.62212 36.378124 134.32524L36.378124 135.73149Q36.378124 137.20024 36.440624 137.59087Q36.51875 137.98149 36.721874 138.34087L35.6125 138.34087Q35.45625 138.01274 35.409374 137.57524ZM35.315624 135.21587Q34.7375 135.45024 33.596874 135.62212Q32.940624 135.71587 32.675 135.84087Q32.409374 135.95024 32.253124 136.16899Q32.1125 136.38774 32.1125 136.66899Q32.1125 137.09087 32.425 137.37212Q32.753124 137.65337 33.3625 137.65337Q33.971874 137.65337 34.440624 137.38774Q34.925 137.12212 35.14375 136.65337Q35.315624 136.29399 35.315624 135.60649L35.315624 135.21587ZM37.925 136.48149L38.95625 136.32524Q39.05 136.95024 39.440624 137.27837Q39.846874 137.60649 40.58125 137.60649Q41.3 137.60649 41.64375 137.32524Q42.003124 137.02837 42.003124 136.62212Q42.003124 136.26274 41.690624 136.05962Q41.471874 135.91899 40.6125 135.70024Q39.45625 135.40337 39.003124 135.20024Q38.565624 134.98149 38.33125 134.60649Q38.096874 134.23149 38.096874 133.76274Q38.096874 133.35649 38.284374 132.99712Q38.471874 132.63774 38.8 132.40337Q39.05 132.23149 39.471874 132.10649Q39.89375 131.98149 40.39375 131.98149Q41.1125 131.98149 41.659374 132.20024Q42.221874 132.40337 42.4875 132.76274Q42.753124 133.12212 42.846874 133.71587L41.815624 133.85649Q41.753124 133.38774 41.409374 133.12212Q41.08125 132.84087 40.45625 132.84087Q39.7375 132.84087 39.425 133.09087Q39.1125 133.32524 39.1125 133.65337Q39.1125 133.85649 39.2375 134.01274Q39.378124 134.18462 39.64375 134.29399Q39.8 134.35649 40.58125 134.55962Q41.70625 134.87212 42.14375 135.05962Q42.58125 135.24712 42.83125 135.60649Q43.08125 135.96587 43.08125 136.51274Q43.08125 137.04399 42.76875 137.51274Q42.471874 137.96587 41.89375 138.23149Q41.315624 138.48149 40.58125 138.48149Q39.3625 138.48149 38.721874 137.98149Q38.096874 137.46587 37.925 136.48149ZM48.409374 137.57524Q47.815624 138.07524 47.26875 138.27837Q46.7375 138.48149 46.1125 138.48149Q45.08125 138.48149 44.534374 137.98149Q43.9875 137.48149 43.9875 136.70024Q43.9875 136.24712 44.190624 135.87212Q44.39375 135.48149 44.7375 135.26274Q45.08125 135.02837 45.503124 134.91899Q45.8 134.82524 46.440624 134.74712Q47.70625 134.60649 48.315624 134.38774Q48.315624 134.16899 48.315624 134.12212Q48.315624 133.46587 48.01875 133.20024Q47.6125 132.85649 46.815624 132.85649Q46.08125 132.85649 45.721874 133.12212Q45.3625 133.37212 45.190624 134.02837L44.159374 133.88774Q44.3 133.23149 44.628124 132.82524Q44.95625 132.41899 45.565624 132.20024Q46.175 131.98149 46.971874 131.98149Q47.76875 131.98149 48.26875 132.16899Q48.76875 132.35649 49.003124 132.63774Q49.2375 132.91899 49.33125 133.35649Q49.378124 133.62212 49.378124 134.32524L49.378124 135.73149Q49.378124 137.20024 49.440624 137.59087Q49.51875 137.98149 49.721874 138.34087L48.6125 138.34087Q48.45625 138.01274 48.409374 137.57524ZM48.315624 135.21587Q47.7375 135.45024 46.596874 135.62212Q45.940624 135.71587 45.675 135.84087Q45.409374 135.95024 45.253124 136.16899Q45.1125 136.38774 45.1125 136.66899Q45.1125 137.09087 45.425 137.37212Q45.753124 137.65337 46.3625 137.65337Q46.971874 137.65337 47.440624 137.38774Q47.925 137.12212 48.14375 136.65337Q48.315624 136.29399 48.315624 135.60649L48.315624 135.21587ZM51.315624 138.34087L51.315624 129.74712L52.378124 129.74712L52.378124 138.34087L51.315624 138.34087ZM54.346874 130.96587L54.346874 129.74712L55.409374 129.74712L55.409374 130.96587L54.346874 130.96587ZM54.346874 138.34087L54.346874 132.12212L55.409374 132.12212L55.409374 138.34087L54.346874 138.34087ZM57.346874 138.34087L57.346874 132.12212L58.284374 132.12212L58.284374 132.99712Q58.971874 131.98149 60.26875 131.98149Q60.83125 131.98149 61.3 132.18462Q61.784374 132.38774 62.01875 132.71587Q62.253124 133.04399 62.346874 133.48149Q62.39375 133.77837 62.39375 134.51274L62.39375 138.34087L61.346874 138.34087L61.346874 134.55962Q61.346874 133.90337 61.221874 133.59087Q61.096874 133.27837 60.784374 133.09087Q60.471874 132.88774 60.05 132.88774Q59.378124 132.88774 58.878124 133.32524Q58.39375 133.74712 58.39375 134.93462L58.39375 138.34087L57.346874 138.34087ZM64.14375 138.85649L65.175 139.01274Q65.2375 139.48149 65.53438 139.70024Q65.925 139.99712 66.59688 139.99712Q67.33125 139.99712 67.72188 139.70024Q68.12813 139.40337 68.26875 138.88774Q68.3625 138.55962 68.34688 137.52837Q67.65938 138.34087 66.62813 138.34087Q65.34688 138.34087 64.64375 137.41899Q63.940624 136.48149 63.940624 135.20024Q63.940624 134.30962 64.25313 133.55962Q64.58125 132.79399 65.19063 132.38774Q65.8 131.98149 66.62813 131.98149Q67.7375 131.98149 68.45625 132.87212L68.45625 132.12212L69.425 132.12212L69.425 137.49712Q69.425 138.95024 69.12813 139.55962Q68.83125 140.16899 68.19063 140.51274Q67.55 140.87212 66.6125 140.87212Q65.50313 140.87212 64.81563 140.37212Q64.12813 139.87212 64.14375 138.85649ZM65.01875 135.12212Q65.01875 136.34087 65.50313 136.90337Q65.9875 137.46587 66.72188 137.46587Q67.45625 137.46587 67.94063 136.90337Q68.44063 136.34087 68.44063 135.15337Q68.44063 134.01274 67.925 133.43462Q67.425 132.85649 66.70625 132.85649Q66.00313 132.85649 65.50313 133.43462Q65.01875 133.99712 65.01875 135.12212ZM75.40938 137.57524Q74.81563 138.07524 74.26875 138.27837Q73.7375 138.48149 73.1125 138.48149Q72.08125 138.48149 71.53438 137.98149Q70.9875 137.48149 70.9875 136.70024Q70.9875 136.24712 71.19063 135.87212Q71.39375 135.48149 71.7375 135.26274Q72.08125 135.02837 72.50313 134.91899Q72.8 134.82524 73.44063 134.74712Q74.70625 134.60649 75.31563 134.38774Q75.31563 134.16899 75.31563 134.12212Q75.31563 133.46587 75.01875 133.20024Q74.6125 132.85649 73.81563 132.85649Q73.08125 132.85649 72.72188 133.12212Q72.3625 133.37212 72.19063 134.02837L71.15938 133.88774Q71.3 133.23149 71.62813 132.82524Q71.95625 132.41899 72.56563 132.20024Q73.175 131.98149 73.97188 131.98149Q74.76875 131.98149 75.26875 132.16899Q75.76875 132.35649 76.00313 132.63774Q76.2375 132.91899 76.33125 133.35649Q76.37813 133.62212 76.37813 134.32524L76.37813 135.73149Q76.37813 137.20024 76.44063 137.59087Q76.51875 137.98149 76.72188 138.34087L75.6125 138.34087Q75.45625 138.01274 75.40938 137.57524ZM75.31563 135.21587Q74.7375 135.45024 73.59688 135.62212Q72.94063 135.71587 72.675 135.84087Q72.40938 135.95024 72.25313 136.16899Q72.1125 136.38774 72.1125 136.66899Q72.1125 137.09087 72.425 137.37212Q72.75313 137.65337 73.3625 137.65337Q73.97188 137.65337 74.44063 137.38774Q74.925 137.12212 75.14375 136.65337Q75.31563 136.29399 75.31563 135.60649L75.31563 135.21587Z" fill-rule="nonzero"/><path fill="#9e9e9e" d="M26.01875 155.34087L24.971874 155.34087L24.971874 148.62212Q24.58125 148.98149 23.95625 149.35649Q23.346874 149.71587 22.8625 149.88774L22.8625 148.87212Q23.7375 148.45024 24.39375 147.87212Q25.065624 147.27837 25.346874 146.71587L26.01875 146.71587L26.01875 155.34087ZM29.6125 155.34087L29.6125 154.13774L30.815624 154.13774L30.815624 155.34087Q30.815624 155.99712 30.58125 156.40337Q30.346874 156.82524 29.846874 157.04399L29.55 156.59087Q29.878124 156.45024 30.034374 156.15337Q30.190624 155.87212 30.221874 155.34087L29.6125 155.34087ZM35.425 155.34087L35.425 153.27837L31.70625 153.27837L31.70625 152.30962L35.628124 146.74712L36.4875 146.74712L36.4875 152.30962L37.64375 152.30962L37.64375 153.27837L36.4875 153.27837L36.4875 155.34087L35.425 155.34087ZM35.425 152.30962L35.425 148.45024L32.7375 152.30962L35.425 152.30962ZM39.253124 148.80962Q39.253124 147.88774 39.70625 147.24712Q40.175 146.60649 41.05 146.60649Q41.8625 146.60649 42.39375 147.18462Q42.925 147.76274 42.925 148.87212Q42.925 149.96587 42.378124 150.55962Q41.846874 151.13774 41.065624 151.13774Q40.284374 151.13774 39.76875 150.55962Q39.253124 149.98149 39.253124 148.80962ZM41.08125 147.32524Q40.690624 147.32524 40.425 147.66899Q40.175 148.01274 40.175 148.91899Q40.175 149.74712 40.425 150.09087Q40.690624 150.41899 41.08125 150.41899Q41.4875 150.41899 41.7375 150.07524Q42.003124 149.73149 42.003124 148.84087Q42.003124 147.99712 41.7375 147.66899Q41.471874 147.32524 41.08125 147.32524ZM41.08125 155.65337L45.784374 146.60649L46.64375 146.60649L41.95625 155.65337L41.08125 155.65337ZM44.8 153.32524Q44.8 152.40337 45.253124 151.76274Q45.721874 151.12212 46.6125 151.12212Q47.425 151.12212 47.95625 151.70024Q48.4875 152.26274 48.4875 153.38774Q48.4875 154.48149 47.940624 155.07524Q47.409374 155.65337 46.6125 155.65337Q45.846874 155.65337 45.315624 155.07524Q44.8 154.49712 44.8 153.32524ZM46.64375 151.84087Q46.2375 151.84087 45.971874 152.18462Q45.721874 152.52837 45.721874 153.43462Q45.721874 154.24712 45.9875 154.59087Q46.253124 154.93462 46.64375 154.93462Q47.034374 154.93462 47.3 154.59087Q47.565624 154.24712 47.565624 153.34087Q47.565624 152.51274 47.3 152.18462Q47.034374 151.84087 46.64375 151.84087Z" fill-rule="nonzero"/><path stroke="#757575" stroke-width="1.0" stroke-linecap="butt" d="M21.55 142.84087L146.23334 142.84087L227.44698 119.19962" fill-rule="nonzero"/><path fill="#9e9e9e" d="M229.44698 119.19962C229.44698 118.095055 228.55154 117.19962 227.44698 117.19962C226.3424 117.19962 225.44698 118.095055 225.44698 119.19962C225.44698 120.30419 226.3424 121.19962 227.44698 121.19962C228.55154 121.19962 229.44698 120.30419 229.44698 119.19962" fill-rule="nonzero"/><path fill="#1a1a1a" d="M22.675 217.98871L22.675 209.39496L23.8 209.39496L23.8 217.98871L22.675 217.98871ZM25.346874 217.98871L25.346874 211.76996L26.284374 211.76996L26.284374 212.64496Q26.58125 212.17621 27.065624 211.91058Q27.55 211.62933 28.175 211.62933Q28.8625 211.62933 29.3 211.91058Q29.753124 212.19183 29.925 212.70746Q30.675 211.62933 31.846874 211.62933Q32.784374 211.62933 33.26875 212.14496Q33.76875 212.64496 33.76875 213.72308L33.76875 217.98871L32.721874 217.98871L32.721874 214.06683Q32.721874 213.44183 32.6125 213.16058Q32.51875 212.87933 32.253124 212.70746Q31.9875 212.53558 31.6125 212.53558Q30.95625 212.53558 30.51875 212.97308Q30.096874 213.41058 30.096874 214.37933L30.096874 217.98871L29.034374 217.98871L29.034374 213.94183Q29.034374 213.23871 28.76875 212.89496Q28.51875 212.53558 27.940624 212.53558Q27.4875 212.53558 27.1125 212.76996Q26.7375 213.00433 26.565624 213.45746Q26.39375 213.91058 26.39375 214.75433L26.39375 217.98871L25.346874 217.98871ZM35.346874 220.37933L35.346874 211.76996L36.3 211.76996L36.3 212.56683Q36.64375 212.09808 37.065624 211.86371Q37.503124 211.62933 38.1125 211.62933Q38.909374 211.62933 39.51875 212.03558Q40.128124 212.44183 40.425 213.19183Q40.7375 213.94183 40.7375 214.83246Q40.7375 215.78558 40.39375 216.55121Q40.065624 217.31683 39.409374 217.72308Q38.753124 218.12933 38.034374 218.12933Q37.503124 218.12933 37.08125 217.91058Q36.659374 217.67621 36.39375 217.34808L36.39375 220.37933L35.346874 220.37933ZM36.3 214.91058Q36.3 216.11371 36.784374 216.69183Q37.26875 217.25433 37.95625 217.25433Q38.659374 217.25433 39.159374 216.66058Q39.659374 216.06683 39.659374 214.81683Q39.659374 213.62933 39.175 213.05121Q38.690624 212.45746 38.003124 212.45746Q37.33125 212.45746 36.815624 213.08246Q36.3 213.70746 36.3 214.91058ZM42.346874 210.61371L42.346874 209.39496L43.409374 209.39496L43.409374 210.61371L42.346874 210.61371ZM42.346874 217.98871L42.346874 211.76996L43.409374 211.76996L43.409374 217.98871L42.346874 217.98871ZM49.596874 215.98871L50.690624 216.11371Q50.440624 217.06683 49.7375 217.59808Q49.034374 218.12933 47.95625 218.12933Q46.596874 218.12933 45.784374 217.28558Q44.9875 216.44183 44.9875 214.92621Q44.9875 213.36371 45.8 212.50433Q46.6125 211.62933 47.89375 211.62933Q49.14375 211.62933 49.925 212.47308Q50.721874 213.31683 50.721874 214.86371Q50.721874 214.95746 50.721874 215.14496L46.08125 215.14496Q46.14375 216.17621 46.659374 216.72308Q47.175 217.25433 47.95625 217.25433Q48.534374 217.25433 48.940624 216.95746Q49.3625 216.64496 49.596874 215.98871ZM46.14375 214.28558L49.6125 214.28558Q49.55 213.48871 49.221874 213.09808Q48.70625 212.48871 47.909374 212.48871Q47.175 212.48871 46.675 212.97308Q46.190624 213.45746 46.14375 214.28558ZM52.14375 218.50433L53.175 218.66058Q53.2375 219.12933 53.534374 219.34808Q53.925 219.64496 54.596874 219.64496Q55.33125 219.64496 55.721874 219.34808Q56.128124 219.05121 56.26875 218.53558Q56.3625 218.20746 56.346874 217.17621Q55.659374 217.98871 54.628124 217.98871Q53.346874 217.98871 52.64375 217.06683Q51.940624 216.12933 51.940624 214.84808Q51.940624 213.95746 52.253124 213.20746Q52.58125 212.44183 53.190624 212.03558Q53.8 211.62933 54.628124 211.62933Q55.7375 211.62933 56.45625 212.51996L56.45625 211.76996L57.425 211.76996L57.425 217.14496Q57.425 218.59808 57.128124 219.20746Q56.83125 219.81683 56.190624 220.16058Q55.55 220.51996 54.6125 220.51996Q53.503124 220.51996 52.815624 220.01996Q52.128124 219.51996 52.14375 218.50433ZM53.01875 214.76996Q53.01875 215.98871 53.503124 216.55121Q53.9875 217.11371 54.721874 217.11371Q55.45625 217.11371 55.940624 216.55121Q56.440624 215.98871 56.440624 214.80121Q56.440624 213.66058 55.925 213.08246Q55.425 212.50433 54.70625 212.50433Q54.003124 212.50433 53.503124 213.08246Q53.01875 213.64496 53.01875 214.76996ZM63.409374 217.22308Q62.815624 217.72308 62.26875 217.92621Q61.7375 218.12933 61.1125 218.12933Q60.08125 218.12933 59.534374 217.62933Q58.9875 217.12933 58.9875 216.34808Q58.9875 215.89496 59.190624 215.51996Q59.39375 215.12933 59.7375 214.91058Q60.08125 214.67621 60.503124 214.56683Q60.8 214.47308 61.440624 214.39496Q62.70625 214.25433 63.315624 214.03558Q63.315624 213.81683 63.315624 213.76996Q63.315624 213.11371 63.01875 212.84808Q62.6125 212.50433 61.815624 212.50433Q61.08125 212.50433 60.721874 212.76996Q60.3625 213.01996 60.190624 213.67621L59.159374 213.53558Q59.3 212.87933 59.628124 212.47308Q59.95625 212.06683 60.565624 211.84808Q61.175 211.62933 61.971874 211.62933Q62.76875 211.62933 63.26875 211.81683Q63.76875 212.00433 64.00313 212.28558Q64.2375 212.56683 64.33125 213.00433Q64.37813 213.26996 64.37813 213.97308L64.37813 215.37933Q64.37813 216.84808 64.44063 217.23871Q64.51875 217.62933 64.72188 217.98871L63.6125 217.98871Q63.45625 217.66058 63.409374 217.22308ZM63.315624 214.86371Q62.7375 215.09808 61.596874 215.26996Q60.940624 215.36371 60.675 215.48871Q60.409374 215.59808 60.253124 215.81683Q60.1125 216.03558 60.1125 216.31683Q60.1125 216.73871 60.425 217.01996Q60.753124 217.30121 61.3625 217.30121Q61.971874 217.30121 62.440624 217.03558Q62.925 216.76996 63.14375 216.30121Q63.315624 215.94183 63.315624 215.25433L63.315624 214.86371ZM68.64375 217.05121L68.8 217.97308Q68.34688 218.06683 68.00313 218.06683Q67.425 218.06683 67.1125 217.89496Q66.8 217.70746 66.65938 217.41058Q66.53438 217.11371 66.53438 216.16058L66.53438 212.58246L65.76875 212.58246L65.76875 211.76996L66.53438 211.76996L66.53438 210.22308L67.58125 209.59808L67.58125 211.76996L68.64375 211.76996L68.64375 212.58246L67.58125 212.58246L67.58125 216.22308Q67.58125 216.67621 67.62813 216.80121Q67.69063 216.92621 67.81563 217.00433Q67.94063 217.08246 68.175 217.08246Q68.3625 217.08246 68.64375 217.05121ZM68.95625 214.87933Q68.95625 213.14496 69.90938 212.31683Q70.70625 211.62933 71.8625 211.62933Q73.14375 211.62933 73.95625 212.47308Q74.78438 213.30121 74.78438 214.78558Q74.78438 215.98871 74.425 216.67621Q74.06563 217.36371 73.3625 217.75433Q72.675 218.12933 71.8625 218.12933Q70.56563 218.12933 69.75313 217.30121Q68.95625 216.45746 68.95625 214.87933ZM70.03438 214.87933Q70.03438 216.06683 70.55 216.66058Q71.08125 217.25433 71.8625 217.25433Q72.65938 217.25433 73.175 216.66058Q73.69063 216.06683 73.69063 214.84808Q73.69063 213.69183 73.15938 213.09808Q72.64375 212.50433 71.8625 212.50433Q71.08125 212.50433 70.55 213.09808Q70.03438 213.67621 70.03438 214.87933Z" fill-rule="nonzero"/><path fill="#9e9e9e" d="M27.596874 233.97308L27.596874 234.98871L21.909374 234.98871Q21.909374 234.61371 22.034374 234.25433Q22.253124 233.67621 22.721874 233.11371Q23.20625 232.55121 24.1125 231.81683Q25.51875 230.66058 26.003124 229.98871Q26.503124 229.31683 26.503124 228.72308Q26.503124 228.09808 26.05 227.67621Q25.596874 227.23871 24.878124 227.23871Q24.1125 227.23871 23.659374 227.69183Q23.20625 228.14496 23.190624 228.95746L22.1125 228.84808Q22.221874 227.62933 22.940624 227.00433Q23.675 226.36371 24.909374 226.36371Q26.14375 226.36371 26.8625 227.05121Q27.58125 227.73871 27.58125 228.75433Q27.58125 229.26996 27.3625 229.76996Q27.159374 230.25433 26.659374 230.81683Q26.175 231.36371 25.05 232.31683Q24.096874 233.11371 23.815624 233.41058Q23.55 233.69183 23.378124 233.97308L27.596874 233.97308ZM29.1125 227.51996L29.1125 226.50433L34.675 226.50433L34.675 227.33246Q33.8625 228.20746 33.05 229.66058Q32.253124 231.09808 31.815624 232.62933Q31.4875 233.70746 31.409374 234.98871L30.315624 234.98871Q30.33125 233.97308 30.70625 232.53558Q31.096874 231.09808 31.8 229.76996Q32.51875 228.44183 33.33125 227.51996L29.1125 227.51996ZM36.6125 234.98871L36.6125 233.78558L37.815624 233.78558L37.815624 234.98871Q37.815624 235.64496 37.58125 236.05121Q37.346874 236.47308 36.846874 236.69183L36.55 236.23871Q36.878124 236.09808 37.034374 235.80121Q37.190624 235.51996 37.221874 234.98871L36.6125 234.98871ZM44.596874 233.97308L44.596874 234.98871L38.909374 234.98871Q38.909374 234.61371 39.034374 234.25433Q39.253124 233.67621 39.721874 233.11371Q40.20625 232.55121 41.1125 231.81683Q42.51875 230.66058 43.003124 229.98871Q43.503124 229.31683 43.503124 228.72308Q43.503124 228.09808 43.05 227.67621Q42.596874 227.23871 41.878124 227.23871Q41.1125 227.23871 40.659374 227.69183Q40.20625 228.14496 40.190624 228.95746L39.1125 228.84808Q39.221874 227.62933 39.940624 227.00433Q40.675 226.36371 41.909374 226.36371Q43.14375 226.36371 43.8625 227.05121Q44.58125 227.73871 44.58125 228.75433Q44.58125 229.26996 44.3625 229.76996Q44.159374 230.25433 43.659374 230.81683Q43.175 231.36371 42.05 232.31683Q41.096874 233.11371 40.815624 233.41058Q40.55 233.69183 40.378124 233.97308L44.596874 233.97308ZM46.253124 228.45746Q46.253124 227.53558 46.70625 226.89496Q47.175 226.25433 48.05 226.25433Q48.8625 226.25433 49.39375 226.83246Q49.925 227.41058 49.925 228.51996Q49.925 229.61371 49.378124 230.20746Q48.846874 230.78558 48.065624 230.78558Q47.284374 230.78558 46.76875 230.20746Q46.253124 229.62933 46.253124 228.45746ZM48.08125 226.97308Q47.690624 226.97308 47.425 227.31683Q47.175 227.66058 47.175 228.56683Q47.175 229.39496 47.425 229.73871Q47.690624 230.06683 48.08125 230.06683Q48.4875 230.06683 48.7375 229.72308Q49.003124 229.37933 49.003124 228.48871Q49.003124 227.64496 48.7375 227.31683Q48.471874 226.97308 48.08125 226.97308ZM48.08125 235.30121L52.784374 226.25433L53.64375 226.25433L48.95625 235.30121L48.08125 235.30121ZM51.8 232.97308Q51.8 232.05121 52.253124 231.41058Q52.721874 230.76996 53.6125 230.76996Q54.425 230.76996 54.95625 231.34808Q55.4875 231.91058 55.4875 233.03558Q55.4875 234.12933 54.940624 234.72308Q54.409374 235.30121 53.6125 235.30121Q52.846874 235.30121 52.315624 234.72308Q51.8 234.14496 51.8 232.97308ZM53.64375 231.48871Q53.2375 231.48871 52.971874 231.83246Q52.721874 232.17621 52.721874 233.08246Q52.721874 233.89496 52.9875 234.23871Q53.253124 234.58246 53.64375 234.58246Q54.034374 234.58246 54.3 234.23871Q54.565624 233.89496 54.565624 232.98871Q54.565624 232.16058 54.3 231.83246Q54.034374 231.48871 53.64375 231.48871Z" fill-rule="nonzero"/><path stroke="#757575" stroke-width="1.0" stroke-linecap="butt" d="M21.55 222.48871L146.23334 222.48871L162.12839 222.48871" fill-rule="nonzero"/><path fill="#9e9e9e" d="M164.12839 222.48871C164.12839 221.38414 163.23296 220.48871 162.12839 220.48871C161.02382 220.48871 160.12839 221.38414 160.12839 222.48871C160.12839 223.59328 161.02382 224.48871 162.12839 224.48871C163.23296 224.48871 164.12839 223.59328 164.12839 222.48871" fill-rule="nonzero"/><path fill="#1a1a1a" d="M22.425 295.6814L22.425 287.08765L23.565624 287.08765L23.565624 294.66577L27.8 294.66577L27.8 295.6814L22.425 295.6814ZM29.346874 288.3064L29.346874 287.08765L30.409374 287.08765L30.409374 288.3064L29.346874 288.3064ZM29.346874 295.6814L29.346874 289.46265L30.409374 289.46265L30.409374 295.6814L29.346874 295.6814ZM33.315624 295.6814L32.33125 295.6814L32.33125 287.08765L33.39375 287.08765L33.39375 290.15015Q34.065624 289.32202 35.096874 289.32202Q35.675 289.32202 36.175 289.5564Q36.690624 289.77515 37.01875 290.19702Q37.3625 290.6189 37.55 291.21265Q37.7375 291.8064 37.7375 292.47827Q37.7375 294.07202 36.940624 294.94702Q36.14375 295.82202 35.05 295.82202Q33.940624 295.82202 33.315624 294.90015L33.315624 295.6814ZM33.3 292.52515Q33.3 293.63452 33.6125 294.13452Q34.1125 294.94702 34.95625 294.94702Q35.64375 294.94702 36.14375 294.35327Q36.659374 293.75952 36.659374 292.5564Q36.659374 291.33765 36.175 290.75952Q35.690624 290.1814 35.003124 290.1814Q34.315624 290.1814 33.8 290.79077Q33.3 291.38452 33.3 292.52515ZM43.596874 293.6814L44.690624 293.8064Q44.440624 294.75952 43.7375 295.29077Q43.034374 295.82202 41.95625 295.82202Q40.596874 295.82202 39.784374 294.97827Q38.9875 294.13452 38.9875 292.6189Q38.9875 291.0564 39.8 290.19702Q40.6125 289.32202 41.89375 289.32202Q43.14375 289.32202 43.925 290.16577Q44.721874 291.00952 44.721874 292.5564Q44.721874 292.65015 44.721874 292.83765L40.08125 292.83765Q40.14375 293.8689 40.659374 294.41577Q41.175 294.94702 41.95625 294.94702Q42.534374 294.94702 42.940624 294.65015Q43.3625 294.33765 43.596874 293.6814ZM40.14375 291.97827L43.6125 291.97827Q43.55 291.1814 43.221874 290.79077Q42.70625 290.1814 41.909374 290.1814Q41.175 290.1814 40.675 290.66577Q40.190624 291.15015 40.14375 291.97827ZM46.33125 295.6814L46.33125 289.46265L47.284374 289.46265L47.284374 290.40015Q47.64375 289.7439 47.940624 289.54077Q48.253124 289.32202 48.628124 289.32202Q49.159374 289.32202 49.70625 289.65015L49.346874 290.63452Q48.95625 290.40015 48.58125 290.40015Q48.221874 290.40015 47.940624 290.6189Q47.675 290.82202 47.565624 291.19702Q47.378124 291.75952 47.378124 292.41577L47.378124 295.6814L46.33125 295.6814ZM49.95625 292.57202Q49.95625 290.83765 50.909374 290.00952Q51.70625 289.32202 52.8625 289.32202Q54.14375 289.32202 54.95625 290.16577Q55.784374 290.9939 55.784374 292.47827Q55.784374 293.6814 55.425 294.3689Q55.065624 295.0564 54.3625 295.44702Q53.675 295.82202 52.8625 295.82202Q51.565624 295.82202 50.753124 294.9939Q49.95625 294.15015 49.95625 292.57202ZM51.034374 292.57202Q51.034374 293.75952 51.55 294.35327Q52.08125 294.94702 52.8625 294.94702Q53.659374 294.94702 54.175 294.35327Q54.690624 293.75952 54.690624 292.54077Q54.690624 291.38452 54.159374 290.79077Q53.64375 290.19702 52.8625 290.19702Q52.08125 290.19702 51.55 290.79077Q51.034374 291.3689 51.034374 292.57202ZM60.346874 298.07202L60.346874 289.46265L61.3 289.46265L61.3 290.25952Q61.64375 289.79077 62.065624 289.5564Q62.503124 289.32202 63.1125 289.32202Q63.909374 289.32202 64.51875 289.72827Q65.12813 290.13452 65.425 290.88452Q65.7375 291.63452 65.7375 292.52515Q65.7375 293.47827 65.39375 294.2439Q65.06563 295.00952 64.40938 295.41577Q63.753124 295.82202 63.034374 295.82202Q62.503124 295.82202 62.08125 295.60327Q61.659374 295.3689 61.39375 295.04077L61.39375 298.07202L60.346874 298.07202ZM61.3 292.60327Q61.3 293.8064 61.784374 294.38452Q62.26875 294.94702 62.95625 294.94702Q63.659374 294.94702 64.15938 294.35327Q64.65938 293.75952 64.65938 292.50952Q64.65938 291.32202 64.175 290.7439Q63.690624 290.15015 63.003124 290.15015Q62.33125 290.15015 61.815624 290.77515Q61.3 291.40015 61.3 292.60327ZM67.33125 295.6814L67.33125 289.46265L68.28438 289.46265L68.28438 290.40015Q68.64375 289.7439 68.94063 289.54077Q69.25313 289.32202 69.62813 289.32202Q70.15938 289.32202 70.70625 289.65015L70.34688 290.63452Q69.95625 290.40015 69.58125 290.40015Q69.22188 290.40015 68.94063 290.6189Q68.675 290.82202 68.56563 291.19702Q68.37813 291.75952 68.37813 292.41577L68.37813 295.6814L67.33125 295.6814ZM70.95625 292.57202Q70.95625 290.83765 71.90938 290.00952Q72.70625 289.32202 73.8625 289.32202Q75.14375 289.32202 75.95625 290.16577Q76.78438 290.9939 76.78438 292.47827Q76.78438 293.6814 76.425 294.3689Q76.06563 295.0564 75.3625 295.44702Q74.675 295.82202 73.8625 295.82202Q72.56563 295.82202 71.75313 294.9939Q70.95625 294.15015 70.95625 292.57202ZM72.03438 292.57202Q72.03438 293.75952 72.55 294.35327Q73.08125 294.94702 73.8625 294.94702Q74.65938 294.94702 75.175 294.35327Q75.69063 293.75952 75.69063 292.54077Q75.69063 291.38452 75.15938 290.79077Q74.64375 290.19702 73.8625 290.19702Q73.08125 290.19702 72.55 290.79077Q72.03438 291.3689 72.03438 292.57202ZM78.59688 295.6814L78.59688 290.27515L77.65938 290.27515L77.65938 289.46265L78.59688 289.46265L78.59688 288.79077Q78.59688 288.16577 78.70625 287.8689Q78.8625 287.44702 79.2375 287.19702Q79.62813 286.94702 80.31563 286.94702Q80.76875 286.94702 81.3 287.0564L81.14375 287.96265Q80.81563 287.91577 80.51875 287.91577Q80.03438 287.91577 79.83125 288.1189Q79.64375 288.32202 79.64375 288.88452L79.64375 289.46265L80.8625 289.46265L80.8625 290.27515L79.64375 290.27515L79.64375 295.6814L78.59688 295.6814ZM85.59688 293.6814L86.69063 293.8064Q86.44063 294.75952 85.7375 295.29077Q85.03438 295.82202 83.95625 295.82202Q82.59688 295.82202 81.78438 294.97827Q80.9875 294.13452 80.9875 292.6189Q80.9875 291.0564 81.8 290.19702Q82.6125 289.32202 83.89375 289.32202Q85.14375 289.32202 85.925 290.16577Q86.72188 291.00952 86.72188 292.5564Q86.72188 292.65015 86.72188 292.83765L82.08125 292.83765Q82.14375 293.8689 82.65938 294.41577Q83.175 294.94702 83.95625 294.94702Q84.53438 294.94702 84.94063 294.65015Q85.3625 294.33765 85.59688 293.6814ZM82.14375 291.97827L85.6125 291.97827Q85.55 291.1814 85.22188 290.79077Q84.70625 290.1814 83.90938 290.1814Q83.175 290.1814 82.675 290.66577Q82.19063 291.15015 82.14375 291.97827ZM87.925 293.82202L88.95625 293.66577Q89.05 294.29077 89.44063 294.6189Q89.84688 294.94702 90.58125 294.94702Q91.3 294.94702 91.64375 294.66577Q92.00313 294.3689 92.00313 293.96265Q92.00313 293.60327 91.69063 293.40015Q91.47188 293.25952 90.6125 293.04077Q89.45625 292.7439 89.00313 292.54077Q88.56563 292.32202 88.33125 291.94702Q88.09688 291.57202 88.09688 291.10327Q88.09688 290.69702 88.28438 290.33765Q88.47188 289.97827 88.8 289.7439Q89.05 289.57202 89.47188 289.44702Q89.89375 289.32202 90.39375 289.32202Q91.1125 289.32202 91.65938 289.54077Q92.22188 289.7439 92.4875 290.10327Q92.75313 290.46265 92.84688 291.0564L91.81563 291.19702Q91.75313 290.72827 91.40938 290.46265Q91.08125 290.1814 90.45625 290.1814Q89.7375 290.1814 89.425 290.4314Q89.1125 290.66577 89.1125 290.9939Q89.1125 291.19702 89.2375 291.35327Q89.37813 291.52515 89.64375 291.63452Q89.8 291.69702 90.58125 291.90015Q91.70625 292.21265 92.14375 292.40015Q92.58125 292.58765 92.83125 292.94702Q93.08125 293.3064 93.08125 293.85327Q93.08125 294.38452 92.76875 294.85327Q92.47188 295.3064 91.89375 295.57202Q91.31563 295.82202 90.58125 295.82202Q89.3625 295.82202 88.72188 295.32202Q88.09688 294.8064 87.925 293.82202ZM93.925 293.82202L94.95625 293.66577Q95.05 294.29077 95.44063 294.6189Q95.84688 294.94702 96.58125 294.94702Q97.3 294.94702 97.64375 294.66577Q98.00313 294.3689 98.00313 293.96265Q98.00313 293.60327 97.69063 293.40015Q97.47188 293.25952 96.6125 293.04077Q95.45625 292.7439 95.00313 292.54077Q94.56563 292.32202 94.33125 291.94702Q94.09688 291.57202 94.09688 291.10327Q94.09688 290.69702 94.28438 290.33765Q94.47188 289.97827 94.8 289.7439Q95.05 289.57202 95.47188 289.44702Q95.89375 289.32202 96.39375 289.32202Q97.1125 289.32202 97.65938 289.54077Q98.22188 289.7439 98.4875 290.10327Q98.75313 290.46265 98.84688 291.0564L97.81563 291.19702Q97.75313 290.72827 97.40938 290.46265Q97.08125 290.1814 96.45625 290.1814Q95.7375 290.1814 95.425 290.4314Q95.1125 290.66577 95.1125 290.9939Q95.1125 291.19702 95.2375 291.35327Q95.37813 291.52515 95.64375 291.63452Q95.8 291.69702 96.58125 291.90015Q97.70625 292.21265 98.14375 292.40015Q98.58125 292.58765 98.83125 292.94702Q99.08125 293.3064 99.08125 293.85327Q99.08125 294.38452 98.76875 294.85327Q98.47188 295.3064 97.89375 295.57202Q97.31563 295.82202 96.58125 295.82202Q95.3625 295.82202 94.72188 295.32202Q94.09688 294.8064 93.925 293.82202ZM100.34688 288.3064L100.34688 287.08765L101.40938 287.08765L101.40938 288.3064L100.34688 288.3064ZM100.34688 295.6814L100.34688 289.46265L101.40938 289.46265L101.40938 295.6814L100.34688 295.6814ZM102.95625 292.57202Q102.95625 290.83765 103.90938 290.00952Q104.70625 289.32202 105.8625 289.32202Q107.14375 289.32202 107.95625 290.16577Q108.78438 290.9939 108.78438 292.47827Q108.78438 293.6814 108.425 294.3689Q108.06563 295.0564 107.3625 295.44702Q106.675 295.82202 105.8625 295.82202Q104.56563 295.82202 103.75313 294.9939Q102.95625 294.15015 102.95625 292.57202ZM104.03438 292.57202Q104.03438 293.75952 104.55 294.35327Q105.08125 294.94702 105.8625 294.94702Q106.65938 294.94702 107.175 294.35327Q107.69063 293.75952 107.69063 292.54077Q107.69063 291.38452 107.15938 290.79077Q106.64375 290.19702 105.8625 290.19702Q105.08125 290.19702 104.55 290.79077Q104.03438 291.3689 104.03438 292.57202ZM110.34688 295.6814L110.34688 289.46265L111.28438 289.46265L111.28438 290.33765Q111.97188 289.32202 113.26875 289.32202Q113.83125 289.32202 114.3 289.52515Q114.78438 289.72827 115.01875 290.0564Q115.25313 290.38452 115.34688 290.82202Q115.39375 291.1189 115.39375 291.85327L115.39375 295.6814L114.34688 295.6814L114.34688 291.90015Q114.34688 291.2439 114.22188 290.9314Q114.09688 290.6189 113.78438 290.4314Q113.47188 290.22827 113.05 290.22827Q112.37813 290.22827 111.87813 290.66577Q111.39375 291.08765 111.39375 292.27515L111.39375 295.6814L110.34688 295.6814ZM117.34688 288.3064L117.34688 287.08765L118.40938 287.08765L118.40938 288.3064L117.34688 288.3064ZM117.34688 295.6814L117.34688 289.46265L118.40938 289.46265L118.40938 295.6814L117.34688 295.6814ZM119.925 293.82202L120.95625 293.66577Q121.05 294.29077 121.44063 294.6189Q121.84688 294.94702 122.58125 294.94702Q123.3 294.94702 123.64375 294.66577Q124.00313 294.3689 124.00313 293.96265Q124.00313 293.60327 123.69063 293.40015Q123.47188 293.25952 122.6125 293.04077Q121.45625 292.7439 121.00313 292.54077Q120.56563 292.32202 120.33125 291.94702Q120.09688 291.57202 120.09688 291.10327Q120.09688 290.69702 120.28438 290.33765Q120.47188 289.97827 120.8 289.7439Q121.05 289.57202 121.47188 289.44702Q121.89375 289.32202 122.39375 289.32202Q123.1125 289.32202 123.65938 289.54077Q124.22188 289.7439 124.4875 290.10327Q124.75313 290.46265 124.84688 291.0564L123.81563 291.19702Q123.75313 290.72827 123.40938 290.46265Q123.08125 290.1814 122.45625 290.1814Q121.7375 290.1814 121.425 290.4314Q121.1125 290.66577 121.1125 290.9939Q121.1125 291.19702 121.2375 291.35327Q121.37813 291.52515 121.64375 291.63452Q121.8 291.69702 122.58125 291.90015Q123.70625 292.21265 124.14375 292.40015Q124.58125 292.58765 124.83125 292.94702Q125.08125 293.3064 125.08125 293.85327Q125.08125 294.38452 124.76875 294.85327Q124.47188 295.3064 123.89375 295.57202Q123.31563 295.82202 122.58125 295.82202Q121.3625 295.82202 120.72188 295.32202Q120.09688 294.8064 119.925 293.82202ZM128.64375 294.7439L128.8 295.66577Q128.34688 295.75952 128.00313 295.75952Q127.425 295.75952 127.1125 295.58765Q126.8 295.40015 126.65938 295.10327Q126.53438 294.8064 126.53438 293.85327L126.53438 290.27515L125.76875 290.27515L125.76875 289.46265L126.53438 289.46265L126.53438 287.91577L127.58125 287.29077L127.58125 289.46265L128.64375 289.46265L128.64375 290.27515L127.58125 290.27515L127.58125 293.91577Q127.58125 294.3689 127.62813 294.4939Q127.69063 294.6189 127.81563 294.69702Q127.94063 294.77515 128.175 294.77515Q128.3625 294.77515 128.64375 294.7439ZM133.40938 294.91577Q132.81563 295.41577 132.26875 295.6189Q131.7375 295.82202 131.1125 295.82202Q130.08125 295.82202 129.53438 295.32202Q128.9875 294.82202 128.9875 294.04077Q128.9875 293.58765 129.19063 293.21265Q129.39375 292.82202 129.7375 292.60327Q130.08125 292.3689 130.50313 292.25952Q130.8 292.16577 131.44063 292.08765Q132.70625 291.94702 133.31563 291.72827Q133.31563 291.50952 133.31563 291.46265Q133.31563 290.8064 133.01875 290.54077Q132.6125 290.19702 131.81563 290.19702Q131.08125 290.19702 130.72188 290.46265Q130.3625 290.71265 130.19063 291.3689L129.15938 291.22827Q129.3 290.57202 129.62813 290.16577Q129.95625 289.75952 130.56563 289.54077Q131.175 289.32202 131.97188 289.32202Q132.76875 289.32202 133.26875 289.50952Q133.76875 289.69702 134.00313 289.97827Q134.2375 290.25952 134.33125 290.69702Q134.37813 290.96265 134.37813 291.66577L134.37813 293.07202Q134.37813 294.54077 134.44063 294.9314Q134.51875 295.32202 134.72188 295.6814L133.6125 295.6814Q133.45625 295.35327 133.40938 294.91577ZM133.31563 292.5564Q132.7375 292.79077 131.59688 292.96265Q130.94063 293.0564 130.675 293.1814Q130.40938 293.29077 130.25313 293.50952Q130.1125 293.72827 130.1125 294.00952Q130.1125 294.4314 130.425 294.71265Q130.75313 294.9939 131.3625 294.9939Q131.97188 294.9939 132.44063 294.72827Q132.925 294.46265 133.14375 293.9939Q133.31563 293.63452 133.31563 292.94702L133.31563 292.5564Z" fill-rule="nonzero"/><path fill="#9e9e9e" d="M22.1125 305.21265L22.1125 304.19702L27.675 304.19702L27.675 305.02515Q26.8625 305.90015 26.05 307.35327Q25.253124 308.79077 24.815624 310.32202Q24.4875 311.40015 24.409374 312.6814L23.315624 312.6814Q23.33125 311.66577 23.70625 310.22827Q24.096874 308.79077 24.8 307.46265Q25.51875 306.13452 26.33125 305.21265L22.1125 305.21265ZM29.6125 312.6814L29.6125 311.47827L30.815624 311.47827L30.815624 312.6814Q30.815624 313.33765 30.58125 313.7439Q30.346874 314.16577 29.846874 314.38452L29.55 313.9314Q29.878124 313.79077 30.034374 313.4939Q30.190624 313.21265 30.221874 312.6814L29.6125 312.6814ZM32.05 310.4314L33.159374 310.33765Q33.284374 311.15015 33.721874 311.5564Q34.175 311.96265 34.815624 311.96265Q35.565624 311.96265 36.096874 311.38452Q36.628124 310.8064 36.628124 309.8689Q36.628124 308.96265 36.1125 308.44702Q35.6125 307.91577 34.784374 307.91577Q34.284374 307.91577 33.8625 308.15015Q33.45625 308.38452 33.221874 308.7439L32.2375 308.6189L33.065624 304.21265L37.346874 304.21265L37.346874 305.21265L33.909374 305.21265L33.45625 307.52515Q34.221874 306.97827 35.065624 306.97827Q36.190624 306.97827 36.95625 307.75952Q37.7375 308.54077 37.7375 309.77515Q37.7375 310.9314 37.065624 311.79077Q36.2375 312.82202 34.815624 312.82202Q33.64375 312.82202 32.89375 312.16577Q32.159374 311.50952 32.05 310.4314ZM39.253124 306.15015Q39.253124 305.22827 39.70625 304.58765Q40.175 303.94702 41.05 303.94702Q41.8625 303.94702 42.39375 304.52515Q42.925 305.10327 42.925 306.21265Q42.925 307.3064 42.378124 307.90015Q41.846874 308.47827 41.065624 308.47827Q40.284374 308.47827 39.76875 307.90015Q39.253124 307.32202 39.253124 306.15015ZM41.08125 304.66577Q40.690624 304.66577 40.425 305.00952Q40.175 305.35327 40.175 306.25952Q40.175 307.08765 40.425 307.4314Q40.690624 307.75952 41.08125 307.75952Q41.4875 307.75952 41.7375 307.41577Q42.003124 307.07202 42.003124 306.1814Q42.003124 305.33765 41.7375 305.00952Q41.471874 304.66577 41.08125 304.66577ZM41.08125 312.9939L45.784374 303.94702L46.64375 303.94702L41.95625 312.9939L41.08125 312.9939ZM44.8 310.66577Q44.8 309.7439 45.253124 309.10327Q45.721874 308.46265 46.6125 308.46265Q47.425 308.46265 47.95625 309.04077Q48.4875 309.60327 48.4875 310.72827Q48.4875 311.82202 47.940624 312.41577Q47.409374 312.9939 46.6125 312.9939Q45.846874 312.9939 45.315624 312.41577Q44.8 311.83765 44.8 310.66577ZM46.64375 309.1814Q46.2375 309.1814 45.971874 309.52515Q45.721874 309.8689 45.721874 310.77515Q45.721874 311.58765 45.9875 311.9314Q46.253124 312.27515 46.64375 312.27515Q47.034374 312.27515 47.3 311.9314Q47.565624 311.58765 47.565624 310.6814Q47.565624 309.85327 47.3 309.52515Q47.034374 309.1814 46.64375 309.1814Z" fill-rule="nonzero"/><path stroke="#757575" stroke-width="1.0" stroke-linecap="butt" d="M21.55 300.1814L146.23334 300.1814L260.7827 300.1814" fill-rule="nonzero"/><path fill="#9e9e9e" d="M262.7827 300.1814C262.7827 299.07684 261.88727 298.1814 260.7827 298.1814C259.67813 298.1814 258.7827 299.07684 258.7827 300.1814C258.7827 301.28598 259.67813 302.1814 260.7827 302.1814C261.88727 302.1814 262.7827 301.28598 262.7827 300.1814" fill-rule="nonzero"/><path fill="#1a1a1a" d="M535.9969 200.3237L537.0594 200.22995Q537.1375 200.8862 537.41876 201.29245Q537.7 201.6987 538.27814 201.96432Q538.8719 202.21432 539.60626 202.21432Q540.2469 202.21432 540.7469 202.02682Q541.2469 201.8237 541.48126 201.49557Q541.73126 201.15182 541.73126 200.7612Q541.73126 200.35495 541.4969 200.05807Q541.2625 199.74557 540.73126 199.54245Q540.3719 199.40182 539.1844 199.12057Q538.0125 198.83932 537.54376 198.58932Q536.91876 198.2612 536.6219 197.79245Q536.325 197.30807 536.325 196.71432Q536.325 196.0737 536.6844 195.5112Q537.0594 194.93307 537.7625 194.65182Q538.48126 194.35495 539.34064 194.35495Q540.29376 194.35495 541.02814 194.66745Q541.7625 194.96432 542.15314 195.5737Q542.54376 196.16745 542.575 196.91745L541.48126 196.99557Q541.3875 196.18307 540.8719 195.77682Q540.3719 195.35495 539.3875 195.35495Q538.35626 195.35495 537.8875 195.72995Q537.41876 196.10495 537.41876 196.6362Q537.41876 197.10495 537.7469 197.40182Q538.075 197.6987 539.45 198.0112Q540.84064 198.3237 541.35626 198.55807Q542.10626 198.91745 542.46564 199.4487Q542.825 199.96432 542.825 200.66745Q542.825 201.35495 542.4344 201.96432Q542.04376 202.55807 541.3094 202.90182Q540.575 203.22995 539.65314 203.22995Q538.48126 203.22995 537.6844 202.90182Q536.90314 202.55807 536.45 201.87057Q536.0125 201.18307 535.9969 200.3237ZM546.54376 202.15182L546.7 203.0737Q546.2469 203.16745 545.90314 203.16745Q545.325 203.16745 545.0125 202.99557Q544.7 202.80807 544.5594 202.5112Q544.4344 202.21432 544.4344 201.2612L544.4344 197.68307L543.66876 197.68307L543.66876 196.87057L544.4344 196.87057L544.4344 195.3237L545.48126 194.6987L545.48126 196.87057L546.54376 196.87057L546.54376 197.68307L545.48126 197.68307L545.48126 201.3237Q545.48126 201.77682 545.52814 201.90182Q545.59064 202.02682 545.71564 202.10495Q545.84064 202.18307 546.075 202.18307Q546.2625 202.18307 546.54376 202.15182ZM551.325 203.08932L551.325 202.16745Q550.59064 203.22995 549.34064 203.22995Q548.79376 203.22995 548.3094 203.02682Q547.84064 202.80807 547.60626 202.49557Q547.3719 202.16745 547.27814 201.6987Q547.21564 201.40182 547.21564 200.71432L547.21564 196.87057L548.27814 196.87057L548.27814 200.3237Q548.27814 201.1362 548.34064 201.43307Q548.4344 201.83932 548.7469 202.08932Q549.075 202.3237 549.5594 202.3237Q550.02814 202.3237 550.4344 202.08932Q550.85626 201.83932 551.02814 201.41745Q551.21564 200.99557 551.21564 200.1987L551.21564 196.87057L552.2625 196.87057L552.2625 203.08932L551.325 203.08932ZM558.27814 203.08932L558.27814 202.30807Q557.6844 203.22995 556.54376 203.22995Q555.79376 203.22995 555.16876 202.8237Q554.54376 202.40182 554.2 201.66745Q553.85626 200.93307 553.85626 199.97995Q553.85626 199.05807 554.16876 198.29245Q554.48126 197.52682 555.10626 197.1362Q555.73126 196.72995 556.4969 196.72995Q557.0594 196.72995 557.4969 196.96432Q557.9344 197.1987 558.21564 197.5737L558.21564 194.49557L559.2625 194.49557L559.2625 203.08932L558.27814 203.08932ZM554.95 199.97995Q554.95 201.18307 555.45 201.77682Q555.95 202.35495 556.6375 202.35495Q557.325 202.35495 557.8094 201.79245Q558.29376 201.22995 558.29376 200.0737Q558.29376 198.79245 557.79376 198.1987Q557.3094 197.60495 556.59064 197.60495Q555.8875 197.60495 555.41876 198.18307Q554.95 198.74557 554.95 199.97995ZM565.4969 201.08932L566.59064 201.21432Q566.34064 202.16745 565.6375 202.6987Q564.9344 203.22995 563.85626 203.22995Q562.4969 203.22995 561.6844 202.3862Q560.8875 201.54245 560.8875 200.02682Q560.8875 198.46432 561.7 197.60495Q562.5125 196.72995 563.79376 196.72995Q565.04376 196.72995 565.825 197.5737Q566.6219 198.41745 566.6219 199.96432Q566.6219 200.05807 566.6219 200.24557L561.98126 200.24557Q562.04376 201.27682 562.5594 201.8237Q563.075 202.35495 563.85626 202.35495Q564.4344 202.35495 564.84064 202.05807Q565.2625 201.74557 565.4969 201.08932ZM562.04376 199.3862L565.5125 199.3862Q565.45 198.58932 565.1219 198.1987Q564.60626 197.58932 563.8094 197.58932Q563.075 197.58932 562.575 198.0737Q562.09064 198.55807 562.04376 199.3862ZM568.2469 203.08932L568.2469 196.87057L569.1844 196.87057L569.1844 197.74557Q569.8719 196.72995 571.16876 196.72995Q571.73126 196.72995 572.2 196.93307Q572.6844 197.1362 572.91876 197.46432Q573.15314 197.79245 573.2469 198.22995Q573.29376 198.52682 573.29376 199.2612L573.29376 203.08932L572.2469 203.08932L572.2469 199.30807Q572.2469 198.65182 572.1219 198.33932Q571.9969 198.02682 571.6844 197.83932Q571.3719 197.6362 570.95 197.6362Q570.27814 197.6362 569.77814 198.0737Q569.29376 198.49557 569.29376 199.68307L569.29376 203.08932L568.2469 203.08932ZM577.54376 202.15182L577.7 203.0737Q577.2469 203.16745 576.90314 203.16745Q576.325 203.16745 576.0125 202.99557Q575.7 202.80807 575.5594 202.5112Q575.4344 202.21432 575.4344 201.2612L575.4344 197.68307L574.66876 197.68307L574.66876 196.87057L575.4344 196.87057L575.4344 195.3237L576.48126 194.6987L576.48126 196.87057L577.54376 196.87057L577.54376 197.68307L576.48126 197.68307L576.48126 201.3237Q576.48126 201.77682 576.52814 201.90182Q576.59064 202.02682 576.71564 202.10495Q576.84064 202.18307 577.075 202.18307Q577.2625 202.18307 577.54376 202.15182ZM582.4969 201.08932L583.59064 201.21432Q583.34064 202.16745 582.6375 202.6987Q581.9344 203.22995 580.85626 203.22995Q579.4969 203.22995 578.6844 202.3862Q577.8875 201.54245 577.8875 200.02682Q577.8875 198.46432 578.7 197.60495Q579.5125 196.72995 580.79376 196.72995Q582.04376 196.72995 582.825 197.5737Q583.6219 198.41745 583.6219 199.96432Q583.6219 200.05807 583.6219 200.24557L578.98126 200.24557Q579.04376 201.27682 579.5594 201.8237Q580.075 202.35495 580.85626 202.35495Q581.4344 202.35495 581.84064 202.05807Q582.2625 201.74557 582.4969 201.08932ZM579.04376 199.3862L582.5125 199.3862Q582.45 198.58932 582.1219 198.1987Q581.60626 197.58932 580.8094 197.58932Q580.075 197.58932 579.575 198.0737Q579.09064 198.55807 579.04376 199.3862Z" fill-rule="nonzero"/><path fill="#9e9e9e" d="M549.95 217.83932L551.0594 217.74557Q551.1844 218.55807 551.6219 218.96432Q552.075 219.37057 552.71564 219.37057Q553.46564 219.37057 553.9969 218.79245Q554.52814 218.21432 554.52814 217.27682Q554.52814 216.37057 554.0125 215.85495Q553.5125 215.3237 552.6844 215.3237Q552.1844 215.3237 551.7625 215.55807Q551.35626 215.79245 551.1219 216.15182L550.1375 216.02682L550.96564 211.62057L555.2469 211.62057L555.2469 212.62057L551.8094 212.62057L551.35626 214.93307Q552.1219 214.3862 552.96564 214.3862Q554.09064 214.3862 554.85626 215.16745Q555.6375 215.9487 555.6375 217.18307Q555.6375 218.33932 554.96564 219.1987Q554.1375 220.22995 552.71564 220.22995Q551.54376 220.22995 550.79376 219.5737Q550.0594 218.91745 549.95 217.83932ZM560.91876 220.08932L559.8719 220.08932L559.8719 213.37057Q559.48126 213.72995 558.85626 214.10495Q558.2469 214.46432 557.7625 214.6362L557.7625 213.62057Q558.6375 213.1987 559.29376 212.62057Q559.96564 212.02682 560.2469 211.46432L560.91876 211.46432L560.91876 220.08932ZM564.5125 220.08932L564.5125 218.8862L565.71564 218.8862L565.71564 220.08932Q565.71564 220.74557 565.48126 221.15182Q565.2469 221.5737 564.7469 221.79245L564.45 221.33932Q564.77814 221.1987 564.9344 220.90182Q565.09064 220.62057 565.1219 220.08932L564.5125 220.08932ZM566.95 215.85495Q566.95 214.3237 567.2625 213.40182Q567.575 212.46432 568.1844 211.96432Q568.8094 211.46432 569.7469 211.46432Q570.4344 211.46432 570.95 211.74557Q571.48126 212.02682 571.825 212.55807Q572.16876 213.0737 572.35626 213.8237Q572.54376 214.5737 572.54376 215.85495Q572.54376 217.37057 572.23126 218.29245Q571.9344 219.21432 571.3094 219.72995Q570.7 220.22995 569.7469 220.22995Q568.5125 220.22995 567.79376 219.33932Q566.95 218.27682 566.95 215.85495ZM568.02814 215.85495Q568.02814 217.96432 568.52814 218.66745Q569.02814 219.37057 569.7469 219.37057Q570.48126 219.37057 570.96564 218.66745Q571.46564 217.96432 571.46564 215.85495Q571.46564 213.72995 570.96564 213.04245Q570.48126 212.33932 569.73126 212.33932Q569.0125 212.33932 568.575 212.9487Q568.02814 213.72995 568.02814 215.85495ZM574.15314 213.55807Q574.15314 212.6362 574.60626 211.99557Q575.075 211.35495 575.95 211.35495Q576.7625 211.35495 577.29376 211.93307Q577.825 212.5112 577.825 213.62057Q577.825 214.71432 577.27814 215.30807Q576.7469 215.8862 575.96564 215.8862Q575.1844 215.8862 574.66876 215.30807Q574.15314 214.72995 574.15314 213.55807ZM575.98126 212.0737Q575.59064 212.0737 575.325 212.41745Q575.075 212.7612 575.075 213.66745Q575.075 214.49557 575.325 214.83932Q575.59064 215.16745 575.98126 215.16745Q576.3875 215.16745 576.6375 214.8237Q576.90314 214.47995 576.90314 213.58932Q576.90314 212.74557 576.6375 212.41745Q576.3719 212.0737 575.98126 212.0737ZM575.98126 220.40182L580.6844 211.35495L581.54376 211.35495L576.85626 220.40182L575.98126 220.40182ZM579.7 218.0737Q579.7 217.15182 580.15314 216.5112Q580.6219 215.87057 581.5125 215.87057Q582.325 215.87057 582.85626 216.4487Q583.3875 217.0112 583.3875 218.1362Q583.3875 219.22995 582.84064 219.8237Q582.3094 220.40182 581.5125 220.40182Q580.7469 220.40182 580.21564 219.8237Q579.7 219.24557 579.7 218.0737ZM581.54376 216.58932Q581.1375 216.58932 580.8719 216.93307Q580.6219 217.27682 580.6219 218.18307Q580.6219 218.99557 580.8875 219.33932Q581.15314 219.68307 581.54376 219.68307Q581.9344 219.68307 582.2 219.33932Q582.46564 218.99557 582.46564 218.08932Q582.46564 217.2612 582.2 216.93307Q581.9344 216.58932 581.54376 216.58932Z" fill-rule="nonzero"/><path stroke="#757575" stroke-width="1.0" stroke-linecap="butt" d="M584.45 207.58932L459.76666 207.58932L446.15475 207.58932" fill-rule="nonzero"/><path fill="#9e9e9e" d="M448.15475 207.58932C448.15475 206.48476 447.2593 205.58932 446.15475 205.58932C445.05017 205.58932 444.15475 206.48476 444.15475 207.58932C444.15475 208.6939 445.05017 209.58932 446.15475 209.58932C447.2593 209.58932 448.15475 208.6939 448.15475 207.58932" fill-rule="nonzero"/><path fill="#757575" d="M19.51875 30.58125Q19.51875 27.01875 21.425 25.003124Q23.346874 22.971874 26.378124 22.971874Q28.3625 22.971874 29.940624 23.925Q31.534374 24.878124 32.3625 26.58125Q33.20625 28.26875 33.20625 30.409374Q33.20625 32.58125 32.33125 34.3Q31.45625 36.01875 29.83125 36.909374Q28.221874 37.8 26.3625 37.8Q24.346874 37.8 22.753124 36.83125Q21.159374 35.846874 20.33125 34.159374Q19.51875 32.45625 19.51875 30.58125ZM21.471874 30.6125Q21.471874 33.190624 22.8625 34.690624Q24.253124 36.175 26.346874 36.175Q28.4875 36.175 29.8625 34.675Q31.253124 33.159374 31.253124 30.39375Q31.253124 28.659374 30.659374 27.3625Q30.08125 26.05 28.940624 25.33125Q27.8 24.6125 26.378124 24.6125Q24.378124 24.6125 22.925 26.003124Q21.471874 27.378124 21.471874 30.6125ZM42.64375 33.753124L44.3625 33.971874Q44.08125 35.76875 42.909374 36.784374Q41.753124 37.784374 40.05 37.784374Q37.925 37.784374 36.628124 36.39375Q35.33125 35.003124 35.33125 32.409374Q35.33125 30.721874 35.878124 29.471874Q36.440624 28.20625 37.58125 27.58125Q38.721874 26.940624 40.065624 26.940624Q41.753124 26.940624 42.815624 27.8Q43.89375 28.659374 44.20625 30.221874L42.4875 30.4875Q42.253124 29.440624 41.628124 28.925Q41.003124 28.39375 40.128124 28.39375Q38.8 28.39375 37.971874 29.346874Q37.14375 30.3 37.14375 32.346874Q37.14375 34.440624 37.940624 35.39375Q38.7375 36.33125 40.034374 36.33125Q41.065624 36.33125 41.753124 35.70625Q42.45625 35.065624 42.64375 33.753124ZM52.64375 33.753124L54.3625 33.971874Q54.08125 35.76875 52.909374 36.784374Q51.753124 37.784374 50.05 37.784374Q47.925 37.784374 46.628124 36.39375Q45.33125 35.003124 45.33125 32.409374Q45.33125 30.721874 45.878124 29.471874Q46.440624 28.20625 47.58125 27.58125Q48.721874 26.940624 50.065624 26.940624Q51.753124 26.940624 52.815624 27.8Q53.89375 28.659374 54.20625 30.221874L52.4875 30.4875Q52.253124 29.440624 51.628124 28.925Q51.003124 28.39375 50.128124 28.39375Q48.8 28.39375 47.971874 29.346874Q47.14375 30.3 47.14375 32.346874Q47.14375 34.440624 47.940624 35.39375Q48.7375 36.33125 50.034374 36.33125Q51.065624 36.33125 51.753124 35.70625Q52.45625 35.065624 52.64375 33.753124ZM62.659374 37.55L62.659374 36.01875Q61.45625 37.784374 59.378124 37.784374Q58.45625 37.784374 57.659374 37.440624Q56.8625 37.08125 56.471874 36.55Q56.096874 36.01875 55.940624 35.2375Q55.83125 34.721874 55.83125 33.596874L55.83125 27.175L57.58125 27.175L57.58125 32.925Q57.58125 34.3 57.690624 34.784374Q57.8625 35.471874 58.39375 35.878124Q58.940624 36.26875 59.721874 36.26875Q60.51875 36.26875 61.20625 35.8625Q61.909374 35.45625 62.190624 34.76875Q62.4875 34.065624 62.4875 32.7375L62.4875 27.175L64.2375 27.175L64.2375 37.55L62.659374 37.55ZM66.8625 41.51875L66.8625 27.175L68.47188 27.175L68.47188 28.51875Q69.03438 27.7375 69.7375 27.346874Q70.45625 26.940624 71.47188 26.940624Q72.8 26.940624 73.81563 27.628124Q74.83125 28.315624 75.34688 29.565624Q75.87813 30.8 75.87813 32.284374Q75.87813 33.878124 75.3 35.159374Q74.7375 36.425 73.64375 37.1125Q72.55 37.784374 71.34688 37.784374Q70.47188 37.784374 69.76875 37.409374Q69.08125 37.034374 68.62813 36.471874L68.62813 41.51875L66.8625 41.51875ZM68.45625 32.425Q68.45625 34.425 69.26875 35.378124Q70.08125 36.33125 71.2375 36.33125Q72.40938 36.33125 73.2375 35.346874Q74.08125 34.3625 74.08125 32.26875Q74.08125 30.3 73.25313 29.315624Q72.44063 28.315624 71.31563 28.315624Q70.19063 28.315624 69.31563 29.378124Q68.45625 30.425 68.45625 32.425ZM84.64375 36.26875Q83.65938 37.096874 82.75313 37.440624Q81.84688 37.784374 80.81563 37.784374Q79.1125 37.784374 78.19063 36.95625Q77.26875 36.1125 77.26875 34.815624Q77.26875 34.05 77.6125 33.425Q77.97188 32.8 78.53438 32.425Q79.09688 32.034374 79.8 31.83125Q80.31563 31.70625 81.3625 31.565624Q83.4875 31.315624 84.4875 30.971874Q84.50313 30.6125 84.50313 30.503124Q84.50313 29.440624 84.00313 28.9875Q83.33125 28.39375 82.00313 28.39375Q80.75313 28.39375 80.15938 28.83125Q79.58125 29.26875 79.3 30.378124L77.58125 30.14375Q77.81563 29.034374 78.34688 28.3625Q78.87813 27.675 79.89375 27.315624Q80.90938 26.940624 82.25313 26.940624Q83.58125 26.940624 84.40938 27.253124Q85.2375 27.565624 85.62813 28.05Q86.01875 28.51875 86.175 29.2375Q86.26875 29.690624 86.26875 30.8625L86.26875 33.20625Q86.26875 35.659374 86.37813 36.315624Q86.4875 36.95625 86.83125 37.55L84.9875 37.55Q84.72188 37.003124 84.64375 36.26875ZM84.4875 32.346874Q83.53438 32.7375 81.6125 33.003124Q80.53438 33.159374 80.08125 33.3625Q79.64375 33.55 79.39375 33.925Q79.14375 34.3 79.14375 34.76875Q79.14375 35.471874 79.675 35.940624Q80.20625 36.409374 81.2375 36.409374Q82.25313 36.409374 83.03438 35.971874Q83.83125 35.51875 84.20625 34.753124Q84.4875 34.14375 84.4875 32.9875L84.4875 32.346874ZM92.70625 35.971874L92.95625 37.534374Q92.22188 37.690624 91.62813 37.690624Q90.675 37.690624 90.14375 37.39375Q89.62813 37.08125 89.40938 36.596874Q89.19063 36.096874 89.19063 34.51875L89.19063 28.55L87.90938 28.55L87.90938 27.175L89.19063 27.175L89.19063 24.6125L90.94063 23.55L90.94063 27.175L92.70625 27.175L92.70625 28.55L90.94063 28.55L90.94063 34.6125Q90.94063 35.3625 91.03438 35.58125Q91.12813 35.784374 91.33125 35.925Q91.55 36.05 91.94063 36.05Q92.22188 36.05 92.70625 35.971874ZM94.87813 25.253124L94.87813 23.2375L96.64375 23.2375L96.64375 25.253124L94.87813 25.253124ZM94.87813 37.55L94.87813 27.175L96.64375 27.175L96.64375 37.55L94.87813 37.55ZM98.22188 32.3625Q98.22188 29.4875 99.81563 28.096874Q101.15938 26.940624 103.08125 26.940624Q105.22188 26.940624 106.56563 28.346874Q107.925 29.753124 107.925 32.221874Q107.925 34.221874 107.33125 35.378124Q106.7375 36.51875 105.58125 37.159374Q104.44063 37.784374 103.08125 37.784374Q100.89375 37.784374 99.55 36.39375Q98.22188 34.9875 98.22188 32.3625ZM100.01875 32.3625Q100.01875 34.3625 100.87813 35.346874Q101.75313 36.33125 103.08125 36.33125Q104.39375 36.33125 105.25313 35.346874Q106.12813 34.346874 106.12813 32.3Q106.12813 30.378124 105.25313 29.39375Q104.37813 28.39375 103.08125 28.39375Q101.75313 28.39375 100.87813 29.39375Q100.01875 30.378124 100.01875 32.3625ZM109.8625 37.55L109.8625 27.175L111.45625 27.175L111.45625 28.659374Q112.59688 26.940624 114.75313 26.940624Q115.69063 26.940624 116.47188 27.284374Q117.26875 27.6125 117.65938 28.159374Q118.05 28.70625 118.20625 29.45625Q118.3 29.95625 118.3 31.175L118.3 37.55L116.53438 37.55L116.53438 31.2375Q116.53438 30.159374 116.33125 29.628124Q116.12813 29.096874 115.59688 28.784374Q115.08125 28.471874 114.37813 28.471874Q113.25313 28.471874 112.44063 29.190624Q111.62813 29.89375 111.62813 31.878124L111.62813 37.55L109.8625 37.55Z" fill-rule="nonzero"/></svg>