{
  "accessors": [
    {
      "bufferView": 1,
      "componentType": 5126,
      "count": 65532,
      "max": [
        2136.726806640625,
        471.20223999023438,
        2013.699462890625
      ],
      "min": [
        0.2117919921875,
        0,
        0
      ],
      "type": "VEC3"
    },
    {
      "bufferView": 1,
      "byteOffset": 786384,
      "componentType": 5126,
      "count": 65532,
      "max": [
        0.99985241889953613,
        0.99999457597732544,
        0.99997454881668091
      ],
      "min": [
        -0.99999570846557617,
        -0.99998706579208374,
        -0.99999827146530151
      ],
      "type": "VEC3"
    },
    {
      "bufferView": 0,
      "componentType": 5125,
      "count": 319725,
      "max": [
        65531
      ],
      "min": [
        0
      ],
      "type": "SCALAR"
    },
    {
      "bufferView": 1,
      "byteOffset": 1572768,
      "componentType": 5126,
      "count": 65534,
      "max": [
        2151.72509765625,
        503.63906860351562,
        2013.699462890625
      ],
      "min": [
        0,
        12.4886474609375,
        0
      ],
      "type": "VEC3"
    },
    {
      "bufferView": 1,
      "byteOffset": 2359176,
      "componentType": 5126,
      "count": 65534,
      "max": [
        0.9999622106552124,
        0.99997717142105103,
        0.99997073411941528
      ],
      "min": [
        -0.99999570846557617,
        -0.99999958276748657,
        -0.99999827146530151
      ],
      "type": "VEC3"
    },
    {
      "bufferView": 0,
      "byteOffset": 1278900,
      "componentType": 5125,
      "count": 301077,
      "max": [
        65533
      ],
      "min": [
        0
      ],
      "type": "SCALAR"
    },
    {
      "bufferView": 1,
      "byteOffset": 3145584,
      "componentType": 5126,
      "count": 6136,
      "max": [
        2141.85107421875,
        500.99923706054688,
        2011.977783203125
      ],
      "min": [
        0.34112548828125,
        2.060821533203125,
        0.97383302450180054
      ],
      "type": "VEC3"
    },
    {
      "bufferView": 1,
      "byteOffset": 3219216,
      "componentType": 5126,
      "count": 6136,
      "max": [
        0.9990994930267334,
        0.99982166290283203,
        0.99912327527999878
      ],
      "min": [
        -0.9979555606842041,
        -0.9995461106300354,
        -0.99974977970123291
      ],
      "type": "VEC3"
    },
    {
      "bufferView": 0,
      "byteOffset": 2483208,
      "componentType": 5125,
      "count": 7665,
      "max": [
        6135
      ],
      "min": [
        0
      ],
      "type": "SCALAR"
    }
  ],
  "asset": {
    "extras": {
      "author": "SMK – National Gallery of Denmark (https://sketchfab.com/smkmuseum)",
      "license": "CC0-1.0 (http://creativecommons.org/publicdomain/zero/1.0/)",
      "source": "https://sketchfab.com/3d-models/zeus-or-poseidon-from-the-artemision-d4876aa609304682945145debedfc77e",
      "title": "Zeus or Poseidon from the Artemision"
    },
    "generator": "Sketchfab-7.80.0",
    "version": "2.0"
  },
  "bufferViews": [
    {
      "buffer": 0,
      "byteLength": 2513868,
      "byteOffset": 0,
      "name": "floatBufferViews",
      "target": 34963
    },
    {
      "buffer": 0,
      "byteLength": 3292848,
      "byteOffset": 2513868,
      "byteStride": 12,
      "name": "floatBufferViews",
      "target": 34962
    }
  ],
  "buffers": [
    {
      "byteLength": 5806716,
      "uri": "scene.bin"
    }
  ],
  "materials": [
    {
      "doubleSided": true,
      "emissiveFactor": [
        0,
        0,
        0
      ],
      "name": "default",
      "pbrMetallicRoughness": {
        "baseColorFactor": [
          1,
          1,
          1,
          1
        ],
        "metallicFactor": 0,
        "roughnessFactor": 0.59999999999999998
      }
    }
  ],
  "meshes": [
    {
      "primitives": [
        {
          "attributes": {
            "NORMAL": 1,
            "POSITION": 0
          },
          "indices": 2,
          "material": 0,
          "mode": 4
        }
      ]
    },
    {
      "primitives": [
        {
          "attributes": {
            "NORMAL": 4,
            "POSITION": 3
          },
          "indices": 5,
          "material": 0,
          "mode": 4
        }
      ]
    },
    {
      "primitives": [
        {
          "attributes": {
            "NORMAL": 7,
            "POSITION": 6
          },
          "indices": 8,
          "material": 0,
          "mode": 4
        }
      ]
    }
  ],
  "nodes": [
    {
      "children": [
        1
      ],
      "name": "RootNode (gltf orientation matrix)",
      "rotation": [
        -0.70710678118654746,
        -0,
        -0,
        0.70710678118654757
      ]
    },
    {
      "children": [
        2
      ],
      "name": "RootNode (model correction matrix)"
    },
    {
      "children": [
        3
      ],
      "matrix": [
        1,
        0,
        0,
        0,
        0,
        1,
        0,
        0,
        0,
        0,
        1,
        0,
        -1003.3129272460938,
        -282.82852172851562,
        -0.29681509733200073,
        1
      ],
      "name": "Zeus_or_Poseidon_from_the_Artemision_SMK_KAS2100_10pct.obj.cleaner.gles"
    },
    {
      "children": [
        4,
        5,
        6
      ],
      "name": ""
    },
    {
      "mesh": 0,
      "name": ""
    },
    {
      "mesh": 1,
      "name": ""
    },
    {
      "mesh": 2,
      "name": ""
    }
  ],
  "scene": 0,
  "scenes": [
    {
      "name": "OSG_Scene",
      "nodes": [
        0
      ]
    }
  ]
}

