<svg version="1.1" viewBox="0.0 0.0 600.0 371.0" fill="none" stroke="none" stroke-linecap="square" stroke-miterlimit="10" width="600" height="371" xmlns:xlink="http://www.w3.org/1999/xlink" xmlns="http://www.w3.org/2000/svg"><path fill="#ffffff" d="M0 0L600.0 0L600.0 371.0L0 371.0L0 0Z" fill-rule="nonzero"/><path fill="#ea4335" d="M201.14575 139.2658C226.94829 120.37467 262.66254 109.68916 300.0 109.68916L300.0 205.42583Z" fill-rule="nonzero"/><path fill="#2e5dab" d="M436.76666 225.94083C436.76666 278.81473 375.53415 321.6775 300.0 321.6775C224.46585 321.6775 163.23334 278.81473 163.23334 225.94083L163.23334 205.42583C163.23334 258.29974 224.46585 301.1625 300.0 301.1625C375.53415 301.1625 436.76666 258.29974 436.76666 205.42583Z" fill-rule="nonzero"/><path fill="#4285f4" d="M300.0 109.68916C364.9595 109.68916 420.95676 141.6746 433.98694 186.22208C447.01712 230.76953 413.4848 275.58685 353.75272 293.45834C294.02066 311.32986 224.57095 297.3242 187.57751 259.94638C150.58408 222.56859 156.25467 172.13248 201.14575 139.2658L300.0 205.42583Z" fill-rule="nonzero"/><path fill="#1a1a1a" d="M19.440624 117.29494L19.440624 108.70119L21.159374 108.70119L23.190624 114.77931Q23.471874 115.63869 23.596874 116.06056Q23.7375 115.59181 24.05 114.68556L26.1125 108.70119L27.64375 108.70119L27.64375 117.29494L26.55 117.29494L26.55 110.10744L24.05 117.29494L23.01875 117.29494L20.534374 109.98244L20.534374 117.29494L19.440624 117.29494ZM33.409374 116.52931Q32.815624 117.02931 32.26875 117.23244Q31.7375 117.43556 31.1125 117.43556Q30.08125 117.43556 29.534374 116.93556Q28.9875 116.43556 28.9875 115.65431Q28.9875 115.20119 29.190624 114.82619Q29.39375 114.43556 29.7375 114.21681Q30.08125 113.98244 30.503124 113.87306Q30.8 113.77931 31.440624 113.70119Q32.70625 113.56056 33.315624 113.34181Q33.315624 113.12306 33.315624 113.07619Q33.315624 112.41994 33.01875 112.15431Q32.6125 111.81056 31.815624 111.81056Q31.08125 111.81056 30.721874 112.07619Q30.3625 112.32619 30.190624 112.98244L29.159374 112.84181Q29.3 112.18556 29.628124 111.77931Q29.95625 111.37306 30.565624 111.15431Q31.175 110.93556 31.971874 110.93556Q32.76875 110.93556 33.26875 111.12306Q33.76875 111.31056 34.003124 111.59181Q34.2375 111.87306 34.33125 112.31056Q34.378124 112.57619 34.378124 113.27931L34.378124 114.68556Q34.378124 116.15431 34.440624 116.54494Q34.51875 116.93556 34.721874 117.29494L33.6125 117.29494Q33.45625 116.96681 33.409374 116.52931ZM33.315624 114.16994Q32.7375 114.40431 31.596874 114.57619Q30.940624 114.66994 30.675 114.79494Q30.409374 114.90431 30.253124 115.12306Q30.1125 115.34181 30.1125 115.62306Q30.1125 116.04494 30.425 116.32619Q30.753124 116.60744 31.3625 116.60744Q31.971874 116.60744 32.440624 116.34181Q32.925 116.07619 33.14375 115.60744Q33.315624 115.24806 33.315624 114.56056L33.315624 114.16994ZM36.3 119.68556L36.175 118.70119Q36.51875 118.79494 36.784374 118.79494Q37.128124 118.79494 37.33125 118.66994Q37.55 118.56056 37.690624 118.35744Q37.784374 118.18556 38.01875 117.56056Q38.034374 117.48244 38.1125 117.31056L35.7375 111.07619L36.878124 111.07619L38.175 114.66994Q38.425 115.35744 38.628124 116.12306Q38.815624 115.38869 39.065624 114.70119L40.39375 111.07619L41.440624 111.07619L39.08125 117.40431Q38.690624 118.41994 38.4875 118.81056Q38.20625 119.34181 37.83125 119.57619Q37.471874 119.82619 36.971874 119.82619Q36.675 119.82619 36.3 119.68556ZM43.315624 117.29494L42.33125 117.29494L42.33125 108.70119L43.39375 108.70119L43.39375 111.76369Q44.065624 110.93556 45.096874 110.93556Q45.675 110.93556 46.175 111.16994Q46.690624 111.38869 47.01875 111.81056Q47.3625 112.23244 47.55 112.82619Q47.7375 113.41994 47.7375 114.09181Q47.7375 115.68556 46.940624 116.56056Q46.14375 117.43556 45.05 117.43556Q43.940624 117.43556 43.315624 116.51369L43.315624 117.29494ZM43.3 114.13869Q43.3 115.24806 43.6125 115.74806Q44.1125 116.56056 44.95625 116.56056Q45.64375 116.56056 46.14375 115.96681Q46.659374 115.37306 46.659374 114.16994Q46.659374 112.95119 46.175 112.37306Q45.690624 111.79494 45.003124 111.79494Q44.315624 111.79494 43.8 112.40431Q43.3 112.99806 43.3 114.13869ZM53.596874 115.29494L54.690624 115.41994Q54.440624 116.37306 53.7375 116.90431Q53.034374 117.43556 51.95625 117.43556Q50.596874 117.43556 49.784374 116.59181Q48.9875 115.74806 48.9875 114.23244Q48.9875 112.66994 49.8 111.81056Q50.6125 110.93556 51.89375 110.93556Q53.14375 110.93556 53.925 111.77931Q54.721874 112.62306 54.721874 114.16994Q54.721874 114.26369 54.721874 114.45119L50.08125 114.45119Q50.14375 115.48244 50.659374 116.02931Q51.175 116.56056 51.95625 116.56056Q52.534374 116.56056 52.940624 116.26369Q53.3625 115.95119 53.596874 115.29494ZM50.14375 113.59181L53.6125 113.59181Q53.55 112.79494 53.221874 112.40431Q52.70625 111.79494 51.909374 111.79494Q51.175 111.79494 50.675 112.27931Q50.190624 112.76369 50.14375 113.59181Z" fill-rule="nonzero"/><path fill="#9e9e9e" d="M23.01875 134.29494L21.971874 134.29494L21.971874 127.57619Q21.58125 127.93556 20.95625 128.31056Q20.346874 128.66994 19.8625 128.84181L19.8625 127.82619Q20.7375 127.40431 21.39375 126.82619Q22.065624 126.23244 22.346874 125.66994L23.01875 125.66994L23.01875 134.29494ZM31.596874 133.27931L31.596874 134.29494L25.909374 134.29494Q25.909374 133.91994 26.034374 133.56056Q26.253124 132.98244 26.721874 132.41994Q27.20625 131.85744 28.1125 131.12306Q29.51875 129.96681 30.003124 129.29494Q30.503124 128.62306 30.503124 128.02931Q30.503124 127.40431 30.05 126.98244Q29.596874 126.54494 28.878124 126.54494Q28.1125 126.54494 27.659374 126.99806Q27.20625 127.45119 27.190624 128.26369L26.1125 128.15431Q26.221874 126.93556 26.940624 126.31056Q27.675 125.66994 28.909374 125.66994Q30.14375 125.66994 30.8625 126.35744Q31.58125 127.04494 31.58125 128.06056Q31.58125 128.57619 31.3625 129.07619Q31.159374 129.56056 30.659374 130.12306Q30.175 130.66994 29.05 131.62306Q28.096874 132.41994 27.815624 132.71681Q27.55 132.99806 27.378124 133.27931L31.596874 133.27931ZM33.6125 134.29494L33.6125 133.09181L34.815624 133.09181L34.815624 134.29494Q34.815624 134.95119 34.58125 135.35744Q34.346874 135.77931 33.846874 135.99806L33.55 135.54494Q33.878124 135.40431 34.034374 135.10744Q34.190624 134.82619 34.221874 134.29494L33.6125 134.29494ZM36.20625 132.31056L37.221874 132.21681Q37.346874 132.93556 37.70625 133.26369Q38.08125 133.57619 38.64375 133.57619Q39.128124 133.57619 39.4875 133.35744Q39.8625 133.12306 40.096874 132.76369Q40.33125 132.38869 40.4875 131.76369Q40.64375 131.12306 40.64375 130.46681Q40.64375 130.38869 40.64375 130.24806Q40.33125 130.74806 39.784374 131.07619Q39.2375 131.38869 38.596874 131.38869Q37.51875 131.38869 36.784374 130.62306Q36.05 129.84181 36.05 128.57619Q36.05 127.26369 36.815624 126.46681Q37.596874 125.66994 38.753124 125.66994Q39.58125 125.66994 40.26875 126.12306Q40.971874 126.57619 41.33125 127.41994Q41.690624 128.24806 41.690624 129.82619Q41.690624 131.46681 41.33125 132.45119Q40.9875 133.41994 40.26875 133.93556Q39.565624 134.43556 38.628124 134.43556Q37.6125 134.43556 36.971874 133.88869Q36.33125 133.32619 36.20625 132.31056ZM40.51875 128.51369Q40.51875 127.60744 40.034374 127.07619Q39.565624 126.54494 38.878124 126.54494Q38.175 126.54494 37.64375 127.12306Q37.128124 127.68556 37.128124 128.60744Q37.128124 129.41994 37.628124 129.93556Q38.128124 130.45119 38.846874 130.45119Q39.58125 130.45119 40.05 129.93556Q40.51875 129.41994 40.51875 128.51369ZM43.253124 127.76369Q43.253124 126.84181 43.70625 126.20119Q44.175 125.56056 45.05 125.56056Q45.8625 125.56056 46.39375 126.13869Q46.925 126.71681 46.925 127.82619Q46.925 128.91994 46.378124 129.51369Q45.846874 130.09181 45.065624 130.09181Q44.284374 130.09181 43.76875 129.51369Q43.253124 128.93556 43.253124 127.76369ZM45.08125 126.27931Q44.690624 126.27931 44.425 126.62306Q44.175 126.96681 44.175 127.87306Q44.175 128.70119 44.425 129.04494Q44.690624 129.37306 45.08125 129.37306Q45.4875 129.37306 45.7375 129.02931Q46.003124 128.68556 46.003124 127.79494Q46.003124 126.95119 45.7375 126.62306Q45.471874 126.27931 45.08125 126.27931ZM45.08125 134.60744L49.784374 125.56056L50.64375 125.56056L45.95625 134.60744L45.08125 134.60744ZM48.8 132.27931Q48.8 131.35744 49.253124 130.71681Q49.721874 130.07619 50.6125 130.07619Q51.425 130.07619 51.95625 130.65431Q52.4875 131.21681 52.4875 132.34181Q52.4875 133.43556 51.940624 134.02931Q51.409374 134.60744 50.6125 134.60744Q49.846874 134.60744 49.315624 134.02931Q48.8 133.45119 48.8 132.27931ZM50.64375 130.79494Q50.2375 130.79494 49.971874 131.13869Q49.721874 131.48244 49.721874 132.38869Q49.721874 133.20119 49.9875 133.54494Q50.253124 133.88869 50.64375 133.88869Q51.034374 133.88869 51.3 133.54494Q51.565624 133.20119 51.565624 132.29494Q51.565624 131.46681 51.3 131.13869Q51.034374 130.79494 50.64375 130.79494Z" fill-rule="nonzero"/><path stroke="#757575" stroke-width="1.0" stroke-linecap="butt" d="M18.55 121.79494L157.23334 121.79494L248.9349 121.79494" fill-rule="nonzero"/><path fill="#9e9e9e" d="M250.9349 121.79494C250.9349 120.69037 250.03949 119.79494 248.9349 119.79494C247.83034 119.79494 246.9349 120.69037 246.9349 121.79494C246.9349 122.899506 247.83034 123.79494 248.9349 123.79494C250.03949 123.79494 250.9349 122.899506 250.9349 121.79494" fill-rule="nonzero"/><path fill="#1a1a1a" d="M563.79376 284.55673L563.79376 280.9161L560.48126 275.96298L561.8719 275.96298L563.5594 278.55673Q564.02814 279.27548 564.4344 280.00986Q564.825 279.33798 565.3719 278.49423L567.04376 275.96298L568.35626 275.96298L564.9344 280.9161L564.9344 284.55673L563.79376 284.55673ZM573.4969 282.55673L574.59064 282.68173Q574.34064 283.63486 573.6375 284.1661Q572.9344 284.69736 571.85626 284.69736Q570.4969 284.69736 569.6844 283.8536Q568.8875 283.00986 568.8875 281.49423Q568.8875 279.93173 569.7 279.07236Q570.5125 278.19736 571.79376 278.19736Q573.04376 278.19736 573.825 279.0411Q574.6219 279.88486 574.6219 281.43173Q574.6219 281.52548 574.6219 281.71298L569.98126 281.71298Q570.04376 282.74423 570.5594 283.2911Q571.075 283.82236 571.85626 283.82236Q572.4344 283.82236 572.84064 283.52548Q573.2625 283.21298 573.4969 282.55673ZM570.04376 280.8536L573.5125 280.8536Q573.45 280.05673 573.1219 279.6661Q572.60626 279.05673 571.8094 279.05673Q571.075 279.05673 570.575 279.5411Q570.09064 280.02548 570.04376 280.8536ZM575.825 282.69736L576.85626 282.5411Q576.95 283.1661 577.34064 283.49423Q577.7469 283.82236 578.48126 283.82236Q579.2 283.82236 579.54376 283.5411Q579.90314 283.24423 579.90314 282.83798Q579.90314 282.4786 579.59064 282.27548Q579.3719 282.13486 578.5125 281.9161Q577.35626 281.61923 576.90314 281.4161Q576.46564 281.19736 576.23126 280.82236Q575.9969 280.44736 575.9969 279.9786Q575.9969 279.57236 576.1844 279.21298Q576.3719 278.8536 576.7 278.61923Q576.95 278.44736 577.3719 278.32236Q577.79376 278.19736 578.29376 278.19736Q579.0125 278.19736 579.5594 278.4161Q580.1219 278.61923 580.3875 278.9786Q580.65314 279.33798 580.7469 279.93173L579.71564 280.07236Q579.65314 279.6036 579.3094 279.33798Q578.98126 279.05673 578.35626 279.05673Q577.6375 279.05673 577.325 279.30673Q577.0125 279.5411 577.0125 279.86923Q577.0125 280.07236 577.1375 280.2286Q577.27814 280.40048 577.54376 280.50986Q577.7 280.57236 578.48126 280.77548Q579.60626 281.08798 580.04376 281.27548Q580.48126 281.46298 580.73126 281.82236Q580.98126 282.18173 580.98126 282.7286Q580.98126 283.25986 580.66876 283.7286Q580.3719 284.18173 579.79376 284.44736Q579.21564 284.69736 578.48126 284.69736Q577.2625 284.69736 576.6219 284.19736Q575.9969 283.68173 575.825 282.69736Z" fill-rule="nonzero"/><path fill="#9e9e9e" d="M548.575 296.90048Q547.91876 296.65048 547.59064 296.21298Q547.27814 295.75986 547.27814 295.15048Q547.27814 294.21298 547.95 293.57236Q548.6375 292.93173 549.7469 292.93173Q550.8719 292.93173 551.5594 293.58798Q552.2469 294.24423 552.2469 295.18173Q552.2469 295.77548 551.9344 296.21298Q551.6219 296.65048 550.98126 296.90048Q551.77814 297.15048 552.1844 297.7286Q552.59064 298.30673 552.59064 299.1036Q552.59064 300.19736 551.8094 300.94736Q551.04376 301.69736 549.7625 301.69736Q548.4969 301.69736 547.71564 300.94736Q546.9344 300.19736 546.9344 299.07236Q546.9344 298.2286 547.35626 297.6661Q547.79376 297.1036 548.575 296.90048ZM548.35626 295.1036Q548.35626 295.71298 548.7469 296.1036Q549.15314 296.49423 549.77814 296.49423Q550.3875 296.49423 550.77814 296.11923Q551.16876 295.7286 551.16876 295.1661Q551.16876 294.58798 550.7625 294.19736Q550.35626 293.7911 549.7625 293.7911Q549.15314 293.7911 548.7469 294.18173Q548.35626 294.57236 548.35626 295.1036ZM548.02814 299.07236Q548.02814 299.52548 548.23126 299.94736Q548.45 300.36923 548.8719 300.6036Q549.29376 300.83798 549.77814 300.83798Q550.52814 300.83798 551.0125 300.3536Q551.5125 299.86923 551.5125 299.11923Q551.5125 298.3536 551.0125 297.8536Q550.5125 297.3536 549.7469 297.3536Q548.9969 297.3536 548.5125 297.8536Q548.02814 298.33798 548.02814 299.07236ZM554.0125 294.08798L554.0125 293.07236L559.575 293.07236L559.575 293.90048Q558.7625 294.77548 557.95 296.2286Q557.15314 297.6661 556.71564 299.19736Q556.3875 300.27548 556.3094 301.55673L555.21564 301.55673Q555.23126 300.5411 555.60626 299.1036Q555.9969 297.6661 556.7 296.33798Q557.41876 295.00986 558.23126 294.08798L554.0125 294.08798ZM561.5125 301.55673L561.5125 300.3536L562.71564 300.3536L562.71564 301.55673Q562.71564 302.21298 562.48126 302.61923Q562.2469 303.0411 561.7469 303.25986L561.45 302.80673Q561.77814 302.6661 561.9344 302.36923Q562.09064 302.08798 562.1219 301.55673L561.5125 301.55673ZM567.91876 301.55673L566.8719 301.55673L566.8719 294.83798Q566.48126 295.19736 565.85626 295.57236Q565.2469 295.93173 564.7625 296.1036L564.7625 295.08798Q565.6375 294.6661 566.29376 294.08798Q566.96564 293.49423 567.2469 292.93173L567.91876 292.93173L567.91876 301.55673ZM571.15314 295.02548Q571.15314 294.1036 571.60626 293.46298Q572.075 292.82236 572.95 292.82236Q573.7625 292.82236 574.29376 293.40048Q574.825 293.9786 574.825 295.08798Q574.825 296.18173 574.27814 296.77548Q573.7469 297.3536 572.96564 297.3536Q572.1844 297.3536 571.66876 296.77548Q571.15314 296.19736 571.15314 295.02548ZM572.98126 293.5411Q572.59064 293.5411 572.325 293.88486Q572.075 294.2286 572.075 295.13486Q572.075 295.96298 572.325 296.30673Q572.59064 296.63486 572.98126 296.63486Q573.3875 296.63486 573.6375 296.2911Q573.90314 295.94736 573.90314 295.05673Q573.90314 294.21298 573.6375 293.88486Q573.3719 293.5411 572.98126 293.5411ZM572.98126 301.86923L577.6844 292.82236L578.54376 292.82236L573.85626 301.86923L572.98126 301.86923ZM576.7 299.5411Q576.7 298.61923 577.15314 297.9786Q577.6219 297.33798 578.5125 297.33798Q579.325 297.33798 579.85626 297.9161Q580.3875 298.4786 580.3875 299.6036Q580.3875 300.69736 579.84064 301.2911Q579.3094 301.86923 578.5125 301.86923Q577.7469 301.86923 577.21564 301.2911Q576.7 300.71298 576.7 299.5411ZM578.54376 298.05673Q578.1375 298.05673 577.8719 298.40048Q577.6219 298.74423 577.6219 299.65048Q577.6219 300.46298 577.8875 300.80673Q578.15314 301.15048 578.54376 301.15048Q578.9344 301.15048 579.2 300.80673Q579.46564 300.46298 579.46564 299.55673Q579.46564 298.7286 579.2 298.40048Q578.9344 298.05673 578.54376 298.05673Z" fill-rule="nonzero"/><path stroke="#757575" stroke-width="1.0" stroke-linecap="butt" d="M581.45 289.05673L442.76666 289.05673L351.0651 289.05673" fill-rule="nonzero"/><path fill="#9e9e9e" d="M353.0651 289.05673C353.0651 287.95215 352.16965 287.05673 351.0651 287.05673C349.9605 287.05673 349.0651 287.95215 349.0651 289.05673C349.0651 290.1613 349.9605 291.05673 351.0651 291.05673C352.16965 291.05673 353.0651 290.1613 353.0651 289.05673" fill-rule="nonzero"/><path fill="#757575" d="M22.596874 37.55L18.8 23.2375L20.7375 23.2375L22.909374 32.6125Q23.26875 34.096874 23.51875 35.55Q24.065624 33.253124 24.159374 32.89375L26.89375 23.2375L29.175 23.2375L31.221874 30.471874Q32.003124 33.175 32.346874 35.55Q32.6125 34.190624 33.05 32.425L35.3 23.2375L37.20625 23.2375L33.284374 37.55L31.45625 37.55L28.440624 26.64375Q28.05 25.26875 27.9875 24.95625Q27.753124 25.940624 27.565624 26.64375L24.534374 37.55L22.596874 37.55ZM38.221874 32.3625Q38.221874 29.4875 39.815624 28.096874Q41.159374 26.940624 43.08125 26.940624Q45.221874 26.940624 46.565624 28.346874Q47.925 29.753124 47.925 32.221874Q47.925 34.221874 47.33125 35.378124Q46.7375 36.51875 45.58125 37.159374Q44.440624 37.784374 43.08125 37.784374Q40.89375 37.784374 39.55 36.39375Q38.221874 34.9875 38.221874 32.3625ZM40.01875 32.3625Q40.01875 34.3625 40.878124 35.346874Q41.753124 36.33125 43.08125 36.33125Q44.39375 36.33125 45.253124 35.346874Q46.128124 34.346874 46.128124 32.3Q46.128124 30.378124 45.253124 29.39375Q44.378124 28.39375 43.08125 28.39375Q41.753124 28.39375 40.878124 29.39375Q40.01875 30.378124 40.01875 32.3625ZM56.659374 37.55L56.659374 36.01875Q55.45625 37.784374 53.378124 37.784374Q52.45625 37.784374 51.659374 37.440624Q50.8625 37.08125 50.471874 36.55Q50.096874 36.01875 49.940624 35.2375Q49.83125 34.721874 49.83125 33.596874L49.83125 27.175L51.58125 27.175L51.58125 32.925Q51.58125 34.3 51.690624 34.784374Q51.8625 35.471874 52.39375 35.878124Q52.940624 36.26875 53.721874 36.26875Q54.51875 36.26875 55.20625 35.8625Q55.909374 35.45625 56.190624 34.76875Q56.4875 34.065624 56.4875 32.7375L56.4875 27.175L58.2375 27.175L58.2375 37.55L56.659374 37.55ZM60.83125 37.55L60.83125 23.2375L62.58125 23.2375L62.58125 37.55L60.83125 37.55ZM71.59688 37.55L71.59688 36.2375Q70.6125 37.784374 68.69063 37.784374Q67.45625 37.784374 66.40938 37.096874Q65.37813 36.409374 64.8 35.190624Q64.2375 33.971874 64.2375 32.378124Q64.2375 30.815624 64.75313 29.55Q65.26875 28.284374 66.3 27.6125Q67.34688 26.940624 68.6125 26.940624Q69.55 26.940624 70.28438 27.346874Q71.01875 27.7375 71.4875 28.3625L71.4875 23.2375L73.22188 23.2375L73.22188 37.55L71.59688 37.55ZM66.03438 32.378124Q66.03438 34.3625 66.87813 35.346874Q67.72188 36.33125 68.8625 36.33125Q70.01875 36.33125 70.81563 35.39375Q71.62813 34.45625 71.62813 32.51875Q71.62813 30.39375 70.8 29.39375Q69.9875 28.39375 68.78438 28.39375Q67.6125 28.39375 66.81563 29.3625Q66.03438 30.315624 66.03438 32.378124ZM81.78438 41.55L81.59688 39.89375Q82.175 40.05 82.59688 40.05Q83.19063 40.05 83.53438 39.846874Q83.89375 39.659374 84.1125 39.315624Q84.28438 39.05 84.65938 38.003124Q84.70625 37.846874 84.81563 37.565624L80.87813 27.175L82.76875 27.175L84.925 33.190624Q85.34688 34.33125 85.675 35.58125Q85.9875 34.378124 86.39375 33.221874L88.6125 27.175L90.37813 27.175L86.425 37.721874Q85.8 39.440624 85.44063 40.08125Q84.97188 40.95625 84.3625 41.346874Q83.76875 41.753124 82.925 41.753124Q82.40938 41.753124 81.78438 41.55ZM91.22188 32.3625Q91.22188 29.4875 92.81563 28.096874Q94.15938 26.940624 96.08125 26.940624Q98.22188 26.940624 99.56563 28.346874Q100.925 29.753124 100.925 32.221874Q100.925 34.221874 100.33125 35.378124Q99.7375 36.51875 98.58125 37.159374Q97.44063 37.784374 96.08125 37.784374Q93.89375 37.784374 92.55 36.39375Q91.22188 34.9875 91.22188 32.3625ZM93.01875 32.3625Q93.01875 34.3625 93.87813 35.346874Q94.75313 36.33125 96.08125 36.33125Q97.39375 36.33125 98.25313 35.346874Q99.12813 34.346874 99.12813 32.3Q99.12813 30.378124 98.25313 29.39375Q97.37813 28.39375 96.08125 28.39375Q94.75313 28.39375 93.87813 29.39375Q93.01875 30.378124 93.01875 32.3625ZM109.65938 37.55L109.65938 36.01875Q108.45625 37.784374 106.37813 37.784374Q105.45625 37.784374 104.65938 37.440624Q103.8625 37.08125 103.47188 36.55Q103.09688 36.01875 102.94063 35.2375Q102.83125 34.721874 102.83125 33.596874L102.83125 27.175L104.58125 27.175L104.58125 32.925Q104.58125 34.3 104.69063 34.784374Q104.8625 35.471874 105.39375 35.878124Q105.94063 36.26875 106.72188 36.26875Q107.51875 36.26875 108.20625 35.8625Q108.90938 35.45625 109.19063 34.76875Q109.4875 34.065624 109.4875 32.7375L109.4875 27.175L111.2375 27.175L111.2375 37.55L109.65938 37.55ZM126.65938 37.55L126.65938 36.01875Q125.45625 37.784374 123.37813 37.784374Q122.45625 37.784374 121.65938 37.440624Q120.8625 37.08125 120.47188 36.55Q120.09688 36.01875 119.94063 35.2375Q119.83125 34.721874 119.83125 33.596874L119.83125 27.175L121.58125 27.175L121.58125 32.925Q121.58125 34.3 121.69063 34.784374Q121.8625 35.471874 122.39375 35.878124Q122.94063 36.26875 123.72188 36.26875Q124.51875 36.26875 125.20625 35.8625Q125.90938 35.45625 126.19063 34.76875Q126.4875 34.065624 126.4875 32.7375L126.4875 27.175L128.2375 27.175L128.2375 37.55L126.65938 37.55ZM130.15938 34.45625L131.90938 34.175Q132.05 35.221874 132.72188 35.784374Q133.39375 36.33125 134.59688 36.33125Q135.8 36.33125 136.37813 35.846874Q136.97188 35.346874 136.97188 34.690624Q136.97188 34.096874 136.45625 33.753124Q136.09688 33.51875 134.65938 33.159374Q132.72188 32.659374 131.97188 32.315624Q131.2375 31.95625 130.84688 31.33125Q130.45625 30.690624 130.45625 29.925Q130.45625 29.2375 130.76875 28.64375Q131.09688 28.05 131.64375 27.659374Q132.05 27.3625 132.75313 27.159374Q133.47188 26.940624 134.28438 26.940624Q135.50313 26.940624 136.425 27.3Q137.34688 27.64375 137.78438 28.253124Q138.22188 28.846874 138.39375 29.846874L136.675 30.08125Q136.55 29.284374 135.9875 28.846874Q135.425 28.39375 134.40938 28.39375Q133.19063 28.39375 132.675 28.8Q132.15938 29.190624 132.15938 29.721874Q132.15938 30.065624 132.37813 30.346874Q132.58125 30.628124 133.05 30.815624Q133.31563 30.909374 134.59688 31.253124Q136.47188 31.753124 137.20625 32.08125Q137.94063 32.39375 138.3625 33.003124Q138.78438 33.596874 138.78438 34.503124Q138.78438 35.378124 138.26875 36.159374Q137.75313 36.940624 136.78438 37.3625Q135.81563 37.784374 134.59688 37.784374Q132.58125 37.784374 131.51875 36.940624Q130.45625 36.096874 130.15938 34.45625ZM147.97188 34.20625L149.78438 34.440624Q149.3625 36.01875 148.19063 36.909374Q147.03438 37.784374 145.22188 37.784374Q142.95625 37.784374 141.6125 36.39375Q140.28438 34.9875 140.28438 32.45625Q140.28438 29.83125 141.62813 28.39375Q142.97188 26.940624 145.12813 26.940624Q147.20625 26.940624 148.51875 28.3625Q149.84688 29.76875 149.84688 32.346874Q149.84688 32.503124 149.83125 32.815624L142.09688 32.815624Q142.19063 34.51875 143.06563 35.425Q143.94063 36.33125 145.2375 36.33125Q146.20625 36.33125 146.87813 35.83125Q147.56563 35.315624 147.97188 34.20625ZM142.19063 31.3625L147.9875 31.3625Q147.87813 30.065624 147.33125 29.409374Q146.4875 28.39375 145.14375 28.39375Q143.94063 28.39375 143.1125 29.20625Q142.28438 30.003124 142.19063 31.3625ZM164.64375 36.26875Q163.65938 37.096874 162.75313 37.440624Q161.84688 37.784374 160.81563 37.784374Q159.1125 37.784374 158.19063 36.95625Q157.26875 36.1125 157.26875 34.815624Q157.26875 34.05 157.6125 33.425Q157.97188 32.8 158.53438 32.425Q159.09688 32.034374 159.8 31.83125Q160.31563 31.70625 161.3625 31.565624Q163.4875 31.315624 164.4875 30.971874Q164.50313 30.6125 164.50313 30.503124Q164.50313 29.440624 164.00313 28.9875Q163.33125 28.39375 162.00313 28.39375Q160.75313 28.39375 160.15938 28.83125Q159.58125 29.26875 159.3 30.378124L157.58125 30.14375Q157.81563 29.034374 158.34688 28.3625Q158.87813 27.675 159.89375 27.315624Q160.90938 26.940624 162.25313 26.940624Q163.58125 26.940624 164.40938 27.253124Q165.2375 27.565624 165.62813 28.05Q166.01875 28.51875 166.175 29.2375Q166.26875 29.690624 166.26875 30.8625L166.26875 33.20625Q166.26875 35.659374 166.37813 36.315624Q166.4875 36.95625 166.83125 37.55L164.9875 37.55Q164.72188 37.003124 164.64375 36.26875ZM164.4875 32.346874Q163.53438 32.7375 161.6125 33.003124Q160.53438 33.159374 160.08125 33.3625Q159.64375 33.55 159.39375 33.925Q159.14375 34.3 159.14375 34.76875Q159.14375 35.471874 159.675 35.940624Q160.20625 36.409374 161.2375 36.409374Q162.25313 36.409374 163.03438 35.971874Q163.83125 35.51875 164.20625 34.753124Q164.4875 34.14375 164.4875 32.9875L164.4875 32.346874ZM168.8625 37.55L168.8625 27.175L170.45625 27.175L170.45625 28.659374Q171.59688 26.940624 173.75313 26.940624Q174.69063 26.940624 175.47188 27.284374Q176.26875 27.6125 176.65938 28.159374Q177.05 28.70625 177.20625 29.45625Q177.3 29.95625 177.3 31.175L177.3 37.55L175.53438 37.55L175.53438 31.2375Q175.53438 30.159374 175.33125 29.628124Q175.12813 29.096874 174.59688 28.784374Q174.08125 28.471874 173.37813 28.471874Q172.25313 28.471874 171.44063 29.190624Q170.62813 29.89375 170.62813 31.878124L170.62813 37.55L168.8625 37.55ZM192.64375 36.26875Q191.65938 37.096874 190.75313 37.440624Q189.84688 37.784374 188.81563 37.784374Q187.1125 37.784374 186.19063 36.95625Q185.26875 36.1125 185.26875 34.815624Q185.26875 34.05 185.6125 33.425Q185.97188 32.8 186.53438 32.425Q187.09688 32.034374 187.8 31.83125Q188.31563 31.70625 189.3625 31.565624Q191.4875 31.315624 192.4875 30.971874Q192.50313 30.6125 192.50313 30.503124Q192.50313 29.440624 192.00313 28.9875Q191.33125 28.39375 190.00313 28.39375Q188.75313 28.39375 188.15938 28.83125Q187.58125 29.26875 187.3 30.378124L185.58125 30.14375Q185.81563 29.034374 186.34688 28.3625Q186.87813 27.675 187.89375 27.315624Q188.90938 26.940624 190.25313 26.940624Q191.58125 26.940624 192.40938 27.253124Q193.2375 27.565624 193.62813 28.05Q194.01875 28.51875 194.175 29.2375Q194.26875 29.690624 194.26875 30.8625L194.26875 33.20625Q194.26875 35.659374 194.37813 36.315624Q194.4875 36.95625 194.83125 37.55L192.9875 37.55Q192.72188 37.003124 192.64375 36.26875ZM192.4875 32.346874Q191.53438 32.7375 189.6125 33.003124Q188.53438 33.159374 188.08125 33.3625Q187.64375 33.55 187.39375 33.925Q187.14375 34.3 187.14375 34.76875Q187.14375 35.471874 187.675 35.940624Q188.20625 36.409374 189.2375 36.409374Q190.25313 36.409374 191.03438 35.971874Q191.83125 35.51875 192.20625 34.753124Q192.4875 34.14375 192.4875 32.9875L192.4875 32.346874ZM196.8625 41.51875L196.8625 27.175L198.47188 27.175L198.47188 28.51875Q199.03438 27.7375 199.7375 27.346874Q200.45625 26.940624 201.47188 26.940624Q202.8 26.940624 203.81563 27.628124Q204.83125 28.315624 205.34688 29.565624Q205.87813 30.8 205.87813 32.284374Q205.87813 33.878124 205.3 35.159374Q204.7375 36.425 203.64375 37.1125Q202.55 37.784374 201.34688 37.784374Q200.47188 37.784374 199.76875 37.409374Q199.08125 37.034374 198.62813 36.471874L198.62813 41.51875L196.8625 41.51875ZM198.45625 32.425Q198.45625 34.425 199.26875 35.378124Q200.08125 36.33125 201.2375 36.33125Q202.40938 36.33125 203.2375 35.346874Q204.08125 34.3625 204.08125 32.26875Q204.08125 30.3 203.25313 29.315624Q202.44063 28.315624 201.31563 28.315624Q200.19063 28.315624 199.31563 29.378124Q198.45625 30.425 198.45625 32.425ZM207.8625 41.51875L207.8625 27.175L209.47188 27.175L209.47188 28.51875Q210.03438 27.7375 210.7375 27.346874Q211.45625 26.940624 212.47188 26.940624Q213.8 26.940624 214.81563 27.628124Q215.83125 28.315624 216.34688 29.565624Q216.87813 30.8 216.87813 32.284374Q216.87813 33.878124 216.3 35.159374Q215.7375 36.425 214.64375 37.1125Q213.55 37.784374 212.34688 37.784374Q211.47188 37.784374 210.76875 37.409374Q210.08125 37.034374 209.62813 36.471874L209.62813 41.51875L207.8625 41.51875ZM209.45625 32.425Q209.45625 34.425 210.26875 35.378124Q211.08125 36.33125 212.2375 36.33125Q213.40938 36.33125 214.2375 35.346874Q215.08125 34.3625 215.08125 32.26875Q215.08125 30.3 214.25313 29.315624Q213.44063 28.315624 212.31563 28.315624Q211.19063 28.315624 210.31563 29.378124Q209.45625 30.425 209.45625 32.425ZM228.70625 35.971874L228.95625 37.534374Q228.22188 37.690624 227.62813 37.690624Q226.675 37.690624 226.14375 37.39375Q225.62813 37.08125 225.40938 36.596874Q225.19063 36.096874 225.19063 34.51875L225.19063 28.55L223.90938 28.55L223.90938 27.175L225.19063 27.175L225.19063 24.6125L226.94063 23.55L226.94063 27.175L228.70625 27.175L228.70625 28.55L226.94063 28.55L226.94063 34.6125Q226.94063 35.3625 227.03438 35.58125Q227.12813 35.784374 227.33125 35.925Q227.55 36.05 227.94063 36.05Q228.22188 36.05 228.70625 35.971874ZM230.22188 32.3625Q230.22188 29.4875 231.81563 28.096874Q233.15938 26.940624 235.08125 26.940624Q237.22188 26.940624 238.56563 28.346874Q239.925 29.753124 239.925 32.221874Q239.925 34.221874 239.33125 35.378124Q238.7375 36.51875 237.58125 37.159374Q236.44063 37.784374 235.08125 37.784374Q232.89375 37.784374 231.55 36.39375Q230.22188 34.9875 230.22188 32.3625ZM232.01875 32.3625Q232.01875 34.3625 232.87813 35.346874Q233.75313 36.33125 235.08125 36.33125Q236.39375 36.33125 237.25313 35.346874Q238.12813 34.346874 238.12813 32.3Q238.12813 30.378124 237.25313 29.39375Q236.37813 28.39375 235.08125 28.39375Q233.75313 28.39375 232.87813 29.39375Q232.01875 30.378124 232.01875 32.3625ZM247.87813 25.253124L247.87813 23.2375L249.64375 23.2375L249.64375 25.253124L247.87813 25.253124ZM247.87813 37.55L247.87813 27.175L249.64375 27.175L249.64375 37.55L247.87813 37.55ZM251.8625 37.55L251.8625 27.175L253.44063 27.175L253.44063 28.628124Q253.925 27.878124 254.7375 27.409374Q255.55 26.940624 256.58124 26.940624Q257.7375 26.940624 258.47186 27.425Q259.20624 27.89375 259.51874 28.753124Q260.7531 26.940624 262.72186 26.940624Q264.26874 26.940624 265.09686 27.8Q265.925 28.659374 265.925 30.425L265.925 37.55L264.175 37.55L264.175 31.01875Q264.175 29.95625 264.0031 29.503124Q263.83124 29.034374 263.3781 28.753124Q262.9406 28.471874 262.33124 28.471874Q261.2375 28.471874 260.5031 29.20625Q259.78436 29.925 259.78436 31.51875L259.78436 37.55L258.03436 37.55L258.03436 30.815624Q258.03436 29.64375 257.59686 29.065624Q257.175 28.471874 256.1906 28.471874Q255.45625 28.471874 254.81563 28.8625Q254.19063 29.253124 253.90938 30.003124Q253.62813 30.753124 253.62813 32.175L253.62813 37.55L251.8625 37.55ZM268.8625 41.51875L268.8625 27.175L270.47186 27.175L270.47186 28.51875Q271.03436 27.7375 271.7375 27.346874Q272.45624 26.940624 273.47186 26.940624Q274.8 26.940624 275.8156 27.628124Q276.83124 28.315624 277.34686 29.565624Q277.8781 30.8 277.8781 32.284374Q277.8781 33.878124 277.3 35.159374Q276.7375 36.425 275.64374 37.1125Q274.55 37.784374 273.34686 37.784374Q272.47186 37.784374 271.76874 37.409374Q271.08124 37.034374 270.6281 36.471874L270.6281 41.51875L268.8625 41.51875ZM270.45624 32.425Q270.45624 34.425 271.26874 35.378124Q272.08124 36.33125 273.2375 36.33125Q274.40936 36.33125 275.2375 35.346874Q276.08124 34.3625 276.08124 32.26875Q276.08124 30.3 275.2531 29.315624Q274.4406 28.315624 273.3156 28.315624Q272.1906 28.315624 271.3156 29.378124Q270.45624 30.425 270.45624 32.425ZM279.84686 37.55L279.84686 27.175L281.425 27.175L281.425 28.753124Q282.03436 27.64375 282.55 27.3Q283.0656 26.940624 283.675 26.940624Q284.5656 26.940624 285.4875 27.503124L284.8781 29.14375Q284.2375 28.753124 283.59686 28.753124Q283.01874 28.753124 282.55 29.1125Q282.09686 29.45625 281.89374 30.065624Q281.6125 31.003124 281.6125 32.1125L281.6125 37.55L279.84686 37.55ZM286.22186 32.3625Q286.22186 29.4875 287.8156 28.096874Q289.15936 26.940624 291.08124 26.940624Q293.22186 26.940624 294.5656 28.346874Q295.925 29.753124 295.925 32.221874Q295.925 34.221874 295.33124 35.378124Q294.7375 36.51875 293.58124 37.159374Q292.4406 37.784374 291.08124 37.784374Q288.89374 37.784374 287.55 36.39375Q286.22186 34.9875 286.22186 32.3625ZM288.01874 32.3625Q288.01874 34.3625 288.8781 35.346874Q289.7531 36.33125 291.08124 36.33125Q292.39374 36.33125 293.2531 35.346874Q294.1281 34.346874 294.1281 32.3Q294.1281 30.378124 293.2531 29.39375Q292.3781 28.39375 291.08124 28.39375Q289.7531 28.39375 288.8781 29.39375Q288.01874 30.378124 288.01874 32.3625ZM300.7531 37.55L296.8 27.175L298.65936 27.175L300.89374 33.39375Q301.2531 34.39375 301.55 35.471874Q301.78436 34.659374 302.20624 33.503124L304.5031 27.175L306.3156 27.175L302.39374 37.55L300.7531 37.55ZM314.97186 34.20625L316.78436 34.440624Q316.3625 36.01875 315.1906 36.909374Q314.03436 37.784374 312.22186 37.784374Q309.95624 37.784374 308.6125 36.39375Q307.28436 34.9875 307.28436 32.45625Q307.28436 29.83125 308.6281 28.39375Q309.97186 26.940624 312.1281 26.940624Q314.20624 26.940624 315.51874 28.3625Q316.84686 29.76875 316.84686 32.346874Q316.84686 32.503124 316.83124 32.815624L309.09686 32.815624Q309.1906 34.51875 310.0656 35.425Q310.9406 36.33125 312.2375 36.33125Q313.20624 36.33125 313.8781 35.83125Q314.5656 35.315624 314.97186 34.20625ZM309.1906 31.3625L314.9875 31.3625Q314.8781 30.065624 314.33124 29.409374Q313.4875 28.39375 312.14374 28.39375Q310.9406 28.39375 310.1125 29.20625Q309.28436 30.003124 309.1906 31.3625ZM324.78436 41.55L324.59686 39.89375Q325.175 40.05 325.59686 40.05Q326.1906 40.05 326.53436 39.846874Q326.89374 39.659374 327.1125 39.315624Q327.28436 39.05 327.65936 38.003124Q327.70624 37.846874 327.8156 37.565624L323.8781 27.175L325.76874 27.175L327.925 33.190624Q328.34686 34.33125 328.675 35.58125Q328.9875 34.378124 329.39374 33.221874L331.6125 27.175L333.3781 27.175L329.425 37.721874Q328.8 39.440624 328.4406 40.08125Q327.97186 40.95625 327.3625 41.346874Q326.76874 41.753124 325.925 41.753124Q325.40936 41.753124 324.78436 41.55ZM334.22186 32.3625Q334.22186 29.4875 335.8156 28.096874Q337.15936 26.940624 339.08124 26.940624Q341.22186 26.940624 342.5656 28.346874Q343.925 29.753124 343.925 32.221874Q343.925 34.221874 343.33124 35.378124Q342.7375 36.51875 341.58124 37.159374Q340.4406 37.784374 339.08124 37.784374Q336.89374 37.784374 335.55 36.39375Q334.22186 34.9875 334.22186 32.3625ZM336.01874 32.3625Q336.01874 34.3625 336.8781 35.346874Q337.7531 36.33125 339.08124 36.33125Q340.39374 36.33125 341.2531 35.346874Q342.1281 34.346874 342.1281 32.3Q342.1281 30.378124 341.2531 29.39375Q340.3781 28.39375 339.08124 28.39375Q337.7531 28.39375 336.8781 29.39375Q336.01874 30.378124 336.01874 32.3625ZM352.65936 37.55L352.65936 36.01875Q351.45624 37.784374 349.3781 37.784374Q348.45624 37.784374 347.65936 37.440624Q346.8625 37.08125 346.47186 36.55Q346.09686 36.01875 345.9406 35.2375Q345.83124 34.721874 345.83124 33.596874L345.83124 27.175L347.58124 27.175L347.58124 32.925Q347.58124 34.3 347.6906 34.784374Q347.8625 35.471874 348.39374 35.878124Q348.9406 36.26875 349.72186 36.26875Q350.51874 36.26875 351.20624 35.8625Q351.90936 35.45625 352.1906 34.76875Q352.4875 34.065624 352.4875 32.7375L352.4875 27.175L354.2375 27.175L354.2375 37.55L352.65936 37.55ZM356.84686 37.55L356.84686 27.175L358.425 27.175L358.425 28.753124Q359.03436 27.64375 359.55 27.3Q360.0656 26.940624 360.675 26.940624Q361.5656 26.940624 362.4875 27.503124L361.8781 29.14375Q361.2375 28.753124 360.59686 28.753124Q360.01874 28.753124 359.55 29.1125Q359.09686 29.45625 358.89374 30.065624Q358.6125 31.003124 358.6125 32.1125L358.6125 37.55L356.84686 37.55ZM376.97186 34.20625L378.78436 34.440624Q378.3625 36.01875 377.1906 36.909374Q376.03436 37.784374 374.22186 37.784374Q371.95624 37.784374 370.6125 36.39375Q369.28436 34.9875 369.28436 32.45625Q369.28436 29.83125 370.6281 28.39375Q371.97186 26.940624 374.1281 26.940624Q376.20624 26.940624 377.51874 28.3625Q378.84686 29.76875 378.84686 32.346874Q378.84686 32.503124 378.83124 32.815624L371.09686 32.815624Q371.1906 34.51875 372.0656 35.425Q372.9406 36.33125 374.2375 36.33125Q375.20624 36.33125 375.8781 35.83125Q376.5656 35.315624 376.97186 34.20625ZM371.1906 31.3625L376.9875 31.3625Q376.8781 30.065624 376.33124 29.409374Q375.4875 28.39375 374.14374 28.39375Q372.9406 28.39375 372.1125 29.20625Q371.28436 30.003124 371.1906 31.3625ZM379.6906 37.55L383.4875 32.159374L379.9875 27.175L382.175 27.175L383.76874 29.6125Q384.22186 30.3 384.4875 30.76875Q384.925 30.128124 385.28436 29.628124L387.03436 27.175L389.1281 27.175L385.55 32.065624L389.40936 37.55L387.2531 37.55L385.1125 34.33125L384.55 33.45625L381.83124 37.55L379.6906 37.55ZM390.8625 41.51875L390.8625 27.175L392.47186 27.175L392.47186 28.51875Q393.03436 27.7375 393.7375 27.346874Q394.45624 26.940624 395.47186 26.940624Q396.8 26.940624 397.8156 27.628124Q398.83124 28.315624 399.34686 29.565624Q399.8781 30.8 399.8781 32.284374Q399.8781 33.878124 399.3 35.159374Q398.7375 36.425 397.64374 37.1125Q396.55 37.784374 395.34686 37.784374Q394.47186 37.784374 393.76874 37.409374Q393.08124 37.034374 392.6281 36.471874L392.6281 41.51875L390.8625 41.51875ZM392.45624 32.425Q392.45624 34.425 393.26874 35.378124Q394.08124 36.33125 395.2375 36.33125Q396.40936 36.33125 397.2375 35.346874Q398.08124 34.3625 398.08124 32.26875Q398.08124 30.3 397.2531 29.315624Q396.4406 28.315624 395.3156 28.315624Q394.1906 28.315624 393.3156 29.378124Q392.45624 30.425 392.45624 32.425ZM408.97186 34.20625L410.78436 34.440624Q410.3625 36.01875 409.1906 36.909374Q408.03436 37.784374 406.22186 37.784374Q403.95624 37.784374 402.6125 36.39375Q401.28436 34.9875 401.28436 32.45625Q401.28436 29.83125 402.6281 28.39375Q403.97186 26.940624 406.1281 26.940624Q408.20624 26.940624 409.51874 28.3625Q410.84686 29.76875 410.84686 32.346874Q410.84686 32.503124 410.83124 32.815624L403.09686 32.815624Q403.1906 34.51875 404.0656 35.425Q404.9406 36.33125 406.2375 36.33125Q407.20624 36.33125 407.8781 35.83125Q408.5656 35.315624 408.97186 34.20625ZM403.1906 31.3625L408.9875 31.3625Q408.8781 30.065624 408.33124 29.409374Q407.4875 28.39375 406.14374 28.39375Q404.9406 28.39375 404.1125 29.20625Q403.28436 30.003124 403.1906 31.3625ZM412.84686 37.55L412.84686 27.175L414.425 27.175L414.425 28.753124Q415.03436 27.64375 415.55 27.3Q416.0656 26.940624 416.675 26.940624Q417.5656 26.940624 418.4875 27.503124L417.8781 29.14375Q417.2375 28.753124 416.59686 28.753124Q416.01874 28.753124 415.55 29.1125Q415.09686 29.45625 414.89374 30.065624Q414.6125 31.003124 414.6125 32.1125L414.6125 37.55L412.84686 37.55ZM419.8781 25.253124L419.8781 23.2375L421.64374 23.2375L421.64374 25.253124L419.8781 25.253124ZM419.8781 37.55L419.8781 27.175L421.64374 27.175L421.64374 37.55L419.8781 37.55ZM430.97186 34.20625L432.78436 34.440624Q432.3625 36.01875 431.1906 36.909374Q430.03436 37.784374 428.22186 37.784374Q425.95624 37.784374 424.6125 36.39375Q423.28436 34.9875 423.28436 32.45625Q423.28436 29.83125 424.6281 28.39375Q425.97186 26.940624 428.1281 26.940624Q430.20624 26.940624 431.51874 28.3625Q432.84686 29.76875 432.84686 32.346874Q432.84686 32.503124 432.83124 32.815624L425.09686 32.815624Q425.1906 34.51875 426.0656 35.425Q426.9406 36.33125 428.2375 36.33125Q429.20624 36.33125 429.8781 35.83125Q430.5656 35.315624 430.97186 34.20625ZM425.1906 31.3625L430.9875 31.3625Q430.8781 30.065624 430.33124 29.409374Q429.4875 28.39375 428.14374 28.39375Q426.9406 28.39375 426.1125 29.20625Q425.28436 30.003124 425.1906 31.3625ZM434.8625 37.55L434.8625 27.175L436.45624 27.175L436.45624 28.659374Q437.59686 26.940624 439.7531 26.940624Q440.6906 26.940624 441.47186 27.284374Q442.26874 27.6125 442.65936 28.159374Q443.05 28.70625 443.20624 29.45625Q443.3 29.95625 443.3 31.175L443.3 37.55L441.53436 37.55L441.53436 31.2375Q441.53436 30.159374 441.33124 29.628124Q441.1281 29.096874 440.59686 28.784374Q440.08124 28.471874 439.3781 28.471874Q438.2531 28.471874 437.4406 29.190624Q436.6281 29.89375 436.6281 31.878124L436.6281 37.55L434.8625 37.55ZM452.64374 33.753124L454.3625 33.971874Q454.08124 35.76875 452.90936 36.784374Q451.7531 37.784374 450.05 37.784374Q447.925 37.784374 446.6281 36.39375Q445.33124 35.003124 445.33124 32.409374Q445.33124 30.721874 445.8781 29.471874Q446.4406 28.20625 447.58124 27.58125Q448.72186 26.940624 450.0656 26.940624Q451.7531 26.940624 452.8156 27.8Q453.89374 28.659374 454.20624 30.221874L452.4875 30.4875Q452.2531 29.440624 451.6281 28.925Q451.0031 28.39375 450.1281 28.39375Q448.8 28.39375 447.97186 29.346874Q447.14374 30.3 447.14374 32.346874Q447.14374 34.440624 447.9406 35.39375Q448.7375 36.33125 450.03436 36.33125Q451.0656 36.33125 451.7531 35.70625Q452.45624 35.065624 452.64374 33.753124ZM462.97186 34.20625L464.78436 34.440624Q464.3625 36.01875 463.1906 36.909374Q462.03436 37.784374 460.22186 37.784374Q457.95624 37.784374 456.6125 36.39375Q455.28436 34.9875 455.28436 32.45625Q455.28436 29.83125 456.6281 28.39375Q457.97186 26.940624 460.1281 26.940624Q462.20624 26.940624 463.51874 28.3625Q464.84686 29.76875 464.84686 32.346874Q464.84686 32.503124 464.83124 32.815624L457.09686 32.815624Q457.1906 34.51875 458.0656 35.425Q458.9406 36.33125 460.2375 36.33125Q461.20624 36.33125 461.8781 35.83125Q462.5656 35.315624 462.97186 34.20625ZM457.1906 31.3625L462.9875 31.3625Q462.8781 30.065624 462.33124 29.409374Q461.4875 28.39375 460.14374 28.39375Q458.9406 28.39375 458.1125 29.20625Q457.28436 30.003124 457.1906 31.3625ZM472.8781 25.253124L472.8781 23.2375L474.64374 23.2375L474.64374 25.253124L472.8781 25.253124ZM472.8781 37.55L472.8781 27.175L474.64374 27.175L474.64374 37.55L472.8781 37.55ZM476.8625 37.55L476.8625 27.175L478.45624 27.175L478.45624 28.659374Q479.59686 26.940624 481.7531 26.940624Q482.6906 26.940624 483.47186 27.284374Q484.26874 27.6125 484.65936 28.159374Q485.05 28.70625 485.20624 29.45625Q485.3 29.95625 485.3 31.175L485.3 37.55L483.53436 37.55L483.53436 31.2375Q483.53436 30.159374 483.33124 29.628124Q483.1281 29.096874 482.59686 28.784374Q482.08124 28.471874 481.3781 28.471874Q480.2531 28.471874 479.4406 29.190624Q478.6281 29.89375 478.6281 31.878124L478.6281 37.55L476.8625 37.55ZM496.7531 37.55L492.8 27.175L494.65936 27.175L496.89374 33.39375Q497.2531 34.39375 497.55 35.471874Q497.78436 34.659374 498.20624 33.503124L500.5031 27.175L502.3156 27.175L498.39374 37.55L496.7531 37.55ZM503.8781 25.253124L503.8781 23.2375L505.64374 23.2375L505.64374 25.253124L503.8781 25.253124ZM503.8781 37.55L503.8781 27.175L505.64374 27.175L505.64374 37.55L503.8781 37.55ZM507.15936 34.45625L508.90936 34.175Q509.05 35.221874 509.72186 35.784374Q510.39374 36.33125 511.59686 36.33125Q512.8 36.33125 513.3781 35.846874Q513.97186 35.346874 513.97186 34.690624Q513.97186 34.096874 513.45624 33.753124Q513.09686 33.51875 511.65936 33.159374Q509.72186 32.659374 508.97186 32.315624Q508.2375 31.95625 507.84686 31.33125Q507.45624 30.690624 507.45624 29.925Q507.45624 29.2375 507.76874 28.64375Q508.09686 28.05 508.64374 27.659374Q509.05 27.3625 509.7531 27.159374Q510.47186 26.940624 511.28436 26.940624Q512.5031 26.940624 513.425 27.3Q514.34686 27.64375 514.78436 28.253124Q515.22186 28.846874 515.39374 29.846874L513.675 30.08125Q513.55 29.284374 512.9875 28.846874Q512.425 28.39375 511.40936 28.39375Q510.1906 28.39375 509.675 28.8Q509.15936 29.190624 509.15936 29.721874Q509.15936 30.065624 509.3781 30.346874Q509.58124 30.628124 510.05 30.815624Q510.3156 30.909374 511.59686 31.253124Q513.47186 31.753124 514.20624 32.08125Q514.9406 32.39375 515.3625 33.003124Q515.78436 33.596874 515.78436 34.503124Q515.78436 35.378124 515.26874 36.159374Q514.7531 36.940624 513.78436 37.3625Q512.8156 37.784374 511.59686 37.784374Q509.58124 37.784374 508.51874 36.940624Q507.45624 36.096874 507.15936 34.45625ZM517.8781 25.253124L517.8781 23.2375L519.64374 23.2375L519.64374 25.253124L517.8781 25.253124ZM517.8781 37.55L517.8781 27.175L519.64374 27.175L519.64374 37.55L517.8781 37.55ZM525.70624 35.971874L525.95624 37.534374Q525.22186 37.690624 524.6281 37.690624Q523.675 37.690624 523.14374 37.39375Q522.6281 37.08125 522.40936 36.596874Q522.1906 36.096874 522.1906 34.51875L522.1906 28.55L520.90936 28.55L520.90936 27.175L522.1906 27.175L522.1906 24.6125L523.9406 23.55L523.9406 27.175L525.70624 27.175L525.70624 28.55L523.9406 28.55L523.9406 34.6125Q523.9406 35.3625 524.03436 35.58125Q524.1281 35.784374 524.33124 35.925Q524.55 36.05 524.9406 36.05Q525.22186 36.05 525.70624 35.971874ZM527.8781 25.253124L527.8781 23.2375L529.64374 23.2375L529.64374 25.253124L527.8781 25.253124ZM527.8781 37.55L527.8781 27.175L529.64374 27.175L529.64374 37.55L527.8781 37.55ZM531.8625 37.55L531.8625 27.175L533.45624 27.175L533.45624 28.659374Q534.59686 26.940624 536.7531 26.940624Q537.6906 26.940624 538.47186 27.284374Q539.26874 27.6125 539.65936 28.159374Q540.05 28.70625 540.20624 29.45625Q540.3 29.95625 540.3 31.175L540.3 37.55L538.53436 37.55L538.53436 31.2375Q538.53436 30.159374 538.33124 29.628124Q538.1281 29.096874 537.59686 28.784374Q537.08124 28.471874 536.3781 28.471874Q535.2531 28.471874 534.4406 29.190624Q533.6281 29.89375 533.6281 31.878124L533.6281 37.55L531.8625 37.55ZM542.55 38.409374L544.2531 38.659374Q544.3625 39.45625 544.84686 39.815624Q545.5031 40.3 546.64374 40.3Q547.8625 40.3 548.51874 39.815624Q549.1906 39.33125 549.425 38.45625Q549.5656 37.909374 549.55 36.190624Q548.39374 37.55 546.675 37.55Q544.53436 37.55 543.3625 36.003124Q542.1906 34.45625 542.1906 32.3Q542.1906 30.815624 542.72186 29.565624Q543.26874 28.315624 544.28436 27.628124Q545.3156 26.940624 546.6906 26.940624Q548.51874 26.940624 549.72186 28.425L549.72186 27.175L551.33124 27.175L551.33124 36.14375Q551.33124 38.565624 550.83124 39.565624Q550.34686 40.58125 549.26874 41.159374Q548.20624 41.753124 546.64374 41.753124Q544.8 41.753124 543.64374 40.925Q542.5031 40.096874 542.55 38.409374ZM544.0031 32.175Q544.0031 34.221874 544.8156 35.159374Q545.6281 36.096874 546.84686 36.096874Q548.05 36.096874 548.8625 35.159374Q549.6906 34.221874 549.6906 32.2375Q549.6906 30.33125 548.84686 29.3625Q548.0031 28.39375 546.8156 28.39375Q545.64374 28.39375 544.8156 29.346874Q544.0031 30.3 544.0031 32.175ZM566.64374 36.26875Q565.65936 37.096874 564.7531 37.440624Q563.84686 37.784374 562.8156 37.784374Q561.1125 37.784374 560.1906 36.95625Q559.26874 36.1125 559.26874 34.815624Q559.26874 34.05 559.6125 33.425Q559.97186 32.8 560.53436 32.425Q561.09686 32.034374 561.8 31.83125Q562.3156 31.70625 563.3625 31.565624Q565.4875 31.315624 566.4875 30.971874Q566.5031 30.6125 566.5031 30.503124Q566.5031 29.440624 566.0031 28.9875Q565.33124 28.39375 564.0031 28.39375Q562.7531 28.39375 562.15936 28.83125Q561.58124 29.26875 561.3 30.378124L559.58124 30.14375Q559.8156 29.034374 560.34686 28.3625Q560.8781 27.675 561.89374 27.315624Q562.90936 26.940624 564.2531 26.940624Q565.58124 26.940624 566.40936 27.253124Q567.2375 27.565624 567.6281 28.05Q568.01874 28.51875 568.175 29.2375Q568.26874 29.690624 568.26874 30.8625L568.26874 33.20625Q568.26874 35.659374 568.3781 36.315624Q568.4875 36.95625 568.83124 37.55L566.9875 37.55Q566.72186 37.003124 566.64374 36.26875ZM566.4875 32.346874Q565.53436 32.7375 563.6125 33.003124Q562.53436 33.159374 562.08124 33.3625Q561.64374 33.55 561.39374 33.925Q561.14374 34.3 561.14374 34.76875Q561.14374 35.471874 561.675 35.940624Q562.20624 36.409374 563.2375 36.409374Q564.2531 36.409374 565.03436 35.971874Q565.83124 35.51875 566.20624 34.753124Q566.4875 34.14375 566.4875 32.9875L566.4875 32.346874Z" fill-rule="nonzero"/><path fill="#757575" d="M19.8625 61.55L19.8625 51.175L21.440624 51.175L21.440624 52.628124Q21.925 51.878124 22.7375 51.409374Q23.55 50.940624 24.58125 50.940624Q25.7375 50.940624 26.471874 51.425Q27.20625 51.89375 27.51875 52.753124Q28.753124 50.940624 30.721874 50.940624Q32.26875 50.940624 33.096874 51.8Q33.925 52.659374 33.925 54.425L33.925 61.55L32.175 61.55L32.175 55.01875Q32.175 53.95625 32.003124 53.503124Q31.83125 53.034374 31.378124 52.753124Q30.940624 52.471874 30.33125 52.471874Q29.2375 52.471874 28.503124 53.20625Q27.784374 53.925 27.784374 55.51875L27.784374 61.55L26.034374 61.55L26.034374 54.815624Q26.034374 53.64375 25.596874 53.065624Q25.175 52.471874 24.190624 52.471874Q23.45625 52.471874 22.815624 52.8625Q22.190624 53.253124 21.909374 54.003124Q21.628124 54.753124 21.628124 56.175L21.628124 61.55L19.8625 61.55ZM43.659374 61.55L43.659374 60.01875Q42.45625 61.784374 40.378124 61.784374Q39.45625 61.784374 38.659374 61.440624Q37.8625 61.08125 37.471874 60.55Q37.096874 60.01875 36.940624 59.2375Q36.83125 58.721874 36.83125 57.596874L36.83125 51.175L38.58125 51.175L38.58125 56.925Q38.58125 58.3 38.690624 58.784374Q38.8625 59.471874 39.39375 59.878124Q39.940624 60.26875 40.721874 60.26875Q41.51875 60.26875 42.20625 59.8625Q42.909374 59.45625 43.190624 58.76875Q43.4875 58.065624 43.4875 56.7375L43.4875 51.175L45.2375 51.175L45.2375 61.55L43.659374 61.55ZM47.159374 58.45625L48.909374 58.175Q49.05 59.221874 49.721874 59.784374Q50.39375 60.33125 51.596874 60.33125Q52.8 60.33125 53.378124 59.846874Q53.971874 59.346874 53.971874 58.690624Q53.971874 58.096874 53.45625 57.753124Q53.096874 57.51875 51.659374 57.159374Q49.721874 56.659374 48.971874 56.315624Q48.2375 55.95625 47.846874 55.33125Q47.45625 54.690624 47.45625 53.925Q47.45625 53.2375 47.76875 52.64375Q48.096874 52.05 48.64375 51.659374Q49.05 51.3625 49.753124 51.159374Q50.471874 50.940624 51.284374 50.940624Q52.503124 50.940624 53.425 51.3Q54.346874 51.64375 54.784374 52.253124Q55.221874 52.846874 55.39375 53.846874L53.675 54.08125Q53.55 53.284374 52.9875 52.846874Q52.425 52.39375 51.409374 52.39375Q50.190624 52.39375 49.675 52.8Q49.159374 53.190624 49.159374 53.721874Q49.159374 54.065624 49.378124 54.346874Q49.58125 54.628124 50.05 54.815624Q50.315624 54.909374 51.596874 55.253124Q53.471874 55.753124 54.20625 56.08125Q54.940624 56.39375 55.3625 57.003124Q55.784374 57.596874 55.784374 58.503124Q55.784374 59.378124 55.26875 60.159374Q54.753124 60.940624 53.784374 61.3625Q52.815624 61.784374 51.596874 61.784374Q49.58125 61.784374 48.51875 60.940624Q47.45625 60.096874 47.159374 58.45625ZM64.97188 58.20625L66.78438 58.440624Q66.3625 60.01875 65.19063 60.909374Q64.03438 61.784374 62.221874 61.784374Q59.95625 61.784374 58.6125 60.39375Q57.284374 58.9875 57.284374 56.45625Q57.284374 53.83125 58.628124 52.39375Q59.971874 50.940624 62.128124 50.940624Q64.20625 50.940624 65.51875 52.3625Q66.84688 53.76875 66.84688 56.346874Q66.84688 56.503124 66.83125 56.815624L59.096874 56.815624Q59.190624 58.51875 60.065624 59.425Q60.940624 60.33125 62.2375 60.33125Q63.20625 60.33125 63.878124 59.83125Q64.56563 59.315624 64.97188 58.20625ZM59.190624 55.3625L64.9875 55.3625Q64.87813 54.065624 64.33125 53.409374Q63.4875 52.39375 62.14375 52.39375Q60.940624 52.39375 60.1125 53.20625Q59.284374 54.003124 59.190624 55.3625ZM75.65938 61.55L75.65938 60.01875Q74.45625 61.784374 72.37813 61.784374Q71.45625 61.784374 70.65938 61.440624Q69.8625 61.08125 69.47188 60.55Q69.09688 60.01875 68.94063 59.2375Q68.83125 58.721874 68.83125 57.596874L68.83125 51.175L70.58125 51.175L70.58125 56.925Q70.58125 58.3 70.69063 58.784374Q70.8625 59.471874 71.39375 59.878124Q71.94063 60.26875 72.72188 60.26875Q73.51875 60.26875 74.20625 59.8625Q74.90938 59.45625 75.19063 58.76875Q75.4875 58.065624 75.4875 56.7375L75.4875 51.175L77.2375 51.175L77.2375 61.55L75.65938 61.55ZM79.8625 61.55L79.8625 51.175L81.44063 51.175L81.44063 52.628124Q81.925 51.878124 82.7375 51.409374Q83.55 50.940624 84.58125 50.940624Q85.7375 50.940624 86.47188 51.425Q87.20625 51.89375 87.51875 52.753124Q88.75313 50.940624 90.72188 50.940624Q92.26875 50.940624 93.09688 51.8Q93.925 52.659374 93.925 54.425L93.925 61.55L92.175 61.55L92.175 55.01875Q92.175 53.95625 92.00313 53.503124Q91.83125 53.034374 91.37813 52.753124Q90.94063 52.471874 90.33125 52.471874Q89.2375 52.471874 88.50313 53.20625Q87.78438 53.925 87.78438 55.51875L87.78438 61.55L86.03438 61.55L86.03438 54.815624Q86.03438 53.64375 85.59688 53.065624Q85.175 52.471874 84.19063 52.471874Q83.45625 52.471874 82.81563 52.8625Q82.19063 53.253124 81.90938 54.003124Q81.62813 54.753124 81.62813 56.175L81.62813 61.55L79.8625 61.55ZM100.15938 58.01875Q100.14375 57.675 100.14375 57.503124Q100.14375 56.45625 100.44063 55.70625Q100.65938 55.14375 101.14375 54.565624Q101.4875 54.14375 102.39375 53.346874Q103.31563 52.534374 103.58125 52.065624Q103.8625 51.58125 103.8625 51.01875Q103.8625 49.9875 103.05 49.221874Q102.25313 48.440624 101.09688 48.440624Q99.97188 48.440624 99.22188 49.14375Q98.47188 49.846874 98.2375 51.33125L96.425 51.1125Q96.675 49.1125 97.87813 48.05Q99.08125 46.9875 101.06563 46.9875Q103.175 46.9875 104.425 48.128124Q105.675 49.26875 105.675 50.89375Q105.675 51.83125 105.22188 52.628124Q104.78438 53.409374 103.50313 54.55Q102.64375 55.315624 102.37813 55.675Q102.12813 56.034374 101.9875 56.503124Q101.8625 56.971874 101.84688 58.01875L100.15938 58.01875ZM100.05 61.55L100.05 59.55L102.05 59.55L102.05 61.55L100.05 61.55Z" fill-rule="nonzero"/></svg>