<svg version="1.1" viewBox="0.0 0.0 600.0 371.0" fill="none" stroke="none" stroke-linecap="square" stroke-miterlimit="10" width="600" height="371" xmlns:xlink="http://www.w3.org/1999/xlink" xmlns="http://www.w3.org/2000/svg"><path fill="#ffffff" d="M0 0L600.0 0L600.0 371.0L0 371.0L0 0Z" fill-rule="nonzero"/><path fill="#fbbc04" d="M246.25928 95.42128C263.39844 90.77346 281.61966 88.38917 300.0 88.38917L300.0 192.52583Z" fill-rule="nonzero"/><path fill="#ea4335" d="M156.9124 164.02748C169.67955 132.61717 202.75684 107.21834 246.25928 95.42128L300.0 192.52583Z" fill-rule="nonzero"/><path fill="#2e5dab" d="M448.76666 214.84084C448.76666 272.3539 382.16156 318.9775 300.0 318.9775C217.83844 318.9775 151.23334 272.3539 151.23334 214.84084L151.23334 192.52583C151.23334 250.03893 217.83844 296.6625 300.0 296.6625C382.16156 296.6625 448.76666 250.03893 448.76666 192.52583Z" fill-rule="nonzero"/><path fill="#4285f4" d="M300.0 88.38917C363.94342 88.38917 420.73404 116.99204 441.0547 159.4321C461.37537 201.87215 440.6799 248.65453 389.65195 275.6287C338.624 302.60284 268.67972 303.73404 215.92654 278.43832C163.17337 253.1426 139.41345 207.07918 156.9124 164.02748L300.0 192.52583Z" fill-rule="nonzero"/><path fill="#1a1a1a" d="M21.89375 90.57885L21.89375 86.938225L18.58125 81.9851L19.971874 81.9851L21.659374 84.57885Q22.128124 85.2976 22.534374 86.031975Q22.925 85.3601 23.471874 84.51635L25.14375 81.9851L26.45625 81.9851L23.034374 86.938225L23.034374 90.57885L21.89375 90.57885ZM31.596874 88.57885L32.690624 88.70385Q32.440624 89.656975 31.7375 90.188225Q31.034374 90.719475 29.95625 90.719475Q28.596874 90.719475 27.784374 89.875725Q26.9875 89.031975 26.9875 87.51635Q26.9875 85.95385 27.8 85.094475Q28.6125 84.219475 29.89375 84.219475Q31.14375 84.219475 31.925 85.063225Q32.721874 85.906975 32.721874 87.45385Q32.721874 87.5476 32.721874 87.7351L28.08125 87.7351Q28.14375 88.76635 28.659374 89.313225Q29.175 89.844475 29.95625 89.844475Q30.534374 89.844475 30.940624 89.5476Q31.3625 89.2351 31.596874 88.57885ZM28.14375 86.875725L31.6125 86.875725Q31.55 86.07885 31.221874 85.688225Q30.70625 85.07885 29.909374 85.07885Q29.175 85.07885 28.675 85.563225Q28.190624 86.0476 28.14375 86.875725ZM33.925 88.719475L34.95625 88.563225Q35.05 89.188225 35.440624 89.51635Q35.846874 89.844475 36.58125 89.844475Q37.3 89.844475 37.64375 89.563225Q38.003124 89.26635 38.003124 88.8601Q38.003124 88.500725 37.690624 88.2976Q37.471874 88.156975 36.6125 87.938225Q35.45625 87.64135 35.003124 87.438225Q34.565624 87.219475 34.33125 86.844475Q34.096874 86.469475 34.096874 86.000725Q34.096874 85.594475 34.284374 85.2351Q34.471874 84.875725 34.8 84.64135Q35.05 84.469475 35.471874 84.344475Q35.89375 84.219475 36.39375 84.219475Q37.1125 84.219475 37.659374 84.438225Q38.221874 84.64135 38.4875 85.000725Q38.753124 85.3601 38.846874 85.95385L37.815624 86.094475Q37.753124 85.625725 37.409374 85.3601Q37.08125 85.07885 36.45625 85.07885Q35.7375 85.07885 35.425 85.32885Q35.1125 85.563225 35.1125 85.89135Q35.1125 86.094475 35.2375 86.250725Q35.378124 86.4226 35.64375 86.531975Q35.8 86.594475 36.58125 86.7976Q37.70625 87.1101 38.14375 87.2976Q38.58125 87.4851 38.83125 87.844475Q39.08125 88.20385 39.08125 88.750725Q39.08125 89.281975 38.76875 89.750725Q38.471874 90.20385 37.89375 90.469475Q37.315624 90.719475 36.58125 90.719475Q35.3625 90.719475 34.721874 90.219475Q34.096874 89.70385 33.925 88.719475Z" fill-rule="nonzero"/><path fill="#9e9e9e" d="M19.05 105.32885L20.159374 105.2351Q20.284374 106.0476 20.721874 106.45385Q21.175 106.8601 21.815624 106.8601Q22.565624 106.8601 23.096874 106.281975Q23.628124 105.70385 23.628124 104.76635Q23.628124 103.8601 23.1125 103.344475Q22.6125 102.813225 21.784374 102.813225Q21.284374 102.813225 20.8625 103.0476Q20.45625 103.281975 20.221874 103.64135L19.2375 103.51635L20.065624 99.1101L24.346874 99.1101L24.346874 100.1101L20.909374 100.1101L20.45625 102.4226Q21.221874 101.875725 22.065624 101.875725Q23.190624 101.875725 23.95625 102.656975Q24.7375 103.438225 24.7375 104.6726Q24.7375 105.82885 24.065624 106.688225Q23.2375 107.719475 21.815624 107.719475Q20.64375 107.719475 19.89375 107.063225Q19.159374 106.406975 19.05 105.32885ZM26.6125 107.57885L26.6125 106.375725L27.815624 106.375725L27.815624 107.57885Q27.815624 108.2351 27.58125 108.64135Q27.346874 109.063225 26.846874 109.281975L26.55 108.82885Q26.878124 108.688225 27.034374 108.39135Q27.190624 108.1101 27.221874 107.57885L26.6125 107.57885ZM29.20625 105.594475L30.221874 105.500725Q30.346874 106.219475 30.70625 106.5476Q31.08125 106.8601 31.64375 106.8601Q32.128124 106.8601 32.4875 106.64135Q32.8625 106.406975 33.096874 106.0476Q33.33125 105.6726 33.4875 105.0476Q33.64375 104.406975 33.64375 103.750725Q33.64375 103.6726 33.64375 103.531975Q33.33125 104.031975 32.784374 104.3601Q32.2375 104.6726 31.596874 104.6726Q30.51875 104.6726 29.784374 103.906975Q29.05 103.125725 29.05 101.8601Q29.05 100.5476 29.815624 99.750725Q30.596874 98.95385 31.753124 98.95385Q32.58125 98.95385 33.26875 99.406975Q33.971874 99.8601 34.33125 100.70385Q34.690624 101.531975 34.690624 103.1101Q34.690624 104.750725 34.33125 105.7351Q33.9875 106.70385 33.26875 107.219475Q32.565624 107.719475 31.628124 107.719475Q30.6125 107.719475 29.971874 107.1726Q29.33125 106.6101 29.20625 105.594475ZM33.51875 101.7976Q33.51875 100.89135 33.034374 100.3601Q32.565624 99.82885 31.878124 99.82885Q31.175 99.82885 30.64375 100.406975Q30.128124 100.969475 30.128124 101.89135Q30.128124 102.70385 30.628124 103.219475Q31.128124 103.7351 31.846874 103.7351Q32.58125 103.7351 33.05 103.219475Q33.51875 102.70385 33.51875 101.7976ZM36.253124 101.0476Q36.253124 100.125725 36.70625 99.4851Q37.175 98.844475 38.05 98.844475Q38.8625 98.844475 39.39375 99.4226Q39.925 100.000725 39.925 101.1101Q39.925 102.20385 39.378124 102.7976Q38.846874 103.375725 38.065624 103.375725Q37.284374 103.375725 36.76875 102.7976Q36.253124 102.219475 36.253124 101.0476ZM38.08125 99.563225Q37.690624 99.563225 37.425 99.906975Q37.175 100.250725 37.175 101.156975Q37.175 101.9851 37.425 102.32885Q37.690624 102.656975 38.08125 102.656975Q38.4875 102.656975 38.7375 102.313225Q39.003124 101.969475 39.003124 101.07885Q39.003124 100.2351 38.7375 99.906975Q38.471874 99.563225 38.08125 99.563225ZM38.08125 107.89135L42.784374 98.844475L43.64375 98.844475L38.95625 107.89135L38.08125 107.89135ZM41.8 105.563225Q41.8 104.64135 42.253124 104.000725Q42.721874 103.3601 43.6125 103.3601Q44.425 103.3601 44.95625 103.938225Q45.4875 104.500725 45.4875 105.625725Q45.4875 106.719475 44.940624 107.313225Q44.409374 107.89135 43.6125 107.89135Q42.846874 107.89135 42.315624 107.313225Q41.8 106.7351 41.8 105.563225ZM43.64375 104.07885Q43.2375 104.07885 42.971874 104.4226Q42.721874 104.76635 42.721874 105.6726Q42.721874 106.4851 42.9875 106.82885Q43.253124 107.1726 43.64375 107.1726Q44.034374 107.1726 44.3 106.82885Q44.565624 106.4851 44.565624 105.57885Q44.565624 104.750725 44.3 104.4226Q44.034374 104.07885 43.64375 104.07885Z" fill-rule="nonzero"/><path stroke="#757575" stroke-width="1.0" stroke-linecap="butt" d="M18.55 95.07885L145.23334 95.07885L274.03098 95.28047" fill-rule="nonzero"/><path fill="#9e9e9e" d="M276.03098 95.28047C276.03098 94.175896 275.13556 93.28047 274.03098 93.28047C272.92642 93.28047 272.03098 94.175896 272.03098 95.28047C272.03098 96.38504 272.92642 97.28047 274.03098 97.28047C275.13556 97.28047 276.03098 96.38504 276.03098 95.28047" fill-rule="nonzero"/><path fill="#1a1a1a" d="M19.440624 121.57885L19.440624 112.9851L21.159374 112.9851L23.190624 119.063225Q23.471874 119.9226 23.596874 120.344475Q23.7375 119.875725 24.05 118.969475L26.1125 112.9851L27.64375 112.9851L27.64375 121.57885L26.55 121.57885L26.55 114.39135L24.05 121.57885L23.01875 121.57885L20.534374 114.26635L20.534374 121.57885L19.440624 121.57885ZM33.409374 120.813225Q32.815624 121.313225 32.26875 121.51635Q31.7375 121.719475 31.1125 121.719475Q30.08125 121.719475 29.534374 121.219475Q28.9875 120.719475 28.9875 119.938225Q28.9875 119.4851 29.190624 119.1101Q29.39375 118.719475 29.7375 118.500725Q30.08125 118.26635 30.503124 118.156975Q30.8 118.063225 31.440624 117.9851Q32.70625 117.844475 33.315624 117.625725Q33.315624 117.406975 33.315624 117.3601Q33.315624 116.70385 33.01875 116.438225Q32.6125 116.094475 31.815624 116.094475Q31.08125 116.094475 30.721874 116.3601Q30.3625 116.6101 30.190624 117.26635L29.159374 117.125725Q29.3 116.469475 29.628124 116.063225Q29.95625 115.656975 30.565624 115.438225Q31.175 115.219475 31.971874 115.219475Q32.76875 115.219475 33.26875 115.406975Q33.76875 115.594475 34.003124 115.875725Q34.2375 116.156975 34.33125 116.594475Q34.378124 116.8601 34.378124 117.563225L34.378124 118.969475Q34.378124 120.438225 34.440624 120.82885Q34.51875 121.219475 34.721874 121.57885L33.6125 121.57885Q33.45625 121.250725 33.409374 120.813225ZM33.315624 118.45385Q32.7375 118.688225 31.596874 118.8601Q30.940624 118.95385 30.675 119.07885Q30.409374 119.188225 30.253124 119.406975Q30.1125 119.625725 30.1125 119.906975Q30.1125 120.32885 30.425 120.6101Q30.753124 120.89135 31.3625 120.89135Q31.971874 120.89135 32.440624 120.625725Q32.925 120.3601 33.14375 119.89135Q33.315624 119.531975 33.315624 118.844475L33.315624 118.45385ZM36.3 123.969475L36.175 122.9851Q36.51875 123.07885 36.784374 123.07885Q37.128124 123.07885 37.33125 122.95385Q37.55 122.844475 37.690624 122.64135Q37.784374 122.469475 38.01875 121.844475Q38.034374 121.76635 38.1125 121.594475L35.7375 115.3601L36.878124 115.3601L38.175 118.95385Q38.425 119.64135 38.628124 120.406975Q38.815624 119.6726 39.065624 118.9851L40.39375 115.3601L41.440624 115.3601L39.08125 121.688225Q38.690624 122.70385 38.4875 123.094475Q38.20625 123.625725 37.83125 123.8601Q37.471874 124.1101 36.971874 124.1101Q36.675 124.1101 36.3 123.969475ZM43.315624 121.57885L42.33125 121.57885L42.33125 112.9851L43.39375 112.9851L43.39375 116.0476Q44.065624 115.219475 45.096874 115.219475Q45.675 115.219475 46.175 115.45385Q46.690624 115.6726 47.01875 116.094475Q47.3625 116.51635 47.55 117.1101Q47.7375 117.70385 47.7375 118.375725Q47.7375 119.969475 46.940624 120.844475Q46.14375 121.719475 45.05 121.719475Q43.940624 121.719475 43.315624 120.7976L43.315624 121.57885ZM43.3 118.4226Q43.3 119.531975 43.6125 120.031975Q44.1125 120.844475 44.95625 120.844475Q45.64375 120.844475 46.14375 120.250725Q46.659374 119.656975 46.659374 118.45385Q46.659374 117.2351 46.175 116.656975Q45.690624 116.07885 45.003124 116.07885Q44.315624 116.07885 43.8 116.688225Q43.3 117.281975 43.3 118.4226ZM53.596874 119.57885L54.690624 119.70385Q54.440624 120.656975 53.7375 121.188225Q53.034374 121.719475 51.95625 121.719475Q50.596874 121.719475 49.784374 120.875725Q48.9875 120.031975 48.9875 118.51635Q48.9875 116.95385 49.8 116.094475Q50.6125 115.219475 51.89375 115.219475Q53.14375 115.219475 53.925 116.063225Q54.721874 116.906975 54.721874 118.45385Q54.721874 118.5476 54.721874 118.7351L50.08125 118.7351Q50.14375 119.76635 50.659374 120.313225Q51.175 120.844475 51.95625 120.844475Q52.534374 120.844475 52.940624 120.5476Q53.3625 120.2351 53.596874 119.57885ZM50.14375 117.875725L53.6125 117.875725Q53.55 117.07885 53.221874 116.688225Q52.70625 116.07885 51.909374 116.07885Q51.175 116.07885 50.675 116.563225Q50.190624 117.0476 50.14375 117.875725ZM56.6125 121.57885L56.6125 120.375725L57.815624 120.375725L57.815624 121.57885Q57.815624 122.2351 57.58125 122.64135Q57.346874 123.063225 56.846874 123.281975L56.55 122.82885Q56.878124 122.688225 57.034374 122.39135Q57.190624 122.1101 57.221874 121.57885L56.6125 121.57885ZM62.675 121.57885L62.675 112.9851L63.8 112.9851L63.8 121.57885L62.675 121.57885ZM72.37813 121.57885L72.37813 120.7976Q71.78438 121.719475 70.64375 121.719475Q69.89375 121.719475 69.26875 121.313225Q68.64375 120.89135 68.3 120.156975Q67.95625 119.4226 67.95625 118.469475Q67.95625 117.5476 68.26875 116.781975Q68.58125 116.01635 69.20625 115.625725Q69.83125 115.219475 70.59688 115.219475Q71.15938 115.219475 71.59688 115.45385Q72.03438 115.688225 72.31563 116.063225L72.31563 112.9851L73.3625 112.9851L73.3625 121.57885L72.37813 121.57885ZM69.05 118.469475Q69.05 119.6726 69.55 120.26635Q70.05 120.844475 70.7375 120.844475Q71.425 120.844475 71.90938 120.281975Q72.39375 119.719475 72.39375 118.563225Q72.39375 117.281975 71.89375 116.688225Q71.40938 116.094475 70.69063 116.094475Q69.9875 116.094475 69.51875 116.6726Q69.05 117.2351 69.05 118.469475ZM74.95625 118.469475Q74.95625 116.7351 75.90938 115.906975Q76.70625 115.219475 77.8625 115.219475Q79.14375 115.219475 79.95625 116.063225Q80.78438 116.89135 80.78438 118.375725Q80.78438 119.57885 80.425 120.26635Q80.06563 120.95385 79.3625 121.344475Q78.675 121.719475 77.8625 121.719475Q76.56563 121.719475 75.75313 120.89135Q74.95625 120.0476 74.95625 118.469475ZM76.03438 118.469475Q76.03438 119.656975 76.55 120.250725Q77.08125 120.844475 77.8625 120.844475Q78.65938 120.844475 79.175 120.250725Q79.69063 119.656975 79.69063 118.438225Q79.69063 117.281975 79.15938 116.688225Q78.64375 116.094475 77.8625 116.094475Q77.08125 116.094475 76.55 116.688225Q76.03438 117.26635 76.03438 118.469475ZM82.34688 121.57885L82.34688 115.3601L83.28438 115.3601L83.28438 116.2351Q83.97188 115.219475 85.26875 115.219475Q85.83125 115.219475 86.3 115.4226Q86.78438 115.625725 87.01875 115.95385Q87.25313 116.281975 87.34688 116.719475Q87.39375 117.01635 87.39375 117.750725L87.39375 121.57885L86.34688 121.57885L86.34688 117.7976Q86.34688 117.14135 86.22188 116.82885Q86.09688 116.51635 85.78438 116.32885Q85.47188 116.125725 85.05 116.125725Q84.37813 116.125725 83.87813 116.563225Q83.39375 116.9851 83.39375 118.1726L83.39375 121.57885L82.34688 121.57885ZM89.34688 116.031975L89.08125 114.4226L89.08125 112.9851L90.28438 112.9851L90.28438 114.4226L90.00313 116.031975L89.34688 116.031975ZM93.64375 120.64135L93.8 121.563225Q93.34688 121.656975 93.00313 121.656975Q92.425 121.656975 92.1125 121.4851Q91.8 121.2976 91.65938 121.000725Q91.53438 120.70385 91.53438 119.750725L91.53438 116.1726L90.76875 116.1726L90.76875 115.3601L91.53438 115.3601L91.53438 113.813225L92.58125 113.188225L92.58125 115.3601L93.64375 115.3601L93.64375 116.1726L92.58125 116.1726L92.58125 119.813225Q92.58125 120.26635 92.62813 120.39135Q92.69063 120.51635 92.81563 120.594475Q92.94063 120.6726 93.175 120.6726Q93.3625 120.6726 93.64375 120.64135Z" fill-rule="nonzero"/><path fill="#9e9e9e" d="M23.01875 138.57886L21.971874 138.57886L21.971874 131.8601Q21.58125 132.21948 20.95625 132.59448Q20.346874 132.95386 19.8625 133.12573L19.8625 132.1101Q20.7375 131.68823 21.39375 131.1101Q22.065624 130.51636 22.346874 129.95386L23.01875 129.95386L23.01875 138.57886ZM29.425 138.57886L29.425 136.51636L25.70625 136.51636L25.70625 135.5476L29.628124 129.9851L30.4875 129.9851L30.4875 135.5476L31.64375 135.5476L31.64375 136.51636L30.4875 136.51636L30.4875 138.57886L29.425 138.57886ZM29.425 135.5476L29.425 131.68823L26.7375 135.5476L29.425 135.5476ZM33.6125 138.57886L33.6125 137.37573L34.815624 137.37573L34.815624 138.57886Q34.815624 139.2351 34.58125 139.64136Q34.346874 140.06323 33.846874 140.28198L33.55 139.82886Q33.878124 139.68823 34.034374 139.39136Q34.190624 139.1101 34.221874 138.57886L33.6125 138.57886ZM36.1125 131.1101L36.1125 130.09448L41.675 130.09448L41.675 130.9226Q40.8625 131.7976 40.05 133.25073Q39.253124 134.68823 38.815624 136.21948Q38.4875 137.2976 38.409374 138.57886L37.315624 138.57886Q37.33125 137.56323 37.70625 136.12573Q38.096874 134.68823 38.8 133.3601Q39.51875 132.03198 40.33125 131.1101L36.1125 131.1101ZM43.253124 132.0476Q43.253124 131.12573 43.70625 130.4851Q44.175 129.84448 45.05 129.84448Q45.8625 129.84448 46.39375 130.4226Q46.925 131.00073 46.925 132.1101Q46.925 133.20386 46.378124 133.7976Q45.846874 134.37573 45.065624 134.37573Q44.284374 134.37573 43.76875 133.7976Q43.253124 133.21948 43.253124 132.0476ZM45.08125 130.56323Q44.690624 130.56323 44.425 130.90698Q44.175 131.25073 44.175 132.15698Q44.175 132.9851 44.425 133.32886Q44.690624 133.65698 45.08125 133.65698Q45.4875 133.65698 45.7375 133.31323Q46.003124 132.96948 46.003124 132.07886Q46.003124 131.2351 45.7375 130.90698Q45.471874 130.56323 45.08125 130.56323ZM45.08125 138.89136L49.784374 129.84448L50.64375 129.84448L45.95625 138.89136L45.08125 138.89136ZM48.8 136.56323Q48.8 135.64136 49.253124 135.00073Q49.721874 134.3601 50.6125 134.3601Q51.425 134.3601 51.95625 134.93823Q52.4875 135.50073 52.4875 136.62573Q52.4875 137.71948 51.940624 138.31323Q51.409374 138.89136 50.6125 138.89136Q49.846874 138.89136 49.315624 138.31323Q48.8 137.7351 48.8 136.56323ZM50.64375 135.07886Q50.2375 135.07886 49.971874 135.4226Q49.721874 135.76636 49.721874 136.6726Q49.721874 137.4851 49.9875 137.82886Q50.253124 138.1726 50.64375 138.1726Q51.034374 138.1726 51.3 137.82886Q51.565624 137.4851 51.565624 136.57886Q51.565624 135.75073 51.3 135.4226Q51.034374 135.07886 50.64375 135.07886Z" fill-rule="nonzero"/><path stroke="#757575" stroke-width="1.0" stroke-linecap="butt" d="M18.55 126.07885L145.23334 126.07885L195.5571 125.877235" fill-rule="nonzero"/><path fill="#9e9e9e" d="M197.5571 125.877235C197.5571 124.77267 196.66167 123.877235 195.5571 123.877235C194.45253 123.877235 193.5571 124.77267 193.5571 125.877235C193.5571 126.981804 194.45253 127.877235 195.5571 127.877235C196.66167 127.877235 197.5571 126.981804 197.5571 125.877235" fill-rule="nonzero"/><path fill="#1a1a1a" d="M566.3719 266.97354L566.3719 258.3798L567.52814 258.3798L572.04376 265.1298L572.04376 258.3798L573.1375 258.3798L573.1375 266.97354L571.96564 266.97354L567.45 260.22354L567.45 266.97354L566.3719 266.97354ZM574.85626 263.86417Q574.85626 262.1298 575.8094 261.30167Q576.60626 260.61417 577.7625 260.61417Q579.04376 260.61417 579.85626 261.45792Q580.6844 262.28604 580.6844 263.77042Q580.6844 264.97354 580.325 265.66104Q579.96564 266.34854 579.2625 266.73917Q578.575 267.11417 577.7625 267.11417Q576.46564 267.11417 575.65314 266.28604Q574.85626 265.4423 574.85626 263.86417ZM575.9344 263.86417Q575.9344 265.05167 576.45 265.64542Q576.98126 266.23917 577.7625 266.23917Q578.5594 266.23917 579.075 265.64542Q579.59064 265.05167 579.59064 263.83292Q579.59064 262.67667 579.0594 262.08292Q578.54376 261.48917 577.7625 261.48917Q576.98126 261.48917 576.45 262.08292Q575.9344 262.66104 575.9344 263.86417Z" fill-rule="nonzero"/><path fill="#9e9e9e" d="M547.0125 276.5048L547.0125 275.48917L552.575 275.48917L552.575 276.3173Q551.7625 277.1923 550.95 278.64542Q550.15314 280.08292 549.71564 281.61417Q549.3875 282.6923 549.3094 283.97354L548.21564 283.97354Q548.23126 282.95792 548.60626 281.52042Q548.9969 280.08292 549.7 278.7548Q550.41876 277.42667 551.23126 276.5048L547.0125 276.5048ZM554.10626 281.98917L555.1219 281.89542Q555.2469 282.61417 555.60626 282.9423Q555.98126 283.2548 556.54376 283.2548Q557.02814 283.2548 557.3875 283.03604Q557.7625 282.80167 557.9969 282.4423Q558.23126 282.0673 558.3875 281.4423Q558.54376 280.80167 558.54376 280.14542Q558.54376 280.0673 558.54376 279.92667Q558.23126 280.42667 557.6844 280.7548Q557.1375 281.0673 556.4969 281.0673Q555.41876 281.0673 554.6844 280.30167Q553.95 279.52042 553.95 278.2548Q553.95 276.9423 554.71564 276.14542Q555.4969 275.34854 556.65314 275.34854Q557.48126 275.34854 558.16876 275.80167Q558.8719 276.2548 559.23126 277.09854Q559.59064 277.92667 559.59064 279.5048Q559.59064 281.14542 559.23126 282.1298Q558.8875 283.09854 558.16876 283.61417Q557.46564 284.11417 556.52814 284.11417Q555.5125 284.11417 554.8719 283.5673Q554.23126 283.0048 554.10626 281.98917ZM558.41876 278.1923Q558.41876 277.28604 557.9344 276.7548Q557.46564 276.22354 556.77814 276.22354Q556.075 276.22354 555.54376 276.80167Q555.02814 277.36417 555.02814 278.28604Q555.02814 279.09854 555.52814 279.61417Q556.02814 280.1298 556.7469 280.1298Q557.48126 280.1298 557.95 279.61417Q558.41876 279.09854 558.41876 278.1923ZM561.5125 283.97354L561.5125 282.77042L562.71564 282.77042L562.71564 283.97354Q562.71564 284.6298 562.48126 285.03604Q562.2469 285.45792 561.7469 285.67667L561.45 285.22354Q561.77814 285.08292 561.9344 284.78604Q562.09064 284.5048 562.1219 283.97354L561.5125 283.97354ZM567.325 283.97354L567.325 281.91104L563.60626 281.91104L563.60626 280.9423L567.52814 275.3798L568.3875 275.3798L568.3875 280.9423L569.54376 280.9423L569.54376 281.91104L568.3875 281.91104L568.3875 283.97354L567.325 283.97354ZM567.325 280.9423L567.325 277.08292L564.6375 280.9423L567.325 280.9423ZM571.15314 277.4423Q571.15314 276.52042 571.60626 275.8798Q572.075 275.23917 572.95 275.23917Q573.7625 275.23917 574.29376 275.8173Q574.825 276.39542 574.825 277.5048Q574.825 278.59854 574.27814 279.1923Q573.7469 279.77042 572.96564 279.77042Q572.1844 279.77042 571.66876 279.1923Q571.15314 278.61417 571.15314 277.4423ZM572.98126 275.95792Q572.59064 275.95792 572.325 276.30167Q572.075 276.64542 572.075 277.55167Q572.075 278.3798 572.325 278.72354Q572.59064 279.05167 572.98126 279.05167Q573.3875 279.05167 573.6375 278.70792Q573.90314 278.36417 573.90314 277.47354Q573.90314 276.6298 573.6375 276.30167Q573.3719 275.95792 572.98126 275.95792ZM572.98126 284.28604L577.6844 275.23917L578.54376 275.23917L573.85626 284.28604L572.98126 284.28604ZM576.7 281.95792Q576.7 281.03604 577.15314 280.39542Q577.6219 279.7548 578.5125 279.7548Q579.325 279.7548 579.85626 280.33292Q580.3875 280.89542 580.3875 282.02042Q580.3875 283.11417 579.84064 283.70792Q579.3094 284.28604 578.5125 284.28604Q577.7469 284.28604 577.21564 283.70792Q576.7 283.1298 576.7 281.95792ZM578.54376 280.47354Q578.1375 280.47354 577.8719 280.8173Q577.6219 281.16104 577.6219 282.0673Q577.6219 282.8798 577.8875 283.22354Q578.15314 283.5673 578.54376 283.5673Q578.9344 283.5673 579.2 283.22354Q579.46564 282.8798 579.46564 281.97354Q579.46564 281.14542 579.2 280.8173Q578.9344 280.47354 578.54376 280.47354Z" fill-rule="nonzero"/><path stroke="#757575" stroke-width="1.0" stroke-linecap="butt" d="M581.45 271.47354L454.76666 271.47354L385.16934 271.47354" fill-rule="nonzero"/><path fill="#9e9e9e" d="M387.16934 271.47354C387.16934 270.369 386.27393 269.47354 385.16934 269.47354C384.0648 269.47354 383.16934 270.369 383.16934 271.47354C383.16934 272.57812 384.0648 273.47354 385.16934 273.47354C386.27393 273.47354 387.16934 272.57812 387.16934 271.47354" fill-rule="nonzero"/><path fill="#757575" d="M20.159374 37.55L20.159374 23.2375L22.05 23.2375L22.05 29.1125L29.4875 29.1125L29.4875 23.2375L31.378124 23.2375L31.378124 37.55L29.4875 37.55L29.4875 30.8L22.05 30.8L22.05 37.55L20.159374 37.55ZM40.64375 36.26875Q39.659374 37.096874 38.753124 37.440624Q37.846874 37.784374 36.815624 37.784374Q35.1125 37.784374 34.190624 36.95625Q33.26875 36.1125 33.26875 34.815624Q33.26875 34.05 33.6125 33.425Q33.971874 32.8 34.534374 32.425Q35.096874 32.034374 35.8 31.83125Q36.315624 31.70625 37.3625 31.565624Q39.4875 31.315624 40.4875 30.971874Q40.503124 30.6125 40.503124 30.503124Q40.503124 29.440624 40.003124 28.9875Q39.33125 28.39375 38.003124 28.39375Q36.753124 28.39375 36.159374 28.83125Q35.58125 29.26875 35.3 30.378124L33.58125 30.14375Q33.815624 29.034374 34.346874 28.3625Q34.878124 27.675 35.89375 27.315624Q36.909374 26.940624 38.253124 26.940624Q39.58125 26.940624 40.409374 27.253124Q41.2375 27.565624 41.628124 28.05Q42.01875 28.51875 42.175 29.2375Q42.26875 29.690624 42.26875 30.8625L42.26875 33.20625Q42.26875 35.659374 42.378124 36.315624Q42.4875 36.95625 42.83125 37.55L40.9875 37.55Q40.721874 37.003124 40.64375 36.26875ZM40.4875 32.346874Q39.534374 32.7375 37.6125 33.003124Q36.534374 33.159374 36.08125 33.3625Q35.64375 33.55 35.39375 33.925Q35.14375 34.3 35.14375 34.76875Q35.14375 35.471874 35.675 35.940624Q36.20625 36.409374 37.2375 36.409374Q38.253124 36.409374 39.034374 35.971874Q39.83125 35.51875 40.20625 34.753124Q40.4875 34.14375 40.4875 32.9875L40.4875 32.346874ZM47.753124 37.55L43.8 27.175L45.659374 27.175L47.89375 33.39375Q48.253124 34.39375 48.55 35.471874Q48.784374 34.659374 49.20625 33.503124L51.503124 27.175L53.315624 27.175L49.39375 37.55L47.753124 37.55ZM61.971874 34.20625L63.784374 34.440624Q63.3625 36.01875 62.190624 36.909374Q61.034374 37.784374 59.221874 37.784374Q56.95625 37.784374 55.6125 36.39375Q54.284374 34.9875 54.284374 32.45625Q54.284374 29.83125 55.628124 28.39375Q56.971874 26.940624 59.128124 26.940624Q61.20625 26.940624 62.51875 28.3625Q63.846874 29.76875 63.846874 32.346874Q63.846874 32.503124 63.83125 32.815624L56.096874 32.815624Q56.190624 34.51875 57.065624 35.425Q57.940624 36.33125 59.2375 36.33125Q60.20625 36.33125 60.878124 35.83125Q61.565624 35.315624 61.971874 34.20625ZM56.190624 31.3625L61.9875 31.3625Q61.878124 30.065624 61.33125 29.409374Q60.4875 28.39375 59.14375 28.39375Q57.940624 28.39375 57.1125 29.20625Q56.284374 30.003124 56.190624 31.3625ZM71.78438 41.55L71.59688 39.89375Q72.175 40.05 72.59688 40.05Q73.19063 40.05 73.53438 39.846874Q73.89375 39.659374 74.1125 39.315624Q74.28438 39.05 74.65938 38.003124Q74.70625 37.846874 74.81563 37.565624L70.87813 27.175L72.76875 27.175L74.925 33.190624Q75.34688 34.33125 75.675 35.58125Q75.9875 34.378124 76.39375 33.221874L78.6125 27.175L80.37813 27.175L76.425 37.721874Q75.8 39.440624 75.44063 40.08125Q74.97188 40.95625 74.3625 41.346874Q73.76875 41.753124 72.925 41.753124Q72.40938 41.753124 71.78438 41.55ZM81.22188 32.3625Q81.22188 29.4875 82.81563 28.096874Q84.15938 26.940624 86.08125 26.940624Q88.22188 26.940624 89.56563 28.346874Q90.925 29.753124 90.925 32.221874Q90.925 34.221874 90.33125 35.378124Q89.7375 36.51875 88.58125 37.159374Q87.44063 37.784374 86.08125 37.784374Q83.89375 37.784374 82.55 36.39375Q81.22188 34.9875 81.22188 32.3625ZM83.01875 32.3625Q83.01875 34.3625 83.87813 35.346874Q84.75313 36.33125 86.08125 36.33125Q87.39375 36.33125 88.25313 35.346874Q89.12813 34.346874 89.12813 32.3Q89.12813 30.378124 88.25313 29.39375Q87.37813 28.39375 86.08125 28.39375Q84.75313 28.39375 83.87813 29.39375Q83.01875 30.378124 83.01875 32.3625ZM99.65938 37.55L99.65938 36.01875Q98.45625 37.784374 96.37813 37.784374Q95.45625 37.784374 94.65938 37.440624Q93.8625 37.08125 93.47188 36.55Q93.09688 36.01875 92.94063 35.2375Q92.83125 34.721874 92.83125 33.596874L92.83125 27.175L94.58125 27.175L94.58125 32.925Q94.58125 34.3 94.69063 34.784374Q94.8625 35.471874 95.39375 35.878124Q95.94063 36.26875 96.72188 36.26875Q97.51875 36.26875 98.20625 35.8625Q98.90938 35.45625 99.19063 34.76875Q99.4875 34.065624 99.4875 32.7375L99.4875 27.175L101.2375 27.175L101.2375 37.55L99.65938 37.55ZM116.97188 34.20625L118.78438 34.440624Q118.3625 36.01875 117.19063 36.909374Q116.03438 37.784374 114.22188 37.784374Q111.95625 37.784374 110.6125 36.39375Q109.28438 34.9875 109.28438 32.45625Q109.28438 29.83125 110.62813 28.39375Q111.97188 26.940624 114.12813 26.940624Q116.20625 26.940624 117.51875 28.3625Q118.84688 29.76875 118.84688 32.346874Q118.84688 32.503124 118.83125 32.815624L111.09688 32.815624Q111.19063 34.51875 112.06563 35.425Q112.94063 36.33125 114.2375 36.33125Q115.20625 36.33125 115.87813 35.83125Q116.56563 35.315624 116.97188 34.20625ZM111.19063 31.3625L116.9875 31.3625Q116.87813 30.065624 116.33125 29.409374Q115.4875 28.39375 114.14375 28.39375Q112.94063 28.39375 112.1125 29.20625Q111.28438 30.003124 111.19063 31.3625ZM123.75313 37.55L119.8 27.175L121.65938 27.175L123.89375 33.39375Q124.25313 34.39375 124.55 35.471874Q124.78438 34.659374 125.20625 33.503124L127.50313 27.175L129.31563 27.175L125.39375 37.55L123.75313 37.55ZM137.97188 34.20625L139.78438 34.440624Q139.3625 36.01875 138.19063 36.909374Q137.03438 37.784374 135.22188 37.784374Q132.95625 37.784374 131.6125 36.39375Q130.28438 34.9875 130.28438 32.45625Q130.28438 29.83125 131.62813 28.39375Q132.97188 26.940624 135.12813 26.940624Q137.20625 26.940624 138.51875 28.3625Q139.84688 29.76875 139.84688 32.346874Q139.84688 32.503124 139.83125 32.815624L132.09688 32.815624Q132.19063 34.51875 133.06563 35.425Q133.94063 36.33125 135.2375 36.33125Q136.20625 36.33125 136.87813 35.83125Q137.56563 35.315624 137.97188 34.20625ZM132.19063 31.3625L137.9875 31.3625Q137.87813 30.065624 137.33125 29.409374Q136.4875 28.39375 135.14375 28.39375Q133.94063 28.39375 133.1125 29.20625Q132.28438 30.003124 132.19063 31.3625ZM141.84688 37.55L141.84688 27.175L143.425 27.175L143.425 28.753124Q144.03438 27.64375 144.55 27.3Q145.06563 26.940624 145.675 26.940624Q146.56563 26.940624 147.4875 27.503124L146.87813 29.14375Q146.2375 28.753124 145.59688 28.753124Q145.01875 28.753124 144.55 29.1125Q144.09688 29.45625 143.89375 30.065624Q143.6125 31.003124 143.6125 32.1125L143.6125 37.55L141.84688 37.55ZM161.65938 37.55L161.65938 36.01875Q160.45625 37.784374 158.37813 37.784374Q157.45625 37.784374 156.65938 37.440624Q155.8625 37.08125 155.47188 36.55Q155.09688 36.01875 154.94063 35.2375Q154.83125 34.721874 154.83125 33.596874L154.83125 27.175L156.58125 27.175L156.58125 32.925Q156.58125 34.3 156.69063 34.784374Q156.8625 35.471874 157.39375 35.878124Q157.94063 36.26875 158.72188 36.26875Q159.51875 36.26875 160.20625 35.8625Q160.90938 35.45625 161.19063 34.76875Q161.4875 34.065624 161.4875 32.7375L161.4875 27.175L163.2375 27.175L163.2375 37.55L161.65938 37.55ZM165.15938 34.45625L166.90938 34.175Q167.05 35.221874 167.72188 35.784374Q168.39375 36.33125 169.59688 36.33125Q170.8 36.33125 171.37813 35.846874Q171.97188 35.346874 171.97188 34.690624Q171.97188 34.096874 171.45625 33.753124Q171.09688 33.51875 169.65938 33.159374Q167.72188 32.659374 166.97188 32.315624Q166.2375 31.95625 165.84688 31.33125Q165.45625 30.690624 165.45625 29.925Q165.45625 29.2375 165.76875 28.64375Q166.09688 28.05 166.64375 27.659374Q167.05 27.3625 167.75313 27.159374Q168.47188 26.940624 169.28438 26.940624Q170.50313 26.940624 171.425 27.3Q172.34688 27.64375 172.78438 28.253124Q173.22188 28.846874 173.39375 29.846874L171.675 30.08125Q171.55 29.284374 170.9875 28.846874Q170.425 28.39375 169.40938 28.39375Q168.19063 28.39375 167.675 28.8Q167.15938 29.190624 167.15938 29.721874Q167.15938 30.065624 167.37813 30.346874Q167.58125 30.628124 168.05 30.815624Q168.31563 30.909374 169.59688 31.253124Q171.47188 31.753124 172.20625 32.08125Q172.94063 32.39375 173.3625 33.003124Q173.78438 33.596874 173.78438 34.503124Q173.78438 35.378124 173.26875 36.159374Q172.75313 36.940624 171.78438 37.3625Q170.81563 37.784374 169.59688 37.784374Q167.58125 37.784374 166.51875 36.940624Q165.45625 36.096874 165.15938 34.45625ZM182.97188 34.20625L184.78438 34.440624Q184.3625 36.01875 183.19063 36.909374Q182.03438 37.784374 180.22188 37.784374Q177.95625 37.784374 176.6125 36.39375Q175.28438 34.9875 175.28438 32.45625Q175.28438 29.83125 176.62813 28.39375Q177.97188 26.940624 180.12813 26.940624Q182.20625 26.940624 183.51875 28.3625Q184.84688 29.76875 184.84688 32.346874Q184.84688 32.503124 184.83125 32.815624L177.09688 32.815624Q177.19063 34.51875 178.06563 35.425Q178.94063 36.33125 180.2375 36.33125Q181.20625 36.33125 181.87813 35.83125Q182.56563 35.315624 182.97188 34.20625ZM177.19063 31.3625L182.9875 31.3625Q182.87813 30.065624 182.33125 29.409374Q181.4875 28.39375 180.14375 28.39375Q178.94063 28.39375 178.1125 29.20625Q177.28438 30.003124 177.19063 31.3625ZM193.59688 37.55L193.59688 36.2375Q192.6125 37.784374 190.69063 37.784374Q189.45625 37.784374 188.40938 37.096874Q187.37813 36.409374 186.8 35.190624Q186.2375 33.971874 186.2375 32.378124Q186.2375 30.815624 186.75313 29.55Q187.26875 28.284374 188.3 27.6125Q189.34688 26.940624 190.6125 26.940624Q191.55 26.940624 192.28438 27.346874Q193.01875 27.7375 193.4875 28.3625L193.4875 23.2375L195.22188 23.2375L195.22188 37.55L193.59688 37.55ZM188.03438 32.378124Q188.03438 34.3625 188.87813 35.346874Q189.72188 36.33125 190.8625 36.33125Q192.01875 36.33125 192.81563 35.39375Q193.62813 34.45625 193.62813 32.51875Q193.62813 30.39375 192.8 29.39375Q191.9875 28.39375 190.78438 28.39375Q189.6125 28.39375 188.81563 29.3625Q188.03438 30.315624 188.03438 32.378124ZM210.64375 36.26875Q209.65938 37.096874 208.75313 37.440624Q207.84688 37.784374 206.81563 37.784374Q205.1125 37.784374 204.19063 36.95625Q203.26875 36.1125 203.26875 34.815624Q203.26875 34.05 203.6125 33.425Q203.97188 32.8 204.53438 32.425Q205.09688 32.034374 205.8 31.83125Q206.31563 31.70625 207.3625 31.565624Q209.4875 31.315624 210.4875 30.971874Q210.50313 30.6125 210.50313 30.503124Q210.50313 29.440624 210.00313 28.9875Q209.33125 28.39375 208.00313 28.39375Q206.75313 28.39375 206.15938 28.83125Q205.58125 29.26875 205.3 30.378124L203.58125 30.14375Q203.81563 29.034374 204.34688 28.3625Q204.87813 27.675 205.89375 27.315624Q206.90938 26.940624 208.25313 26.940624Q209.58125 26.940624 210.40938 27.253124Q211.2375 27.565624 211.62813 28.05Q212.01875 28.51875 212.175 29.2375Q212.26875 29.690624 212.26875 30.8625L212.26875 33.20625Q212.26875 35.659374 212.37813 36.315624Q212.4875 36.95625 212.83125 37.55L210.9875 37.55Q210.72188 37.003124 210.64375 36.26875ZM210.4875 32.346874Q209.53438 32.7375 207.6125 33.003124Q206.53438 33.159374 206.08125 33.3625Q205.64375 33.55 205.39375 33.925Q205.14375 34.3 205.14375 34.76875Q205.14375 35.471874 205.675 35.940624Q206.20625 36.409374 207.2375 36.409374Q208.25313 36.409374 209.03438 35.971874Q209.83125 35.51875 210.20625 34.753124Q210.4875 34.14375 210.4875 32.9875L210.4875 32.346874ZM220.15938 34.45625L221.90938 34.175Q222.05 35.221874 222.72188 35.784374Q223.39375 36.33125 224.59688 36.33125Q225.8 36.33125 226.37813 35.846874Q226.97188 35.346874 226.97188 34.690624Q226.97188 34.096874 226.45625 33.753124Q226.09688 33.51875 224.65938 33.159374Q222.72188 32.659374 221.97188 32.315624Q221.2375 31.95625 220.84688 31.33125Q220.45625 30.690624 220.45625 29.925Q220.45625 29.2375 220.76875 28.64375Q221.09688 28.05 221.64375 27.659374Q222.05 27.3625 222.75313 27.159374Q223.47188 26.940624 224.28438 26.940624Q225.50313 26.940624 226.425 27.3Q227.34688 27.64375 227.78438 28.253124Q228.22188 28.846874 228.39375 29.846874L226.675 30.08125Q226.55 29.284374 225.9875 28.846874Q225.425 28.39375 224.40938 28.39375Q223.19063 28.39375 222.675 28.8Q222.15938 29.190624 222.15938 29.721874Q222.15938 30.065624 222.37813 30.346874Q222.58125 30.628124 223.05 30.815624Q223.31563 30.909374 224.59688 31.253124Q226.47188 31.753124 227.20625 32.08125Q227.94063 32.39375 228.3625 33.003124Q228.78438 33.596874 228.78438 34.503124Q228.78438 35.378124 228.26875 36.159374Q227.75313 36.940624 226.78438 37.3625Q225.81563 37.784374 224.59688 37.784374Q222.58125 37.784374 221.51875 36.940624Q220.45625 36.096874 220.15938 34.45625ZM230.87813 25.253124L230.87813 23.2375L232.64375 23.2375L232.64375 25.253124L230.87813 25.253124ZM230.87813 37.55L230.87813 27.175L232.64375 27.175L232.64375 37.55L230.87813 37.55ZM234.8625 37.55L234.8625 27.175L236.44063 27.175L236.44063 28.628124Q236.925 27.878124 237.7375 27.409374Q238.55 26.940624 239.58125 26.940624Q240.7375 26.940624 241.47188 27.425Q242.20625 27.89375 242.51875 28.753124Q243.75313 26.940624 245.72188 26.940624Q247.26875 26.940624 248.09688 27.8Q248.925 28.659374 248.925 30.425L248.925 37.55L247.175 37.55L247.175 31.01875Q247.175 29.95625 247.00313 29.503124Q246.83125 29.034374 246.37813 28.753124Q245.94063 28.471874 245.33125 28.471874Q244.2375 28.471874 243.50313 29.20625Q242.78438 29.925 242.78438 31.51875L242.78438 37.55L241.03438 37.55L241.03438 30.815624Q241.03438 29.64375 240.59688 29.065624Q240.175 28.471874 239.19063 28.471874Q238.45625 28.471874 237.81563 28.8625Q237.19063 29.253124 236.90938 30.003124Q236.62813 30.753124 236.62813 32.175L236.62813 37.55L234.8625 37.55ZM251.87813 25.253124L251.87813 23.2375L253.64375 23.2375L253.64375 25.253124L251.87813 25.253124ZM251.87813 37.55L251.87813 27.175L253.64375 27.175L253.64375 37.55L251.87813 37.55ZM255.83125 37.55L255.83125 23.2375L257.58124 23.2375L257.58124 37.55L255.83125 37.55ZM266.64374 36.26875Q265.65936 37.096874 264.7531 37.440624Q263.84686 37.784374 262.8156 37.784374Q261.1125 37.784374 260.1906 36.95625Q259.26874 36.1125 259.26874 34.815624Q259.26874 34.05 259.6125 33.425Q259.97186 32.8 260.53436 32.425Q261.09686 32.034374 261.8 31.83125Q262.3156 31.70625 263.3625 31.565624Q265.4875 31.315624 266.4875 30.971874Q266.5031 30.6125 266.5031 30.503124Q266.5031 29.440624 266.0031 28.9875Q265.33124 28.39375 264.0031 28.39375Q262.7531 28.39375 262.15936 28.83125Q261.58124 29.26875 261.3 30.378124L259.58124 30.14375Q259.8156 29.034374 260.34686 28.3625Q260.8781 27.675 261.89374 27.315624Q262.90936 26.940624 264.2531 26.940624Q265.58124 26.940624 266.40936 27.253124Q267.2375 27.565624 267.6281 28.05Q268.01874 28.51875 268.175 29.2375Q268.26874 29.690624 268.26874 30.8625L268.26874 33.20625Q268.26874 35.659374 268.3781 36.315624Q268.4875 36.95625 268.83124 37.55L266.9875 37.55Q266.72186 37.003124 266.64374 36.26875ZM266.4875 32.346874Q265.53436 32.7375 263.6125 33.003124Q262.53436 33.159374 262.08124 33.3625Q261.64374 33.55 261.39374 33.925Q261.14374 34.3 261.14374 34.76875Q261.14374 35.471874 261.675 35.940624Q262.20624 36.409374 263.2375 36.409374Q264.2531 36.409374 265.03436 35.971874Q265.83124 35.51875 266.20624 34.753124Q266.4875 34.14375 266.4875 32.9875L266.4875 32.346874ZM270.84686 37.55L270.84686 27.175L272.425 27.175L272.425 28.753124Q273.03436 27.64375 273.55 27.3Q274.0656 26.940624 274.675 26.940624Q275.5656 26.940624 276.4875 27.503124L275.8781 29.14375Q275.2375 28.753124 274.59686 28.753124Q274.01874 28.753124 273.55 29.1125Q273.09686 29.45625 272.89374 30.065624Q272.6125 31.003124 272.6125 32.1125L272.6125 37.55L270.84686 37.55ZM290.64374 36.26875Q289.65936 37.096874 288.7531 37.440624Q287.84686 37.784374 286.8156 37.784374Q285.1125 37.784374 284.1906 36.95625Q283.26874 36.1125 283.26874 34.815624Q283.26874 34.05 283.6125 33.425Q283.97186 32.8 284.53436 32.425Q285.09686 32.034374 285.8 31.83125Q286.3156 31.70625 287.3625 31.565624Q289.4875 31.315624 290.4875 30.971874Q290.5031 30.6125 290.5031 30.503124Q290.5031 29.440624 290.0031 28.9875Q289.33124 28.39375 288.0031 28.39375Q286.7531 28.39375 286.15936 28.83125Q285.58124 29.26875 285.3 30.378124L283.58124 30.14375Q283.8156 29.034374 284.34686 28.3625Q284.8781 27.675 285.89374 27.315624Q286.90936 26.940624 288.2531 26.940624Q289.58124 26.940624 290.40936 27.253124Q291.2375 27.565624 291.6281 28.05Q292.01874 28.51875 292.175 29.2375Q292.26874 29.690624 292.26874 30.8625L292.26874 33.20625Q292.26874 35.659374 292.3781 36.315624Q292.4875 36.95625 292.83124 37.55L290.9875 37.55Q290.72186 37.003124 290.64374 36.26875ZM290.4875 32.346874Q289.53436 32.7375 287.6125 33.003124Q286.53436 33.159374 286.08124 33.3625Q285.64374 33.55 285.39374 33.925Q285.14374 34.3 285.14374 34.76875Q285.14374 35.471874 285.675 35.940624Q286.20624 36.409374 287.2375 36.409374Q288.2531 36.409374 289.03436 35.971874Q289.83124 35.51875 290.20624 34.753124Q290.4875 34.14375 290.4875 32.9875L290.4875 32.346874ZM294.8625 41.51875L294.8625 27.175L296.47186 27.175L296.47186 28.51875Q297.03436 27.7375 297.7375 27.346874Q298.45624 26.940624 299.47186 26.940624Q300.8 26.940624 301.8156 27.628124Q302.83124 28.315624 303.34686 29.565624Q303.8781 30.8 303.8781 32.284374Q303.8781 33.878124 303.3 35.159374Q302.7375 36.425 301.64374 37.1125Q300.55 37.784374 299.34686 37.784374Q298.47186 37.784374 297.76874 37.409374Q297.08124 37.034374 296.6281 36.471874L296.6281 41.51875L294.8625 41.51875ZM296.45624 32.425Q296.45624 34.425 297.26874 35.378124Q298.08124 36.33125 299.2375 36.33125Q300.40936 36.33125 301.2375 35.346874Q302.08124 34.3625 302.08124 32.26875Q302.08124 30.3 301.2531 29.315624Q300.4406 28.315624 299.3156 28.315624Q298.1906 28.315624 297.3156 29.378124Q296.45624 30.425 296.45624 32.425ZM305.8625 41.51875L305.8625 27.175L307.47186 27.175L307.47186 28.51875Q308.03436 27.7375 308.7375 27.346874Q309.45624 26.940624 310.47186 26.940624Q311.8 26.940624 312.8156 27.628124Q313.83124 28.315624 314.34686 29.565624Q314.8781 30.8 314.8781 32.284374Q314.8781 33.878124 314.3 35.159374Q313.7375 36.425 312.64374 37.1125Q311.55 37.784374 310.34686 37.784374Q309.47186 37.784374 308.76874 37.409374Q308.08124 37.034374 307.6281 36.471874L307.6281 41.51875L305.8625 41.51875ZM307.45624 32.425Q307.45624 34.425 308.26874 35.378124Q309.08124 36.33125 310.2375 36.33125Q311.40936 36.33125 312.2375 35.346874Q313.08124 34.3625 313.08124 32.26875Q313.08124 30.3 312.2531 29.315624Q311.4406 28.315624 310.3156 28.315624Q309.1906 28.315624 308.3156 29.378124Q307.45624 30.425 307.45624 32.425ZM329.59686 37.55L329.59686 36.2375Q328.6125 37.784374 326.6906 37.784374Q325.45624 37.784374 324.40936 37.096874Q323.3781 36.409374 322.8 35.190624Q322.2375 33.971874 322.2375 32.378124Q322.2375 30.815624 322.7531 29.55Q323.26874 28.284374 324.3 27.6125Q325.34686 26.940624 326.6125 26.940624Q327.55 26.940624 328.28436 27.346874Q329.01874 27.7375 329.4875 28.3625L329.4875 23.2375L331.22186 23.2375L331.22186 37.55L329.59686 37.55ZM324.03436 32.378124Q324.03436 34.3625 324.8781 35.346874Q325.72186 36.33125 326.8625 36.33125Q328.01874 36.33125 328.8156 35.39375Q329.6281 34.45625 329.6281 32.51875Q329.6281 30.39375 328.8 29.39375Q327.9875 28.39375 326.78436 28.39375Q325.6125 28.39375 324.8156 29.3625Q324.03436 30.315624 324.03436 32.378124ZM340.65936 37.55L340.65936 36.01875Q339.45624 37.784374 337.3781 37.784374Q336.45624 37.784374 335.65936 37.440624Q334.8625 37.08125 334.47186 36.55Q334.09686 36.01875 333.9406 35.2375Q333.83124 34.721874 333.83124 33.596874L333.83124 27.175L335.58124 27.175L335.58124 32.925Q335.58124 34.3 335.6906 34.784374Q335.8625 35.471874 336.39374 35.878124Q336.9406 36.26875 337.72186 36.26875Q338.51874 36.26875 339.20624 35.8625Q339.90936 35.45625 340.1906 34.76875Q340.4875 34.065624 340.4875 32.7375L340.4875 27.175L342.2375 27.175L342.2375 37.55L340.65936 37.55ZM344.84686 37.55L344.84686 27.175L346.425 27.175L346.425 28.753124Q347.03436 27.64375 347.55 27.3Q348.0656 26.940624 348.675 26.940624Q349.5656 26.940624 350.4875 27.503124L349.8781 29.14375Q349.2375 28.753124 348.59686 28.753124Q348.01874 28.753124 347.55 29.1125Q347.09686 29.45625 346.89374 30.065624Q346.6125 31.003124 346.6125 32.1125L346.6125 37.55L344.84686 37.55ZM351.8781 25.253124L351.8781 23.2375L353.64374 23.2375L353.64374 25.253124L351.8781 25.253124ZM351.8781 37.55L351.8781 27.175L353.64374 27.175L353.64374 37.55L351.8781 37.55ZM355.8625 37.55L355.8625 27.175L357.45624 27.175L357.45624 28.659374Q358.59686 26.940624 360.7531 26.940624Q361.6906 26.940624 362.47186 27.284374Q363.26874 27.6125 363.65936 28.159374Q364.05 28.70625 364.20624 29.45625Q364.3 29.95625 364.3 31.175L364.3 37.55L362.53436 37.55L362.53436 31.2375Q362.53436 30.159374 362.33124 29.628124Q362.1281 29.096874 361.59686 28.784374Q361.08124 28.471874 360.3781 28.471874Q359.2531 28.471874 358.4406 29.190624Q357.6281 29.89375 357.6281 31.878124L357.6281 37.55L355.8625 37.55ZM366.55 38.409374L368.2531 38.659374Q368.3625 39.45625 368.84686 39.815624Q369.5031 40.3 370.64374 40.3Q371.8625 40.3 372.51874 39.815624Q373.1906 39.33125 373.425 38.45625Q373.5656 37.909374 373.55 36.190624Q372.39374 37.55 370.675 37.55Q368.53436 37.55 367.3625 36.003124Q366.1906 34.45625 366.1906 32.3Q366.1906 30.815624 366.72186 29.565624Q367.26874 28.315624 368.28436 27.628124Q369.3156 26.940624 370.6906 26.940624Q372.51874 26.940624 373.72186 28.425L373.72186 27.175L375.33124 27.175L375.33124 36.14375Q375.33124 38.565624 374.83124 39.565624Q374.34686 40.58125 373.26874 41.159374Q372.20624 41.753124 370.64374 41.753124Q368.8 41.753124 367.64374 40.925Q366.5031 40.096874 366.55 38.409374ZM368.0031 32.175Q368.0031 34.221874 368.8156 35.159374Q369.6281 36.096874 370.84686 36.096874Q372.05 36.096874 372.8625 35.159374Q373.6906 34.221874 373.6906 32.2375Q373.6906 30.33125 372.84686 29.3625Q372.0031 28.39375 370.8156 28.39375Q369.64374 28.39375 368.8156 29.346874Q368.0031 30.3 368.0031 32.175ZM390.64374 36.26875Q389.65936 37.096874 388.7531 37.440624Q387.84686 37.784374 386.8156 37.784374Q385.1125 37.784374 384.1906 36.95625Q383.26874 36.1125 383.26874 34.815624Q383.26874 34.05 383.6125 33.425Q383.97186 32.8 384.53436 32.425Q385.09686 32.034374 385.8 31.83125Q386.3156 31.70625 387.3625 31.565624Q389.4875 31.315624 390.4875 30.971874Q390.5031 30.6125 390.5031 30.503124Q390.5031 29.440624 390.0031 28.9875Q389.33124 28.39375 388.0031 28.39375Q386.7531 28.39375 386.15936 28.83125Q385.58124 29.26875 385.3 30.378124L383.58124 30.14375Q383.8156 29.034374 384.34686 28.3625Q384.8781 27.675 385.89374 27.315624Q386.90936 26.940624 388.2531 26.940624Q389.58124 26.940624 390.40936 27.253124Q391.2375 27.565624 391.6281 28.05Q392.01874 28.51875 392.175 29.2375Q392.26874 29.690624 392.26874 30.8625L392.26874 33.20625Q392.26874 35.659374 392.3781 36.315624Q392.4875 36.95625 392.83124 37.55L390.9875 37.55Q390.72186 37.003124 390.64374 36.26875ZM390.4875 32.346874Q389.53436 32.7375 387.6125 33.003124Q386.53436 33.159374 386.08124 33.3625Q385.64374 33.55 385.39374 33.925Q385.14374 34.3 385.14374 34.76875Q385.14374 35.471874 385.675 35.940624Q386.20624 36.409374 387.2375 36.409374Q388.2531 36.409374 389.03436 35.971874Q389.83124 35.51875 390.20624 34.753124Q390.4875 34.14375 390.4875 32.9875L390.4875 32.346874ZM400.8625 37.55L400.8625 27.175L402.4406 27.175L402.4406 28.628124Q402.925 27.878124 403.7375 27.409374Q404.55 26.940624 405.58124 26.940624Q406.7375 26.940624 407.47186 27.425Q408.20624 27.89375 408.51874 28.753124Q409.7531 26.940624 411.72186 26.940624Q413.26874 26.940624 414.09686 27.8Q414.925 28.659374 414.925 30.425L414.925 37.55L413.175 37.55L413.175 31.01875Q413.175 29.95625 413.0031 29.503124Q412.83124 29.034374 412.3781 28.753124Q411.9406 28.471874 411.33124 28.471874Q410.2375 28.471874 409.5031 29.20625Q408.78436 29.925 408.78436 31.51875L408.78436 37.55L407.03436 37.55L407.03436 30.815624Q407.03436 29.64375 406.59686 29.065624Q406.175 28.471874 405.1906 28.471874Q404.45624 28.471874 403.8156 28.8625Q403.1906 29.253124 402.90936 30.003124Q402.6281 30.753124 402.6281 32.175L402.6281 37.55L400.8625 37.55ZM424.65936 37.55L424.65936 36.01875Q423.45624 37.784374 421.3781 37.784374Q420.45624 37.784374 419.65936 37.440624Q418.8625 37.08125 418.47186 36.55Q418.09686 36.01875 417.9406 35.2375Q417.83124 34.721874 417.83124 33.596874L417.83124 27.175L419.58124 27.175L419.58124 32.925Q419.58124 34.3 419.6906 34.784374Q419.8625 35.471874 420.39374 35.878124Q420.9406 36.26875 421.72186 36.26875Q422.51874 36.26875 423.20624 35.8625Q423.90936 35.45625 424.1906 34.76875Q424.4875 34.065624 424.4875 32.7375L424.4875 27.175L426.2375 27.175L426.2375 37.55L424.65936 37.55ZM428.15936 34.45625L429.90936 34.175Q430.05 35.221874 430.72186 35.784374Q431.39374 36.33125 432.59686 36.33125Q433.8 36.33125 434.3781 35.846874Q434.97186 35.346874 434.97186 34.690624Q434.97186 34.096874 434.45624 33.753124Q434.09686 33.51875 432.65936 33.159374Q430.72186 32.659374 429.97186 32.315624Q429.2375 31.95625 428.84686 31.33125Q428.45624 30.690624 428.45624 29.925Q428.45624 29.2375 428.76874 28.64375Q429.09686 28.05 429.64374 27.659374Q430.05 27.3625 430.7531 27.159374Q431.47186 26.940624 432.28436 26.940624Q433.5031 26.940624 434.425 27.3Q435.34686 27.64375 435.78436 28.253124Q436.22186 28.846874 436.39374 29.846874L434.675 30.08125Q434.55 29.284374 433.9875 28.846874Q433.425 28.39375 432.40936 28.39375Q431.1906 28.39375 430.675 28.8Q430.15936 29.190624 430.15936 29.721874Q430.15936 30.065624 430.3781 30.346874Q430.58124 30.628124 431.05 30.815624Q431.3156 30.909374 432.59686 31.253124Q434.47186 31.753124 435.20624 32.08125Q435.9406 32.39375 436.3625 33.003124Q436.78436 33.596874 436.78436 34.503124Q436.78436 35.378124 436.26874 36.159374Q435.7531 36.940624 434.78436 37.3625Q433.8156 37.784374 432.59686 37.784374Q430.58124 37.784374 429.51874 36.940624Q428.45624 36.096874 428.15936 34.45625ZM445.97186 34.20625L447.78436 34.440624Q447.3625 36.01875 446.1906 36.909374Q445.03436 37.784374 443.22186 37.784374Q440.95624 37.784374 439.6125 36.39375Q438.28436 34.9875 438.28436 32.45625Q438.28436 29.83125 439.6281 28.39375Q440.97186 26.940624 443.1281 26.940624Q445.20624 26.940624 446.51874 28.3625Q447.84686 29.76875 447.84686 32.346874Q447.84686 32.503124 447.83124 32.815624L440.09686 32.815624Q440.1906 34.51875 441.0656 35.425Q441.9406 36.33125 443.2375 36.33125Q444.20624 36.33125 444.8781 35.83125Q445.5656 35.315624 445.97186 34.20625ZM440.1906 31.3625L445.9875 31.3625Q445.8781 30.065624 445.33124 29.409374Q444.4875 28.39375 443.14374 28.39375Q441.9406 28.39375 441.1125 29.20625Q440.28436 30.003124 440.1906 31.3625ZM456.65936 37.55L456.65936 36.01875Q455.45624 37.784374 453.3781 37.784374Q452.45624 37.784374 451.65936 37.440624Q450.8625 37.08125 450.47186 36.55Q450.09686 36.01875 449.9406 35.2375Q449.83124 34.721874 449.83124 33.596874L449.83124 27.175L451.58124 27.175L451.58124 32.925Q451.58124 34.3 451.6906 34.784374Q451.8625 35.471874 452.39374 35.878124Q452.9406 36.26875 453.72186 36.26875Q454.51874 36.26875 455.20624 35.8625Q455.90936 35.45625 456.1906 34.76875Q456.4875 34.065624 456.4875 32.7375L456.4875 27.175L458.2375 27.175L458.2375 37.55L456.65936 37.55ZM460.8625 37.55L460.8625 27.175L462.4406 27.175L462.4406 28.628124Q462.925 27.878124 463.7375 27.409374Q464.55 26.940624 465.58124 26.940624Q466.7375 26.940624 467.47186 27.425Q468.20624 27.89375 468.51874 28.753124Q469.7531 26.940624 471.72186 26.940624Q473.26874 26.940624 474.09686 27.8Q474.925 28.659374 474.925 30.425L474.925 37.55L473.175 37.55L473.175 31.01875Q473.175 29.95625 473.0031 29.503124Q472.83124 29.034374 472.3781 28.753124Q471.9406 28.471874 471.33124 28.471874Q470.2375 28.471874 469.5031 29.20625Q468.78436 29.925 468.78436 31.51875L468.78436 37.55L467.03436 37.55L467.03436 30.815624Q467.03436 29.64375 466.59686 29.065624Q466.175 28.471874 465.1906 28.471874Q464.45624 28.471874 463.8156 28.8625Q463.1906 29.253124 462.90936 30.003124Q462.6281 30.753124 462.6281 32.175L462.6281 37.55L460.8625 37.55ZM477.8781 28.3L477.425 25.628124L477.425 23.2375L479.425 23.2375L479.425 25.628124L478.95624 28.3L477.8781 28.3ZM481.15936 34.45625L482.90936 34.175Q483.05 35.221874 483.72186 35.784374Q484.39374 36.33125 485.59686 36.33125Q486.8 36.33125 487.3781 35.846874Q487.97186 35.346874 487.97186 34.690624Q487.97186 34.096874 487.45624 33.753124Q487.09686 33.51875 485.65936 33.159374Q483.72186 32.659374 482.97186 32.315624Q482.2375 31.95625 481.84686 31.33125Q481.45624 30.690624 481.45624 29.925Q481.45624 29.2375 481.76874 28.64375Q482.09686 28.05 482.64374 27.659374Q483.05 27.3625 483.7531 27.159374Q484.47186 26.940624 485.28436 26.940624Q486.5031 26.940624 487.425 27.3Q488.34686 27.64375 488.78436 28.253124Q489.22186 28.846874 489.39374 29.846874L487.675 30.08125Q487.55 29.284374 486.9875 28.846874Q486.425 28.39375 485.40936 28.39375Q484.1906 28.39375 483.675 28.8Q483.15936 29.190624 483.15936 29.721874Q483.15936 30.065624 483.3781 30.346874Q483.58124 30.628124 484.05 30.815624Q484.3156 30.909374 485.59686 31.253124Q487.47186 31.753124 488.20624 32.08125Q488.9406 32.39375 489.3625 33.003124Q489.78436 33.596874 489.78436 34.503124Q489.78436 35.378124 489.26874 36.159374Q488.7531 36.940624 487.78436 37.3625Q486.8156 37.784374 485.59686 37.784374Q483.58124 37.784374 482.51874 36.940624Q481.45624 36.096874 481.15936 34.45625ZM500.7531 37.55L496.8 27.175L498.65936 27.175L500.89374 33.39375Q501.2531 34.39375 501.55 35.471874Q501.78436 34.659374 502.20624 33.503124L504.5031 27.175L506.3156 27.175L502.39374 37.55L500.7531 37.55ZM507.8781 25.253124L507.8781 23.2375L509.64374 23.2375L509.64374 25.253124L507.8781 25.253124ZM507.8781 37.55L507.8781 27.175L509.64374 27.175L509.64374 37.55L507.8781 37.55ZM511.15936 34.45625L512.90936 34.175Q513.05 35.221874 513.72186 35.784374Q514.39374 36.33125 515.59686 36.33125Q516.8 36.33125 517.3781 35.846874Q517.97186 35.346874 517.97186 34.690624Q517.97186 34.096874 517.45624 33.753124Q517.09686 33.51875 515.65936 33.159374Q513.72186 32.659374 512.97186 32.315624Q512.2375 31.95625 511.84686 31.33125Q511.45624 30.690624 511.45624 29.925Q511.45624 29.2375 511.76874 28.64375Q512.09686 28.05 512.64374 27.659374Q513.05 27.3625 513.7531 27.159374Q514.47186 26.940624 515.28436 26.940624Q516.5031 26.940624 517.425 27.3Q518.34686 27.64375 518.78436 28.253124Q519.22186 28.846874 519.39374 29.846874L517.675 30.08125Q517.55 29.284374 516.9875 28.846874Q516.425 28.39375 515.40936 28.39375Q514.1906 28.39375 513.675 28.8Q513.15936 29.190624 513.15936 29.721874Q513.15936 30.065624 513.3781 30.346874Q513.58124 30.628124 514.05 30.815624Q514.3156 30.909374 515.59686 31.253124Q517.47186 31.753124 518.20624 32.08125Q518.9406 32.39375 519.3625 33.003124Q519.78436 33.596874 519.78436 34.503124Q519.78436 35.378124 519.26874 36.159374Q518.7531 36.940624 517.78436 37.3625Q516.8156 37.784374 515.59686 37.784374Q513.58124 37.784374 512.51874 36.940624Q511.45624 36.096874 511.15936 34.45625ZM521.8781 25.253124L521.8781 23.2375L523.64374 23.2375L523.64374 25.253124L521.8781 25.253124ZM521.8781 37.55L521.8781 27.175L523.64374 27.175L523.64374 37.55L521.8781 37.55ZM529.70624 35.971874L529.95624 37.534374Q529.22186 37.690624 528.6281 37.690624Q527.675 37.690624 527.14374 37.39375Q526.6281 37.08125 526.40936 36.596874Q526.1906 36.096874 526.1906 34.51875L526.1906 28.55L524.90936 28.55L524.90936 27.175L526.1906 27.175L526.1906 24.6125L527.9406 23.55L527.9406 27.175L529.70624 27.175L529.70624 28.55L527.9406 28.55L527.9406 34.6125Q527.9406 35.3625 528.03436 35.58125Q528.1281 35.784374 528.33124 35.925Q528.55 36.05 528.9406 36.05Q529.22186 36.05 529.70624 35.971874ZM535.15936 34.01875Q535.14374 33.675 535.14374 33.503124Q535.14374 32.45625 535.4406 31.70625Q535.65936 31.14375 536.14374 30.565624Q536.4875 30.14375 537.39374 29.346874Q538.3156 28.534374 538.58124 28.065624Q538.8625 27.58125 538.8625 27.01875Q538.8625 25.9875 538.05 25.221874Q537.2531 24.440624 536.09686 24.440624Q534.97186 24.440624 534.22186 25.14375Q533.47186 25.846874 533.2375 27.33125L531.425 27.1125Q531.675 25.1125 532.8781 24.05Q534.08124 22.9875 536.0656 22.9875Q538.175 22.9875 539.425 24.128124Q540.675 25.26875 540.675 26.89375Q540.675 27.83125 540.22186 28.628124Q539.78436 29.409374 538.5031 30.55Q537.64374 31.315624 537.3781 31.675Q537.1281 32.034374 536.9875 32.503124Q536.8625 32.971874 536.84686 34.01875L535.15936 34.01875ZM535.05 37.55L535.05 35.55L537.05 35.55L537.05 37.55L535.05 37.55Z" fill-rule="nonzero"/></svg>