<svg version="1.1" viewBox="0.0 0.0 600.0 371.0" fill="none" stroke="none" stroke-linecap="square" stroke-miterlimit="10" width="600" height="371" xmlns:xlink="http://www.w3.org/1999/xlink" xmlns="http://www.w3.org/2000/svg"><path fill="#ffffff" d="M0 0L600.0 0L600.0 371.0L0 371.0L0 0Z" fill-rule="nonzero"/><path fill="#ea4335" d="M151.27188 190.15535C153.1121 133.58057 219.15793 88.38917 300.0 88.38917L300.0 192.52583Z" fill-rule="nonzero"/><path fill="#2e5dab" d="M448.76666 214.84084C448.76666 272.3539 382.16156 318.9775 300.0 318.9775C217.83844 318.9775 151.23334 272.3539 151.23334 214.84084L151.23334 192.52583C151.23334 250.03893 217.83844 296.6625 300.0 296.6625C382.16156 296.6625 448.76666 250.03893 448.76666 192.52583Z" fill-rule="nonzero"/><path fill="#4285f4" d="M300.0 88.38917C360.47882 88.38917 414.9384 114.01848 437.76425 153.22266C460.59012 192.42683 447.23874 237.40213 403.98975 266.99496C360.74075 296.58777 296.20306 304.90753 240.7312 288.04117C185.25934 271.17477 149.89519 232.47955 151.27188 190.15535L300.0 192.52583Z" fill-rule="nonzero"/><path fill="#1a1a1a" d="M18.534374 117.28017L21.83125 108.68642L23.05 108.68642L26.565624 117.28017L25.284374 117.28017L24.26875 114.67079L20.690624 114.67079L19.7375 117.28017L18.534374 117.28017ZM21.01875 113.74892L23.925 113.74892L23.034374 111.37392Q22.6125 110.29579 22.425 109.59267Q22.253124 110.42079 21.95625 111.23329L21.01875 113.74892ZM27.14375 117.79579L28.175 117.95204Q28.2375 118.42079 28.534374 118.63954Q28.925 118.93642 29.596874 118.93642Q30.33125 118.93642 30.721874 118.63954Q31.128124 118.34267 31.26875 117.82704Q31.3625 117.49892 31.346874 116.46767Q30.659374 117.28017 29.628124 117.28017Q28.346874 117.28017 27.64375 116.35829Q26.940624 115.42079 26.940624 114.13954Q26.940624 113.24892 27.253124 112.49892Q27.58125 111.73329 28.190624 111.32704Q28.8 110.92079 29.628124 110.92079Q30.7375 110.92079 31.45625 111.81142L31.45625 111.06142L32.425 111.06142L32.425 116.43642Q32.425 117.88954 32.128124 118.49892Q31.83125 119.10829 31.190624 119.45204Q30.55 119.81142 29.6125 119.81142Q28.503124 119.81142 27.815624 119.31142Q27.128124 118.81142 27.14375 117.79579ZM28.01875 114.06142Q28.01875 115.28017 28.503124 115.84267Q28.9875 116.40517 29.721874 116.40517Q30.45625 116.40517 30.940624 115.84267Q31.440624 115.28017 31.440624 114.09267Q31.440624 112.95204 30.925 112.37392Q30.425 111.79579 29.70625 111.79579Q29.003124 111.79579 28.503124 112.37392Q28.01875 112.93642 28.01875 114.06142ZM34.33125 117.28017L34.33125 111.06142L35.284374 111.06142L35.284374 111.99892Q35.64375 111.34267 35.940624 111.13954Q36.253124 110.92079 36.628124 110.92079Q37.159374 110.92079 37.70625 111.24892L37.346874 112.23329Q36.95625 111.99892 36.58125 111.99892Q36.221874 111.99892 35.940624 112.21767Q35.675 112.42079 35.565624 112.79579Q35.378124 113.35829 35.378124 114.01454L35.378124 117.28017L34.33125 117.28017ZM42.596874 115.28017L43.690624 115.40517Q43.440624 116.35829 42.7375 116.88954Q42.034374 117.42079 40.95625 117.42079Q39.596874 117.42079 38.784374 116.57704Q37.9875 115.73329 37.9875 114.21767Q37.9875 112.65517 38.8 111.79579Q39.6125 110.92079 40.89375 110.92079Q42.14375 110.92079 42.925 111.76454Q43.721874 112.60829 43.721874 114.15517Q43.721874 114.24892 43.721874 114.43642L39.08125 114.43642Q39.14375 115.46767 39.659374 116.01454Q40.175 116.54579 40.95625 116.54579Q41.534374 116.54579 41.940624 116.24892Q42.3625 115.93642 42.596874 115.28017ZM39.14375 113.57704L42.6125 113.57704Q42.55 112.78017 42.221874 112.38954Q41.70625 111.78017 40.909374 111.78017Q40.175 111.78017 39.675 112.26454Q39.190624 112.74892 39.14375 113.57704ZM49.596874 115.28017L50.690624 115.40517Q50.440624 116.35829 49.7375 116.88954Q49.034374 117.42079 47.95625 117.42079Q46.596874 117.42079 45.784374 116.57704Q44.9875 115.73329 44.9875 114.21767Q44.9875 112.65517 45.8 111.79579Q46.6125 110.92079 47.89375 110.92079Q49.14375 110.92079 49.925 111.76454Q50.721874 112.60829 50.721874 114.15517Q50.721874 114.24892 50.721874 114.43642L46.08125 114.43642Q46.14375 115.46767 46.659374 116.01454Q47.175 116.54579 47.95625 116.54579Q48.534374 116.54579 48.940624 116.24892Q49.3625 115.93642 49.596874 115.28017ZM46.14375 113.57704L49.6125 113.57704Q49.55 112.78017 49.221874 112.38954Q48.70625 111.78017 47.909374 111.78017Q47.175 111.78017 46.675 112.26454Q46.190624 112.74892 46.14375 113.57704Z" fill-rule="nonzero"/><path fill="#9e9e9e" d="M24.596874 133.26454L24.596874 134.28017L18.909374 134.28017Q18.909374 133.90517 19.034374 133.54579Q19.253124 132.96767 19.721874 132.40517Q20.20625 131.84267 21.1125 131.10829Q22.51875 129.95204 23.003124 129.28017Q23.503124 128.60829 23.503124 128.01454Q23.503124 127.38954 23.05 126.96767Q22.596874 126.53017 21.878124 126.53017Q21.1125 126.53017 20.659374 126.98329Q20.20625 127.43642 20.190624 128.24892L19.1125 128.13954Q19.221874 126.92079 19.940624 126.29579Q20.675 125.65517 21.909374 125.65517Q23.14375 125.65517 23.8625 126.34267Q24.58125 127.03017 24.58125 128.04579Q24.58125 128.56142 24.3625 129.06142Q24.159374 129.54579 23.659374 130.10829Q23.175 130.65517 22.05 131.60829Q21.096874 132.40517 20.815624 132.70204Q20.55 132.98329 20.378124 133.26454L24.596874 133.26454ZM29.425 134.28017L29.425 132.21767L25.70625 132.21767L25.70625 131.24892L29.628124 125.68642L30.4875 125.68642L30.4875 131.24892L31.64375 131.24892L31.64375 132.21767L30.4875 132.21767L30.4875 134.28017L29.425 134.28017ZM29.425 131.24892L29.425 127.38954L26.7375 131.24892L29.425 131.24892ZM33.6125 134.28017L33.6125 133.07704L34.815624 133.07704L34.815624 134.28017Q34.815624 134.93642 34.58125 135.34267Q34.346874 135.76454 33.846874 135.98329L33.55 135.53017Q33.878124 135.38954 34.034374 135.09267Q34.190624 134.81142 34.221874 134.28017L33.6125 134.28017ZM41.51875 127.79579L40.471874 127.87392Q40.33125 127.24892 40.08125 126.96767Q39.64375 126.51454 39.01875 126.51454Q38.51875 126.51454 38.128124 126.79579Q37.64375 127.17079 37.346874 127.87392Q37.065624 128.56142 37.05 129.84267Q37.425 129.26454 37.971874 128.98329Q38.534374 128.70204 39.14375 128.70204Q40.190624 128.70204 40.925 129.48329Q41.675 130.26454 41.675 131.48329Q41.675 132.29579 41.315624 132.99892Q40.971874 133.68642 40.3625 134.06142Q39.753124 134.42079 38.9875 134.42079Q37.659374 134.42079 36.83125 133.45204Q36.003124 132.48329 36.003124 130.26454Q36.003124 127.76454 36.925 126.63954Q37.721874 125.65517 39.08125 125.65517Q40.096874 125.65517 40.7375 126.23329Q41.39375 126.79579 41.51875 127.79579ZM37.221874 131.49892Q37.221874 132.04579 37.440624 132.54579Q37.675 133.03017 38.08125 133.29579Q38.503124 133.56142 38.971874 133.56142Q39.628124 133.56142 40.1125 133.03017Q40.596874 132.48329 40.596874 131.56142Q40.596874 130.67079 40.1125 130.15517Q39.64375 129.63954 38.925 129.63954Q38.20625 129.63954 37.70625 130.15517Q37.221874 130.67079 37.221874 131.49892ZM43.253124 127.74892Q43.253124 126.82704 43.70625 126.18642Q44.175 125.54579 45.05 125.54579Q45.8625 125.54579 46.39375 126.12392Q46.925 126.70204 46.925 127.81142Q46.925 128.90517 46.378124 129.49892Q45.846874 130.07704 45.065624 130.07704Q44.284374 130.07704 43.76875 129.49892Q43.253124 128.92079 43.253124 127.74892ZM45.08125 126.26454Q44.690624 126.26454 44.425 126.60829Q44.175 126.95204 44.175 127.85829Q44.175 128.68642 44.425 129.03017Q44.690624 129.35829 45.08125 129.35829Q45.4875 129.35829 45.7375 129.01454Q46.003124 128.67079 46.003124 127.78017Q46.003124 126.93642 45.7375 126.60829Q45.471874 126.26454 45.08125 126.26454ZM45.08125 134.59267L49.784374 125.54579L50.64375 125.54579L45.95625 134.59267L45.08125 134.59267ZM48.8 132.26454Q48.8 131.34267 49.253124 130.70204Q49.721874 130.06142 50.6125 130.06142Q51.425 130.06142 51.95625 130.63954Q52.4875 131.20204 52.4875 132.32704Q52.4875 133.42079 51.940624 134.01454Q51.409374 134.59267 50.6125 134.59267Q49.846874 134.59267 49.315624 134.01454Q48.8 133.43642 48.8 132.26454ZM50.64375 130.78017Q50.2375 130.78017 49.971874 131.12392Q49.721874 131.46767 49.721874 132.37392Q49.721874 133.18642 49.9875 133.53017Q50.253124 133.87392 50.64375 133.87392Q51.034374 133.87392 51.3 133.53017Q51.565624 133.18642 51.565624 132.28017Q51.565624 131.45204 51.3 131.12392Q51.034374 130.78017 50.64375 130.78017Z" fill-rule="nonzero"/><path stroke="#757575" stroke-width="1.0" stroke-linecap="butt" d="M18.55 121.78017L145.23334 121.78017L201.20973 121.78017" fill-rule="nonzero"/><path fill="#9e9e9e" d="M203.20973 121.78017C203.20973 120.6756 202.3143 119.78017 201.20973 119.78017C200.10516 119.78017 199.20973 120.6756 199.20973 121.78017C199.20973 122.88474 200.10516 123.78017 201.20973 123.78017C202.3143 123.78017 203.20973 122.88474 203.20973 121.78017" fill-rule="nonzero"/><path fill="#1a1a1a" d="M501.9969 256.00586L503.0594 255.91211Q503.1375 256.56836 503.41876 256.9746Q503.7 257.38086 504.27814 257.64648Q504.8719 257.89648 505.60626 257.89648Q506.2469 257.89648 506.7469 257.70898Q507.2469 257.50586 507.48126 257.17773Q507.73126 256.83398 507.73126 256.44336Q507.73126 256.0371 507.4969 255.74023Q507.2625 255.42773 506.73126 255.22461Q506.3719 255.08398 505.1844 254.80273Q504.0125 254.52148 503.54376 254.27148Q502.91876 253.94336 502.6219 253.47461Q502.325 252.99023 502.325 252.39648Q502.325 251.75586 502.6844 251.19336Q503.0594 250.61523 503.7625 250.33398Q504.48126 250.03711 505.34064 250.03711Q506.29376 250.03711 507.02814 250.34961Q507.7625 250.64648 508.15314 251.25586Q508.54376 251.84961 508.575 252.59961L507.48126 252.67773Q507.3875 251.86523 506.8719 251.45898Q506.3719 251.03711 505.3875 251.03711Q504.35626 251.03711 503.8875 251.41211Q503.41876 251.78711 503.41876 252.31836Q503.41876 252.78711 503.7469 253.08398Q504.075 253.38086 505.45 253.69336Q506.84064 254.00586 507.35626 254.24023Q508.10626 254.59961 508.46564 255.13086Q508.825 255.64648 508.825 256.3496Q508.825 257.0371 508.4344 257.64648Q508.04376 258.24023 507.3094 258.58398Q506.575 258.9121 505.65314 258.9121Q504.48126 258.9121 503.6844 258.58398Q502.90314 258.24023 502.45 257.55273Q502.0125 256.86523 501.9969 256.00586ZM512.54376 257.83398L512.7 258.75586Q512.2469 258.8496 511.90314 258.8496Q511.325 258.8496 511.0125 258.67773Q510.7 258.49023 510.5594 258.19336Q510.4344 257.89648 510.4344 256.94336L510.4344 253.36523L509.66876 253.36523L509.66876 252.55273L510.4344 252.55273L510.4344 251.00586L511.48126 250.38086L511.48126 252.55273L512.54376 252.55273L512.54376 253.36523L511.48126 253.36523L511.48126 257.00586Q511.48126 257.45898 511.52814 257.58398Q511.59064 257.70898 511.71564 257.7871Q511.84064 257.86523 512.075 257.86523Q512.2625 257.86523 512.54376 257.83398ZM513.23126 258.77148L513.23126 252.55273L514.1844 252.55273L514.1844 253.49023Q514.54376 252.83398 514.84064 252.63086Q515.15314 252.41211 515.52814 252.41211Q516.0594 252.41211 516.60626 252.74023L516.2469 253.72461Q515.85626 253.49023 515.48126 253.49023Q515.1219 253.49023 514.84064 253.70898Q514.575 253.91211 514.46564 254.28711Q514.27814 254.84961 514.27814 255.50586L514.27814 258.77148L513.23126 258.77148ZM516.85626 255.66211Q516.85626 253.92773 517.8094 253.09961Q518.60626 252.41211 519.7625 252.41211Q521.04376 252.41211 521.85626 253.25586Q522.6844 254.08398 522.6844 255.56836Q522.6844 256.77148 522.325 257.45898Q521.96564 258.14648 521.2625 258.5371Q520.575 258.9121 519.7625 258.9121Q518.46564 258.9121 517.65314 258.08398Q516.85626 257.24023 516.85626 255.66211ZM517.9344 255.66211Q517.9344 256.8496 518.45 257.44336Q518.98126 258.0371 519.7625 258.0371Q520.5594 258.0371 521.075 257.44336Q521.59064 256.8496 521.59064 255.63086Q521.59064 254.47461 521.0594 253.88086Q520.54376 253.28711 519.7625 253.28711Q518.98126 253.28711 518.45 253.88086Q517.9344 254.45898 517.9344 255.66211ZM524.2469 258.77148L524.2469 252.55273L525.1844 252.55273L525.1844 253.42773Q525.8719 252.41211 527.16876 252.41211Q527.73126 252.41211 528.2 252.61523Q528.6844 252.81836 528.91876 253.14648Q529.15314 253.47461 529.2469 253.91211Q529.29376 254.20898 529.29376 254.94336L529.29376 258.77148L528.2469 258.77148L528.2469 254.99023Q528.2469 254.33398 528.1219 254.02148Q527.9969 253.70898 527.6844 253.52148Q527.3719 253.31836 526.95 253.31836Q526.27814 253.31836 525.77814 253.75586Q525.29376 254.17773 525.29376 255.36523L525.29376 258.77148L524.2469 258.77148ZM531.04376 259.2871L532.075 259.44336Q532.1375 259.9121 532.4344 260.13086Q532.825 260.42773 533.4969 260.42773Q534.23126 260.42773 534.6219 260.13086Q535.02814 259.83398 535.16876 259.31836Q535.2625 258.99023 535.2469 257.95898Q534.5594 258.77148 533.52814 258.77148Q532.2469 258.77148 531.54376 257.8496Q530.84064 256.9121 530.84064 255.63086Q530.84064 254.74023 531.15314 253.99023Q531.48126 253.22461 532.09064 252.81836Q532.7 252.41211 533.52814 252.41211Q534.6375 252.41211 535.35626 253.30273L535.35626 252.55273L536.325 252.55273L536.325 257.92773Q536.325 259.38086 536.02814 259.99023Q535.73126 260.5996 535.09064 260.94336Q534.45 261.30273 533.5125 261.30273Q532.40314 261.30273 531.71564 260.80273Q531.02814 260.30273 531.04376 259.2871ZM531.91876 255.55273Q531.91876 256.77148 532.40314 257.33398Q532.8875 257.89648 533.6219 257.89648Q534.35626 257.89648 534.84064 257.33398Q535.34064 256.77148 535.34064 255.58398Q535.34064 254.44336 534.825 253.86523Q534.325 253.28711 533.60626 253.28711Q532.90314 253.28711 532.40314 253.86523Q531.91876 254.42773 531.91876 255.55273ZM538.21564 258.77148L538.21564 250.17773L539.27814 250.17773L539.27814 258.77148L538.21564 258.77148ZM541.2 261.1621L541.075 260.17773Q541.41876 260.27148 541.6844 260.27148Q542.02814 260.27148 542.23126 260.14648Q542.45 260.0371 542.59064 259.83398Q542.6844 259.6621 542.91876 259.0371Q542.9344 258.95898 543.0125 258.7871L540.6375 252.55273L541.77814 252.55273L543.075 256.14648Q543.325 256.83398 543.52814 257.5996Q543.71564 256.86523 543.96564 256.17773L545.29376 252.55273L546.34064 252.55273L543.98126 258.88086Q543.59064 259.89648 543.3875 260.2871Q543.10626 260.81836 542.73126 261.05273Q542.3719 261.30273 541.8719 261.30273Q541.575 261.30273 541.2 261.1621ZM554.3094 258.00586Q553.71564 258.50586 553.16876 258.70898Q552.6375 258.9121 552.0125 258.9121Q550.98126 258.9121 550.4344 258.4121Q549.8875 257.9121 549.8875 257.13086Q549.8875 256.67773 550.09064 256.30273Q550.29376 255.91211 550.6375 255.69336Q550.98126 255.45898 551.40314 255.34961Q551.7 255.25586 552.34064 255.17773Q553.60626 255.03711 554.21564 254.81836Q554.21564 254.59961 554.21564 254.55273Q554.21564 253.89648 553.91876 253.63086Q553.5125 253.28711 552.71564 253.28711Q551.98126 253.28711 551.6219 253.55273Q551.2625 253.80273 551.09064 254.45898L550.0594 254.31836Q550.2 253.66211 550.52814 253.25586Q550.85626 252.84961 551.46564 252.63086Q552.075 252.41211 552.8719 252.41211Q553.66876 252.41211 554.16876 252.59961Q554.66876 252.78711 554.90314 253.06836Q555.1375 253.34961 555.23126 253.78711Q555.27814 254.05273 555.27814 254.75586L555.27814 256.1621Q555.27814 257.63086 555.34064 258.02148Q555.41876 258.4121 555.6219 258.77148L554.5125 258.77148Q554.35626 258.44336 554.3094 258.00586ZM554.21564 255.64648Q553.6375 255.88086 552.4969 256.05273Q551.84064 256.14648 551.575 256.27148Q551.3094 256.38086 551.15314 256.5996Q551.0125 256.81836 551.0125 257.0996Q551.0125 257.52148 551.325 257.80273Q551.65314 258.08398 552.2625 258.08398Q552.8719 258.08398 553.34064 257.81836Q553.825 257.55273 554.04376 257.08398Q554.21564 256.7246 554.21564 256.0371L554.21564 255.64648ZM557.04376 259.2871L558.075 259.44336Q558.1375 259.9121 558.4344 260.13086Q558.825 260.42773 559.4969 260.42773Q560.23126 260.42773 560.6219 260.13086Q561.02814 259.83398 561.16876 259.31836Q561.2625 258.99023 561.2469 257.95898Q560.5594 258.77148 559.52814 258.77148Q558.2469 258.77148 557.54376 257.8496Q556.84064 256.9121 556.84064 255.63086Q556.84064 254.74023 557.15314 253.99023Q557.48126 253.22461 558.09064 252.81836Q558.7 252.41211 559.52814 252.41211Q560.6375 252.41211 561.35626 253.30273L561.35626 252.55273L562.325 252.55273L562.325 257.92773Q562.325 259.38086 562.02814 259.99023Q561.73126 260.5996 561.09064 260.94336Q560.45 261.30273 559.5125 261.30273Q558.40314 261.30273 557.71564 260.80273Q557.02814 260.30273 557.04376 259.2871ZM557.91876 255.55273Q557.91876 256.77148 558.40314 257.33398Q558.8875 257.89648 559.6219 257.89648Q560.35626 257.89648 560.84064 257.33398Q561.34064 256.77148 561.34064 255.58398Q561.34064 254.44336 560.825 253.86523Q560.325 253.28711 559.60626 253.28711Q558.90314 253.28711 558.40314 253.86523Q557.91876 254.42773 557.91876 255.55273ZM564.23126 258.77148L564.23126 252.55273L565.1844 252.55273L565.1844 253.49023Q565.54376 252.83398 565.84064 252.63086Q566.15314 252.41211 566.52814 252.41211Q567.0594 252.41211 567.60626 252.74023L567.2469 253.72461Q566.85626 253.49023 566.48126 253.49023Q566.1219 253.49023 565.84064 253.70898Q565.575 253.91211 565.46564 254.28711Q565.27814 254.84961 565.27814 255.50586L565.27814 258.77148L564.23126 258.77148ZM572.4969 256.77148L573.59064 256.89648Q573.34064 257.8496 572.6375 258.38086Q571.9344 258.9121 570.85626 258.9121Q569.4969 258.9121 568.6844 258.06836Q567.8875 257.2246 567.8875 255.70898Q567.8875 254.14648 568.7 253.28711Q569.5125 252.41211 570.79376 252.41211Q572.04376 252.41211 572.825 253.25586Q573.6219 254.09961 573.6219 255.64648Q573.6219 255.74023 573.6219 255.92773L568.98126 255.92773Q569.04376 256.95898 569.5594 257.50586Q570.075 258.0371 570.85626 258.0371Q571.4344 258.0371 571.84064 257.74023Q572.2625 257.42773 572.4969 256.77148ZM569.04376 255.06836L572.5125 255.06836Q572.45 254.27148 572.1219 253.88086Q571.60626 253.27148 570.8094 253.27148Q570.075 253.27148 569.575 253.75586Q569.09064 254.24023 569.04376 255.06836ZM579.4969 256.77148L580.59064 256.89648Q580.34064 257.8496 579.6375 258.38086Q578.9344 258.9121 577.85626 258.9121Q576.4969 258.9121 575.6844 258.06836Q574.8875 257.2246 574.8875 255.70898Q574.8875 254.14648 575.7 253.28711Q576.5125 252.41211 577.79376 252.41211Q579.04376 252.41211 579.825 253.25586Q580.6219 254.09961 580.6219 255.64648Q580.6219 255.74023 580.6219 255.92773L575.98126 255.92773Q576.04376 256.95898 576.5594 257.50586Q577.075 258.0371 577.85626 258.0371Q578.4344 258.0371 578.84064 257.74023Q579.2625 257.42773 579.4969 256.77148ZM576.04376 255.06836L579.5125 255.06836Q579.45 254.27148 579.1219 253.88086Q578.60626 253.27148 577.8094 253.27148Q577.075 253.27148 576.575 253.75586Q576.09064 254.24023 576.04376 255.06836Z" fill-rule="nonzero"/><path fill="#9e9e9e" d="M547.0125 268.30273L547.0125 267.2871L552.575 267.2871L552.575 268.11523Q551.7625 268.99023 550.95 270.44336Q550.15314 271.88086 549.71564 273.4121Q549.3875 274.49023 549.3094 275.77148L548.21564 275.77148Q548.23126 274.75586 548.60626 273.31836Q548.9969 271.88086 549.7 270.55273Q550.41876 269.2246 551.23126 268.30273L547.0125 268.30273ZM553.95 273.52148L555.0594 273.42773Q555.1844 274.24023 555.6219 274.64648Q556.075 275.05273 556.71564 275.05273Q557.46564 275.05273 557.9969 274.4746Q558.52814 273.89648 558.52814 272.95898Q558.52814 272.05273 558.0125 271.5371Q557.5125 271.00586 556.6844 271.00586Q556.1844 271.00586 555.7625 271.24023Q555.35626 271.4746 555.1219 271.83398L554.1375 271.70898L554.96564 267.30273L559.2469 267.30273L559.2469 268.30273L555.8094 268.30273L555.35626 270.61523Q556.1219 270.06836 556.96564 270.06836Q558.09064 270.06836 558.85626 270.8496Q559.6375 271.63086 559.6375 272.86523Q559.6375 274.02148 558.96564 274.88086Q558.1375 275.9121 556.71564 275.9121Q555.54376 275.9121 554.79376 275.25586Q554.0594 274.5996 553.95 273.52148ZM561.5125 275.77148L561.5125 274.56836L562.71564 274.56836L562.71564 275.77148Q562.71564 276.42773 562.48126 276.83398Q562.2469 277.25586 561.7469 277.4746L561.45 277.02148Q561.77814 276.88086 561.9344 276.58398Q562.09064 276.30273 562.1219 275.77148L561.5125 275.77148ZM567.325 275.77148L567.325 273.70898L563.60626 273.70898L563.60626 272.74023L567.52814 267.17773L568.3875 267.17773L568.3875 272.74023L569.54376 272.74023L569.54376 273.70898L568.3875 273.70898L568.3875 275.77148L567.325 275.77148ZM567.325 272.74023L567.325 268.88086L564.6375 272.74023L567.325 272.74023ZM571.15314 269.24023Q571.15314 268.31836 571.60626 267.67773Q572.075 267.0371 572.95 267.0371Q573.7625 267.0371 574.29376 267.61523Q574.825 268.19336 574.825 269.30273Q574.825 270.39648 574.27814 270.99023Q573.7469 271.56836 572.96564 271.56836Q572.1844 271.56836 571.66876 270.99023Q571.15314 270.4121 571.15314 269.24023ZM572.98126 267.75586Q572.59064 267.75586 572.325 268.0996Q572.075 268.44336 572.075 269.3496Q572.075 270.17773 572.325 270.52148Q572.59064 270.8496 572.98126 270.8496Q573.3875 270.8496 573.6375 270.50586Q573.90314 270.1621 573.90314 269.27148Q573.90314 268.42773 573.6375 268.0996Q573.3719 267.75586 572.98126 267.75586ZM572.98126 276.08398L577.6844 267.0371L578.54376 267.0371L573.85626 276.08398L572.98126 276.08398ZM576.7 273.75586Q576.7 272.83398 577.15314 272.19336Q577.6219 271.55273 578.5125 271.55273Q579.325 271.55273 579.85626 272.13086Q580.3875 272.69336 580.3875 273.81836Q580.3875 274.9121 579.84064 275.50586Q579.3094 276.08398 578.5125 276.08398Q577.7469 276.08398 577.21564 275.50586Q576.7 274.92773 576.7 273.75586ZM578.54376 272.27148Q578.1375 272.27148 577.8719 272.61523Q577.6219 272.95898 577.6219 273.86523Q577.6219 274.67773 577.8875 275.02148Q578.15314 275.36523 578.54376 275.36523Q578.9344 275.36523 579.2 275.02148Q579.46564 274.67773 579.46564 273.77148Q579.46564 272.94336 579.2 272.61523Q578.9344 272.27148 578.54376 272.27148Z" fill-rule="nonzero"/><path stroke="#757575" stroke-width="1.0" stroke-linecap="butt" d="M581.45 263.27148L454.76666 263.27148L398.79025 263.27148" fill-rule="nonzero"/><path fill="#9e9e9e" d="M400.79025 263.27148C400.79025 262.16693 399.89484 261.27148 398.79025 261.27148C397.6857 261.27148 396.79025 262.16693 396.79025 263.27148C396.79025 264.37607 397.6857 265.27148 398.79025 265.27148C399.89484 265.27148 400.79025 264.37607 400.79025 263.27148" fill-rule="nonzero"/><path fill="#757575" d="M20.096874 37.55L20.096874 23.2375L25.01875 23.2375Q26.690624 23.2375 27.58125 23.440624Q28.8 23.721874 29.675 24.45625Q30.8 25.425 31.3625 26.909374Q31.925 28.39375 31.925 30.315624Q31.925 31.940624 31.55 33.20625Q31.175 34.45625 30.565624 35.284374Q29.971874 36.1125 29.26875 36.596874Q28.565624 37.065624 27.565624 37.315624Q26.565624 37.55 25.253124 37.55L20.096874 37.55ZM21.9875 35.8625L25.05 35.8625Q26.45625 35.8625 27.253124 35.596874Q28.065624 35.33125 28.55 34.846874Q29.221874 34.175 29.596874 33.05Q29.971874 31.909374 29.971874 30.284374Q29.971874 28.034374 29.2375 26.83125Q28.503124 25.628124 27.440624 25.221874Q26.690624 24.925 25.003124 24.925L21.9875 24.925L21.9875 35.8625ZM33.221874 32.3625Q33.221874 29.4875 34.815624 28.096874Q36.159374 26.940624 38.08125 26.940624Q40.221874 26.940624 41.565624 28.346874Q42.925 29.753124 42.925 32.221874Q42.925 34.221874 42.33125 35.378124Q41.7375 36.51875 40.58125 37.159374Q39.440624 37.784374 38.08125 37.784374Q35.89375 37.784374 34.55 36.39375Q33.221874 34.9875 33.221874 32.3625ZM35.01875 32.3625Q35.01875 34.3625 35.878124 35.346874Q36.753124 36.33125 38.08125 36.33125Q39.39375 36.33125 40.253124 35.346874Q41.128124 34.346874 41.128124 32.3Q41.128124 30.378124 40.253124 29.39375Q39.378124 28.39375 38.08125 28.39375Q36.753124 28.39375 35.878124 29.39375Q35.01875 30.378124 35.01875 32.3625ZM50.784374 41.55L50.596874 39.89375Q51.175 40.05 51.596874 40.05Q52.190624 40.05 52.534374 39.846874Q52.89375 39.659374 53.1125 39.315624Q53.284374 39.05 53.659374 38.003124Q53.70625 37.846874 53.815624 37.565624L49.878124 27.175L51.76875 27.175L53.925 33.190624Q54.346874 34.33125 54.675 35.58125Q54.9875 34.378124 55.39375 33.221874L57.6125 27.175L59.378124 27.175L55.425 37.721874Q54.8 39.440624 54.440624 40.08125Q53.971874 40.95625 53.3625 41.346874Q52.76875 41.753124 51.925 41.753124Q51.409374 41.753124 50.784374 41.55ZM60.221874 32.3625Q60.221874 29.4875 61.815624 28.096874Q63.159374 26.940624 65.08125 26.940624Q67.22188 26.940624 68.56563 28.346874Q69.925 29.753124 69.925 32.221874Q69.925 34.221874 69.33125 35.378124Q68.7375 36.51875 67.58125 37.159374Q66.44063 37.784374 65.08125 37.784374Q62.89375 37.784374 61.55 36.39375Q60.221874 34.9875 60.221874 32.3625ZM62.01875 32.3625Q62.01875 34.3625 62.878124 35.346874Q63.753124 36.33125 65.08125 36.33125Q66.39375 36.33125 67.25313 35.346874Q68.12813 34.346874 68.12813 32.3Q68.12813 30.378124 67.25313 29.39375Q66.37813 28.39375 65.08125 28.39375Q63.753124 28.39375 62.878124 29.39375Q62.01875 30.378124 62.01875 32.3625ZM78.65938 37.55L78.65938 36.01875Q77.45625 37.784374 75.37813 37.784374Q74.45625 37.784374 73.65938 37.440624Q72.8625 37.08125 72.47188 36.55Q72.09688 36.01875 71.94063 35.2375Q71.83125 34.721874 71.83125 33.596874L71.83125 27.175L73.58125 27.175L73.58125 32.925Q73.58125 34.3 73.69063 34.784374Q73.8625 35.471874 74.39375 35.878124Q74.94063 36.26875 75.72188 36.26875Q76.51875 36.26875 77.20625 35.8625Q77.90938 35.45625 78.19063 34.76875Q78.4875 34.065624 78.4875 32.7375L78.4875 27.175L80.2375 27.175L80.2375 37.55L78.65938 37.55ZM92.70625 35.971874L92.95625 37.534374Q92.22188 37.690624 91.62813 37.690624Q90.675 37.690624 90.14375 37.39375Q89.62813 37.08125 89.40938 36.596874Q89.19063 36.096874 89.19063 34.51875L89.19063 28.55L87.90938 28.55L87.90938 27.175L89.19063 27.175L89.19063 24.6125L90.94063 23.55L90.94063 27.175L92.70625 27.175L92.70625 28.55L90.94063 28.55L90.94063 34.6125Q90.94063 35.3625 91.03438 35.58125Q91.12813 35.784374 91.33125 35.925Q91.55 36.05 91.94063 36.05Q92.22188 36.05 92.70625 35.971874ZM94.8625 37.55L94.8625 23.2375L96.62813 23.2375L96.62813 28.3625Q97.8625 26.940624 99.7375 26.940624Q100.87813 26.940624 101.72188 27.39375Q102.58125 27.846874 102.94063 28.659374Q103.31563 29.45625 103.31563 30.971874L103.31563 37.55L101.56563 37.55L101.56563 30.971874Q101.56563 29.659374 100.9875 29.065624Q100.40938 28.45625 99.37813 28.45625Q98.59688 28.45625 97.89375 28.8625Q97.20625 29.26875 96.90938 29.971874Q96.62813 30.659374 96.62813 31.878124L96.62813 37.55L94.8625 37.55ZM105.87813 25.253124L105.87813 23.2375L107.64375 23.2375L107.64375 25.253124L105.87813 25.253124ZM105.87813 37.55L105.87813 27.175L107.64375 27.175L107.64375 37.55L105.87813 37.55ZM109.8625 37.55L109.8625 27.175L111.45625 27.175L111.45625 28.659374Q112.59688 26.940624 114.75313 26.940624Q115.69063 26.940624 116.47188 27.284374Q117.26875 27.6125 117.65938 28.159374Q118.05 28.70625 118.20625 29.45625Q118.3 29.95625 118.3 31.175L118.3 37.55L116.53438 37.55L116.53438 31.2375Q116.53438 30.159374 116.33125 29.628124Q116.12813 29.096874 115.59688 28.784374Q115.08125 28.471874 114.37813 28.471874Q113.25313 28.471874 112.44063 29.190624Q111.62813 29.89375 111.62813 31.878124L111.62813 37.55L109.8625 37.55ZM120.87813 37.55L120.87813 23.2375L122.64375 23.2375L122.64375 31.39375L126.8 27.175L129.06563 27.175L125.1125 31.01875L129.47188 37.55L127.3 37.55L123.87813 32.253124L122.64375 33.440624L122.64375 37.55L120.87813 37.55ZM140.70625 35.971874L140.95625 37.534374Q140.22188 37.690624 139.62813 37.690624Q138.675 37.690624 138.14375 37.39375Q137.62813 37.08125 137.40938 36.596874Q137.19063 36.096874 137.19063 34.51875L137.19063 28.55L135.90938 28.55L135.90938 27.175L137.19063 27.175L137.19063 24.6125L138.94063 23.55L138.94063 27.175L140.70625 27.175L140.70625 28.55L138.94063 28.55L138.94063 34.6125Q138.94063 35.3625 139.03438 35.58125Q139.12813 35.784374 139.33125 35.925Q139.55 36.05 139.94063 36.05Q140.22188 36.05 140.70625 35.971874ZM142.8625 37.55L142.8625 23.2375L144.62813 23.2375L144.62813 28.3625Q145.8625 26.940624 147.7375 26.940624Q148.87813 26.940624 149.72188 27.39375Q150.58125 27.846874 150.94063 28.659374Q151.31563 29.45625 151.31563 30.971874L151.31563 37.55L149.56563 37.55L149.56563 30.971874Q149.56563 29.659374 148.9875 29.065624Q148.40938 28.45625 147.37813 28.45625Q146.59688 28.45625 145.89375 28.8625Q145.20625 29.26875 144.90938 29.971874Q144.62813 30.659374 144.62813 31.878124L144.62813 37.55L142.8625 37.55ZM160.97188 34.20625L162.78438 34.440624Q162.3625 36.01875 161.19063 36.909374Q160.03438 37.784374 158.22188 37.784374Q155.95625 37.784374 154.6125 36.39375Q153.28438 34.9875 153.28438 32.45625Q153.28438 29.83125 154.62813 28.39375Q155.97188 26.940624 158.12813 26.940624Q160.20625 26.940624 161.51875 28.3625Q162.84688 29.76875 162.84688 32.346874Q162.84688 32.503124 162.83125 32.815624L155.09688 32.815624Q155.19063 34.51875 156.06563 35.425Q156.94063 36.33125 158.2375 36.33125Q159.20625 36.33125 159.87813 35.83125Q160.56563 35.315624 160.97188 34.20625ZM155.19063 31.3625L160.9875 31.3625Q160.87813 30.065624 160.33125 29.409374Q159.4875 28.39375 158.14375 28.39375Q156.94063 28.39375 156.1125 29.20625Q155.28438 30.003124 155.19063 31.3625ZM177.64375 36.26875Q176.65938 37.096874 175.75313 37.440624Q174.84688 37.784374 173.81563 37.784374Q172.1125 37.784374 171.19063 36.95625Q170.26875 36.1125 170.26875 34.815624Q170.26875 34.05 170.6125 33.425Q170.97188 32.8 171.53438 32.425Q172.09688 32.034374 172.8 31.83125Q173.31563 31.70625 174.3625 31.565624Q176.4875 31.315624 177.4875 30.971874Q177.50313 30.6125 177.50313 30.503124Q177.50313 29.440624 177.00313 28.9875Q176.33125 28.39375 175.00313 28.39375Q173.75313 28.39375 173.15938 28.83125Q172.58125 29.26875 172.3 30.378124L170.58125 30.14375Q170.81563 29.034374 171.34688 28.3625Q171.87813 27.675 172.89375 27.315624Q173.90938 26.940624 175.25313 26.940624Q176.58125 26.940624 177.40938 27.253124Q178.2375 27.565624 178.62813 28.05Q179.01875 28.51875 179.175 29.2375Q179.26875 29.690624 179.26875 30.8625L179.26875 33.20625Q179.26875 35.659374 179.37813 36.315624Q179.4875 36.95625 179.83125 37.55L177.9875 37.55Q177.72188 37.003124 177.64375 36.26875ZM177.4875 32.346874Q176.53438 32.7375 174.6125 33.003124Q173.53438 33.159374 173.08125 33.3625Q172.64375 33.55 172.39375 33.925Q172.14375 34.3 172.14375 34.76875Q172.14375 35.471874 172.675 35.940624Q173.20625 36.409374 174.2375 36.409374Q175.25313 36.409374 176.03438 35.971874Q176.83125 35.51875 177.20625 34.753124Q177.4875 34.14375 177.4875 32.9875L177.4875 32.346874ZM181.8625 41.51875L181.8625 27.175L183.47188 27.175L183.47188 28.51875Q184.03438 27.7375 184.7375 27.346874Q185.45625 26.940624 186.47188 26.940624Q187.8 26.940624 188.81563 27.628124Q189.83125 28.315624 190.34688 29.565624Q190.87813 30.8 190.87813 32.284374Q190.87813 33.878124 190.3 35.159374Q189.7375 36.425 188.64375 37.1125Q187.55 37.784374 186.34688 37.784374Q185.47188 37.784374 184.76875 37.409374Q184.08125 37.034374 183.62813 36.471874L183.62813 41.51875L181.8625 41.51875ZM183.45625 32.425Q183.45625 34.425 184.26875 35.378124Q185.08125 36.33125 186.2375 36.33125Q187.40938 36.33125 188.2375 35.346874Q189.08125 34.3625 189.08125 32.26875Q189.08125 30.3 188.25313 29.315624Q187.44063 28.315624 186.31563 28.315624Q185.19063 28.315624 184.31563 29.378124Q183.45625 30.425 183.45625 32.425ZM192.8625 41.51875L192.8625 27.175L194.47188 27.175L194.47188 28.51875Q195.03438 27.7375 195.7375 27.346874Q196.45625 26.940624 197.47188 26.940624Q198.8 26.940624 199.81563 27.628124Q200.83125 28.315624 201.34688 29.565624Q201.87813 30.8 201.87813 32.284374Q201.87813 33.878124 201.3 35.159374Q200.7375 36.425 199.64375 37.1125Q198.55 37.784374 197.34688 37.784374Q196.47188 37.784374 195.76875 37.409374Q195.08125 37.034374 194.62813 36.471874L194.62813 41.51875L192.8625 41.51875ZM194.45625 32.425Q194.45625 34.425 195.26875 35.378124Q196.08125 36.33125 197.2375 36.33125Q198.40938 36.33125 199.2375 35.346874Q200.08125 34.3625 200.08125 32.26875Q200.08125 30.3 199.25313 29.315624Q198.44063 28.315624 197.31563 28.315624Q196.19063 28.315624 195.31563 29.378124Q194.45625 30.425 194.45625 32.425ZM209.87813 25.253124L209.87813 23.2375L211.64375 23.2375L211.64375 25.253124L209.87813 25.253124ZM209.87813 37.55L209.87813 27.175L211.64375 27.175L211.64375 37.55L209.87813 37.55ZM213.15938 34.45625L214.90938 34.175Q215.05 35.221874 215.72188 35.784374Q216.39375 36.33125 217.59688 36.33125Q218.8 36.33125 219.37813 35.846874Q219.97188 35.346874 219.97188 34.690624Q219.97188 34.096874 219.45625 33.753124Q219.09688 33.51875 217.65938 33.159374Q215.72188 32.659374 214.97188 32.315624Q214.2375 31.95625 213.84688 31.33125Q213.45625 30.690624 213.45625 29.925Q213.45625 29.2375 213.76875 28.64375Q214.09688 28.05 214.64375 27.659374Q215.05 27.3625 215.75313 27.159374Q216.47188 26.940624 217.28438 26.940624Q218.50313 26.940624 219.425 27.3Q220.34688 27.64375 220.78438 28.253124Q221.22188 28.846874 221.39375 29.846874L219.675 30.08125Q219.55 29.284374 218.9875 28.846874Q218.425 28.39375 217.40938 28.39375Q216.19063 28.39375 215.675 28.8Q215.15938 29.190624 215.15938 29.721874Q215.15938 30.065624 215.37813 30.346874Q215.58125 30.628124 216.05 30.815624Q216.31563 30.909374 217.59688 31.253124Q219.47188 31.753124 220.20625 32.08125Q220.94063 32.39375 221.3625 33.003124Q221.78438 33.596874 221.78438 34.503124Q221.78438 35.378124 221.26875 36.159374Q220.75313 36.940624 219.78438 37.3625Q218.81563 37.784374 217.59688 37.784374Q215.58125 37.784374 214.51875 36.940624Q213.45625 36.096874 213.15938 34.45625ZM229.22188 32.3625Q229.22188 29.4875 230.81563 28.096874Q232.15938 26.940624 234.08125 26.940624Q236.22188 26.940624 237.56563 28.346874Q238.925 29.753124 238.925 32.221874Q238.925 34.221874 238.33125 35.378124Q237.7375 36.51875 236.58125 37.159374Q235.44063 37.784374 234.08125 37.784374Q231.89375 37.784374 230.55 36.39375Q229.22188 34.9875 229.22188 32.3625ZM231.01875 32.3625Q231.01875 34.3625 231.87813 35.346874Q232.75313 36.33125 234.08125 36.33125Q235.39375 36.33125 236.25313 35.346874Q237.12813 34.346874 237.12813 32.3Q237.12813 30.378124 236.25313 29.39375Q235.37813 28.39375 234.08125 28.39375Q232.75313 28.39375 231.87813 29.39375Q231.01875 30.378124 231.01875 32.3625ZM243.75313 37.55L239.8 27.175L241.65938 27.175L243.89375 33.39375Q244.25313 34.39375 244.55 35.471874Q244.78438 34.659374 245.20625 33.503124L247.50313 27.175L249.31563 27.175L245.39375 37.55L243.75313 37.55ZM257.97186 34.20625L259.78436 34.440624Q259.3625 36.01875 258.1906 36.909374Q257.03436 37.784374 255.22188 37.784374Q252.95625 37.784374 251.6125 36.39375Q250.28438 34.9875 250.28438 32.45625Q250.28438 29.83125 251.62813 28.39375Q252.97188 26.940624 255.12813 26.940624Q257.20624 26.940624 258.51874 28.3625Q259.84686 29.76875 259.84686 32.346874Q259.84686 32.503124 259.83124 32.815624L252.09688 32.815624Q252.19063 34.51875 253.06563 35.425Q253.94063 36.33125 255.2375 36.33125Q256.20624 36.33125 256.8781 35.83125Q257.5656 35.315624 257.97186 34.20625ZM252.19063 31.3625L257.9875 31.3625Q257.8781 30.065624 257.33124 29.409374Q256.4875 28.39375 255.14375 28.39375Q253.94063 28.39375 253.1125 29.20625Q252.28438 30.003124 252.19063 31.3625ZM261.84686 37.55L261.84686 27.175L263.425 27.175L263.425 28.753124Q264.03436 27.64375 264.55 27.3Q265.0656 26.940624 265.675 26.940624Q266.5656 26.940624 267.4875 27.503124L266.8781 29.14375Q266.2375 28.753124 265.59686 28.753124Q265.01874 28.753124 264.55 29.1125Q264.09686 29.45625 263.89374 30.065624Q263.6125 31.003124 263.6125 32.1125L263.6125 37.55L261.84686 37.55ZM275.64374 36.26875Q274.65936 37.096874 273.7531 37.440624Q272.84686 37.784374 271.8156 37.784374Q270.1125 37.784374 269.1906 36.95625Q268.26874 36.1125 268.26874 34.815624Q268.26874 34.05 268.6125 33.425Q268.97186 32.8 269.53436 32.425Q270.09686 32.034374 270.8 31.83125Q271.3156 31.70625 272.3625 31.565624Q274.4875 31.315624 275.4875 30.971874Q275.5031 30.6125 275.5031 30.503124Q275.5031 29.440624 275.0031 28.9875Q274.33124 28.39375 273.0031 28.39375Q271.7531 28.39375 271.15936 28.83125Q270.58124 29.26875 270.3 30.378124L268.58124 30.14375Q268.8156 29.034374 269.34686 28.3625Q269.8781 27.675 270.89374 27.315624Q271.90936 26.940624 273.2531 26.940624Q274.58124 26.940624 275.40936 27.253124Q276.2375 27.565624 276.6281 28.05Q277.01874 28.51875 277.175 29.2375Q277.26874 29.690624 277.26874 30.8625L277.26874 33.20625Q277.26874 35.659374 277.3781 36.315624Q277.4875 36.95625 277.83124 37.55L275.9875 37.55Q275.72186 37.003124 275.64374 36.26875ZM275.4875 32.346874Q274.53436 32.7375 272.6125 33.003124Q271.53436 33.159374 271.08124 33.3625Q270.64374 33.55 270.39374 33.925Q270.14374 34.3 270.14374 34.76875Q270.14374 35.471874 270.675 35.940624Q271.20624 36.409374 272.2375 36.409374Q273.2531 36.409374 274.03436 35.971874Q274.83124 35.51875 275.20624 34.753124Q275.4875 34.14375 275.4875 32.9875L275.4875 32.346874ZM279.83124 37.55L279.83124 23.2375L281.58124 23.2375L281.58124 37.55L279.83124 37.55ZM283.83124 37.55L283.83124 23.2375L285.58124 23.2375L285.58124 37.55L283.83124 37.55ZM293.15936 34.45625L294.90936 34.175Q295.05 35.221874 295.72186 35.784374Q296.39374 36.33125 297.59686 36.33125Q298.8 36.33125 299.3781 35.846874Q299.97186 35.346874 299.97186 34.690624Q299.97186 34.096874 299.45624 33.753124Q299.09686 33.51875 297.65936 33.159374Q295.72186 32.659374 294.97186 32.315624Q294.2375 31.95625 293.84686 31.33125Q293.45624 30.690624 293.45624 29.925Q293.45624 29.2375 293.76874 28.64375Q294.09686 28.05 294.64374 27.659374Q295.05 27.3625 295.7531 27.159374Q296.47186 26.940624 297.28436 26.940624Q298.5031 26.940624 299.425 27.3Q300.34686 27.64375 300.78436 28.253124Q301.22186 28.846874 301.39374 29.846874L299.675 30.08125Q299.55 29.284374 298.9875 28.846874Q298.425 28.39375 297.40936 28.39375Q296.1906 28.39375 295.675 28.8Q295.15936 29.190624 295.15936 29.721874Q295.15936 30.065624 295.3781 30.346874Q295.58124 30.628124 296.05 30.815624Q296.3156 30.909374 297.59686 31.253124Q299.47186 31.753124 300.20624 32.08125Q300.9406 32.39375 301.3625 33.003124Q301.78436 33.596874 301.78436 34.503124Q301.78436 35.378124 301.26874 36.159374Q300.7531 36.940624 299.78436 37.3625Q298.8156 37.784374 297.59686 37.784374Q295.58124 37.784374 294.51874 36.940624Q293.45624 36.096874 293.15936 34.45625ZM303.8781 25.253124L303.8781 23.2375L305.64374 23.2375L305.64374 25.253124L303.8781 25.253124ZM303.8781 37.55L303.8781 27.175L305.64374 27.175L305.64374 37.55L303.8781 37.55ZM307.8625 37.55L307.8625 27.175L309.4406 27.175L309.4406 28.628124Q309.925 27.878124 310.7375 27.409374Q311.55 26.940624 312.58124 26.940624Q313.7375 26.940624 314.47186 27.425Q315.20624 27.89375 315.51874 28.753124Q316.7531 26.940624 318.72186 26.940624Q320.26874 26.940624 321.09686 27.8Q321.925 28.659374 321.925 30.425L321.925 37.55L320.175 37.55L320.175 31.01875Q320.175 29.95625 320.0031 29.503124Q319.83124 29.034374 319.3781 28.753124Q318.9406 28.471874 318.33124 28.471874Q317.2375 28.471874 316.5031 29.20625Q315.78436 29.925 315.78436 31.51875L315.78436 37.55L314.03436 37.55L314.03436 30.815624Q314.03436 29.64375 313.59686 29.065624Q313.175 28.471874 312.1906 28.471874Q311.45624 28.471874 310.8156 28.8625Q310.1906 29.253124 309.90936 30.003124Q309.6281 30.753124 309.6281 32.175L309.6281 37.55L307.8625 37.55ZM324.8625 41.51875L324.8625 27.175L326.47186 27.175L326.47186 28.51875Q327.03436 27.7375 327.7375 27.346874Q328.45624 26.940624 329.47186 26.940624Q330.8 26.940624 331.8156 27.628124Q332.83124 28.315624 333.34686 29.565624Q333.8781 30.8 333.8781 32.284374Q333.8781 33.878124 333.3 35.159374Q332.7375 36.425 331.64374 37.1125Q330.55 37.784374 329.34686 37.784374Q328.47186 37.784374 327.76874 37.409374Q327.08124 37.034374 326.6281 36.471874L326.6281 41.51875L324.8625 41.51875ZM326.45624 32.425Q326.45624 34.425 327.26874 35.378124Q328.08124 36.33125 329.2375 36.33125Q330.40936 36.33125 331.2375 35.346874Q332.08124 34.3625 332.08124 32.26875Q332.08124 30.3 331.2531 29.315624Q330.4406 28.315624 329.3156 28.315624Q328.1906 28.315624 327.3156 29.378124Q326.45624 30.425 326.45624 32.425ZM335.83124 37.55L335.83124 23.2375L337.58124 23.2375L337.58124 37.55L335.83124 37.55ZM346.97186 34.20625L348.78436 34.440624Q348.3625 36.01875 347.1906 36.909374Q346.03436 37.784374 344.22186 37.784374Q341.95624 37.784374 340.6125 36.39375Q339.28436 34.9875 339.28436 32.45625Q339.28436 29.83125 340.6281 28.39375Q341.97186 26.940624 344.1281 26.940624Q346.20624 26.940624 347.51874 28.3625Q348.84686 29.76875 348.84686 32.346874Q348.84686 32.503124 348.83124 32.815624L341.09686 32.815624Q341.1906 34.51875 342.0656 35.425Q342.9406 36.33125 344.2375 36.33125Q345.20624 36.33125 345.8781 35.83125Q346.5656 35.315624 346.97186 34.20625ZM341.1906 31.3625L346.9875 31.3625Q346.8781 30.065624 346.33124 29.409374Q345.4875 28.39375 344.14374 28.39375Q342.9406 28.39375 342.1125 29.20625Q341.28436 30.003124 341.1906 31.3625ZM360.70624 35.971874L360.95624 37.534374Q360.22186 37.690624 359.6281 37.690624Q358.675 37.690624 358.14374 37.39375Q357.6281 37.08125 357.40936 36.596874Q357.1906 36.096874 357.1906 34.51875L357.1906 28.55L355.90936 28.55L355.90936 27.175L357.1906 27.175L357.1906 24.6125L358.9406 23.55L358.9406 27.175L360.70624 27.175L360.70624 28.55L358.9406 28.55L358.9406 34.6125Q358.9406 35.3625 359.03436 35.58125Q359.1281 35.784374 359.33124 35.925Q359.55 36.05 359.9406 36.05Q360.22186 36.05 360.70624 35.971874ZM362.22186 32.3625Q362.22186 29.4875 363.8156 28.096874Q365.15936 26.940624 367.08124 26.940624Q369.22186 26.940624 370.5656 28.346874Q371.925 29.753124 371.925 32.221874Q371.925 34.221874 371.33124 35.378124Q370.7375 36.51875 369.58124 37.159374Q368.4406 37.784374 367.08124 37.784374Q364.89374 37.784374 363.55 36.39375Q362.22186 34.9875 362.22186 32.3625ZM364.01874 32.3625Q364.01874 34.3625 364.8781 35.346874Q365.7531 36.33125 367.08124 36.33125Q368.39374 36.33125 369.2531 35.346874Q370.1281 34.346874 370.1281 32.3Q370.1281 30.378124 369.2531 29.39375Q368.3781 28.39375 367.08124 28.39375Q365.7531 28.39375 364.8781 29.39375Q364.01874 30.378124 364.01874 32.3625ZM386.65936 37.55L386.65936 36.01875Q385.45624 37.784374 383.3781 37.784374Q382.45624 37.784374 381.65936 37.440624Q380.8625 37.08125 380.47186 36.55Q380.09686 36.01875 379.9406 35.2375Q379.83124 34.721874 379.83124 33.596874L379.83124 27.175L381.58124 27.175L381.58124 32.925Q381.58124 34.3 381.6906 34.784374Q381.8625 35.471874 382.39374 35.878124Q382.9406 36.26875 383.72186 36.26875Q384.51874 36.26875 385.20624 35.8625Q385.90936 35.45625 386.1906 34.76875Q386.4875 34.065624 386.4875 32.7375L386.4875 27.175L388.2375 27.175L388.2375 37.55L386.65936 37.55ZM390.15936 34.45625L391.90936 34.175Q392.05 35.221874 392.72186 35.784374Q393.39374 36.33125 394.59686 36.33125Q395.8 36.33125 396.3781 35.846874Q396.97186 35.346874 396.97186 34.690624Q396.97186 34.096874 396.45624 33.753124Q396.09686 33.51875 394.65936 33.159374Q392.72186 32.659374 391.97186 32.315624Q391.2375 31.95625 390.84686 31.33125Q390.45624 30.690624 390.45624 29.925Q390.45624 29.2375 390.76874 28.64375Q391.09686 28.05 391.64374 27.659374Q392.05 27.3625 392.7531 27.159374Q393.47186 26.940624 394.28436 26.940624Q395.5031 26.940624 396.425 27.3Q397.34686 27.64375 397.78436 28.253124Q398.22186 28.846874 398.39374 29.846874L396.675 30.08125Q396.55 29.284374 395.9875 28.846874Q395.425 28.39375 394.40936 28.39375Q393.1906 28.39375 392.675 28.8Q392.15936 29.190624 392.15936 29.721874Q392.15936 30.065624 392.3781 30.346874Q392.58124 30.628124 393.05 30.815624Q393.3156 30.909374 394.59686 31.253124Q396.47186 31.753124 397.20624 32.08125Q397.9406 32.39375 398.3625 33.003124Q398.78436 33.596874 398.78436 34.503124Q398.78436 35.378124 398.26874 36.159374Q397.7531 36.940624 396.78436 37.3625Q395.8156 37.784374 394.59686 37.784374Q392.58124 37.784374 391.51874 36.940624Q390.45624 36.096874 390.15936 34.45625ZM407.97186 34.20625L409.78436 34.440624Q409.3625 36.01875 408.1906 36.909374Q407.03436 37.784374 405.22186 37.784374Q402.95624 37.784374 401.6125 36.39375Q400.28436 34.9875 400.28436 32.45625Q400.28436 29.83125 401.6281 28.39375Q402.97186 26.940624 405.1281 26.940624Q407.20624 26.940624 408.51874 28.3625Q409.84686 29.76875 409.84686 32.346874Q409.84686 32.503124 409.83124 32.815624L402.09686 32.815624Q402.1906 34.51875 403.0656 35.425Q403.9406 36.33125 405.2375 36.33125Q406.20624 36.33125 406.8781 35.83125Q407.5656 35.315624 407.97186 34.20625ZM402.1906 31.3625L407.9875 31.3625Q407.8781 30.065624 407.33124 29.409374Q406.4875 28.39375 405.14374 28.39375Q403.9406 28.39375 403.1125 29.20625Q402.28436 30.003124 402.1906 31.3625ZM415.15936 34.01875Q415.14374 33.675 415.14374 33.503124Q415.14374 32.45625 415.4406 31.70625Q415.65936 31.14375 416.14374 30.565624Q416.4875 30.14375 417.39374 29.346874Q418.3156 28.534374 418.58124 28.065624Q418.8625 27.58125 418.8625 27.01875Q418.8625 25.9875 418.05 25.221874Q417.2531 24.440624 416.09686 24.440624Q414.97186 24.440624 414.22186 25.14375Q413.47186 25.846874 413.2375 27.33125L411.425 27.1125Q411.675 25.1125 412.8781 24.05Q414.08124 22.9875 416.0656 22.9875Q418.175 22.9875 419.425 24.128124Q420.675 25.26875 420.675 26.89375Q420.675 27.83125 420.22186 28.628124Q419.78436 29.409374 418.5031 30.55Q417.64374 31.315624 417.3781 31.675Q417.1281 32.034374 416.9875 32.503124Q416.8625 32.971874 416.84686 34.01875L415.15936 34.01875ZM415.05 37.55L415.05 35.55L417.05 35.55L417.05 37.55L415.05 37.55Z" fill-rule="nonzero"/></svg>