<svg version="1.1" viewBox="0.0 0.0 600.0 371.0" fill="none" stroke="none" stroke-linecap="square" stroke-miterlimit="10" width="600" height="371" xmlns:xlink="http://www.w3.org/1999/xlink" xmlns="http://www.w3.org/2000/svg"><path fill="#ffffff" d="M0 0L600.0 0L600.0 371.0L0 371.0L0 0Z" fill-rule="nonzero"/><path fill="#34a853" d="M287.38077 110.097565C291.57596 109.82545 295.78683 109.68916 300.0 109.68916L300.0 205.42583Z" fill-rule="nonzero"/><path fill="#fbbc04" d="M250.59418 116.15405C262.39694 112.95336 274.77728 110.915085 287.38077 110.097565L300.0 205.42583Z" fill-rule="nonzero"/><path fill="#a42f25" d="M250.59418 315.21262C197.93842 300.93335 163.23334 265.46912 163.23334 225.94083L163.23334 205.42583C163.23334 244.95413 197.93842 280.41833 250.59418 294.6976Z" fill-rule="nonzero"/><path fill="#ea4335" d="M250.59418 294.6976C197.93842 280.41833 163.23334 244.95413 163.23334 205.42583C163.23334 165.89754 197.93842 130.43332 250.59418 116.15405L300.0 205.42583Z" fill-rule="nonzero"/><path fill="#2e5dab" d="M436.76666 225.94083C436.76666 257.52377 414.51447 287.07468 377.2918 304.92334C340.06918 322.772 292.66592 326.6217 250.59418 315.21262L250.59418 294.6976C292.66592 306.1067 340.06918 302.25702 377.2918 284.40836C414.51447 266.55966 436.76666 237.00879 436.76666 205.42583Z" fill-rule="nonzero"/><path fill="#4285f4" d="M300.0 109.68916C354.93384 109.68916 404.53674 132.69682 425.9492 168.10904C447.3616 203.52124 436.42773 244.46501 398.18643 272.07138C359.9451 299.67773 301.81845 308.58868 250.59418 294.6976L300.0 205.42583Z" fill-rule="nonzero"/><path fill="#1a1a1a" d="M19.096874 92.9668L20.159374 92.87305Q20.2375 93.5293 20.51875 93.93555Q20.8 94.3418 21.378124 94.60742Q21.971874 94.85742 22.70625 94.85742Q23.346874 94.85742 23.846874 94.66992Q24.346874 94.4668 24.58125 94.13867Q24.83125 93.79492 24.83125 93.4043Q24.83125 92.99805 24.596874 92.70117Q24.3625 92.38867 23.83125 92.18555Q23.471874 92.04492 22.284374 91.76367Q21.1125 91.48242 20.64375 91.23242Q20.01875 90.9043 19.721874 90.43555Q19.425 89.95117 19.425 89.35742Q19.425 88.7168 19.784374 88.1543Q20.159374 87.57617 20.8625 87.29492Q21.58125 86.99805 22.440624 86.99805Q23.39375 86.99805 24.128124 87.31055Q24.8625 87.60742 25.253124 88.2168Q25.64375 88.81055 25.675 89.56055L24.58125 89.63867Q24.4875 88.82617 23.971874 88.41992Q23.471874 87.99805 22.4875 87.99805Q21.45625 87.99805 20.9875 88.37305Q20.51875 88.74805 20.51875 89.2793Q20.51875 89.74805 20.846874 90.04492Q21.175 90.3418 22.55 90.6543Q23.940624 90.9668 24.45625 91.20117Q25.20625 91.56055 25.565624 92.0918Q25.925 92.60742 25.925 93.31055Q25.925 93.99805 25.534374 94.60742Q25.14375 95.20117 24.409374 95.54492Q23.675 95.87305 22.753124 95.87305Q21.58125 95.87305 20.784374 95.54492Q20.003124 95.20117 19.55 94.51367Q19.1125 93.82617 19.096874 92.9668ZM29.64375 94.79492L29.8 95.7168Q29.346874 95.81055 29.003124 95.81055Q28.425 95.81055 28.1125 95.63867Q27.8 95.45117 27.659374 95.1543Q27.534374 94.85742 27.534374 93.9043L27.534374 90.32617L26.76875 90.32617L26.76875 89.51367L27.534374 89.51367L27.534374 87.9668L28.58125 87.3418L28.58125 89.51367L29.64375 89.51367L29.64375 90.32617L28.58125 90.32617L28.58125 93.9668Q28.58125 94.41992 28.628124 94.54492Q28.690624 94.66992 28.815624 94.74805Q28.940624 94.82617 29.175 94.82617Q29.3625 94.82617 29.64375 94.79492ZM30.33125 95.73242L30.33125 89.51367L31.284374 89.51367L31.284374 90.45117Q31.64375 89.79492 31.940624 89.5918Q32.253124 89.37305 32.628124 89.37305Q33.159374 89.37305 33.70625 89.70117L33.346874 90.68555Q32.95625 90.45117 32.58125 90.45117Q32.221874 90.45117 31.940624 90.66992Q31.675 90.87305 31.565624 91.24805Q31.378124 91.81055 31.378124 92.4668L31.378124 95.73242L30.33125 95.73242ZM33.95625 92.62305Q33.95625 90.88867 34.909374 90.06055Q35.70625 89.37305 36.8625 89.37305Q38.14375 89.37305 38.95625 90.2168Q39.784374 91.04492 39.784374 92.5293Q39.784374 93.73242 39.425 94.41992Q39.065624 95.10742 38.3625 95.49805Q37.675 95.87305 36.8625 95.87305Q35.565624 95.87305 34.753124 95.04492Q33.95625 94.20117 33.95625 92.62305ZM35.034374 92.62305Q35.034374 93.81055 35.55 94.4043Q36.08125 94.99805 36.8625 94.99805Q37.659374 94.99805 38.175 94.4043Q38.690624 93.81055 38.690624 92.5918Q38.690624 91.43555 38.159374 90.8418Q37.64375 90.24805 36.8625 90.24805Q36.08125 90.24805 35.55 90.8418Q35.034374 91.41992 35.034374 92.62305ZM41.346874 95.73242L41.346874 89.51367L42.284374 89.51367L42.284374 90.38867Q42.971874 89.37305 44.26875 89.37305Q44.83125 89.37305 45.3 89.57617Q45.784374 89.7793 46.01875 90.10742Q46.253124 90.43555 46.346874 90.87305Q46.39375 91.16992 46.39375 91.9043L46.39375 95.73242L45.346874 95.73242L45.346874 91.95117Q45.346874 91.29492 45.221874 90.98242Q45.096874 90.66992 44.784374 90.48242Q44.471874 90.2793 44.05 90.2793Q43.378124 90.2793 42.878124 90.7168Q42.39375 91.13867 42.39375 92.32617L42.39375 95.73242L41.346874 95.73242ZM48.14375 96.24805L49.175 96.4043Q49.2375 96.87305 49.534374 97.0918Q49.925 97.38867 50.596874 97.38867Q51.33125 97.38867 51.721874 97.0918Q52.128124 96.79492 52.26875 96.2793Q52.3625 95.95117 52.346874 94.91992Q51.659374 95.73242 50.628124 95.73242Q49.346874 95.73242 48.64375 94.81055Q47.940624 93.87305 47.940624 92.5918Q47.940624 91.70117 48.253124 90.95117Q48.58125 90.18555 49.190624 89.7793Q49.8 89.37305 50.628124 89.37305Q51.7375 89.37305 52.45625 90.26367L52.45625 89.51367L53.425 89.51367L53.425 94.88867Q53.425 96.3418 53.128124 96.95117Q52.83125 97.56055 52.190624 97.9043Q51.55 98.26367 50.6125 98.26367Q49.503124 98.26367 48.815624 97.76367Q48.128124 97.26367 48.14375 96.24805ZM49.01875 92.51367Q49.01875 93.73242 49.503124 94.29492Q49.9875 94.85742 50.721874 94.85742Q51.45625 94.85742 51.940624 94.29492Q52.440624 93.73242 52.440624 92.54492Q52.440624 91.4043 51.925 90.82617Q51.425 90.24805 50.70625 90.24805Q50.003124 90.24805 49.503124 90.82617Q49.01875 91.38867 49.01875 92.51367ZM55.315624 95.73242L55.315624 87.13867L56.378124 87.13867L56.378124 95.73242L55.315624 95.73242ZM58.3 98.12305L58.175 97.13867Q58.51875 97.23242 58.784374 97.23242Q59.128124 97.23242 59.33125 97.10742Q59.55 96.99805 59.690624 96.79492Q59.784374 96.62305 60.01875 95.99805Q60.034374 95.91992 60.1125 95.74805L57.7375 89.51367L58.878124 89.51367L60.175 93.10742Q60.425 93.79492 60.628124 94.56055Q60.815624 93.82617 61.065624 93.13867L62.39375 89.51367L63.440624 89.51367L61.08125 95.8418Q60.690624 96.85742 60.4875 97.24805Q60.20625 97.7793 59.83125 98.01367Q59.471874 98.26367 58.971874 98.26367Q58.675 98.26367 58.3 98.12305ZM71.37813 95.73242L71.37813 94.95117Q70.78438 95.87305 69.64375 95.87305Q68.89375 95.87305 68.26875 95.4668Q67.64375 95.04492 67.3 94.31055Q66.95625 93.57617 66.95625 92.62305Q66.95625 91.70117 67.26875 90.93555Q67.58125 90.16992 68.20625 89.7793Q68.83125 89.37305 69.59688 89.37305Q70.15938 89.37305 70.59688 89.60742Q71.03438 89.8418 71.31563 90.2168L71.31563 87.13867L72.3625 87.13867L72.3625 95.73242L71.37813 95.73242ZM68.05 92.62305Q68.05 93.82617 68.55 94.41992Q69.05 94.99805 69.7375 94.99805Q70.425 94.99805 70.90938 94.43555Q71.39375 93.87305 71.39375 92.7168Q71.39375 91.43555 70.89375 90.8418Q70.40938 90.24805 69.69063 90.24805Q68.9875 90.24805 68.51875 90.82617Q68.05 91.38867 68.05 92.62305ZM74.34688 88.35742L74.34688 87.13867L75.40938 87.13867L75.40938 88.35742L74.34688 88.35742ZM74.34688 95.73242L74.34688 89.51367L75.40938 89.51367L75.40938 95.73242L74.34688 95.73242ZM76.925 93.87305L77.95625 93.7168Q78.05 94.3418 78.44063 94.66992Q78.84688 94.99805 79.58125 94.99805Q80.3 94.99805 80.64375 94.7168Q81.00313 94.41992 81.00313 94.01367Q81.00313 93.6543 80.69063 93.45117Q80.47188 93.31055 79.6125 93.0918Q78.45625 92.79492 78.00313 92.5918Q77.56563 92.37305 77.33125 91.99805Q77.09688 91.62305 77.09688 91.1543Q77.09688 90.74805 77.28438 90.38867Q77.47188 90.0293 77.8 89.79492Q78.05 89.62305 78.47188 89.49805Q78.89375 89.37305 79.39375 89.37305Q80.1125 89.37305 80.65938 89.5918Q81.22188 89.79492 81.4875 90.1543Q81.75313 90.51367 81.84688 91.10742L80.81563 91.24805Q80.75313 90.7793 80.40938 90.51367Q80.08125 90.23242 79.45625 90.23242Q78.7375 90.23242 78.425 90.48242Q78.1125 90.7168 78.1125 91.04492Q78.1125 91.24805 78.2375 91.4043Q78.37813 91.57617 78.64375 91.68555Q78.8 91.74805 79.58125 91.95117Q80.70625 92.26367 81.14375 92.45117Q81.58125 92.63867 81.83125 92.99805Q82.08125 93.35742 82.08125 93.9043Q82.08125 94.43555 81.76875 94.9043Q81.47188 95.35742 80.89375 95.62305Q80.31563 95.87305 79.58125 95.87305Q78.3625 95.87305 77.72188 95.37305Q77.09688 94.85742 76.925 93.87305ZM87.40938 94.9668Q86.81563 95.4668 86.26875 95.66992Q85.7375 95.87305 85.1125 95.87305Q84.08125 95.87305 83.53438 95.37305Q82.9875 94.87305 82.9875 94.0918Q82.9875 93.63867 83.19063 93.26367Q83.39375 92.87305 83.7375 92.6543Q84.08125 92.41992 84.50313 92.31055Q84.8 92.2168 85.44063 92.13867Q86.70625 91.99805 87.31563 91.7793Q87.31563 91.56055 87.31563 91.51367Q87.31563 90.85742 87.01875 90.5918Q86.6125 90.24805 85.81563 90.24805Q85.08125 90.24805 84.72188 90.51367Q84.3625 90.76367 84.19063 91.41992L83.15938 91.2793Q83.3 90.62305 83.62813 90.2168Q83.95625 89.81055 84.56563 89.5918Q85.175 89.37305 85.97188 89.37305Q86.76875 89.37305 87.26875 89.56055Q87.76875 89.74805 88.00313 90.0293Q88.2375 90.31055 88.33125 90.74805Q88.37813 91.01367 88.37813 91.7168L88.37813 93.12305Q88.37813 94.5918 88.44063 94.98242Q88.51875 95.37305 88.72188 95.73242L87.6125 95.73242Q87.45625 95.4043 87.40938 94.9668ZM87.31563 92.60742Q86.7375 92.8418 85.59688 93.01367Q84.94063 93.10742 84.675 93.23242Q84.40938 93.3418 84.25313 93.56055Q84.1125 93.7793 84.1125 94.06055Q84.1125 94.48242 84.425 94.76367Q84.75313 95.04492 85.3625 95.04492Q85.97188 95.04492 86.44063 94.7793Q86.925 94.51367 87.14375 94.04492Q87.31563 93.68555 87.31563 92.99805L87.31563 92.60742ZM90.14375 96.24805L91.175 96.4043Q91.2375 96.87305 91.53438 97.0918Q91.925 97.38867 92.59688 97.38867Q93.33125 97.38867 93.72188 97.0918Q94.12813 96.79492 94.26875 96.2793Q94.3625 95.95117 94.34688 94.91992Q93.65938 95.73242 92.62813 95.73242Q91.34688 95.73242 90.64375 94.81055Q89.94063 93.87305 89.94063 92.5918Q89.94063 91.70117 90.25313 90.95117Q90.58125 90.18555 91.19063 89.7793Q91.8 89.37305 92.62813 89.37305Q93.7375 89.37305 94.45625 90.26367L94.45625 89.51367L95.425 89.51367L95.425 94.88867Q95.425 96.3418 95.12813 96.95117Q94.83125 97.56055 94.19063 97.9043Q93.55 98.26367 92.6125 98.26367Q91.50313 98.26367 90.81563 97.76367Q90.12813 97.26367 90.14375 96.24805ZM91.01875 92.51367Q91.01875 93.73242 91.50313 94.29492Q91.9875 94.85742 92.72188 94.85742Q93.45625 94.85742 93.94063 94.29492Q94.44063 93.73242 94.44063 92.54492Q94.44063 91.4043 93.925 90.82617Q93.425 90.24805 92.70625 90.24805Q92.00313 90.24805 91.50313 90.82617Q91.01875 91.38867 91.01875 92.51367ZM97.33125 95.73242L97.33125 89.51367L98.28438 89.51367L98.28438 90.45117Q98.64375 89.79492 98.94063 89.5918Q99.25313 89.37305 99.62813 89.37305Q100.15938 89.37305 100.70625 89.70117L100.34688 90.68555Q99.95625 90.45117 99.58125 90.45117Q99.22188 90.45117 98.94063 90.66992Q98.675 90.87305 98.56563 91.24805Q98.37813 91.81055 98.37813 92.4668L98.37813 95.73242L97.33125 95.73242ZM105.59688 93.73242L106.69063 93.85742Q106.44063 94.81055 105.7375 95.3418Q105.03438 95.87305 103.95625 95.87305Q102.59688 95.87305 101.78438 95.0293Q100.9875 94.18555 100.9875 92.66992Q100.9875 91.10742 101.8 90.24805Q102.6125 89.37305 103.89375 89.37305Q105.14375 89.37305 105.925 90.2168Q106.72188 91.06055 106.72188 92.60742Q106.72188 92.70117 106.72188 92.88867L102.08125 92.88867Q102.14375 93.91992 102.65938 94.4668Q103.175 94.99805 103.95625 94.99805Q104.53438 94.99805 104.94063 94.70117Q105.3625 94.38867 105.59688 93.73242ZM102.14375 92.0293L105.6125 92.0293Q105.55 91.23242 105.22188 90.8418Q104.70625 90.23242 103.90938 90.23242Q103.175 90.23242 102.675 90.7168Q102.19063 91.20117 102.14375 92.0293ZM112.59688 93.73242L113.69063 93.85742Q113.44063 94.81055 112.7375 95.3418Q112.03438 95.87305 110.95625 95.87305Q109.59688 95.87305 108.78438 95.0293Q107.9875 94.18555 107.9875 92.66992Q107.9875 91.10742 108.8 90.24805Q109.6125 89.37305 110.89375 89.37305Q112.14375 89.37305 112.925 90.2168Q113.72188 91.06055 113.72188 92.60742Q113.72188 92.70117 113.72188 92.88867L109.08125 92.88867Q109.14375 93.91992 109.65938 94.4668Q110.175 94.99805 110.95625 94.99805Q111.53438 94.99805 111.94063 94.70117Q112.3625 94.38867 112.59688 93.73242ZM109.14375 92.0293L112.6125 92.0293Q112.55 91.23242 112.22188 90.8418Q111.70625 90.23242 110.90938 90.23242Q110.175 90.23242 109.675 90.7168Q109.19063 91.20117 109.14375 92.0293Z" fill-rule="nonzero"/><path fill="#9e9e9e" d="M23.01875 112.73242L21.971874 112.73242L21.971874 106.01367Q21.58125 106.37305 20.95625 106.74805Q20.346874 107.10742 19.8625 107.2793L19.8625 106.26367Q20.7375 105.8418 21.39375 105.26367Q22.065624 104.66992 22.346874 104.10742L23.01875 104.10742L23.01875 112.73242ZM26.6125 112.73242L26.6125 111.5293L27.815624 111.5293L27.815624 112.73242Q27.815624 113.38867 27.58125 113.79492Q27.346874 114.2168 26.846874 114.43555L26.55 113.98242Q26.878124 113.8418 27.034374 113.54492Q27.190624 113.26367 27.221874 112.73242L26.6125 112.73242ZM29.05 110.48242L30.159374 110.38867Q30.284374 111.20117 30.721874 111.60742Q31.175 112.01367 31.815624 112.01367Q32.565624 112.01367 33.096874 111.43555Q33.628124 110.85742 33.628124 109.91992Q33.628124 109.01367 33.1125 108.49805Q32.6125 107.9668 31.784374 107.9668Q31.284374 107.9668 30.8625 108.20117Q30.45625 108.43555 30.221874 108.79492L29.2375 108.66992L30.065624 104.26367L34.346874 104.26367L34.346874 105.26367L30.909374 105.26367L30.45625 107.57617Q31.221874 107.0293 32.065624 107.0293Q33.190624 107.0293 33.95625 107.81055Q34.7375 108.5918 34.7375 109.82617Q34.7375 110.98242 34.065624 111.8418Q33.2375 112.87305 31.815624 112.87305Q30.64375 112.87305 29.89375 112.2168Q29.159374 111.56055 29.05 110.48242ZM36.253124 106.20117Q36.253124 105.2793 36.70625 104.63867Q37.175 103.99805 38.05 103.99805Q38.8625 103.99805 39.39375 104.57617Q39.925 105.1543 39.925 106.26367Q39.925 107.35742 39.378124 107.95117Q38.846874 108.5293 38.065624 108.5293Q37.284374 108.5293 36.76875 107.95117Q36.253124 107.37305 36.253124 106.20117ZM38.08125 104.7168Q37.690624 104.7168 37.425 105.06055Q37.175 105.4043 37.175 106.31055Q37.175 107.13867 37.425 107.48242Q37.690624 107.81055 38.08125 107.81055Q38.4875 107.81055 38.7375 107.4668Q39.003124 107.12305 39.003124 106.23242Q39.003124 105.38867 38.7375 105.06055Q38.471874 104.7168 38.08125 104.7168ZM38.08125 113.04492L42.784374 103.99805L43.64375 103.99805L38.95625 113.04492L38.08125 113.04492ZM41.8 110.7168Q41.8 109.79492 42.253124 109.1543Q42.721874 108.51367 43.6125 108.51367Q44.425 108.51367 44.95625 109.0918Q45.4875 109.6543 45.4875 110.7793Q45.4875 111.87305 44.940624 112.4668Q44.409374 113.04492 43.6125 113.04492Q42.846874 113.04492 42.315624 112.4668Q41.8 111.88867 41.8 110.7168ZM43.64375 109.23242Q43.2375 109.23242 42.971874 109.57617Q42.721874 109.91992 42.721874 110.82617Q42.721874 111.63867 42.9875 111.98242Q43.253124 112.32617 43.64375 112.32617Q44.034374 112.32617 44.3 111.98242Q44.565624 111.63867 44.565624 110.73242Q44.565624 109.9043 44.3 109.57617Q44.034374 109.23242 43.64375 109.23242Z" fill-rule="nonzero"/><path stroke="#757575" stroke-width="1.0" stroke-linecap="butt" d="M18.55 100.23242L157.23334 100.23242L293.99945 114.573044" fill-rule="nonzero"/><path fill="#9e9e9e" d="M295.99945 114.573044C295.99945 113.468475 295.10403 112.573044 293.99945 112.573044C292.8949 112.573044 291.99945 113.468475 291.99945 114.573044C291.99945 115.67761 292.8949 116.573044 293.99945 116.573044C295.10403 116.573044 295.99945 115.67761 295.99945 114.573044" fill-rule="nonzero"/><path fill="#1a1a1a" d="M19.471874 126.73242L19.471874 118.13867L22.440624 118.13867Q23.440624 118.13867 23.971874 118.26367Q24.70625 118.43555 25.221874 118.87305Q25.909374 119.45117 26.2375 120.35742Q26.58125 121.24805 26.58125 122.38867Q26.58125 123.37305 26.346874 124.12305Q26.128124 124.87305 25.76875 125.37305Q25.409374 125.87305 24.971874 126.1543Q24.55 126.43555 23.95625 126.5918Q23.3625 126.73242 22.58125 126.73242L19.471874 126.73242ZM20.6125 125.7168L22.440624 125.7168Q23.3 125.7168 23.784374 125.56055Q24.26875 125.4043 24.55 125.10742Q24.95625 124.7168 25.175 124.0293Q25.409374 123.3418 25.409374 122.37305Q25.409374 121.0293 24.95625 120.31055Q24.51875 119.57617 23.89375 119.32617Q23.425 119.1543 22.425 119.1543L20.6125 119.1543L20.6125 125.7168ZM28.346874 119.35742L28.346874 118.13867L29.409374 118.13867L29.409374 119.35742L28.346874 119.35742ZM28.346874 126.73242L28.346874 120.51367L29.409374 120.51367L29.409374 126.73242L28.346874 126.73242ZM30.925 124.87305L31.95625 124.7168Q32.05 125.3418 32.440624 125.66992Q32.846874 125.99805 33.58125 125.99805Q34.3 125.99805 34.64375 125.7168Q35.003124 125.41992 35.003124 125.01367Q35.003124 124.6543 34.690624 124.45117Q34.471874 124.31055 33.6125 124.0918Q32.45625 123.79492 32.003124 123.5918Q31.565624 123.37305 31.33125 122.99805Q31.096874 122.62305 31.096874 122.1543Q31.096874 121.74805 31.284374 121.38867Q31.471874 121.0293 31.8 120.79492Q32.05 120.62305 32.471874 120.49805Q32.89375 120.37305 33.39375 120.37305Q34.1125 120.37305 34.659374 120.5918Q35.221874 120.79492 35.4875 121.1543Q35.753124 121.51367 35.846874 122.10742L34.815624 122.24805Q34.753124 121.7793 34.409374 121.51367Q34.08125 121.23242 33.45625 121.23242Q32.7375 121.23242 32.425 121.48242Q32.1125 121.7168 32.1125 122.04492Q32.1125 122.24805 32.2375 122.4043Q32.378124 122.57617 32.64375 122.68555Q32.8 122.74805 33.58125 122.95117Q34.70625 123.26367 35.14375 123.45117Q35.58125 123.63867 35.83125 123.99805Q36.08125 124.35742 36.08125 124.9043Q36.08125 125.43555 35.76875 125.9043Q35.471874 126.35742 34.89375 126.62305Q34.315624 126.87305 33.58125 126.87305Q32.3625 126.87305 31.721874 126.37305Q31.096874 125.85742 30.925 124.87305ZM41.409374 125.9668Q40.815624 126.4668 40.26875 126.66992Q39.7375 126.87305 39.1125 126.87305Q38.08125 126.87305 37.534374 126.37305Q36.9875 125.87305 36.9875 125.0918Q36.9875 124.63867 37.190624 124.26367Q37.39375 123.87305 37.7375 123.6543Q38.08125 123.41992 38.503124 123.31055Q38.8 123.2168 39.440624 123.13867Q40.70625 122.99805 41.315624 122.7793Q41.315624 122.56055 41.315624 122.51367Q41.315624 121.85742 41.01875 121.5918Q40.6125 121.24805 39.815624 121.24805Q39.08125 121.24805 38.721874 121.51367Q38.3625 121.76367 38.190624 122.41992L37.159374 122.2793Q37.3 121.62305 37.628124 121.2168Q37.95625 120.81055 38.565624 120.5918Q39.175 120.37305 39.971874 120.37305Q40.76875 120.37305 41.26875 120.56055Q41.76875 120.74805 42.003124 121.0293Q42.2375 121.31055 42.33125 121.74805Q42.378124 122.01367 42.378124 122.7168L42.378124 124.12305Q42.378124 125.5918 42.440624 125.98242Q42.51875 126.37305 42.721874 126.73242L41.6125 126.73242Q41.45625 126.4043 41.409374 125.9668ZM41.315624 123.60742Q40.7375 123.8418 39.596874 124.01367Q38.940624 124.10742 38.675 124.23242Q38.409374 124.3418 38.253124 124.56055Q38.1125 124.7793 38.1125 125.06055Q38.1125 125.48242 38.425 125.76367Q38.753124 126.04492 39.3625 126.04492Q39.971874 126.04492 40.440624 125.7793Q40.925 125.51367 41.14375 125.04492Q41.315624 124.68555 41.315624 123.99805L41.315624 123.60742ZM44.14375 127.24805L45.175 127.4043Q45.2375 127.87305 45.534374 128.0918Q45.925 128.38867 46.596874 128.38867Q47.33125 128.38867 47.721874 128.0918Q48.128124 127.79492 48.26875 127.2793Q48.3625 126.95117 48.346874 125.91992Q47.659374 126.73242 46.628124 126.73242Q45.346874 126.73242 44.64375 125.81055Q43.940624 124.87305 43.940624 123.5918Q43.940624 122.70117 44.253124 121.95117Q44.58125 121.18555 45.190624 120.7793Q45.8 120.37305 46.628124 120.37305Q47.7375 120.37305 48.45625 121.26367L48.45625 120.51367L49.425 120.51367L49.425 125.88867Q49.425 127.3418 49.128124 127.95117Q48.83125 128.56055 48.190624 128.9043Q47.55 129.26367 46.6125 129.26367Q45.503124 129.26367 44.815624 128.76367Q44.128124 128.26367 44.14375 127.24805ZM45.01875 123.51367Q45.01875 124.73242 45.503124 125.29492Q45.9875 125.85742 46.721874 125.85742Q47.45625 125.85742 47.940624 125.29492Q48.440624 124.73242 48.440624 123.54492Q48.440624 122.4043 47.925 121.82617Q47.425 121.24805 46.70625 121.24805Q46.003124 121.24805 45.503124 121.82617Q45.01875 122.38867 45.01875 123.51367ZM51.33125 126.73242L51.33125 120.51367L52.284374 120.51367L52.284374 121.45117Q52.64375 120.79492 52.940624 120.5918Q53.253124 120.37305 53.628124 120.37305Q54.159374 120.37305 54.70625 120.70117L54.346874 121.68555Q53.95625 121.45117 53.58125 121.45117Q53.221874 121.45117 52.940624 121.66992Q52.675 121.87305 52.565624 122.24805Q52.378124 122.81055 52.378124 123.4668L52.378124 126.73242L51.33125 126.73242ZM59.596874 124.73242L60.690624 124.85742Q60.440624 125.81055 59.7375 126.3418Q59.034374 126.87305 57.95625 126.87305Q56.596874 126.87305 55.784374 126.0293Q54.9875 125.18555 54.9875 123.66992Q54.9875 122.10742 55.8 121.24805Q56.6125 120.37305 57.89375 120.37305Q59.14375 120.37305 59.925 121.2168Q60.721874 122.06055 60.721874 123.60742Q60.721874 123.70117 60.721874 123.88867L56.08125 123.88867Q56.14375 124.91992 56.659374 125.4668Q57.175 125.99805 57.95625 125.99805Q58.534374 125.99805 58.940624 125.70117Q59.3625 125.38867 59.596874 124.73242ZM56.14375 123.0293L59.6125 123.0293Q59.55 122.23242 59.221874 121.8418Q58.70625 121.23242 57.909374 121.23242Q57.175 121.23242 56.675 121.7168Q56.190624 122.20117 56.14375 123.0293ZM66.59688 124.73242L67.69063 124.85742Q67.44063 125.81055 66.7375 126.3418Q66.03438 126.87305 64.95625 126.87305Q63.596874 126.87305 62.784374 126.0293Q61.9875 125.18555 61.9875 123.66992Q61.9875 122.10742 62.8 121.24805Q63.6125 120.37305 64.89375 120.37305Q66.14375 120.37305 66.925 121.2168Q67.72188 122.06055 67.72188 123.60742Q67.72188 123.70117 67.72188 123.88867L63.08125 123.88867Q63.14375 124.91992 63.659374 125.4668Q64.175 125.99805 64.95625 125.99805Q65.53438 125.99805 65.94063 125.70117Q66.3625 125.38867 66.59688 124.73242ZM63.14375 123.0293L66.6125 123.0293Q66.55 122.23242 66.22188 121.8418Q65.70625 121.23242 64.90938 121.23242Q64.175 121.23242 63.675 121.7168Q63.190624 122.20117 63.14375 123.0293Z" fill-rule="nonzero"/><path fill="#9e9e9e" d="M22.425 143.73242L22.425 141.66992L18.70625 141.66992L18.70625 140.70117L22.628124 135.13867L23.4875 135.13867L23.4875 140.70117L24.64375 140.70117L24.64375 141.66992L23.4875 141.66992L23.4875 143.73242L22.425 143.73242ZM22.425 140.70117L22.425 136.8418L19.7375 140.70117L22.425 140.70117ZM26.6125 143.73242L26.6125 142.5293L27.815624 142.5293L27.815624 143.73242Q27.815624 144.38867 27.58125 144.79492Q27.346874 145.2168 26.846874 145.43555L26.55 144.98242Q26.878124 144.8418 27.034374 144.54492Q27.190624 144.26367 27.221874 143.73242L26.6125 143.73242ZM32.425 143.73242L32.425 141.66992L28.70625 141.66992L28.70625 140.70117L32.628124 135.13867L33.4875 135.13867L33.4875 140.70117L34.64375 140.70117L34.64375 141.66992L33.4875 141.66992L33.4875 143.73242L32.425 143.73242ZM32.425 140.70117L32.425 136.8418L29.7375 140.70117L32.425 140.70117ZM36.253124 137.20117Q36.253124 136.2793 36.70625 135.63867Q37.175 134.99805 38.05 134.99805Q38.8625 134.99805 39.39375 135.57617Q39.925 136.1543 39.925 137.26367Q39.925 138.35742 39.378124 138.95117Q38.846874 139.5293 38.065624 139.5293Q37.284374 139.5293 36.76875 138.95117Q36.253124 138.37305 36.253124 137.20117ZM38.08125 135.7168Q37.690624 135.7168 37.425 136.06055Q37.175 136.4043 37.175 137.31055Q37.175 138.13867 37.425 138.48242Q37.690624 138.81055 38.08125 138.81055Q38.4875 138.81055 38.7375 138.4668Q39.003124 138.12305 39.003124 137.23242Q39.003124 136.38867 38.7375 136.06055Q38.471874 135.7168 38.08125 135.7168ZM38.08125 144.04492L42.784374 134.99805L43.64375 134.99805L38.95625 144.04492L38.08125 144.04492ZM41.8 141.7168Q41.8 140.79492 42.253124 140.1543Q42.721874 139.51367 43.6125 139.51367Q44.425 139.51367 44.95625 140.0918Q45.4875 140.6543 45.4875 141.7793Q45.4875 142.87305 44.940624 143.4668Q44.409374 144.04492 43.6125 144.04492Q42.846874 144.04492 42.315624 143.4668Q41.8 142.88867 41.8 141.7168ZM43.64375 140.23242Q43.2375 140.23242 42.971874 140.57617Q42.721874 140.91992 42.721874 141.82617Q42.721874 142.63867 42.9875 142.98242Q43.253124 143.32617 43.64375 143.32617Q44.034374 143.32617 44.3 142.98242Q44.565624 142.63867 44.565624 141.73242Q44.565624 140.9043 44.3 140.57617Q44.034374 140.23242 43.64375 140.23242Z" fill-rule="nonzero"/><path stroke="#757575" stroke-width="1.0" stroke-linecap="butt" d="M18.55 131.23242L157.23334 131.23242L270.25284 116.89181" fill-rule="nonzero"/><path fill="#9e9e9e" d="M272.25284 116.89181C272.25284 115.78723 271.3574 114.89181 270.25284 114.89181C269.14825 114.89181 268.25284 115.78723 268.25284 116.89181C268.25284 117.996376 269.14825 118.89181 270.25284 118.89181C271.3574 118.89181 272.25284 117.996376 272.25284 116.89181" fill-rule="nonzero"/><path fill="#1a1a1a" d="M19.096874 198.1602L20.159374 198.06645Q20.2375 198.7227 20.51875 199.12895Q20.8 199.5352 21.378124 199.80083Q21.971874 200.05083 22.70625 200.05083Q23.346874 200.05083 23.846874 199.86333Q24.346874 199.6602 24.58125 199.33208Q24.83125 198.98833 24.83125 198.5977Q24.83125 198.19145 24.596874 197.89458Q24.3625 197.58208 23.83125 197.37895Q23.471874 197.23833 22.284374 196.95708Q21.1125 196.67583 20.64375 196.42583Q20.01875 196.0977 19.721874 195.62895Q19.425 195.14458 19.425 194.55083Q19.425 193.9102 19.784374 193.3477Q20.159374 192.76958 20.8625 192.48833Q21.58125 192.19145 22.440624 192.19145Q23.39375 192.19145 24.128124 192.50395Q24.8625 192.80083 25.253124 193.4102Q25.64375 194.00395 25.675 194.75395L24.58125 194.83208Q24.4875 194.01958 23.971874 193.61333Q23.471874 193.19145 22.4875 193.19145Q21.45625 193.19145 20.9875 193.56645Q20.51875 193.94145 20.51875 194.4727Q20.51875 194.94145 20.846874 195.23833Q21.175 195.5352 22.55 195.8477Q23.940624 196.1602 24.45625 196.39458Q25.20625 196.75395 25.565624 197.2852Q25.925 197.80083 25.925 198.50395Q25.925 199.19145 25.534374 199.80083Q25.14375 200.39458 24.409374 200.73833Q23.675 201.06645 22.753124 201.06645Q21.58125 201.06645 20.784374 200.73833Q20.003124 200.39458 19.55 199.70708Q19.1125 199.01958 19.096874 198.1602ZM29.64375 199.98833L29.8 200.9102Q29.346874 201.00395 29.003124 201.00395Q28.425 201.00395 28.1125 200.83208Q27.8 200.64458 27.659374 200.3477Q27.534374 200.05083 27.534374 199.0977L27.534374 195.51958L26.76875 195.51958L26.76875 194.70708L27.534374 194.70708L27.534374 193.1602L28.58125 192.5352L28.58125 194.70708L29.64375 194.70708L29.64375 195.51958L28.58125 195.51958L28.58125 199.1602Q28.58125 199.61333 28.628124 199.73833Q28.690624 199.86333 28.815624 199.94145Q28.940624 200.01958 29.175 200.01958Q29.3625 200.01958 29.64375 199.98833ZM30.33125 200.92583L30.33125 194.70708L31.284374 194.70708L31.284374 195.64458Q31.64375 194.98833 31.940624 194.7852Q32.253124 194.56645 32.628124 194.56645Q33.159374 194.56645 33.70625 194.89458L33.346874 195.87895Q32.95625 195.64458 32.58125 195.64458Q32.221874 195.64458 31.940624 195.86333Q31.675 196.06645 31.565624 196.44145Q31.378124 197.00395 31.378124 197.6602L31.378124 200.92583L30.33125 200.92583ZM33.95625 197.81645Q33.95625 196.08208 34.909374 195.25395Q35.70625 194.56645 36.8625 194.56645Q38.14375 194.56645 38.95625 195.4102Q39.784374 196.23833 39.784374 197.7227Q39.784374 198.92583 39.425 199.61333Q39.065624 200.30083 38.3625 200.69145Q37.675 201.06645 36.8625 201.06645Q35.565624 201.06645 34.753124 200.23833Q33.95625 199.39458 33.95625 197.81645ZM35.034374 197.81645Q35.034374 199.00395 35.55 199.5977Q36.08125 200.19145 36.8625 200.19145Q37.659374 200.19145 38.175 199.5977Q38.690624 199.00395 38.690624 197.7852Q38.690624 196.62895 38.159374 196.0352Q37.64375 195.44145 36.8625 195.44145Q36.08125 195.44145 35.55 196.0352Q35.034374 196.61333 35.034374 197.81645ZM41.346874 200.92583L41.346874 194.70708L42.284374 194.70708L42.284374 195.58208Q42.971874 194.56645 44.26875 194.56645Q44.83125 194.56645 45.3 194.76958Q45.784374 194.9727 46.01875 195.30083Q46.253124 195.62895 46.346874 196.06645Q46.39375 196.36333 46.39375 197.0977L46.39375 200.92583L45.346874 200.92583L45.346874 197.14458Q45.346874 196.48833 45.221874 196.17583Q45.096874 195.86333 44.784374 195.67583Q44.471874 195.4727 44.05 195.4727Q43.378124 195.4727 42.878124 195.9102Q42.39375 196.33208 42.39375 197.51958L42.39375 200.92583L41.346874 200.92583ZM48.14375 201.44145L49.175 201.5977Q49.2375 202.06645 49.534374 202.2852Q49.925 202.58208 50.596874 202.58208Q51.33125 202.58208 51.721874 202.2852Q52.128124 201.98833 52.26875 201.4727Q52.3625 201.14458 52.346874 200.11333Q51.659374 200.92583 50.628124 200.92583Q49.346874 200.92583 48.64375 200.00395Q47.940624 199.06645 47.940624 197.7852Q47.940624 196.89458 48.253124 196.14458Q48.58125 195.37895 49.190624 194.9727Q49.8 194.56645 50.628124 194.56645Q51.7375 194.56645 52.45625 195.45708L52.45625 194.70708L53.425 194.70708L53.425 200.08208Q53.425 201.5352 53.128124 202.14458Q52.83125 202.75395 52.190624 203.0977Q51.55 203.45708 50.6125 203.45708Q49.503124 203.45708 48.815624 202.95708Q48.128124 202.45708 48.14375 201.44145ZM49.01875 197.70708Q49.01875 198.92583 49.503124 199.48833Q49.9875 200.05083 50.721874 200.05083Q51.45625 200.05083 51.940624 199.48833Q52.440624 198.92583 52.440624 197.73833Q52.440624 196.5977 51.925 196.01958Q51.425 195.44145 50.70625 195.44145Q50.003124 195.44145 49.503124 196.01958Q49.01875 196.58208 49.01875 197.70708ZM55.315624 200.92583L55.315624 192.33208L56.378124 192.33208L56.378124 200.92583L55.315624 200.92583ZM58.3 203.31645L58.175 202.33208Q58.51875 202.42583 58.784374 202.42583Q59.128124 202.42583 59.33125 202.30083Q59.55 202.19145 59.690624 201.98833Q59.784374 201.81645 60.01875 201.19145Q60.034374 201.11333 60.1125 200.94145L57.7375 194.70708L58.878124 194.70708L60.175 198.30083Q60.425 198.98833 60.628124 199.75395Q60.815624 199.01958 61.065624 198.33208L62.39375 194.70708L63.440624 194.70708L61.08125 201.0352Q60.690624 202.05083 60.4875 202.44145Q60.20625 202.9727 59.83125 203.20708Q59.471874 203.45708 58.971874 203.45708Q58.675 203.45708 58.3 203.31645ZM71.40938 200.1602Q70.81563 200.6602 70.26875 200.86333Q69.7375 201.06645 69.1125 201.06645Q68.08125 201.06645 67.53438 200.56645Q66.9875 200.06645 66.9875 199.2852Q66.9875 198.83208 67.19063 198.45708Q67.39375 198.06645 67.7375 197.8477Q68.08125 197.61333 68.50313 197.50395Q68.8 197.4102 69.44063 197.33208Q70.70625 197.19145 71.31563 196.9727Q71.31563 196.75395 71.31563 196.70708Q71.31563 196.05083 71.01875 195.7852Q70.6125 195.44145 69.81563 195.44145Q69.08125 195.44145 68.72188 195.70708Q68.3625 195.95708 68.19063 196.61333L67.15938 196.4727Q67.3 195.81645 67.62813 195.4102Q67.95625 195.00395 68.56563 194.7852Q69.175 194.56645 69.97188 194.56645Q70.76875 194.56645 71.26875 194.75395Q71.76875 194.94145 72.00313 195.2227Q72.2375 195.50395 72.33125 195.94145Q72.37813 196.20708 72.37813 196.9102L72.37813 198.31645Q72.37813 199.7852 72.44063 200.17583Q72.51875 200.56645 72.72188 200.92583L71.6125 200.92583Q71.45625 200.5977 71.40938 200.1602ZM71.31563 197.80083Q70.7375 198.0352 69.59688 198.20708Q68.94063 198.30083 68.675 198.42583Q68.40938 198.5352 68.25313 198.75395Q68.1125 198.9727 68.1125 199.25395Q68.1125 199.67583 68.425 199.95708Q68.75313 200.23833 69.3625 200.23833Q69.97188 200.23833 70.44063 199.9727Q70.925 199.70708 71.14375 199.23833Q71.31563 198.87895 71.31563 198.19145L71.31563 197.80083ZM74.14375 201.44145L75.175 201.5977Q75.2375 202.06645 75.53438 202.2852Q75.925 202.58208 76.59688 202.58208Q77.33125 202.58208 77.72188 202.2852Q78.12813 201.98833 78.26875 201.4727Q78.3625 201.14458 78.34688 200.11333Q77.65938 200.92583 76.62813 200.92583Q75.34688 200.92583 74.64375 200.00395Q73.94063 199.06645 73.94063 197.7852Q73.94063 196.89458 74.25313 196.14458Q74.58125 195.37895 75.19063 194.9727Q75.8 194.56645 76.62813 194.56645Q77.7375 194.56645 78.45625 195.45708L78.45625 194.70708L79.425 194.70708L79.425 200.08208Q79.425 201.5352 79.12813 202.14458Q78.83125 202.75395 78.19063 203.0977Q77.55 203.45708 76.6125 203.45708Q75.50313 203.45708 74.81563 202.95708Q74.12813 202.45708 74.14375 201.44145ZM75.01875 197.70708Q75.01875 198.92583 75.50313 199.48833Q75.9875 200.05083 76.72188 200.05083Q77.45625 200.05083 77.94063 199.48833Q78.44063 198.92583 78.44063 197.73833Q78.44063 196.5977 77.925 196.01958Q77.425 195.44145 76.70625 195.44145Q76.00313 195.44145 75.50313 196.01958Q75.01875 196.58208 75.01875 197.70708ZM81.33125 200.92583L81.33125 194.70708L82.28438 194.70708L82.28438 195.64458Q82.64375 194.98833 82.94063 194.7852Q83.25313 194.56645 83.62813 194.56645Q84.15938 194.56645 84.70625 194.89458L84.34688 195.87895Q83.95625 195.64458 83.58125 195.64458Q83.22188 195.64458 82.94063 195.86333Q82.675 196.06645 82.56563 196.44145Q82.37813 197.00395 82.37813 197.6602L82.37813 200.92583L81.33125 200.92583ZM89.59688 198.92583L90.69063 199.05083Q90.44063 200.00395 89.7375 200.5352Q89.03438 201.06645 87.95625 201.06645Q86.59688 201.06645 85.78438 200.2227Q84.9875 199.37895 84.9875 197.86333Q84.9875 196.30083 85.8 195.44145Q86.6125 194.56645 87.89375 194.56645Q89.14375 194.56645 89.925 195.4102Q90.72188 196.25395 90.72188 197.80083Q90.72188 197.89458 90.72188 198.08208L86.08125 198.08208Q86.14375 199.11333 86.65938 199.6602Q87.175 200.19145 87.95625 200.19145Q88.53438 200.19145 88.94063 199.89458Q89.3625 199.58208 89.59688 198.92583ZM86.14375 197.2227L89.6125 197.2227Q89.55 196.42583 89.22188 196.0352Q88.70625 195.42583 87.90938 195.42583Q87.175 195.42583 86.675 195.9102Q86.19063 196.39458 86.14375 197.2227ZM96.59688 198.92583L97.69063 199.05083Q97.44063 200.00395 96.7375 200.5352Q96.03438 201.06645 94.95625 201.06645Q93.59688 201.06645 92.78438 200.2227Q91.9875 199.37895 91.9875 197.86333Q91.9875 196.30083 92.8 195.44145Q93.6125 194.56645 94.89375 194.56645Q96.14375 194.56645 96.925 195.4102Q97.72188 196.25395 97.72188 197.80083Q97.72188 197.89458 97.72188 198.08208L93.08125 198.08208Q93.14375 199.11333 93.65938 199.6602Q94.175 200.19145 94.95625 200.19145Q95.53438 200.19145 95.94063 199.89458Q96.3625 199.58208 96.59688 198.92583ZM93.14375 197.2227L96.6125 197.2227Q96.55 196.42583 96.22188 196.0352Q95.70625 195.42583 94.90938 195.42583Q94.175 195.42583 93.675 195.9102Q93.19063 196.39458 93.14375 197.2227Z" fill-rule="nonzero"/><path fill="#9e9e9e" d="M19.05 215.6602L20.1125 215.51958Q20.284374 216.4102 20.721874 216.81645Q21.159374 217.20708 21.784374 217.20708Q22.534374 217.20708 23.05 216.69145Q23.565624 216.17583 23.565624 215.4102Q23.565624 214.69145 23.08125 214.2227Q22.6125 213.73833 21.878124 213.73833Q21.58125 213.73833 21.128124 213.86333L21.253124 212.92583Q21.3625 212.94145 21.425 212.94145Q22.096874 212.94145 22.628124 212.5977Q23.175 212.23833 23.175 211.50395Q23.175 210.92583 22.784374 210.55083Q22.39375 210.1602 21.76875 210.1602Q21.159374 210.1602 20.7375 210.55083Q20.33125 210.94145 20.221874 211.70708L19.159374 211.51958Q19.346874 210.4727 20.034374 209.89458Q20.721874 209.30083 21.7375 209.30083Q22.440624 209.30083 23.034374 209.61333Q23.628124 209.9102 23.940624 210.42583Q24.253124 210.94145 24.253124 211.5352Q24.253124 212.08208 23.95625 212.55083Q23.659374 213.00395 23.08125 213.26958Q23.83125 213.44145 24.253124 214.00395Q24.675 214.55083 24.675 215.39458Q24.675 216.51958 23.846874 217.30083Q23.034374 218.08208 21.784374 218.08208Q20.659374 218.08208 19.909374 217.4102Q19.159374 216.7227 19.05 215.6602ZM27.675 213.26958Q27.01875 213.01958 26.690624 212.58208Q26.378124 212.12895 26.378124 211.51958Q26.378124 210.58208 27.05 209.94145Q27.7375 209.30083 28.846874 209.30083Q29.971874 209.30083 30.659374 209.95708Q31.346874 210.61333 31.346874 211.55083Q31.346874 212.14458 31.034374 212.58208Q30.721874 213.01958 30.08125 213.26958Q30.878124 213.51958 31.284374 214.0977Q31.690624 214.67583 31.690624 215.4727Q31.690624 216.56645 30.909374 217.31645Q30.14375 218.06645 28.8625 218.06645Q27.596874 218.06645 26.815624 217.31645Q26.034374 216.56645 26.034374 215.44145Q26.034374 214.5977 26.45625 214.0352Q26.89375 213.4727 27.675 213.26958ZM27.45625 211.4727Q27.45625 212.08208 27.846874 212.4727Q28.253124 212.86333 28.878124 212.86333Q29.4875 212.86333 29.878124 212.48833Q30.26875 212.0977 30.26875 211.5352Q30.26875 210.95708 29.8625 210.56645Q29.45625 210.1602 28.8625 210.1602Q28.253124 210.1602 27.846874 210.55083Q27.45625 210.94145 27.45625 211.4727ZM27.128124 215.44145Q27.128124 215.89458 27.33125 216.31645Q27.55 216.73833 27.971874 216.9727Q28.39375 217.20708 28.878124 217.20708Q29.628124 217.20708 30.1125 216.7227Q30.6125 216.23833 30.6125 215.48833Q30.6125 214.7227 30.1125 214.2227Q29.6125 213.7227 28.846874 213.7227Q28.096874 213.7227 27.6125 214.2227Q27.128124 214.70708 27.128124 215.44145ZM33.6125 217.92583L33.6125 216.7227L34.815624 216.7227L34.815624 217.92583Q34.815624 218.58208 34.58125 218.98833Q34.346874 219.4102 33.846874 219.62895L33.55 219.17583Q33.878124 219.0352 34.034374 218.73833Q34.190624 218.45708 34.221874 217.92583L33.6125 217.92583ZM41.596874 216.9102L41.596874 217.92583L35.909374 217.92583Q35.909374 217.55083 36.034374 217.19145Q36.253124 216.61333 36.721874 216.05083Q37.20625 215.48833 38.1125 214.75395Q39.51875 213.5977 40.003124 212.92583Q40.503124 212.25395 40.503124 211.6602Q40.503124 211.0352 40.05 210.61333Q39.596874 210.17583 38.878124 210.17583Q38.1125 210.17583 37.659374 210.62895Q37.20625 211.08208 37.190624 211.89458L36.1125 211.7852Q36.221874 210.56645 36.940624 209.94145Q37.675 209.30083 38.909374 209.30083Q40.14375 209.30083 40.8625 209.98833Q41.58125 210.67583 41.58125 211.69145Q41.58125 212.20708 41.3625 212.70708Q41.159374 213.19145 40.659374 213.75395Q40.175 214.30083 39.05 215.25395Q38.096874 216.05083 37.815624 216.3477Q37.55 216.62895 37.378124 216.9102L41.596874 216.9102ZM43.253124 211.39458Q43.253124 210.4727 43.70625 209.83208Q44.175 209.19145 45.05 209.19145Q45.8625 209.19145 46.39375 209.76958Q46.925 210.3477 46.925 211.45708Q46.925 212.55083 46.378124 213.14458Q45.846874 213.7227 45.065624 213.7227Q44.284374 213.7227 43.76875 213.14458Q43.253124 212.56645 43.253124 211.39458ZM45.08125 209.9102Q44.690624 209.9102 44.425 210.25395Q44.175 210.5977 44.175 211.50395Q44.175 212.33208 44.425 212.67583Q44.690624 213.00395 45.08125 213.00395Q45.4875 213.00395 45.7375 212.6602Q46.003124 212.31645 46.003124 211.42583Q46.003124 210.58208 45.7375 210.25395Q45.471874 209.9102 45.08125 209.9102ZM45.08125 218.23833L49.784374 209.19145L50.64375 209.19145L45.95625 218.23833L45.08125 218.23833ZM48.8 215.9102Q48.8 214.98833 49.253124 214.3477Q49.721874 213.70708 50.6125 213.70708Q51.425 213.70708 51.95625 214.2852Q52.4875 214.8477 52.4875 215.9727Q52.4875 217.06645 51.940624 217.6602Q51.409374 218.23833 50.6125 218.23833Q49.846874 218.23833 49.315624 217.6602Q48.8 217.08208 48.8 215.9102ZM50.64375 214.42583Q50.2375 214.42583 49.971874 214.76958Q49.721874 215.11333 49.721874 216.01958Q49.721874 216.83208 49.9875 217.17583Q50.253124 217.51958 50.64375 217.51958Q51.034374 217.51958 51.3 217.17583Q51.565624 216.83208 51.565624 215.92583Q51.565624 215.0977 51.3 214.76958Q51.034374 214.42583 50.64375 214.42583Z" fill-rule="nonzero"/><path stroke="#757575" stroke-width="1.0" stroke-linecap="butt" d="M18.55 205.42583L157.23334 205.42583L170.07167 205.42583" fill-rule="nonzero"/><path fill="#9e9e9e" d="M172.07167 205.42583C172.07167 204.32126 171.17624 203.42583 170.07167 203.42583C168.9671 203.42583 168.07167 204.32126 168.07167 205.42583C168.07167 206.5304 168.9671 207.42583 170.07167 207.42583C171.17624 207.42583 172.07167 206.5304 172.07167 205.42583" fill-rule="nonzero"/><path fill="#1a1a1a" d="M548.4344 217.63782L551.73126 209.04407L552.95 209.04407L556.46564 217.63782L555.1844 217.63782L554.16876 215.02844L550.59064 215.02844L549.6375 217.63782L548.4344 217.63782ZM550.91876 214.10657L553.825 214.10657L552.9344 211.73157Q552.5125 210.65344 552.325 209.95032Q552.15314 210.77844 551.85626 211.59094L550.91876 214.10657ZM557.04376 218.15344L558.075 218.3097Q558.1375 218.77844 558.4344 218.9972Q558.825 219.29407 559.4969 219.29407Q560.23126 219.29407 560.6219 218.9972Q561.02814 218.70032 561.16876 218.1847Q561.2625 217.85657 561.2469 216.82532Q560.5594 217.63782 559.52814 217.63782Q558.2469 217.63782 557.54376 216.71594Q556.84064 215.77844 556.84064 214.4972Q556.84064 213.60657 557.15314 212.85657Q557.48126 212.09094 558.09064 211.6847Q558.7 211.27844 559.52814 211.27844Q560.6375 211.27844 561.35626 212.16907L561.35626 211.41907L562.325 211.41907L562.325 216.79407Q562.325 218.2472 562.02814 218.85657Q561.73126 219.46594 561.09064 219.8097Q560.45 220.16907 559.5125 220.16907Q558.40314 220.16907 557.71564 219.66907Q557.02814 219.16907 557.04376 218.15344ZM557.91876 214.41907Q557.91876 215.63782 558.40314 216.20032Q558.8875 216.76282 559.6219 216.76282Q560.35626 216.76282 560.84064 216.20032Q561.34064 215.63782 561.34064 214.45032Q561.34064 213.3097 560.825 212.73157Q560.325 212.15344 559.60626 212.15344Q558.90314 212.15344 558.40314 212.73157Q557.91876 213.29407 557.91876 214.41907ZM564.23126 217.63782L564.23126 211.41907L565.1844 211.41907L565.1844 212.35657Q565.54376 211.70032 565.84064 211.4972Q566.15314 211.27844 566.52814 211.27844Q567.0594 211.27844 567.60626 211.60657L567.2469 212.59094Q566.85626 212.35657 566.48126 212.35657Q566.1219 212.35657 565.84064 212.57532Q565.575 212.77844 565.46564 213.15344Q565.27814 213.71594 565.27814 214.3722L565.27814 217.63782L564.23126 217.63782ZM572.4969 215.63782L573.59064 215.76282Q573.34064 216.71594 572.6375 217.2472Q571.9344 217.77844 570.85626 217.77844Q569.4969 217.77844 568.6844 216.9347Q567.8875 216.09094 567.8875 214.57532Q567.8875 213.01282 568.7 212.15344Q569.5125 211.27844 570.79376 211.27844Q572.04376 211.27844 572.825 212.1222Q573.6219 212.96594 573.6219 214.51282Q573.6219 214.60657 573.6219 214.79407L568.98126 214.79407Q569.04376 215.82532 569.5594 216.3722Q570.075 216.90344 570.85626 216.90344Q571.4344 216.90344 571.84064 216.60657Q572.2625 216.29407 572.4969 215.63782ZM569.04376 213.9347L572.5125 213.9347Q572.45 213.13782 572.1219 212.7472Q571.60626 212.13782 570.8094 212.13782Q570.075 212.13782 569.575 212.6222Q569.09064 213.10657 569.04376 213.9347ZM579.4969 215.63782L580.59064 215.76282Q580.34064 216.71594 579.6375 217.2472Q578.9344 217.77844 577.85626 217.77844Q576.4969 217.77844 575.6844 216.9347Q574.8875 216.09094 574.8875 214.57532Q574.8875 213.01282 575.7 212.15344Q576.5125 211.27844 577.79376 211.27844Q579.04376 211.27844 579.825 212.1222Q580.6219 212.96594 580.6219 214.51282Q580.6219 214.60657 580.6219 214.79407L575.98126 214.79407Q576.04376 215.82532 576.5594 216.3722Q577.075 216.90344 577.85626 216.90344Q578.4344 216.90344 578.84064 216.60657Q579.2625 216.29407 579.4969 215.63782ZM576.04376 213.9347L579.5125 213.9347Q579.45 213.13782 579.1219 212.7472Q578.60626 212.13782 577.8094 212.13782Q577.075 212.13782 576.575 212.6222Q576.09064 213.10657 576.04376 213.9347Z" fill-rule="nonzero"/><path fill="#9e9e9e" d="M546.95 232.38782L548.0594 232.29407Q548.1844 233.10657 548.6219 233.51282Q549.075 233.91907 549.71564 233.91907Q550.46564 233.91907 550.9969 233.34094Q551.52814 232.76282 551.52814 231.82532Q551.52814 230.91907 551.0125 230.40344Q550.5125 229.8722 549.6844 229.8722Q549.1844 229.8722 548.7625 230.10657Q548.35626 230.34094 548.1219 230.70032L547.1375 230.57532L547.96564 226.16907L552.2469 226.16907L552.2469 227.16907L548.8094 227.16907L548.35626 229.48157Q549.1219 228.9347 549.96564 228.9347Q551.09064 228.9347 551.85626 229.71594Q552.6375 230.4972 552.6375 231.73157Q552.6375 232.88782 551.96564 233.7472Q551.1375 234.77844 549.71564 234.77844Q548.54376 234.77844 547.79376 234.1222Q547.0594 233.46594 546.95 232.38782ZM553.95 232.38782L555.0594 232.29407Q555.1844 233.10657 555.6219 233.51282Q556.075 233.91907 556.71564 233.91907Q557.46564 233.91907 557.9969 233.34094Q558.52814 232.76282 558.52814 231.82532Q558.52814 230.91907 558.0125 230.40344Q557.5125 229.8722 556.6844 229.8722Q556.1844 229.8722 555.7625 230.10657Q555.35626 230.34094 555.1219 230.70032L554.1375 230.57532L554.96564 226.16907L559.2469 226.16907L559.2469 227.16907L555.8094 227.16907L555.35626 229.48157Q556.1219 228.9347 556.96564 228.9347Q558.09064 228.9347 558.85626 229.71594Q559.6375 230.4972 559.6375 231.73157Q559.6375 232.88782 558.96564 233.7472Q558.1375 234.77844 556.71564 234.77844Q555.54376 234.77844 554.79376 234.1222Q554.0594 233.46594 553.95 232.38782ZM561.5125 234.63782L561.5125 233.4347L562.71564 233.4347L562.71564 234.63782Q562.71564 235.29407 562.48126 235.70032Q562.2469 236.1222 561.7469 236.34094L561.45 235.88782Q561.77814 235.7472 561.9344 235.45032Q562.09064 235.16907 562.1219 234.63782L561.5125 234.63782ZM564.10626 232.65344L565.1219 232.5597Q565.2469 233.27844 565.60626 233.60657Q565.98126 233.91907 566.54376 233.91907Q567.02814 233.91907 567.3875 233.70032Q567.7625 233.46594 567.9969 233.10657Q568.23126 232.73157 568.3875 232.10657Q568.54376 231.46594 568.54376 230.8097Q568.54376 230.73157 568.54376 230.59094Q568.23126 231.09094 567.6844 231.41907Q567.1375 231.73157 566.4969 231.73157Q565.41876 231.73157 564.6844 230.96594Q563.95 230.1847 563.95 228.91907Q563.95 227.60657 564.71564 226.8097Q565.4969 226.01282 566.65314 226.01282Q567.48126 226.01282 568.16876 226.46594Q568.8719 226.91907 569.23126 227.76282Q569.59064 228.59094 569.59064 230.16907Q569.59064 231.8097 569.23126 232.79407Q568.8875 233.76282 568.16876 234.27844Q567.46564 234.77844 566.52814 234.77844Q565.5125 234.77844 564.8719 234.23157Q564.23126 233.66907 564.10626 232.65344ZM568.41876 228.85657Q568.41876 227.95032 567.9344 227.41907Q567.46564 226.88782 566.77814 226.88782Q566.075 226.88782 565.54376 227.46594Q565.02814 228.02844 565.02814 228.95032Q565.02814 229.76282 565.52814 230.27844Q566.02814 230.79407 566.7469 230.79407Q567.48126 230.79407 567.95 230.27844Q568.41876 229.76282 568.41876 228.85657ZM571.15314 228.10657Q571.15314 227.1847 571.60626 226.54407Q572.075 225.90344 572.95 225.90344Q573.7625 225.90344 574.29376 226.48157Q574.825 227.0597 574.825 228.16907Q574.825 229.26282 574.27814 229.85657Q573.7469 230.4347 572.96564 230.4347Q572.1844 230.4347 571.66876 229.85657Q571.15314 229.27844 571.15314 228.10657ZM572.98126 226.6222Q572.59064 226.6222 572.325 226.96594Q572.075 227.3097 572.075 228.21594Q572.075 229.04407 572.325 229.38782Q572.59064 229.71594 572.98126 229.71594Q573.3875 229.71594 573.6375 229.3722Q573.90314 229.02844 573.90314 228.13782Q573.90314 227.29407 573.6375 226.96594Q573.3719 226.6222 572.98126 226.6222ZM572.98126 234.95032L577.6844 225.90344L578.54376 225.90344L573.85626 234.95032L572.98126 234.95032ZM576.7 232.6222Q576.7 231.70032 577.15314 231.0597Q577.6219 230.41907 578.5125 230.41907Q579.325 230.41907 579.85626 230.9972Q580.3875 231.5597 580.3875 232.6847Q580.3875 233.77844 579.84064 234.3722Q579.3094 234.95032 578.5125 234.95032Q577.7469 234.95032 577.21564 234.3722Q576.7 233.79407 576.7 232.6222ZM578.54376 231.13782Q578.1375 231.13782 577.8719 231.48157Q577.6219 231.82532 577.6219 232.73157Q577.6219 233.54407 577.8875 233.88782Q578.15314 234.23157 578.54376 234.23157Q578.9344 234.23157 579.2 233.88782Q579.46564 233.54407 579.46564 232.63782Q579.46564 231.8097 579.2 231.48157Q578.9344 231.13782 578.54376 231.13782Z" fill-rule="nonzero"/><path stroke="#757575" stroke-width="1.0" stroke-linecap="butt" d="M581.45 222.13782L442.76666 222.13782L427.71606 222.13782" fill-rule="nonzero"/><path fill="#9e9e9e" d="M429.71606 222.13782C429.71606 221.03325 428.82062 220.13782 427.71606 220.13782C426.61148 220.13782 425.71606 221.03325 425.71606 222.13782C425.71606 223.24239 426.61148 224.13782 427.71606 224.13782C428.82062 224.13782 429.71606 223.24239 429.71606 222.13782" fill-rule="nonzero"/><path fill="#757575" d="M20.096874 37.55L20.096874 23.2375L25.01875 23.2375Q26.690624 23.2375 27.58125 23.440624Q28.8 23.721874 29.675 24.45625Q30.8 25.425 31.3625 26.909374Q31.925 28.39375 31.925 30.315624Q31.925 31.940624 31.55 33.20625Q31.175 34.45625 30.565624 35.284374Q29.971874 36.1125 29.26875 36.596874Q28.565624 37.065624 27.565624 37.315624Q26.565624 37.55 25.253124 37.55L20.096874 37.55ZM21.9875 35.8625L25.05 35.8625Q26.45625 35.8625 27.253124 35.596874Q28.065624 35.33125 28.55 34.846874Q29.221874 34.175 29.596874 33.05Q29.971874 31.909374 29.971874 30.284374Q29.971874 28.034374 29.2375 26.83125Q28.503124 25.628124 27.440624 25.221874Q26.690624 24.925 25.003124 24.925L21.9875 24.925L21.9875 35.8625ZM33.221874 32.3625Q33.221874 29.4875 34.815624 28.096874Q36.159374 26.940624 38.08125 26.940624Q40.221874 26.940624 41.565624 28.346874Q42.925 29.753124 42.925 32.221874Q42.925 34.221874 42.33125 35.378124Q41.7375 36.51875 40.58125 37.159374Q39.440624 37.784374 38.08125 37.784374Q35.89375 37.784374 34.55 36.39375Q33.221874 34.9875 33.221874 32.3625ZM35.01875 32.3625Q35.01875 34.3625 35.878124 35.346874Q36.753124 36.33125 38.08125 36.33125Q39.39375 36.33125 40.253124 35.346874Q41.128124 34.346874 41.128124 32.3Q41.128124 30.378124 40.253124 29.39375Q39.378124 28.39375 38.08125 28.39375Q36.753124 28.39375 35.878124 29.39375Q35.01875 30.378124 35.01875 32.3625ZM50.784374 41.55L50.596874 39.89375Q51.175 40.05 51.596874 40.05Q52.190624 40.05 52.534374 39.846874Q52.89375 39.659374 53.1125 39.315624Q53.284374 39.05 53.659374 38.003124Q53.70625 37.846874 53.815624 37.565624L49.878124 27.175L51.76875 27.175L53.925 33.190624Q54.346874 34.33125 54.675 35.58125Q54.9875 34.378124 55.39375 33.221874L57.6125 27.175L59.378124 27.175L55.425 37.721874Q54.8 39.440624 54.440624 40.08125Q53.971874 40.95625 53.3625 41.346874Q52.76875 41.753124 51.925 41.753124Q51.409374 41.753124 50.784374 41.55ZM60.221874 32.3625Q60.221874 29.4875 61.815624 28.096874Q63.159374 26.940624 65.08125 26.940624Q67.22188 26.940624 68.56563 28.346874Q69.925 29.753124 69.925 32.221874Q69.925 34.221874 69.33125 35.378124Q68.7375 36.51875 67.58125 37.159374Q66.44063 37.784374 65.08125 37.784374Q62.89375 37.784374 61.55 36.39375Q60.221874 34.9875 60.221874 32.3625ZM62.01875 32.3625Q62.01875 34.3625 62.878124 35.346874Q63.753124 36.33125 65.08125 36.33125Q66.39375 36.33125 67.25313 35.346874Q68.12813 34.346874 68.12813 32.3Q68.12813 30.378124 67.25313 29.39375Q66.37813 28.39375 65.08125 28.39375Q63.753124 28.39375 62.878124 29.39375Q62.01875 30.378124 62.01875 32.3625ZM78.65938 37.55L78.65938 36.01875Q77.45625 37.784374 75.37813 37.784374Q74.45625 37.784374 73.65938 37.440624Q72.8625 37.08125 72.47188 36.55Q72.09688 36.01875 71.94063 35.2375Q71.83125 34.721874 71.83125 33.596874L71.83125 27.175L73.58125 27.175L73.58125 32.925Q73.58125 34.3 73.69063 34.784374Q73.8625 35.471874 74.39375 35.878124Q74.94063 36.26875 75.72188 36.26875Q76.51875 36.26875 77.20625 35.8625Q77.90938 35.45625 78.19063 34.76875Q78.4875 34.065624 78.4875 32.7375L78.4875 27.175L80.2375 27.175L80.2375 37.55L78.65938 37.55ZM92.70625 35.971874L92.95625 37.534374Q92.22188 37.690624 91.62813 37.690624Q90.675 37.690624 90.14375 37.39375Q89.62813 37.08125 89.40938 36.596874Q89.19063 36.096874 89.19063 34.51875L89.19063 28.55L87.90938 28.55L87.90938 27.175L89.19063 27.175L89.19063 24.6125L90.94063 23.55L90.94063 27.175L92.70625 27.175L92.70625 28.55L90.94063 28.55L90.94063 34.6125Q90.94063 35.3625 91.03438 35.58125Q91.12813 35.784374 91.33125 35.925Q91.55 36.05 91.94063 36.05Q92.22188 36.05 92.70625 35.971874ZM94.8625 37.55L94.8625 23.2375L96.62813 23.2375L96.62813 28.3625Q97.8625 26.940624 99.7375 26.940624Q100.87813 26.940624 101.72188 27.39375Q102.58125 27.846874 102.94063 28.659374Q103.31563 29.45625 103.31563 30.971874L103.31563 37.55L101.56563 37.55L101.56563 30.971874Q101.56563 29.659374 100.9875 29.065624Q100.40938 28.45625 99.37813 28.45625Q98.59688 28.45625 97.89375 28.8625Q97.20625 29.26875 96.90938 29.971874Q96.62813 30.659374 96.62813 31.878124L96.62813 37.55L94.8625 37.55ZM105.87813 25.253124L105.87813 23.2375L107.64375 23.2375L107.64375 25.253124L105.87813 25.253124ZM105.87813 37.55L105.87813 27.175L107.64375 27.175L107.64375 37.55L105.87813 37.55ZM109.8625 37.55L109.8625 27.175L111.45625 27.175L111.45625 28.659374Q112.59688 26.940624 114.75313 26.940624Q115.69063 26.940624 116.47188 27.284374Q117.26875 27.6125 117.65938 28.159374Q118.05 28.70625 118.20625 29.45625Q118.3 29.95625 118.3 31.175L118.3 37.55L116.53438 37.55L116.53438 31.2375Q116.53438 30.159374 116.33125 29.628124Q116.12813 29.096874 115.59688 28.784374Q115.08125 28.471874 114.37813 28.471874Q113.25313 28.471874 112.44063 29.190624Q111.62813 29.89375 111.62813 31.878124L111.62813 37.55L109.8625 37.55ZM120.87813 37.55L120.87813 23.2375L122.64375 23.2375L122.64375 31.39375L126.8 27.175L129.06563 27.175L125.1125 31.01875L129.47188 37.55L127.3 37.55L123.87813 32.253124L122.64375 33.440624L122.64375 37.55L120.87813 37.55ZM140.70625 35.971874L140.95625 37.534374Q140.22188 37.690624 139.62813 37.690624Q138.675 37.690624 138.14375 37.39375Q137.62813 37.08125 137.40938 36.596874Q137.19063 36.096874 137.19063 34.51875L137.19063 28.55L135.90938 28.55L135.90938 27.175L137.19063 27.175L137.19063 24.6125L138.94063 23.55L138.94063 27.175L140.70625 27.175L140.70625 28.55L138.94063 28.55L138.94063 34.6125Q138.94063 35.3625 139.03438 35.58125Q139.12813 35.784374 139.33125 35.925Q139.55 36.05 139.94063 36.05Q140.22188 36.05 140.70625 35.971874ZM142.8625 37.55L142.8625 23.2375L144.62813 23.2375L144.62813 28.3625Q145.8625 26.940624 147.7375 26.940624Q148.87813 26.940624 149.72188 27.39375Q150.58125 27.846874 150.94063 28.659374Q151.31563 29.45625 151.31563 30.971874L151.31563 37.55L149.56563 37.55L149.56563 30.971874Q149.56563 29.659374 148.9875 29.065624Q148.40938 28.45625 147.37813 28.45625Q146.59688 28.45625 145.89375 28.8625Q145.20625 29.26875 144.90938 29.971874Q144.62813 30.659374 144.62813 31.878124L144.62813 37.55L142.8625 37.55ZM160.97188 34.20625L162.78438 34.440624Q162.3625 36.01875 161.19063 36.909374Q160.03438 37.784374 158.22188 37.784374Q155.95625 37.784374 154.6125 36.39375Q153.28438 34.9875 153.28438 32.45625Q153.28438 29.83125 154.62813 28.39375Q155.97188 26.940624 158.12813 26.940624Q160.20625 26.940624 161.51875 28.3625Q162.84688 29.76875 162.84688 32.346874Q162.84688 32.503124 162.83125 32.815624L155.09688 32.815624Q155.19063 34.51875 156.06563 35.425Q156.94063 36.33125 158.2375 36.33125Q159.20625 36.33125 159.87813 35.83125Q160.56563 35.315624 160.97188 34.20625ZM155.19063 31.3625L160.9875 31.3625Q160.87813 30.065624 160.33125 29.409374Q159.4875 28.39375 158.14375 28.39375Q156.94063 28.39375 156.1125 29.20625Q155.28438 30.003124 155.19063 31.3625ZM170.87813 25.253124L170.87813 23.2375L172.64375 23.2375L172.64375 25.253124L170.87813 25.253124ZM170.87813 37.55L170.87813 27.175L172.64375 27.175L172.64375 37.55L170.87813 37.55ZM181.64375 33.753124L183.3625 33.971874Q183.08125 35.76875 181.90938 36.784374Q180.75313 37.784374 179.05 37.784374Q176.925 37.784374 175.62813 36.39375Q174.33125 35.003124 174.33125 32.409374Q174.33125 30.721874 174.87813 29.471874Q175.44063 28.20625 176.58125 27.58125Q177.72188 26.940624 179.06563 26.940624Q180.75313 26.940624 181.81563 27.8Q182.89375 28.659374 183.20625 30.221874L181.4875 30.4875Q181.25313 29.440624 180.62813 28.925Q180.00313 28.39375 179.12813 28.39375Q177.8 28.39375 176.97188 29.346874Q176.14375 30.3 176.14375 32.346874Q176.14375 34.440624 176.94063 35.39375Q177.7375 36.33125 179.03438 36.33125Q180.06563 36.33125 180.75313 35.70625Q181.45625 35.065624 181.64375 33.753124ZM184.22188 32.3625Q184.22188 29.4875 185.81563 28.096874Q187.15938 26.940624 189.08125 26.940624Q191.22188 26.940624 192.56563 28.346874Q193.925 29.753124 193.925 32.221874Q193.925 34.221874 193.33125 35.378124Q192.7375 36.51875 191.58125 37.159374Q190.44063 37.784374 189.08125 37.784374Q186.89375 37.784374 185.55 36.39375Q184.22188 34.9875 184.22188 32.3625ZM186.01875 32.3625Q186.01875 34.3625 186.87813 35.346874Q187.75313 36.33125 189.08125 36.33125Q190.39375 36.33125 191.25313 35.346874Q192.12813 34.346874 192.12813 32.3Q192.12813 30.378124 191.25313 29.39375Q190.37813 28.39375 189.08125 28.39375Q187.75313 28.39375 186.87813 29.39375Q186.01875 30.378124 186.01875 32.3625ZM195.8625 37.55L195.8625 27.175L197.45625 27.175L197.45625 28.659374Q198.59688 26.940624 200.75313 26.940624Q201.69063 26.940624 202.47188 27.284374Q203.26875 27.6125 203.65938 28.159374Q204.05 28.70625 204.20625 29.45625Q204.3 29.95625 204.3 31.175L204.3 37.55L202.53438 37.55L202.53438 31.2375Q202.53438 30.159374 202.33125 29.628124Q202.12813 29.096874 201.59688 28.784374Q201.08125 28.471874 200.37813 28.471874Q199.25313 28.471874 198.44063 29.190624Q197.62813 29.89375 197.62813 31.878124L197.62813 37.55L195.8625 37.55ZM206.15938 34.45625L207.90938 34.175Q208.05 35.221874 208.72188 35.784374Q209.39375 36.33125 210.59688 36.33125Q211.8 36.33125 212.37813 35.846874Q212.97188 35.346874 212.97188 34.690624Q212.97188 34.096874 212.45625 33.753124Q212.09688 33.51875 210.65938 33.159374Q208.72188 32.659374 207.97188 32.315624Q207.2375 31.95625 206.84688 31.33125Q206.45625 30.690624 206.45625 29.925Q206.45625 29.2375 206.76875 28.64375Q207.09688 28.05 207.64375 27.659374Q208.05 27.3625 208.75313 27.159374Q209.47188 26.940624 210.28438 26.940624Q211.50313 26.940624 212.425 27.3Q213.34688 27.64375 213.78438 28.253124Q214.22188 28.846874 214.39375 29.846874L212.675 30.08125Q212.55 29.284374 211.9875 28.846874Q211.425 28.39375 210.40938 28.39375Q209.19063 28.39375 208.675 28.8Q208.15938 29.190624 208.15938 29.721874Q208.15938 30.065624 208.37813 30.346874Q208.58125 30.628124 209.05 30.815624Q209.31563 30.909374 210.59688 31.253124Q212.47188 31.753124 213.20625 32.08125Q213.94063 32.39375 214.3625 33.003124Q214.78438 33.596874 214.78438 34.503124Q214.78438 35.378124 214.26875 36.159374Q213.75313 36.940624 212.78438 37.3625Q211.81563 37.784374 210.59688 37.784374Q208.58125 37.784374 207.51875 36.940624Q206.45625 36.096874 206.15938 34.45625ZM229.64375 36.26875Q228.65938 37.096874 227.75313 37.440624Q226.84688 37.784374 225.81563 37.784374Q224.1125 37.784374 223.19063 36.95625Q222.26875 36.1125 222.26875 34.815624Q222.26875 34.05 222.6125 33.425Q222.97188 32.8 223.53438 32.425Q224.09688 32.034374 224.8 31.83125Q225.31563 31.70625 226.3625 31.565624Q228.4875 31.315624 229.4875 30.971874Q229.50313 30.6125 229.50313 30.503124Q229.50313 29.440624 229.00313 28.9875Q228.33125 28.39375 227.00313 28.39375Q225.75313 28.39375 225.15938 28.83125Q224.58125 29.26875 224.3 30.378124L222.58125 30.14375Q222.81563 29.034374 223.34688 28.3625Q223.87813 27.675 224.89375 27.315624Q225.90938 26.940624 227.25313 26.940624Q228.58125 26.940624 229.40938 27.253124Q230.2375 27.565624 230.62813 28.05Q231.01875 28.51875 231.175 29.2375Q231.26875 29.690624 231.26875 30.8625L231.26875 33.20625Q231.26875 35.659374 231.37813 36.315624Q231.4875 36.95625 231.83125 37.55L229.9875 37.55Q229.72188 37.003124 229.64375 36.26875ZM229.4875 32.346874Q228.53438 32.7375 226.6125 33.003124Q225.53438 33.159374 225.08125 33.3625Q224.64375 33.55 224.39375 33.925Q224.14375 34.3 224.14375 34.76875Q224.14375 35.471874 224.675 35.940624Q225.20625 36.409374 226.2375 36.409374Q227.25313 36.409374 228.03438 35.971874Q228.83125 35.51875 229.20625 34.753124Q229.4875 34.14375 229.4875 32.9875L229.4875 32.346874ZM233.84688 37.55L233.84688 27.175L235.425 27.175L235.425 28.753124Q236.03438 27.64375 236.55 27.3Q237.06563 26.940624 237.675 26.940624Q238.56563 26.940624 239.4875 27.503124L238.87813 29.14375Q238.2375 28.753124 237.59688 28.753124Q237.01875 28.753124 236.55 29.1125Q236.09688 29.45625 235.89375 30.065624Q235.6125 31.003124 235.6125 32.1125L235.6125 37.55L233.84688 37.55ZM247.97188 34.20625L249.78438 34.440624Q249.3625 36.01875 248.19063 36.909374Q247.03438 37.784374 245.22188 37.784374Q242.95625 37.784374 241.6125 36.39375Q240.28438 34.9875 240.28438 32.45625Q240.28438 29.83125 241.62813 28.39375Q242.97188 26.940624 245.12813 26.940624Q247.20625 26.940624 248.51875 28.3625Q249.84688 29.76875 249.84688 32.346874Q249.84688 32.503124 249.83125 32.815624L242.09688 32.815624Q242.19063 34.51875 243.06563 35.425Q243.94063 36.33125 245.2375 36.33125Q246.20625 36.33125 246.87813 35.83125Q247.56563 35.315624 247.97188 34.20625ZM242.19063 31.3625L247.9875 31.3625Q247.87813 30.065624 247.33125 29.409374Q246.4875 28.39375 245.14375 28.39375Q243.94063 28.39375 243.1125 29.20625Q242.28438 30.003124 242.19063 31.3625ZM264.97186 34.20625L266.78436 34.440624Q266.3625 36.01875 265.1906 36.909374Q264.03436 37.784374 262.22186 37.784374Q259.95624 37.784374 258.6125 36.39375Q257.28436 34.9875 257.28436 32.45625Q257.28436 29.83125 258.6281 28.39375Q259.97186 26.940624 262.1281 26.940624Q264.20624 26.940624 265.51874 28.3625Q266.84686 29.76875 266.84686 32.346874Q266.84686 32.503124 266.83124 32.815624L259.09686 32.815624Q259.1906 34.51875 260.0656 35.425Q260.9406 36.33125 262.2375 36.33125Q263.20624 36.33125 263.8781 35.83125Q264.5656 35.315624 264.97186 34.20625ZM259.1906 31.3625L264.9875 31.3625Q264.8781 30.065624 264.33124 29.409374Q263.4875 28.39375 262.14374 28.39375Q260.9406 28.39375 260.1125 29.20625Q259.28436 30.003124 259.1906 31.3625ZM267.6906 37.55L271.4875 32.159374L267.9875 27.175L270.175 27.175L271.76874 29.6125Q272.22186 30.3 272.4875 30.76875Q272.925 30.128124 273.28436 29.628124L275.03436 27.175L277.1281 27.175L273.55 32.065624L277.40936 37.55L275.2531 37.55L273.1125 34.33125L272.55 33.45625L269.83124 37.55L267.6906 37.55ZM278.8625 41.51875L278.8625 27.175L280.47186 27.175L280.47186 28.51875Q281.03436 27.7375 281.7375 27.346874Q282.45624 26.940624 283.47186 26.940624Q284.8 26.940624 285.8156 27.628124Q286.83124 28.315624 287.34686 29.565624Q287.8781 30.8 287.8781 32.284374Q287.8781 33.878124 287.3 35.159374Q286.7375 36.425 285.64374 37.1125Q284.55 37.784374 283.34686 37.784374Q282.47186 37.784374 281.76874 37.409374Q281.08124 37.034374 280.6281 36.471874L280.6281 41.51875L278.8625 41.51875ZM280.45624 32.425Q280.45624 34.425 281.26874 35.378124Q282.08124 36.33125 283.2375 36.33125Q284.40936 36.33125 285.2375 35.346874Q286.08124 34.3625 286.08124 32.26875Q286.08124 30.3 285.2531 29.315624Q284.4406 28.315624 283.3156 28.315624Q282.1906 28.315624 281.3156 29.378124Q280.45624 30.425 280.45624 32.425ZM289.83124 37.55L289.83124 23.2375L291.58124 23.2375L291.58124 37.55L289.83124 37.55ZM300.64374 36.26875Q299.65936 37.096874 298.7531 37.440624Q297.84686 37.784374 296.8156 37.784374Q295.1125 37.784374 294.1906 36.95625Q293.26874 36.1125 293.26874 34.815624Q293.26874 34.05 293.6125 33.425Q293.97186 32.8 294.53436 32.425Q295.09686 32.034374 295.8 31.83125Q296.3156 31.70625 297.3625 31.565624Q299.4875 31.315624 300.4875 30.971874Q300.5031 30.6125 300.5031 30.503124Q300.5031 29.440624 300.0031 28.9875Q299.33124 28.39375 298.0031 28.39375Q296.7531 28.39375 296.15936 28.83125Q295.58124 29.26875 295.3 30.378124L293.58124 30.14375Q293.8156 29.034374 294.34686 28.3625Q294.8781 27.675 295.89374 27.315624Q296.90936 26.940624 298.2531 26.940624Q299.58124 26.940624 300.40936 27.253124Q301.2375 27.565624 301.6281 28.05Q302.01874 28.51875 302.175 29.2375Q302.26874 29.690624 302.26874 30.8625L302.26874 33.20625Q302.26874 35.659374 302.3781 36.315624Q302.4875 36.95625 302.83124 37.55L300.9875 37.55Q300.72186 37.003124 300.64374 36.26875ZM300.4875 32.346874Q299.53436 32.7375 297.6125 33.003124Q296.53436 33.159374 296.08124 33.3625Q295.64374 33.55 295.39374 33.925Q295.14374 34.3 295.14374 34.76875Q295.14374 35.471874 295.675 35.940624Q296.20624 36.409374 297.2375 36.409374Q298.2531 36.409374 299.03436 35.971874Q299.83124 35.51875 300.20624 34.753124Q300.4875 34.14375 300.4875 32.9875L300.4875 32.346874ZM304.8625 37.55L304.8625 27.175L306.45624 27.175L306.45624 28.659374Q307.59686 26.940624 309.7531 26.940624Q310.6906 26.940624 311.47186 27.284374Q312.26874 27.6125 312.65936 28.159374Q313.05 28.70625 313.20624 29.45625Q313.3 29.95625 313.3 31.175L313.3 37.55L311.53436 37.55L311.53436 31.2375Q311.53436 30.159374 311.33124 29.628124Q311.1281 29.096874 310.59686 28.784374Q310.08124 28.471874 309.3781 28.471874Q308.2531 28.471874 307.4406 29.190624Q306.6281 29.89375 306.6281 31.878124L306.6281 37.55L304.8625 37.55ZM322.64374 36.26875Q321.65936 37.096874 320.7531 37.440624Q319.84686 37.784374 318.8156 37.784374Q317.1125 37.784374 316.1906 36.95625Q315.26874 36.1125 315.26874 34.815624Q315.26874 34.05 315.6125 33.425Q315.97186 32.8 316.53436 32.425Q317.09686 32.034374 317.8 31.83125Q318.3156 31.70625 319.3625 31.565624Q321.4875 31.315624 322.4875 30.971874Q322.5031 30.6125 322.5031 30.503124Q322.5031 29.440624 322.0031 28.9875Q321.33124 28.39375 320.0031 28.39375Q318.7531 28.39375 318.15936 28.83125Q317.58124 29.26875 317.3 30.378124L315.58124 30.14375Q315.8156 29.034374 316.34686 28.3625Q316.8781 27.675 317.89374 27.315624Q318.90936 26.940624 320.2531 26.940624Q321.58124 26.940624 322.40936 27.253124Q323.2375 27.565624 323.6281 28.05Q324.01874 28.51875 324.175 29.2375Q324.26874 29.690624 324.26874 30.8625L324.26874 33.20625Q324.26874 35.659374 324.3781 36.315624Q324.4875 36.95625 324.83124 37.55L322.9875 37.55Q322.72186 37.003124 322.64374 36.26875ZM322.4875 32.346874Q321.53436 32.7375 319.6125 33.003124Q318.53436 33.159374 318.08124 33.3625Q317.64374 33.55 317.39374 33.925Q317.14374 34.3 317.14374 34.76875Q317.14374 35.471874 317.675 35.940624Q318.20624 36.409374 319.2375 36.409374Q320.2531 36.409374 321.03436 35.971874Q321.83124 35.51875 322.20624 34.753124Q322.4875 34.14375 322.4875 32.9875L322.4875 32.346874ZM330.70624 35.971874L330.95624 37.534374Q330.22186 37.690624 329.6281 37.690624Q328.675 37.690624 328.14374 37.39375Q327.6281 37.08125 327.40936 36.596874Q327.1906 36.096874 327.1906 34.51875L327.1906 28.55L325.90936 28.55L325.90936 27.175L327.1906 27.175L327.1906 24.6125L328.9406 23.55L328.9406 27.175L330.70624 27.175L330.70624 28.55L328.9406 28.55L328.9406 34.6125Q328.9406 35.3625 329.03436 35.58125Q329.1281 35.784374 329.33124 35.925Q329.55 36.05 329.9406 36.05Q330.22186 36.05 330.70624 35.971874ZM332.22186 32.3625Q332.22186 29.4875 333.8156 28.096874Q335.15936 26.940624 337.08124 26.940624Q339.22186 26.940624 340.5656 28.346874Q341.925 29.753124 341.925 32.221874Q341.925 34.221874 341.33124 35.378124Q340.7375 36.51875 339.58124 37.159374Q338.4406 37.784374 337.08124 37.784374Q334.89374 37.784374 333.55 36.39375Q332.22186 34.9875 332.22186 32.3625ZM334.01874 32.3625Q334.01874 34.3625 334.8781 35.346874Q335.7531 36.33125 337.08124 36.33125Q338.39374 36.33125 339.2531 35.346874Q340.1281 34.346874 340.1281 32.3Q340.1281 30.378124 339.2531 29.39375Q338.3781 28.39375 337.08124 28.39375Q335.7531 28.39375 334.8781 29.39375Q334.01874 30.378124 334.01874 32.3625ZM343.84686 37.55L343.84686 27.175L345.425 27.175L345.425 28.753124Q346.03436 27.64375 346.55 27.3Q347.0656 26.940624 347.675 26.940624Q348.5656 26.940624 349.4875 27.503124L348.8781 29.14375Q348.2375 28.753124 347.59686 28.753124Q347.01874 28.753124 346.55 29.1125Q346.09686 29.45625 345.89374 30.065624Q345.6125 31.003124 345.6125 32.1125L345.6125 37.55L343.84686 37.55ZM350.78436 41.55L350.59686 39.89375Q351.175 40.05 351.59686 40.05Q352.1906 40.05 352.53436 39.846874Q352.89374 39.659374 353.1125 39.315624Q353.28436 39.05 353.65936 38.003124Q353.70624 37.846874 353.8156 37.565624L349.8781 27.175L351.76874 27.175L353.925 33.190624Q354.34686 34.33125 354.675 35.58125Q354.9875 34.378124 355.39374 33.221874L357.6125 27.175L359.3781 27.175L355.425 37.721874Q354.8 39.440624 354.4406 40.08125Q353.97186 40.95625 353.3625 41.346874Q352.76874 41.753124 351.925 41.753124Q351.40936 41.753124 350.78436 41.55ZM366.22186 32.3625Q366.22186 29.4875 367.8156 28.096874Q369.15936 26.940624 371.08124 26.940624Q373.22186 26.940624 374.5656 28.346874Q375.925 29.753124 375.925 32.221874Q375.925 34.221874 375.33124 35.378124Q374.7375 36.51875 373.58124 37.159374Q372.4406 37.784374 371.08124 37.784374Q368.89374 37.784374 367.55 36.39375Q366.22186 34.9875 366.22186 32.3625ZM368.01874 32.3625Q368.01874 34.3625 368.8781 35.346874Q369.7531 36.33125 371.08124 36.33125Q372.39374 36.33125 373.2531 35.346874Q374.1281 34.346874 374.1281 32.3Q374.1281 30.378124 373.2531 29.39375Q372.3781 28.39375 371.08124 28.39375Q369.7531 28.39375 368.8781 29.39375Q368.01874 30.378124 368.01874 32.3625ZM378.28436 37.55L378.28436 28.55L376.7375 28.55L376.7375 27.175L378.28436 27.175L378.28436 26.08125Q378.28436 25.034374 378.47186 24.51875Q378.72186 23.83125 379.3625 23.409374Q380.0031 22.9875 381.15936 22.9875Q381.90936 22.9875 382.8 23.159374L382.53436 24.690624Q381.9875 24.596874 381.5031 24.596874Q380.70624 24.596874 380.3625 24.940624Q380.03436 25.284374 380.03436 26.221874L380.03436 27.175L382.0656 27.175L382.0656 28.55L380.03436 28.55L380.03436 37.55L378.28436 37.55ZM393.70624 35.971874L393.95624 37.534374Q393.22186 37.690624 392.6281 37.690624Q391.675 37.690624 391.14374 37.39375Q390.6281 37.08125 390.40936 36.596874Q390.1906 36.096874 390.1906 34.51875L390.1906 28.55L388.90936 28.55L388.90936 27.175L390.1906 27.175L390.1906 24.6125L391.9406 23.55L391.9406 27.175L393.70624 27.175L393.70624 28.55L391.9406 28.55L391.9406 34.6125Q391.9406 35.3625 392.03436 35.58125Q392.1281 35.784374 392.33124 35.925Q392.55 36.05 392.9406 36.05Q393.22186 36.05 393.70624 35.971874ZM395.8625 37.55L395.8625 23.2375L397.6281 23.2375L397.6281 28.3625Q398.8625 26.940624 400.7375 26.940624Q401.8781 26.940624 402.72186 27.39375Q403.58124 27.846874 403.9406 28.659374Q404.3156 29.45625 404.3156 30.971874L404.3156 37.55L402.5656 37.55L402.5656 30.971874Q402.5656 29.659374 401.9875 29.065624Q401.40936 28.45625 400.3781 28.45625Q399.59686 28.45625 398.89374 28.8625Q398.20624 29.26875 397.90936 29.971874Q397.6281 30.659374 397.6281 31.878124L397.6281 37.55L395.8625 37.55ZM413.97186 34.20625L415.78436 34.440624Q415.3625 36.01875 414.1906 36.909374Q413.03436 37.784374 411.22186 37.784374Q408.95624 37.784374 407.6125 36.39375Q406.28436 34.9875 406.28436 32.45625Q406.28436 29.83125 407.6281 28.39375Q408.97186 26.940624 411.1281 26.940624Q413.20624 26.940624 414.51874 28.3625Q415.84686 29.76875 415.84686 32.346874Q415.84686 32.503124 415.83124 32.815624L408.09686 32.815624Q408.1906 34.51875 409.0656 35.425Q409.9406 36.33125 411.2375 36.33125Q412.20624 36.33125 412.8781 35.83125Q413.5656 35.315624 413.97186 34.20625ZM408.1906 31.3625L413.9875 31.3625Q413.8781 30.065624 413.33124 29.409374Q412.4875 28.39375 411.14374 28.39375Q409.9406 28.39375 409.1125 29.20625Q408.28436 30.003124 408.1906 31.3625ZM424.28436 37.55L424.28436 28.55L422.7375 28.55L422.7375 27.175L424.28436 27.175L424.28436 26.08125Q424.28436 25.034374 424.47186 24.51875Q424.72186 23.83125 425.3625 23.409374Q426.0031 22.9875 427.15936 22.9875Q427.90936 22.9875 428.8 23.159374L428.53436 24.690624Q427.9875 24.596874 427.5031 24.596874Q426.70624 24.596874 426.3625 24.940624Q426.03436 25.284374 426.03436 26.221874L426.03436 27.175L428.0656 27.175L428.0656 28.55L426.03436 28.55L426.03436 37.55L424.28436 37.55ZM436.97186 34.20625L438.78436 34.440624Q438.3625 36.01875 437.1906 36.909374Q436.03436 37.784374 434.22186 37.784374Q431.95624 37.784374 430.6125 36.39375Q429.28436 34.9875 429.28436 32.45625Q429.28436 29.83125 430.6281 28.39375Q431.97186 26.940624 434.1281 26.940624Q436.20624 26.940624 437.51874 28.3625Q438.84686 29.76875 438.84686 32.346874Q438.84686 32.503124 438.83124 32.815624L431.09686 32.815624Q431.1906 34.51875 432.0656 35.425Q432.9406 36.33125 434.2375 36.33125Q435.20624 36.33125 435.8781 35.83125Q436.5656 35.315624 436.97186 34.20625ZM431.1906 31.3625L436.9875 31.3625Q436.8781 30.065624 436.33124 29.409374Q435.4875 28.39375 434.14374 28.39375Q432.9406 28.39375 432.1125 29.20625Q431.28436 30.003124 431.1906 31.3625ZM447.64374 36.26875Q446.65936 37.096874 445.7531 37.440624Q444.84686 37.784374 443.8156 37.784374Q442.1125 37.784374 441.1906 36.95625Q440.26874 36.1125 440.26874 34.815624Q440.26874 34.05 440.6125 33.425Q440.97186 32.8 441.53436 32.425Q442.09686 32.034374 442.8 31.83125Q443.3156 31.70625 444.3625 31.565624Q446.4875 31.315624 447.4875 30.971874Q447.5031 30.6125 447.5031 30.503124Q447.5031 29.440624 447.0031 28.9875Q446.33124 28.39375 445.0031 28.39375Q443.7531 28.39375 443.15936 28.83125Q442.58124 29.26875 442.3 30.378124L440.58124 30.14375Q440.8156 29.034374 441.34686 28.3625Q441.8781 27.675 442.89374 27.315624Q443.90936 26.940624 445.2531 26.940624Q446.58124 26.940624 447.40936 27.253124Q448.2375 27.565624 448.6281 28.05Q449.01874 28.51875 449.175 29.2375Q449.26874 29.690624 449.26874 30.8625L449.26874 33.20625Q449.26874 35.659374 449.3781 36.315624Q449.4875 36.95625 449.83124 37.55L447.9875 37.55Q447.72186 37.003124 447.64374 36.26875ZM447.4875 32.346874Q446.53436 32.7375 444.6125 33.003124Q443.53436 33.159374 443.08124 33.3625Q442.64374 33.55 442.39374 33.925Q442.14374 34.3 442.14374 34.76875Q442.14374 35.471874 442.675 35.940624Q443.20624 36.409374 444.2375 36.409374Q445.2531 36.409374 446.03436 35.971874Q446.83124 35.51875 447.20624 34.753124Q447.4875 34.14375 447.4875 32.9875L447.4875 32.346874ZM455.70624 35.971874L455.95624 37.534374Q455.22186 37.690624 454.6281 37.690624Q453.675 37.690624 453.14374 37.39375Q452.6281 37.08125 452.40936 36.596874Q452.1906 36.096874 452.1906 34.51875L452.1906 28.55L450.90936 28.55L450.90936 27.175L452.1906 27.175L452.1906 24.6125L453.9406 23.55L453.9406 27.175L455.70624 27.175L455.70624 28.55L453.9406 28.55L453.9406 34.6125Q453.9406 35.3625 454.03436 35.58125Q454.1281 35.784374 454.33124 35.925Q454.55 36.05 454.9406 36.05Q455.22186 36.05 455.70624 35.971874ZM464.65936 37.55L464.65936 36.01875Q463.45624 37.784374 461.3781 37.784374Q460.45624 37.784374 459.65936 37.440624Q458.8625 37.08125 458.47186 36.55Q458.09686 36.01875 457.9406 35.2375Q457.83124 34.721874 457.83124 33.596874L457.83124 27.175L459.58124 27.175L459.58124 32.925Q459.58124 34.3 459.6906 34.784374Q459.8625 35.471874 460.39374 35.878124Q460.9406 36.26875 461.72186 36.26875Q462.51874 36.26875 463.20624 35.8625Q463.90936 35.45625 464.1906 34.76875Q464.4875 34.065624 464.4875 32.7375L464.4875 27.175L466.2375 27.175L466.2375 37.55L464.65936 37.55ZM468.84686 37.55L468.84686 27.175L470.425 27.175L470.425 28.753124Q471.03436 27.64375 471.55 27.3Q472.0656 26.940624 472.675 26.940624Q473.5656 26.940624 474.4875 27.503124L473.8781 29.14375Q473.2375 28.753124 472.59686 28.753124Q472.01874 28.753124 471.55 29.1125Q471.09686 29.45625 470.89374 30.065624Q470.6125 31.003124 470.6125 32.1125L470.6125 37.55L468.84686 37.55ZM482.97186 34.20625L484.78436 34.440624Q484.3625 36.01875 483.1906 36.909374Q482.03436 37.784374 480.22186 37.784374Q477.95624 37.784374 476.6125 36.39375Q475.28436 34.9875 475.28436 32.45625Q475.28436 29.83125 476.6281 28.39375Q477.97186 26.940624 480.1281 26.940624Q482.20624 26.940624 483.51874 28.3625Q484.84686 29.76875 484.84686 32.346874Q484.84686 32.503124 484.83124 32.815624L477.09686 32.815624Q477.1906 34.51875 478.0656 35.425Q478.9406 36.33125 480.2375 36.33125Q481.20624 36.33125 481.8781 35.83125Q482.5656 35.315624 482.97186 34.20625ZM477.1906 31.3625L482.9875 31.3625Q482.8781 30.065624 482.33124 29.409374Q481.4875 28.39375 480.14374 28.39375Q478.9406 28.39375 478.1125 29.20625Q477.28436 30.003124 477.1906 31.3625ZM486.15936 34.45625L487.90936 34.175Q488.05 35.221874 488.72186 35.784374Q489.39374 36.33125 490.59686 36.33125Q491.8 36.33125 492.3781 35.846874Q492.97186 35.346874 492.97186 34.690624Q492.97186 34.096874 492.45624 33.753124Q492.09686 33.51875 490.65936 33.159374Q488.72186 32.659374 487.97186 32.315624Q487.2375 31.95625 486.84686 31.33125Q486.45624 30.690624 486.45624 29.925Q486.45624 29.2375 486.76874 28.64375Q487.09686 28.05 487.64374 27.659374Q488.05 27.3625 488.7531 27.159374Q489.47186 26.940624 490.28436 26.940624Q491.5031 26.940624 492.425 27.3Q493.34686 27.64375 493.78436 28.253124Q494.22186 28.846874 494.39374 29.846874L492.675 30.08125Q492.55 29.284374 491.9875 28.846874Q491.425 28.39375 490.40936 28.39375Q489.1906 28.39375 488.675 28.8Q488.15936 29.190624 488.15936 29.721874Q488.15936 30.065624 488.3781 30.346874Q488.58124 30.628124 489.05 30.815624Q489.3156 30.909374 490.59686 31.253124Q492.47186 31.753124 493.20624 32.08125Q493.9406 32.39375 494.3625 33.003124Q494.78436 33.596874 494.78436 34.503124Q494.78436 35.378124 494.26874 36.159374Q493.7531 36.940624 492.78436 37.3625Q491.8156 37.784374 490.59686 37.784374Q488.58124 37.784374 487.51874 36.940624Q486.45624 36.096874 486.15936 34.45625ZM506.70624 35.971874L506.95624 37.534374Q506.22186 37.690624 505.6281 37.690624Q504.675 37.690624 504.14374 37.39375Q503.6281 37.08125 503.40936 36.596874Q503.1906 36.096874 503.1906 34.51875L503.1906 28.55L501.90936 28.55L501.90936 27.175L503.1906 27.175L503.1906 24.6125L504.9406 23.55L504.9406 27.175L506.70624 27.175L506.70624 28.55L504.9406 28.55L504.9406 34.6125Q504.9406 35.3625 505.03436 35.58125Q505.1281 35.784374 505.33124 35.925Q505.55 36.05 505.9406 36.05Q506.22186 36.05 506.70624 35.971874ZM508.8625 37.55L508.8625 23.2375L510.6281 23.2375L510.6281 28.3625Q511.8625 26.940624 513.7375 26.940624Q514.8781 26.940624 515.72186 27.39375Q516.58124 27.846874 516.9406 28.659374Q517.3156 29.45625 517.3156 30.971874L517.3156 37.55L515.5656 37.55L515.5656 30.971874Q515.5656 29.659374 514.9875 29.065624Q514.40936 28.45625 513.3781 28.45625Q512.59686 28.45625 511.89374 28.8625Q511.20624 29.26875 510.90936 29.971874Q510.6281 30.659374 510.6281 31.878124L510.6281 37.55L508.8625 37.55ZM526.97186 34.20625L528.78436 34.440624Q528.3625 36.01875 527.1906 36.909374Q526.03436 37.784374 524.22186 37.784374Q521.95624 37.784374 520.6125 36.39375Q519.28436 34.9875 519.28436 32.45625Q519.28436 29.83125 520.6281 28.39375Q521.97186 26.940624 524.1281 26.940624Q526.20624 26.940624 527.51874 28.3625Q528.84686 29.76875 528.84686 32.346874Q528.84686 32.503124 528.83124 32.815624L521.09686 32.815624Q521.1906 34.51875 522.0656 35.425Q522.9406 36.33125 524.2375 36.33125Q525.20624 36.33125 525.8781 35.83125Q526.5656 35.315624 526.97186 34.20625ZM521.1906 31.3625L526.9875 31.3625Q526.8781 30.065624 526.33124 29.409374Q525.4875 28.39375 524.14374 28.39375Q522.9406 28.39375 522.1125 29.20625Q521.28436 30.003124 521.1906 31.3625ZM530.78436 41.55L530.59686 39.89375Q531.175 40.05 531.59686 40.05Q532.1906 40.05 532.53436 39.846874Q532.89374 39.659374 533.1125 39.315624Q533.28436 39.05 533.65936 38.003124Q533.70624 37.846874 533.8156 37.565624L529.8781 27.175L531.76874 27.175L533.925 33.190624Q534.34686 34.33125 534.675 35.58125Q534.9875 34.378124 535.39374 33.221874L537.6125 27.175L539.3781 27.175L535.425 37.721874Q534.8 39.440624 534.4406 40.08125Q533.97186 40.95625 533.3625 41.346874Q532.76874 41.753124 531.925 41.753124Q531.40936 41.753124 530.78436 41.55Z" fill-rule="nonzero"/><path fill="#757575" d="M19.846874 61.55L19.846874 51.175L21.425 51.175L21.425 52.753124Q22.034374 51.64375 22.55 51.3Q23.065624 50.940624 23.675 50.940624Q24.565624 50.940624 25.4875 51.503124L24.878124 53.14375Q24.2375 52.753124 23.596874 52.753124Q23.01875 52.753124 22.55 53.1125Q22.096874 53.45625 21.89375 54.065624Q21.6125 55.003124 21.6125 56.1125L21.6125 61.55L19.846874 61.55ZM33.971874 58.20625L35.784374 58.440624Q35.3625 60.01875 34.190624 60.909374Q33.034374 61.784374 31.221874 61.784374Q28.95625 61.784374 27.6125 60.39375Q26.284374 58.9875 26.284374 56.45625Q26.284374 53.83125 27.628124 52.39375Q28.971874 50.940624 31.128124 50.940624Q33.20625 50.940624 34.51875 52.3625Q35.846874 53.76875 35.846874 56.346874Q35.846874 56.503124 35.83125 56.815624L28.096874 56.815624Q28.190624 58.51875 29.065624 59.425Q29.940624 60.33125 31.2375 60.33125Q32.20625 60.33125 32.878124 59.83125Q33.565624 59.315624 33.971874 58.20625ZM28.190624 55.3625L33.9875 55.3625Q33.878124 54.065624 33.33125 53.409374Q32.4875 52.39375 31.14375 52.39375Q29.940624 52.39375 29.1125 53.20625Q28.284374 54.003124 28.190624 55.3625ZM37.8625 65.51875L37.8625 51.175L39.471874 51.175L39.471874 52.51875Q40.034374 51.7375 40.7375 51.346874Q41.45625 50.940624 42.471874 50.940624Q43.8 50.940624 44.815624 51.628124Q45.83125 52.315624 46.346874 53.565624Q46.878124 54.8 46.878124 56.284374Q46.878124 57.878124 46.3 59.159374Q45.7375 60.425 44.64375 61.1125Q43.55 61.784374 42.346874 61.784374Q41.471874 61.784374 40.76875 61.409374Q40.08125 61.034374 39.628124 60.471874L39.628124 65.51875L37.8625 65.51875ZM39.45625 56.425Q39.45625 58.425 40.26875 59.378124Q41.08125 60.33125 42.2375 60.33125Q43.409374 60.33125 44.2375 59.346874Q45.08125 58.3625 45.08125 56.26875Q45.08125 54.3 44.253124 53.315624Q43.440624 52.315624 42.315624 52.315624Q41.190624 52.315624 40.315624 53.378124Q39.45625 54.425 39.45625 56.425ZM48.846874 61.55L48.846874 51.175L50.425 51.175L50.425 52.753124Q51.034374 51.64375 51.55 51.3Q52.065624 50.940624 52.675 50.940624Q53.565624 50.940624 54.4875 51.503124L53.878124 53.14375Q53.2375 52.753124 52.596874 52.753124Q52.01875 52.753124 51.55 53.1125Q51.096874 53.45625 50.89375 54.065624Q50.6125 55.003124 50.6125 56.1125L50.6125 61.55L48.846874 61.55ZM62.971874 58.20625L64.78438 58.440624Q64.3625 60.01875 63.190624 60.909374Q62.034374 61.784374 60.221874 61.784374Q57.95625 61.784374 56.6125 60.39375Q55.284374 58.9875 55.284374 56.45625Q55.284374 53.83125 56.628124 52.39375Q57.971874 50.940624 60.128124 50.940624Q62.20625 50.940624 63.51875 52.3625Q64.84688 53.76875 64.84688 56.346874Q64.84688 56.503124 64.83125 56.815624L57.096874 56.815624Q57.190624 58.51875 58.065624 59.425Q58.940624 60.33125 60.2375 60.33125Q61.20625 60.33125 61.878124 59.83125Q62.565624 59.315624 62.971874 58.20625ZM57.190624 55.3625L62.9875 55.3625Q62.878124 54.065624 62.33125 53.409374Q61.4875 52.39375 60.14375 52.39375Q58.940624 52.39375 58.1125 53.20625Q57.284374 54.003124 57.190624 55.3625ZM66.15938 58.45625L67.90938 58.175Q68.05 59.221874 68.72188 59.784374Q69.39375 60.33125 70.59688 60.33125Q71.8 60.33125 72.37813 59.846874Q72.97188 59.346874 72.97188 58.690624Q72.97188 58.096874 72.45625 57.753124Q72.09688 57.51875 70.65938 57.159374Q68.72188 56.659374 67.97188 56.315624Q67.2375 55.95625 66.84688 55.33125Q66.45625 54.690624 66.45625 53.925Q66.45625 53.2375 66.76875 52.64375Q67.09688 52.05 67.64375 51.659374Q68.05 51.3625 68.75313 51.159374Q69.47188 50.940624 70.28438 50.940624Q71.50313 50.940624 72.425 51.3Q73.34688 51.64375 73.78438 52.253124Q74.22188 52.846874 74.39375 53.846874L72.675 54.08125Q72.55 53.284374 71.9875 52.846874Q71.425 52.39375 70.40938 52.39375Q69.19063 52.39375 68.675 52.8Q68.15938 53.190624 68.15938 53.721874Q68.15938 54.065624 68.37813 54.346874Q68.58125 54.628124 69.05 54.815624Q69.31563 54.909374 70.59688 55.253124Q72.47188 55.753124 73.20625 56.08125Q73.94063 56.39375 74.3625 57.003124Q74.78438 57.596874 74.78438 58.503124Q74.78438 59.378124 74.26875 60.159374Q73.75313 60.940624 72.78438 61.3625Q71.81563 61.784374 70.59688 61.784374Q68.58125 61.784374 67.51875 60.940624Q66.45625 60.096874 66.15938 58.45625ZM83.97188 58.20625L85.78438 58.440624Q85.3625 60.01875 84.19063 60.909374Q83.03438 61.784374 81.22188 61.784374Q78.95625 61.784374 77.6125 60.39375Q76.28438 58.9875 76.28438 56.45625Q76.28438 53.83125 77.62813 52.39375Q78.97188 50.940624 81.12813 50.940624Q83.20625 50.940624 84.51875 52.3625Q85.84688 53.76875 85.84688 56.346874Q85.84688 56.503124 85.83125 56.815624L78.09688 56.815624Q78.19063 58.51875 79.06563 59.425Q79.94063 60.33125 81.2375 60.33125Q82.20625 60.33125 82.87813 59.83125Q83.56563 59.315624 83.97188 58.20625ZM78.19063 55.3625L83.9875 55.3625Q83.87813 54.065624 83.33125 53.409374Q82.4875 52.39375 81.14375 52.39375Q79.94063 52.39375 79.1125 53.20625Q78.28438 54.003124 78.19063 55.3625ZM87.8625 61.55L87.8625 51.175L89.45625 51.175L89.45625 52.659374Q90.59688 50.940624 92.75313 50.940624Q93.69063 50.940624 94.47188 51.284374Q95.26875 51.6125 95.65938 52.159374Q96.05 52.70625 96.20625 53.45625Q96.3 53.95625 96.3 55.175L96.3 61.55L94.53438 61.55L94.53438 55.2375Q94.53438 54.159374 94.33125 53.628124Q94.12813 53.096874 93.59688 52.784374Q93.08125 52.471874 92.37813 52.471874Q91.25313 52.471874 90.44063 53.190624Q89.62813 53.89375 89.62813 55.878124L89.62813 61.55L87.8625 61.55ZM102.70625 59.971874L102.95625 61.534374Q102.22188 61.690624 101.62813 61.690624Q100.675 61.690624 100.14375 61.39375Q99.62813 61.08125 99.40938 60.596874Q99.19063 60.096874 99.19063 58.51875L99.19063 52.55L97.90938 52.55L97.90938 51.175L99.19063 51.175L99.19063 48.6125L100.94063 47.55L100.94063 51.175L102.70625 51.175L102.70625 52.55L100.94063 52.55L100.94063 58.6125Q100.94063 59.3625 101.03438 59.58125Q101.12813 59.784374 101.33125 59.925Q101.55 60.05 101.94063 60.05Q102.22188 60.05 102.70625 59.971874ZM108.15938 58.01875Q108.14375 57.675 108.14375 57.503124Q108.14375 56.45625 108.44063 55.70625Q108.65938 55.14375 109.14375 54.565624Q109.4875 54.14375 110.39375 53.346874Q111.31563 52.534374 111.58125 52.065624Q111.8625 51.58125 111.8625 51.01875Q111.8625 49.9875 111.05 49.221874Q110.25313 48.440624 109.09688 48.440624Q107.97188 48.440624 107.22188 49.14375Q106.47188 49.846874 106.2375 51.33125L104.425 51.1125Q104.675 49.1125 105.87813 48.05Q107.08125 46.9875 109.06563 46.9875Q111.175 46.9875 112.425 48.128124Q113.675 49.26875 113.675 50.89375Q113.675 51.83125 113.22188 52.628124Q112.78438 53.409374 111.50313 54.55Q110.64375 55.315624 110.37813 55.675Q110.12813 56.034374 109.9875 56.503124Q109.8625 56.971874 109.84688 58.01875L108.15938 58.01875ZM108.05 61.55L108.05 59.55L110.05 59.55L110.05 61.55L108.05 61.55Z" fill-rule="nonzero"/></svg>