<svg version="1.1" viewBox="0.0 0.0 600.0 371.0" fill="none" stroke="none" stroke-linecap="square" stroke-miterlimit="10" width="600" height="371" xmlns:xlink="http://www.w3.org/1999/xlink" xmlns="http://www.w3.org/2000/svg"><path fill="#ffffff" d="M0 0L600.0 0L600.0 371.0L0 371.0L0 0Z" fill-rule="nonzero"/><path fill="#2e5dab" d="M436.76666 225.94083C436.76666 254.74847 418.23523 282.0247 386.3118 300.20483L386.3118 279.68985C418.23523 261.5097 436.76666 234.23347 436.76666 205.42583Z" fill-rule="nonzero"/><path fill="#4285f4" d="M300.0 109.68916C357.87704 109.68916 409.48804 135.19087 428.86987 173.36557C448.25174 211.54027 431.20767 254.122 386.3118 279.68985L300.0 205.42583Z" fill-rule="nonzero"/><path fill="#34a853" d="M287.56314 110.085815C291.698 109.82152 295.84793 109.68916 300.0 109.68916L300.0 205.42583Z" fill-rule="nonzero"/><path fill="#fbbc04" d="M208.94894 133.9887C230.81808 120.33064 258.3766 111.9514 287.56314 110.085815L300.0 205.42583Z" fill-rule="nonzero"/><path fill="#a42f25" d="M386.3118 300.20483C345.37234 323.51956 288.92224 328.2649 241.26099 312.3982C193.5997 296.5315 163.23334 262.8845 163.23334 225.94083L163.23334 205.42583C163.23334 242.3695 193.5997 276.0165 241.26099 291.8832C288.92224 307.74988 345.37234 303.00455 386.3118 279.68985Z" fill-rule="nonzero"/><path fill="#ea4335" d="M386.3118 279.68985C328.6601 312.52203 244.1041 307.11728 195.90077 267.51892C147.69745 227.92055 153.49176 168.62367 208.94894 133.9887L300.0 205.42583Z" fill-rule="nonzero"/><path fill="#1a1a1a" d="M19.096874 95.52231L20.159374 95.42856Q20.2375 96.08481 20.51875 96.49106Q20.8 96.89731 21.378124 97.16293Q21.971874 97.41293 22.70625 97.41293Q23.346874 97.41293 23.846874 97.22543Q24.346874 97.02231 24.58125 96.69418Q24.83125 96.35043 24.83125 95.95981Q24.83125 95.55356 24.596874 95.25668Q24.3625 94.94418 23.83125 94.74106Q23.471874 94.60043 22.284374 94.31918Q21.1125 94.03793 20.64375 93.78793Q20.01875 93.45981 19.721874 92.99106Q19.425 92.50668 19.425 91.91293Q19.425 91.27231 19.784374 90.70981Q20.159374 90.13168 20.8625 89.85043Q21.58125 89.55356 22.440624 89.55356Q23.39375 89.55356 24.128124 89.86606Q24.8625 90.16293 25.253124 90.77231Q25.64375 91.36606 25.675 92.11606L24.58125 92.19418Q24.4875 91.38168 23.971874 90.97543Q23.471874 90.55356 22.4875 90.55356Q21.45625 90.55356 20.9875 90.92856Q20.51875 91.30356 20.51875 91.83481Q20.51875 92.30356 20.846874 92.60043Q21.175 92.89731 22.55 93.20981Q23.940624 93.52231 24.45625 93.75668Q25.20625 94.11606 25.565624 94.64731Q25.925 95.16293 25.925 95.86606Q25.925 96.55356 25.534374 97.16293Q25.14375 97.75668 24.409374 98.10043Q23.675 98.42856 22.753124 98.42856Q21.58125 98.42856 20.784374 98.10043Q20.003124 97.75668 19.55 97.06918Q19.1125 96.38168 19.096874 95.52231ZM29.64375 97.35043L29.8 98.27231Q29.346874 98.36606 29.003124 98.36606Q28.425 98.36606 28.1125 98.19418Q27.8 98.00668 27.659374 97.70981Q27.534374 97.41293 27.534374 96.45981L27.534374 92.88168L26.76875 92.88168L26.76875 92.06918L27.534374 92.06918L27.534374 90.52231L28.58125 89.89731L28.58125 92.06918L29.64375 92.06918L29.64375 92.88168L28.58125 92.88168L28.58125 96.52231Q28.58125 96.97543 28.628124 97.10043Q28.690624 97.22543 28.815624 97.30356Q28.940624 97.38168 29.175 97.38168Q29.3625 97.38168 29.64375 97.35043ZM30.33125 98.28793L30.33125 92.06918L31.284374 92.06918L31.284374 93.00668Q31.64375 92.35043 31.940624 92.14731Q32.253124 91.92856 32.628124 91.92856Q33.159374 91.92856 33.70625 92.25668L33.346874 93.24106Q32.95625 93.00668 32.58125 93.00668Q32.221874 93.00668 31.940624 93.22543Q31.675 93.42856 31.565624 93.80356Q31.378124 94.36606 31.378124 95.02231L31.378124 98.28793L30.33125 98.28793ZM33.95625 95.17856Q33.95625 93.44418 34.909374 92.61606Q35.70625 91.92856 36.8625 91.92856Q38.14375 91.92856 38.95625 92.77231Q39.784374 93.60043 39.784374 95.08481Q39.784374 96.28793 39.425 96.97543Q39.065624 97.66293 38.3625 98.05356Q37.675 98.42856 36.8625 98.42856Q35.565624 98.42856 34.753124 97.60043Q33.95625 96.75668 33.95625 95.17856ZM35.034374 95.17856Q35.034374 96.36606 35.55 96.95981Q36.08125 97.55356 36.8625 97.55356Q37.659374 97.55356 38.175 96.95981Q38.690624 96.36606 38.690624 95.14731Q38.690624 93.99106 38.159374 93.39731Q37.64375 92.80356 36.8625 92.80356Q36.08125 92.80356 35.55 93.39731Q35.034374 93.97543 35.034374 95.17856ZM41.346874 98.28793L41.346874 92.06918L42.284374 92.06918L42.284374 92.94418Q42.971874 91.92856 44.26875 91.92856Q44.83125 91.92856 45.3 92.13168Q45.784374 92.33481 46.01875 92.66293Q46.253124 92.99106 46.346874 93.42856Q46.39375 93.72543 46.39375 94.45981L46.39375 98.28793L45.346874 98.28793L45.346874 94.50668Q45.346874 93.85043 45.221874 93.53793Q45.096874 93.22543 44.784374 93.03793Q44.471874 92.83481 44.05 92.83481Q43.378124 92.83481 42.878124 93.27231Q42.39375 93.69418 42.39375 94.88168L42.39375 98.28793L41.346874 98.28793ZM48.14375 98.80356L49.175 98.95981Q49.2375 99.42856 49.534374 99.64731Q49.925 99.94418 50.596874 99.94418Q51.33125 99.94418 51.721874 99.64731Q52.128124 99.35043 52.26875 98.83481Q52.3625 98.50668 52.346874 97.47543Q51.659374 98.28793 50.628124 98.28793Q49.346874 98.28793 48.64375 97.36606Q47.940624 96.42856 47.940624 95.14731Q47.940624 94.25668 48.253124 93.50668Q48.58125 92.74106 49.190624 92.33481Q49.8 91.92856 50.628124 91.92856Q51.7375 91.92856 52.45625 92.81918L52.45625 92.06918L53.425 92.06918L53.425 97.44418Q53.425 98.89731 53.128124 99.50668Q52.83125 100.11606 52.190624 100.45981Q51.55 100.81918 50.6125 100.81918Q49.503124 100.81918 48.815624 100.31918Q48.128124 99.81918 48.14375 98.80356ZM49.01875 95.06918Q49.01875 96.28793 49.503124 96.85043Q49.9875 97.41293 50.721874 97.41293Q51.45625 97.41293 51.940624 96.85043Q52.440624 96.28793 52.440624 95.10043Q52.440624 93.95981 51.925 93.38168Q51.425 92.80356 50.70625 92.80356Q50.003124 92.80356 49.503124 93.38168Q49.01875 93.94418 49.01875 95.06918ZM55.315624 98.28793L55.315624 89.69418L56.378124 89.69418L56.378124 98.28793L55.315624 98.28793ZM58.3 100.67856L58.175 99.69418Q58.51875 99.78793 58.784374 99.78793Q59.128124 99.78793 59.33125 99.66293Q59.55 99.55356 59.690624 99.35043Q59.784374 99.17856 60.01875 98.55356Q60.034374 98.47543 60.1125 98.30356L57.7375 92.06918L58.878124 92.06918L60.175 95.66293Q60.425 96.35043 60.628124 97.11606Q60.815624 96.38168 61.065624 95.69418L62.39375 92.06918L63.440624 92.06918L61.08125 98.39731Q60.690624 99.41293 60.4875 99.80356Q60.20625 100.33481 59.83125 100.56918Q59.471874 100.81918 58.971874 100.81918Q58.675 100.81918 58.3 100.67856ZM71.37813 98.28793L71.37813 97.50668Q70.78438 98.42856 69.64375 98.42856Q68.89375 98.42856 68.26875 98.02231Q67.64375 97.60043 67.3 96.86606Q66.95625 96.13168 66.95625 95.17856Q66.95625 94.25668 67.26875 93.49106Q67.58125 92.72543 68.20625 92.33481Q68.83125 91.92856 69.59688 91.92856Q70.15938 91.92856 70.59688 92.16293Q71.03438 92.39731 71.31563 92.77231L71.31563 89.69418L72.3625 89.69418L72.3625 98.28793L71.37813 98.28793ZM68.05 95.17856Q68.05 96.38168 68.55 96.97543Q69.05 97.55356 69.7375 97.55356Q70.425 97.55356 70.90938 96.99106Q71.39375 96.42856 71.39375 95.27231Q71.39375 93.99106 70.89375 93.39731Q70.40938 92.80356 69.69063 92.80356Q68.9875 92.80356 68.51875 93.38168Q68.05 93.94418 68.05 95.17856ZM74.34688 90.91293L74.34688 89.69418L75.40938 89.69418L75.40938 90.91293L74.34688 90.91293ZM74.34688 98.28793L74.34688 92.06918L75.40938 92.06918L75.40938 98.28793L74.34688 98.28793ZM76.925 96.42856L77.95625 96.27231Q78.05 96.89731 78.44063 97.22543Q78.84688 97.55356 79.58125 97.55356Q80.3 97.55356 80.64375 97.27231Q81.00313 96.97543 81.00313 96.56918Q81.00313 96.20981 80.69063 96.00668Q80.47188 95.86606 79.6125 95.64731Q78.45625 95.35043 78.00313 95.14731Q77.56563 94.92856 77.33125 94.55356Q77.09688 94.17856 77.09688 93.70981Q77.09688 93.30356 77.28438 92.94418Q77.47188 92.58481 77.8 92.35043Q78.05 92.17856 78.47188 92.05356Q78.89375 91.92856 79.39375 91.92856Q80.1125 91.92856 80.65938 92.14731Q81.22188 92.35043 81.4875 92.70981Q81.75313 93.06918 81.84688 93.66293L80.81563 93.80356Q80.75313 93.33481 80.40938 93.06918Q80.08125 92.78793 79.45625 92.78793Q78.7375 92.78793 78.425 93.03793Q78.1125 93.27231 78.1125 93.60043Q78.1125 93.80356 78.2375 93.95981Q78.37813 94.13168 78.64375 94.24106Q78.8 94.30356 79.58125 94.50668Q80.70625 94.81918 81.14375 95.00668Q81.58125 95.19418 81.83125 95.55356Q82.08125 95.91293 82.08125 96.45981Q82.08125 96.99106 81.76875 97.45981Q81.47188 97.91293 80.89375 98.17856Q80.31563 98.42856 79.58125 98.42856Q78.3625 98.42856 77.72188 97.92856Q77.09688 97.41293 76.925 96.42856ZM87.40938 97.52231Q86.81563 98.02231 86.26875 98.22543Q85.7375 98.42856 85.1125 98.42856Q84.08125 98.42856 83.53438 97.92856Q82.9875 97.42856 82.9875 96.64731Q82.9875 96.19418 83.19063 95.81918Q83.39375 95.42856 83.7375 95.20981Q84.08125 94.97543 84.50313 94.86606Q84.8 94.77231 85.44063 94.69418Q86.70625 94.55356 87.31563 94.33481Q87.31563 94.11606 87.31563 94.06918Q87.31563 93.41293 87.01875 93.14731Q86.6125 92.80356 85.81563 92.80356Q85.08125 92.80356 84.72188 93.06918Q84.3625 93.31918 84.19063 93.97543L83.15938 93.83481Q83.3 93.17856 83.62813 92.77231Q83.95625 92.36606 84.56563 92.14731Q85.175 91.92856 85.97188 91.92856Q86.76875 91.92856 87.26875 92.11606Q87.76875 92.30356 88.00313 92.58481Q88.2375 92.86606 88.33125 93.30356Q88.37813 93.56918 88.37813 94.27231L88.37813 95.67856Q88.37813 97.14731 88.44063 97.53793Q88.51875 97.92856 88.72188 98.28793L87.6125 98.28793Q87.45625 97.95981 87.40938 97.52231ZM87.31563 95.16293Q86.7375 95.39731 85.59688 95.56918Q84.94063 95.66293 84.675 95.78793Q84.40938 95.89731 84.25313 96.11606Q84.1125 96.33481 84.1125 96.61606Q84.1125 97.03793 84.425 97.31918Q84.75313 97.60043 85.3625 97.60043Q85.97188 97.60043 86.44063 97.33481Q86.925 97.06918 87.14375 96.60043Q87.31563 96.24106 87.31563 95.55356L87.31563 95.16293ZM90.14375 98.80356L91.175 98.95981Q91.2375 99.42856 91.53438 99.64731Q91.925 99.94418 92.59688 99.94418Q93.33125 99.94418 93.72188 99.64731Q94.12813 99.35043 94.26875 98.83481Q94.3625 98.50668 94.34688 97.47543Q93.65938 98.28793 92.62813 98.28793Q91.34688 98.28793 90.64375 97.36606Q89.94063 96.42856 89.94063 95.14731Q89.94063 94.25668 90.25313 93.50668Q90.58125 92.74106 91.19063 92.33481Q91.8 91.92856 92.62813 91.92856Q93.7375 91.92856 94.45625 92.81918L94.45625 92.06918L95.425 92.06918L95.425 97.44418Q95.425 98.89731 95.12813 99.50668Q94.83125 100.11606 94.19063 100.45981Q93.55 100.81918 92.6125 100.81918Q91.50313 100.81918 90.81563 100.31918Q90.12813 99.81918 90.14375 98.80356ZM91.01875 95.06918Q91.01875 96.28793 91.50313 96.85043Q91.9875 97.41293 92.72188 97.41293Q93.45625 97.41293 93.94063 96.85043Q94.44063 96.28793 94.44063 95.10043Q94.44063 93.95981 93.925 93.38168Q93.425 92.80356 92.70625 92.80356Q92.00313 92.80356 91.50313 93.38168Q91.01875 93.94418 91.01875 95.06918ZM97.33125 98.28793L97.33125 92.06918L98.28438 92.06918L98.28438 93.00668Q98.64375 92.35043 98.94063 92.14731Q99.25313 91.92856 99.62813 91.92856Q100.15938 91.92856 100.70625 92.25668L100.34688 93.24106Q99.95625 93.00668 99.58125 93.00668Q99.22188 93.00668 98.94063 93.22543Q98.675 93.42856 98.56563 93.80356Q98.37813 94.36606 98.37813 95.02231L98.37813 98.28793L97.33125 98.28793ZM105.59688 96.28793L106.69063 96.41293Q106.44063 97.36606 105.7375 97.89731Q105.03438 98.42856 103.95625 98.42856Q102.59688 98.42856 101.78438 97.58481Q100.9875 96.74106 100.9875 95.22543Q100.9875 93.66293 101.8 92.80356Q102.6125 91.92856 103.89375 91.92856Q105.14375 91.92856 105.925 92.77231Q106.72188 93.61606 106.72188 95.16293Q106.72188 95.25668 106.72188 95.44418L102.08125 95.44418Q102.14375 96.47543 102.65938 97.02231Q103.175 97.55356 103.95625 97.55356Q104.53438 97.55356 104.94063 97.25668Q105.3625 96.94418 105.59688 96.28793ZM102.14375 94.58481L105.6125 94.58481Q105.55 93.78793 105.22188 93.39731Q104.70625 92.78793 103.90938 92.78793Q103.175 92.78793 102.675 93.27231Q102.19063 93.75668 102.14375 94.58481ZM112.59688 96.28793L113.69063 96.41293Q113.44063 97.36606 112.7375 97.89731Q112.03438 98.42856 110.95625 98.42856Q109.59688 98.42856 108.78438 97.58481Q107.9875 96.74106 107.9875 95.22543Q107.9875 93.66293 108.8 92.80356Q109.6125 91.92856 110.89375 91.92856Q112.14375 91.92856 112.925 92.77231Q113.72188 93.61606 113.72188 95.16293Q113.72188 95.25668 113.72188 95.44418L109.08125 95.44418Q109.14375 96.47543 109.65938 97.02231Q110.175 97.55356 110.95625 97.55356Q111.53438 97.55356 111.94063 97.25668Q112.3625 96.94418 112.59688 96.28793ZM109.14375 94.58481L112.6125 94.58481Q112.55 93.78793 112.22188 93.39731Q111.70625 92.78793 110.90938 92.78793Q110.175 92.78793 109.675 93.27231Q109.19063 93.75668 109.14375 94.58481Z" fill-rule="nonzero"/><path fill="#9e9e9e" d="M23.01875 115.28793L21.971874 115.28793L21.971874 108.56918Q21.58125 108.92856 20.95625 109.30356Q20.346874 109.66293 19.8625 109.83481L19.8625 108.81918Q20.7375 108.39731 21.39375 107.81918Q22.065624 107.22543 22.346874 106.66293L23.01875 106.66293L23.01875 115.28793ZM26.6125 115.28793L26.6125 114.08481L27.815624 114.08481L27.815624 115.28793Q27.815624 115.94418 27.58125 116.35043Q27.346874 116.77231 26.846874 116.99106L26.55 116.53793Q26.878124 116.39731 27.034374 116.10043Q27.190624 115.81918 27.221874 115.28793L26.6125 115.28793ZM32.425 115.28793L32.425 113.22543L28.70625 113.22543L28.70625 112.25668L32.628124 106.69418L33.4875 106.69418L33.4875 112.25668L34.64375 112.25668L34.64375 113.22543L33.4875 113.22543L33.4875 115.28793L32.425 115.28793ZM32.425 112.25668L32.425 108.39731L29.7375 112.25668L32.425 112.25668ZM36.253124 108.75668Q36.253124 107.83481 36.70625 107.19418Q37.175 106.55356 38.05 106.55356Q38.8625 106.55356 39.39375 107.13168Q39.925 107.70981 39.925 108.81918Q39.925 109.91293 39.378124 110.50668Q38.846874 111.08481 38.065624 111.08481Q37.284374 111.08481 36.76875 110.50668Q36.253124 109.92856 36.253124 108.75668ZM38.08125 107.27231Q37.690624 107.27231 37.425 107.61606Q37.175 107.95981 37.175 108.86606Q37.175 109.69418 37.425 110.03793Q37.690624 110.36606 38.08125 110.36606Q38.4875 110.36606 38.7375 110.02231Q39.003124 109.67856 39.003124 108.78793Q39.003124 107.94418 38.7375 107.61606Q38.471874 107.27231 38.08125 107.27231ZM38.08125 115.60043L42.784374 106.55356L43.64375 106.55356L38.95625 115.60043L38.08125 115.60043ZM41.8 113.27231Q41.8 112.35043 42.253124 111.70981Q42.721874 111.06918 43.6125 111.06918Q44.425 111.06918 44.95625 111.64731Q45.4875 112.20981 45.4875 113.33481Q45.4875 114.42856 44.940624 115.02231Q44.409374 115.60043 43.6125 115.60043Q42.846874 115.60043 42.315624 115.02231Q41.8 114.44418 41.8 113.27231ZM43.64375 111.78793Q43.2375 111.78793 42.971874 112.13168Q42.721874 112.47543 42.721874 113.38168Q42.721874 114.19418 42.9875 114.53793Q43.253124 114.88168 43.64375 114.88168Q44.034374 114.88168 44.3 114.53793Q44.565624 114.19418 44.565624 113.28793Q44.565624 112.45981 44.3 112.13168Q44.034374 111.78793 43.64375 111.78793Z" fill-rule="nonzero"/><path stroke="#757575" stroke-width="1.0" stroke-linecap="butt" d="M18.55 102.78793L157.23334 102.78793L294.08636 114.57025" fill-rule="nonzero"/><path fill="#9e9e9e" d="M296.08636 114.57025C296.08636 113.46568 295.19095 112.57025 294.08636 112.57025C292.98178 112.57025 292.08636 113.46568 292.08636 114.57025C292.08636 115.67482 292.98178 116.57025 294.08636 116.57025C295.19095 116.57025 296.08636 115.67482 296.08636 114.57025" fill-rule="nonzero"/><path fill="#1a1a1a" d="M19.471874 129.28793L19.471874 120.69418L22.440624 120.69418Q23.440624 120.69418 23.971874 120.81918Q24.70625 120.99106 25.221874 121.42856Q25.909374 122.00668 26.2375 122.91293Q26.58125 123.80356 26.58125 124.94418Q26.58125 125.92856 26.346874 126.67856Q26.128124 127.42856 25.76875 127.92856Q25.409374 128.42856 24.971874 128.70981Q24.55 128.99106 23.95625 129.14731Q23.3625 129.28793 22.58125 129.28793L19.471874 129.28793ZM20.6125 128.27231L22.440624 128.27231Q23.3 128.27231 23.784374 128.11606Q24.26875 127.95981 24.55 127.66293Q24.95625 127.27231 25.175 126.58481Q25.409374 125.89731 25.409374 124.92856Q25.409374 123.58481 24.95625 122.86606Q24.51875 122.13168 23.89375 121.88168Q23.425 121.70981 22.425 121.70981L20.6125 121.70981L20.6125 128.27231ZM28.346874 121.91293L28.346874 120.69418L29.409374 120.69418L29.409374 121.91293L28.346874 121.91293ZM28.346874 129.28793L28.346874 123.06918L29.409374 123.06918L29.409374 129.28793L28.346874 129.28793ZM30.925 127.42856L31.95625 127.27231Q32.05 127.89731 32.440624 128.22543Q32.846874 128.55356 33.58125 128.55356Q34.3 128.55356 34.64375 128.27231Q35.003124 127.97543 35.003124 127.56918Q35.003124 127.20981 34.690624 127.00668Q34.471874 126.86606 33.6125 126.64731Q32.45625 126.35043 32.003124 126.14731Q31.565624 125.92856 31.33125 125.55356Q31.096874 125.17856 31.096874 124.70981Q31.096874 124.30356 31.284374 123.94418Q31.471874 123.58481 31.8 123.35043Q32.05 123.17856 32.471874 123.05356Q32.89375 122.92856 33.39375 122.92856Q34.1125 122.92856 34.659374 123.14731Q35.221874 123.35043 35.4875 123.70981Q35.753124 124.06918 35.846874 124.66293L34.815624 124.80356Q34.753124 124.33481 34.409374 124.06918Q34.08125 123.78793 33.45625 123.78793Q32.7375 123.78793 32.425 124.03793Q32.1125 124.27231 32.1125 124.60043Q32.1125 124.80356 32.2375 124.95981Q32.378124 125.13168 32.64375 125.24106Q32.8 125.30356 33.58125 125.50668Q34.70625 125.81918 35.14375 126.00668Q35.58125 126.19418 35.83125 126.55356Q36.08125 126.91293 36.08125 127.45981Q36.08125 127.99106 35.76875 128.45981Q35.471874 128.91293 34.89375 129.17856Q34.315624 129.42856 33.58125 129.42856Q32.3625 129.42856 31.721874 128.92856Q31.096874 128.41293 30.925 127.42856ZM41.409374 128.52231Q40.815624 129.02231 40.26875 129.22543Q39.7375 129.42856 39.1125 129.42856Q38.08125 129.42856 37.534374 128.92856Q36.9875 128.42856 36.9875 127.64731Q36.9875 127.19418 37.190624 126.81918Q37.39375 126.42856 37.7375 126.20981Q38.08125 125.97543 38.503124 125.86606Q38.8 125.77231 39.440624 125.69418Q40.70625 125.55356 41.315624 125.33481Q41.315624 125.11606 41.315624 125.06918Q41.315624 124.41293 41.01875 124.14731Q40.6125 123.80356 39.815624 123.80356Q39.08125 123.80356 38.721874 124.06918Q38.3625 124.31918 38.190624 124.97543L37.159374 124.83481Q37.3 124.17856 37.628124 123.77231Q37.95625 123.36606 38.565624 123.14731Q39.175 122.92856 39.971874 122.92856Q40.76875 122.92856 41.26875 123.11606Q41.76875 123.30356 42.003124 123.58481Q42.2375 123.86606 42.33125 124.30356Q42.378124 124.56918 42.378124 125.27231L42.378124 126.67856Q42.378124 128.14731 42.440624 128.53793Q42.51875 128.92856 42.721874 129.28793L41.6125 129.28793Q41.45625 128.95981 41.409374 128.52231ZM41.315624 126.16293Q40.7375 126.39731 39.596874 126.56918Q38.940624 126.66293 38.675 126.78793Q38.409374 126.89731 38.253124 127.11606Q38.1125 127.33481 38.1125 127.61606Q38.1125 128.03793 38.425 128.31918Q38.753124 128.60043 39.3625 128.60043Q39.971874 128.60043 40.440624 128.33481Q40.925 128.06918 41.14375 127.60043Q41.315624 127.24106 41.315624 126.55356L41.315624 126.16293ZM44.14375 129.80356L45.175 129.95981Q45.2375 130.42856 45.534374 130.64731Q45.925 130.94418 46.596874 130.94418Q47.33125 130.94418 47.721874 130.64731Q48.128124 130.35043 48.26875 129.83481Q48.3625 129.50668 48.346874 128.47543Q47.659374 129.28793 46.628124 129.28793Q45.346874 129.28793 44.64375 128.36606Q43.940624 127.42856 43.940624 126.14731Q43.940624 125.25668 44.253124 124.50668Q44.58125 123.74106 45.190624 123.33481Q45.8 122.92856 46.628124 122.92856Q47.7375 122.92856 48.45625 123.81918L48.45625 123.06918L49.425 123.06918L49.425 128.44418Q49.425 129.89731 49.128124 130.50668Q48.83125 131.11606 48.190624 131.45981Q47.55 131.81918 46.6125 131.81918Q45.503124 131.81918 44.815624 131.31918Q44.128124 130.81918 44.14375 129.80356ZM45.01875 126.06918Q45.01875 127.28793 45.503124 127.85043Q45.9875 128.41293 46.721874 128.41293Q47.45625 128.41293 47.940624 127.85043Q48.440624 127.28793 48.440624 126.10043Q48.440624 124.95981 47.925 124.38168Q47.425 123.80356 46.70625 123.80356Q46.003124 123.80356 45.503124 124.38168Q45.01875 124.94418 45.01875 126.06918ZM51.33125 129.28793L51.33125 123.06918L52.284374 123.06918L52.284374 124.00668Q52.64375 123.35043 52.940624 123.14731Q53.253124 122.92856 53.628124 122.92856Q54.159374 122.92856 54.70625 123.25668L54.346874 124.24106Q53.95625 124.00668 53.58125 124.00668Q53.221874 124.00668 52.940624 124.22543Q52.675 124.42856 52.565624 124.80356Q52.378124 125.36606 52.378124 126.02231L52.378124 129.28793L51.33125 129.28793ZM59.596874 127.28793L60.690624 127.41293Q60.440624 128.36606 59.7375 128.89731Q59.034374 129.42856 57.95625 129.42856Q56.596874 129.42856 55.784374 128.58481Q54.9875 127.74106 54.9875 126.22543Q54.9875 124.66293 55.8 123.80356Q56.6125 122.92856 57.89375 122.92856Q59.14375 122.92856 59.925 123.77231Q60.721874 124.61606 60.721874 126.16293Q60.721874 126.25668 60.721874 126.44418L56.08125 126.44418Q56.14375 127.47543 56.659374 128.02231Q57.175 128.55356 57.95625 128.55356Q58.534374 128.55356 58.940624 128.25668Q59.3625 127.94418 59.596874 127.28793ZM56.14375 125.58481L59.6125 125.58481Q59.55 124.78793 59.221874 124.39731Q58.70625 123.78793 57.909374 123.78793Q57.175 123.78793 56.675 124.27231Q56.190624 124.75668 56.14375 125.58481ZM66.59688 127.28793L67.69063 127.41293Q67.44063 128.36606 66.7375 128.89731Q66.03438 129.42856 64.95625 129.42856Q63.596874 129.42856 62.784374 128.58481Q61.9875 127.74106 61.9875 126.22543Q61.9875 124.66293 62.8 123.80356Q63.6125 122.92856 64.89375 122.92856Q66.14375 122.92856 66.925 123.77231Q67.72188 124.61606 67.72188 126.16293Q67.72188 126.25668 67.72188 126.44418L63.08125 126.44418Q63.14375 127.47543 63.659374 128.02231Q64.175 128.55356 64.95625 128.55356Q65.53438 128.55356 65.94063 128.25668Q66.3625 127.94418 66.59688 127.28793ZM63.14375 125.58481L66.6125 125.58481Q66.55 124.78793 66.22188 124.39731Q65.70625 123.78793 64.90938 123.78793Q64.175 123.78793 63.675 124.27231Q63.190624 124.75668 63.14375 125.58481Z" fill-rule="nonzero"/><path fill="#9e9e9e" d="M23.01875 146.28793L21.971874 146.28793L21.971874 139.56918Q21.58125 139.92856 20.95625 140.30356Q20.346874 140.66293 19.8625 140.83481L19.8625 139.81918Q20.7375 139.39731 21.39375 138.81918Q22.065624 138.22543 22.346874 137.66293L23.01875 137.66293L23.01875 146.28793ZM26.05 142.05356Q26.05 140.52231 26.3625 139.60043Q26.675 138.66293 27.284374 138.16293Q27.909374 137.66293 28.846874 137.66293Q29.534374 137.66293 30.05 137.94418Q30.58125 138.22543 30.925 138.75668Q31.26875 139.27231 31.45625 140.02231Q31.64375 140.77231 31.64375 142.05356Q31.64375 143.56918 31.33125 144.49106Q31.034374 145.41293 30.409374 145.92856Q29.8 146.42856 28.846874 146.42856Q27.6125 146.42856 26.89375 145.53793Q26.05 144.47543 26.05 142.05356ZM27.128124 142.05356Q27.128124 144.16293 27.628124 144.86606Q28.128124 145.56918 28.846874 145.56918Q29.58125 145.56918 30.065624 144.86606Q30.565624 144.16293 30.565624 142.05356Q30.565624 139.92856 30.065624 139.24106Q29.58125 138.53793 28.83125 138.53793Q28.1125 138.53793 27.675 139.14731Q27.128124 139.92856 27.128124 142.05356ZM33.6125 146.28793L33.6125 145.08481L34.815624 145.08481L34.815624 146.28793Q34.815624 146.94418 34.58125 147.35043Q34.346874 147.77231 33.846874 147.99106L33.55 147.53793Q33.878124 147.39731 34.034374 147.10043Q34.190624 146.81918 34.221874 146.28793L33.6125 146.28793ZM40.01875 146.28793L38.971874 146.28793L38.971874 139.56918Q38.58125 139.92856 37.95625 140.30356Q37.346874 140.66293 36.8625 140.83481L36.8625 139.81918Q37.7375 139.39731 38.39375 138.81918Q39.065624 138.22543 39.346874 137.66293L40.01875 137.66293L40.01875 146.28793ZM43.253124 139.75668Q43.253124 138.83481 43.70625 138.19418Q44.175 137.55356 45.05 137.55356Q45.8625 137.55356 46.39375 138.13168Q46.925 138.70981 46.925 139.81918Q46.925 140.91293 46.378124 141.50668Q45.846874 142.08481 45.065624 142.08481Q44.284374 142.08481 43.76875 141.50668Q43.253124 140.92856 43.253124 139.75668ZM45.08125 138.27231Q44.690624 138.27231 44.425 138.61606Q44.175 138.95981 44.175 139.86606Q44.175 140.69418 44.425 141.03793Q44.690624 141.36606 45.08125 141.36606Q45.4875 141.36606 45.7375 141.02231Q46.003124 140.67856 46.003124 139.78793Q46.003124 138.94418 45.7375 138.61606Q45.471874 138.27231 45.08125 138.27231ZM45.08125 146.60043L49.784374 137.55356L50.64375 137.55356L45.95625 146.60043L45.08125 146.60043ZM48.8 144.27231Q48.8 143.35043 49.253124 142.70981Q49.721874 142.06918 50.6125 142.06918Q51.425 142.06918 51.95625 142.64731Q52.4875 143.20981 52.4875 144.33481Q52.4875 145.42856 51.940624 146.02231Q51.409374 146.60043 50.6125 146.60043Q49.846874 146.60043 49.315624 146.02231Q48.8 145.44418 48.8 144.27231ZM50.64375 142.78793Q50.2375 142.78793 49.971874 143.13168Q49.721874 143.47543 49.721874 144.38168Q49.721874 145.19418 49.9875 145.53793Q50.253124 145.88168 50.64375 145.88168Q51.034374 145.88168 51.3 145.53793Q51.565624 145.19418 51.565624 144.28793Q51.565624 143.45981 51.3 143.13168Q51.034374 142.78793 50.64375 142.78793Z" fill-rule="nonzero"/><path stroke="#757575" stroke-width="1.0" stroke-linecap="butt" d="M18.55 133.78793L157.23334 133.78793L248.2364 122.005615" fill-rule="nonzero"/><path fill="#9e9e9e" d="M250.2364 122.005615C250.2364 120.90105 249.34097 120.005615 248.2364 120.005615C247.13184 120.005615 246.2364 120.90105 246.2364 122.005615C246.2364 123.11019 247.13184 124.005615 248.2364 124.005615C249.34097 124.005615 250.2364 123.11019 250.2364 122.005615" fill-rule="nonzero"/><path fill="#1a1a1a" d="M18.534374 259.91428L21.83125 251.32053L23.05 251.32053L26.565624 259.91428L25.284374 259.91428L24.26875 257.3049L20.690624 257.3049L19.7375 259.91428L18.534374 259.91428ZM21.01875 256.38303L23.925 256.38303L23.034374 254.00803Q22.6125 252.9299 22.425 252.22678Q22.253124 253.0549 21.95625 253.8674L21.01875 256.38303ZM27.14375 260.4299L28.175 260.58615Q28.2375 261.0549 28.534374 261.27365Q28.925 261.57053 29.596874 261.57053Q30.33125 261.57053 30.721874 261.27365Q31.128124 260.97678 31.26875 260.46115Q31.3625 260.13303 31.346874 259.10178Q30.659374 259.91428 29.628124 259.91428Q28.346874 259.91428 27.64375 258.9924Q26.940624 258.0549 26.940624 256.77365Q26.940624 255.88303 27.253124 255.13303Q27.58125 254.3674 28.190624 253.96115Q28.8 253.5549 29.628124 253.5549Q30.7375 253.5549 31.45625 254.44553L31.45625 253.69553L32.425 253.69553L32.425 259.07053Q32.425 260.52365 32.128124 261.13303Q31.83125 261.7424 31.190624 262.08615Q30.55 262.44553 29.6125 262.44553Q28.503124 262.44553 27.815624 261.94553Q27.128124 261.44553 27.14375 260.4299ZM28.01875 256.69553Q28.01875 257.91428 28.503124 258.47678Q28.9875 259.03928 29.721874 259.03928Q30.45625 259.03928 30.940624 258.47678Q31.440624 257.91428 31.440624 256.72678Q31.440624 255.58615 30.925 255.00803Q30.425 254.4299 29.70625 254.4299Q29.003124 254.4299 28.503124 255.00803Q28.01875 255.57053 28.01875 256.69553ZM34.33125 259.91428L34.33125 253.69553L35.284374 253.69553L35.284374 254.63303Q35.64375 253.97678 35.940624 253.77365Q36.253124 253.5549 36.628124 253.5549Q37.159374 253.5549 37.70625 253.88303L37.346874 254.8674Q36.95625 254.63303 36.58125 254.63303Q36.221874 254.63303 35.940624 254.85178Q35.675 255.0549 35.565624 255.4299Q35.378124 255.9924 35.378124 256.64865L35.378124 259.91428L34.33125 259.91428ZM42.596874 257.91428L43.690624 258.03928Q43.440624 258.9924 42.7375 259.52365Q42.034374 260.0549 40.95625 260.0549Q39.596874 260.0549 38.784374 259.21115Q37.9875 258.3674 37.9875 256.85178Q37.9875 255.28928 38.8 254.4299Q39.6125 253.5549 40.89375 253.5549Q42.14375 253.5549 42.925 254.39865Q43.721874 255.2424 43.721874 256.78928Q43.721874 256.88303 43.721874 257.07053L39.08125 257.07053Q39.14375 258.10178 39.659374 258.64865Q40.175 259.1799 40.95625 259.1799Q41.534374 259.1799 41.940624 258.88303Q42.3625 258.57053 42.596874 257.91428ZM39.14375 256.21115L42.6125 256.21115Q42.55 255.41428 42.221874 255.02365Q41.70625 254.41428 40.909374 254.41428Q40.175 254.41428 39.675 254.89865Q39.190624 255.38303 39.14375 256.21115ZM49.596874 257.91428L50.690624 258.03928Q50.440624 258.9924 49.7375 259.52365Q49.034374 260.0549 47.95625 260.0549Q46.596874 260.0549 45.784374 259.21115Q44.9875 258.3674 44.9875 256.85178Q44.9875 255.28928 45.8 254.4299Q46.6125 253.5549 47.89375 253.5549Q49.14375 253.5549 49.925 254.39865Q50.721874 255.2424 50.721874 256.78928Q50.721874 256.88303 50.721874 257.07053L46.08125 257.07053Q46.14375 258.10178 46.659374 258.64865Q47.175 259.1799 47.95625 259.1799Q48.534374 259.1799 48.940624 258.88303Q49.3625 258.57053 49.596874 257.91428ZM46.14375 256.21115L49.6125 256.21115Q49.55 255.41428 49.221874 255.02365Q48.70625 254.41428 47.909374 254.41428Q47.175 254.41428 46.675 254.89865Q46.190624 255.38303 46.14375 256.21115Z" fill-rule="nonzero"/><path fill="#9e9e9e" d="M22.425 276.91428L22.425 274.85178L18.70625 274.85178L18.70625 273.88303L22.628124 268.32053L23.4875 268.32053L23.4875 273.88303L24.64375 273.88303L24.64375 274.85178L23.4875 274.85178L23.4875 276.91428L22.425 276.91428ZM22.425 273.88303L22.425 270.02365L19.7375 273.88303L22.425 273.88303ZM26.20625 274.9299L27.221874 274.83615Q27.346874 275.5549 27.70625 275.88303Q28.08125 276.19553 28.64375 276.19553Q29.128124 276.19553 29.4875 275.97678Q29.8625 275.7424 30.096874 275.38303Q30.33125 275.00803 30.4875 274.38303Q30.64375 273.7424 30.64375 273.08615Q30.64375 273.00803 30.64375 272.8674Q30.33125 273.3674 29.784374 273.69553Q29.2375 274.00803 28.596874 274.00803Q27.51875 274.00803 26.784374 273.2424Q26.05 272.46115 26.05 271.19553Q26.05 269.88303 26.815624 269.08615Q27.596874 268.28928 28.753124 268.28928Q29.58125 268.28928 30.26875 268.7424Q30.971874 269.19553 31.33125 270.03928Q31.690624 270.8674 31.690624 272.44553Q31.690624 274.08615 31.33125 275.07053Q30.9875 276.03928 30.26875 276.5549Q29.565624 277.0549 28.628124 277.0549Q27.6125 277.0549 26.971874 276.50803Q26.33125 275.94553 26.20625 274.9299ZM30.51875 271.13303Q30.51875 270.22678 30.034374 269.69553Q29.565624 269.16428 28.878124 269.16428Q28.175 269.16428 27.64375 269.7424Q27.128124 270.3049 27.128124 271.22678Q27.128124 272.03928 27.628124 272.5549Q28.128124 273.07053 28.846874 273.07053Q29.58125 273.07053 30.05 272.5549Q30.51875 272.03928 30.51875 271.13303ZM33.6125 276.91428L33.6125 275.71115L34.815624 275.71115L34.815624 276.91428Q34.815624 277.57053 34.58125 277.97678Q34.346874 278.39865 33.846874 278.6174L33.55 278.16428Q33.878124 278.02365 34.034374 277.72678Q34.190624 277.44553 34.221874 276.91428L33.6125 276.91428ZM36.05 274.64865L37.1125 274.50803Q37.284374 275.39865 37.721874 275.8049Q38.159374 276.19553 38.784374 276.19553Q39.534374 276.19553 40.05 275.6799Q40.565624 275.16428 40.565624 274.39865Q40.565624 273.6799 40.08125 273.21115Q39.6125 272.72678 38.878124 272.72678Q38.58125 272.72678 38.128124 272.85178L38.253124 271.91428Q38.3625 271.9299 38.425 271.9299Q39.096874 271.9299 39.628124 271.58615Q40.175 271.22678 40.175 270.4924Q40.175 269.91428 39.784374 269.53928Q39.39375 269.14865 38.76875 269.14865Q38.159374 269.14865 37.7375 269.53928Q37.33125 269.9299 37.221874 270.69553L36.159374 270.50803Q36.346874 269.46115 37.034374 268.88303Q37.721874 268.28928 38.7375 268.28928Q39.440624 268.28928 40.034374 268.60178Q40.628124 268.89865 40.940624 269.41428Q41.253124 269.9299 41.253124 270.52365Q41.253124 271.07053 40.95625 271.53928Q40.659374 271.9924 40.08125 272.25803Q40.83125 272.4299 41.253124 272.9924Q41.675 273.53928 41.675 274.38303Q41.675 275.50803 40.846874 276.28928Q40.034374 277.07053 38.784374 277.07053Q37.659374 277.07053 36.909374 276.39865Q36.159374 275.71115 36.05 274.64865ZM43.253124 270.38303Q43.253124 269.46115 43.70625 268.82053Q44.175 268.1799 45.05 268.1799Q45.8625 268.1799 46.39375 268.75803Q46.925 269.33615 46.925 270.44553Q46.925 271.53928 46.378124 272.13303Q45.846874 272.71115 45.065624 272.71115Q44.284374 272.71115 43.76875 272.13303Q43.253124 271.5549 43.253124 270.38303ZM45.08125 268.89865Q44.690624 268.89865 44.425 269.2424Q44.175 269.58615 44.175 270.4924Q44.175 271.32053 44.425 271.66428Q44.690624 271.9924 45.08125 271.9924Q45.4875 271.9924 45.7375 271.64865Q46.003124 271.3049 46.003124 270.41428Q46.003124 269.57053 45.7375 269.2424Q45.471874 268.89865 45.08125 268.89865ZM45.08125 277.22678L49.784374 268.1799L50.64375 268.1799L45.95625 277.22678L45.08125 277.22678ZM48.8 274.89865Q48.8 273.97678 49.253124 273.33615Q49.721874 272.69553 50.6125 272.69553Q51.425 272.69553 51.95625 273.27365Q52.4875 273.83615 52.4875 274.96115Q52.4875 276.0549 51.940624 276.64865Q51.409374 277.22678 50.6125 277.22678Q49.846874 277.22678 49.315624 276.64865Q48.8 276.07053 48.8 274.89865ZM50.64375 273.41428Q50.2375 273.41428 49.971874 273.75803Q49.721874 274.10178 49.721874 275.00803Q49.721874 275.82053 49.9875 276.16428Q50.253124 276.50803 50.64375 276.50803Q51.034374 276.50803 51.3 276.16428Q51.565624 275.82053 51.565624 274.91428Q51.565624 274.08615 51.3 273.75803Q51.034374 273.41428 50.64375 273.41428Z" fill-rule="nonzero"/><path stroke="#757575" stroke-width="1.0" stroke-linecap="butt" d="M18.55 264.41428L157.23334 264.41428L201.10574 264.41428" fill-rule="nonzero"/><path fill="#9e9e9e" d="M203.10574 264.41428C203.10574 263.3097 202.21031 262.41428 201.10574 262.41428C200.00116 262.41428 199.10574 263.3097 199.10574 264.41428C199.10574 265.51883 200.00116 266.41428 201.10574 266.41428C202.21031 266.41428 203.10574 265.51883 203.10574 264.41428" fill-rule="nonzero"/><path fill="#1a1a1a" d="M501.9969 167.70296L503.0594 167.6092Q503.1375 168.26546 503.41876 168.6717Q503.7 169.07796 504.27814 169.34358Q504.8719 169.59358 505.60626 169.59358Q506.2469 169.59358 506.7469 169.40608Q507.2469 169.20296 507.48126 168.87483Q507.73126 168.53108 507.73126 168.14046Q507.73126 167.7342 507.4969 167.43733Q507.2625 167.12483 506.73126 166.9217Q506.3719 166.78108 505.1844 166.49983Q504.0125 166.21858 503.54376 165.96858Q502.91876 165.64046 502.6219 165.1717Q502.325 164.68733 502.325 164.09358Q502.325 163.45296 502.6844 162.89046Q503.0594 162.31233 503.7625 162.03108Q504.48126 161.7342 505.34064 161.7342Q506.29376 161.7342 507.02814 162.0467Q507.7625 162.34358 508.15314 162.95296Q508.54376 163.5467 508.575 164.2967L507.48126 164.37483Q507.3875 163.56233 506.8719 163.15608Q506.3719 162.7342 505.3875 162.7342Q504.35626 162.7342 503.8875 163.1092Q503.41876 163.4842 503.41876 164.01546Q503.41876 164.4842 503.7469 164.78108Q504.075 165.07796 505.45 165.39046Q506.84064 165.70296 507.35626 165.93733Q508.10626 166.2967 508.46564 166.82796Q508.825 167.34358 508.825 168.0467Q508.825 168.7342 508.4344 169.34358Q508.04376 169.93733 507.3094 170.28108Q506.575 170.6092 505.65314 170.6092Q504.48126 170.6092 503.6844 170.28108Q502.90314 169.93733 502.45 169.24983Q502.0125 168.56233 501.9969 167.70296ZM512.54376 169.53108L512.7 170.45296Q512.2469 170.5467 511.90314 170.5467Q511.325 170.5467 511.0125 170.37483Q510.7 170.18733 510.5594 169.89046Q510.4344 169.59358 510.4344 168.64046L510.4344 165.06233L509.66876 165.06233L509.66876 164.24983L510.4344 164.24983L510.4344 162.70296L511.48126 162.07796L511.48126 164.24983L512.54376 164.24983L512.54376 165.06233L511.48126 165.06233L511.48126 168.70296Q511.48126 169.15608 511.52814 169.28108Q511.59064 169.40608 511.71564 169.4842Q511.84064 169.56233 512.075 169.56233Q512.2625 169.56233 512.54376 169.53108ZM513.23126 170.46858L513.23126 164.24983L514.1844 164.24983L514.1844 165.18733Q514.54376 164.53108 514.84064 164.32796Q515.15314 164.1092 515.52814 164.1092Q516.0594 164.1092 516.60626 164.43733L516.2469 165.4217Q515.85626 165.18733 515.48126 165.18733Q515.1219 165.18733 514.84064 165.40608Q514.575 165.6092 514.46564 165.9842Q514.27814 166.5467 514.27814 167.20296L514.27814 170.46858L513.23126 170.46858ZM516.85626 167.3592Q516.85626 165.62483 517.8094 164.7967Q518.60626 164.1092 519.7625 164.1092Q521.04376 164.1092 521.85626 164.95296Q522.6844 165.78108 522.6844 167.26546Q522.6844 168.46858 522.325 169.15608Q521.96564 169.84358 521.2625 170.2342Q520.575 170.6092 519.7625 170.6092Q518.46564 170.6092 517.65314 169.78108Q516.85626 168.93733 516.85626 167.3592ZM517.9344 167.3592Q517.9344 168.5467 518.45 169.14046Q518.98126 169.7342 519.7625 169.7342Q520.5594 169.7342 521.075 169.14046Q521.59064 168.5467 521.59064 167.32796Q521.59064 166.1717 521.0594 165.57796Q520.54376 164.9842 519.7625 164.9842Q518.98126 164.9842 518.45 165.57796Q517.9344 166.15608 517.9344 167.3592ZM524.2469 170.46858L524.2469 164.24983L525.1844 164.24983L525.1844 165.12483Q525.8719 164.1092 527.16876 164.1092Q527.73126 164.1092 528.2 164.31233Q528.6844 164.51546 528.91876 164.84358Q529.15314 165.1717 529.2469 165.6092Q529.29376 165.90608 529.29376 166.64046L529.29376 170.46858L528.2469 170.46858L528.2469 166.68733Q528.2469 166.03108 528.1219 165.71858Q527.9969 165.40608 527.6844 165.21858Q527.3719 165.01546 526.95 165.01546Q526.27814 165.01546 525.77814 165.45296Q525.29376 165.87483 525.29376 167.06233L525.29376 170.46858L524.2469 170.46858ZM531.04376 170.9842L532.075 171.14046Q532.1375 171.6092 532.4344 171.82796Q532.825 172.12483 533.4969 172.12483Q534.23126 172.12483 534.6219 171.82796Q535.02814 171.53108 535.16876 171.01546Q535.2625 170.68733 535.2469 169.65608Q534.5594 170.46858 533.52814 170.46858Q532.2469 170.46858 531.54376 169.5467Q530.84064 168.6092 530.84064 167.32796Q530.84064 166.43733 531.15314 165.68733Q531.48126 164.9217 532.09064 164.51546Q532.7 164.1092 533.52814 164.1092Q534.6375 164.1092 535.35626 164.99983L535.35626 164.24983L536.325 164.24983L536.325 169.62483Q536.325 171.07796 536.02814 171.68733Q535.73126 172.2967 535.09064 172.64046Q534.45 172.99983 533.5125 172.99983Q532.40314 172.99983 531.71564 172.49983Q531.02814 171.99983 531.04376 170.9842ZM531.91876 167.24983Q531.91876 168.46858 532.40314 169.03108Q532.8875 169.59358 533.6219 169.59358Q534.35626 169.59358 534.84064 169.03108Q535.34064 168.46858 535.34064 167.28108Q535.34064 166.14046 534.825 165.56233Q534.325 164.9842 533.60626 164.9842Q532.90314 164.9842 532.40314 165.56233Q531.91876 166.12483 531.91876 167.24983ZM538.21564 170.46858L538.21564 161.87483L539.27814 161.87483L539.27814 170.46858L538.21564 170.46858ZM541.2 172.8592L541.075 171.87483Q541.41876 171.96858 541.6844 171.96858Q542.02814 171.96858 542.23126 171.84358Q542.45 171.7342 542.59064 171.53108Q542.6844 171.3592 542.91876 170.7342Q542.9344 170.65608 543.0125 170.4842L540.6375 164.24983L541.77814 164.24983L543.075 167.84358Q543.325 168.53108 543.52814 169.2967Q543.71564 168.56233 543.96564 167.87483L545.29376 164.24983L546.34064 164.24983L543.98126 170.57796Q543.59064 171.59358 543.3875 171.9842Q543.10626 172.51546 542.73126 172.74983Q542.3719 172.99983 541.8719 172.99983Q541.575 172.99983 541.2 172.8592ZM554.3094 169.70296Q553.71564 170.20296 553.16876 170.40608Q552.6375 170.6092 552.0125 170.6092Q550.98126 170.6092 550.4344 170.1092Q549.8875 169.6092 549.8875 168.82796Q549.8875 168.37483 550.09064 167.99983Q550.29376 167.6092 550.6375 167.39046Q550.98126 167.15608 551.40314 167.0467Q551.7 166.95296 552.34064 166.87483Q553.60626 166.7342 554.21564 166.51546Q554.21564 166.2967 554.21564 166.24983Q554.21564 165.59358 553.91876 165.32796Q553.5125 164.9842 552.71564 164.9842Q551.98126 164.9842 551.6219 165.24983Q551.2625 165.49983 551.09064 166.15608L550.0594 166.01546Q550.2 165.3592 550.52814 164.95296Q550.85626 164.5467 551.46564 164.32796Q552.075 164.1092 552.8719 164.1092Q553.66876 164.1092 554.16876 164.2967Q554.66876 164.4842 554.90314 164.76546Q555.1375 165.0467 555.23126 165.4842Q555.27814 165.74983 555.27814 166.45296L555.27814 167.8592Q555.27814 169.32796 555.34064 169.71858Q555.41876 170.1092 555.6219 170.46858L554.5125 170.46858Q554.35626 170.14046 554.3094 169.70296ZM554.21564 167.34358Q553.6375 167.57796 552.4969 167.74983Q551.84064 167.84358 551.575 167.96858Q551.3094 168.07796 551.15314 168.2967Q551.0125 168.51546 551.0125 168.7967Q551.0125 169.21858 551.325 169.49983Q551.65314 169.78108 552.2625 169.78108Q552.8719 169.78108 553.34064 169.51546Q553.825 169.24983 554.04376 168.78108Q554.21564 168.4217 554.21564 167.7342L554.21564 167.34358ZM557.04376 170.9842L558.075 171.14046Q558.1375 171.6092 558.4344 171.82796Q558.825 172.12483 559.4969 172.12483Q560.23126 172.12483 560.6219 171.82796Q561.02814 171.53108 561.16876 171.01546Q561.2625 170.68733 561.2469 169.65608Q560.5594 170.46858 559.52814 170.46858Q558.2469 170.46858 557.54376 169.5467Q556.84064 168.6092 556.84064 167.32796Q556.84064 166.43733 557.15314 165.68733Q557.48126 164.9217 558.09064 164.51546Q558.7 164.1092 559.52814 164.1092Q560.6375 164.1092 561.35626 164.99983L561.35626 164.24983L562.325 164.24983L562.325 169.62483Q562.325 171.07796 562.02814 171.68733Q561.73126 172.2967 561.09064 172.64046Q560.45 172.99983 559.5125 172.99983Q558.40314 172.99983 557.71564 172.49983Q557.02814 171.99983 557.04376 170.9842ZM557.91876 167.24983Q557.91876 168.46858 558.40314 169.03108Q558.8875 169.59358 559.6219 169.59358Q560.35626 169.59358 560.84064 169.03108Q561.34064 168.46858 561.34064 167.28108Q561.34064 166.14046 560.825 165.56233Q560.325 164.9842 559.60626 164.9842Q558.90314 164.9842 558.40314 165.56233Q557.91876 166.12483 557.91876 167.24983ZM564.23126 170.46858L564.23126 164.24983L565.1844 164.24983L565.1844 165.18733Q565.54376 164.53108 565.84064 164.32796Q566.15314 164.1092 566.52814 164.1092Q567.0594 164.1092 567.60626 164.43733L567.2469 165.4217Q566.85626 165.18733 566.48126 165.18733Q566.1219 165.18733 565.84064 165.40608Q565.575 165.6092 565.46564 165.9842Q565.27814 166.5467 565.27814 167.20296L565.27814 170.46858L564.23126 170.46858ZM572.4969 168.46858L573.59064 168.59358Q573.34064 169.5467 572.6375 170.07796Q571.9344 170.6092 570.85626 170.6092Q569.4969 170.6092 568.6844 169.76546Q567.8875 168.9217 567.8875 167.40608Q567.8875 165.84358 568.7 164.9842Q569.5125 164.1092 570.79376 164.1092Q572.04376 164.1092 572.825 164.95296Q573.6219 165.7967 573.6219 167.34358Q573.6219 167.43733 573.6219 167.62483L568.98126 167.62483Q569.04376 168.65608 569.5594 169.20296Q570.075 169.7342 570.85626 169.7342Q571.4344 169.7342 571.84064 169.43733Q572.2625 169.12483 572.4969 168.46858ZM569.04376 166.76546L572.5125 166.76546Q572.45 165.96858 572.1219 165.57796Q571.60626 164.96858 570.8094 164.96858Q570.075 164.96858 569.575 165.45296Q569.09064 165.93733 569.04376 166.76546ZM579.4969 168.46858L580.59064 168.59358Q580.34064 169.5467 579.6375 170.07796Q578.9344 170.6092 577.85626 170.6092Q576.4969 170.6092 575.6844 169.76546Q574.8875 168.9217 574.8875 167.40608Q574.8875 165.84358 575.7 164.9842Q576.5125 164.1092 577.79376 164.1092Q579.04376 164.1092 579.825 164.95296Q580.6219 165.7967 580.6219 167.34358Q580.6219 167.43733 580.6219 167.62483L575.98126 167.62483Q576.04376 168.65608 576.5594 169.20296Q577.075 169.7342 577.85626 169.7342Q578.4344 169.7342 578.84064 169.43733Q579.2625 169.12483 579.4969 168.46858ZM576.04376 166.76546L579.5125 166.76546Q579.45 165.96858 579.1219 165.57796Q578.60626 164.96858 577.8094 164.96858Q577.075 164.96858 576.575 165.45296Q576.09064 165.93733 576.04376 166.76546Z" fill-rule="nonzero"/><path fill="#9e9e9e" d="M546.95 185.20296L548.0125 185.06233Q548.1844 185.95296 548.6219 186.3592Q549.0594 186.74983 549.6844 186.74983Q550.4344 186.74983 550.95 186.2342Q551.46564 185.71858 551.46564 184.95296Q551.46564 184.2342 550.98126 183.76546Q550.5125 183.28108 549.77814 183.28108Q549.48126 183.28108 549.02814 183.40608L549.15314 182.46858Q549.2625 182.4842 549.325 182.4842Q549.9969 182.4842 550.52814 182.14046Q551.075 181.78108 551.075 181.0467Q551.075 180.46858 550.6844 180.09358Q550.29376 179.70296 549.66876 179.70296Q549.0594 179.70296 548.6375 180.09358Q548.23126 180.4842 548.1219 181.24983L547.0594 181.06233Q547.2469 180.01546 547.9344 179.43733Q548.6219 178.84358 549.6375 178.84358Q550.34064 178.84358 550.9344 179.15608Q551.52814 179.45296 551.84064 179.96858Q552.15314 180.4842 552.15314 181.07796Q552.15314 181.62483 551.85626 182.09358Q551.5594 182.5467 550.98126 182.81233Q551.73126 182.9842 552.15314 183.5467Q552.575 184.09358 552.575 184.93733Q552.575 186.06233 551.7469 186.84358Q550.9344 187.62483 549.6844 187.62483Q548.5594 187.62483 547.8094 186.95296Q547.0594 186.26546 546.95 185.20296ZM554.10626 185.4842L555.1219 185.39046Q555.2469 186.1092 555.60626 186.43733Q555.98126 186.74983 556.54376 186.74983Q557.02814 186.74983 557.3875 186.53108Q557.7625 186.2967 557.9969 185.93733Q558.23126 185.56233 558.3875 184.93733Q558.54376 184.2967 558.54376 183.64046Q558.54376 183.56233 558.54376 183.4217Q558.23126 183.9217 557.6844 184.24983Q557.1375 184.56233 556.4969 184.56233Q555.41876 184.56233 554.6844 183.7967Q553.95 183.01546 553.95 181.74983Q553.95 180.43733 554.71564 179.64046Q555.4969 178.84358 556.65314 178.84358Q557.48126 178.84358 558.16876 179.2967Q558.8719 179.74983 559.23126 180.59358Q559.59064 181.4217 559.59064 182.99983Q559.59064 184.64046 559.23126 185.62483Q558.8875 186.59358 558.16876 187.1092Q557.46564 187.6092 556.52814 187.6092Q555.5125 187.6092 554.8719 187.06233Q554.23126 186.49983 554.10626 185.4842ZM558.41876 181.68733Q558.41876 180.78108 557.9344 180.24983Q557.46564 179.71858 556.77814 179.71858Q556.075 179.71858 555.54376 180.2967Q555.02814 180.8592 555.02814 181.78108Q555.02814 182.59358 555.52814 183.1092Q556.02814 183.62483 556.7469 183.62483Q557.48126 183.62483 557.95 183.1092Q558.41876 182.59358 558.41876 181.68733ZM561.5125 187.46858L561.5125 186.26546L562.71564 186.26546L562.71564 187.46858Q562.71564 188.12483 562.48126 188.53108Q562.2469 188.95296 561.7469 189.1717L561.45 188.71858Q561.77814 188.57796 561.9344 188.28108Q562.09064 187.99983 562.1219 187.46858L561.5125 187.46858ZM567.91876 187.46858L566.8719 187.46858L566.8719 180.74983Q566.48126 181.1092 565.85626 181.4842Q565.2469 181.84358 564.7625 182.01546L564.7625 180.99983Q565.6375 180.57796 566.29376 179.99983Q566.96564 179.40608 567.2469 178.84358L567.91876 178.84358L567.91876 187.46858ZM571.15314 180.93733Q571.15314 180.01546 571.60626 179.37483Q572.075 178.7342 572.95 178.7342Q573.7625 178.7342 574.29376 179.31233Q574.825 179.89046 574.825 180.99983Q574.825 182.09358 574.27814 182.68733Q573.7469 183.26546 572.96564 183.26546Q572.1844 183.26546 571.66876 182.68733Q571.15314 182.1092 571.15314 180.93733ZM572.98126 179.45296Q572.59064 179.45296 572.325 179.7967Q572.075 180.14046 572.075 181.0467Q572.075 181.87483 572.325 182.21858Q572.59064 182.5467 572.98126 182.5467Q573.3875 182.5467 573.6375 182.20296Q573.90314 181.8592 573.90314 180.96858Q573.90314 180.12483 573.6375 179.7967Q573.3719 179.45296 572.98126 179.45296ZM572.98126 187.78108L577.6844 178.7342L578.54376 178.7342L573.85626 187.78108L572.98126 187.78108ZM576.7 185.45296Q576.7 184.53108 577.15314 183.89046Q577.6219 183.24983 578.5125 183.24983Q579.325 183.24983 579.85626 183.82796Q580.3875 184.39046 580.3875 185.51546Q580.3875 186.6092 579.84064 187.20296Q579.3094 187.78108 578.5125 187.78108Q577.7469 187.78108 577.21564 187.20296Q576.7 186.62483 576.7 185.45296ZM578.54376 183.96858Q578.1375 183.96858 577.8719 184.31233Q577.6219 184.65608 577.6219 185.56233Q577.6219 186.37483 577.8875 186.71858Q578.15314 187.06233 578.54376 187.06233Q578.9344 187.06233 579.2 186.71858Q579.46564 186.37483 579.46564 185.46858Q579.46564 184.64046 579.2 184.31233Q578.9344 183.96858 578.54376 183.96858Z" fill-rule="nonzero"/><path stroke="#757575" stroke-width="1.0" stroke-linecap="butt" d="M581.45 174.96858L442.76666 174.96858L422.4264 174.96858" fill-rule="nonzero"/><path fill="#9e9e9e" d="M424.4264 174.96858C424.4264 173.86401 423.53098 172.96858 422.4264 172.96858C421.3218 172.96858 420.4264 173.86401 420.4264 174.96858C420.4264 176.07315 421.3218 176.96858 422.4264 176.96858C423.53098 176.96858 424.4264 176.07315 424.4264 174.96858" fill-rule="nonzero"/><path fill="#757575" d="M20.096874 37.55L20.096874 23.2375L25.01875 23.2375Q26.690624 23.2375 27.58125 23.440624Q28.8 23.721874 29.675 24.45625Q30.8 25.425 31.3625 26.909374Q31.925 28.39375 31.925 30.315624Q31.925 31.940624 31.55 33.20625Q31.175 34.45625 30.565624 35.284374Q29.971874 36.1125 29.26875 36.596874Q28.565624 37.065624 27.565624 37.315624Q26.565624 37.55 25.253124 37.55L20.096874 37.55ZM21.9875 35.8625L25.05 35.8625Q26.45625 35.8625 27.253124 35.596874Q28.065624 35.33125 28.55 34.846874Q29.221874 34.175 29.596874 33.05Q29.971874 31.909374 29.971874 30.284374Q29.971874 28.034374 29.2375 26.83125Q28.503124 25.628124 27.440624 25.221874Q26.690624 24.925 25.003124 24.925L21.9875 24.925L21.9875 35.8625ZM33.221874 32.3625Q33.221874 29.4875 34.815624 28.096874Q36.159374 26.940624 38.08125 26.940624Q40.221874 26.940624 41.565624 28.346874Q42.925 29.753124 42.925 32.221874Q42.925 34.221874 42.33125 35.378124Q41.7375 36.51875 40.58125 37.159374Q39.440624 37.784374 38.08125 37.784374Q35.89375 37.784374 34.55 36.39375Q33.221874 34.9875 33.221874 32.3625ZM35.01875 32.3625Q35.01875 34.3625 35.878124 35.346874Q36.753124 36.33125 38.08125 36.33125Q39.39375 36.33125 40.253124 35.346874Q41.128124 34.346874 41.128124 32.3Q41.128124 30.378124 40.253124 29.39375Q39.378124 28.39375 38.08125 28.39375Q36.753124 28.39375 35.878124 29.39375Q35.01875 30.378124 35.01875 32.3625ZM50.784374 41.55L50.596874 39.89375Q51.175 40.05 51.596874 40.05Q52.190624 40.05 52.534374 39.846874Q52.89375 39.659374 53.1125 39.315624Q53.284374 39.05 53.659374 38.003124Q53.70625 37.846874 53.815624 37.565624L49.878124 27.175L51.76875 27.175L53.925 33.190624Q54.346874 34.33125 54.675 35.58125Q54.9875 34.378124 55.39375 33.221874L57.6125 27.175L59.378124 27.175L55.425 37.721874Q54.8 39.440624 54.440624 40.08125Q53.971874 40.95625 53.3625 41.346874Q52.76875 41.753124 51.925 41.753124Q51.409374 41.753124 50.784374 41.55ZM60.221874 32.3625Q60.221874 29.4875 61.815624 28.096874Q63.159374 26.940624 65.08125 26.940624Q67.22188 26.940624 68.56563 28.346874Q69.925 29.753124 69.925 32.221874Q69.925 34.221874 69.33125 35.378124Q68.7375 36.51875 67.58125 37.159374Q66.44063 37.784374 65.08125 37.784374Q62.89375 37.784374 61.55 36.39375Q60.221874 34.9875 60.221874 32.3625ZM62.01875 32.3625Q62.01875 34.3625 62.878124 35.346874Q63.753124 36.33125 65.08125 36.33125Q66.39375 36.33125 67.25313 35.346874Q68.12813 34.346874 68.12813 32.3Q68.12813 30.378124 67.25313 29.39375Q66.37813 28.39375 65.08125 28.39375Q63.753124 28.39375 62.878124 29.39375Q62.01875 30.378124 62.01875 32.3625ZM78.65938 37.55L78.65938 36.01875Q77.45625 37.784374 75.37813 37.784374Q74.45625 37.784374 73.65938 37.440624Q72.8625 37.08125 72.47188 36.55Q72.09688 36.01875 71.94063 35.2375Q71.83125 34.721874 71.83125 33.596874L71.83125 27.175L73.58125 27.175L73.58125 32.925Q73.58125 34.3 73.69063 34.784374Q73.8625 35.471874 74.39375 35.878124Q74.94063 36.26875 75.72188 36.26875Q76.51875 36.26875 77.20625 35.8625Q77.90938 35.45625 78.19063 34.76875Q78.4875 34.065624 78.4875 32.7375L78.4875 27.175L80.2375 27.175L80.2375 37.55L78.65938 37.55ZM92.70625 35.971874L92.95625 37.534374Q92.22188 37.690624 91.62813 37.690624Q90.675 37.690624 90.14375 37.39375Q89.62813 37.08125 89.40938 36.596874Q89.19063 36.096874 89.19063 34.51875L89.19063 28.55L87.90938 28.55L87.90938 27.175L89.19063 27.175L89.19063 24.6125L90.94063 23.55L90.94063 27.175L92.70625 27.175L92.70625 28.55L90.94063 28.55L90.94063 34.6125Q90.94063 35.3625 91.03438 35.58125Q91.12813 35.784374 91.33125 35.925Q91.55 36.05 91.94063 36.05Q92.22188 36.05 92.70625 35.971874ZM94.8625 37.55L94.8625 23.2375L96.62813 23.2375L96.62813 28.3625Q97.8625 26.940624 99.7375 26.940624Q100.87813 26.940624 101.72188 27.39375Q102.58125 27.846874 102.94063 28.659374Q103.31563 29.45625 103.31563 30.971874L103.31563 37.55L101.56563 37.55L101.56563 30.971874Q101.56563 29.659374 100.9875 29.065624Q100.40938 28.45625 99.37813 28.45625Q98.59688 28.45625 97.89375 28.8625Q97.20625 29.26875 96.90938 29.971874Q96.62813 30.659374 96.62813 31.878124L96.62813 37.55L94.8625 37.55ZM105.87813 25.253124L105.87813 23.2375L107.64375 23.2375L107.64375 25.253124L105.87813 25.253124ZM105.87813 37.55L105.87813 27.175L107.64375 27.175L107.64375 37.55L105.87813 37.55ZM109.8625 37.55L109.8625 27.175L111.45625 27.175L111.45625 28.659374Q112.59688 26.940624 114.75313 26.940624Q115.69063 26.940624 116.47188 27.284374Q117.26875 27.6125 117.65938 28.159374Q118.05 28.70625 118.20625 29.45625Q118.3 29.95625 118.3 31.175L118.3 37.55L116.53438 37.55L116.53438 31.2375Q116.53438 30.159374 116.33125 29.628124Q116.12813 29.096874 115.59688 28.784374Q115.08125 28.471874 114.37813 28.471874Q113.25313 28.471874 112.44063 29.190624Q111.62813 29.89375 111.62813 31.878124L111.62813 37.55L109.8625 37.55ZM120.87813 37.55L120.87813 23.2375L122.64375 23.2375L122.64375 31.39375L126.8 27.175L129.06563 27.175L125.1125 31.01875L129.47188 37.55L127.3 37.55L123.87813 32.253124L122.64375 33.440624L122.64375 37.55L120.87813 37.55ZM140.70625 35.971874L140.95625 37.534374Q140.22188 37.690624 139.62813 37.690624Q138.675 37.690624 138.14375 37.39375Q137.62813 37.08125 137.40938 36.596874Q137.19063 36.096874 137.19063 34.51875L137.19063 28.55L135.90938 28.55L135.90938 27.175L137.19063 27.175L137.19063 24.6125L138.94063 23.55L138.94063 27.175L140.70625 27.175L140.70625 28.55L138.94063 28.55L138.94063 34.6125Q138.94063 35.3625 139.03438 35.58125Q139.12813 35.784374 139.33125 35.925Q139.55 36.05 139.94063 36.05Q140.22188 36.05 140.70625 35.971874ZM142.8625 37.55L142.8625 23.2375L144.62813 23.2375L144.62813 28.3625Q145.8625 26.940624 147.7375 26.940624Q148.87813 26.940624 149.72188 27.39375Q150.58125 27.846874 150.94063 28.659374Q151.31563 29.45625 151.31563 30.971874L151.31563 37.55L149.56563 37.55L149.56563 30.971874Q149.56563 29.659374 148.9875 29.065624Q148.40938 28.45625 147.37813 28.45625Q146.59688 28.45625 145.89375 28.8625Q145.20625 29.26875 144.90938 29.971874Q144.62813 30.659374 144.62813 31.878124L144.62813 37.55L142.8625 37.55ZM160.97188 34.20625L162.78438 34.440624Q162.3625 36.01875 161.19063 36.909374Q160.03438 37.784374 158.22188 37.784374Q155.95625 37.784374 154.6125 36.39375Q153.28438 34.9875 153.28438 32.45625Q153.28438 29.83125 154.62813 28.39375Q155.97188 26.940624 158.12813 26.940624Q160.20625 26.940624 161.51875 28.3625Q162.84688 29.76875 162.84688 32.346874Q162.84688 32.503124 162.83125 32.815624L155.09688 32.815624Q155.19063 34.51875 156.06563 35.425Q156.94063 36.33125 158.2375 36.33125Q159.20625 36.33125 159.87813 35.83125Q160.56563 35.315624 160.97188 34.20625ZM155.19063 31.3625L160.9875 31.3625Q160.87813 30.065624 160.33125 29.409374Q159.4875 28.39375 158.14375 28.39375Q156.94063 28.39375 156.1125 29.20625Q155.28438 30.003124 155.19063 31.3625ZM177.64375 36.26875Q176.65938 37.096874 175.75313 37.440624Q174.84688 37.784374 173.81563 37.784374Q172.1125 37.784374 171.19063 36.95625Q170.26875 36.1125 170.26875 34.815624Q170.26875 34.05 170.6125 33.425Q170.97188 32.8 171.53438 32.425Q172.09688 32.034374 172.8 31.83125Q173.31563 31.70625 174.3625 31.565624Q176.4875 31.315624 177.4875 30.971874Q177.50313 30.6125 177.50313 30.503124Q177.50313 29.440624 177.00313 28.9875Q176.33125 28.39375 175.00313 28.39375Q173.75313 28.39375 173.15938 28.83125Q172.58125 29.26875 172.3 30.378124L170.58125 30.14375Q170.81563 29.034374 171.34688 28.3625Q171.87813 27.675 172.89375 27.315624Q173.90938 26.940624 175.25313 26.940624Q176.58125 26.940624 177.40938 27.253124Q178.2375 27.565624 178.62813 28.05Q179.01875 28.51875 179.175 29.2375Q179.26875 29.690624 179.26875 30.8625L179.26875 33.20625Q179.26875 35.659374 179.37813 36.315624Q179.4875 36.95625 179.83125 37.55L177.9875 37.55Q177.72188 37.003124 177.64375 36.26875ZM177.4875 32.346874Q176.53438 32.7375 174.6125 33.003124Q173.53438 33.159374 173.08125 33.3625Q172.64375 33.55 172.39375 33.925Q172.14375 34.3 172.14375 34.76875Q172.14375 35.471874 172.675 35.940624Q173.20625 36.409374 174.2375 36.409374Q175.25313 36.409374 176.03438 35.971874Q176.83125 35.51875 177.20625 34.753124Q177.4875 34.14375 177.4875 32.9875L177.4875 32.346874ZM181.8625 41.51875L181.8625 27.175L183.47188 27.175L183.47188 28.51875Q184.03438 27.7375 184.7375 27.346874Q185.45625 26.940624 186.47188 26.940624Q187.8 26.940624 188.81563 27.628124Q189.83125 28.315624 190.34688 29.565624Q190.87813 30.8 190.87813 32.284374Q190.87813 33.878124 190.3 35.159374Q189.7375 36.425 188.64375 37.1125Q187.55 37.784374 186.34688 37.784374Q185.47188 37.784374 184.76875 37.409374Q184.08125 37.034374 183.62813 36.471874L183.62813 41.51875L181.8625 41.51875ZM183.45625 32.425Q183.45625 34.425 184.26875 35.378124Q185.08125 36.33125 186.2375 36.33125Q187.40938 36.33125 188.2375 35.346874Q189.08125 34.3625 189.08125 32.26875Q189.08125 30.3 188.25313 29.315624Q187.44063 28.315624 186.31563 28.315624Q185.19063 28.315624 184.31563 29.378124Q183.45625 30.425 183.45625 32.425ZM192.8625 41.51875L192.8625 27.175L194.47188 27.175L194.47188 28.51875Q195.03438 27.7375 195.7375 27.346874Q196.45625 26.940624 197.47188 26.940624Q198.8 26.940624 199.81563 27.628124Q200.83125 28.315624 201.34688 29.565624Q201.87813 30.8 201.87813 32.284374Q201.87813 33.878124 201.3 35.159374Q200.7375 36.425 199.64375 37.1125Q198.55 37.784374 197.34688 37.784374Q196.47188 37.784374 195.76875 37.409374Q195.08125 37.034374 194.62813 36.471874L194.62813 41.51875L192.8625 41.51875ZM194.45625 32.425Q194.45625 34.425 195.26875 35.378124Q196.08125 36.33125 197.2375 36.33125Q198.40938 36.33125 199.2375 35.346874Q200.08125 34.3625 200.08125 32.26875Q200.08125 30.3 199.25313 29.315624Q198.44063 28.315624 197.31563 28.315624Q196.19063 28.315624 195.31563 29.378124Q194.45625 30.425 194.45625 32.425ZM209.8625 41.51875L209.8625 27.175L211.47188 27.175L211.47188 28.51875Q212.03438 27.7375 212.7375 27.346874Q213.45625 26.940624 214.47188 26.940624Q215.8 26.940624 216.81563 27.628124Q217.83125 28.315624 218.34688 29.565624Q218.87813 30.8 218.87813 32.284374Q218.87813 33.878124 218.3 35.159374Q217.7375 36.425 216.64375 37.1125Q215.55 37.784374 214.34688 37.784374Q213.47188 37.784374 212.76875 37.409374Q212.08125 37.034374 211.62813 36.471874L211.62813 41.51875L209.8625 41.51875ZM211.45625 32.425Q211.45625 34.425 212.26875 35.378124Q213.08125 36.33125 214.2375 36.33125Q215.40938 36.33125 216.2375 35.346874Q217.08125 34.3625 217.08125 32.26875Q217.08125 30.3 216.25313 29.315624Q215.44063 28.315624 214.31563 28.315624Q213.19063 28.315624 212.31563 29.378124Q211.45625 30.425 211.45625 32.425ZM220.84688 37.55L220.84688 27.175L222.425 27.175L222.425 28.753124Q223.03438 27.64375 223.55 27.3Q224.06563 26.940624 224.675 26.940624Q225.56563 26.940624 226.4875 27.503124L225.87813 29.14375Q225.2375 28.753124 224.59688 28.753124Q224.01875 28.753124 223.55 29.1125Q223.09688 29.45625 222.89375 30.065624Q222.6125 31.003124 222.6125 32.1125L222.6125 37.55L220.84688 37.55ZM227.22188 32.3625Q227.22188 29.4875 228.81563 28.096874Q230.15938 26.940624 232.08125 26.940624Q234.22188 26.940624 235.56563 28.346874Q236.925 29.753124 236.925 32.221874Q236.925 34.221874 236.33125 35.378124Q235.7375 36.51875 234.58125 37.159374Q233.44063 37.784374 232.08125 37.784374Q229.89375 37.784374 228.55 36.39375Q227.22188 34.9875 227.22188 32.3625ZM229.01875 32.3625Q229.01875 34.3625 229.87813 35.346874Q230.75313 36.33125 232.08125 36.33125Q233.39375 36.33125 234.25313 35.346874Q235.12813 34.346874 235.12813 32.3Q235.12813 30.378124 234.25313 29.39375Q233.37813 28.39375 232.08125 28.39375Q230.75313 28.39375 229.87813 29.39375Q229.01875 30.378124 229.01875 32.3625ZM241.75313 37.55L237.8 27.175L239.65938 27.175L241.89375 33.39375Q242.25313 34.39375 242.55 35.471874Q242.78438 34.659374 243.20625 33.503124L245.50313 27.175L247.31563 27.175L243.39375 37.55L241.75313 37.55ZM248.87813 25.253124L248.87813 23.2375L250.64375 23.2375L250.64375 25.253124L248.87813 25.253124ZM248.87813 37.55L248.87813 27.175L250.64375 27.175L250.64375 37.55L248.87813 37.55ZM259.59686 37.55L259.59686 36.2375Q258.6125 37.784374 256.6906 37.784374Q255.45625 37.784374 254.40938 37.096874Q253.37813 36.409374 252.8 35.190624Q252.2375 33.971874 252.2375 32.378124Q252.2375 30.815624 252.75313 29.55Q253.26875 28.284374 254.3 27.6125Q255.34688 26.940624 256.6125 26.940624Q257.55 26.940624 258.28436 27.346874Q259.01874 27.7375 259.4875 28.3625L259.4875 23.2375L261.22186 23.2375L261.22186 37.55L259.59686 37.55ZM254.03438 32.378124Q254.03438 34.3625 254.87813 35.346874Q255.72188 36.33125 256.8625 36.33125Q258.01874 36.33125 258.8156 35.39375Q259.6281 34.45625 259.6281 32.51875Q259.6281 30.39375 258.8 29.39375Q257.9875 28.39375 256.78436 28.39375Q255.6125 28.39375 254.81563 29.3625Q254.03438 30.315624 254.03438 32.378124ZM270.97186 34.20625L272.78436 34.440624Q272.3625 36.01875 271.1906 36.909374Q270.03436 37.784374 268.22186 37.784374Q265.95624 37.784374 264.6125 36.39375Q263.28436 34.9875 263.28436 32.45625Q263.28436 29.83125 264.6281 28.39375Q265.97186 26.940624 268.1281 26.940624Q270.20624 26.940624 271.51874 28.3625Q272.84686 29.76875 272.84686 32.346874Q272.84686 32.503124 272.83124 32.815624L265.09686 32.815624Q265.1906 34.51875 266.0656 35.425Q266.9406 36.33125 268.2375 36.33125Q269.20624 36.33125 269.8781 35.83125Q270.5656 35.315624 270.97186 34.20625ZM265.1906 31.3625L270.9875 31.3625Q270.8781 30.065624 270.33124 29.409374Q269.4875 28.39375 268.14374 28.39375Q266.9406 28.39375 266.1125 29.20625Q265.28436 30.003124 265.1906 31.3625ZM274.15936 34.45625L275.90936 34.175Q276.05 35.221874 276.72186 35.784374Q277.39374 36.33125 278.59686 36.33125Q279.8 36.33125 280.3781 35.846874Q280.97186 35.346874 280.97186 34.690624Q280.97186 34.096874 280.45624 33.753124Q280.09686 33.51875 278.65936 33.159374Q276.72186 32.659374 275.97186 32.315624Q275.2375 31.95625 274.84686 31.33125Q274.45624 30.690624 274.45624 29.925Q274.45624 29.2375 274.76874 28.64375Q275.09686 28.05 275.64374 27.659374Q276.05 27.3625 276.7531 27.159374Q277.47186 26.940624 278.28436 26.940624Q279.5031 26.940624 280.425 27.3Q281.34686 27.64375 281.78436 28.253124Q282.22186 28.846874 282.39374 29.846874L280.675 30.08125Q280.55 29.284374 279.9875 28.846874Q279.425 28.39375 278.40936 28.39375Q277.1906 28.39375 276.675 28.8Q276.15936 29.190624 276.15936 29.721874Q276.15936 30.065624 276.3781 30.346874Q276.58124 30.628124 277.05 30.815624Q277.3156 30.909374 278.59686 31.253124Q280.47186 31.753124 281.20624 32.08125Q281.9406 32.39375 282.3625 33.003124Q282.78436 33.596874 282.78436 34.503124Q282.78436 35.378124 282.26874 36.159374Q281.7531 36.940624 280.78436 37.3625Q279.8156 37.784374 278.59686 37.784374Q276.58124 37.784374 275.51874 36.940624Q274.45624 36.096874 274.15936 34.45625ZM297.64374 36.26875Q296.65936 37.096874 295.7531 37.440624Q294.84686 37.784374 293.8156 37.784374Q292.1125 37.784374 291.1906 36.95625Q290.26874 36.1125 290.26874 34.815624Q290.26874 34.05 290.6125 33.425Q290.97186 32.8 291.53436 32.425Q292.09686 32.034374 292.8 31.83125Q293.3156 31.70625 294.3625 31.565624Q296.4875 31.315624 297.4875 30.971874Q297.5031 30.6125 297.5031 30.503124Q297.5031 29.440624 297.0031 28.9875Q296.33124 28.39375 295.0031 28.39375Q293.7531 28.39375 293.15936 28.83125Q292.58124 29.26875 292.3 30.378124L290.58124 30.14375Q290.8156 29.034374 291.34686 28.3625Q291.8781 27.675 292.89374 27.315624Q293.90936 26.940624 295.2531 26.940624Q296.58124 26.940624 297.40936 27.253124Q298.2375 27.565624 298.6281 28.05Q299.01874 28.51875 299.175 29.2375Q299.26874 29.690624 299.26874 30.8625L299.26874 33.20625Q299.26874 35.659374 299.3781 36.315624Q299.4875 36.95625 299.83124 37.55L297.9875 37.55Q297.72186 37.003124 297.64374 36.26875ZM297.4875 32.346874Q296.53436 32.7375 294.6125 33.003124Q293.53436 33.159374 293.08124 33.3625Q292.64374 33.55 292.39374 33.925Q292.14374 34.3 292.14374 34.76875Q292.14374 35.471874 292.675 35.940624Q293.20624 36.409374 294.2375 36.409374Q295.2531 36.409374 296.03436 35.971874Q296.83124 35.51875 297.20624 34.753124Q297.4875 34.14375 297.4875 32.9875L297.4875 32.346874ZM314.65936 37.55L314.65936 36.01875Q313.45624 37.784374 311.3781 37.784374Q310.45624 37.784374 309.65936 37.440624Q308.8625 37.08125 308.47186 36.55Q308.09686 36.01875 307.9406 35.2375Q307.83124 34.721874 307.83124 33.596874L307.83124 27.175L309.58124 27.175L309.58124 32.925Q309.58124 34.3 309.6906 34.784374Q309.8625 35.471874 310.39374 35.878124Q310.9406 36.26875 311.72186 36.26875Q312.51874 36.26875 313.20624 35.8625Q313.90936 35.45625 314.1906 34.76875Q314.4875 34.065624 314.4875 32.7375L314.4875 27.175L316.2375 27.175L316.2375 37.55L314.65936 37.55ZM318.8625 37.55L318.8625 27.175L320.45624 27.175L320.45624 28.659374Q321.59686 26.940624 323.7531 26.940624Q324.6906 26.940624 325.47186 27.284374Q326.26874 27.6125 326.65936 28.159374Q327.05 28.70625 327.20624 29.45625Q327.3 29.95625 327.3 31.175L327.3 37.55L325.53436 37.55L325.53436 31.2375Q325.53436 30.159374 325.33124 29.628124Q325.1281 29.096874 324.59686 28.784374Q324.08124 28.471874 323.3781 28.471874Q322.2531 28.471874 321.4406 29.190624Q320.6281 29.89375 320.6281 31.878124L320.6281 37.55L318.8625 37.55ZM329.8781 25.253124L329.8781 23.2375L331.64374 23.2375L331.64374 25.253124L329.8781 25.253124ZM329.8781 37.55L329.8781 27.175L331.64374 27.175L331.64374 37.55L329.8781 37.55ZM340.4875 41.51875L340.4875 36.440624Q340.0656 37.01875 339.33124 37.409374Q338.59686 37.784374 337.76874 37.784374Q335.925 37.784374 334.58124 36.315624Q333.2531 34.83125 333.2531 32.26875Q333.2531 30.70625 333.78436 29.471874Q334.33124 28.221874 335.3625 27.58125Q336.39374 26.940624 337.6281 26.940624Q339.55 26.940624 340.65936 28.565624L340.65936 27.175L342.2375 27.175L342.2375 41.51875L340.4875 41.51875ZM335.0656 32.33125Q335.0656 34.33125 335.89374 35.33125Q336.7375 36.33125 337.90936 36.33125Q339.03436 36.33125 339.84686 35.39375Q340.65936 34.440624 340.65936 32.4875Q340.65936 30.425 339.8 29.378124Q338.9406 28.33125 337.8 28.33125Q336.65936 28.33125 335.8625 29.3Q335.0656 30.26875 335.0656 32.33125ZM351.65936 37.55L351.65936 36.01875Q350.45624 37.784374 348.3781 37.784374Q347.45624 37.784374 346.65936 37.440624Q345.8625 37.08125 345.47186 36.55Q345.09686 36.01875 344.9406 35.2375Q344.83124 34.721874 344.83124 33.596874L344.83124 27.175L346.58124 27.175L346.58124 32.925Q346.58124 34.3 346.6906 34.784374Q346.8625 35.471874 347.39374 35.878124Q347.9406 36.26875 348.72186 36.26875Q349.51874 36.26875 350.20624 35.8625Q350.90936 35.45625 351.1906 34.76875Q351.4875 34.065624 351.4875 32.7375L351.4875 27.175L353.2375 27.175L353.2375 37.55L351.65936 37.55ZM362.97186 34.20625L364.78436 34.440624Q364.3625 36.01875 363.1906 36.909374Q362.03436 37.784374 360.22186 37.784374Q357.95624 37.784374 356.6125 36.39375Q355.28436 34.9875 355.28436 32.45625Q355.28436 29.83125 356.6281 28.39375Q357.97186 26.940624 360.1281 26.940624Q362.20624 26.940624 363.51874 28.3625Q364.84686 29.76875 364.84686 32.346874Q364.84686 32.503124 364.83124 32.815624L357.09686 32.815624Q357.1906 34.51875 358.0656 35.425Q358.9406 36.33125 360.2375 36.33125Q361.20624 36.33125 361.8781 35.83125Q362.5656 35.315624 362.97186 34.20625ZM357.1906 31.3625L362.9875 31.3625Q362.8781 30.065624 362.33124 29.409374Q361.4875 28.39375 360.14374 28.39375Q358.9406 28.39375 358.1125 29.20625Q357.28436 30.003124 357.1906 31.3625ZM379.97186 34.20625L381.78436 34.440624Q381.3625 36.01875 380.1906 36.909374Q379.03436 37.784374 377.22186 37.784374Q374.95624 37.784374 373.6125 36.39375Q372.28436 34.9875 372.28436 32.45625Q372.28436 29.83125 373.6281 28.39375Q374.97186 26.940624 377.1281 26.940624Q379.20624 26.940624 380.51874 28.3625Q381.84686 29.76875 381.84686 32.346874Q381.84686 32.503124 381.83124 32.815624L374.09686 32.815624Q374.1906 34.51875 375.0656 35.425Q375.9406 36.33125 377.2375 36.33125Q378.20624 36.33125 378.8781 35.83125Q379.5656 35.315624 379.97186 34.20625ZM374.1906 31.3625L379.9875 31.3625Q379.8781 30.065624 379.33124 29.409374Q378.4875 28.39375 377.14374 28.39375Q375.9406 28.39375 375.1125 29.20625Q374.28436 30.003124 374.1906 31.3625ZM382.6906 37.55L386.4875 32.159374L382.9875 27.175L385.175 27.175L386.76874 29.6125Q387.22186 30.3 387.4875 30.76875Q387.925 30.128124 388.28436 29.628124L390.03436 27.175L392.1281 27.175L388.55 32.065624L392.40936 37.55L390.2531 37.55L388.1125 34.33125L387.55 33.45625L384.83124 37.55L382.6906 37.55ZM393.8625 41.51875L393.8625 27.175L395.47186 27.175L395.47186 28.51875Q396.03436 27.7375 396.7375 27.346874Q397.45624 26.940624 398.47186 26.940624Q399.8 26.940624 400.8156 27.628124Q401.83124 28.315624 402.34686 29.565624Q402.8781 30.8 402.8781 32.284374Q402.8781 33.878124 402.3 35.159374Q401.7375 36.425 400.64374 37.1125Q399.55 37.784374 398.34686 37.784374Q397.47186 37.784374 396.76874 37.409374Q396.08124 37.034374 395.6281 36.471874L395.6281 41.51875L393.8625 41.51875ZM395.45624 32.425Q395.45624 34.425 396.26874 35.378124Q397.08124 36.33125 398.2375 36.33125Q399.40936 36.33125 400.2375 35.346874Q401.08124 34.3625 401.08124 32.26875Q401.08124 30.3 400.2531 29.315624Q399.4406 28.315624 398.3156 28.315624Q397.1906 28.315624 396.3156 29.378124Q395.45624 30.425 395.45624 32.425ZM411.97186 34.20625L413.78436 34.440624Q413.3625 36.01875 412.1906 36.909374Q411.03436 37.784374 409.22186 37.784374Q406.95624 37.784374 405.6125 36.39375Q404.28436 34.9875 404.28436 32.45625Q404.28436 29.83125 405.6281 28.39375Q406.97186 26.940624 409.1281 26.940624Q411.20624 26.940624 412.51874 28.3625Q413.84686 29.76875 413.84686 32.346874Q413.84686 32.503124 413.83124 32.815624L406.09686 32.815624Q406.1906 34.51875 407.0656 35.425Q407.9406 36.33125 409.2375 36.33125Q410.20624 36.33125 410.8781 35.83125Q411.5656 35.315624 411.97186 34.20625ZM406.1906 31.3625L411.9875 31.3625Q411.8781 30.065624 411.33124 29.409374Q410.4875 28.39375 409.14374 28.39375Q407.9406 28.39375 407.1125 29.20625Q406.28436 30.003124 406.1906 31.3625ZM415.84686 37.55L415.84686 27.175L417.425 27.175L417.425 28.753124Q418.03436 27.64375 418.55 27.3Q419.0656 26.940624 419.675 26.940624Q420.5656 26.940624 421.4875 27.503124L420.8781 29.14375Q420.2375 28.753124 419.59686 28.753124Q419.01874 28.753124 418.55 29.1125Q418.09686 29.45625 417.89374 30.065624Q417.6125 31.003124 417.6125 32.1125L417.6125 37.55L415.84686 37.55ZM422.8781 25.253124L422.8781 23.2375L424.64374 23.2375L424.64374 25.253124L422.8781 25.253124ZM422.8781 37.55L422.8781 27.175L424.64374 27.175L424.64374 37.55L422.8781 37.55ZM433.97186 34.20625L435.78436 34.440624Q435.3625 36.01875 434.1906 36.909374Q433.03436 37.784374 431.22186 37.784374Q428.95624 37.784374 427.6125 36.39375Q426.28436 34.9875 426.28436 32.45625Q426.28436 29.83125 427.6281 28.39375Q428.97186 26.940624 431.1281 26.940624Q433.20624 26.940624 434.51874 28.3625Q435.84686 29.76875 435.84686 32.346874Q435.84686 32.503124 435.83124 32.815624L428.09686 32.815624Q428.1906 34.51875 429.0656 35.425Q429.9406 36.33125 431.2375 36.33125Q432.20624 36.33125 432.8781 35.83125Q433.5656 35.315624 433.97186 34.20625ZM428.1906 31.3625L433.9875 31.3625Q433.8781 30.065624 433.33124 29.409374Q432.4875 28.39375 431.14374 28.39375Q429.9406 28.39375 429.1125 29.20625Q428.28436 30.003124 428.1906 31.3625ZM437.8625 37.55L437.8625 27.175L439.45624 27.175L439.45624 28.659374Q440.59686 26.940624 442.7531 26.940624Q443.6906 26.940624 444.47186 27.284374Q445.26874 27.6125 445.65936 28.159374Q446.05 28.70625 446.20624 29.45625Q446.3 29.95625 446.3 31.175L446.3 37.55L444.53436 37.55L444.53436 31.2375Q444.53436 30.159374 444.33124 29.628124Q444.1281 29.096874 443.59686 28.784374Q443.08124 28.471874 442.3781 28.471874Q441.2531 28.471874 440.4406 29.190624Q439.6281 29.89375 439.6281 31.878124L439.6281 37.55L437.8625 37.55ZM455.64374 33.753124L457.3625 33.971874Q457.08124 35.76875 455.90936 36.784374Q454.7531 37.784374 453.05 37.784374Q450.925 37.784374 449.6281 36.39375Q448.33124 35.003124 448.33124 32.409374Q448.33124 30.721874 448.8781 29.471874Q449.4406 28.20625 450.58124 27.58125Q451.72186 26.940624 453.0656 26.940624Q454.7531 26.940624 455.8156 27.8Q456.89374 28.659374 457.20624 30.221874L455.4875 30.4875Q455.2531 29.440624 454.6281 28.925Q454.0031 28.39375 453.1281 28.39375Q451.8 28.39375 450.97186 29.346874Q450.14374 30.3 450.14374 32.346874Q450.14374 34.440624 450.9406 35.39375Q451.7375 36.33125 453.03436 36.33125Q454.0656 36.33125 454.7531 35.70625Q455.45624 35.065624 455.64374 33.753124ZM465.97186 34.20625L467.78436 34.440624Q467.3625 36.01875 466.1906 36.909374Q465.03436 37.784374 463.22186 37.784374Q460.95624 37.784374 459.6125 36.39375Q458.28436 34.9875 458.28436 32.45625Q458.28436 29.83125 459.6281 28.39375Q460.97186 26.940624 463.1281 26.940624Q465.20624 26.940624 466.51874 28.3625Q467.84686 29.76875 467.84686 32.346874Q467.84686 32.503124 467.83124 32.815624L460.09686 32.815624Q460.1906 34.51875 461.0656 35.425Q461.9406 36.33125 463.2375 36.33125Q464.20624 36.33125 464.8781 35.83125Q465.5656 35.315624 465.97186 34.20625ZM460.1906 31.3625L465.9875 31.3625Q465.8781 30.065624 465.33124 29.409374Q464.4875 28.39375 463.14374 28.39375Q461.9406 28.39375 461.1125 29.20625Q460.28436 30.003124 460.1906 31.3625ZM475.22186 32.3625Q475.22186 29.4875 476.8156 28.096874Q478.15936 26.940624 480.08124 26.940624Q482.22186 26.940624 483.5656 28.346874Q484.925 29.753124 484.925 32.221874Q484.925 34.221874 484.33124 35.378124Q483.7375 36.51875 482.58124 37.159374Q481.4406 37.784374 480.08124 37.784374Q477.89374 37.784374 476.55 36.39375Q475.22186 34.9875 475.22186 32.3625ZM477.01874 32.3625Q477.01874 34.3625 477.8781 35.346874Q478.7531 36.33125 480.08124 36.33125Q481.39374 36.33125 482.2531 35.346874Q483.1281 34.346874 483.1281 32.3Q483.1281 30.378124 482.2531 29.39375Q481.3781 28.39375 480.08124 28.39375Q478.7531 28.39375 477.8781 29.39375Q477.01874 30.378124 477.01874 32.3625ZM487.28436 37.55L487.28436 28.55L485.7375 28.55L485.7375 27.175L487.28436 27.175L487.28436 26.08125Q487.28436 25.034374 487.47186 24.51875Q487.72186 23.83125 488.3625 23.409374Q489.0031 22.9875 490.15936 22.9875Q490.90936 22.9875 491.8 23.159374L491.53436 24.690624Q490.9875 24.596874 490.5031 24.596874Q489.70624 24.596874 489.3625 24.940624Q489.03436 25.284374 489.03436 26.221874L489.03436 27.175L491.0656 27.175L491.0656 28.55L489.03436 28.55L489.03436 37.55L487.28436 37.55ZM502.70624 35.971874L502.95624 37.534374Q502.22186 37.690624 501.6281 37.690624Q500.675 37.690624 500.14374 37.39375Q499.6281 37.08125 499.40936 36.596874Q499.1906 36.096874 499.1906 34.51875L499.1906 28.55L497.90936 28.55L497.90936 27.175L499.1906 27.175L499.1906 24.6125L500.9406 23.55L500.9406 27.175L502.70624 27.175L502.70624 28.55L500.9406 28.55L500.9406 34.6125Q500.9406 35.3625 501.03436 35.58125Q501.1281 35.784374 501.33124 35.925Q501.55 36.05 501.9406 36.05Q502.22186 36.05 502.70624 35.971874ZM504.8625 37.55L504.8625 23.2375L506.6281 23.2375L506.6281 28.3625Q507.8625 26.940624 509.7375 26.940624Q510.8781 26.940624 511.72186 27.39375Q512.58124 27.846874 512.9406 28.659374Q513.3156 29.45625 513.3156 30.971874L513.3156 37.55L511.5656 37.55L511.5656 30.971874Q511.5656 29.659374 510.9875 29.065624Q510.40936 28.45625 509.3781 28.45625Q508.59686 28.45625 507.89374 28.8625Q507.20624 29.26875 506.90936 29.971874Q506.6281 30.659374 506.6281 31.878124L506.6281 37.55L504.8625 37.55ZM515.8781 25.253124L515.8781 23.2375L517.64374 23.2375L517.64374 25.253124L515.8781 25.253124ZM515.8781 37.55L515.8781 27.175L517.64374 27.175L517.64374 37.55L515.8781 37.55ZM519.15936 34.45625L520.90936 34.175Q521.05 35.221874 521.72186 35.784374Q522.39374 36.33125 523.59686 36.33125Q524.8 36.33125 525.3781 35.846874Q525.97186 35.346874 525.97186 34.690624Q525.97186 34.096874 525.45624 33.753124Q525.09686 33.51875 523.65936 33.159374Q521.72186 32.659374 520.97186 32.315624Q520.2375 31.95625 519.84686 31.33125Q519.45624 30.690624 519.45624 29.925Q519.45624 29.2375 519.76874 28.64375Q520.09686 28.05 520.64374 27.659374Q521.05 27.3625 521.7531 27.159374Q522.47186 26.940624 523.28436 26.940624Q524.5031 26.940624 525.425 27.3Q526.34686 27.64375 526.78436 28.253124Q527.22186 28.846874 527.39374 29.846874L525.675 30.08125Q525.55 29.284374 524.9875 28.846874Q524.425 28.39375 523.40936 28.39375Q522.1906 28.39375 521.675 28.8Q521.15936 29.190624 521.15936 29.721874Q521.15936 30.065624 521.3781 30.346874Q521.58124 30.628124 522.05 30.815624Q522.3156 30.909374 523.59686 31.253124Q525.47186 31.753124 526.20624 32.08125Q526.9406 32.39375 527.3625 33.003124Q527.78436 33.596874 527.78436 34.503124Q527.78436 35.378124 527.26874 36.159374Q526.7531 36.940624 525.78436 37.3625Q524.8156 37.784374 523.59686 37.784374Q521.58124 37.784374 520.51874 36.940624Q519.45624 36.096874 519.15936 34.45625Z" fill-rule="nonzero"/><path fill="#757575" d="M19.878124 61.55L19.878124 47.2375L21.64375 47.2375L21.64375 55.39375L25.8 51.175L28.065624 51.175L24.1125 55.01875L28.471874 61.55L26.3 61.55L22.878124 56.253124L21.64375 57.440624L21.64375 61.55L19.878124 61.55ZM29.878124 49.253124L29.878124 47.2375L31.64375 47.2375L31.64375 49.253124L29.878124 49.253124ZM29.878124 61.55L29.878124 51.175L31.64375 51.175L31.64375 61.55L29.878124 61.55ZM33.8625 61.55L33.8625 51.175L35.45625 51.175L35.45625 52.659374Q36.596874 50.940624 38.753124 50.940624Q39.690624 50.940624 40.471874 51.284374Q41.26875 51.6125 41.659374 52.159374Q42.05 52.70625 42.20625 53.45625Q42.3 53.95625 42.3 55.175L42.3 61.55L40.534374 61.55L40.534374 55.2375Q40.534374 54.159374 40.33125 53.628124Q40.128124 53.096874 39.596874 52.784374Q39.08125 52.471874 38.378124 52.471874Q37.253124 52.471874 36.440624 53.190624Q35.628124 53.89375 35.628124 55.878124L35.628124 61.55L33.8625 61.55ZM51.596874 61.55L51.596874 60.2375Q50.6125 61.784374 48.690624 61.784374Q47.45625 61.784374 46.409374 61.096874Q45.378124 60.409374 44.8 59.190624Q44.2375 57.971874 44.2375 56.378124Q44.2375 54.815624 44.753124 53.55Q45.26875 52.284374 46.3 51.6125Q47.346874 50.940624 48.6125 50.940624Q49.55 50.940624 50.284374 51.346874Q51.01875 51.7375 51.4875 52.3625L51.4875 47.2375L53.221874 47.2375L53.221874 61.55L51.596874 61.55ZM46.034374 56.378124Q46.034374 58.3625 46.878124 59.346874Q47.721874 60.33125 48.8625 60.33125Q50.01875 60.33125 50.815624 59.39375Q51.628124 58.45625 51.628124 56.51875Q51.628124 54.39375 50.8 53.39375Q49.9875 52.39375 48.784374 52.39375Q47.6125 52.39375 46.815624 53.3625Q46.034374 54.315624 46.034374 56.378124ZM59.159374 58.01875Q59.14375 57.675 59.14375 57.503124Q59.14375 56.45625 59.440624 55.70625Q59.659374 55.14375 60.14375 54.565624Q60.4875 54.14375 61.39375 53.346874Q62.315624 52.534374 62.58125 52.065624Q62.8625 51.58125 62.8625 51.01875Q62.8625 49.9875 62.05 49.221874Q61.253124 48.440624 60.096874 48.440624Q58.971874 48.440624 58.221874 49.14375Q57.471874 49.846874 57.2375 51.33125L55.425 51.1125Q55.675 49.1125 56.878124 48.05Q58.08125 46.9875 60.065624 46.9875Q62.175 46.9875 63.425 48.128124Q64.675 49.26875 64.675 50.89375Q64.675 51.83125 64.22188 52.628124Q63.784374 53.409374 62.503124 54.55Q61.64375 55.315624 61.378124 55.675Q61.128124 56.034374 60.9875 56.503124Q60.8625 56.971874 60.846874 58.01875L59.159374 58.01875ZM59.05 61.55L59.05 59.55L61.05 59.55L61.05 61.55L59.05 61.55Z" fill-rule="nonzero"/></svg>