<svg version="1.1" viewBox="0.0 0.0 600.0 371.0" fill="none" stroke="none" stroke-linecap="square" stroke-miterlimit="10" width="600" height="371" xmlns:xlink="http://www.w3.org/1999/xlink" xmlns="http://www.w3.org/2000/svg"><path fill="#ffffff" d="M0 0L600.0 0L600.0 371.0L0 371.0L0 0Z" fill-rule="nonzero"/><path fill="#fbbc04" d="M259.86322 92.25084C272.92798 89.68844 286.4321 88.38917 300.0 88.38917L300.0 192.52583Z" fill-rule="nonzero"/><path fill="#a42f25" d="M240.7312 310.35617C186.38908 293.83328 151.23334 256.3138 151.23334 214.84084L151.23334 192.52583C151.23334 233.99881 186.38908 271.51828 240.7312 288.04117Z" fill-rule="nonzero"/><path fill="#ea4335" d="M240.7312 288.04117C182.98796 270.48416 147.28392 229.38522 151.58014 185.4193C155.87636 141.45337 199.24255 104.14042 259.86322 92.25084L300.0 192.52583Z" fill-rule="nonzero"/><path fill="#2e5dab" d="M448.76666 214.84084C448.76666 249.93576 423.51385 282.67017 381.59137 301.91806C339.66885 321.16592 286.71616 324.338 240.7312 310.35617L240.7312 288.04117C286.71616 302.023 339.66885 298.85092 381.59137 279.60306C423.51385 260.35516 448.76666 227.62077 448.76666 192.52583Z" fill-rule="nonzero"/><path fill="#4285f4" d="M300.0 88.38917C360.47882 88.38917 414.9384 114.01848 437.76425 153.22266C460.59012 192.42683 447.23874 237.40213 403.98975 266.99496C360.74075 296.58777 296.20306 304.90753 240.7312 288.04117L300.0 192.52583Z" fill-rule="nonzero"/><path fill="#1a1a1a" d="M19.471874 90.01744L19.471874 81.42369L22.440624 81.42369Q23.440624 81.42369 23.971874 81.54869Q24.70625 81.720566 25.221874 82.158066Q25.909374 82.73619 26.2375 83.64244Q26.58125 84.533066 26.58125 85.67369Q26.58125 86.658066 26.346874 87.408066Q26.128124 88.158066 25.76875 88.658066Q25.409374 89.158066 24.971874 89.439316Q24.55 89.720566 23.95625 89.876816Q23.3625 90.01744 22.58125 90.01744L19.471874 90.01744ZM20.6125 89.001816L22.440624 89.001816Q23.3 89.001816 23.784374 88.845566Q24.26875 88.689316 24.55 88.39244Q24.95625 88.001816 25.175 87.314316Q25.409374 86.626816 25.409374 85.658066Q25.409374 84.314316 24.95625 83.595566Q24.51875 82.86119 23.89375 82.61119Q23.425 82.439316 22.425 82.439316L20.6125 82.439316L20.6125 89.001816ZM28.346874 82.64244L28.346874 81.42369L29.409374 81.42369L29.409374 82.64244L28.346874 82.64244ZM28.346874 90.01744L28.346874 83.79869L29.409374 83.79869L29.409374 90.01744L28.346874 90.01744ZM30.925 88.158066L31.95625 88.001816Q32.05 88.626816 32.440624 88.95494Q32.846874 89.283066 33.58125 89.283066Q34.3 89.283066 34.64375 89.001816Q35.003124 88.70494 35.003124 88.29869Q35.003124 87.939316 34.690624 87.73619Q34.471874 87.595566 33.6125 87.376816Q32.45625 87.07994 32.003124 86.876816Q31.565624 86.658066 31.33125 86.283066Q31.096874 85.908066 31.096874 85.439316Q31.096874 85.033066 31.284374 84.67369Q31.471874 84.314316 31.8 84.07994Q32.05 83.908066 32.471874 83.783066Q32.89375 83.658066 33.39375 83.658066Q34.1125 83.658066 34.659374 83.876816Q35.221874 84.07994 35.4875 84.439316Q35.753124 84.79869 35.846874 85.39244L34.815624 85.533066Q34.753124 85.064316 34.409374 84.79869Q34.08125 84.51744 33.45625 84.51744Q32.7375 84.51744 32.425 84.76744Q32.1125 85.001816 32.1125 85.32994Q32.1125 85.533066 32.2375 85.689316Q32.378124 85.86119 32.64375 85.970566Q32.8 86.033066 33.58125 86.23619Q34.70625 86.54869 35.14375 86.73619Q35.58125 86.92369 35.83125 87.283066Q36.08125 87.64244 36.08125 88.189316Q36.08125 88.720566 35.76875 89.189316Q35.471874 89.64244 34.89375 89.908066Q34.315624 90.158066 33.58125 90.158066Q32.3625 90.158066 31.721874 89.658066Q31.096874 89.14244 30.925 88.158066ZM41.409374 89.251816Q40.815624 89.751816 40.26875 89.95494Q39.7375 90.158066 39.1125 90.158066Q38.08125 90.158066 37.534374 89.658066Q36.9875 89.158066 36.9875 88.376816Q36.9875 87.92369 37.190624 87.54869Q37.39375 87.158066 37.7375 86.939316Q38.08125 86.70494 38.503124 86.595566Q38.8 86.501816 39.440624 86.42369Q40.70625 86.283066 41.315624 86.064316Q41.315624 85.845566 41.315624 85.79869Q41.315624 85.14244 41.01875 84.876816Q40.6125 84.533066 39.815624 84.533066Q39.08125 84.533066 38.721874 84.79869Q38.3625 85.04869 38.190624 85.70494L37.159374 85.564316Q37.3 84.908066 37.628124 84.501816Q37.95625 84.095566 38.565624 83.876816Q39.175 83.658066 39.971874 83.658066Q40.76875 83.658066 41.26875 83.845566Q41.76875 84.033066 42.003124 84.314316Q42.2375 84.595566 42.33125 85.033066Q42.378124 85.29869 42.378124 86.001816L42.378124 87.408066Q42.378124 88.876816 42.440624 89.26744Q42.51875 89.658066 42.721874 90.01744L41.6125 90.01744Q41.45625 89.689316 41.409374 89.251816ZM41.315624 86.89244Q40.7375 87.126816 39.596874 87.29869Q38.940624 87.39244 38.675 87.51744Q38.409374 87.626816 38.253124 87.845566Q38.1125 88.064316 38.1125 88.345566Q38.1125 88.76744 38.425 89.04869Q38.753124 89.32994 39.3625 89.32994Q39.971874 89.32994 40.440624 89.064316Q40.925 88.79869 41.14375 88.32994Q41.315624 87.970566 41.315624 87.283066L41.315624 86.89244ZM44.14375 90.533066L45.175 90.689316Q45.2375 91.158066 45.534374 91.376816Q45.925 91.67369 46.596874 91.67369Q47.33125 91.67369 47.721874 91.376816Q48.128124 91.07994 48.26875 90.564316Q48.3625 90.23619 48.346874 89.20494Q47.659374 90.01744 46.628124 90.01744Q45.346874 90.01744 44.64375 89.095566Q43.940624 88.158066 43.940624 86.876816Q43.940624 85.98619 44.253124 85.23619Q44.58125 84.470566 45.190624 84.064316Q45.8 83.658066 46.628124 83.658066Q47.7375 83.658066 48.45625 84.54869L48.45625 83.79869L49.425 83.79869L49.425 89.17369Q49.425 90.626816 49.128124 91.23619Q48.83125 91.845566 48.190624 92.189316Q47.55 92.54869 46.6125 92.54869Q45.503124 92.54869 44.815624 92.04869Q44.128124 91.54869 44.14375 90.533066ZM45.01875 86.79869Q45.01875 88.01744 45.503124 88.57994Q45.9875 89.14244 46.721874 89.14244Q47.45625 89.14244 47.940624 88.57994Q48.440624 88.01744 48.440624 86.82994Q48.440624 85.689316 47.925 85.11119Q47.425 84.533066 46.70625 84.533066Q46.003124 84.533066 45.503124 85.11119Q45.01875 85.67369 45.01875 86.79869ZM51.33125 90.01744L51.33125 83.79869L52.284374 83.79869L52.284374 84.73619Q52.64375 84.07994 52.940624 83.876816Q53.253124 83.658066 53.628124 83.658066Q54.159374 83.658066 54.70625 83.98619L54.346874 84.970566Q53.95625 84.73619 53.58125 84.73619Q53.221874 84.73619 52.940624 84.95494Q52.675 85.158066 52.565624 85.533066Q52.378124 86.095566 52.378124 86.751816L52.378124 90.01744L51.33125 90.01744ZM59.596874 88.01744L60.690624 88.14244Q60.440624 89.095566 59.7375 89.626816Q59.034374 90.158066 57.95625 90.158066Q56.596874 90.158066 55.784374 89.314316Q54.9875 88.470566 54.9875 86.95494Q54.9875 85.39244 55.8 84.533066Q56.6125 83.658066 57.89375 83.658066Q59.14375 83.658066 59.925 84.501816Q60.721874 85.345566 60.721874 86.89244Q60.721874 86.98619 60.721874 87.17369L56.08125 87.17369Q56.14375 88.20494 56.659374 88.751816Q57.175 89.283066 57.95625 89.283066Q58.534374 89.283066 58.940624 88.98619Q59.3625 88.67369 59.596874 88.01744ZM56.14375 86.314316L59.6125 86.314316Q59.55 85.51744 59.221874 85.126816Q58.70625 84.51744 57.909374 84.51744Q57.175 84.51744 56.675 85.001816Q56.190624 85.48619 56.14375 86.314316ZM66.59688 88.01744L67.69063 88.14244Q67.44063 89.095566 66.7375 89.626816Q66.03438 90.158066 64.95625 90.158066Q63.596874 90.158066 62.784374 89.314316Q61.9875 88.470566 61.9875 86.95494Q61.9875 85.39244 62.8 84.533066Q63.6125 83.658066 64.89375 83.658066Q66.14375 83.658066 66.925 84.501816Q67.72188 85.345566 67.72188 86.89244Q67.72188 86.98619 67.72188 87.17369L63.08125 87.17369Q63.14375 88.20494 63.659374 88.751816Q64.175 89.283066 64.95625 89.283066Q65.53438 89.283066 65.94063 88.98619Q66.3625 88.67369 66.59688 88.01744ZM63.14375 86.314316L66.6125 86.314316Q66.55 85.51744 66.22188 85.126816Q65.70625 84.51744 64.90938 84.51744Q64.175 84.51744 63.675 85.001816Q63.190624 85.48619 63.14375 86.314316Z" fill-rule="nonzero"/><path fill="#9e9e9e" d="M22.425 107.01744L22.425 104.95494L18.70625 104.95494L18.70625 103.98619L22.628124 98.42369L23.4875 98.42369L23.4875 103.98619L24.64375 103.98619L24.64375 104.95494L23.4875 104.95494L23.4875 107.01744L22.425 107.01744ZM22.425 103.98619L22.425 100.126816L19.7375 103.98619L22.425 103.98619ZM26.6125 107.01744L26.6125 105.814316L27.815624 105.814316L27.815624 107.01744Q27.815624 107.67369 27.58125 108.07994Q27.346874 108.501816 26.846874 108.720566L26.55 108.26744Q26.878124 108.126816 27.034374 107.82994Q27.190624 107.54869 27.221874 107.01744L26.6125 107.01744ZM29.05 104.751816L30.1125 104.61119Q30.284374 105.501816 30.721874 105.908066Q31.159374 106.29869 31.784374 106.29869Q32.534374 106.29869 33.05 105.783066Q33.565624 105.26744 33.565624 104.501816Q33.565624 103.783066 33.08125 103.314316Q32.6125 102.82994 31.878124 102.82994Q31.58125 102.82994 31.128124 102.95494L31.253124 102.01744Q31.3625 102.033066 31.425 102.033066Q32.096874 102.033066 32.628124 101.689316Q33.175 101.32994 33.175 100.595566Q33.175 100.01744 32.784374 99.64244Q32.39375 99.251816 31.76875 99.251816Q31.159374 99.251816 30.7375 99.64244Q30.33125 100.033066 30.221874 100.79869L29.159374 100.61119Q29.346874 99.564316 30.034374 98.98619Q30.721874 98.39244 31.7375 98.39244Q32.440624 98.39244 33.034374 98.70494Q33.628124 99.001816 33.940624 99.51744Q34.253124 100.033066 34.253124 100.626816Q34.253124 101.17369 33.95625 101.64244Q33.659374 102.095566 33.08125 102.36119Q33.83125 102.533066 34.253124 103.095566Q34.675 103.64244 34.675 104.48619Q34.675 105.61119 33.846874 106.39244Q33.034374 107.17369 31.784374 107.17369Q30.659374 107.17369 29.909374 106.501816Q29.159374 105.814316 29.05 104.751816ZM36.253124 100.48619Q36.253124 99.564316 36.70625 98.92369Q37.175 98.283066 38.05 98.283066Q38.8625 98.283066 39.39375 98.86119Q39.925 99.439316 39.925 100.54869Q39.925 101.64244 39.378124 102.23619Q38.846874 102.814316 38.065624 102.814316Q37.284374 102.814316 36.76875 102.23619Q36.253124 101.658066 36.253124 100.48619ZM38.08125 99.001816Q37.690624 99.001816 37.425 99.345566Q37.175 99.689316 37.175 100.595566Q37.175 101.42369 37.425 101.76744Q37.690624 102.095566 38.08125 102.095566Q38.4875 102.095566 38.7375 101.751816Q39.003124 101.408066 39.003124 100.51744Q39.003124 99.67369 38.7375 99.345566Q38.471874 99.001816 38.08125 99.001816ZM38.08125 107.32994L42.784374 98.283066L43.64375 98.283066L38.95625 107.32994L38.08125 107.32994ZM41.8 105.001816Q41.8 104.07994 42.253124 103.439316Q42.721874 102.79869 43.6125 102.79869Q44.425 102.79869 44.95625 103.376816Q45.4875 103.939316 45.4875 105.064316Q45.4875 106.158066 44.940624 106.751816Q44.409374 107.32994 43.6125 107.32994Q42.846874 107.32994 42.315624 106.751816Q41.8 106.17369 41.8 105.001816ZM43.64375 103.51744Q43.2375 103.51744 42.971874 103.86119Q42.721874 104.20494 42.721874 105.11119Q42.721874 105.92369 42.9875 106.26744Q43.253124 106.61119 43.64375 106.61119Q44.034374 106.61119 44.3 106.26744Q44.565624 105.92369 44.565624 105.01744Q44.565624 104.189316 44.3 103.86119Q44.034374 103.51744 43.64375 103.51744Z" fill-rule="nonzero"/><path stroke="#757575" stroke-width="1.0" stroke-linecap="butt" d="M18.55 94.51744L145.23334 94.51744L280.7558 94.51744" fill-rule="nonzero"/><path fill="#9e9e9e" d="M282.7558 94.51744C282.7558 93.412865 281.86035 92.51744 280.7558 92.51744C279.6512 92.51744 278.7558 93.412865 278.7558 94.51744C278.7558 95.62201 279.6512 96.51744 280.7558 96.51744C281.86035 96.51744 282.7558 95.62201 282.7558 94.51744" fill-rule="nonzero"/><path fill="#1a1a1a" d="M18.534374 181.27463L21.83125 172.68088L23.05 172.68088L26.565624 181.27463L25.284374 181.27463L24.26875 178.66525L20.690624 178.66525L19.7375 181.27463L18.534374 181.27463ZM21.01875 177.74338L23.925 177.74338L23.034374 175.36838Q22.6125 174.29025 22.425 173.58713Q22.253124 174.41525 21.95625 175.22775L21.01875 177.74338ZM27.14375 181.79025L28.175 181.9465Q28.2375 182.41525 28.534374 182.634Q28.925 182.93088 29.596874 182.93088Q30.33125 182.93088 30.721874 182.634Q31.128124 182.33713 31.26875 181.8215Q31.3625 181.49338 31.346874 180.46213Q30.659374 181.27463 29.628124 181.27463Q28.346874 181.27463 27.64375 180.35275Q26.940624 179.41525 26.940624 178.134Q26.940624 177.24338 27.253124 176.49338Q27.58125 175.72775 28.190624 175.3215Q28.8 174.91525 29.628124 174.91525Q30.7375 174.91525 31.45625 175.80588L31.45625 175.05588L32.425 175.05588L32.425 180.43088Q32.425 181.884 32.128124 182.49338Q31.83125 183.10275 31.190624 183.4465Q30.55 183.80588 29.6125 183.80588Q28.503124 183.80588 27.815624 183.30588Q27.128124 182.80588 27.14375 181.79025ZM28.01875 178.05588Q28.01875 179.27463 28.503124 179.83713Q28.9875 180.39963 29.721874 180.39963Q30.45625 180.39963 30.940624 179.83713Q31.440624 179.27463 31.440624 178.08713Q31.440624 176.9465 30.925 176.36838Q30.425 175.79025 29.70625 175.79025Q29.003124 175.79025 28.503124 176.36838Q28.01875 176.93088 28.01875 178.05588ZM34.33125 181.27463L34.33125 175.05588L35.284374 175.05588L35.284374 175.99338Q35.64375 175.33713 35.940624 175.134Q36.253124 174.91525 36.628124 174.91525Q37.159374 174.91525 37.70625 175.24338L37.346874 176.22775Q36.95625 175.99338 36.58125 175.99338Q36.221874 175.99338 35.940624 176.21213Q35.675 176.41525 35.565624 176.79025Q35.378124 177.35275 35.378124 178.009L35.378124 181.27463L34.33125 181.27463ZM42.596874 179.27463L43.690624 179.39963Q43.440624 180.35275 42.7375 180.884Q42.034374 181.41525 40.95625 181.41525Q39.596874 181.41525 38.784374 180.5715Q37.9875 179.72775 37.9875 178.21213Q37.9875 176.64963 38.8 175.79025Q39.6125 174.91525 40.89375 174.91525Q42.14375 174.91525 42.925 175.759Q43.721874 176.60275 43.721874 178.14963Q43.721874 178.24338 43.721874 178.43088L39.08125 178.43088Q39.14375 179.46213 39.659374 180.009Q40.175 180.54025 40.95625 180.54025Q41.534374 180.54025 41.940624 180.24338Q42.3625 179.93088 42.596874 179.27463ZM39.14375 177.5715L42.6125 177.5715Q42.55 176.77463 42.221874 176.384Q41.70625 175.77463 40.909374 175.77463Q40.175 175.77463 39.675 176.259Q39.190624 176.74338 39.14375 177.5715ZM49.596874 179.27463L50.690624 179.39963Q50.440624 180.35275 49.7375 180.884Q49.034374 181.41525 47.95625 181.41525Q46.596874 181.41525 45.784374 180.5715Q44.9875 179.72775 44.9875 178.21213Q44.9875 176.64963 45.8 175.79025Q46.6125 174.91525 47.89375 174.91525Q49.14375 174.91525 49.925 175.759Q50.721874 176.60275 50.721874 178.14963Q50.721874 178.24338 50.721874 178.43088L46.08125 178.43088Q46.14375 179.46213 46.659374 180.009Q47.175 180.54025 47.95625 180.54025Q48.534374 180.54025 48.940624 180.24338Q49.3625 179.93088 49.596874 179.27463ZM46.14375 177.5715L49.6125 177.5715Q49.55 176.77463 49.221874 176.384Q48.70625 175.77463 47.909374 175.77463Q47.175 175.77463 46.675 176.259Q46.190624 176.74338 46.14375 177.5715Z" fill-rule="nonzero"/><path fill="#9e9e9e" d="M19.05 196.009L20.1125 195.86838Q20.284374 196.759 20.721874 197.16525Q21.159374 197.55588 21.784374 197.55588Q22.534374 197.55588 23.05 197.04025Q23.565624 196.52463 23.565624 195.759Q23.565624 195.04025 23.08125 194.5715Q22.6125 194.08713 21.878124 194.08713Q21.58125 194.08713 21.128124 194.21213L21.253124 193.27463Q21.3625 193.29025 21.425 193.29025Q22.096874 193.29025 22.628124 192.9465Q23.175 192.58713 23.175 191.85275Q23.175 191.27463 22.784374 190.89963Q22.39375 190.509 21.76875 190.509Q21.159374 190.509 20.7375 190.89963Q20.33125 191.29025 20.221874 192.05588L19.159374 191.86838Q19.346874 190.8215 20.034374 190.24338Q20.721874 189.64963 21.7375 189.64963Q22.440624 189.64963 23.034374 189.96213Q23.628124 190.259 23.940624 190.77463Q24.253124 191.29025 24.253124 191.884Q24.253124 192.43088 23.95625 192.89963Q23.659374 193.35275 23.08125 193.61838Q23.83125 193.79025 24.253124 194.35275Q24.675 194.89963 24.675 195.74338Q24.675 196.86838 23.846874 197.64963Q23.034374 198.43088 21.784374 198.43088Q20.659374 198.43088 19.909374 197.759Q19.159374 197.0715 19.05 196.009ZM26.20625 196.29025L27.221874 196.1965Q27.346874 196.91525 27.70625 197.24338Q28.08125 197.55588 28.64375 197.55588Q29.128124 197.55588 29.4875 197.33713Q29.8625 197.10275 30.096874 196.74338Q30.33125 196.36838 30.4875 195.74338Q30.64375 195.10275 30.64375 194.4465Q30.64375 194.36838 30.64375 194.22775Q30.33125 194.72775 29.784374 195.05588Q29.2375 195.36838 28.596874 195.36838Q27.51875 195.36838 26.784374 194.60275Q26.05 193.8215 26.05 192.55588Q26.05 191.24338 26.815624 190.4465Q27.596874 189.64963 28.753124 189.64963Q29.58125 189.64963 30.26875 190.10275Q30.971874 190.55588 31.33125 191.39963Q31.690624 192.22775 31.690624 193.80588Q31.690624 195.4465 31.33125 196.43088Q30.9875 197.39963 30.26875 197.91525Q29.565624 198.41525 28.628124 198.41525Q27.6125 198.41525 26.971874 197.86838Q26.33125 197.30588 26.20625 196.29025ZM30.51875 192.49338Q30.51875 191.58713 30.034374 191.05588Q29.565624 190.52463 28.878124 190.52463Q28.175 190.52463 27.64375 191.10275Q27.128124 191.66525 27.128124 192.58713Q27.128124 193.39963 27.628124 193.91525Q28.128124 194.43088 28.846874 194.43088Q29.58125 194.43088 30.05 193.91525Q30.51875 193.39963 30.51875 192.49338ZM33.6125 198.27463L33.6125 197.0715L34.815624 197.0715L34.815624 198.27463Q34.815624 198.93088 34.58125 199.33713Q34.346874 199.759 33.846874 199.97775L33.55 199.52463Q33.878124 199.384 34.034374 199.08713Q34.190624 198.80588 34.221874 198.27463L33.6125 198.27463ZM40.01875 198.27463L38.971874 198.27463L38.971874 191.55588Q38.58125 191.91525 37.95625 192.29025Q37.346874 192.64963 36.8625 192.8215L36.8625 191.80588Q37.7375 191.384 38.39375 190.80588Q39.065624 190.21213 39.346874 189.64963L40.01875 189.64963L40.01875 198.27463ZM43.253124 191.74338Q43.253124 190.8215 43.70625 190.18088Q44.175 189.54025 45.05 189.54025Q45.8625 189.54025 46.39375 190.11838Q46.925 190.6965 46.925 191.80588Q46.925 192.89963 46.378124 193.49338Q45.846874 194.0715 45.065624 194.0715Q44.284374 194.0715 43.76875 193.49338Q43.253124 192.91525 43.253124 191.74338ZM45.08125 190.259Q44.690624 190.259 44.425 190.60275Q44.175 190.9465 44.175 191.85275Q44.175 192.68088 44.425 193.02463Q44.690624 193.35275 45.08125 193.35275Q45.4875 193.35275 45.7375 193.009Q46.003124 192.66525 46.003124 191.77463Q46.003124 190.93088 45.7375 190.60275Q45.471874 190.259 45.08125 190.259ZM45.08125 198.58713L49.784374 189.54025L50.64375 189.54025L45.95625 198.58713L45.08125 198.58713ZM48.8 196.259Q48.8 195.33713 49.253124 194.6965Q49.721874 194.05588 50.6125 194.05588Q51.425 194.05588 51.95625 194.634Q52.4875 195.1965 52.4875 196.3215Q52.4875 197.41525 51.940624 198.009Q51.409374 198.58713 50.6125 198.58713Q49.846874 198.58713 49.315624 198.009Q48.8 197.43088 48.8 196.259ZM50.64375 194.77463Q50.2375 194.77463 49.971874 195.11838Q49.721874 195.46213 49.721874 196.36838Q49.721874 197.18088 49.9875 197.52463Q50.253124 197.86838 50.64375 197.86838Q51.034374 197.86838 51.3 197.52463Q51.565624 197.18088 51.565624 196.27463Q51.565624 195.4465 51.3 195.11838Q51.034374 194.77463 50.64375 194.77463Z" fill-rule="nonzero"/><path stroke="#757575" stroke-width="1.0" stroke-linecap="butt" d="M18.55 185.77463L145.23334 185.77463L159.00113 185.77463" fill-rule="nonzero"/><path fill="#9e9e9e" d="M161.00113 185.77463C161.00113 184.67006 160.1057 183.77463 159.00113 183.77463C157.89656 183.77463 157.00113 184.67006 157.00113 185.77463C157.00113 186.8792 157.89656 187.77463 159.00113 187.77463C160.1057 187.77463 161.00113 186.8792 161.00113 185.77463" fill-rule="nonzero"/><path fill="#1a1a1a" d="M501.9969 205.38808L503.0594 205.29433Q503.1375 205.95058 503.41876 206.35683Q503.7 206.76308 504.27814 207.0287Q504.8719 207.2787 505.60626 207.2787Q506.2469 207.2787 506.7469 207.0912Q507.2469 206.88808 507.48126 206.55995Q507.73126 206.2162 507.73126 205.82558Q507.73126 205.41933 507.4969 205.12245Q507.2625 204.80995 506.73126 204.60683Q506.3719 204.4662 505.1844 204.18495Q504.0125 203.9037 503.54376 203.6537Q502.91876 203.32558 502.6219 202.85683Q502.325 202.37245 502.325 201.7787Q502.325 201.13808 502.6844 200.57558Q503.0594 199.99745 503.7625 199.7162Q504.48126 199.41933 505.34064 199.41933Q506.29376 199.41933 507.02814 199.73183Q507.7625 200.0287 508.15314 200.63808Q508.54376 201.23183 508.575 201.98183L507.48126 202.05995Q507.3875 201.24745 506.8719 200.8412Q506.3719 200.41933 505.3875 200.41933Q504.35626 200.41933 503.8875 200.79433Q503.41876 201.16933 503.41876 201.70058Q503.41876 202.16933 503.7469 202.4662Q504.075 202.76308 505.45 203.07558Q506.84064 203.38808 507.35626 203.62245Q508.10626 203.98183 508.46564 204.51308Q508.825 205.0287 508.825 205.73183Q508.825 206.41933 508.4344 207.0287Q508.04376 207.62245 507.3094 207.9662Q506.575 208.29433 505.65314 208.29433Q504.48126 208.29433 503.6844 207.9662Q502.90314 207.62245 502.45 206.93495Q502.0125 206.24745 501.9969 205.38808ZM512.54376 207.2162L512.7 208.13808Q512.2469 208.23183 511.90314 208.23183Q511.325 208.23183 511.0125 208.05995Q510.7 207.87245 510.5594 207.57558Q510.4344 207.2787 510.4344 206.32558L510.4344 202.74745L509.66876 202.74745L509.66876 201.93495L510.4344 201.93495L510.4344 200.38808L511.48126 199.76308L511.48126 201.93495L512.54376 201.93495L512.54376 202.74745L511.48126 202.74745L511.48126 206.38808Q511.48126 206.8412 511.52814 206.9662Q511.59064 207.0912 511.71564 207.16933Q511.84064 207.24745 512.075 207.24745Q512.2625 207.24745 512.54376 207.2162ZM513.23126 208.1537L513.23126 201.93495L514.1844 201.93495L514.1844 202.87245Q514.54376 202.2162 514.84064 202.01308Q515.15314 201.79433 515.52814 201.79433Q516.0594 201.79433 516.60626 202.12245L516.2469 203.10683Q515.85626 202.87245 515.48126 202.87245Q515.1219 202.87245 514.84064 203.0912Q514.575 203.29433 514.46564 203.66933Q514.27814 204.23183 514.27814 204.88808L514.27814 208.1537L513.23126 208.1537ZM516.85626 205.04433Q516.85626 203.30995 517.8094 202.48183Q518.60626 201.79433 519.7625 201.79433Q521.04376 201.79433 521.85626 202.63808Q522.6844 203.4662 522.6844 204.95058Q522.6844 206.1537 522.325 206.8412Q521.96564 207.5287 521.2625 207.91933Q520.575 208.29433 519.7625 208.29433Q518.46564 208.29433 517.65314 207.4662Q516.85626 206.62245 516.85626 205.04433ZM517.9344 205.04433Q517.9344 206.23183 518.45 206.82558Q518.98126 207.41933 519.7625 207.41933Q520.5594 207.41933 521.075 206.82558Q521.59064 206.23183 521.59064 205.01308Q521.59064 203.85683 521.0594 203.26308Q520.54376 202.66933 519.7625 202.66933Q518.98126 202.66933 518.45 203.26308Q517.9344 203.8412 517.9344 205.04433ZM524.2469 208.1537L524.2469 201.93495L525.1844 201.93495L525.1844 202.80995Q525.8719 201.79433 527.16876 201.79433Q527.73126 201.79433 528.2 201.99745Q528.6844 202.20058 528.91876 202.5287Q529.15314 202.85683 529.2469 203.29433Q529.29376 203.5912 529.29376 204.32558L529.29376 208.1537L528.2469 208.1537L528.2469 204.37245Q528.2469 203.7162 528.1219 203.4037Q527.9969 203.0912 527.6844 202.9037Q527.3719 202.70058 526.95 202.70058Q526.27814 202.70058 525.77814 203.13808Q525.29376 203.55995 525.29376 204.74745L525.29376 208.1537L524.2469 208.1537ZM531.04376 208.66933L532.075 208.82558Q532.1375 209.29433 532.4344 209.51308Q532.825 209.80995 533.4969 209.80995Q534.23126 209.80995 534.6219 209.51308Q535.02814 209.2162 535.16876 208.70058Q535.2625 208.37245 535.2469 207.3412Q534.5594 208.1537 533.52814 208.1537Q532.2469 208.1537 531.54376 207.23183Q530.84064 206.29433 530.84064 205.01308Q530.84064 204.12245 531.15314 203.37245Q531.48126 202.60683 532.09064 202.20058Q532.7 201.79433 533.52814 201.79433Q534.6375 201.79433 535.35626 202.68495L535.35626 201.93495L536.325 201.93495L536.325 207.30995Q536.325 208.76308 536.02814 209.37245Q535.73126 209.98183 535.09064 210.32558Q534.45 210.68495 533.5125 210.68495Q532.40314 210.68495 531.71564 210.18495Q531.02814 209.68495 531.04376 208.66933ZM531.91876 204.93495Q531.91876 206.1537 532.40314 206.7162Q532.8875 207.2787 533.6219 207.2787Q534.35626 207.2787 534.84064 206.7162Q535.34064 206.1537 535.34064 204.9662Q535.34064 203.82558 534.825 203.24745Q534.325 202.66933 533.60626 202.66933Q532.90314 202.66933 532.40314 203.24745Q531.91876 203.80995 531.91876 204.93495ZM538.21564 208.1537L538.21564 199.55995L539.27814 199.55995L539.27814 208.1537L538.21564 208.1537ZM541.2 210.54433L541.075 209.55995Q541.41876 209.6537 541.6844 209.6537Q542.02814 209.6537 542.23126 209.5287Q542.45 209.41933 542.59064 209.2162Q542.6844 209.04433 542.91876 208.41933Q542.9344 208.3412 543.0125 208.16933L540.6375 201.93495L541.77814 201.93495L543.075 205.5287Q543.325 206.2162 543.52814 206.98183Q543.71564 206.24745 543.96564 205.55995L545.29376 201.93495L546.34064 201.93495L543.98126 208.26308Q543.59064 209.2787 543.3875 209.66933Q543.10626 210.20058 542.73126 210.43495Q542.3719 210.68495 541.8719 210.68495Q541.575 210.68495 541.2 210.54433ZM554.3094 207.38808Q553.71564 207.88808 553.16876 208.0912Q552.6375 208.29433 552.0125 208.29433Q550.98126 208.29433 550.4344 207.79433Q549.8875 207.29433 549.8875 206.51308Q549.8875 206.05995 550.09064 205.68495Q550.29376 205.29433 550.6375 205.07558Q550.98126 204.8412 551.40314 204.73183Q551.7 204.63808 552.34064 204.55995Q553.60626 204.41933 554.21564 204.20058Q554.21564 203.98183 554.21564 203.93495Q554.21564 203.2787 553.91876 203.01308Q553.5125 202.66933 552.71564 202.66933Q551.98126 202.66933 551.6219 202.93495Q551.2625 203.18495 551.09064 203.8412L550.0594 203.70058Q550.2 203.04433 550.52814 202.63808Q550.85626 202.23183 551.46564 202.01308Q552.075 201.79433 552.8719 201.79433Q553.66876 201.79433 554.16876 201.98183Q554.66876 202.16933 554.90314 202.45058Q555.1375 202.73183 555.23126 203.16933Q555.27814 203.43495 555.27814 204.13808L555.27814 205.54433Q555.27814 207.01308 555.34064 207.4037Q555.41876 207.79433 555.6219 208.1537L554.5125 208.1537Q554.35626 207.82558 554.3094 207.38808ZM554.21564 205.0287Q553.6375 205.26308 552.4969 205.43495Q551.84064 205.5287 551.575 205.6537Q551.3094 205.76308 551.15314 205.98183Q551.0125 206.20058 551.0125 206.48183Q551.0125 206.9037 551.325 207.18495Q551.65314 207.4662 552.2625 207.4662Q552.8719 207.4662 553.34064 207.20058Q553.825 206.93495 554.04376 206.4662Q554.21564 206.10683 554.21564 205.41933L554.21564 205.0287ZM557.04376 208.66933L558.075 208.82558Q558.1375 209.29433 558.4344 209.51308Q558.825 209.80995 559.4969 209.80995Q560.23126 209.80995 560.6219 209.51308Q561.02814 209.2162 561.16876 208.70058Q561.2625 208.37245 561.2469 207.3412Q560.5594 208.1537 559.52814 208.1537Q558.2469 208.1537 557.54376 207.23183Q556.84064 206.29433 556.84064 205.01308Q556.84064 204.12245 557.15314 203.37245Q557.48126 202.60683 558.09064 202.20058Q558.7 201.79433 559.52814 201.79433Q560.6375 201.79433 561.35626 202.68495L561.35626 201.93495L562.325 201.93495L562.325 207.30995Q562.325 208.76308 562.02814 209.37245Q561.73126 209.98183 561.09064 210.32558Q560.45 210.68495 559.5125 210.68495Q558.40314 210.68495 557.71564 210.18495Q557.02814 209.68495 557.04376 208.66933ZM557.91876 204.93495Q557.91876 206.1537 558.40314 206.7162Q558.8875 207.2787 559.6219 207.2787Q560.35626 207.2787 560.84064 206.7162Q561.34064 206.1537 561.34064 204.9662Q561.34064 203.82558 560.825 203.24745Q560.325 202.66933 559.60626 202.66933Q558.90314 202.66933 558.40314 203.24745Q557.91876 203.80995 557.91876 204.93495ZM564.23126 208.1537L564.23126 201.93495L565.1844 201.93495L565.1844 202.87245Q565.54376 202.2162 565.84064 202.01308Q566.15314 201.79433 566.52814 201.79433Q567.0594 201.79433 567.60626 202.12245L567.2469 203.10683Q566.85626 202.87245 566.48126 202.87245Q566.1219 202.87245 565.84064 203.0912Q565.575 203.29433 565.46564 203.66933Q565.27814 204.23183 565.27814 204.88808L565.27814 208.1537L564.23126 208.1537ZM572.4969 206.1537L573.59064 206.2787Q573.34064 207.23183 572.6375 207.76308Q571.9344 208.29433 570.85626 208.29433Q569.4969 208.29433 568.6844 207.45058Q567.8875 206.60683 567.8875 205.0912Q567.8875 203.5287 568.7 202.66933Q569.5125 201.79433 570.79376 201.79433Q572.04376 201.79433 572.825 202.63808Q573.6219 203.48183 573.6219 205.0287Q573.6219 205.12245 573.6219 205.30995L568.98126 205.30995Q569.04376 206.3412 569.5594 206.88808Q570.075 207.41933 570.85626 207.41933Q571.4344 207.41933 571.84064 207.12245Q572.2625 206.80995 572.4969 206.1537ZM569.04376 204.45058L572.5125 204.45058Q572.45 203.6537 572.1219 203.26308Q571.60626 202.6537 570.8094 202.6537Q570.075 202.6537 569.575 203.13808Q569.09064 203.62245 569.04376 204.45058ZM579.4969 206.1537L580.59064 206.2787Q580.34064 207.23183 579.6375 207.76308Q578.9344 208.29433 577.85626 208.29433Q576.4969 208.29433 575.6844 207.45058Q574.8875 206.60683 574.8875 205.0912Q574.8875 203.5287 575.7 202.66933Q576.5125 201.79433 577.79376 201.79433Q579.04376 201.79433 579.825 202.63808Q580.6219 203.48183 580.6219 205.0287Q580.6219 205.12245 580.6219 205.30995L575.98126 205.30995Q576.04376 206.3412 576.5594 206.88808Q577.075 207.41933 577.85626 207.41933Q578.4344 207.41933 578.84064 207.12245Q579.2625 206.80995 579.4969 206.1537ZM576.04376 204.45058L579.5125 204.45058Q579.45 203.6537 579.1219 203.26308Q578.60626 202.6537 577.8094 202.6537Q577.075 202.6537 576.575 203.13808Q576.09064 203.62245 576.04376 204.45058Z" fill-rule="nonzero"/><path fill="#9e9e9e" d="M546.95 222.9037L548.0594 222.80995Q548.1844 223.62245 548.6219 224.0287Q549.075 224.43495 549.71564 224.43495Q550.46564 224.43495 550.9969 223.85683Q551.52814 223.2787 551.52814 222.3412Q551.52814 221.43495 551.0125 220.91933Q550.5125 220.38808 549.6844 220.38808Q549.1844 220.38808 548.7625 220.62245Q548.35626 220.85683 548.1219 221.2162L547.1375 221.0912L547.96564 216.68495L552.2469 216.68495L552.2469 217.68495L548.8094 217.68495L548.35626 219.99745Q549.1219 219.45058 549.96564 219.45058Q551.09064 219.45058 551.85626 220.23183Q552.6375 221.01308 552.6375 222.24745Q552.6375 223.4037 551.96564 224.26308Q551.1375 225.29433 549.71564 225.29433Q548.54376 225.29433 547.79376 224.63808Q547.0594 223.98183 546.95 222.9037ZM559.41876 218.66933L558.3719 218.74745Q558.23126 218.12245 557.98126 217.8412Q557.54376 217.38808 556.91876 217.38808Q556.41876 217.38808 556.02814 217.66933Q555.54376 218.04433 555.2469 218.74745Q554.96564 219.43495 554.95 220.7162Q555.325 220.13808 555.8719 219.85683Q556.4344 219.57558 557.04376 219.57558Q558.09064 219.57558 558.825 220.35683Q559.575 221.13808 559.575 222.35683Q559.575 223.16933 559.21564 223.87245Q558.8719 224.55995 558.2625 224.93495Q557.65314 225.29433 556.8875 225.29433Q555.5594 225.29433 554.73126 224.32558Q553.90314 223.35683 553.90314 221.13808Q553.90314 218.63808 554.825 217.51308Q555.6219 216.5287 556.98126 216.5287Q557.9969 216.5287 558.6375 217.10683Q559.29376 217.66933 559.41876 218.66933ZM555.1219 222.37245Q555.1219 222.91933 555.34064 223.41933Q555.575 223.9037 555.98126 224.16933Q556.40314 224.43495 556.8719 224.43495Q557.52814 224.43495 558.0125 223.9037Q558.4969 223.35683 558.4969 222.43495Q558.4969 221.54433 558.0125 221.0287Q557.54376 220.51308 556.825 220.51308Q556.10626 220.51308 555.60626 221.0287Q555.1219 221.54433 555.1219 222.37245ZM561.5125 225.1537L561.5125 223.95058L562.71564 223.95058L562.71564 225.1537Q562.71564 225.80995 562.48126 226.2162Q562.2469 226.63808 561.7469 226.85683L561.45 226.4037Q561.77814 226.26308 561.9344 225.9662Q562.09064 225.68495 562.1219 225.1537L561.5125 225.1537ZM563.95 222.9037L565.0594 222.80995Q565.1844 223.62245 565.6219 224.0287Q566.075 224.43495 566.71564 224.43495Q567.46564 224.43495 567.9969 223.85683Q568.52814 223.2787 568.52814 222.3412Q568.52814 221.43495 568.0125 220.91933Q567.5125 220.38808 566.6844 220.38808Q566.1844 220.38808 565.7625 220.62245Q565.35626 220.85683 565.1219 221.2162L564.1375 221.0912L564.96564 216.68495L569.2469 216.68495L569.2469 217.68495L565.8094 217.68495L565.35626 219.99745Q566.1219 219.45058 566.96564 219.45058Q568.09064 219.45058 568.85626 220.23183Q569.6375 221.01308 569.6375 222.24745Q569.6375 223.4037 568.96564 224.26308Q568.1375 225.29433 566.71564 225.29433Q565.54376 225.29433 564.79376 224.63808Q564.0594 223.98183 563.95 222.9037ZM571.15314 218.62245Q571.15314 217.70058 571.60626 217.05995Q572.075 216.41933 572.95 216.41933Q573.7625 216.41933 574.29376 216.99745Q574.825 217.57558 574.825 218.68495Q574.825 219.7787 574.27814 220.37245Q573.7469 220.95058 572.96564 220.95058Q572.1844 220.95058 571.66876 220.37245Q571.15314 219.79433 571.15314 218.62245ZM572.98126 217.13808Q572.59064 217.13808 572.325 217.48183Q572.075 217.82558 572.075 218.73183Q572.075 219.55995 572.325 219.9037Q572.59064 220.23183 572.98126 220.23183Q573.3875 220.23183 573.6375 219.88808Q573.90314 219.54433 573.90314 218.6537Q573.90314 217.80995 573.6375 217.48183Q573.3719 217.13808 572.98126 217.13808ZM572.98126 225.4662L577.6844 216.41933L578.54376 216.41933L573.85626 225.4662L572.98126 225.4662ZM576.7 223.13808Q576.7 222.2162 577.15314 221.57558Q577.6219 220.93495 578.5125 220.93495Q579.325 220.93495 579.85626 221.51308Q580.3875 222.07558 580.3875 223.20058Q580.3875 224.29433 579.84064 224.88808Q579.3094 225.4662 578.5125 225.4662Q577.7469 225.4662 577.21564 224.88808Q576.7 224.30995 576.7 223.13808ZM578.54376 221.6537Q578.1375 221.6537 577.8719 221.99745Q577.6219 222.3412 577.6219 223.24745Q577.6219 224.05995 577.8875 224.4037Q578.15314 224.74745 578.54376 224.74745Q578.9344 224.74745 579.2 224.4037Q579.46564 224.05995 579.46564 223.1537Q579.46564 222.32558 579.2 221.99745Q578.9344 221.6537 578.54376 221.6537Z" fill-rule="nonzero"/><path stroke="#757575" stroke-width="1.0" stroke-linecap="butt" d="M581.45 212.6537L454.76666 212.6537L438.3723 212.6537" fill-rule="nonzero"/><path fill="#9e9e9e" d="M440.3723 212.6537C440.3723 211.54913 439.4769 210.6537 438.3723 210.6537C437.26776 210.6537 436.3723 211.54913 436.3723 212.6537C436.3723 213.75827 437.26776 214.6537 438.3723 214.6537C439.4769 214.6537 440.3723 213.75827 440.3723 212.6537" fill-rule="nonzero"/><path fill="#757575" d="M20.096874 37.55L20.096874 23.2375L25.01875 23.2375Q26.690624 23.2375 27.58125 23.440624Q28.8 23.721874 29.675 24.45625Q30.8 25.425 31.3625 26.909374Q31.925 28.39375 31.925 30.315624Q31.925 31.940624 31.55 33.20625Q31.175 34.45625 30.565624 35.284374Q29.971874 36.1125 29.26875 36.596874Q28.565624 37.065624 27.565624 37.315624Q26.565624 37.55 25.253124 37.55L20.096874 37.55ZM21.9875 35.8625L25.05 35.8625Q26.45625 35.8625 27.253124 35.596874Q28.065624 35.33125 28.55 34.846874Q29.221874 34.175 29.596874 33.05Q29.971874 31.909374 29.971874 30.284374Q29.971874 28.034374 29.2375 26.83125Q28.503124 25.628124 27.440624 25.221874Q26.690624 24.925 25.003124 24.925L21.9875 24.925L21.9875 35.8625ZM33.221874 32.3625Q33.221874 29.4875 34.815624 28.096874Q36.159374 26.940624 38.08125 26.940624Q40.221874 26.940624 41.565624 28.346874Q42.925 29.753124 42.925 32.221874Q42.925 34.221874 42.33125 35.378124Q41.7375 36.51875 40.58125 37.159374Q39.440624 37.784374 38.08125 37.784374Q35.89375 37.784374 34.55 36.39375Q33.221874 34.9875 33.221874 32.3625ZM35.01875 32.3625Q35.01875 34.3625 35.878124 35.346874Q36.753124 36.33125 38.08125 36.33125Q39.39375 36.33125 40.253124 35.346874Q41.128124 34.346874 41.128124 32.3Q41.128124 30.378124 40.253124 29.39375Q39.378124 28.39375 38.08125 28.39375Q36.753124 28.39375 35.878124 29.39375Q35.01875 30.378124 35.01875 32.3625ZM50.784374 41.55L50.596874 39.89375Q51.175 40.05 51.596874 40.05Q52.190624 40.05 52.534374 39.846874Q52.89375 39.659374 53.1125 39.315624Q53.284374 39.05 53.659374 38.003124Q53.70625 37.846874 53.815624 37.565624L49.878124 27.175L51.76875 27.175L53.925 33.190624Q54.346874 34.33125 54.675 35.58125Q54.9875 34.378124 55.39375 33.221874L57.6125 27.175L59.378124 27.175L55.425 37.721874Q54.8 39.440624 54.440624 40.08125Q53.971874 40.95625 53.3625 41.346874Q52.76875 41.753124 51.925 41.753124Q51.409374 41.753124 50.784374 41.55ZM60.221874 32.3625Q60.221874 29.4875 61.815624 28.096874Q63.159374 26.940624 65.08125 26.940624Q67.22188 26.940624 68.56563 28.346874Q69.925 29.753124 69.925 32.221874Q69.925 34.221874 69.33125 35.378124Q68.7375 36.51875 67.58125 37.159374Q66.44063 37.784374 65.08125 37.784374Q62.89375 37.784374 61.55 36.39375Q60.221874 34.9875 60.221874 32.3625ZM62.01875 32.3625Q62.01875 34.3625 62.878124 35.346874Q63.753124 36.33125 65.08125 36.33125Q66.39375 36.33125 67.25313 35.346874Q68.12813 34.346874 68.12813 32.3Q68.12813 30.378124 67.25313 29.39375Q66.37813 28.39375 65.08125 28.39375Q63.753124 28.39375 62.878124 29.39375Q62.01875 30.378124 62.01875 32.3625ZM78.65938 37.55L78.65938 36.01875Q77.45625 37.784374 75.37813 37.784374Q74.45625 37.784374 73.65938 37.440624Q72.8625 37.08125 72.47188 36.55Q72.09688 36.01875 71.94063 35.2375Q71.83125 34.721874 71.83125 33.596874L71.83125 27.175L73.58125 27.175L73.58125 32.925Q73.58125 34.3 73.69063 34.784374Q73.8625 35.471874 74.39375 35.878124Q74.94063 36.26875 75.72188 36.26875Q76.51875 36.26875 77.20625 35.8625Q77.90938 35.45625 78.19063 34.76875Q78.4875 34.065624 78.4875 32.7375L78.4875 27.175L80.2375 27.175L80.2375 37.55L78.65938 37.55ZM92.70625 35.971874L92.95625 37.534374Q92.22188 37.690624 91.62813 37.690624Q90.675 37.690624 90.14375 37.39375Q89.62813 37.08125 89.40938 36.596874Q89.19063 36.096874 89.19063 34.51875L89.19063 28.55L87.90938 28.55L87.90938 27.175L89.19063 27.175L89.19063 24.6125L90.94063 23.55L90.94063 27.175L92.70625 27.175L92.70625 28.55L90.94063 28.55L90.94063 34.6125Q90.94063 35.3625 91.03438 35.58125Q91.12813 35.784374 91.33125 35.925Q91.55 36.05 91.94063 36.05Q92.22188 36.05 92.70625 35.971874ZM94.8625 37.55L94.8625 23.2375L96.62813 23.2375L96.62813 28.3625Q97.8625 26.940624 99.7375 26.940624Q100.87813 26.940624 101.72188 27.39375Q102.58125 27.846874 102.94063 28.659374Q103.31563 29.45625 103.31563 30.971874L103.31563 37.55L101.56563 37.55L101.56563 30.971874Q101.56563 29.659374 100.9875 29.065624Q100.40938 28.45625 99.37813 28.45625Q98.59688 28.45625 97.89375 28.8625Q97.20625 29.26875 96.90938 29.971874Q96.62813 30.659374 96.62813 31.878124L96.62813 37.55L94.8625 37.55ZM105.87813 25.253124L105.87813 23.2375L107.64375 23.2375L107.64375 25.253124L105.87813 25.253124ZM105.87813 37.55L105.87813 27.175L107.64375 27.175L107.64375 37.55L105.87813 37.55ZM109.8625 37.55L109.8625 27.175L111.45625 27.175L111.45625 28.659374Q112.59688 26.940624 114.75313 26.940624Q115.69063 26.940624 116.47188 27.284374Q117.26875 27.6125 117.65938 28.159374Q118.05 28.70625 118.20625 29.45625Q118.3 29.95625 118.3 31.175L118.3 37.55L116.53438 37.55L116.53438 31.2375Q116.53438 30.159374 116.33125 29.628124Q116.12813 29.096874 115.59688 28.784374Q115.08125 28.471874 114.37813 28.471874Q113.25313 28.471874 112.44063 29.190624Q111.62813 29.89375 111.62813 31.878124L111.62813 37.55L109.8625 37.55ZM120.87813 37.55L120.87813 23.2375L122.64375 23.2375L122.64375 31.39375L126.8 27.175L129.06563 27.175L125.1125 31.01875L129.47188 37.55L127.3 37.55L123.87813 32.253124L122.64375 33.440624L122.64375 37.55L120.87813 37.55ZM140.70625 35.971874L140.95625 37.534374Q140.22188 37.690624 139.62813 37.690624Q138.675 37.690624 138.14375 37.39375Q137.62813 37.08125 137.40938 36.596874Q137.19063 36.096874 137.19063 34.51875L137.19063 28.55L135.90938 28.55L135.90938 27.175L137.19063 27.175L137.19063 24.6125L138.94063 23.55L138.94063 27.175L140.70625 27.175L140.70625 28.55L138.94063 28.55L138.94063 34.6125Q138.94063 35.3625 139.03438 35.58125Q139.12813 35.784374 139.33125 35.925Q139.55 36.05 139.94063 36.05Q140.22188 36.05 140.70625 35.971874ZM142.8625 37.55L142.8625 23.2375L144.62813 23.2375L144.62813 28.3625Q145.8625 26.940624 147.7375 26.940624Q148.87813 26.940624 149.72188 27.39375Q150.58125 27.846874 150.94063 28.659374Q151.31563 29.45625 151.31563 30.971874L151.31563 37.55L149.56563 37.55L149.56563 30.971874Q149.56563 29.659374 148.9875 29.065624Q148.40938 28.45625 147.37813 28.45625Q146.59688 28.45625 145.89375 28.8625Q145.20625 29.26875 144.90938 29.971874Q144.62813 30.659374 144.62813 31.878124L144.62813 37.55L142.8625 37.55ZM160.97188 34.20625L162.78438 34.440624Q162.3625 36.01875 161.19063 36.909374Q160.03438 37.784374 158.22188 37.784374Q155.95625 37.784374 154.6125 36.39375Q153.28438 34.9875 153.28438 32.45625Q153.28438 29.83125 154.62813 28.39375Q155.97188 26.940624 158.12813 26.940624Q160.20625 26.940624 161.51875 28.3625Q162.84688 29.76875 162.84688 32.346874Q162.84688 32.503124 162.83125 32.815624L155.09688 32.815624Q155.19063 34.51875 156.06563 35.425Q156.94063 36.33125 158.2375 36.33125Q159.20625 36.33125 159.87813 35.83125Q160.56563 35.315624 160.97188 34.20625ZM155.19063 31.3625L160.9875 31.3625Q160.87813 30.065624 160.33125 29.409374Q159.4875 28.39375 158.14375 28.39375Q156.94063 28.39375 156.1125 29.20625Q155.28438 30.003124 155.19063 31.3625ZM177.64375 36.26875Q176.65938 37.096874 175.75313 37.440624Q174.84688 37.784374 173.81563 37.784374Q172.1125 37.784374 171.19063 36.95625Q170.26875 36.1125 170.26875 34.815624Q170.26875 34.05 170.6125 33.425Q170.97188 32.8 171.53438 32.425Q172.09688 32.034374 172.8 31.83125Q173.31563 31.70625 174.3625 31.565624Q176.4875 31.315624 177.4875 30.971874Q177.50313 30.6125 177.50313 30.503124Q177.50313 29.440624 177.00313 28.9875Q176.33125 28.39375 175.00313 28.39375Q173.75313 28.39375 173.15938 28.83125Q172.58125 29.26875 172.3 30.378124L170.58125 30.14375Q170.81563 29.034374 171.34688 28.3625Q171.87813 27.675 172.89375 27.315624Q173.90938 26.940624 175.25313 26.940624Q176.58125 26.940624 177.40938 27.253124Q178.2375 27.565624 178.62813 28.05Q179.01875 28.51875 179.175 29.2375Q179.26875 29.690624 179.26875 30.8625L179.26875 33.20625Q179.26875 35.659374 179.37813 36.315624Q179.4875 36.95625 179.83125 37.55L177.9875 37.55Q177.72188 37.003124 177.64375 36.26875ZM177.4875 32.346874Q176.53438 32.7375 174.6125 33.003124Q173.53438 33.159374 173.08125 33.3625Q172.64375 33.55 172.39375 33.925Q172.14375 34.3 172.14375 34.76875Q172.14375 35.471874 172.675 35.940624Q173.20625 36.409374 174.2375 36.409374Q175.25313 36.409374 176.03438 35.971874Q176.83125 35.51875 177.20625 34.753124Q177.4875 34.14375 177.4875 32.9875L177.4875 32.346874ZM181.8625 41.51875L181.8625 27.175L183.47188 27.175L183.47188 28.51875Q184.03438 27.7375 184.7375 27.346874Q185.45625 26.940624 186.47188 26.940624Q187.8 26.940624 188.81563 27.628124Q189.83125 28.315624 190.34688 29.565624Q190.87813 30.8 190.87813 32.284374Q190.87813 33.878124 190.3 35.159374Q189.7375 36.425 188.64375 37.1125Q187.55 37.784374 186.34688 37.784374Q185.47188 37.784374 184.76875 37.409374Q184.08125 37.034374 183.62813 36.471874L183.62813 41.51875L181.8625 41.51875ZM183.45625 32.425Q183.45625 34.425 184.26875 35.378124Q185.08125 36.33125 186.2375 36.33125Q187.40938 36.33125 188.2375 35.346874Q189.08125 34.3625 189.08125 32.26875Q189.08125 30.3 188.25313 29.315624Q187.44063 28.315624 186.31563 28.315624Q185.19063 28.315624 184.31563 29.378124Q183.45625 30.425 183.45625 32.425ZM192.8625 41.51875L192.8625 27.175L194.47188 27.175L194.47188 28.51875Q195.03438 27.7375 195.7375 27.346874Q196.45625 26.940624 197.47188 26.940624Q198.8 26.940624 199.81563 27.628124Q200.83125 28.315624 201.34688 29.565624Q201.87813 30.8 201.87813 32.284374Q201.87813 33.878124 201.3 35.159374Q200.7375 36.425 199.64375 37.1125Q198.55 37.784374 197.34688 37.784374Q196.47188 37.784374 195.76875 37.409374Q195.08125 37.034374 194.62813 36.471874L194.62813 41.51875L192.8625 41.51875ZM194.45625 32.425Q194.45625 34.425 195.26875 35.378124Q196.08125 36.33125 197.2375 36.33125Q198.40938 36.33125 199.2375 35.346874Q200.08125 34.3625 200.08125 32.26875Q200.08125 30.3 199.25313 29.315624Q198.44063 28.315624 197.31563 28.315624Q196.19063 28.315624 195.31563 29.378124Q194.45625 30.425 194.45625 32.425ZM216.64375 33.753124L218.3625 33.971874Q218.08125 35.76875 216.90938 36.784374Q215.75313 37.784374 214.05 37.784374Q211.925 37.784374 210.62813 36.39375Q209.33125 35.003124 209.33125 32.409374Q209.33125 30.721874 209.87813 29.471874Q210.44063 28.20625 211.58125 27.58125Q212.72188 26.940624 214.06563 26.940624Q215.75313 26.940624 216.81563 27.8Q217.89375 28.659374 218.20625 30.221874L216.4875 30.4875Q216.25313 29.440624 215.62813 28.925Q215.00313 28.39375 214.12813 28.39375Q212.8 28.39375 211.97188 29.346874Q211.14375 30.3 211.14375 32.346874Q211.14375 34.440624 211.94063 35.39375Q212.7375 36.33125 214.03438 36.33125Q215.06563 36.33125 215.75313 35.70625Q216.45625 35.065624 216.64375 33.753124ZM226.64375 36.26875Q225.65938 37.096874 224.75313 37.440624Q223.84688 37.784374 222.81563 37.784374Q221.1125 37.784374 220.19063 36.95625Q219.26875 36.1125 219.26875 34.815624Q219.26875 34.05 219.6125 33.425Q219.97188 32.8 220.53438 32.425Q221.09688 32.034374 221.8 31.83125Q222.31563 31.70625 223.3625 31.565624Q225.4875 31.315624 226.4875 30.971874Q226.50313 30.6125 226.50313 30.503124Q226.50313 29.440624 226.00313 28.9875Q225.33125 28.39375 224.00313 28.39375Q222.75313 28.39375 222.15938 28.83125Q221.58125 29.26875 221.3 30.378124L219.58125 30.14375Q219.81563 29.034374 220.34688 28.3625Q220.87813 27.675 221.89375 27.315624Q222.90938 26.940624 224.25313 26.940624Q225.58125 26.940624 226.40938 27.253124Q227.2375 27.565624 227.62813 28.05Q228.01875 28.51875 228.175 29.2375Q228.26875 29.690624 228.26875 30.8625L228.26875 33.20625Q228.26875 35.659374 228.37813 36.315624Q228.4875 36.95625 228.83125 37.55L226.9875 37.55Q226.72188 37.003124 226.64375 36.26875ZM226.4875 32.346874Q225.53438 32.7375 223.6125 33.003124Q222.53438 33.159374 222.08125 33.3625Q221.64375 33.55 221.39375 33.925Q221.14375 34.3 221.14375 34.76875Q221.14375 35.471874 221.675 35.940624Q222.20625 36.409374 223.2375 36.409374Q224.25313 36.409374 225.03438 35.971874Q225.83125 35.51875 226.20625 34.753124Q226.4875 34.14375 226.4875 32.9875L226.4875 32.346874ZM230.8625 37.55L230.8625 27.175L232.45625 27.175L232.45625 28.659374Q233.59688 26.940624 235.75313 26.940624Q236.69063 26.940624 237.47188 27.284374Q238.26875 27.6125 238.65938 28.159374Q239.05 28.70625 239.20625 29.45625Q239.3 29.95625 239.3 31.175L239.3 37.55L237.53438 37.55L237.53438 31.2375Q237.53438 30.159374 237.33125 29.628124Q237.12813 29.096874 236.59688 28.784374Q236.08125 28.471874 235.37813 28.471874Q234.25313 28.471874 233.44063 29.190624Q232.62813 29.89375 232.62813 31.878124L232.62813 37.55L230.8625 37.55ZM254.97188 34.20625L256.78436 34.440624Q256.3625 36.01875 255.19063 36.909374Q254.03438 37.784374 252.22188 37.784374Q249.95625 37.784374 248.6125 36.39375Q247.28438 34.9875 247.28438 32.45625Q247.28438 29.83125 248.62813 28.39375Q249.97188 26.940624 252.12813 26.940624Q254.20625 26.940624 255.51875 28.3625Q256.84686 29.76875 256.84686 32.346874Q256.84686 32.503124 256.83124 32.815624L249.09688 32.815624Q249.19063 34.51875 250.06563 35.425Q250.94063 36.33125 252.2375 36.33125Q253.20625 36.33125 253.87813 35.83125Q254.56563 35.315624 254.97188 34.20625ZM249.19063 31.3625L254.9875 31.3625Q254.87813 30.065624 254.33125 29.409374Q253.4875 28.39375 252.14375 28.39375Q250.94063 28.39375 250.1125 29.20625Q249.28438 30.003124 249.19063 31.3625ZM258.8625 37.55L258.8625 27.175L260.45624 27.175L260.45624 28.659374Q261.59686 26.940624 263.7531 26.940624Q264.6906 26.940624 265.47186 27.284374Q266.26874 27.6125 266.65936 28.159374Q267.05 28.70625 267.20624 29.45625Q267.3 29.95625 267.3 31.175L267.3 37.55L265.53436 37.55L265.53436 31.2375Q265.53436 30.159374 265.33124 29.628124Q265.1281 29.096874 264.59686 28.784374Q264.08124 28.471874 263.3781 28.471874Q262.2531 28.471874 261.4406 29.190624Q260.6281 29.89375 260.6281 31.878124L260.6281 37.55L258.8625 37.55ZM269.8625 37.55L269.8625 23.2375L271.6281 23.2375L271.6281 28.3625Q272.8625 26.940624 274.7375 26.940624Q275.8781 26.940624 276.72186 27.39375Q277.58124 27.846874 277.9406 28.659374Q278.3156 29.45625 278.3156 30.971874L278.3156 37.55L276.5656 37.55L276.5656 30.971874Q276.5656 29.659374 275.9875 29.065624Q275.40936 28.45625 274.3781 28.45625Q273.59686 28.45625 272.89374 28.8625Q272.20624 29.26875 271.90936 29.971874Q271.6281 30.659374 271.6281 31.878124L271.6281 37.55L269.8625 37.55ZM287.64374 36.26875Q286.65936 37.096874 285.7531 37.440624Q284.84686 37.784374 283.8156 37.784374Q282.1125 37.784374 281.1906 36.95625Q280.26874 36.1125 280.26874 34.815624Q280.26874 34.05 280.6125 33.425Q280.97186 32.8 281.53436 32.425Q282.09686 32.034374 282.8 31.83125Q283.3156 31.70625 284.3625 31.565624Q286.4875 31.315624 287.4875 30.971874Q287.5031 30.6125 287.5031 30.503124Q287.5031 29.440624 287.0031 28.9875Q286.33124 28.39375 285.0031 28.39375Q283.7531 28.39375 283.15936 28.83125Q282.58124 29.26875 282.3 30.378124L280.58124 30.14375Q280.8156 29.034374 281.34686 28.3625Q281.8781 27.675 282.89374 27.315624Q283.90936 26.940624 285.2531 26.940624Q286.58124 26.940624 287.40936 27.253124Q288.2375 27.565624 288.6281 28.05Q289.01874 28.51875 289.175 29.2375Q289.26874 29.690624 289.26874 30.8625L289.26874 33.20625Q289.26874 35.659374 289.3781 36.315624Q289.4875 36.95625 289.83124 37.55L287.9875 37.55Q287.72186 37.003124 287.64374 36.26875ZM287.4875 32.346874Q286.53436 32.7375 284.6125 33.003124Q283.53436 33.159374 283.08124 33.3625Q282.64374 33.55 282.39374 33.925Q282.14374 34.3 282.14374 34.76875Q282.14374 35.471874 282.675 35.940624Q283.20624 36.409374 284.2375 36.409374Q285.2531 36.409374 286.03436 35.971874Q286.83124 35.51875 287.20624 34.753124Q287.4875 34.14375 287.4875 32.9875L287.4875 32.346874ZM291.8625 37.55L291.8625 27.175L293.45624 27.175L293.45624 28.659374Q294.59686 26.940624 296.7531 26.940624Q297.6906 26.940624 298.47186 27.284374Q299.26874 27.6125 299.65936 28.159374Q300.05 28.70625 300.20624 29.45625Q300.3 29.95625 300.3 31.175L300.3 37.55L298.53436 37.55L298.53436 31.2375Q298.53436 30.159374 298.33124 29.628124Q298.1281 29.096874 297.59686 28.784374Q297.08124 28.471874 296.3781 28.471874Q295.2531 28.471874 294.4406 29.190624Q293.6281 29.89375 293.6281 31.878124L293.6281 37.55L291.8625 37.55ZM309.64374 33.753124L311.3625 33.971874Q311.08124 35.76875 309.90936 36.784374Q308.7531 37.784374 307.05 37.784374Q304.925 37.784374 303.6281 36.39375Q302.33124 35.003124 302.33124 32.409374Q302.33124 30.721874 302.8781 29.471874Q303.4406 28.20625 304.58124 27.58125Q305.72186 26.940624 307.0656 26.940624Q308.7531 26.940624 309.8156 27.8Q310.89374 28.659374 311.20624 30.221874L309.4875 30.4875Q309.2531 29.440624 308.6281 28.925Q308.0031 28.39375 307.1281 28.39375Q305.8 28.39375 304.97186 29.346874Q304.14374 30.3 304.14374 32.346874Q304.14374 34.440624 304.9406 35.39375Q305.7375 36.33125 307.03436 36.33125Q308.0656 36.33125 308.7531 35.70625Q309.45624 35.065624 309.64374 33.753124ZM319.97186 34.20625L321.78436 34.440624Q321.3625 36.01875 320.1906 36.909374Q319.03436 37.784374 317.22186 37.784374Q314.95624 37.784374 313.6125 36.39375Q312.28436 34.9875 312.28436 32.45625Q312.28436 29.83125 313.6281 28.39375Q314.97186 26.940624 317.1281 26.940624Q319.20624 26.940624 320.51874 28.3625Q321.84686 29.76875 321.84686 32.346874Q321.84686 32.503124 321.83124 32.815624L314.09686 32.815624Q314.1906 34.51875 315.0656 35.425Q315.9406 36.33125 317.2375 36.33125Q318.20624 36.33125 318.8781 35.83125Q319.5656 35.315624 319.97186 34.20625ZM314.1906 31.3625L319.9875 31.3625Q319.8781 30.065624 319.33124 29.409374Q318.4875 28.39375 317.14374 28.39375Q315.9406 28.39375 315.1125 29.20625Q314.28436 30.003124 314.1906 31.3625ZM329.78436 41.55L329.59686 39.89375Q330.175 40.05 330.59686 40.05Q331.1906 40.05 331.53436 39.846874Q331.89374 39.659374 332.1125 39.315624Q332.28436 39.05 332.65936 38.003124Q332.70624 37.846874 332.8156 37.565624L328.8781 27.175L330.76874 27.175L332.925 33.190624Q333.34686 34.33125 333.675 35.58125Q333.9875 34.378124 334.39374 33.221874L336.6125 27.175L338.3781 27.175L334.425 37.721874Q333.8 39.440624 333.4406 40.08125Q332.97186 40.95625 332.3625 41.346874Q331.76874 41.753124 330.925 41.753124Q330.40936 41.753124 329.78436 41.55ZM339.22186 32.3625Q339.22186 29.4875 340.8156 28.096874Q342.15936 26.940624 344.08124 26.940624Q346.22186 26.940624 347.5656 28.346874Q348.925 29.753124 348.925 32.221874Q348.925 34.221874 348.33124 35.378124Q347.7375 36.51875 346.58124 37.159374Q345.4406 37.784374 344.08124 37.784374Q341.89374 37.784374 340.55 36.39375Q339.22186 34.9875 339.22186 32.3625ZM341.01874 32.3625Q341.01874 34.3625 341.8781 35.346874Q342.7531 36.33125 344.08124 36.33125Q345.39374 36.33125 346.2531 35.346874Q347.1281 34.346874 347.1281 32.3Q347.1281 30.378124 346.2531 29.39375Q345.3781 28.39375 344.08124 28.39375Q342.7531 28.39375 341.8781 29.39375Q341.01874 30.378124 341.01874 32.3625ZM357.65936 37.55L357.65936 36.01875Q356.45624 37.784374 354.3781 37.784374Q353.45624 37.784374 352.65936 37.440624Q351.8625 37.08125 351.47186 36.55Q351.09686 36.01875 350.9406 35.2375Q350.83124 34.721874 350.83124 33.596874L350.83124 27.175L352.58124 27.175L352.58124 32.925Q352.58124 34.3 352.6906 34.784374Q352.8625 35.471874 353.39374 35.878124Q353.9406 36.26875 354.72186 36.26875Q355.51874 36.26875 356.20624 35.8625Q356.90936 35.45625 357.1906 34.76875Q357.4875 34.065624 357.4875 32.7375L357.4875 27.175L359.2375 27.175L359.2375 37.55L357.65936 37.55ZM361.84686 37.55L361.84686 27.175L363.425 27.175L363.425 28.753124Q364.03436 27.64375 364.55 27.3Q365.0656 26.940624 365.675 26.940624Q366.5656 26.940624 367.4875 27.503124L366.8781 29.14375Q366.2375 28.753124 365.59686 28.753124Q365.01874 28.753124 364.55 29.1125Q364.09686 29.45625 363.89374 30.065624Q363.6125 31.003124 363.6125 32.1125L363.6125 37.55L361.84686 37.55ZM374.8625 37.55L374.8625 27.175L376.4406 27.175L376.4406 28.628124Q376.925 27.878124 377.7375 27.409374Q378.55 26.940624 379.58124 26.940624Q380.7375 26.940624 381.47186 27.425Q382.20624 27.89375 382.51874 28.753124Q383.7531 26.940624 385.72186 26.940624Q387.26874 26.940624 388.09686 27.8Q388.925 28.659374 388.925 30.425L388.925 37.55L387.175 37.55L387.175 31.01875Q387.175 29.95625 387.0031 29.503124Q386.83124 29.034374 386.3781 28.753124Q385.9406 28.471874 385.33124 28.471874Q384.2375 28.471874 383.5031 29.20625Q382.78436 29.925 382.78436 31.51875L382.78436 37.55L381.03436 37.55L381.03436 30.815624Q381.03436 29.64375 380.59686 29.065624Q380.175 28.471874 379.1906 28.471874Q378.45624 28.471874 377.8156 28.8625Q377.1906 29.253124 376.90936 30.003124Q376.6281 30.753124 376.6281 32.175L376.6281 37.55L374.8625 37.55ZM398.65936 37.55L398.65936 36.01875Q397.45624 37.784374 395.3781 37.784374Q394.45624 37.784374 393.65936 37.440624Q392.8625 37.08125 392.47186 36.55Q392.09686 36.01875 391.9406 35.2375Q391.83124 34.721874 391.83124 33.596874L391.83124 27.175L393.58124 27.175L393.58124 32.925Q393.58124 34.3 393.6906 34.784374Q393.8625 35.471874 394.39374 35.878124Q394.9406 36.26875 395.72186 36.26875Q396.51874 36.26875 397.20624 35.8625Q397.90936 35.45625 398.1906 34.76875Q398.4875 34.065624 398.4875 32.7375L398.4875 27.175L400.2375 27.175L400.2375 37.55L398.65936 37.55ZM402.15936 34.45625L403.90936 34.175Q404.05 35.221874 404.72186 35.784374Q405.39374 36.33125 406.59686 36.33125Q407.8 36.33125 408.3781 35.846874Q408.97186 35.346874 408.97186 34.690624Q408.97186 34.096874 408.45624 33.753124Q408.09686 33.51875 406.65936 33.159374Q404.72186 32.659374 403.97186 32.315624Q403.2375 31.95625 402.84686 31.33125Q402.45624 30.690624 402.45624 29.925Q402.45624 29.2375 402.76874 28.64375Q403.09686 28.05 403.64374 27.659374Q404.05 27.3625 404.7531 27.159374Q405.47186 26.940624 406.28436 26.940624Q407.5031 26.940624 408.425 27.3Q409.34686 27.64375 409.78436 28.253124Q410.22186 28.846874 410.39374 29.846874L408.675 30.08125Q408.55 29.284374 407.9875 28.846874Q407.425 28.39375 406.40936 28.39375Q405.1906 28.39375 404.675 28.8Q404.15936 29.190624 404.15936 29.721874Q404.15936 30.065624 404.3781 30.346874Q404.58124 30.628124 405.05 30.815624Q405.3156 30.909374 406.59686 31.253124Q408.47186 31.753124 409.20624 32.08125Q409.9406 32.39375 410.3625 33.003124Q410.78436 33.596874 410.78436 34.503124Q410.78436 35.378124 410.26874 36.159374Q409.7531 36.940624 408.78436 37.3625Q407.8156 37.784374 406.59686 37.784374Q404.58124 37.784374 403.51874 36.940624Q402.45624 36.096874 402.15936 34.45625ZM419.97186 34.20625L421.78436 34.440624Q421.3625 36.01875 420.1906 36.909374Q419.03436 37.784374 417.22186 37.784374Q414.95624 37.784374 413.6125 36.39375Q412.28436 34.9875 412.28436 32.45625Q412.28436 29.83125 413.6281 28.39375Q414.97186 26.940624 417.1281 26.940624Q419.20624 26.940624 420.51874 28.3625Q421.84686 29.76875 421.84686 32.346874Q421.84686 32.503124 421.83124 32.815624L414.09686 32.815624Q414.1906 34.51875 415.0656 35.425Q415.9406 36.33125 417.2375 36.33125Q418.20624 36.33125 418.8781 35.83125Q419.5656 35.315624 419.97186 34.20625ZM414.1906 31.3625L419.9875 31.3625Q419.8781 30.065624 419.33124 29.409374Q418.4875 28.39375 417.14374 28.39375Q415.9406 28.39375 415.1125 29.20625Q414.28436 30.003124 414.1906 31.3625ZM430.65936 37.55L430.65936 36.01875Q429.45624 37.784374 427.3781 37.784374Q426.45624 37.784374 425.65936 37.440624Q424.8625 37.08125 424.47186 36.55Q424.09686 36.01875 423.9406 35.2375Q423.83124 34.721874 423.83124 33.596874L423.83124 27.175L425.58124 27.175L425.58124 32.925Q425.58124 34.3 425.6906 34.784374Q425.8625 35.471874 426.39374 35.878124Q426.9406 36.26875 427.72186 36.26875Q428.51874 36.26875 429.20624 35.8625Q429.90936 35.45625 430.1906 34.76875Q430.4875 34.065624 430.4875 32.7375L430.4875 27.175L432.2375 27.175L432.2375 37.55L430.65936 37.55ZM434.8625 37.55L434.8625 27.175L436.4406 27.175L436.4406 28.628124Q436.925 27.878124 437.7375 27.409374Q438.55 26.940624 439.58124 26.940624Q440.7375 26.940624 441.47186 27.425Q442.20624 27.89375 442.51874 28.753124Q443.7531 26.940624 445.72186 26.940624Q447.26874 26.940624 448.09686 27.8Q448.925 28.659374 448.925 30.425L448.925 37.55L447.175 37.55L447.175 31.01875Q447.175 29.95625 447.0031 29.503124Q446.83124 29.034374 446.3781 28.753124Q445.9406 28.471874 445.33124 28.471874Q444.2375 28.471874 443.5031 29.20625Q442.78436 29.925 442.78436 31.51875L442.78436 37.55L441.03436 37.55L441.03436 30.815624Q441.03436 29.64375 440.59686 29.065624Q440.175 28.471874 439.1906 28.471874Q438.45624 28.471874 437.8156 28.8625Q437.1906 29.253124 436.90936 30.003124Q436.6281 30.753124 436.6281 32.175L436.6281 37.55L434.8625 37.55ZM451.8781 28.3L451.425 25.628124L451.425 23.2375L453.425 23.2375L453.425 25.628124L452.95624 28.3L451.8781 28.3ZM455.15936 34.45625L456.90936 34.175Q457.05 35.221874 457.72186 35.784374Q458.39374 36.33125 459.59686 36.33125Q460.8 36.33125 461.3781 35.846874Q461.97186 35.346874 461.97186 34.690624Q461.97186 34.096874 461.45624 33.753124Q461.09686 33.51875 459.65936 33.159374Q457.72186 32.659374 456.97186 32.315624Q456.2375 31.95625 455.84686 31.33125Q455.45624 30.690624 455.45624 29.925Q455.45624 29.2375 455.76874 28.64375Q456.09686 28.05 456.64374 27.659374Q457.05 27.3625 457.7531 27.159374Q458.47186 26.940624 459.28436 26.940624Q460.5031 26.940624 461.425 27.3Q462.34686 27.64375 462.78436 28.253124Q463.22186 28.846874 463.39374 29.846874L461.675 30.08125Q461.55 29.284374 460.9875 28.846874Q460.425 28.39375 459.40936 28.39375Q458.1906 28.39375 457.675 28.8Q457.15936 29.190624 457.15936 29.721874Q457.15936 30.065624 457.3781 30.346874Q457.58124 30.628124 458.05 30.815624Q458.3156 30.909374 459.59686 31.253124Q461.47186 31.753124 462.20624 32.08125Q462.9406 32.39375 463.3625 33.003124Q463.78436 33.596874 463.78436 34.503124Q463.78436 35.378124 463.26874 36.159374Q462.7531 36.940624 461.78436 37.3625Q460.8156 37.784374 459.59686 37.784374Q457.58124 37.784374 456.51874 36.940624Q455.45624 36.096874 455.15936 34.45625ZM474.7531 37.55L470.8 27.175L472.65936 27.175L474.89374 33.39375Q475.2531 34.39375 475.55 35.471874Q475.78436 34.659374 476.20624 33.503124L478.5031 27.175L480.3156 27.175L476.39374 37.55L474.7531 37.55ZM481.8781 25.253124L481.8781 23.2375L483.64374 23.2375L483.64374 25.253124L481.8781 25.253124ZM481.8781 37.55L481.8781 27.175L483.64374 27.175L483.64374 37.55L481.8781 37.55ZM485.15936 34.45625L486.90936 34.175Q487.05 35.221874 487.72186 35.784374Q488.39374 36.33125 489.59686 36.33125Q490.8 36.33125 491.3781 35.846874Q491.97186 35.346874 491.97186 34.690624Q491.97186 34.096874 491.45624 33.753124Q491.09686 33.51875 489.65936 33.159374Q487.72186 32.659374 486.97186 32.315624Q486.2375 31.95625 485.84686 31.33125Q485.45624 30.690624 485.45624 29.925Q485.45624 29.2375 485.76874 28.64375Q486.09686 28.05 486.64374 27.659374Q487.05 27.3625 487.7531 27.159374Q488.47186 26.940624 489.28436 26.940624Q490.5031 26.940624 491.425 27.3Q492.34686 27.64375 492.78436 28.253124Q493.22186 28.846874 493.39374 29.846874L491.675 30.08125Q491.55 29.284374 490.9875 28.846874Q490.425 28.39375 489.40936 28.39375Q488.1906 28.39375 487.675 28.8Q487.15936 29.190624 487.15936 29.721874Q487.15936 30.065624 487.3781 30.346874Q487.58124 30.628124 488.05 30.815624Q488.3156 30.909374 489.59686 31.253124Q491.47186 31.753124 492.20624 32.08125Q492.9406 32.39375 493.3625 33.003124Q493.78436 33.596874 493.78436 34.503124Q493.78436 35.378124 493.26874 36.159374Q492.7531 36.940624 491.78436 37.3625Q490.8156 37.784374 489.59686 37.784374Q487.58124 37.784374 486.51874 36.940624Q485.45624 36.096874 485.15936 34.45625ZM495.8781 25.253124L495.8781 23.2375L497.64374 23.2375L497.64374 25.253124L495.8781 25.253124ZM495.8781 37.55L495.8781 27.175L497.64374 27.175L497.64374 37.55L495.8781 37.55ZM503.70624 35.971874L503.95624 37.534374Q503.22186 37.690624 502.6281 37.690624Q501.675 37.690624 501.14374 37.39375Q500.6281 37.08125 500.40936 36.596874Q500.1906 36.096874 500.1906 34.51875L500.1906 28.55L498.90936 28.55L498.90936 27.175L500.1906 27.175L500.1906 24.6125L501.9406 23.55L501.9406 27.175L503.70624 27.175L503.70624 28.55L501.9406 28.55L501.9406 34.6125Q501.9406 35.3625 502.03436 35.58125Q502.1281 35.784374 502.33124 35.925Q502.55 36.05 502.9406 36.05Q503.22186 36.05 503.70624 35.971874ZM509.15936 34.01875Q509.14374 33.675 509.14374 33.503124Q509.14374 32.45625 509.4406 31.70625Q509.65936 31.14375 510.14374 30.565624Q510.4875 30.14375 511.39374 29.346874Q512.3156 28.534374 512.58124 28.065624Q512.8625 27.58125 512.8625 27.01875Q512.8625 25.9875 512.05 25.221874Q511.2531 24.440624 510.09686 24.440624Q508.97186 24.440624 508.22186 25.14375Q507.47186 25.846874 507.2375 27.33125L505.425 27.1125Q505.675 25.1125 506.8781 24.05Q508.08124 22.9875 510.0656 22.9875Q512.175 22.9875 513.425 24.128124Q514.675 25.26875 514.675 26.89375Q514.675 27.83125 514.22186 28.628124Q513.78436 29.409374 512.5031 30.55Q511.64374 31.315624 511.3781 31.675Q511.1281 32.034374 510.9875 32.503124Q510.8625 32.971874 510.84686 34.01875L509.15936 34.01875ZM509.05 37.55L509.05 35.55L511.05 35.55L511.05 37.55L509.05 37.55Z" fill-rule="nonzero"/></svg>