<svg version="1.1" viewBox="0.0 0.0 600.0 371.0" fill="none" stroke="none" stroke-linecap="square" stroke-miterlimit="10" width="600" height="371" xmlns:xlink="http://www.w3.org/1999/xlink" xmlns="http://www.w3.org/2000/svg"><path fill="#ffffff" d="M0 0L600.0 0L600.0 371.0L0 371.0L0 0Z" fill-rule="nonzero"/><path stroke="#333333" stroke-width="1.0" stroke-linecap="butt" d="M70.5 275.5L581.5 275.5" fill-rule="nonzero"/><path fill="#eeeeee" d="M45.5 300.5L70.5 276.5L581.5 276.5L556.5 300.5Z" fill-rule="nonzero"/><path stroke="#cccccc" stroke-width="1.0" stroke-linecap="butt" d="M70.5 228.5L581.5 228.5" fill-rule="nonzero"/><path stroke="#cccccc" stroke-width="1.0" stroke-linecap="butt" d="M70.5 180.5L581.5 180.5" fill-rule="nonzero"/><path stroke="#cccccc" stroke-width="1.0" stroke-linecap="butt" d="M70.5 133.5L581.5 133.5" fill-rule="nonzero"/><path stroke="#cccccc" stroke-width="1.0" stroke-linecap="butt" d="M70.5 85.5L581.5 85.5" fill-rule="nonzero"/><clipPath id="id_0"><path d="M45.55 85.916664L581.45 85.916664L581.45 300.45L45.55 300.45L45.55 85.916664Z" clip-rule="nonzero"/></clipPath><path fill="#226d36" clip-path="url(#id_0)" d="M548.0 138.0L548.0 275.0L528.0 295.0L528.0 158.0Z" fill-rule="nonzero"/><path fill="#5db975" clip-path="url(#id_0)" d="M528.0 158.0L448.0 158.0L468.0 138.0L548.0 138.0Z" fill-rule="nonzero"/><path stroke="#000000" stroke-width="2.0" stroke-linecap="butt" stroke-opacity="0.0" clip-path="url(#id_0)" d="M528.0 295.0L448.0 295.0L448.0 158.0L528.0 158.0Z" fill-rule="nonzero"/><path fill="#34a853" clip-path="url(#id_0)" d="M528.0 295.0L448.0 295.0L448.0 158.0L528.0 158.0Z" fill-rule="nonzero"/><path fill="#a37a03" clip-path="url(#id_0)" d="M425.0 114.0L425.0 275.0L405.0 295.0L405.0 134.0Z" fill-rule="nonzero"/><path fill="#fcc936" clip-path="url(#id_0)" d="M405.0 134.0L325.0 134.0L345.0 114.0L425.0 114.0Z" fill-rule="nonzero"/><path stroke="#000000" stroke-width="2.0" stroke-linecap="butt" stroke-opacity="0.0" clip-path="url(#id_0)" d="M405.0 295.0L325.0 295.0L325.0 134.0L405.0 134.0Z" fill-rule="nonzero"/><path fill="#fbbc04" clip-path="url(#id_0)" d="M405.0 295.0L325.0 295.0L325.0 134.0L405.0 134.0Z" fill-rule="nonzero"/><path fill="#982c22" clip-path="url(#id_0)" d="M302.0 256.0L302.0 275.0L282.0 295.0L282.0 276.0Z" fill-rule="nonzero"/><path fill="#ee695d" clip-path="url(#id_0)" d="M282.0 276.0L202.0 276.0L222.0 256.0L302.0 256.0Z" fill-rule="nonzero"/><path stroke="#000000" stroke-width="2.0" stroke-linecap="butt" stroke-opacity="0.0" clip-path="url(#id_0)" d="M282.0 295.0L202.0 295.0L202.0 276.0L282.0 276.0Z" fill-rule="nonzero"/><path fill="#ea4335" clip-path="url(#id_0)" d="M282.0 295.0L202.0 295.0L202.0 276.0L282.0 276.0Z" fill-rule="nonzero"/><path fill="#2b569f" clip-path="url(#id_0)" d="M179.0 266.0L179.0 275.0L159.0 295.0L159.0 286.0Z" fill-rule="nonzero"/><path fill="#689df6" clip-path="url(#id_0)" d="M159.0 286.0L79.0 286.0L99.0 266.0L179.0 266.0Z" fill-rule="nonzero"/><path stroke="#000000" stroke-width="2.0" stroke-linecap="butt" stroke-opacity="0.0" clip-path="url(#id_0)" d="M159.0 295.0L79.0 295.0L79.0 286.0L159.0 286.0Z" fill-rule="nonzero"/><path fill="#4285f4" clip-path="url(#id_0)" d="M159.0 295.0L79.0 295.0L79.0 286.0L159.0 286.0Z" fill-rule="nonzero"/><path fill="#000000" d="M233.0625 346.4344L234.1875 346.73126Q233.82812 348.1219 232.90625 348.85626Q231.98438 349.59064 230.64062 349.59064Q229.25 349.59064 228.375 349.02814Q227.5 348.46564 227.04688 347.40314Q226.59375 346.325 226.59375 345.09064Q226.59375 343.7469 227.10938 342.7469Q227.625 341.7469 228.5625 341.23126Q229.51562 340.71564 230.65625 340.71564Q231.9375 340.71564 232.8125 341.3719Q233.70312 342.02814 234.04688 343.21564L232.92188 343.48126Q232.625 342.54376 232.04688 342.1219Q231.48438 341.6844 230.625 341.6844Q229.64062 341.6844 228.96875 342.16876Q228.3125 342.6375 228.03125 343.4344Q227.76562 344.23126 227.76562 345.09064Q227.76562 346.1844 228.07812 346.9969Q228.40625 347.8094 229.07812 348.21564Q229.75 348.6219 230.54688 348.6219Q231.5 348.6219 232.15625 348.075Q232.82812 347.52814 233.0625 346.4344ZM235.40625 346.34064Q235.40625 344.60626 236.35938 343.77814Q237.15625 343.09064 238.3125 343.09064Q239.59375 343.09064 240.40625 343.9344Q241.23438 344.7625 241.23438 346.2469Q241.23438 347.45 240.875 348.1375Q240.51562 348.825 239.8125 349.21564Q239.125 349.59064 238.3125 349.59064Q237.01562 349.59064 236.20312 348.7625Q235.40625 347.91876 235.40625 346.34064ZM236.48438 346.34064Q236.48438 347.52814 237.0 348.1219Q237.53125 348.71564 238.3125 348.71564Q239.10938 348.71564 239.625 348.1219Q240.14062 347.52814 240.14062 346.3094Q240.14062 345.15314 239.60938 344.5594Q239.09375 343.96564 238.3125 343.96564Q237.53125 343.96564 237.0 344.5594Q236.48438 345.1375 236.48438 346.34064ZM242.79688 349.45L242.79688 343.23126L243.73438 343.23126L243.73438 344.10626Q244.42188 343.09064 245.71875 343.09064Q246.28125 343.09064 246.75 343.29376Q247.23438 343.4969 247.46875 343.825Q247.70312 344.15314 247.79688 344.59064Q247.84375 344.8875 247.84375 345.6219L247.84375 349.45L246.79688 349.45L246.79688 345.66876Q246.79688 345.0125 246.67188 344.7Q246.54688 344.3875 246.23438 344.2Q245.92188 343.9969 245.5 343.9969Q244.82812 343.9969 244.32812 344.4344Q243.84375 344.85626 243.84375 346.04376L243.84375 349.45L242.79688 349.45ZM252.09375 348.5125L252.25 349.4344Q251.79688 349.52814 251.45312 349.52814Q250.875 349.52814 250.5625 349.35626Q250.25 349.16876 250.10938 348.8719Q249.98438 348.575 249.98438 347.6219L249.98438 344.04376L249.21875 344.04376L249.21875 343.23126L249.98438 343.23126L249.98438 341.6844L251.03125 341.0594L251.03125 343.23126L252.09375 343.23126L252.09375 344.04376L251.03125 344.04376L251.03125 347.6844Q251.03125 348.1375 251.07812 348.2625Q251.14062 348.3875 251.26562 348.46564Q251.39062 348.54376 251.625 348.54376Q251.8125 348.54376 252.09375 348.5125ZM257.04688 347.45L258.14062 347.575Q257.89062 348.52814 257.1875 349.0594Q256.48438 349.59064 255.40625 349.59064Q254.04688 349.59064 253.23438 348.7469Q252.4375 347.90314 252.4375 346.3875Q252.4375 344.825 253.25 343.96564Q254.0625 343.09064 255.34375 343.09064Q256.59375 343.09064 257.375 343.9344Q258.17188 344.77814 258.17188 346.325Q258.17188 346.41876 258.17188 346.60626L253.53125 346.60626Q253.59375 347.6375 254.10938 348.1844Q254.625 348.71564 255.40625 348.71564Q255.98438 348.71564 256.39062 348.41876Q256.8125 348.10626 257.04688 347.45ZM253.59375 345.7469L257.0625 345.7469Q257.0 344.95 256.67188 344.5594Q256.15625 343.95 255.35938 343.95Q254.625 343.95 254.125 344.4344Q253.64062 344.91876 253.59375 345.7469ZM259.59375 349.96564L260.625 350.1219Q260.6875 350.59064 260.98438 350.8094Q261.375 351.10626 262.04688 351.10626Q262.78125 351.10626 263.17188 350.8094Q263.57812 350.5125 263.71875 349.9969Q263.8125 349.66876 263.79688 348.6375Q263.10938 349.45 262.07812 349.45Q260.79688 349.45 260.09375 348.52814Q259.39062 347.59064 259.39062 346.3094Q259.39062 345.41876 259.70312 344.66876Q260.03125 343.90314 260.64062 343.4969Q261.25 343.09064 262.07812 343.09064Q263.1875 343.09064 263.90625 343.98126L263.90625 343.23126L264.875 343.23126L264.875 348.60626Q264.875 350.0594 264.57812 350.66876Q264.28125 351.27814 263.64062 351.6219Q263.0 351.98126 262.0625 351.98126Q260.95312 351.98126 260.26562 351.48126Q259.57812 350.98126 259.59375 349.96564ZM260.46875 346.23126Q260.46875 347.45 260.95312 348.0125Q261.4375 348.575 262.17188 348.575Q262.90625 348.575 263.39062 348.0125Q263.89062 347.45 263.89062 346.2625Q263.89062 345.1219 263.375 344.54376Q262.875 343.96564 262.15625 343.96564Q261.45312 343.96564 260.95312 344.54376Q260.46875 345.10626 260.46875 346.23126ZM266.59375 349.96564L267.625 350.1219Q267.6875 350.59064 267.98438 350.8094Q268.375 351.10626 269.04688 351.10626Q269.78125 351.10626 270.17188 350.8094Q270.57812 350.5125 270.71875 349.9969Q270.8125 349.66876 270.79688 348.6375Q270.10938 349.45 269.07812 349.45Q267.79688 349.45 267.09375 348.52814Q266.39062 347.59064 266.39062 346.3094Q266.39062 345.41876 266.70312 344.66876Q267.03125 343.90314 267.64062 343.4969Q268.25 343.09064 269.07812 343.09064Q270.1875 343.09064 270.90625 343.98126L270.90625 343.23126L271.875 343.23126L271.875 348.60626Q271.875 350.0594 271.57812 350.66876Q271.28125 351.27814 270.64062 351.6219Q270.0 351.98126 269.0625 351.98126Q267.95312 351.98126 267.26562 351.48126Q266.57812 350.98126 266.59375 349.96564ZM267.46875 346.23126Q267.46875 347.45 267.95312 348.0125Q268.4375 348.575 269.17188 348.575Q269.90625 348.575 270.39062 348.0125Q270.89062 347.45 270.89062 346.2625Q270.89062 345.1219 270.375 344.54376Q269.875 343.96564 269.15625 343.96564Q268.45312 343.96564 267.95312 344.54376Q267.46875 345.10626 267.46875 346.23126ZM273.79688 342.075L273.79688 340.85626L274.85938 340.85626L274.85938 342.075L273.79688 342.075ZM273.79688 349.45L273.79688 343.23126L274.85938 343.23126L274.85938 349.45L273.79688 349.45ZM276.40625 346.34064Q276.40625 344.60626 277.35938 343.77814Q278.15625 343.09064 279.3125 343.09064Q280.59375 343.09064 281.40625 343.9344Q282.23438 344.7625 282.23438 346.2469Q282.23438 347.45 281.875 348.1375Q281.51562 348.825 280.8125 349.21564Q280.125 349.59064 279.3125 349.59064Q278.01562 349.59064 277.20312 348.7625Q276.40625 347.91876 276.40625 346.34064ZM277.48438 346.34064Q277.48438 347.52814 278.0 348.1219Q278.53125 348.71564 279.3125 348.71564Q280.10938 348.71564 280.625 348.1219Q281.14062 347.52814 281.14062 346.3094Q281.14062 345.15314 280.60938 344.5594Q280.09375 343.96564 279.3125 343.96564Q278.53125 343.96564 278.0 344.5594Q277.48438 345.1375 277.48438 346.34064ZM290.82812 349.45L290.82812 348.66876Q290.23438 349.59064 289.09375 349.59064Q288.34375 349.59064 287.71875 349.1844Q287.09375 348.7625 286.75 348.02814Q286.40625 347.29376 286.40625 346.34064Q286.40625 345.41876 286.71875 344.65314Q287.03125 343.8875 287.65625 343.4969Q288.28125 343.09064 289.04688 343.09064Q289.60938 343.09064 290.04688 343.325Q290.48438 343.5594 290.76562 343.9344L290.76562 340.85626L291.8125 340.85626L291.8125 349.45L290.82812 349.45ZM287.5 346.34064Q287.5 347.54376 288.0 348.1375Q288.5 348.71564 289.1875 348.71564Q289.875 348.71564 290.35938 348.15314Q290.84375 347.59064 290.84375 346.4344Q290.84375 345.15314 290.34375 344.5594Q289.85938 343.96564 289.14062 343.96564Q288.4375 343.96564 287.96875 344.54376Q287.5 345.10626 287.5 346.34064ZM293.79688 342.075L293.79688 340.85626L294.85938 340.85626L294.85938 342.075L293.79688 342.075ZM293.79688 349.45L293.79688 343.23126L294.85938 343.23126L294.85938 349.45L293.79688 349.45ZM299.54688 346.6844L300.60938 346.59064Q300.6875 347.2469 300.96875 347.65314Q301.25 348.0594 301.82812 348.325Q302.42188 348.575 303.15625 348.575Q303.79688 348.575 304.29688 348.3875Q304.79688 348.1844 305.03125 347.85626Q305.28125 347.5125 305.28125 347.1219Q305.28125 346.71564 305.04688 346.41876Q304.8125 346.10626 304.28125 345.90314Q303.92188 345.7625 302.73438 345.48126Q301.5625 345.2 301.09375 344.95Q300.46875 344.6219 300.17188 344.15314Q299.875 343.66876 299.875 343.075Q299.875 342.4344 300.23438 341.8719Q300.60938 341.29376 301.3125 341.0125Q302.03125 340.71564 302.89062 340.71564Q303.84375 340.71564 304.57812 341.02814Q305.3125 341.325 305.70312 341.9344Q306.09375 342.52814 306.125 343.27814L305.03125 343.35626Q304.9375 342.54376 304.42188 342.1375Q303.92188 341.71564 302.9375 341.71564Q301.90625 341.71564 301.4375 342.09064Q300.96875 342.46564 300.96875 342.9969Q300.96875 343.46564 301.29688 343.7625Q301.625 344.0594 303.0 344.3719Q304.39062 344.6844 304.90625 344.91876Q305.65625 345.27814 306.01562 345.8094Q306.375 346.325 306.375 347.02814Q306.375 347.71564 305.98438 348.325Q305.59375 348.91876 304.85938 349.2625Q304.125 349.59064 303.20312 349.59064Q302.03125 349.59064 301.23438 349.2625Q300.45312 348.91876 300.0 348.23126Q299.5625 347.54376 299.54688 346.6844ZM312.04688 347.45L313.14062 347.575Q312.89062 348.52814 312.1875 349.0594Q311.48438 349.59064 310.40625 349.59064Q309.04688 349.59064 308.23438 348.7469Q307.4375 347.90314 307.4375 346.3875Q307.4375 344.825 308.25 343.96564Q309.0625 343.09064 310.34375 343.09064Q311.59375 343.09064 312.375 343.9344Q313.17188 344.77814 313.17188 346.325Q313.17188 346.41876 313.17188 346.60626L308.53125 346.60626Q308.59375 347.6375 309.10938 348.1844Q309.625 348.71564 310.40625 348.71564Q310.98438 348.71564 311.39062 348.41876Q311.8125 348.10626 312.04688 347.45ZM308.59375 345.7469L312.0625 345.7469Q312.0 344.95 311.67188 344.5594Q311.15625 343.95 310.35938 343.95Q309.625 343.95 309.125 344.4344Q308.64062 344.91876 308.59375 345.7469ZM314.76562 349.45L314.76562 340.85626L315.82812 340.85626L315.82812 349.45L314.76562 349.45ZM322.04688 347.45L323.14062 347.575Q322.89062 348.52814 322.1875 349.0594Q321.48438 349.59064 320.40625 349.59064Q319.04688 349.59064 318.23438 348.7469Q317.4375 347.90314 317.4375 346.3875Q317.4375 344.825 318.25 343.96564Q319.0625 343.09064 320.34375 343.09064Q321.59375 343.09064 322.375 343.9344Q323.17188 344.77814 323.17188 346.325Q323.17188 346.41876 323.17188 346.60626L318.53125 346.60626Q318.59375 347.6375 319.10938 348.1844Q319.625 348.71564 320.40625 348.71564Q320.98438 348.71564 321.39062 348.41876Q321.8125 348.10626 322.04688 347.45ZM318.59375 345.7469L322.0625 345.7469Q322.0 344.95 321.67188 344.5594Q321.15625 343.95 320.35938 343.95Q319.625 343.95 319.125 344.4344Q318.64062 344.91876 318.59375 345.7469ZM328.85938 347.16876L329.89062 347.3094Q329.71875 348.3719 329.01562 348.98126Q328.3125 349.59064 327.29688 349.59064Q326.01562 349.59064 325.23438 348.7625Q324.46875 347.91876 324.46875 346.35626Q324.46875 345.35626 324.79688 344.60626Q325.14062 343.84064 325.8125 343.46564Q326.5 343.09064 327.3125 343.09064Q328.3125 343.09064 328.95312 343.60626Q329.60938 344.10626 329.79688 345.0594L328.76562 345.21564Q328.625 344.59064 328.25 344.27814Q327.875 343.95 327.34375 343.95Q326.54688 343.95 326.04688 344.52814Q325.54688 345.09064 325.54688 346.325Q325.54688 347.59064 326.03125 348.15314Q326.51562 348.71564 327.28125 348.71564Q327.90625 348.71564 328.3125 348.34064Q328.73438 347.96564 328.85938 347.16876ZM333.09375 348.5125L333.25 349.4344Q332.79688 349.52814 332.45312 349.52814Q331.875 349.52814 331.5625 349.35626Q331.25 349.16876 331.10938 348.8719Q330.98438 348.575 330.98438 347.6219L330.98438 344.04376L330.21875 344.04376L330.21875 343.23126L330.98438 343.23126L330.98438 341.6844L332.03125 341.0594L332.03125 343.23126L333.09375 343.23126L333.09375 344.04376L332.03125 344.04376L332.03125 347.6844Q332.03125 348.1375 332.07812 348.2625Q332.14062 348.3875 332.26562 348.46564Q332.39062 348.54376 332.625 348.54376Q332.8125 348.54376 333.09375 348.5125ZM340.85938 348.6844Q340.26562 349.1844 339.71875 349.3875Q339.1875 349.59064 338.5625 349.59064Q337.53125 349.59064 336.98438 349.09064Q336.4375 348.59064 336.4375 347.8094Q336.4375 347.35626 336.64062 346.98126Q336.84375 346.59064 337.1875 346.3719Q337.53125 346.1375 337.95312 346.02814Q338.25 345.9344 338.89062 345.85626Q340.15625 345.71564 340.76562 345.4969Q340.76562 345.27814 340.76562 345.23126Q340.76562 344.575 340.46875 344.3094Q340.0625 343.96564 339.26562 343.96564Q338.53125 343.96564 338.17188 344.23126Q337.8125 344.48126 337.64062 345.1375L336.60938 344.9969Q336.75 344.34064 337.07812 343.9344Q337.40625 343.52814 338.01562 343.3094Q338.625 343.09064 339.42188 343.09064Q340.21875 343.09064 340.71875 343.27814Q341.21875 343.46564 341.45312 343.7469Q341.6875 344.02814 341.78125 344.46564Q341.82812 344.73126 341.82812 345.4344L341.82812 346.84064Q341.82812 348.3094 341.89062 348.7Q341.96875 349.09064 342.17188 349.45L341.0625 349.45Q340.90625 349.1219 340.85938 348.6844ZM340.76562 346.325Q340.1875 346.5594 339.04688 346.73126Q338.39062 346.825 338.125 346.95Q337.85938 347.0594 337.70312 347.27814Q337.5625 347.4969 337.5625 347.77814Q337.5625 348.2 337.875 348.48126Q338.20312 348.7625 338.8125 348.7625Q339.42188 348.7625 339.89062 348.4969Q340.375 348.23126 340.59375 347.7625Q340.76562 347.40314 340.76562 346.71564L340.76562 346.325ZM346.76562 349.45L346.76562 340.85626L347.82812 340.85626L347.82812 349.45L346.76562 349.45ZM353.85938 348.6844Q353.26562 349.1844 352.71875 349.3875Q352.1875 349.59064 351.5625 349.59064Q350.53125 349.59064 349.98438 349.09064Q349.4375 348.59064 349.4375 347.8094Q349.4375 347.35626 349.64062 346.98126Q349.84375 346.59064 350.1875 346.3719Q350.53125 346.1375 350.95312 346.02814Q351.25 345.9344 351.89062 345.85626Q353.15625 345.71564 353.76562 345.4969Q353.76562 345.27814 353.76562 345.23126Q353.76562 344.575 353.46875 344.3094Q353.0625 343.96564 352.26562 343.96564Q351.53125 343.96564 351.17188 344.23126Q350.8125 344.48126 350.64062 345.1375L349.60938 344.9969Q349.75 344.34064 350.07812 343.9344Q350.40625 343.52814 351.01562 343.3094Q351.625 343.09064 352.42188 343.09064Q353.21875 343.09064 353.71875 343.27814Q354.21875 343.46564 354.45312 343.7469Q354.6875 344.02814 354.78125 344.46564Q354.82812 344.73126 354.82812 345.4344L354.82812 346.84064Q354.82812 348.3094 354.89062 348.7Q354.96875 349.09064 355.17188 349.45L354.0625 349.45Q353.90625 349.1219 353.85938 348.6844ZM353.76562 346.325Q353.1875 346.5594 352.04688 346.73126Q351.39062 346.825 351.125 346.95Q350.85938 347.0594 350.70312 347.27814Q350.5625 347.4969 350.5625 347.77814Q350.5625 348.2 350.875 348.48126Q351.20312 348.7625 351.8125 348.7625Q352.42188 348.7625 352.89062 348.4969Q353.375 348.23126 353.59375 347.7625Q353.76562 347.40314 353.76562 346.71564L353.76562 346.325ZM356.79688 349.45L356.79688 343.23126L357.73438 343.23126L357.73438 344.10626Q358.42188 343.09064 359.71875 343.09064Q360.28125 343.09064 360.75 343.29376Q361.23438 343.4969 361.46875 343.825Q361.70312 344.15314 361.79688 344.59064Q361.84375 344.8875 361.84375 345.6219L361.84375 349.45L360.79688 349.45L360.79688 345.66876Q360.79688 345.0125 360.67188 344.7Q360.54688 344.3875 360.23438 344.2Q359.92188 343.9969 359.5 343.9969Q358.82812 343.9969 358.32812 344.4344Q357.84375 344.85626 357.84375 346.04376L357.84375 349.45L356.79688 349.45ZM363.59375 349.96564L364.625 350.1219Q364.6875 350.59064 364.98438 350.8094Q365.375 351.10626 366.04688 351.10626Q366.78125 351.10626 367.17188 350.8094Q367.57812 350.5125 367.71875 349.9969Q367.8125 349.66876 367.79688 348.6375Q367.10938 349.45 366.07812 349.45Q364.79688 349.45 364.09375 348.52814Q363.39062 347.59064 363.39062 346.3094Q363.39062 345.41876 363.70312 344.66876Q364.03125 343.90314 364.64062 343.4969Q365.25 343.09064 366.07812 343.09064Q367.1875 343.09064 367.90625 343.98126L367.90625 343.23126L368.875 343.23126L368.875 348.60626Q368.875 350.0594 368.57812 350.66876Q368.28125 351.27814 367.64062 351.6219Q367.0 351.98126 366.0625 351.98126Q364.95312 351.98126 364.26562 351.48126Q363.57812 350.98126 363.59375 349.96564ZM364.46875 346.23126Q364.46875 347.45 364.95312 348.0125Q365.4375 348.575 366.17188 348.575Q366.90625 348.575 367.39062 348.0125Q367.89062 347.45 367.89062 346.2625Q367.89062 345.1219 367.375 344.54376Q366.875 343.96564 366.15625 343.96564Q365.45312 343.96564 364.95312 344.54376Q364.46875 345.10626 364.46875 346.23126ZM374.875 349.45L374.875 348.52814Q374.14062 349.59064 372.89062 349.59064Q372.34375 349.59064 371.85938 349.3875Q371.39062 349.16876 371.15625 348.85626Q370.92188 348.52814 370.82812 348.0594Q370.76562 347.7625 370.76562 347.075L370.76562 343.23126L371.82812 343.23126L371.82812 346.6844Q371.82812 347.4969 371.89062 347.79376Q371.98438 348.2 372.29688 348.45Q372.625 348.6844 373.10938 348.6844Q373.57812 348.6844 373.98438 348.45Q374.40625 348.2 374.57812 347.77814Q374.76562 347.35626 374.76562 346.5594L374.76562 343.23126L375.8125 343.23126L375.8125 349.45L374.875 349.45ZM381.85938 348.6844Q381.26562 349.1844 380.71875 349.3875Q380.1875 349.59064 379.5625 349.59064Q378.53125 349.59064 377.98438 349.09064Q377.4375 348.59064 377.4375 347.8094Q377.4375 347.35626 377.64062 346.98126Q377.84375 346.59064 378.1875 346.3719Q378.53125 346.1375 378.95312 346.02814Q379.25 345.9344 379.89062 345.85626Q381.15625 345.71564 381.76562 345.4969Q381.76562 345.27814 381.76562 345.23126Q381.76562 344.575 381.46875 344.3094Q381.0625 343.96564 380.26562 343.96564Q379.53125 343.96564 379.17188 344.23126Q378.8125 344.48126 378.64062 345.1375L377.60938 344.9969Q377.75 344.34064 378.07812 343.9344Q378.40625 343.52814 379.01562 343.3094Q379.625 343.09064 380.42188 343.09064Q381.21875 343.09064 381.71875 343.27814Q382.21875 343.46564 382.45312 343.7469Q382.6875 344.02814 382.78125 344.46564Q382.82812 344.73126 382.82812 345.4344L382.82812 346.84064Q382.82812 348.3094 382.89062 348.7Q382.96875 349.09064 383.17188 349.45L382.0625 349.45Q381.90625 349.1219 381.85938 348.6844ZM381.76562 346.325Q381.1875 346.5594 380.04688 346.73126Q379.39062 346.825 379.125 346.95Q378.85938 347.0594 378.70312 347.27814Q378.5625 347.4969 378.5625 347.77814Q378.5625 348.2 378.875 348.48126Q379.20312 348.7625 379.8125 348.7625Q380.42188 348.7625 380.89062 348.4969Q381.375 348.23126 381.59375 347.7625Q381.76562 347.40314 381.76562 346.71564L381.76562 346.325ZM384.59375 349.96564L385.625 350.1219Q385.6875 350.59064 385.98438 350.8094Q386.375 351.10626 387.04688 351.10626Q387.78125 351.10626 388.17188 350.8094Q388.57812 350.5125 388.71875 349.9969Q388.8125 349.66876 388.79688 348.6375Q388.10938 349.45 387.07812 349.45Q385.79688 349.45 385.09375 348.52814Q384.39062 347.59064 384.39062 346.3094Q384.39062 345.41876 384.70312 344.66876Q385.03125 343.90314 385.64062 343.4969Q386.25 343.09064 387.07812 343.09064Q388.1875 343.09064 388.90625 343.98126L388.90625 343.23126L389.875 343.23126L389.875 348.60626Q389.875 350.0594 389.57812 350.66876Q389.28125 351.27814 388.64062 351.6219Q388.0 351.98126 387.0625 351.98126Q385.95312 351.98126 385.26562 351.48126Q384.57812 350.98126 384.59375 349.96564ZM385.46875 346.23126Q385.46875 347.45 385.95312 348.0125Q386.4375 348.575 387.17188 348.575Q387.90625 348.575 388.39062 348.0125Q388.89062 347.45 388.89062 346.2625Q388.89062 345.1219 388.375 344.54376Q387.875 343.96564 387.15625 343.96564Q386.45312 343.96564 385.95312 344.54376Q385.46875 345.10626 385.46875 346.23126ZM396.04688 347.45L397.14062 347.575Q396.89062 348.52814 396.1875 349.0594Q395.48438 349.59064 394.40625 349.59064Q393.04688 349.59064 392.23438 348.7469Q391.4375 347.90314 391.4375 346.3875Q391.4375 344.825 392.25 343.96564Q393.0625 343.09064 394.34375 343.09064Q395.59375 343.09064 396.375 343.9344Q397.17188 344.77814 397.17188 346.325Q397.17188 346.41876 397.17188 346.60626L392.53125 346.60626Q392.59375 347.6375 393.10938 348.1844Q393.625 348.71564 394.40625 348.71564Q394.98438 348.71564 395.39062 348.41876Q395.8125 348.10626 396.04688 347.45ZM392.59375 345.7469L396.0625 345.7469Q396.0 344.95 395.67188 344.5594Q395.15625 343.95 394.35938 343.95Q393.625 343.95 393.125 344.4344Q392.64062 344.91876 392.59375 345.7469ZM399.07812 344.4344L399.07812 343.23126L400.28125 343.23126L400.28125 344.4344L399.07812 344.4344ZM399.07812 349.45L399.07812 348.2469L400.28125 348.2469L400.28125 349.45L399.07812 349.45Z" fill-rule="nonzero"/><path fill="#000000" d="M33.05 275.21564Q33.05 273.6844 33.3625 272.7625Q33.675 271.825 34.284374 271.325Q34.909374 270.825 35.846874 270.825Q36.534374 270.825 37.05 271.10626Q37.58125 271.3875 37.925 271.91876Q38.26875 272.4344 38.45625 273.1844Q38.64375 273.9344 38.64375 275.21564Q38.64375 276.73126 38.33125 277.65314Q38.034374 278.575 37.409374 279.09064Q36.8 279.59064 35.846874 279.59064Q34.6125 279.59064 33.89375 278.7Q33.05 277.6375 33.05 275.21564ZM34.128124 275.21564Q34.128124 277.325 34.628124 278.02814Q35.128124 278.73126 35.846874 278.73126Q36.58125 278.73126 37.065624 278.02814Q37.565624 277.325 37.565624 275.21564Q37.565624 273.09064 37.065624 272.40314Q36.58125 271.7 35.83125 271.7Q35.1125 271.7 34.675 272.3094Q34.128124 273.09064 34.128124 275.21564Z" fill-rule="nonzero"/><path fill="#000000" d="M30.01875 232.06667L28.971874 232.06667L28.971874 225.34792Q28.58125 225.70729 27.95625 226.08229Q27.346874 226.44167 26.8625 226.61354L26.8625 225.59792Q27.7375 225.17604 28.39375 224.59792Q29.065624 224.00417 29.346874 223.44167L30.01875 223.44167L30.01875 232.06667ZM33.05 227.83229Q33.05 226.30104 33.3625 225.37917Q33.675 224.44167 34.284374 223.94167Q34.909374 223.44167 35.846874 223.44167Q36.534374 223.44167 37.05 223.72292Q37.58125 224.00417 37.925 224.53542Q38.26875 225.05104 38.45625 225.80104Q38.64375 226.55104 38.64375 227.83229Q38.64375 229.34792 38.33125 230.26979Q38.034374 231.19167 37.409374 231.70729Q36.8 232.20729 35.846874 232.20729Q34.6125 232.20729 33.89375 231.31667Q33.05 230.25417 33.05 227.83229ZM34.128124 227.83229Q34.128124 229.94167 34.628124 230.64479Q35.128124 231.34792 35.846874 231.34792Q36.58125 231.34792 37.065624 230.64479Q37.565624 229.94167 37.565624 227.83229Q37.565624 225.70729 37.065624 225.01979Q36.58125 224.31667 35.83125 224.31667Q35.1125 224.31667 34.675 224.92604Q34.128124 225.70729 34.128124 227.83229Z" fill-rule="nonzero"/><path fill="#000000" d="M31.596874 183.66771L31.596874 184.68333L25.909374 184.68333Q25.909374 184.30833 26.034374 183.94896Q26.253124 183.37083 26.721874 182.80833Q27.20625 182.24583 28.1125 181.51146Q29.51875 180.35521 30.003124 179.68333Q30.503124 179.01146 30.503124 178.41771Q30.503124 177.79271 30.05 177.37083Q29.596874 176.93333 28.878124 176.93333Q28.1125 176.93333 27.659374 177.38646Q27.20625 177.83958 27.190624 178.65208L26.1125 178.54271Q26.221874 177.32396 26.940624 176.69896Q27.675 176.05833 28.909374 176.05833Q30.14375 176.05833 30.8625 176.74583Q31.58125 177.43333 31.58125 178.44896Q31.58125 178.96458 31.3625 179.46458Q31.159374 179.94896 30.659374 180.51146Q30.175 181.05833 29.05 182.01146Q28.096874 182.80833 27.815624 183.10521Q27.55 183.38646 27.378124 183.66771L31.596874 183.66771ZM33.05 180.44896Q33.05 178.91771 33.3625 177.99583Q33.675 177.05833 34.284374 176.55833Q34.909374 176.05833 35.846874 176.05833Q36.534374 176.05833 37.05 176.33958Q37.58125 176.62083 37.925 177.15208Q38.26875 177.66771 38.45625 178.41771Q38.64375 179.16771 38.64375 180.44896Q38.64375 181.96458 38.33125 182.88646Q38.034374 183.80833 37.409374 184.32396Q36.8 184.82396 35.846874 184.82396Q34.6125 184.82396 33.89375 183.93333Q33.05 182.87083 33.05 180.44896ZM34.128124 180.44896Q34.128124 182.55833 34.628124 183.26146Q35.128124 183.96458 35.846874 183.96458Q36.58125 183.96458 37.065624 183.26146Q37.565624 182.55833 37.565624 180.44896Q37.565624 178.32396 37.065624 177.63646Q36.58125 176.93333 35.83125 176.93333Q35.1125 176.93333 34.675 177.54271Q34.128124 178.32396 34.128124 180.44896Z" fill-rule="nonzero"/><path fill="#000000" d="M26.05 135.03438L27.1125 134.89375Q27.284374 135.78438 27.721874 136.19063Q28.159374 136.58125 28.784374 136.58125Q29.534374 136.58125 30.05 136.06563Q30.565624 135.55 30.565624 134.78438Q30.565624 134.06563 30.08125 133.59688Q29.6125 133.1125 28.878124 133.1125Q28.58125 133.1125 28.128124 133.2375L28.253124 132.3Q28.3625 132.31563 28.425 132.31563Q29.096874 132.31563 29.628124 131.97188Q30.175 131.6125 30.175 130.87813Q30.175 130.3 29.784374 129.925Q29.39375 129.53438 28.76875 129.53438Q28.159374 129.53438 27.7375 129.925Q27.33125 130.31563 27.221874 131.08125L26.159374 130.89375Q26.346874 129.84688 27.034374 129.26875Q27.721874 128.675 28.7375 128.675Q29.440624 128.675 30.034374 128.9875Q30.628124 129.28438 30.940624 129.8Q31.253124 130.31563 31.253124 130.90938Q31.253124 131.45625 30.95625 131.925Q30.659374 132.37813 30.08125 132.64375Q30.83125 132.81563 31.253124 133.37813Q31.675 133.925 31.675 134.76875Q31.675 135.89375 30.846874 136.675Q30.034374 137.45625 28.784374 137.45625Q27.659374 137.45625 26.909374 136.78438Q26.159374 136.09688 26.05 135.03438ZM33.05 133.06563Q33.05 131.53438 33.3625 130.6125Q33.675 129.675 34.284374 129.175Q34.909374 128.675 35.846874 128.675Q36.534374 128.675 37.05 128.95625Q37.58125 129.2375 37.925 129.76875Q38.26875 130.28438 38.45625 131.03438Q38.64375 131.78438 38.64375 133.06563Q38.64375 134.58125 38.33125 135.50313Q38.034374 136.425 37.409374 136.94063Q36.8 137.44063 35.846874 137.44063Q34.6125 137.44063 33.89375 136.55Q33.05 135.4875 33.05 133.06563ZM34.128124 133.06563Q34.128124 135.175 34.628124 135.87813Q35.128124 136.58125 35.846874 136.58125Q36.58125 136.58125 37.065624 135.87813Q37.565624 135.175 37.565624 133.06563Q37.565624 130.94063 37.065624 130.25313Q36.58125 129.55 35.83125 129.55Q35.1125 129.55 34.675 130.15938Q34.128124 130.94063 34.128124 133.06563Z" fill-rule="nonzero"/><path fill="#000000" d="M29.425 89.916664L29.425 87.854164L25.70625 87.854164L25.70625 86.885414L29.628124 81.322914L30.4875 81.322914L30.4875 86.885414L31.64375 86.885414L31.64375 87.854164L30.4875 87.854164L30.4875 89.916664L29.425 89.916664ZM29.425 86.885414L29.425 83.02604L26.7375 86.885414L29.425 86.885414ZM33.05 85.68229Q33.05 84.15104 33.3625 83.229164Q33.675 82.291664 34.284374 81.791664Q34.909374 81.291664 35.846874 81.291664Q36.534374 81.291664 37.05 81.572914Q37.58125 81.854164 37.925 82.385414Q38.26875 82.90104 38.45625 83.65104Q38.64375 84.40104 38.64375 85.68229Q38.64375 87.197914 38.33125 88.11979Q38.034374 89.041664 37.409374 89.55729Q36.8 90.05729 35.846874 90.05729Q34.6125 90.05729 33.89375 89.166664Q33.05 88.104164 33.05 85.68229ZM34.128124 85.68229Q34.128124 87.791664 34.628124 88.49479Q35.128124 89.197914 35.846874 89.197914Q36.58125 89.197914 37.065624 88.49479Q37.565624 87.791664 37.565624 85.68229Q37.565624 83.55729 37.065624 82.86979Q36.58125 82.166664 35.83125 82.166664Q35.1125 82.166664 34.675 82.77604Q34.128124 83.55729 34.128124 85.68229Z" fill-rule="nonzero"/><path fill="#000000" d="M485.2931 315.2L486.40247 315.10626Q486.52747 315.91876 486.96497 316.325Q487.4181 316.73126 488.05872 316.73126Q488.80872 316.73126 489.33997 316.15314Q489.87122 315.575 489.87122 314.6375Q489.87122 313.73126 489.3556 313.21564Q488.8556 312.6844 488.02747 312.6844Q487.52747 312.6844 487.1056 312.91876Q486.69934 313.15314 486.46497 313.5125L485.4806 313.3875L486.30872 308.98126L490.58997 308.98126L490.58997 309.98126L487.15247 309.98126L486.69934 312.29376Q487.46497 311.7469 488.30872 311.7469Q489.43372 311.7469 490.19934 312.52814Q490.9806 313.3094 490.9806 314.54376Q490.9806 315.7 490.30872 316.5594Q489.4806 317.59064 488.05872 317.59064Q486.88684 317.59064 486.13684 316.9344Q485.40247 316.27814 485.2931 315.2Z" fill-rule="nonzero"/><path fill="#000000" d="M365.4727 317.45L365.4727 315.3875L361.75394 315.3875L361.75394 314.41876L365.6758 308.85626L366.5352 308.85626L366.5352 314.41876L367.69144 314.41876L367.69144 315.3875L366.5352 315.3875L366.5352 317.45L365.4727 317.45ZM365.4727 314.41876L365.4727 310.5594L362.7852 314.41876L365.4727 314.41876Z" fill-rule="nonzero"/><path fill="#000000" d="M238.9023 315.1844L239.9648 315.04376Q240.13667 315.9344 240.57417 316.34064Q241.01167 316.73126 241.63667 316.73126Q242.38667 316.73126 242.9023 316.21564Q243.41792 315.7 243.41792 314.9344Q243.41792 314.21564 242.93355 313.7469Q242.4648 313.2625 241.73042 313.2625Q241.43355 313.2625 240.98042 313.3875L241.10542 312.45Q241.2148 312.46564 241.2773 312.46564Q241.94917 312.46564 242.48042 312.1219Q243.0273 311.7625 243.0273 311.02814Q243.0273 310.45 242.63667 310.075Q242.24605 309.6844 241.62105 309.6844Q241.01167 309.6844 240.5898 310.075Q240.18355 310.46564 240.07417 311.23126L239.01167 311.04376Q239.19917 309.9969 239.88667 309.41876Q240.57417 308.825 241.5898 308.825Q242.29292 308.825 242.88667 309.1375Q243.48042 309.4344 243.79292 309.95Q244.10542 310.46564 244.10542 311.0594Q244.10542 311.60626 243.80855 312.075Q243.51167 312.52814 242.93355 312.79376Q243.68355 312.96564 244.10542 313.52814Q244.5273 314.075 244.5273 314.91876Q244.5273 316.04376 243.69917 316.825Q242.88667 317.60626 241.63667 317.60626Q240.51167 317.60626 239.76167 316.9344Q239.01167 316.2469 238.9023 315.1844Z" fill-rule="nonzero"/><path fill="#000000" d="M121.25377 316.4344L121.25377 317.45L115.56627 317.45Q115.56627 317.075 115.69127 316.71564Q115.91002 316.1375 116.37877 315.575Q116.863144 315.0125 117.769394 314.27814Q119.175644 313.1219 119.66002 312.45Q120.16002 311.77814 120.16002 311.1844Q120.16002 310.5594 119.706894 310.1375Q119.25377 309.7 118.53502 309.7Q117.769394 309.7 117.31627 310.15314Q116.863144 310.60626 116.84752 311.41876L115.769394 311.3094Q115.87877 310.09064 116.59752 309.46564Q117.331894 308.825 118.56627 308.825Q119.800644 308.825 120.519394 309.5125Q121.238144 310.2 121.238144 311.21564Q121.238144 311.73126 121.019394 312.23126Q120.81627 312.71564 120.31627 313.27814Q119.831894 313.825 118.706894 314.77814Q117.75377 315.575 117.47252 315.8719Q117.206894 316.15314 117.03502 316.4344L121.25377 316.4344Z" fill-rule="nonzero"/><path fill="#757575" d="M20.190624 37.55L20.190624 23.2375L29.846874 23.2375L29.846874 24.925L22.08125 24.925L22.08125 29.3625L28.8 29.3625L28.8 31.05L22.08125 31.05L22.08125 37.55L20.190624 37.55ZM31.846874 37.55L31.846874 27.175L33.425 27.175L33.425 28.753124Q34.034374 27.64375 34.55 27.3Q35.065624 26.940624 35.675 26.940624Q36.565624 26.940624 37.4875 27.503124L36.878124 29.14375Q36.2375 28.753124 35.596874 28.753124Q35.01875 28.753124 34.55 29.1125Q34.096874 29.45625 33.89375 30.065624Q33.6125 31.003124 33.6125 32.1125L33.6125 37.55L31.846874 37.55ZM38.221874 32.3625Q38.221874 29.4875 39.815624 28.096874Q41.159374 26.940624 43.08125 26.940624Q45.221874 26.940624 46.565624 28.346874Q47.925 29.753124 47.925 32.221874Q47.925 34.221874 47.33125 35.378124Q46.7375 36.51875 45.58125 37.159374Q44.440624 37.784374 43.08125 37.784374Q40.89375 37.784374 39.55 36.39375Q38.221874 34.9875 38.221874 32.3625ZM40.01875 32.3625Q40.01875 34.3625 40.878124 35.346874Q41.753124 36.33125 43.08125 36.33125Q44.39375 36.33125 45.253124 35.346874Q46.128124 34.346874 46.128124 32.3Q46.128124 30.378124 45.253124 29.39375Q44.378124 28.39375 43.08125 28.39375Q41.753124 28.39375 40.878124 29.39375Q40.01875 30.378124 40.01875 32.3625ZM49.8625 37.55L49.8625 27.175L51.440624 27.175L51.440624 28.628124Q51.925 27.878124 52.7375 27.409374Q53.55 26.940624 54.58125 26.940624Q55.7375 26.940624 56.471874 27.425Q57.20625 27.89375 57.51875 28.753124Q58.753124 26.940624 60.721874 26.940624Q62.26875 26.940624 63.096874 27.8Q63.925 28.659374 63.925 30.425L63.925 37.55L62.175 37.55L62.175 31.01875Q62.175 29.95625 62.003124 29.503124Q61.83125 29.034374 61.378124 28.753124Q60.940624 28.471874 60.33125 28.471874Q59.2375 28.471874 58.503124 29.20625Q57.784374 29.925 57.784374 31.51875L57.784374 37.55L56.034374 37.55L56.034374 30.815624Q56.034374 29.64375 55.596874 29.065624Q55.175 28.471874 54.190624 28.471874Q53.45625 28.471874 52.815624 28.8625Q52.190624 29.253124 51.909374 30.003124Q51.628124 30.753124 51.628124 32.175L51.628124 37.55L49.8625 37.55ZM79.00313 37.55L77.2375 37.55L77.2375 26.346874Q76.6125 26.95625 75.58125 27.565624Q74.55 28.159374 73.72188 28.471874L73.72188 26.76875Q75.20625 26.08125 76.3 25.096874Q77.40938 24.096874 77.8625 23.175L79.00313 23.175L79.00313 37.55ZM93.70625 35.971874L93.95625 37.534374Q93.22188 37.690624 92.62813 37.690624Q91.675 37.690624 91.14375 37.39375Q90.62813 37.08125 90.40938 36.596874Q90.19063 36.096874 90.19063 34.51875L90.19063 28.55L88.90938 28.55L88.90938 27.175L90.19063 27.175L90.19063 24.6125L91.94063 23.55L91.94063 27.175L93.70625 27.175L93.70625 28.55L91.94063 28.55L91.94063 34.6125Q91.94063 35.3625 92.03438 35.58125Q92.12813 35.784374 92.33125 35.925Q92.55 36.05 92.94063 36.05Q93.22188 36.05 93.70625 35.971874ZM95.22188 32.3625Q95.22188 29.4875 96.81563 28.096874Q98.15938 26.940624 100.08125 26.940624Q102.22188 26.940624 103.56563 28.346874Q104.925 29.753124 104.925 32.221874Q104.925 34.221874 104.33125 35.378124Q103.7375 36.51875 102.58125 37.159374Q101.44063 37.784374 100.08125 37.784374Q97.89375 37.784374 96.55 36.39375Q95.22188 34.9875 95.22188 32.3625ZM97.01875 32.3625Q97.01875 34.3625 97.87813 35.346874Q98.75313 36.33125 100.08125 36.33125Q101.39375 36.33125 102.25313 35.346874Q103.12813 34.346874 103.12813 32.3Q103.12813 30.378124 102.25313 29.39375Q101.37813 28.39375 100.08125 28.39375Q98.75313 28.39375 97.87813 29.39375Q97.01875 30.378124 97.01875 32.3625ZM112.37813 33.8L114.22188 33.64375Q114.425 34.9875 115.175 35.675Q115.925 36.346874 116.9875 36.346874Q118.25313 36.346874 119.12813 35.39375Q120.00313 34.440624 120.00313 32.846874Q120.00313 31.346874 119.15938 30.4875Q118.31563 29.6125 116.95625 29.6125Q116.09688 29.6125 115.40938 30.003124Q114.7375 30.378124 114.34688 31.003124L112.69063 30.784374L114.08125 23.425L121.20625 23.425L121.20625 25.1125L115.4875 25.1125L114.72188 28.95625Q116.00313 28.05 117.425 28.05Q119.3 28.05 120.58125 29.3625Q121.87813 30.659374 121.87813 32.690624Q121.87813 34.64375 120.7375 36.05Q119.3625 37.8 116.9875 37.8Q115.03438 37.8 113.78438 36.70625Q112.55 35.6125 112.37813 33.8ZM124.33125 37.55L124.33125 35.55L126.33125 35.55L126.33125 37.55Q126.33125 38.659374 125.94063 39.33125Q125.55 40.01875 124.70625 40.378124L124.20625 39.628124Q124.76875 39.39375 125.03438 38.909374Q125.3 38.440624 125.33125 37.55L124.33125 37.55ZM135.87813 25.253124L135.87813 23.2375L137.64375 23.2375L137.64375 25.253124L135.87813 25.253124ZM135.87813 37.55L135.87813 27.175L137.64375 27.175L137.64375 37.55L135.87813 37.55ZM139.8625 37.55L139.8625 27.175L141.45625 27.175L141.45625 28.659374Q142.59688 26.940624 144.75313 26.940624Q145.69063 26.940624 146.47188 27.284374Q147.26875 27.6125 147.65938 28.159374Q148.05 28.70625 148.20625 29.45625Q148.3 29.95625 148.3 31.175L148.3 37.55L146.53438 37.55L146.53438 31.2375Q146.53438 30.159374 146.33125 29.628124Q146.12813 29.096874 145.59688 28.784374Q145.08125 28.471874 144.37813 28.471874Q143.25313 28.471874 142.44063 29.190624Q141.62813 29.89375 141.62813 31.878124L141.62813 37.55L139.8625 37.55ZM158.78438 37.55L155.6125 27.175L157.425 27.175L159.08125 33.159374L159.69063 35.39375Q159.7375 35.221874 160.22188 33.253124L161.87813 27.175L163.69063 27.175L165.2375 33.190624L165.75313 35.175L166.34688 33.175L168.12813 27.175L169.83125 27.175L166.59688 37.55L164.76875 37.55L163.1125 31.33125L162.72188 29.565624L160.6125 37.55L158.78438 37.55ZM170.8625 37.55L170.8625 23.2375L172.62813 23.2375L172.62813 28.3625Q173.8625 26.940624 175.7375 26.940624Q176.87813 26.940624 177.72188 27.39375Q178.58125 27.846874 178.94063 28.659374Q179.31563 29.45625 179.31563 30.971874L179.31563 37.55L177.56563 37.55L177.56563 30.971874Q177.56563 29.659374 176.9875 29.065624Q176.40938 28.45625 175.37813 28.45625Q174.59688 28.45625 173.89375 28.8625Q173.20625 29.26875 172.90938 29.971874Q172.62813 30.659374 172.62813 31.878124L172.62813 37.55L170.8625 37.55ZM181.87813 25.253124L181.87813 23.2375L183.64375 23.2375L183.64375 25.253124L181.87813 25.253124ZM181.87813 37.55L181.87813 27.175L183.64375 27.175L183.64375 37.55L181.87813 37.55ZM192.64375 33.753124L194.3625 33.971874Q194.08125 35.76875 192.90938 36.784374Q191.75313 37.784374 190.05 37.784374Q187.925 37.784374 186.62813 36.39375Q185.33125 35.003124 185.33125 32.409374Q185.33125 30.721874 185.87813 29.471874Q186.44063 28.20625 187.58125 27.58125Q188.72188 26.940624 190.06563 26.940624Q191.75313 26.940624 192.81563 27.8Q193.89375 28.659374 194.20625 30.221874L192.4875 30.4875Q192.25313 29.440624 191.62813 28.925Q191.00313 28.39375 190.12813 28.39375Q188.8 28.39375 187.97188 29.346874Q187.14375 30.3 187.14375 32.346874Q187.14375 34.440624 187.94063 35.39375Q188.7375 36.33125 190.03438 36.33125Q191.06563 36.33125 191.75313 35.70625Q192.45625 35.065624 192.64375 33.753124ZM195.8625 37.55L195.8625 23.2375L197.62813 23.2375L197.62813 28.3625Q198.8625 26.940624 200.7375 26.940624Q201.87813 26.940624 202.72188 27.39375Q203.58125 27.846874 203.94063 28.659374Q204.31563 29.45625 204.31563 30.971874L204.31563 37.55L202.56563 37.55L202.56563 30.971874Q202.56563 29.659374 201.9875 29.065624Q201.40938 28.45625 200.37813 28.45625Q199.59688 28.45625 198.89375 28.8625Q198.20625 29.26875 197.90938 29.971874Q197.62813 30.659374 197.62813 31.878124L197.62813 37.55L195.8625 37.55ZM219.00313 37.55L217.2375 37.55L217.2375 26.346874Q216.6125 26.95625 215.58125 27.565624Q214.55 28.159374 213.72188 28.471874L213.72188 26.76875Q215.20625 26.08125 216.3 25.096874Q217.40938 24.096874 217.8625 23.175L219.00313 23.175L219.00313 37.55ZM236.97188 34.20625L238.78438 34.440624Q238.3625 36.01875 237.19063 36.909374Q236.03438 37.784374 234.22188 37.784374Q231.95625 37.784374 230.6125 36.39375Q229.28438 34.9875 229.28438 32.45625Q229.28438 29.83125 230.62813 28.39375Q231.97188 26.940624 234.12813 26.940624Q236.20625 26.940624 237.51875 28.3625Q238.84688 29.76875 238.84688 32.346874Q238.84688 32.503124 238.83125 32.815624L231.09688 32.815624Q231.19063 34.51875 232.06563 35.425Q232.94063 36.33125 234.2375 36.33125Q235.20625 36.33125 235.87813 35.83125Q236.56563 35.315624 236.97188 34.20625ZM231.19063 31.3625L236.9875 31.3625Q236.87813 30.065624 236.33125 29.409374Q235.4875 28.39375 234.14375 28.39375Q232.94063 28.39375 232.1125 29.20625Q231.28438 30.003124 231.19063 31.3625ZM239.69063 37.55L243.4875 32.159374L239.9875 27.175L242.175 27.175L243.76875 29.6125Q244.22188 30.3 244.4875 30.76875Q244.925 30.128124 245.28438 29.628124L247.03438 27.175L249.12813 27.175L245.55 32.065624L249.40938 37.55L247.25313 37.55L245.1125 34.33125L244.55 33.45625L241.83125 37.55L239.69063 37.55ZM250.8625 41.51875L250.8625 27.175L252.47188 27.175L252.47188 28.51875Q253.03438 27.7375 253.7375 27.346874Q254.45625 26.940624 255.47188 26.940624Q256.8 26.940624 257.8156 27.628124Q258.83124 28.315624 259.34686 29.565624Q259.8781 30.8 259.8781 32.284374Q259.8781 33.878124 259.3 35.159374Q258.7375 36.425 257.64374 37.1125Q256.55 37.784374 255.34688 37.784374Q254.47188 37.784374 253.76875 37.409374Q253.08125 37.034374 252.62813 36.471874L252.62813 41.51875L250.8625 41.51875ZM252.45625 32.425Q252.45625 34.425 253.26875 35.378124Q254.08125 36.33125 255.2375 36.33125Q256.40936 36.33125 257.2375 35.346874Q258.08124 34.3625 258.08124 32.26875Q258.08124 30.3 257.2531 29.315624Q256.4406 28.315624 255.31563 28.315624Q254.19063 28.315624 253.31563 29.378124Q252.45625 30.425 252.45625 32.425ZM261.84686 37.55L261.84686 27.175L263.425 27.175L263.425 28.753124Q264.03436 27.64375 264.55 27.3Q265.0656 26.940624 265.675 26.940624Q266.5656 26.940624 267.4875 27.503124L266.8781 29.14375Q266.2375 28.753124 265.59686 28.753124Q265.01874 28.753124 264.55 29.1125Q264.09686 29.45625 263.89374 30.065624Q263.6125 31.003124 263.6125 32.1125L263.6125 37.55L261.84686 37.55ZM275.97186 34.20625L277.78436 34.440624Q277.3625 36.01875 276.1906 36.909374Q275.03436 37.784374 273.22186 37.784374Q270.95624 37.784374 269.6125 36.39375Q268.28436 34.9875 268.28436 32.45625Q268.28436 29.83125 269.6281 28.39375Q270.97186 26.940624 273.1281 26.940624Q275.20624 26.940624 276.51874 28.3625Q277.84686 29.76875 277.84686 32.346874Q277.84686 32.503124 277.83124 32.815624L270.09686 32.815624Q270.1906 34.51875 271.0656 35.425Q271.9406 36.33125 273.2375 36.33125Q274.20624 36.33125 274.8781 35.83125Q275.5656 35.315624 275.97186 34.20625ZM270.1906 31.3625L275.9875 31.3625Q275.8781 30.065624 275.33124 29.409374Q274.4875 28.39375 273.14374 28.39375Q271.9406 28.39375 271.1125 29.20625Q270.28436 30.003124 270.1906 31.3625ZM279.15936 34.45625L280.90936 34.175Q281.05 35.221874 281.72186 35.784374Q282.39374 36.33125 283.59686 36.33125Q284.8 36.33125 285.3781 35.846874Q285.97186 35.346874 285.97186 34.690624Q285.97186 34.096874 285.45624 33.753124Q285.09686 33.51875 283.65936 33.159374Q281.72186 32.659374 280.97186 32.315624Q280.2375 31.95625 279.84686 31.33125Q279.45624 30.690624 279.45624 29.925Q279.45624 29.2375 279.76874 28.64375Q280.09686 28.05 280.64374 27.659374Q281.05 27.3625 281.7531 27.159374Q282.47186 26.940624 283.28436 26.940624Q284.5031 26.940624 285.425 27.3Q286.34686 27.64375 286.78436 28.253124Q287.22186 28.846874 287.39374 29.846874L285.675 30.08125Q285.55 29.284374 284.9875 28.846874Q284.425 28.39375 283.40936 28.39375Q282.1906 28.39375 281.675 28.8Q281.15936 29.190624 281.15936 29.721874Q281.15936 30.065624 281.3781 30.346874Q281.58124 30.628124 282.05 30.815624Q282.3156 30.909374 283.59686 31.253124Q285.47186 31.753124 286.20624 32.08125Q286.9406 32.39375 287.3625 33.003124Q287.78436 33.596874 287.78436 34.503124Q287.78436 35.378124 287.26874 36.159374Q286.7531 36.940624 285.78436 37.3625Q284.8156 37.784374 283.59686 37.784374Q281.58124 37.784374 280.51874 36.940624Q279.45624 36.096874 279.15936 34.45625ZM289.15936 34.45625L290.90936 34.175Q291.05 35.221874 291.72186 35.784374Q292.39374 36.33125 293.59686 36.33125Q294.8 36.33125 295.3781 35.846874Q295.97186 35.346874 295.97186 34.690624Q295.97186 34.096874 295.45624 33.753124Q295.09686 33.51875 293.65936 33.159374Q291.72186 32.659374 290.97186 32.315624Q290.2375 31.95625 289.84686 31.33125Q289.45624 30.690624 289.45624 29.925Q289.45624 29.2375 289.76874 28.64375Q290.09686 28.05 290.64374 27.659374Q291.05 27.3625 291.7531 27.159374Q292.47186 26.940624 293.28436 26.940624Q294.5031 26.940624 295.425 27.3Q296.34686 27.64375 296.78436 28.253124Q297.22186 28.846874 297.39374 29.846874L295.675 30.08125Q295.55 29.284374 294.9875 28.846874Q294.425 28.39375 293.40936 28.39375Q292.1906 28.39375 291.675 28.8Q291.15936 29.190624 291.15936 29.721874Q291.15936 30.065624 291.3781 30.346874Q291.58124 30.628124 292.05 30.815624Q292.3156 30.909374 293.59686 31.253124Q295.47186 31.753124 296.20624 32.08125Q296.9406 32.39375 297.3625 33.003124Q297.78436 33.596874 297.78436 34.503124Q297.78436 35.378124 297.26874 36.159374Q296.7531 36.940624 295.78436 37.3625Q294.8156 37.784374 293.59686 37.784374Q291.58124 37.784374 290.51874 36.940624Q289.45624 36.096874 289.15936 34.45625ZM309.70624 35.971874L309.95624 37.534374Q309.22186 37.690624 308.6281 37.690624Q307.675 37.690624 307.14374 37.39375Q306.6281 37.08125 306.40936 36.596874Q306.1906 36.096874 306.1906 34.51875L306.1906 28.55L304.90936 28.55L304.90936 27.175L306.1906 27.175L306.1906 24.6125L307.9406 23.55L307.9406 27.175L309.70624 27.175L309.70624 28.55L307.9406 28.55L307.9406 34.6125Q307.9406 35.3625 308.03436 35.58125Q308.1281 35.784374 308.33124 35.925Q308.55 36.05 308.9406 36.05Q309.22186 36.05 309.70624 35.971874ZM311.8625 37.55L311.8625 23.2375L313.6281 23.2375L313.6281 28.3625Q314.8625 26.940624 316.7375 26.940624Q317.8781 26.940624 318.72186 27.39375Q319.58124 27.846874 319.9406 28.659374Q320.3156 29.45625 320.3156 30.971874L320.3156 37.55L318.5656 37.55L318.5656 30.971874Q318.5656 29.659374 317.9875 29.065624Q317.40936 28.45625 316.3781 28.45625Q315.59686 28.45625 314.89374 28.8625Q314.20624 29.26875 313.90936 29.971874Q313.6281 30.659374 313.6281 31.878124L313.6281 37.55L311.8625 37.55ZM329.97186 34.20625L331.78436 34.440624Q331.3625 36.01875 330.1906 36.909374Q329.03436 37.784374 327.22186 37.784374Q324.95624 37.784374 323.6125 36.39375Q322.28436 34.9875 322.28436 32.45625Q322.28436 29.83125 323.6281 28.39375Q324.97186 26.940624 327.1281 26.940624Q329.20624 26.940624 330.51874 28.3625Q331.84686 29.76875 331.84686 32.346874Q331.84686 32.503124 331.83124 32.815624L324.09686 32.815624Q324.1906 34.51875 325.0656 35.425Q325.9406 36.33125 327.2375 36.33125Q328.20624 36.33125 328.8781 35.83125Q329.5656 35.315624 329.97186 34.20625ZM324.1906 31.3625L329.9875 31.3625Q329.8781 30.065624 329.33124 29.409374Q328.4875 28.39375 327.14374 28.39375Q325.9406 28.39375 325.1125 29.20625Q324.28436 30.003124 324.1906 31.3625ZM339.8625 37.55L339.8625 27.175L341.4406 27.175L341.4406 28.628124Q341.925 27.878124 342.7375 27.409374Q343.55 26.940624 344.58124 26.940624Q345.7375 26.940624 346.47186 27.425Q347.20624 27.89375 347.51874 28.753124Q348.7531 26.940624 350.72186 26.940624Q352.26874 26.940624 353.09686 27.8Q353.925 28.659374 353.925 30.425L353.925 37.55L352.175 37.55L352.175 31.01875Q352.175 29.95625 352.0031 29.503124Q351.83124 29.034374 351.3781 28.753124Q350.9406 28.471874 350.33124 28.471874Q349.2375 28.471874 348.5031 29.20625Q347.78436 29.925 347.78436 31.51875L347.78436 37.55L346.03436 37.55L346.03436 30.815624Q346.03436 29.64375 345.59686 29.065624Q345.175 28.471874 344.1906 28.471874Q343.45624 28.471874 342.8156 28.8625Q342.1906 29.253124 341.90936 30.003124Q341.6281 30.753124 341.6281 32.175L341.6281 37.55L339.8625 37.55ZM356.8781 25.253124L356.8781 23.2375L358.64374 23.2375L358.64374 25.253124L356.8781 25.253124ZM356.8781 37.55L356.8781 27.175L358.64374 27.175L358.64374 37.55L356.8781 37.55ZM360.8625 37.55L360.8625 27.175L362.45624 27.175L362.45624 28.659374Q363.59686 26.940624 365.7531 26.940624Q366.6906 26.940624 367.47186 27.284374Q368.26874 27.6125 368.65936 28.159374Q369.05 28.70625 369.20624 29.45625Q369.3 29.95625 369.3 31.175L369.3 37.55L367.53436 37.55L367.53436 31.2375Q367.53436 30.159374 367.33124 29.628124Q367.1281 29.096874 366.59686 28.784374Q366.08124 28.471874 365.3781 28.471874Q364.2531 28.471874 363.4406 29.190624Q362.6281 29.89375 362.6281 31.878124L362.6281 37.55L360.8625 37.55ZM371.8781 25.253124L371.8781 23.2375L373.64374 23.2375L373.64374 25.253124L371.8781 25.253124ZM371.8781 37.55L371.8781 27.175L373.64374 27.175L373.64374 37.55L371.8781 37.55ZM375.8625 37.55L375.8625 27.175L377.4406 27.175L377.4406 28.628124Q377.925 27.878124 378.7375 27.409374Q379.55 26.940624 380.58124 26.940624Q381.7375 26.940624 382.47186 27.425Q383.20624 27.89375 383.51874 28.753124Q384.7531 26.940624 386.72186 26.940624Q388.26874 26.940624 389.09686 27.8Q389.925 28.659374 389.925 30.425L389.925 37.55L388.175 37.55L388.175 31.01875Q388.175 29.95625 388.0031 29.503124Q387.83124 29.034374 387.3781 28.753124Q386.9406 28.471874 386.33124 28.471874Q385.2375 28.471874 384.5031 29.20625Q383.78436 29.925 383.78436 31.51875L383.78436 37.55L382.03436 37.55L382.03436 30.815624Q382.03436 29.64375 381.59686 29.065624Q381.175 28.471874 380.1906 28.471874Q379.45624 28.471874 378.8156 28.8625Q378.1906 29.253124 377.90936 30.003124Q377.6281 30.753124 377.6281 32.175L377.6281 37.55L375.8625 37.55ZM399.65936 37.55L399.65936 36.01875Q398.45624 37.784374 396.3781 37.784374Q395.45624 37.784374 394.65936 37.440624Q393.8625 37.08125 393.47186 36.55Q393.09686 36.01875 392.9406 35.2375Q392.83124 34.721874 392.83124 33.596874L392.83124 27.175L394.58124 27.175L394.58124 32.925Q394.58124 34.3 394.6906 34.784374Q394.8625 35.471874 395.39374 35.878124Q395.9406 36.26875 396.72186 36.26875Q397.51874 36.26875 398.20624 35.8625Q398.90936 35.45625 399.1906 34.76875Q399.4875 34.065624 399.4875 32.7375L399.4875 27.175L401.2375 27.175L401.2375 37.55L399.65936 37.55ZM403.8625 37.55L403.8625 27.175L405.4406 27.175L405.4406 28.628124Q405.925 27.878124 406.7375 27.409374Q407.55 26.940624 408.58124 26.940624Q409.7375 26.940624 410.47186 27.425Q411.20624 27.89375 411.51874 28.753124Q412.7531 26.940624 414.72186 26.940624Q416.26874 26.940624 417.09686 27.8Q417.925 28.659374 417.925 30.425L417.925 37.55L416.175 37.55L416.175 31.01875Q416.175 29.95625 416.0031 29.503124Q415.83124 29.034374 415.3781 28.753124Q414.9406 28.471874 414.33124 28.471874Q413.2375 28.471874 412.5031 29.20625Q411.78436 29.925 411.78436 31.51875L411.78436 37.55L410.03436 37.55L410.03436 30.815624Q410.03436 29.64375 409.59686 29.065624Q409.175 28.471874 408.1906 28.471874Q407.45624 28.471874 406.8156 28.8625Q406.1906 29.253124 405.90936 30.003124Q405.6281 30.753124 405.6281 32.175L405.6281 37.55L403.8625 37.55ZM433.64374 36.26875Q432.65936 37.096874 431.7531 37.440624Q430.84686 37.784374 429.8156 37.784374Q428.1125 37.784374 427.1906 36.95625Q426.26874 36.1125 426.26874 34.815624Q426.26874 34.05 426.6125 33.425Q426.97186 32.8 427.53436 32.425Q428.09686 32.034374 428.8 31.83125Q429.3156 31.70625 430.3625 31.565624Q432.4875 31.315624 433.4875 30.971874Q433.5031 30.6125 433.5031 30.503124Q433.5031 29.440624 433.0031 28.9875Q432.33124 28.39375 431.0031 28.39375Q429.7531 28.39375 429.15936 28.83125Q428.58124 29.26875 428.3 30.378124L426.58124 30.14375Q426.8156 29.034374 427.34686 28.3625Q427.8781 27.675 428.89374 27.315624Q429.90936 26.940624 431.2531 26.940624Q432.58124 26.940624 433.40936 27.253124Q434.2375 27.565624 434.6281 28.05Q435.01874 28.51875 435.175 29.2375Q435.26874 29.690624 435.26874 30.8625L435.26874 33.20625Q435.26874 35.659374 435.3781 36.315624Q435.4875 36.95625 435.83124 37.55L433.9875 37.55Q433.72186 37.003124 433.64374 36.26875ZM433.4875 32.346874Q432.53436 32.7375 430.6125 33.003124Q429.53436 33.159374 429.08124 33.3625Q428.64374 33.55 428.39374 33.925Q428.14374 34.3 428.14374 34.76875Q428.14374 35.471874 428.675 35.940624Q429.20624 36.409374 430.2375 36.409374Q431.2531 36.409374 432.03436 35.971874Q432.83124 35.51875 433.20624 34.753124Q433.4875 34.14375 433.4875 32.9875L433.4875 32.346874ZM437.8625 41.51875L437.8625 27.175L439.47186 27.175L439.47186 28.51875Q440.03436 27.7375 440.7375 27.346874Q441.45624 26.940624 442.47186 26.940624Q443.8 26.940624 444.8156 27.628124Q445.83124 28.315624 446.34686 29.565624Q446.8781 30.8 446.8781 32.284374Q446.8781 33.878124 446.3 35.159374Q445.7375 36.425 444.64374 37.1125Q443.55 37.784374 442.34686 37.784374Q441.47186 37.784374 440.76874 37.409374Q440.08124 37.034374 439.6281 36.471874L439.6281 41.51875L437.8625 41.51875ZM439.45624 32.425Q439.45624 34.425 440.26874 35.378124Q441.08124 36.33125 442.2375 36.33125Q443.40936 36.33125 444.2375 35.346874Q445.08124 34.3625 445.08124 32.26875Q445.08124 30.3 444.2531 29.315624Q443.4406 28.315624 442.3156 28.315624Q441.1906 28.315624 440.3156 29.378124Q439.45624 30.425 439.45624 32.425ZM448.8625 41.51875L448.8625 27.175L450.47186 27.175L450.47186 28.51875Q451.03436 27.7375 451.7375 27.346874Q452.45624 26.940624 453.47186 26.940624Q454.8 26.940624 455.8156 27.628124Q456.83124 28.315624 457.34686 29.565624Q457.8781 30.8 457.8781 32.284374Q457.8781 33.878124 457.3 35.159374Q456.7375 36.425 455.64374 37.1125Q454.55 37.784374 453.34686 37.784374Q452.47186 37.784374 451.76874 37.409374Q451.08124 37.034374 450.6281 36.471874L450.6281 41.51875L448.8625 41.51875ZM450.45624 32.425Q450.45624 34.425 451.26874 35.378124Q452.08124 36.33125 453.2375 36.33125Q454.40936 36.33125 455.2375 35.346874Q456.08124 34.3625 456.08124 32.26875Q456.08124 30.3 455.2531 29.315624Q454.4406 28.315624 453.3156 28.315624Q452.1906 28.315624 451.3156 29.378124Q450.45624 30.425 450.45624 32.425ZM459.84686 37.55L459.84686 27.175L461.425 27.175L461.425 28.753124Q462.03436 27.64375 462.55 27.3Q463.0656 26.940624 463.675 26.940624Q464.5656 26.940624 465.4875 27.503124L464.8781 29.14375Q464.2375 28.753124 463.59686 28.753124Q463.01874 28.753124 462.55 29.1125Q462.09686 29.45625 461.89374 30.065624Q461.6125 31.003124 461.6125 32.1125L461.6125 37.55L459.84686 37.55ZM466.22186 32.3625Q466.22186 29.4875 467.8156 28.096874Q469.15936 26.940624 471.08124 26.940624Q473.22186 26.940624 474.5656 28.346874Q475.925 29.753124 475.925 32.221874Q475.925 34.221874 475.33124 35.378124Q474.7375 36.51875 473.58124 37.159374Q472.4406 37.784374 471.08124 37.784374Q468.89374 37.784374 467.55 36.39375Q466.22186 34.9875 466.22186 32.3625ZM468.01874 32.3625Q468.01874 34.3625 468.8781 35.346874Q469.7531 36.33125 471.08124 36.33125Q472.39374 36.33125 473.2531 35.346874Q474.1281 34.346874 474.1281 32.3Q474.1281 30.378124 473.2531 29.39375Q472.3781 28.39375 471.08124 28.39375Q469.7531 28.39375 468.8781 29.39375Q468.01874 30.378124 468.01874 32.3625ZM480.7531 37.55L476.8 27.175L478.65936 27.175L480.89374 33.39375Q481.2531 34.39375 481.55 35.471874Q481.78436 34.659374 482.20624 33.503124L484.5031 27.175L486.3156 27.175L482.39374 37.55L480.7531 37.55ZM494.64374 36.26875Q493.65936 37.096874 492.7531 37.440624Q491.84686 37.784374 490.8156 37.784374Q489.1125 37.784374 488.1906 36.95625Q487.26874 36.1125 487.26874 34.815624Q487.26874 34.05 487.6125 33.425Q487.97186 32.8 488.53436 32.425Q489.09686 32.034374 489.8 31.83125Q490.3156 31.70625 491.3625 31.565624Q493.4875 31.315624 494.4875 30.971874Q494.5031 30.6125 494.5031 30.503124Q494.5031 29.440624 494.0031 28.9875Q493.33124 28.39375 492.0031 28.39375Q490.7531 28.39375 490.15936 28.83125Q489.58124 29.26875 489.3 30.378124L487.58124 30.14375Q487.8156 29.034374 488.34686 28.3625Q488.8781 27.675 489.89374 27.315624Q490.90936 26.940624 492.2531 26.940624Q493.58124 26.940624 494.40936 27.253124Q495.2375 27.565624 495.6281 28.05Q496.01874 28.51875 496.175 29.2375Q496.26874 29.690624 496.26874 30.8625L496.26874 33.20625Q496.26874 35.659374 496.3781 36.315624Q496.4875 36.95625 496.83124 37.55L494.9875 37.55Q494.72186 37.003124 494.64374 36.26875ZM494.4875 32.346874Q493.53436 32.7375 491.6125 33.003124Q490.53436 33.159374 490.08124 33.3625Q489.64374 33.55 489.39374 33.925Q489.14374 34.3 489.14374 34.76875Q489.14374 35.471874 489.675 35.940624Q490.20624 36.409374 491.2375 36.409374Q492.2531 36.409374 493.03436 35.971874Q493.83124 35.51875 494.20624 34.753124Q494.4875 34.14375 494.4875 32.9875L494.4875 32.346874ZM498.83124 37.55L498.83124 23.2375L500.58124 23.2375L500.58124 37.55L498.83124 37.55ZM515.64374 36.26875Q514.65936 37.096874 513.7531 37.440624Q512.84686 37.784374 511.8156 37.784374Q510.1125 37.784374 509.1906 36.95625Q508.26874 36.1125 508.26874 34.815624Q508.26874 34.05 508.6125 33.425Q508.97186 32.8 509.53436 32.425Q510.09686 32.034374 510.8 31.83125Q511.3156 31.70625 512.3625 31.565624Q514.4875 31.315624 515.4875 30.971874Q515.5031 30.6125 515.5031 30.503124Q515.5031 29.440624 515.0031 28.9875Q514.33124 28.39375 513.0031 28.39375Q511.7531 28.39375 511.15936 28.83125Q510.58124 29.26875 510.3 30.378124L508.58124 30.14375Q508.8156 29.034374 509.34686 28.3625Q509.8781 27.675 510.89374 27.315624Q511.90936 26.940624 513.2531 26.940624Q514.58124 26.940624 515.40936 27.253124Q516.2375 27.565624 516.6281 28.05Q517.01874 28.51875 517.175 29.2375Q517.26874 29.690624 517.26874 30.8625L517.26874 33.20625Q517.26874 35.659374 517.3781 36.315624Q517.4875 36.95625 517.83124 37.55L515.9875 37.55Q515.72186 37.003124 515.64374 36.26875ZM515.4875 32.346874Q514.53436 32.7375 512.6125 33.003124Q511.53436 33.159374 511.08124 33.3625Q510.64374 33.55 510.39374 33.925Q510.14374 34.3 510.14374 34.76875Q510.14374 35.471874 510.675 35.940624Q511.20624 36.409374 512.2375 36.409374Q513.2531 36.409374 514.03436 35.971874Q514.83124 35.51875 515.20624 34.753124Q515.4875 34.14375 515.4875 32.9875L515.4875 32.346874ZM519.8625 37.55L519.8625 27.175L521.45624 27.175L521.45624 28.659374Q522.59686 26.940624 524.7531 26.940624Q525.6906 26.940624 526.47186 27.284374Q527.26874 27.6125 527.65936 28.159374Q528.05 28.70625 528.20624 29.45625Q528.3 29.95625 528.3 31.175L528.3 37.55L526.53436 37.55L526.53436 31.2375Q526.53436 30.159374 526.33124 29.628124Q526.1281 29.096874 525.59686 28.784374Q525.08124 28.471874 524.3781 28.471874Q523.2531 28.471874 522.4406 29.190624Q521.6281 29.89375 521.6281 31.878124L521.6281 37.55L519.8625 37.55ZM537.59686 37.55L537.59686 36.2375Q536.6125 37.784374 534.6906 37.784374Q533.45624 37.784374 532.40936 37.096874Q531.3781 36.409374 530.8 35.190624Q530.2375 33.971874 530.2375 32.378124Q530.2375 30.815624 530.7531 29.55Q531.26874 28.284374 532.3 27.6125Q533.34686 26.940624 534.6125 26.940624Q535.55 26.940624 536.28436 27.346874Q537.01874 27.7375 537.4875 28.3625L537.4875 23.2375L539.22186 23.2375L539.22186 37.55L537.59686 37.55ZM532.03436 32.378124Q532.03436 34.3625 532.8781 35.346874Q533.72186 36.33125 534.8625 36.33125Q536.01874 36.33125 536.8156 35.39375Q537.6281 34.45625 537.6281 32.51875Q537.6281 30.39375 536.8 29.39375Q535.9875 28.39375 534.78436 28.39375Q533.6125 28.39375 532.8156 29.3625Q532.03436 30.315624 532.03436 32.378124ZM547.3781 33.8L549.22186 33.64375Q549.425 34.9875 550.175 35.675Q550.925 36.346874 551.9875 36.346874Q553.2531 36.346874 554.1281 35.39375Q555.0031 34.440624 555.0031 32.846874Q555.0031 31.346874 554.15936 30.4875Q553.3156 29.6125 551.95624 29.6125Q551.09686 29.6125 550.40936 30.003124Q549.7375 30.378124 549.34686 31.003124L547.6906 30.784374L549.08124 23.425L556.20624 23.425L556.20624 25.1125L550.4875 25.1125L549.72186 28.95625Q551.0031 28.05 552.425 28.05Q554.3 28.05 555.58124 29.3625Q556.8781 30.659374 556.8781 32.690624Q556.8781 34.64375 555.7375 36.05Q554.3625 37.8 551.9875 37.8Q550.03436 37.8 548.78436 36.70625Q547.55 35.6125 547.3781 33.8Z" fill-rule="nonzero"/><path fill="#757575" d="M23.70625 59.971874L23.95625 61.534374Q23.221874 61.690624 22.628124 61.690624Q21.675 61.690624 21.14375 61.39375Q20.628124 61.08125 20.409374 60.596874Q20.190624 60.096874 20.190624 58.51875L20.190624 52.55L18.909374 52.55L18.909374 51.175L20.190624 51.175L20.190624 48.6125L21.940624 47.55L21.940624 51.175L23.70625 51.175L23.70625 52.55L21.940624 52.55L21.940624 58.6125Q21.940624 59.3625 22.034374 59.58125Q22.128124 59.784374 22.33125 59.925Q22.55 60.05 22.940624 60.05Q23.221874 60.05 23.70625 59.971874ZM25.8625 61.55L25.8625 47.2375L27.628124 47.2375L27.628124 52.3625Q28.8625 50.940624 30.7375 50.940624Q31.878124 50.940624 32.721874 51.39375Q33.58125 51.846874 33.940624 52.659374Q34.315624 53.45625 34.315624 54.971874L34.315624 61.55L32.565624 61.55L32.565624 54.971874Q32.565624 53.659374 31.9875 53.065624Q31.409374 52.45625 30.378124 52.45625Q29.596874 52.45625 28.89375 52.8625Q28.20625 53.26875 27.909374 53.971874Q27.628124 54.659374 27.628124 55.878124L27.628124 61.55L25.8625 61.55ZM43.971874 58.20625L45.784374 58.440624Q45.3625 60.01875 44.190624 60.909374Q43.034374 61.784374 41.221874 61.784374Q38.95625 61.784374 37.6125 60.39375Q36.284374 58.9875 36.284374 56.45625Q36.284374 53.83125 37.628124 52.39375Q38.971874 50.940624 41.128124 50.940624Q43.20625 50.940624 44.51875 52.3625Q45.846874 53.76875 45.846874 56.346874Q45.846874 56.503124 45.83125 56.815624L38.096874 56.815624Q38.190624 58.51875 39.065624 59.425Q39.940624 60.33125 41.2375 60.33125Q42.20625 60.33125 42.878124 59.83125Q43.565624 59.315624 43.971874 58.20625ZM38.190624 55.3625L43.9875 55.3625Q43.878124 54.065624 43.33125 53.409374Q42.4875 52.39375 41.14375 52.39375Q39.940624 52.39375 39.1125 53.20625Q38.284374 54.003124 38.190624 55.3625ZM53.8625 61.55L53.8625 51.175L55.440624 51.175L55.440624 52.628124Q55.925 51.878124 56.7375 51.409374Q57.55 50.940624 58.58125 50.940624Q59.7375 50.940624 60.471874 51.425Q61.20625 51.89375 61.51875 52.753124Q62.753124 50.940624 64.72188 50.940624Q66.26875 50.940624 67.09688 51.8Q67.925 52.659374 67.925 54.425L67.925 61.55L66.175 61.55L66.175 55.01875Q66.175 53.95625 66.00313 53.503124Q65.83125 53.034374 65.37813 52.753124Q64.94063 52.471874 64.33125 52.471874Q63.2375 52.471874 62.503124 53.20625Q61.784374 53.925 61.784374 55.51875L61.784374 61.55L60.034374 61.55L60.034374 54.815624Q60.034374 53.64375 59.596874 53.065624Q59.175 52.471874 58.190624 52.471874Q57.45625 52.471874 56.815624 52.8625Q56.190624 53.253124 55.909374 54.003124Q55.628124 54.753124 55.628124 56.175L55.628124 61.55L53.8625 61.55ZM77.64375 60.26875Q76.65938 61.096874 75.75313 61.440624Q74.84688 61.784374 73.81563 61.784374Q72.1125 61.784374 71.19063 60.95625Q70.26875 60.1125 70.26875 58.815624Q70.26875 58.05 70.6125 57.425Q70.97188 56.8 71.53438 56.425Q72.09688 56.034374 72.8 55.83125Q73.31563 55.70625 74.3625 55.565624Q76.4875 55.315624 77.4875 54.971874Q77.50313 54.6125 77.50313 54.503124Q77.50313 53.440624 77.00313 52.9875Q76.33125 52.39375 75.00313 52.39375Q73.75313 52.39375 73.15938 52.83125Q72.58125 53.26875 72.3 54.378124L70.58125 54.14375Q70.81563 53.034374 71.34688 52.3625Q71.87813 51.675 72.89375 51.315624Q73.90938 50.940624 75.25313 50.940624Q76.58125 50.940624 77.40938 51.253124Q78.2375 51.565624 78.62813 52.05Q79.01875 52.51875 79.175 53.2375Q79.26875 53.690624 79.26875 54.8625L79.26875 57.20625Q79.26875 59.659374 79.37813 60.315624Q79.4875 60.95625 79.83125 61.55L77.9875 61.55Q77.72188 61.003124 77.64375 60.26875ZM77.4875 56.346874Q76.53438 56.7375 74.6125 57.003124Q73.53438 57.159374 73.08125 57.3625Q72.64375 57.55 72.39375 57.925Q72.14375 58.3 72.14375 58.76875Q72.14375 59.471874 72.675 59.940624Q73.20625 60.409374 74.2375 60.409374Q75.25313 60.409374 76.03438 59.971874Q76.83125 59.51875 77.20625 58.753124Q77.4875 58.14375 77.4875 56.9875L77.4875 56.346874ZM80.69063 61.55L84.4875 56.159374L80.9875 51.175L83.175 51.175L84.76875 53.6125Q85.22188 54.3 85.4875 54.76875Q85.925 54.128124 86.28438 53.628124L88.03438 51.175L90.12813 51.175L86.55 56.065624L90.40938 61.55L88.25313 61.55L86.1125 58.33125L85.55 57.45625L82.83125 61.55L80.69063 61.55ZM91.87813 49.253124L91.87813 47.2375L93.64375 47.2375L93.64375 49.253124L91.87813 49.253124ZM91.87813 61.55L91.87813 51.175L93.64375 51.175L93.64375 61.55L91.87813 61.55ZM95.8625 61.55L95.8625 51.175L97.44063 51.175L97.44063 52.628124Q97.925 51.878124 98.7375 51.409374Q99.55 50.940624 100.58125 50.940624Q101.7375 50.940624 102.47188 51.425Q103.20625 51.89375 103.51875 52.753124Q104.75313 50.940624 106.72188 50.940624Q108.26875 50.940624 109.09688 51.8Q109.925 52.659374 109.925 54.425L109.925 61.55L108.175 61.55L108.175 55.01875Q108.175 53.95625 108.00313 53.503124Q107.83125 53.034374 107.37813 52.753124Q106.94063 52.471874 106.33125 52.471874Q105.2375 52.471874 104.50313 53.20625Q103.78438 53.925 103.78438 55.51875L103.78438 61.55L102.03438 61.55L102.03438 54.815624Q102.03438 53.64375 101.59688 53.065624Q101.175 52.471874 100.19063 52.471874Q99.45625 52.471874 98.81563 52.8625Q98.19063 53.253124 97.90938 54.003124Q97.62813 54.753124 97.62813 56.175L97.62813 61.55L95.8625 61.55ZM119.65938 61.55L119.65938 60.01875Q118.45625 61.784374 116.37813 61.784374Q115.45625 61.784374 114.65938 61.440624Q113.8625 61.08125 113.47188 60.55Q113.09688 60.01875 112.94063 59.2375Q112.83125 58.721874 112.83125 57.596874L112.83125 51.175L114.58125 51.175L114.58125 56.925Q114.58125 58.3 114.69063 58.784374Q114.8625 59.471874 115.39375 59.878124Q115.94063 60.26875 116.72188 60.26875Q117.51875 60.26875 118.20625 59.8625Q118.90938 59.45625 119.19063 58.76875Q119.4875 58.065624 119.4875 56.7375L119.4875 51.175L121.2375 51.175L121.2375 61.55L119.65938 61.55ZM123.8625 61.55L123.8625 51.175L125.44063 51.175L125.44063 52.628124Q125.925 51.878124 126.7375 51.409374Q127.55 50.940624 128.58125 50.940624Q129.7375 50.940624 130.47188 51.425Q131.20625 51.89375 131.51875 52.753124Q132.75313 50.940624 134.72188 50.940624Q136.26875 50.940624 137.09688 51.8Q137.925 52.659374 137.925 54.425L137.925 61.55L136.175 61.55L136.175 55.01875Q136.175 53.95625 136.00313 53.503124Q135.83125 53.034374 135.37813 52.753124Q134.94063 52.471874 134.33125 52.471874Q133.2375 52.471874 132.50313 53.20625Q131.78438 53.925 131.78438 55.51875L131.78438 61.55L130.03438 61.55L130.03438 54.815624Q130.03438 53.64375 129.59688 53.065624Q129.175 52.471874 128.19063 52.471874Q127.45625 52.471874 126.81563 52.8625Q126.19063 53.253124 125.90938 54.003124Q125.62813 54.753124 125.62813 56.175L125.62813 61.55L123.8625 61.55ZM141.33125 61.55L141.33125 59.55L143.33125 59.55L143.33125 61.55Q143.33125 62.659374 142.94063 63.33125Q142.55 64.01875 141.70625 64.37813L141.20625 63.628124Q141.76875 63.39375 142.03438 62.909374Q142.3 62.440624 142.33125 61.55L141.33125 61.55ZM152.8625 61.55L152.8625 47.2375L154.62813 47.2375L154.62813 52.3625Q155.8625 50.940624 157.7375 50.940624Q158.87813 50.940624 159.72188 51.39375Q160.58125 51.846874 160.94063 52.659374Q161.31563 53.45625 161.31563 54.971874L161.31563 61.55L159.56563 61.55L159.56563 54.971874Q159.56563 53.659374 158.9875 53.065624Q158.40938 52.45625 157.37813 52.45625Q156.59688 52.45625 155.89375 52.8625Q155.20625 53.26875 154.90938 53.971874Q154.62813 54.659374 154.62813 55.878124L154.62813 61.55L152.8625 61.55ZM163.22188 56.3625Q163.22188 53.4875 164.81563 52.096874Q166.15938 50.940624 168.08125 50.940624Q170.22188 50.940624 171.56563 52.346874Q172.925 53.753124 172.925 56.221874Q172.925 58.221874 172.33125 59.378124Q171.7375 60.51875 170.58125 61.159374Q169.44063 61.784374 168.08125 61.784374Q165.89375 61.784374 164.55 60.39375Q163.22188 58.9875 163.22188 56.3625ZM165.01875 56.3625Q165.01875 58.3625 165.87813 59.346874Q166.75313 60.33125 168.08125 60.33125Q169.39375 60.33125 170.25313 59.346874Q171.12813 58.346874 171.12813 56.3Q171.12813 54.378124 170.25313 53.39375Q169.37813 52.39375 168.08125 52.39375Q166.75313 52.39375 165.87813 53.39375Q165.01875 54.378124 165.01875 56.3625ZM176.78438 61.55L173.6125 51.175L175.425 51.175L177.08125 57.159374L177.69063 59.39375Q177.7375 59.221874 178.22188 57.253124L179.87813 51.175L181.69063 51.175L183.2375 57.190624L183.75313 59.175L184.34688 57.175L186.12813 51.175L187.83125 51.175L184.59688 61.55L182.76875 61.55L181.1125 55.33125L180.72188 53.565624L178.6125 61.55L176.78438 61.55ZM194.8625 61.55L194.8625 51.175L196.44063 51.175L196.44063 52.628124Q196.925 51.878124 197.7375 51.409374Q198.55 50.940624 199.58125 50.940624Q200.7375 50.940624 201.47188 51.425Q202.20625 51.89375 202.51875 52.753124Q203.75313 50.940624 205.72188 50.940624Q207.26875 50.940624 208.09688 51.8Q208.925 52.659374 208.925 54.425L208.925 61.55L207.175 61.55L207.175 55.01875Q207.175 53.95625 207.00313 53.503124Q206.83125 53.034374 206.37813 52.753124Q205.94063 52.471874 205.33125 52.471874Q204.2375 52.471874 203.50313 53.20625Q202.78438 53.925 202.78438 55.51875L202.78438 61.55L201.03438 61.55L201.03438 54.815624Q201.03438 53.64375 200.59688 53.065624Q200.175 52.471874 199.19063 52.471874Q198.45625 52.471874 197.81563 52.8625Q197.19063 53.253124 196.90938 54.003124Q196.62813 54.753124 196.62813 56.175L196.62813 61.55L194.8625 61.55ZM218.65938 61.55L218.65938 60.01875Q217.45625 61.784374 215.37813 61.784374Q214.45625 61.784374 213.65938 61.440624Q212.8625 61.08125 212.47188 60.55Q212.09688 60.01875 211.94063 59.2375Q211.83125 58.721874 211.83125 57.596874L211.83125 51.175L213.58125 51.175L213.58125 56.925Q213.58125 58.3 213.69063 58.784374Q213.8625 59.471874 214.39375 59.878124Q214.94063 60.26875 215.72188 60.26875Q216.51875 60.26875 217.20625 59.8625Q217.90938 59.45625 218.19063 58.76875Q218.4875 58.065624 218.4875 56.7375L218.4875 51.175L220.2375 51.175L220.2375 61.55L218.65938 61.55ZM229.64375 57.753124L231.3625 57.971874Q231.08125 59.76875 229.90938 60.784374Q228.75313 61.784374 227.05 61.784374Q224.925 61.784374 223.62813 60.39375Q222.33125 59.003124 222.33125 56.409374Q222.33125 54.721874 222.87813 53.471874Q223.44063 52.20625 224.58125 51.58125Q225.72188 50.940624 227.06563 50.940624Q228.75313 50.940624 229.81563 51.8Q230.89375 52.659374 231.20625 54.221874L229.4875 54.4875Q229.25313 53.440624 228.62813 52.925Q228.00313 52.39375 227.12813 52.39375Q225.8 52.39375 224.97188 53.346874Q224.14375 54.3 224.14375 56.346874Q224.14375 58.440624 224.94063 59.39375Q225.7375 60.33125 227.03438 60.33125Q228.06563 60.33125 228.75313 59.70625Q229.45625 59.065624 229.64375 57.753124ZM232.8625 61.55L232.8625 47.2375L234.62813 47.2375L234.62813 52.3625Q235.8625 50.940624 237.7375 50.940624Q238.87813 50.940624 239.72188 51.39375Q240.58125 51.846874 240.94063 52.659374Q241.31563 53.45625 241.31563 54.971874L241.31563 61.55L239.56563 61.55L239.56563 54.971874Q239.56563 53.659374 238.9875 53.065624Q238.40938 52.45625 237.37813 52.45625Q236.59688 52.45625 235.89375 52.8625Q235.20625 53.26875 234.90938 53.971874Q234.62813 54.659374 234.62813 55.878124L234.62813 61.55L232.8625 61.55ZM251.78438 61.55L248.6125 51.175L250.425 51.175L252.08125 57.159374L252.69063 59.39375Q252.7375 59.221874 253.22188 57.253124L254.87813 51.175L256.6906 51.175L258.2375 57.190624L258.7531 59.175L259.34686 57.175L261.1281 51.175L262.83124 51.175L259.59686 61.55L257.76874 61.55L256.1125 55.33125L255.72188 53.565624L253.6125 61.55L251.78438 61.55ZM263.22186 56.3625Q263.22186 53.4875 264.8156 52.096874Q266.15936 50.940624 268.08124 50.940624Q270.22186 50.940624 271.5656 52.346874Q272.925 53.753124 272.925 56.221874Q272.925 58.221874 272.33124 59.378124Q271.7375 60.51875 270.58124 61.159374Q269.4406 61.784374 268.08124 61.784374Q265.89374 61.784374 264.55 60.39375Q263.22186 58.9875 263.22186 56.3625ZM265.01874 56.3625Q265.01874 58.3625 265.8781 59.346874Q266.7531 60.33125 268.08124 60.33125Q269.39374 60.33125 270.2531 59.346874Q271.1281 58.346874 271.1281 56.3Q271.1281 54.378124 270.2531 53.39375Q269.3781 52.39375 268.08124 52.39375Q266.7531 52.39375 265.8781 53.39375Q265.01874 54.378124 265.01874 56.3625ZM281.65936 61.55L281.65936 60.01875Q280.45624 61.784374 278.3781 61.784374Q277.45624 61.784374 276.65936 61.440624Q275.8625 61.08125 275.47186 60.55Q275.09686 60.01875 274.9406 59.2375Q274.83124 58.721874 274.83124 57.596874L274.83124 51.175L276.58124 51.175L276.58124 56.925Q276.58124 58.3 276.6906 58.784374Q276.8625 59.471874 277.39374 59.878124Q277.9406 60.26875 278.72186 60.26875Q279.51874 60.26875 280.20624 59.8625Q280.90936 59.45625 281.1906 58.76875Q281.4875 58.065624 281.4875 56.7375L281.4875 51.175L283.2375 51.175L283.2375 61.55L281.65936 61.55ZM285.83124 61.55L285.83124 47.2375L287.58124 47.2375L287.58124 61.55L285.83124 61.55ZM296.59686 61.55L296.59686 60.2375Q295.6125 61.784374 293.6906 61.784374Q292.45624 61.784374 291.40936 61.096874Q290.3781 60.409374 289.8 59.190624Q289.2375 57.971874 289.2375 56.378124Q289.2375 54.815624 289.7531 53.55Q290.26874 52.284374 291.3 51.6125Q292.34686 50.940624 293.6125 50.940624Q294.55 50.940624 295.28436 51.346874Q296.01874 51.7375 296.4875 52.3625L296.4875 47.2375L298.22186 47.2375L298.22186 61.55L296.59686 61.55ZM291.03436 56.378124Q291.03436 58.3625 291.8781 59.346874Q292.72186 60.33125 293.8625 60.33125Q295.01874 60.33125 295.8156 59.39375Q296.6281 58.45625 296.6281 56.51875Q296.6281 54.39375 295.8 53.39375Q294.9875 52.39375 293.78436 52.39375Q292.6125 52.39375 291.8156 53.3625Q291.03436 54.315624 291.03436 56.378124ZM306.78436 65.55L306.59686 63.89375Q307.175 64.05 307.59686 64.05Q308.1906 64.05 308.53436 63.846874Q308.89374 63.659374 309.1125 63.315624Q309.28436 63.05 309.65936 62.003124Q309.70624 61.846874 309.8156 61.565624L305.8781 51.175L307.76874 51.175L309.925 57.190624Q310.34686 58.33125 310.675 59.58125Q310.9875 58.378124 311.39374 57.221874L313.6125 51.175L315.3781 51.175L311.425 61.721874Q310.8 63.440624 310.4406 64.08125Q309.97186 64.95625 309.3625 65.34688Q308.76874 65.75313 307.925 65.75313Q307.40936 65.75313 306.78436 65.55ZM316.22186 56.3625Q316.22186 53.4875 317.8156 52.096874Q319.15936 50.940624 321.08124 50.940624Q323.22186 50.940624 324.5656 52.346874Q325.925 53.753124 325.925 56.221874Q325.925 58.221874 325.33124 59.378124Q324.7375 60.51875 323.58124 61.159374Q322.4406 61.784374 321.08124 61.784374Q318.89374 61.784374 317.55 60.39375Q316.22186 58.9875 316.22186 56.3625ZM318.01874 56.3625Q318.01874 58.3625 318.8781 59.346874Q319.7531 60.33125 321.08124 60.33125Q322.39374 60.33125 323.2531 59.346874Q324.1281 58.346874 324.1281 56.3Q324.1281 54.378124 323.2531 53.39375Q322.3781 52.39375 321.08124 52.39375Q319.7531 52.39375 318.8781 53.39375Q318.01874 54.378124 318.01874 56.3625ZM334.65936 61.55L334.65936 60.01875Q333.45624 61.784374 331.3781 61.784374Q330.45624 61.784374 329.65936 61.440624Q328.8625 61.08125 328.47186 60.55Q328.09686 60.01875 327.9406 59.2375Q327.83124 58.721874 327.83124 57.596874L327.83124 51.175L329.58124 51.175L329.58124 56.925Q329.58124 58.3 329.6906 58.784374Q329.8625 59.471874 330.39374 59.878124Q330.9406 60.26875 331.72186 60.26875Q332.51874 60.26875 333.20624 59.8625Q333.90936 59.45625 334.1906 58.76875Q334.4875 58.065624 334.4875 56.7375L334.4875 51.175L336.2375 51.175L336.2375 61.55L334.65936 61.55ZM344.15936 58.45625L345.90936 58.175Q346.05 59.221874 346.72186 59.784374Q347.39374 60.33125 348.59686 60.33125Q349.8 60.33125 350.3781 59.846874Q350.97186 59.346874 350.97186 58.690624Q350.97186 58.096874 350.45624 57.753124Q350.09686 57.51875 348.65936 57.159374Q346.72186 56.659374 345.97186 56.315624Q345.2375 55.95625 344.84686 55.33125Q344.45624 54.690624 344.45624 53.925Q344.45624 53.2375 344.76874 52.64375Q345.09686 52.05 345.64374 51.659374Q346.05 51.3625 346.7531 51.159374Q347.47186 50.940624 348.28436 50.940624Q349.5031 50.940624 350.425 51.3Q351.34686 51.64375 351.78436 52.253124Q352.22186 52.846874 352.39374 53.846874L350.675 54.08125Q350.55 53.284374 349.9875 52.846874Q349.425 52.39375 348.40936 52.39375Q347.1906 52.39375 346.675 52.8Q346.15936 53.190624 346.15936 53.721874Q346.15936 54.065624 346.3781 54.346874Q346.58124 54.628124 347.05 54.815624Q347.3156 54.909374 348.59686 55.253124Q350.47186 55.753124 351.20624 56.08125Q351.9406 56.39375 352.3625 57.003124Q352.78436 57.596874 352.78436 58.503124Q352.78436 59.378124 352.26874 60.159374Q351.7531 60.940624 350.78436 61.3625Q349.8156 61.784374 348.59686 61.784374Q346.58124 61.784374 345.51874 60.940624Q344.45624 60.096874 344.15936 58.45625ZM361.64374 57.753124L363.3625 57.971874Q363.08124 59.76875 361.90936 60.784374Q360.7531 61.784374 359.05 61.784374Q356.925 61.784374 355.6281 60.39375Q354.33124 59.003124 354.33124 56.409374Q354.33124 54.721874 354.8781 53.471874Q355.4406 52.20625 356.58124 51.58125Q357.72186 50.940624 359.0656 50.940624Q360.7531 50.940624 361.8156 51.8Q362.89374 52.659374 363.20624 54.221874L361.4875 54.4875Q361.2531 53.440624 360.6281 52.925Q360.0031 52.39375 359.1281 52.39375Q357.8 52.39375 356.97186 53.346874Q356.14374 54.3 356.14374 56.346874Q356.14374 58.440624 356.9406 59.39375Q357.7375 60.33125 359.03436 60.33125Q360.0656 60.33125 360.7531 59.70625Q361.45624 59.065624 361.64374 57.753124ZM364.22186 56.3625Q364.22186 53.4875 365.8156 52.096874Q367.15936 50.940624 369.08124 50.940624Q371.22186 50.940624 372.5656 52.346874Q373.925 53.753124 373.925 56.221874Q373.925 58.221874 373.33124 59.378124Q372.7375 60.51875 371.58124 61.159374Q370.4406 61.784374 369.08124 61.784374Q366.89374 61.784374 365.55 60.39375Q364.22186 58.9875 364.22186 56.3625ZM366.01874 56.3625Q366.01874 58.3625 366.8781 59.346874Q367.7531 60.33125 369.08124 60.33125Q370.39374 60.33125 371.2531 59.346874Q372.1281 58.346874 372.1281 56.3Q372.1281 54.378124 371.2531 53.39375Q370.3781 52.39375 369.08124 52.39375Q367.7531 52.39375 366.8781 53.39375Q366.01874 54.378124 366.01874 56.3625ZM375.84686 61.55L375.84686 51.175L377.425 51.175L377.425 52.753124Q378.03436 51.64375 378.55 51.3Q379.0656 50.940624 379.675 50.940624Q380.5656 50.940624 381.4875 51.503124L380.8781 53.14375Q380.2375 52.753124 379.59686 52.753124Q379.01874 52.753124 378.55 53.1125Q378.09686 53.45625 377.89374 54.065624Q377.6125 55.003124 377.6125 56.1125L377.6125 61.55L375.84686 61.55ZM389.97186 58.20625L391.78436 58.440624Q391.3625 60.01875 390.1906 60.909374Q389.03436 61.784374 387.22186 61.784374Q384.95624 61.784374 383.6125 60.39375Q382.28436 58.9875 382.28436 56.45625Q382.28436 53.83125 383.6281 52.39375Q384.97186 50.940624 387.1281 50.940624Q389.20624 50.940624 390.51874 52.3625Q391.84686 53.76875 391.84686 56.346874Q391.84686 56.503124 391.83124 56.815624L384.09686 56.815624Q384.1906 58.51875 385.0656 59.425Q385.9406 60.33125 387.2375 60.33125Q388.20624 60.33125 388.8781 59.83125Q389.5656 59.315624 389.97186 58.20625ZM384.1906 55.3625L389.9875 55.3625Q389.8781 54.065624 389.33124 53.409374Q388.4875 52.39375 387.14374 52.39375Q385.9406 52.39375 385.1125 53.20625Q384.28436 54.003124 384.1906 55.3625ZM399.22186 56.3625Q399.22186 53.4875 400.8156 52.096874Q402.15936 50.940624 404.08124 50.940624Q406.22186 50.940624 407.5656 52.346874Q408.925 53.753124 408.925 56.221874Q408.925 58.221874 408.33124 59.378124Q407.7375 60.51875 406.58124 61.159374Q405.4406 61.784374 404.08124 61.784374Q401.89374 61.784374 400.55 60.39375Q399.22186 58.9875 399.22186 56.3625ZM401.01874 56.3625Q401.01874 58.3625 401.8781 59.346874Q402.7531 60.33125 404.08124 60.33125Q405.39374 60.33125 406.2531 59.346874Q407.1281 58.346874 407.1281 56.3Q407.1281 54.378124 406.2531 53.39375Q405.3781 52.39375 404.08124 52.39375Q402.7531 52.39375 401.8781 53.39375Q401.01874 54.378124 401.01874 56.3625ZM417.65936 61.55L417.65936 60.01875Q416.45624 61.784374 414.3781 61.784374Q413.45624 61.784374 412.65936 61.440624Q411.8625 61.08125 411.47186 60.55Q411.09686 60.01875 410.9406 59.2375Q410.83124 58.721874 410.83124 57.596874L410.83124 51.175L412.58124 51.175L412.58124 56.925Q412.58124 58.3 412.6906 58.784374Q412.8625 59.471874 413.39374 59.878124Q413.9406 60.26875 414.72186 60.26875Q415.51874 60.26875 416.20624 59.8625Q416.90936 59.45625 417.1906 58.76875Q417.4875 58.065624 417.4875 56.7375L417.4875 51.175L419.2375 51.175L419.2375 61.55L417.65936 61.55ZM421.84686 61.55L421.84686 51.175L423.425 51.175L423.425 52.753124Q424.03436 51.64375 424.55 51.3Q425.0656 50.940624 425.675 50.940624Q426.5656 50.940624 427.4875 51.503124L426.8781 53.14375Q426.2375 52.753124 425.59686 52.753124Q425.01874 52.753124 424.55 53.1125Q424.09686 53.45625 423.89374 54.065624Q423.6125 55.003124 423.6125 56.1125L423.6125 61.55L421.84686 61.55ZM441.64374 60.26875Q440.65936 61.096874 439.7531 61.440624Q438.84686 61.784374 437.8156 61.784374Q436.1125 61.784374 435.1906 60.95625Q434.26874 60.1125 434.26874 58.815624Q434.26874 58.05 434.6125 57.425Q434.97186 56.8 435.53436 56.425Q436.09686 56.034374 436.8 55.83125Q437.3156 55.70625 438.3625 55.565624Q440.4875 55.315624 441.4875 54.971874Q441.5031 54.6125 441.5031 54.503124Q441.5031 53.440624 441.0031 52.9875Q440.33124 52.39375 439.0031 52.39375Q437.7531 52.39375 437.15936 52.83125Q436.58124 53.26875 436.3 54.378124L434.58124 54.14375Q434.8156 53.034374 435.34686 52.3625Q435.8781 51.675 436.89374 51.315624Q437.90936 50.940624 439.2531 50.940624Q440.58124 50.940624 441.40936 51.253124Q442.2375 51.565624 442.6281 52.05Q443.01874 52.51875 443.175 53.2375Q443.26874 53.690624 443.26874 54.8625L443.26874 57.20625Q443.26874 59.659374 443.3781 60.315624Q443.4875 60.95625 443.83124 61.55L441.9875 61.55Q441.72186 61.003124 441.64374 60.26875ZM441.4875 56.346874Q440.53436 56.7375 438.6125 57.003124Q437.53436 57.159374 437.08124 57.3625Q436.64374 57.55 436.39374 57.925Q436.14374 58.3 436.14374 58.76875Q436.14374 59.471874 436.675 59.940624Q437.20624 60.409374 438.2375 60.409374Q439.2531 60.409374 440.03436 59.971874Q440.83124 59.51875 441.20624 58.753124Q441.4875 58.14375 441.4875 56.9875L441.4875 56.346874ZM445.8625 65.51875L445.8625 51.175L447.47186 51.175L447.47186 52.51875Q448.03436 51.7375 448.7375 51.346874Q449.45624 50.940624 450.47186 50.940624Q451.8 50.940624 452.8156 51.628124Q453.83124 52.315624 454.34686 53.565624Q454.8781 54.8 454.8781 56.284374Q454.8781 57.878124 454.3 59.159374Q453.7375 60.425 452.64374 61.1125Q451.55 61.784374 450.34686 61.784374Q449.47186 61.784374 448.76874 61.409374Q448.08124 61.034374 447.6281 60.471874L447.6281 65.51875L445.8625 65.51875ZM447.45624 56.425Q447.45624 58.425 448.26874 59.378124Q449.08124 60.33125 450.2375 60.33125Q451.40936 60.33125 452.2375 59.346874Q453.08124 58.3625 453.08124 56.26875Q453.08124 54.3 452.2531 53.315624Q451.4406 52.315624 450.3156 52.315624Q449.1906 52.315624 448.3156 53.378124Q447.45624 54.425 447.45624 56.425ZM456.8625 65.51875L456.8625 51.175L458.47186 51.175L458.47186 52.51875Q459.03436 51.7375 459.7375 51.346874Q460.45624 50.940624 461.47186 50.940624Q462.8 50.940624 463.8156 51.628124Q464.83124 52.315624 465.34686 53.565624Q465.8781 54.8 465.8781 56.284374Q465.8781 57.878124 465.3 59.159374Q464.7375 60.425 463.64374 61.1125Q462.55 61.784374 461.34686 61.784374Q460.47186 61.784374 459.76874 61.409374Q459.08124 61.034374 458.6281 60.471874L458.6281 65.51875L456.8625 65.51875ZM458.45624 56.425Q458.45624 58.425 459.26874 59.378124Q460.08124 60.33125 461.2375 60.33125Q462.40936 60.33125 463.2375 59.346874Q464.08124 58.3625 464.08124 56.26875Q464.08124 54.3 463.2531 53.315624Q462.4406 52.315624 461.3156 52.315624Q460.1906 52.315624 459.3156 53.378124Q458.45624 54.425 458.45624 56.425ZM471.15936 58.01875Q471.14374 57.675 471.14374 57.503124Q471.14374 56.45625 471.4406 55.70625Q471.65936 55.14375 472.14374 54.565624Q472.4875 54.14375 473.39374 53.346874Q474.3156 52.534374 474.58124 52.065624Q474.8625 51.58125 474.8625 51.01875Q474.8625 49.9875 474.05 49.221874Q473.2531 48.440624 472.09686 48.440624Q470.97186 48.440624 470.22186 49.14375Q469.47186 49.846874 469.2375 51.33125L467.425 51.1125Q467.675 49.1125 468.8781 48.05Q470.08124 46.9875 472.0656 46.9875Q474.175 46.9875 475.425 48.128124Q476.675 49.26875 476.675 50.89375Q476.675 51.83125 476.22186 52.628124Q475.78436 53.409374 474.5031 54.55Q473.64374 55.315624 473.3781 55.675Q473.1281 56.034374 472.9875 56.503124Q472.8625 56.971874 472.84686 58.01875L471.15936 58.01875ZM471.05 61.55L471.05 59.55L473.05 59.55L473.05 61.55L471.05 61.55Z" fill-rule="nonzero"/></svg>