<svg version="1.1" viewBox="0.0 0.0 600.0 371.0" fill="none" stroke="none" stroke-linecap="square" stroke-miterlimit="10" width="600" height="371" xmlns:xlink="http://www.w3.org/1999/xlink" xmlns="http://www.w3.org/2000/svg"><path fill="#ffffff" d="M0 0L600.0 0L600.0 371.0L0 371.0L0 0Z" fill-rule="nonzero"/><path fill="#2e5dab" d="M451.76666 223.99083C451.76666 241.44662 445.58124 258.62985 433.76447 274.00134L433.76447 251.38635C445.58124 236.01486 451.76666 218.83163 451.76666 201.37584Z" fill-rule="nonzero"/><path fill="#4285f4" d="M301.0 95.839165C354.05875 95.839165 403.21167 115.362404 430.42548 147.24615C457.63925 179.1299 458.90732 218.68005 433.76447 251.38635L301.0 201.37584Z" fill-rule="nonzero"/><path fill="#a42f25" d="M433.76447 274.00134C423.03143 287.96304 407.94247 300.05255 389.6184 309.3718L389.6184 286.7568C407.94247 277.43756 423.03143 265.34805 433.76447 251.38635Z" fill-rule="nonzero"/><path fill="#ea4335" d="M433.76447 251.38635C423.03143 265.34805 407.94247 277.43756 389.6184 286.7568L301.0 201.37584Z" fill-rule="nonzero"/><path fill="#b08403" d="M389.6184 309.3718C378.6536 314.94827 366.66464 319.46436 353.97562 322.79794L353.97562 300.18295C366.66464 296.84933 378.6536 292.33328 389.6184 286.7568Z" fill-rule="nonzero"/><path fill="#fbbc04" d="M389.6184 286.7568C378.6536 292.33328 366.66464 296.84933 353.97562 300.18295L301.0 201.37584Z" fill-rule="nonzero"/><path fill="#ff994d" d="M287.48538 96.26402C291.9789 95.98093 296.4883 95.839165 301.0 95.839165L301.0 201.37584Z" fill-rule="nonzero"/><path fill="#71c287" d="M274.07956 97.53519C278.51874 96.97127 282.99185 96.54713 287.48538 96.26402L301.0 201.37584Z" fill-rule="nonzero"/><path fill="#fcd04f" d="M260.8905 99.6424C265.23962 98.802216 269.64038 98.0991 274.07956 97.53519L301.0 201.37584Z" fill-rule="nonzero"/><path fill="#f07b72" d="M248.02438 102.568726C252.24838 101.45902 256.5414 100.4826 260.8905 99.6424L301.0 201.37584Z" fill-rule="nonzero"/><path fill="#7baaf7" d="M235.5848 106.29058C239.64969 104.920296 243.80038 103.67843 248.02438 102.568726L301.0 201.37584Z" fill-rule="nonzero"/><path fill="#46bdc6" d="M154.01337 177.89171C164.22308 146.57956 194.24654 120.2258 235.5848 106.29058L301.0 201.37584Z" fill-rule="nonzero"/><path fill="#ff6d01" d="M150.38515 196.64095C150.79018 190.32777 152.00447 184.05281 154.01337 177.89171L301.0 201.37584Z" fill-rule="nonzero"/><path fill="#24763a" d="M353.97562 322.79794C307.6736 334.96213 255.79326 330.4571 215.14072 310.7422C174.48819 291.02728 150.23334 258.6097 150.23334 223.99083L150.23334 201.37584C150.23334 235.99469 174.48819 268.4123 215.14072 288.1272C255.79326 307.8421 307.6736 312.34714 353.97562 300.18295Z" fill-rule="nonzero"/><path fill="#34a853" d="M353.97562 300.18295C306.55234 312.64172 253.36086 307.59802 212.38158 286.7568C171.4023 265.91556 148.1126 232.06247 150.38515 196.64095L301.0 201.37584Z" fill-rule="nonzero"/><path fill="#1a1a1a" d="M19.534374 96.71696L22.83125 88.12321L24.05 88.12321L27.565624 96.71696L26.284374 96.71696L25.26875 94.10758L21.690624 94.10758L20.7375 96.71696L19.534374 96.71696ZM22.01875 93.18571L24.925 93.18571L24.034374 90.81071Q23.6125 89.73258 23.425 89.02946Q23.253124 89.85758 22.95625 90.67008L22.01875 93.18571ZM28.33125 96.71696L28.33125 90.49821L29.284374 90.49821L29.284374 91.43571Q29.64375 90.77946 29.940624 90.57633Q30.253124 90.35758 30.628124 90.35758Q31.159374 90.35758 31.70625 90.68571L31.346874 91.67008Q30.95625 91.43571 30.58125 91.43571Q30.221874 91.43571 29.940624 91.65446Q29.675 91.85758 29.565624 92.23258Q29.378124 92.79508 29.378124 93.45133L29.378124 96.71696L28.33125 96.71696ZM34.64375 95.77946L34.8 96.70133Q34.346874 96.79508 34.003124 96.79508Q33.425 96.79508 33.1125 96.62321Q32.8 96.43571 32.659374 96.13883Q32.534374 95.84196 32.534374 94.88883L32.534374 91.31071L31.76875 91.31071L31.76875 90.49821L32.534374 90.49821L32.534374 88.95133L33.58125 88.32633L33.58125 90.49821L34.64375 90.49821L34.64375 91.31071L33.58125 91.31071L33.58125 94.95133Q33.58125 95.40446 33.628124 95.52946Q33.690624 95.65446 33.815624 95.73258Q33.940624 95.81071 34.175 95.81071Q34.3625 95.81071 34.64375 95.77946ZM35.346874 89.34196L35.346874 88.12321L36.409374 88.12321L36.409374 89.34196L35.346874 89.34196ZM35.346874 96.71696L35.346874 90.49821L36.409374 90.49821L36.409374 96.71696L35.346874 96.71696ZM37.925 94.85758L38.95625 94.70133Q39.05 95.32633 39.440624 95.65446Q39.846874 95.98258 40.58125 95.98258Q41.3 95.98258 41.64375 95.70133Q42.003124 95.40446 42.003124 94.99821Q42.003124 94.63883 41.690624 94.43571Q41.471874 94.29508 40.6125 94.07633Q39.45625 93.77946 39.003124 93.57633Q38.565624 93.35758 38.33125 92.98258Q38.096874 92.60758 38.096874 92.13883Q38.096874 91.73258 38.284374 91.37321Q38.471874 91.01383 38.8 90.77946Q39.05 90.60758 39.471874 90.48258Q39.89375 90.35758 40.39375 90.35758Q41.1125 90.35758 41.659374 90.57633Q42.221874 90.77946 42.4875 91.13883Q42.753124 91.49821 42.846874 92.09196L41.815624 92.23258Q41.753124 91.76383 41.409374 91.49821Q41.08125 91.21696 40.45625 91.21696Q39.7375 91.21696 39.425 91.46696Q39.1125 91.70133 39.1125 92.02946Q39.1125 92.23258 39.2375 92.38883Q39.378124 92.56071 39.64375 92.67008Q39.8 92.73258 40.58125 92.93571Q41.70625 93.24821 42.14375 93.43571Q42.58125 93.62321 42.83125 93.98258Q43.08125 94.34196 43.08125 94.88883Q43.08125 95.42008 42.76875 95.88883Q42.471874 96.34196 41.89375 96.60758Q41.315624 96.85758 40.58125 96.85758Q39.3625 96.85758 38.721874 96.35758Q38.096874 95.84196 37.925 94.85758ZM48.409374 95.95133Q47.815624 96.45133 47.26875 96.65446Q46.7375 96.85758 46.1125 96.85758Q45.08125 96.85758 44.534374 96.35758Q43.9875 95.85758 43.9875 95.07633Q43.9875 94.62321 44.190624 94.24821Q44.39375 93.85758 44.7375 93.63883Q45.08125 93.40446 45.503124 93.29508Q45.8 93.20133 46.440624 93.12321Q47.70625 92.98258 48.315624 92.76383Q48.315624 92.54508 48.315624 92.49821Q48.315624 91.84196 48.01875 91.57633Q47.6125 91.23258 46.815624 91.23258Q46.08125 91.23258 45.721874 91.49821Q45.3625 91.74821 45.190624 92.40446L44.159374 92.26383Q44.3 91.60758 44.628124 91.20133Q44.95625 90.79508 45.565624 90.57633Q46.175 90.35758 46.971874 90.35758Q47.76875 90.35758 48.26875 90.54508Q48.76875 90.73258 49.003124 91.01383Q49.2375 91.29508 49.33125 91.73258Q49.378124 91.99821 49.378124 92.70133L49.378124 94.10758Q49.378124 95.57633 49.440624 95.96696Q49.51875 96.35758 49.721874 96.71696L48.6125 96.71696Q48.45625 96.38883 48.409374 95.95133ZM48.315624 93.59196Q47.7375 93.82633 46.596874 93.99821Q45.940624 94.09196 45.675 94.21696Q45.409374 94.32633 45.253124 94.54508Q45.1125 94.76383 45.1125 95.04508Q45.1125 95.46696 45.425 95.74821Q45.753124 96.02946 46.3625 96.02946Q46.971874 96.02946 47.440624 95.76383Q47.925 95.49821 48.14375 95.02946Q48.315624 94.67008 48.315624 93.98258L48.315624 93.59196ZM51.346874 96.71696L51.346874 90.49821L52.284374 90.49821L52.284374 91.37321Q52.971874 90.35758 54.26875 90.35758Q54.83125 90.35758 55.3 90.56071Q55.784374 90.76383 56.01875 91.09196Q56.253124 91.42008 56.346874 91.85758Q56.39375 92.15446 56.39375 92.88883L56.39375 96.71696L55.346874 96.71696L55.346874 92.93571Q55.346874 92.27946 55.221874 91.96696Q55.096874 91.65446 54.784374 91.46696Q54.471874 91.26383 54.05 91.26383Q53.378124 91.26383 52.878124 91.70133Q52.39375 92.12321 52.39375 93.31071L52.39375 96.71696L51.346874 96.71696Z" fill-rule="nonzero"/><path fill="#9e9e9e" d="M24.01875 113.71696L22.971874 113.71696L22.971874 106.99821Q22.58125 107.35758 21.95625 107.73258Q21.346874 108.09196 20.8625 108.26383L20.8625 107.24821Q21.7375 106.82633 22.39375 106.24821Q23.065624 105.65446 23.346874 105.09196L24.01875 105.09196L24.01875 113.71696ZM27.6125 113.71696L27.6125 112.51383L28.815624 112.51383L28.815624 113.71696Q28.815624 114.37321 28.58125 114.77946Q28.346874 115.20133 27.846874 115.42008L27.55 114.96696Q27.878124 114.82633 28.034374 114.52946Q28.190624 114.24821 28.221874 113.71696L27.6125 113.71696ZM33.425 113.71696L33.425 111.65446L29.70625 111.65446L29.70625 110.68571L33.628124 105.12321L34.4875 105.12321L34.4875 110.68571L35.64375 110.68571L35.64375 111.65446L34.4875 111.65446L34.4875 113.71696L33.425 113.71696ZM33.425 110.68571L33.425 106.82633L30.7375 110.68571L33.425 110.68571ZM37.253124 107.18571Q37.253124 106.26383 37.70625 105.62321Q38.175 104.98258 39.05 104.98258Q39.8625 104.98258 40.39375 105.56071Q40.925 106.13883 40.925 107.24821Q40.925 108.34196 40.378124 108.93571Q39.846874 109.51383 39.065624 109.51383Q38.284374 109.51383 37.76875 108.93571Q37.253124 108.35758 37.253124 107.18571ZM39.08125 105.70133Q38.690624 105.70133 38.425 106.04508Q38.175 106.38883 38.175 107.29508Q38.175 108.12321 38.425 108.46696Q38.690624 108.79508 39.08125 108.79508Q39.4875 108.79508 39.7375 108.45133Q40.003124 108.10758 40.003124 107.21696Q40.003124 106.37321 39.7375 106.04508Q39.471874 105.70133 39.08125 105.70133ZM39.08125 114.02946L43.784374 104.98258L44.64375 104.98258L39.95625 114.02946L39.08125 114.02946ZM42.8 111.70133Q42.8 110.77946 43.253124 110.13883Q43.721874 109.49821 44.6125 109.49821Q45.425 109.49821 45.95625 110.07633Q46.4875 110.63883 46.4875 111.76383Q46.4875 112.85758 45.940624 113.45133Q45.409374 114.02946 44.6125 114.02946Q43.846874 114.02946 43.315624 113.45133Q42.8 112.87321 42.8 111.70133ZM44.64375 110.21696Q44.2375 110.21696 43.971874 110.56071Q43.721874 110.90446 43.721874 111.81071Q43.721874 112.62321 43.9875 112.96696Q44.253124 113.31071 44.64375 113.31071Q45.034374 113.31071 45.3 112.96696Q45.565624 112.62321 45.565624 111.71696Q45.565624 110.88883 45.3 110.56071Q45.034374 110.21696 44.64375 110.21696Z" fill-rule="nonzero"/><path stroke="#757575" stroke-width="1.0" stroke-linecap="butt" d="M19.55 101.21696L144.23334 101.21696L294.5741 101.21696" fill-rule="nonzero"/><path fill="#9e9e9e" d="M296.5741 101.21696C296.5741 100.11239 295.67865 99.21696 294.5741 99.21696C293.4695 99.21696 292.5741 100.11239 292.5741 101.21696C292.5741 102.321526 293.4695 103.21696 294.5741 103.21696C295.67865 103.21696 296.5741 102.321526 296.5741 101.21696" fill-rule="nonzero"/><path fill="#1a1a1a" d="M20.534374 134.36485L20.534374 125.7711L26.33125 125.7711L26.33125 126.78673L21.675 126.78673L21.675 129.44298L25.70625 129.44298L25.70625 130.4586L21.675 130.4586L21.675 134.36485L20.534374 134.36485ZM27.33125 134.36485L27.33125 128.1461L28.284374 128.1461L28.284374 129.0836Q28.64375 128.42735 28.940624 128.22423Q29.253124 128.00548 29.628124 128.00548Q30.159374 128.00548 30.70625 128.3336L30.346874 129.31798Q29.95625 129.0836 29.58125 129.0836Q29.221874 129.0836 28.940624 129.30235Q28.675 129.50548 28.565624 129.88048Q28.378124 130.44298 28.378124 131.09923L28.378124 134.36485L27.33125 134.36485ZM35.596874 132.36485L36.690624 132.48985Q36.440624 133.44298 35.7375 133.97423Q35.034374 134.50548 33.95625 134.50548Q32.596874 134.50548 31.784374 133.66173Q30.9875 132.81798 30.9875 131.30235Q30.9875 129.73985 31.8 128.88048Q32.6125 128.00548 33.89375 128.00548Q35.14375 128.00548 35.925 128.84923Q36.721874 129.69298 36.721874 131.23985Q36.721874 131.3336 36.721874 131.5211L32.08125 131.5211Q32.14375 132.55235 32.659374 133.09923Q33.175 133.63048 33.95625 133.63048Q34.534374 133.63048 34.940624 133.3336Q35.3625 133.0211 35.596874 132.36485ZM32.14375 130.66173L35.6125 130.66173Q35.55 129.86485 35.221874 129.47423Q34.70625 128.86485 33.909374 128.86485Q33.175 128.86485 32.675 129.34923Q32.190624 129.8336 32.14375 130.66173ZM42.596874 132.36485L43.690624 132.48985Q43.440624 133.44298 42.7375 133.97423Q42.034374 134.50548 40.95625 134.50548Q39.596874 134.50548 38.784374 133.66173Q37.9875 132.81798 37.9875 131.30235Q37.9875 129.73985 38.8 128.88048Q39.6125 128.00548 40.89375 128.00548Q42.14375 128.00548 42.925 128.84923Q43.721874 129.69298 43.721874 131.23985Q43.721874 131.3336 43.721874 131.5211L39.08125 131.5211Q39.14375 132.55235 39.659374 133.09923Q40.175 133.63048 40.95625 133.63048Q41.534374 133.63048 41.940624 133.3336Q42.3625 133.0211 42.596874 132.36485ZM39.14375 130.66173L42.6125 130.66173Q42.55 129.86485 42.221874 129.47423Q41.70625 128.86485 40.909374 128.86485Q40.175 128.86485 39.675 129.34923Q39.190624 129.8336 39.14375 130.66173ZM45.315624 134.36485L45.315624 125.7711L46.378124 125.7711L46.378124 134.36485L45.315624 134.36485ZM52.409374 133.59923Q51.815624 134.09923 51.26875 134.30235Q50.7375 134.50548 50.1125 134.50548Q49.08125 134.50548 48.534374 134.00548Q47.9875 133.50548 47.9875 132.72423Q47.9875 132.2711 48.190624 131.8961Q48.39375 131.50548 48.7375 131.28673Q49.08125 131.05235 49.503124 130.94298Q49.8 130.84923 50.440624 130.7711Q51.70625 130.63048 52.315624 130.41173Q52.315624 130.19298 52.315624 130.1461Q52.315624 129.48985 52.01875 129.22423Q51.6125 128.88048 50.815624 128.88048Q50.08125 128.88048 49.721874 129.1461Q49.3625 129.3961 49.190624 130.05235L48.159374 129.91173Q48.3 129.25548 48.628124 128.84923Q48.95625 128.44298 49.565624 128.22423Q50.175 128.00548 50.971874 128.00548Q51.76875 128.00548 52.26875 128.19298Q52.76875 128.38048 53.003124 128.66173Q53.2375 128.94298 53.33125 129.38048Q53.378124 129.6461 53.378124 130.34923L53.378124 131.75548Q53.378124 133.22423 53.440624 133.61485Q53.51875 134.00548 53.721874 134.36485L52.6125 134.36485Q52.45625 134.03673 52.409374 133.59923ZM52.315624 131.23985Q51.7375 131.47423 50.596874 131.6461Q49.940624 131.73985 49.675 131.86485Q49.409374 131.97423 49.253124 132.19298Q49.1125 132.41173 49.1125 132.69298Q49.1125 133.11485 49.425 133.3961Q49.753124 133.67735 50.3625 133.67735Q50.971874 133.67735 51.440624 133.41173Q51.925 133.1461 52.14375 132.67735Q52.315624 132.31798 52.315624 131.63048L52.315624 131.23985ZM55.346874 134.36485L55.346874 128.1461L56.284374 128.1461L56.284374 129.0211Q56.971874 128.00548 58.26875 128.00548Q58.83125 128.00548 59.3 128.2086Q59.784374 128.41173 60.01875 128.73985Q60.253124 129.06798 60.346874 129.50548Q60.39375 129.80235 60.39375 130.53673L60.39375 134.36485L59.346874 134.36485L59.346874 130.5836Q59.346874 129.92735 59.221874 129.61485Q59.096874 129.30235 58.784374 129.11485Q58.471874 128.91173 58.05 128.91173Q57.378124 128.91173 56.878124 129.34923Q56.39375 129.7711 56.39375 130.9586L56.39375 134.36485L55.346874 134.36485ZM66.40938 132.0836L67.44063 132.22423Q67.26875 133.28673 66.56563 133.8961Q65.8625 134.50548 64.84688 134.50548Q63.565624 134.50548 62.784374 133.67735Q62.01875 132.8336 62.01875 131.2711Q62.01875 130.2711 62.346874 129.5211Q62.690624 128.75548 63.3625 128.38048Q64.05 128.00548 64.8625 128.00548Q65.8625 128.00548 66.50313 128.5211Q67.15938 129.0211 67.34688 129.97423L66.31563 130.13048Q66.175 129.50548 65.8 129.19298Q65.425 128.86485 64.89375 128.86485Q64.09688 128.86485 63.596874 129.44298Q63.096874 130.00548 63.096874 131.23985Q63.096874 132.50548 63.58125 133.06798Q64.06563 133.63048 64.83125 133.63048Q65.45625 133.63048 65.8625 133.25548Q66.28438 132.88048 66.40938 132.0836ZM72.59688 132.36485L73.69063 132.48985Q73.44063 133.44298 72.7375 133.97423Q72.03438 134.50548 70.95625 134.50548Q69.59688 134.50548 68.78438 133.66173Q67.9875 132.81798 67.9875 131.30235Q67.9875 129.73985 68.8 128.88048Q69.6125 128.00548 70.89375 128.00548Q72.14375 128.00548 72.925 128.84923Q73.72188 129.69298 73.72188 131.23985Q73.72188 131.3336 73.72188 131.5211L69.08125 131.5211Q69.14375 132.55235 69.65938 133.09923Q70.175 133.63048 70.95625 133.63048Q71.53438 133.63048 71.94063 133.3336Q72.3625 133.0211 72.59688 132.36485ZM69.14375 130.66173L72.6125 130.66173Q72.55 129.86485 72.22188 129.47423Q71.70625 128.86485 70.90938 128.86485Q70.175 128.86485 69.675 129.34923Q69.19063 129.8336 69.14375 130.66173Z" fill-rule="nonzero"/><path fill="#9e9e9e" d="M24.01875 151.36485L22.971874 151.36485L22.971874 144.6461Q22.58125 145.00548 21.95625 145.38048Q21.346874 145.73985 20.8625 145.91173L20.8625 144.8961Q21.7375 144.47423 22.39375 143.8961Q23.065624 143.30235 23.346874 142.73985L24.01875 142.73985L24.01875 151.36485ZM30.425 151.36485L30.425 149.30235L26.70625 149.30235L26.70625 148.3336L30.628124 142.7711L31.4875 142.7711L31.4875 148.3336L32.64375 148.3336L32.64375 149.30235L31.4875 149.30235L31.4875 151.36485L30.425 151.36485ZM30.425 148.3336L30.425 144.47423L27.7375 148.3336L30.425 148.3336ZM34.6125 151.36485L34.6125 150.16173L35.815624 150.16173L35.815624 151.36485Q35.815624 152.0211 35.58125 152.42735Q35.346874 152.84923 34.846874 153.06798L34.55 152.61485Q34.878124 152.47423 35.034374 152.17735Q35.190624 151.8961 35.221874 151.36485L34.6125 151.36485ZM37.05 149.09923L38.1125 148.9586Q38.284374 149.84923 38.721874 150.25548Q39.159374 150.6461 39.784374 150.6461Q40.534374 150.6461 41.05 150.13048Q41.565624 149.61485 41.565624 148.84923Q41.565624 148.13048 41.08125 147.66173Q40.6125 147.17735 39.878124 147.17735Q39.58125 147.17735 39.128124 147.30235L39.253124 146.36485Q39.3625 146.38048 39.425 146.38048Q40.096874 146.38048 40.628124 146.03673Q41.175 145.67735 41.175 144.94298Q41.175 144.36485 40.784374 143.98985Q40.39375 143.59923 39.76875 143.59923Q39.159374 143.59923 38.7375 143.98985Q38.33125 144.38048 38.221874 145.1461L37.159374 144.9586Q37.346874 143.91173 38.034374 143.3336Q38.721874 142.73985 39.7375 142.73985Q40.440624 142.73985 41.034374 143.05235Q41.628124 143.34923 41.940624 143.86485Q42.253124 144.38048 42.253124 144.97423Q42.253124 145.5211 41.95625 145.98985Q41.659374 146.44298 41.08125 146.7086Q41.83125 146.88048 42.253124 147.44298Q42.675 147.98985 42.675 148.8336Q42.675 149.9586 41.846874 150.73985Q41.034374 151.5211 39.784374 151.5211Q38.659374 151.5211 37.909374 150.84923Q37.159374 150.16173 37.05 149.09923ZM44.253124 144.8336Q44.253124 143.91173 44.70625 143.2711Q45.175 142.63048 46.05 142.63048Q46.8625 142.63048 47.39375 143.2086Q47.925 143.78673 47.925 144.8961Q47.925 145.98985 47.378124 146.5836Q46.846874 147.16173 46.065624 147.16173Q45.284374 147.16173 44.76875 146.5836Q44.253124 146.00548 44.253124 144.8336ZM46.08125 143.34923Q45.690624 143.34923 45.425 143.69298Q45.175 144.03673 45.175 144.94298Q45.175 145.7711 45.425 146.11485Q45.690624 146.44298 46.08125 146.44298Q46.4875 146.44298 46.7375 146.09923Q47.003124 145.75548 47.003124 144.86485Q47.003124 144.0211 46.7375 143.69298Q46.471874 143.34923 46.08125 143.34923ZM46.08125 151.67735L50.784374 142.63048L51.64375 142.63048L46.95625 151.67735L46.08125 151.67735ZM49.8 149.34923Q49.8 148.42735 50.253124 147.78673Q50.721874 147.1461 51.6125 147.1461Q52.425 147.1461 52.95625 147.72423Q53.4875 148.28673 53.4875 149.41173Q53.4875 150.50548 52.940624 151.09923Q52.409374 151.67735 51.6125 151.67735Q50.846874 151.67735 50.315624 151.09923Q49.8 150.5211 49.8 149.34923ZM51.64375 147.86485Q51.2375 147.86485 50.971874 148.2086Q50.721874 148.55235 50.721874 149.4586Q50.721874 150.2711 50.9875 150.61485Q51.253124 150.9586 51.64375 150.9586Q52.034374 150.9586 52.3 150.61485Q52.565624 150.2711 52.565624 149.36485Q52.565624 148.53673 52.3 148.2086Q52.034374 147.86485 51.64375 147.86485Z" fill-rule="nonzero"/><path stroke="#757575" stroke-width="1.0" stroke-linecap="butt" d="M19.55 138.86485L144.23334 138.86485L189.01958 138.86485" fill-rule="nonzero"/><path fill="#9e9e9e" d="M191.01958 138.86485C191.01958 137.76028 190.12415 136.86485 189.01958 136.86485C187.91501 136.86485 187.01958 137.76028 187.01958 138.86485C187.01958 139.96942 187.91501 140.86485 189.01958 140.86485C190.12415 140.86485 191.01958 139.96942 191.01958 138.86485" fill-rule="nonzero"/><path fill="#1a1a1a" d="M20.4875 183.41763L20.4875 174.82388L24.3 174.82388Q25.45625 174.82388 26.05 175.05826Q26.64375 175.29263 27.003124 175.88638Q27.3625 176.46451 27.3625 177.16763Q27.3625 178.08951 26.76875 178.71451Q26.175 179.33951 24.940624 179.51138Q25.39375 179.73013 25.628124 179.93326Q26.128124 180.38638 26.565624 181.07388L28.065624 183.41763L26.628124 183.41763L25.503124 181.63638Q25.003124 180.85513 24.675 180.44888Q24.3625 180.04263 24.096874 179.88638Q23.846874 179.71451 23.58125 179.63638Q23.39375 179.60513 22.95625 179.60513L21.628124 179.60513L21.628124 183.41763L20.4875 183.41763ZM21.628124 178.62076L24.08125 178.62076Q24.846874 178.62076 25.284374 178.46451Q25.7375 178.29263 25.95625 177.94888Q26.190624 177.58951 26.190624 177.16763Q26.190624 176.55826 25.7375 176.16763Q25.3 175.77701 24.346874 175.77701L21.628124 175.77701L21.628124 178.62076ZM33.596874 181.41763L34.690624 181.54263Q34.440624 182.49576 33.7375 183.02701Q33.034374 183.55826 31.95625 183.55826Q30.596874 183.55826 29.784374 182.71451Q28.9875 181.87076 28.9875 180.35513Q28.9875 178.79263 29.8 177.93326Q30.6125 177.05826 31.89375 177.05826Q33.14375 177.05826 33.925 177.90201Q34.721874 178.74576 34.721874 180.29263Q34.721874 180.38638 34.721874 180.57388L30.08125 180.57388Q30.14375 181.60513 30.659374 182.15201Q31.175 182.68326 31.95625 182.68326Q32.534374 182.68326 32.940624 182.38638Q33.3625 182.07388 33.596874 181.41763ZM30.14375 179.71451L33.6125 179.71451Q33.55 178.91763 33.221874 178.52701Q32.70625 177.91763 31.909374 177.91763Q31.175 177.91763 30.675 178.40201Q30.190624 178.88638 30.14375 179.71451ZM38.64375 182.48013L38.8 183.40201Q38.346874 183.49576 38.003124 183.49576Q37.425 183.49576 37.1125 183.32388Q36.8 183.13638 36.659374 182.83951Q36.534374 182.54263 36.534374 181.58951L36.534374 178.01138L35.76875 178.01138L35.76875 177.19888L36.534374 177.19888L36.534374 175.65201L37.58125 175.02701L37.58125 177.19888L38.64375 177.19888L38.64375 178.01138L37.58125 178.01138L37.58125 181.65201Q37.58125 182.10513 37.628124 182.23013Q37.690624 182.35513 37.815624 182.43326Q37.940624 182.51138 38.175 182.51138Q38.3625 182.51138 38.64375 182.48013ZM39.346874 176.04263L39.346874 174.82388L40.409374 174.82388L40.409374 176.04263L39.346874 176.04263ZM39.346874 183.41763L39.346874 177.19888L40.409374 177.19888L40.409374 183.41763L39.346874 183.41763ZM42.33125 183.41763L42.33125 177.19888L43.284374 177.19888L43.284374 178.13638Q43.64375 177.48013 43.940624 177.27701Q44.253124 177.05826 44.628124 177.05826Q45.159374 177.05826 45.70625 177.38638L45.346874 178.37076Q44.95625 178.13638 44.58125 178.13638Q44.221874 178.13638 43.940624 178.35513Q43.675 178.55826 43.565624 178.93326Q43.378124 179.49576 43.378124 180.15201L43.378124 183.41763L42.33125 183.41763ZM50.596874 181.41763L51.690624 181.54263Q51.440624 182.49576 50.7375 183.02701Q50.034374 183.55826 48.95625 183.55826Q47.596874 183.55826 46.784374 182.71451Q45.9875 181.87076 45.9875 180.35513Q45.9875 178.79263 46.8 177.93326Q47.6125 177.05826 48.89375 177.05826Q50.14375 177.05826 50.925 177.90201Q51.721874 178.74576 51.721874 180.29263Q51.721874 180.38638 51.721874 180.57388L47.08125 180.57388Q47.14375 181.60513 47.659374 182.15201Q48.175 182.68326 48.95625 182.68326Q49.534374 182.68326 49.940624 182.38638Q50.3625 182.07388 50.596874 181.41763ZM47.14375 179.71451L50.6125 179.71451Q50.55 178.91763 50.221874 178.52701Q49.70625 177.91763 48.909374 177.91763Q48.175 177.91763 47.675 178.40201Q47.190624 178.88638 47.14375 179.71451ZM57.378124 183.41763L57.378124 182.63638Q56.784374 183.55826 55.64375 183.55826Q54.89375 183.55826 54.26875 183.15201Q53.64375 182.73013 53.3 181.99576Q52.95625 181.26138 52.95625 180.30826Q52.95625 179.38638 53.26875 178.62076Q53.58125 177.85513 54.20625 177.46451Q54.83125 177.05826 55.596874 177.05826Q56.159374 177.05826 56.596874 177.29263Q57.034374 177.52701 57.315624 177.90201L57.315624 174.82388L58.3625 174.82388L58.3625 183.41763L57.378124 183.41763ZM54.05 180.30826Q54.05 181.51138 54.55 182.10513Q55.05 182.68326 55.7375 182.68326Q56.425 182.68326 56.909374 182.12076Q57.39375 181.55826 57.39375 180.40201Q57.39375 179.12076 56.89375 178.52701Q56.409374 177.93326 55.690624 177.93326Q54.9875 177.93326 54.51875 178.51138Q54.05 179.07388 54.05 180.30826Z" fill-rule="nonzero"/><path fill="#9e9e9e" d="M25.596874 199.40201L25.596874 200.41763L19.909374 200.41763Q19.909374 200.04263 20.034374 199.68326Q20.253124 199.10513 20.721874 198.54263Q21.20625 197.98013 22.1125 197.24576Q23.51875 196.08951 24.003124 195.41763Q24.503124 194.74576 24.503124 194.15201Q24.503124 193.52701 24.05 193.10513Q23.596874 192.66763 22.878124 192.66763Q22.1125 192.66763 21.659374 193.12076Q21.20625 193.57388 21.190624 194.38638L20.1125 194.27701Q20.221874 193.05826 20.940624 192.43326Q21.675 191.79263 22.909374 191.79263Q24.14375 191.79263 24.8625 192.48013Q25.58125 193.16763 25.58125 194.18326Q25.58125 194.69888 25.3625 195.19888Q25.159374 195.68326 24.659374 196.24576Q24.175 196.79263 23.05 197.74576Q22.096874 198.54263 21.815624 198.83951Q21.55 199.12076 21.378124 199.40201L25.596874 199.40201ZM27.6125 200.41763L27.6125 199.21451L28.815624 199.21451L28.815624 200.41763Q28.815624 201.07388 28.58125 201.48013Q28.346874 201.90201 27.846874 202.12076L27.55 201.66763Q27.878124 201.52701 28.034374 201.23013Q28.190624 200.94888 28.221874 200.41763L27.6125 200.41763ZM30.20625 198.43326L31.221874 198.33951Q31.346874 199.05826 31.70625 199.38638Q32.08125 199.69888 32.64375 199.69888Q33.128124 199.69888 33.4875 199.48013Q33.8625 199.24576 34.096874 198.88638Q34.33125 198.51138 34.4875 197.88638Q34.64375 197.24576 34.64375 196.58951Q34.64375 196.51138 34.64375 196.37076Q34.33125 196.87076 33.784374 197.19888Q33.2375 197.51138 32.596874 197.51138Q31.51875 197.51138 30.784374 196.74576Q30.05 195.96451 30.05 194.69888Q30.05 193.38638 30.815624 192.58951Q31.596874 191.79263 32.753124 191.79263Q33.58125 191.79263 34.26875 192.24576Q34.971874 192.69888 35.33125 193.54263Q35.690624 194.37076 35.690624 195.94888Q35.690624 197.58951 35.33125 198.57388Q34.9875 199.54263 34.26875 200.05826Q33.565624 200.55826 32.628124 200.55826Q31.6125 200.55826 30.971874 200.01138Q30.33125 199.44888 30.20625 198.43326ZM34.51875 194.63638Q34.51875 193.73013 34.034374 193.19888Q33.565624 192.66763 32.878124 192.66763Q32.175 192.66763 31.64375 193.24576Q31.128124 193.80826 31.128124 194.73013Q31.128124 195.54263 31.628124 196.05826Q32.128124 196.57388 32.846874 196.57388Q33.58125 196.57388 34.05 196.05826Q34.51875 195.54263 34.51875 194.63638ZM37.253124 193.88638Q37.253124 192.96451 37.70625 192.32388Q38.175 191.68326 39.05 191.68326Q39.8625 191.68326 40.39375 192.26138Q40.925 192.83951 40.925 193.94888Q40.925 195.04263 40.378124 195.63638Q39.846874 196.21451 39.065624 196.21451Q38.284374 196.21451 37.76875 195.63638Q37.253124 195.05826 37.253124 193.88638ZM39.08125 192.40201Q38.690624 192.40201 38.425 192.74576Q38.175 193.08951 38.175 193.99576Q38.175 194.82388 38.425 195.16763Q38.690624 195.49576 39.08125 195.49576Q39.4875 195.49576 39.7375 195.15201Q40.003124 194.80826 40.003124 193.91763Q40.003124 193.07388 39.7375 192.74576Q39.471874 192.40201 39.08125 192.40201ZM39.08125 200.73013L43.784374 191.68326L44.64375 191.68326L39.95625 200.73013L39.08125 200.73013ZM42.8 198.40201Q42.8 197.48013 43.253124 196.83951Q43.721874 196.19888 44.6125 196.19888Q45.425 196.19888 45.95625 196.77701Q46.4875 197.33951 46.4875 198.46451Q46.4875 199.55826 45.940624 200.15201Q45.409374 200.73013 44.6125 200.73013Q43.846874 200.73013 43.315624 200.15201Q42.8 199.57388 42.8 198.40201ZM44.64375 196.91763Q44.2375 196.91763 43.971874 197.26138Q43.721874 197.60513 43.721874 198.51138Q43.721874 199.32388 43.9875 199.66763Q44.253124 200.01138 44.64375 200.01138Q45.034374 200.01138 45.3 199.66763Q45.565624 199.32388 45.565624 198.41763Q45.565624 197.58951 45.3 197.26138Q45.034374 196.91763 44.64375 196.91763Z" fill-rule="nonzero"/><path stroke="#757575" stroke-width="1.0" stroke-linecap="butt" d="M19.55 187.91763L144.23334 187.91763L159.06792 187.91763" fill-rule="nonzero"/><path fill="#9e9e9e" d="M161.06792 187.91763C161.06792 186.81306 160.17249 185.91763 159.06792 185.91763C157.96335 185.91763 157.06792 186.81306 157.06792 187.91763C157.06792 189.0222 157.96335 189.91763 159.06792 189.91763C160.17249 189.91763 161.06792 189.0222 161.06792 187.91763" fill-rule="nonzero"/><path fill="#1a1a1a" d="M20.503124 277.98773L20.503124 269.39398L26.70625 269.39398L26.70625 270.4096L21.64375 270.4096L21.64375 273.0346L26.39375 273.0346L26.39375 274.05023L21.64375 274.05023L21.64375 276.9721L26.909374 276.9721L26.909374 277.98773L20.503124 277.98773ZM28.346874 277.98773L28.346874 271.76898L29.284374 271.76898L29.284374 272.64398Q29.58125 272.17523 30.065624 271.9096Q30.55 271.62836 31.175 271.62836Q31.8625 271.62836 32.3 271.9096Q32.753124 272.19086 32.925 272.70648Q33.675 271.62836 34.846874 271.62836Q35.784374 271.62836 36.26875 272.14398Q36.76875 272.64398 36.76875 273.7221L36.76875 277.98773L35.721874 277.98773L35.721874 274.06586Q35.721874 273.44086 35.6125 273.1596Q35.51875 272.87836 35.253124 272.70648Q34.9875 272.5346 34.6125 272.5346Q33.95625 272.5346 33.51875 272.9721Q33.096874 273.4096 33.096874 274.37836L33.096874 277.98773L32.034374 277.98773L32.034374 273.94086Q32.034374 273.23773 31.76875 272.89398Q31.51875 272.5346 30.940624 272.5346Q30.4875 272.5346 30.1125 272.76898Q29.7375 273.00336 29.565624 273.45648Q29.39375 273.9096 29.39375 274.75336L29.39375 277.98773L28.346874 277.98773ZM38.346874 280.37836L38.346874 271.76898L39.3 271.76898L39.3 272.56586Q39.64375 272.0971 40.065624 271.86273Q40.503124 271.62836 41.1125 271.62836Q41.909374 271.62836 42.51875 272.0346Q43.128124 272.44086 43.425 273.19086Q43.7375 273.94086 43.7375 274.83148Q43.7375 275.7846 43.39375 276.55023Q43.065624 277.31586 42.409374 277.7221Q41.753124 278.12836 41.034374 278.12836Q40.503124 278.12836 40.08125 277.9096Q39.659374 277.67523 39.39375 277.3471L39.39375 280.37836L38.346874 280.37836ZM39.3 274.9096Q39.3 276.11273 39.784374 276.69086Q40.26875 277.25336 40.95625 277.25336Q41.659374 277.25336 42.159374 276.6596Q42.659374 276.06586 42.659374 274.81586Q42.659374 273.62836 42.175 273.05023Q41.690624 272.45648 41.003124 272.45648Q40.33125 272.45648 39.815624 273.08148Q39.3 273.70648 39.3 274.9096ZM45.315624 277.98773L45.315624 269.39398L46.378124 269.39398L46.378124 277.98773L45.315624 277.98773ZM47.95625 274.87836Q47.95625 273.14398 48.909374 272.31586Q49.70625 271.62836 50.8625 271.62836Q52.14375 271.62836 52.95625 272.4721Q53.784374 273.30023 53.784374 274.7846Q53.784374 275.98773 53.425 276.67523Q53.065624 277.36273 52.3625 277.75336Q51.675 278.12836 50.8625 278.12836Q49.565624 278.12836 48.753124 277.30023Q47.95625 276.45648 47.95625 274.87836ZM49.034374 274.87836Q49.034374 276.06586 49.55 276.6596Q50.08125 277.25336 50.8625 277.25336Q51.659374 277.25336 52.175 276.6596Q52.690624 276.06586 52.690624 274.8471Q52.690624 273.69086 52.159374 273.0971Q51.64375 272.50336 50.8625 272.50336Q50.08125 272.50336 49.55 273.0971Q49.034374 273.67523 49.034374 274.87836ZM55.3 280.37836L55.175 279.39398Q55.51875 279.48773 55.784374 279.48773Q56.128124 279.48773 56.33125 279.36273Q56.55 279.25336 56.690624 279.05023Q56.784374 278.87836 57.01875 278.25336Q57.034374 278.17523 57.1125 278.00336L54.7375 271.76898L55.878124 271.76898L57.175 275.36273Q57.425 276.05023 57.628124 276.81586Q57.815624 276.08148 58.065624 275.39398L59.39375 271.76898L60.440624 271.76898L58.08125 278.0971Q57.690624 279.11273 57.4875 279.50336Q57.20625 280.0346 56.83125 280.26898Q56.471874 280.51898 55.971874 280.51898Q55.675 280.51898 55.3 280.37836ZM65.59688 275.98773L66.69063 276.11273Q66.44063 277.06586 65.7375 277.5971Q65.03438 278.12836 63.95625 278.12836Q62.596874 278.12836 61.784374 277.2846Q60.9875 276.44086 60.9875 274.92523Q60.9875 273.36273 61.8 272.50336Q62.6125 271.62836 63.89375 271.62836Q65.14375 271.62836 65.925 272.4721Q66.72188 273.31586 66.72188 274.86273Q66.72188 274.95648 66.72188 275.14398L62.08125 275.14398Q62.14375 276.17523 62.659374 276.7221Q63.175 277.25336 63.95625 277.25336Q64.53438 277.25336 64.94063 276.95648Q65.3625 276.64398 65.59688 275.98773ZM62.14375 274.2846L65.6125 274.2846Q65.55 273.48773 65.22188 273.0971Q64.70625 272.48773 63.909374 272.48773Q63.175 272.48773 62.675 272.9721Q62.190624 273.45648 62.14375 274.2846ZM72.59688 275.98773L73.69063 276.11273Q73.44063 277.06586 72.7375 277.5971Q72.03438 278.12836 70.95625 278.12836Q69.59688 278.12836 68.78438 277.2846Q67.9875 276.44086 67.9875 274.92523Q67.9875 273.36273 68.8 272.50336Q69.6125 271.62836 70.89375 271.62836Q72.14375 271.62836 72.925 272.4721Q73.72188 273.31586 73.72188 274.86273Q73.72188 274.95648 73.72188 275.14398L69.08125 275.14398Q69.14375 276.17523 69.65938 276.7221Q70.175 277.25336 70.95625 277.25336Q71.53438 277.25336 71.94063 276.95648Q72.3625 276.64398 72.59688 275.98773ZM69.14375 274.2846L72.6125 274.2846Q72.55 273.48773 72.22188 273.0971Q71.70625 272.48773 70.90938 272.48773Q70.175 272.48773 69.675 272.9721Q69.19063 273.45648 69.14375 274.2846Z" fill-rule="nonzero"/><path fill="#9e9e9e" d="M20.05 292.7221L21.1125 292.58148Q21.284374 293.4721 21.721874 293.87836Q22.159374 294.26898 22.784374 294.26898Q23.534374 294.26898 24.05 293.75336Q24.565624 293.23773 24.565624 292.4721Q24.565624 291.75336 24.08125 291.2846Q23.6125 290.80023 22.878124 290.80023Q22.58125 290.80023 22.128124 290.92523L22.253124 289.98773Q22.3625 290.00336 22.425 290.00336Q23.096874 290.00336 23.628124 289.6596Q24.175 289.30023 24.175 288.56586Q24.175 287.98773 23.784374 287.61273Q23.39375 287.2221 22.76875 287.2221Q22.159374 287.2221 21.7375 287.61273Q21.33125 288.00336 21.221874 288.76898L20.159374 288.58148Q20.346874 287.5346 21.034374 286.95648Q21.721874 286.36273 22.7375 286.36273Q23.440624 286.36273 24.034374 286.67523Q24.628124 286.9721 24.940624 287.48773Q25.253124 288.00336 25.253124 288.5971Q25.253124 289.14398 24.95625 289.61273Q24.659374 290.06586 24.08125 290.33148Q24.83125 290.50336 25.253124 291.06586Q25.675 291.61273 25.675 292.45648Q25.675 293.58148 24.846874 294.36273Q24.034374 295.14398 22.784374 295.14398Q21.659374 295.14398 20.909374 294.4721Q20.159374 293.7846 20.05 292.7221ZM31.01875 294.98773L29.971874 294.98773L29.971874 288.26898Q29.58125 288.62836 28.95625 289.00336Q28.346874 289.36273 27.8625 289.5346L27.8625 288.51898Q28.7375 288.0971 29.39375 287.51898Q30.065624 286.92523 30.346874 286.36273L31.01875 286.36273L31.01875 294.98773ZM34.6125 294.98773L34.6125 293.7846L35.815624 293.7846L35.815624 294.98773Q35.815624 295.64398 35.58125 296.05023Q35.346874 296.4721 34.846874 296.69086L34.55 296.23773Q34.878124 296.0971 35.034374 295.80023Q35.190624 295.51898 35.221874 294.98773L34.6125 294.98773ZM40.425 294.98773L40.425 292.92523L36.70625 292.92523L36.70625 291.95648L40.628124 286.39398L41.4875 286.39398L41.4875 291.95648L42.64375 291.95648L42.64375 292.92523L41.4875 292.92523L41.4875 294.98773L40.425 294.98773ZM40.425 291.95648L40.425 288.0971L37.7375 291.95648L40.425 291.95648ZM44.253124 288.45648Q44.253124 287.5346 44.70625 286.89398Q45.175 286.25336 46.05 286.25336Q46.8625 286.25336 47.39375 286.83148Q47.925 287.4096 47.925 288.51898Q47.925 289.61273 47.378124 290.20648Q46.846874 290.7846 46.065624 290.7846Q45.284374 290.7846 44.76875 290.20648Q44.253124 289.62836 44.253124 288.45648ZM46.08125 286.9721Q45.690624 286.9721 45.425 287.31586Q45.175 287.6596 45.175 288.56586Q45.175 289.39398 45.425 289.73773Q45.690624 290.06586 46.08125 290.06586Q46.4875 290.06586 46.7375 289.7221Q47.003124 289.37836 47.003124 288.48773Q47.003124 287.64398 46.7375 287.31586Q46.471874 286.9721 46.08125 286.9721ZM46.08125 295.30023L50.784374 286.25336L51.64375 286.25336L46.95625 295.30023L46.08125 295.30023ZM49.8 292.9721Q49.8 292.05023 50.253124 291.4096Q50.721874 290.76898 51.6125 290.76898Q52.425 290.76898 52.95625 291.3471Q53.4875 291.9096 53.4875 293.0346Q53.4875 294.12836 52.940624 294.7221Q52.409374 295.30023 51.6125 295.30023Q50.846874 295.30023 50.315624 294.7221Q49.8 294.14398 49.8 292.9721ZM51.64375 291.48773Q51.2375 291.48773 50.971874 291.83148Q50.721874 292.17523 50.721874 293.08148Q50.721874 293.89398 50.9875 294.23773Q51.253124 294.58148 51.64375 294.58148Q52.034374 294.58148 52.3 294.23773Q52.565624 293.89398 52.565624 292.98773Q52.565624 292.1596 52.3 291.83148Q52.034374 291.48773 51.64375 291.48773Z" fill-rule="nonzero"/><path stroke="#757575" stroke-width="1.0" stroke-linecap="butt" d="M19.55 282.48773L144.23334 282.48773L216.8125 282.48773" fill-rule="nonzero"/><path fill="#9e9e9e" d="M218.8125 282.48773C218.8125 281.38318 217.91707 280.48773 216.8125 280.48773C215.70793 280.48773 214.8125 281.38318 214.8125 282.48773C214.8125 283.59232 215.70793 284.48773 216.8125 284.48773C217.91707 284.48773 218.8125 283.59232 218.8125 282.48773" fill-rule="nonzero"/><path fill="#1a1a1a" d="M540.9969 142.68701L542.0594 142.59326Q542.1375 143.24951 542.41876 143.65576Q542.7 144.06201 543.27814 144.32764Q543.8719 144.57764 544.60626 144.57764Q545.2469 144.57764 545.7469 144.39014Q546.2469 144.18701 546.48126 143.85889Q546.73126 143.51514 546.73126 143.12451Q546.73126 142.71826 546.4969 142.42139Q546.2625 142.10889 545.73126 141.90576Q545.3719 141.76514 544.1844 141.48389Q543.0125 141.20264 542.54376 140.95264Q541.91876 140.62451 541.6219 140.15576Q541.325 139.67139 541.325 139.07764Q541.325 138.43701 541.6844 137.87451Q542.0594 137.29639 542.7625 137.01514Q543.48126 136.71826 544.34064 136.71826Q545.29376 136.71826 546.02814 137.03076Q546.7625 137.32764 547.15314 137.93701Q547.54376 138.53076 547.575 139.28076L546.48126 139.35889Q546.3875 138.54639 545.8719 138.14014Q545.3719 137.71826 544.3875 137.71826Q543.35626 137.71826 542.8875 138.09326Q542.41876 138.46826 542.41876 138.99951Q542.41876 139.46826 542.7469 139.76514Q543.075 140.06201 544.45 140.37451Q545.84064 140.68701 546.35626 140.92139Q547.10626 141.28076 547.46564 141.81201Q547.825 142.32764 547.825 143.03076Q547.825 143.71826 547.4344 144.32764Q547.04376 144.92139 546.3094 145.26514Q545.575 145.59326 544.65314 145.59326Q543.48126 145.59326 542.6844 145.26514Q541.90314 144.92139 541.45 144.23389Q541.0125 143.54639 540.9969 142.68701ZM551.54376 144.51514L551.7 145.43701Q551.2469 145.53076 550.90314 145.53076Q550.325 145.53076 550.0125 145.35889Q549.7 145.17139 549.5594 144.87451Q549.4344 144.57764 549.4344 143.62451L549.4344 140.04639L548.66876 140.04639L548.66876 139.23389L549.4344 139.23389L549.4344 137.68701L550.48126 137.06201L550.48126 139.23389L551.54376 139.23389L551.54376 140.04639L550.48126 140.04639L550.48126 143.68701Q550.48126 144.14014 550.52814 144.26514Q550.59064 144.39014 550.71564 144.46826Q550.84064 144.54639 551.075 144.54639Q551.2625 144.54639 551.54376 144.51514ZM556.325 145.45264L556.325 144.53076Q555.59064 145.59326 554.34064 145.59326Q553.79376 145.59326 553.3094 145.39014Q552.84064 145.17139 552.60626 144.85889Q552.3719 144.53076 552.27814 144.06201Q552.21564 143.76514 552.21564 143.07764L552.21564 139.23389L553.27814 139.23389L553.27814 142.68701Q553.27814 143.49951 553.34064 143.79639Q553.4344 144.20264 553.7469 144.45264Q554.075 144.68701 554.5594 144.68701Q555.02814 144.68701 555.4344 144.45264Q555.85626 144.20264 556.02814 143.78076Q556.21564 143.35889 556.21564 142.56201L556.21564 139.23389L557.2625 139.23389L557.2625 145.45264L556.325 145.45264ZM563.27814 145.45264L563.27814 144.67139Q562.6844 145.59326 561.54376 145.59326Q560.79376 145.59326 560.16876 145.18701Q559.54376 144.76514 559.2 144.03076Q558.85626 143.29639 558.85626 142.34326Q558.85626 141.42139 559.16876 140.65576Q559.48126 139.89014 560.10626 139.49951Q560.73126 139.09326 561.4969 139.09326Q562.0594 139.09326 562.4969 139.32764Q562.9344 139.56201 563.21564 139.93701L563.21564 136.85889L564.2625 136.85889L564.2625 145.45264L563.27814 145.45264ZM559.95 142.34326Q559.95 143.54639 560.45 144.14014Q560.95 144.71826 561.6375 144.71826Q562.325 144.71826 562.8094 144.15576Q563.29376 143.59326 563.29376 142.43701Q563.29376 141.15576 562.79376 140.56201Q562.3094 139.96826 561.59064 139.96826Q560.8875 139.96826 560.41876 140.54639Q559.95 141.10889 559.95 142.34326ZM570.4969 143.45264L571.59064 143.57764Q571.34064 144.53076 570.6375 145.06201Q569.9344 145.59326 568.85626 145.59326Q567.4969 145.59326 566.6844 144.74951Q565.8875 143.90576 565.8875 142.39014Q565.8875 140.82764 566.7 139.96826Q567.5125 139.09326 568.79376 139.09326Q570.04376 139.09326 570.825 139.93701Q571.6219 140.78076 571.6219 142.32764Q571.6219 142.42139 571.6219 142.60889L566.98126 142.60889Q567.04376 143.64014 567.5594 144.18701Q568.075 144.71826 568.85626 144.71826Q569.4344 144.71826 569.84064 144.42139Q570.2625 144.10889 570.4969 143.45264ZM567.04376 141.74951L570.5125 141.74951Q570.45 140.95264 570.1219 140.56201Q569.60626 139.95264 568.8094 139.95264Q568.075 139.95264 567.575 140.43701Q567.09064 140.92139 567.04376 141.74951ZM573.2469 145.45264L573.2469 139.23389L574.1844 139.23389L574.1844 140.10889Q574.8719 139.09326 576.16876 139.09326Q576.73126 139.09326 577.2 139.29639Q577.6844 139.49951 577.91876 139.82764Q578.15314 140.15576 578.2469 140.59326Q578.29376 140.89014 578.29376 141.62451L578.29376 145.45264L577.2469 145.45264L577.2469 141.67139Q577.2469 141.01514 577.1219 140.70264Q576.9969 140.39014 576.6844 140.20264Q576.3719 139.99951 575.95 139.99951Q575.27814 139.99951 574.77814 140.43701Q574.29376 140.85889 574.29376 142.04639L574.29376 145.45264L573.2469 145.45264ZM582.54376 144.51514L582.7 145.43701Q582.2469 145.53076 581.90314 145.53076Q581.325 145.53076 581.0125 145.35889Q580.7 145.17139 580.5594 144.87451Q580.4344 144.57764 580.4344 143.62451L580.4344 140.04639L579.66876 140.04639L579.66876 139.23389L580.4344 139.23389L580.4344 137.68701L581.48126 137.06201L581.48126 139.23389L582.54376 139.23389L582.54376 140.04639L581.48126 140.04639L581.48126 143.68701Q581.48126 144.14014 581.52814 144.26514Q581.59064 144.39014 581.71564 144.46826Q581.84064 144.54639 582.075 144.54639Q582.2625 144.54639 582.54376 144.51514Z" fill-rule="nonzero"/><path fill="#9e9e9e" d="M547.95 160.18701L549.0125 160.04639Q549.1844 160.93701 549.6219 161.34326Q550.0594 161.73389 550.6844 161.73389Q551.4344 161.73389 551.95 161.21826Q552.46564 160.70264 552.46564 159.93701Q552.46564 159.21826 551.98126 158.74951Q551.5125 158.26514 550.77814 158.26514Q550.48126 158.26514 550.02814 158.39014L550.15314 157.45264Q550.2625 157.46826 550.325 157.46826Q550.9969 157.46826 551.52814 157.12451Q552.075 156.76514 552.075 156.03076Q552.075 155.45264 551.6844 155.07764Q551.29376 154.68701 550.66876 154.68701Q550.0594 154.68701 549.6375 155.07764Q549.23126 155.46826 549.1219 156.23389L548.0594 156.04639Q548.2469 154.99951 548.9344 154.42139Q549.6219 153.82764 550.6375 153.82764Q551.34064 153.82764 551.9344 154.14014Q552.52814 154.43701 552.84064 154.95264Q553.15314 155.46826 553.15314 156.06201Q553.15314 156.60889 552.85626 157.07764Q552.5594 157.53076 551.98126 157.79639Q552.73126 157.96826 553.15314 158.53076Q553.575 159.07764 553.575 159.92139Q553.575 161.04639 552.7469 161.82764Q551.9344 162.60889 550.6844 162.60889Q549.5594 162.60889 548.8094 161.93701Q548.0594 161.24951 547.95 160.18701ZM560.4969 161.43701L560.4969 162.45264L554.8094 162.45264Q554.8094 162.07764 554.9344 161.71826Q555.15314 161.14014 555.6219 160.57764Q556.10626 160.01514 557.0125 159.28076Q558.41876 158.12451 558.90314 157.45264Q559.40314 156.78076 559.40314 156.18701Q559.40314 155.56201 558.95 155.14014Q558.4969 154.70264 557.77814 154.70264Q557.0125 154.70264 556.5594 155.15576Q556.10626 155.60889 556.09064 156.42139L555.0125 156.31201Q555.1219 155.09326 555.84064 154.46826Q556.575 153.82764 557.8094 153.82764Q559.04376 153.82764 559.7625 154.51514Q560.48126 155.20264 560.48126 156.21826Q560.48126 156.73389 560.2625 157.23389Q560.0594 157.71826 559.5594 158.28076Q559.075 158.82764 557.95 159.78076Q556.9969 160.57764 556.71564 160.87451Q556.45 161.15576 556.27814 161.43701L560.4969 161.43701ZM562.5125 162.45264L562.5125 161.24951L563.71564 161.24951L563.71564 162.45264Q563.71564 163.10889 563.48126 163.51514Q563.2469 163.93701 562.7469 164.15576L562.45 163.70264Q562.77814 163.56201 562.9344 163.26514Q563.09064 162.98389 563.1219 162.45264L562.5125 162.45264ZM565.10626 160.46826L566.1219 160.37451Q566.2469 161.09326 566.60626 161.42139Q566.98126 161.73389 567.54376 161.73389Q568.02814 161.73389 568.3875 161.51514Q568.7625 161.28076 568.9969 160.92139Q569.23126 160.54639 569.3875 159.92139Q569.54376 159.28076 569.54376 158.62451Q569.54376 158.54639 569.54376 158.40576Q569.23126 158.90576 568.6844 159.23389Q568.1375 159.54639 567.4969 159.54639Q566.41876 159.54639 565.6844 158.78076Q564.95 157.99951 564.95 156.73389Q564.95 155.42139 565.71564 154.62451Q566.4969 153.82764 567.65314 153.82764Q568.48126 153.82764 569.16876 154.28076Q569.8719 154.73389 570.23126 155.57764Q570.59064 156.40576 570.59064 157.98389Q570.59064 159.62451 570.23126 160.60889Q569.8875 161.57764 569.16876 162.09326Q568.46564 162.59326 567.52814 162.59326Q566.5125 162.59326 565.8719 162.04639Q565.23126 161.48389 565.10626 160.46826ZM569.41876 156.67139Q569.41876 155.76514 568.9344 155.23389Q568.46564 154.70264 567.77814 154.70264Q567.075 154.70264 566.54376 155.28076Q566.02814 155.84326 566.02814 156.76514Q566.02814 157.57764 566.52814 158.09326Q567.02814 158.60889 567.7469 158.60889Q568.48126 158.60889 568.95 158.09326Q569.41876 157.57764 569.41876 156.67139ZM572.15314 155.92139Q572.15314 154.99951 572.60626 154.35889Q573.075 153.71826 573.95 153.71826Q574.7625 153.71826 575.29376 154.29639Q575.825 154.87451 575.825 155.98389Q575.825 157.07764 575.27814 157.67139Q574.7469 158.24951 573.96564 158.24951Q573.1844 158.24951 572.66876 157.67139Q572.15314 157.09326 572.15314 155.92139ZM573.98126 154.43701Q573.59064 154.43701 573.325 154.78076Q573.075 155.12451 573.075 156.03076Q573.075 156.85889 573.325 157.20264Q573.59064 157.53076 573.98126 157.53076Q574.3875 157.53076 574.6375 157.18701Q574.90314 156.84326 574.90314 155.95264Q574.90314 155.10889 574.6375 154.78076Q574.3719 154.43701 573.98126 154.43701ZM573.98126 162.76514L578.6844 153.71826L579.54376 153.71826L574.85626 162.76514L573.98126 162.76514ZM577.7 160.43701Q577.7 159.51514 578.15314 158.87451Q578.6219 158.23389 579.5125 158.23389Q580.325 158.23389 580.85626 158.81201Q581.3875 159.37451 581.3875 160.49951Q581.3875 161.59326 580.84064 162.18701Q580.3094 162.76514 579.5125 162.76514Q578.7469 162.76514 578.21564 162.18701Q577.7 161.60889 577.7 160.43701ZM579.54376 158.95264Q579.1375 158.95264 578.8719 159.29639Q578.6219 159.64014 578.6219 160.54639Q578.6219 161.35889 578.8875 161.70264Q579.15314 162.04639 579.54376 162.04639Q579.9344 162.04639 580.2 161.70264Q580.46564 161.35889 580.46564 160.45264Q580.46564 159.62451 580.2 159.29639Q579.9344 158.95264 579.54376 158.95264Z" fill-rule="nonzero"/><path stroke="#757575" stroke-width="1.0" stroke-linecap="butt" d="M582.45 149.95264L457.76666 149.95264L423.9542 149.95264" fill-rule="nonzero"/><path fill="#9e9e9e" d="M425.9542 149.95264C425.9542 148.84807 425.05875 147.95264 423.9542 147.95264C422.8496 147.95264 421.9542 148.84807 421.9542 149.95264C421.9542 151.0572 422.8496 151.95264 423.9542 151.95264C425.05875 151.95264 425.9542 151.0572 425.9542 149.95264" fill-rule="nonzero"/><path fill="#1a1a1a" d="M519.3875 258.50244L519.3875 249.90869L523.2 249.90869Q524.35626 249.90869 524.95 250.14307Q525.54376 250.37744 525.90314 250.97119Q526.2625 251.54932 526.2625 252.25244Q526.2625 253.17432 525.66876 253.79932Q525.075 254.42432 523.84064 254.59619Q524.29376 254.81494 524.52814 255.01807Q525.02814 255.47119 525.46564 256.1587L526.96564 258.50244L525.52814 258.50244L524.40314 256.7212Q523.90314 255.93994 523.575 255.53369Q523.2625 255.12744 522.9969 254.97119Q522.7469 254.79932 522.48126 254.72119Q522.29376 254.68994 521.85626 254.68994L520.52814 254.68994L520.52814 258.50244L519.3875 258.50244ZM520.52814 253.70557L522.98126 253.70557Q523.7469 253.70557 524.1844 253.54932Q524.6375 253.37744 524.85626 253.03369Q525.09064 252.67432 525.09064 252.25244Q525.09064 251.64307 524.6375 251.25244Q524.2 250.86182 523.2469 250.86182L520.52814 250.86182L520.52814 253.70557ZM532.4969 256.50244L533.59064 256.62744Q533.34064 257.58057 532.6375 258.11182Q531.9344 258.64307 530.85626 258.64307Q529.4969 258.64307 528.6844 257.79932Q527.8875 256.95557 527.8875 255.43994Q527.8875 253.87744 528.7 253.01807Q529.5125 252.14307 530.79376 252.14307Q532.04376 252.14307 532.825 252.98682Q533.6219 253.83057 533.6219 255.37744Q533.6219 255.47119 533.6219 255.65869L528.98126 255.65869Q529.04376 256.68994 529.5594 257.23682Q530.075 257.76807 530.85626 257.76807Q531.4344 257.76807 531.84064 257.4712Q532.2625 257.1587 532.4969 256.50244ZM529.04376 254.79932L532.5125 254.79932Q532.45 254.00244 532.1219 253.61182Q531.60626 253.00244 530.8094 253.00244Q530.075 253.00244 529.575 253.48682Q529.09064 253.97119 529.04376 254.79932ZM534.825 256.64307L535.85626 256.48682Q535.95 257.11182 536.34064 257.43994Q536.7469 257.76807 537.48126 257.76807Q538.2 257.76807 538.54376 257.48682Q538.90314 257.18994 538.90314 256.7837Q538.90314 256.42432 538.59064 256.2212Q538.3719 256.08057 537.5125 255.86182Q536.35626 255.56494 535.90314 255.36182Q535.46564 255.14307 535.23126 254.76807Q534.9969 254.39307 534.9969 253.92432Q534.9969 253.51807 535.1844 253.15869Q535.3719 252.79932 535.7 252.56494Q535.95 252.39307 536.3719 252.26807Q536.79376 252.14307 537.29376 252.14307Q538.0125 252.14307 538.5594 252.36182Q539.1219 252.56494 539.3875 252.92432Q539.65314 253.28369 539.7469 253.87744L538.71564 254.01807Q538.65314 253.54932 538.3094 253.28369Q537.98126 253.00244 537.35626 253.00244Q536.6375 253.00244 536.325 253.25244Q536.0125 253.48682 536.0125 253.81494Q536.0125 254.01807 536.1375 254.17432Q536.27814 254.34619 536.54376 254.45557Q536.7 254.51807 537.48126 254.72119Q538.60626 255.03369 539.04376 255.22119Q539.48126 255.40869 539.73126 255.76807Q539.98126 256.12744 539.98126 256.67432Q539.98126 257.20557 539.66876 257.67432Q539.3719 258.12744 538.79376 258.39307Q538.21564 258.64307 537.48126 258.64307Q536.2625 258.64307 535.6219 258.14307Q534.9969 257.62744 534.825 256.64307ZM545.4969 256.50244L546.59064 256.62744Q546.34064 257.58057 545.6375 258.11182Q544.9344 258.64307 543.85626 258.64307Q542.4969 258.64307 541.6844 257.79932Q540.8875 256.95557 540.8875 255.43994Q540.8875 253.87744 541.7 253.01807Q542.5125 252.14307 543.79376 252.14307Q545.04376 252.14307 545.825 252.98682Q546.6219 253.83057 546.6219 255.37744Q546.6219 255.47119 546.6219 255.65869L541.98126 255.65869Q542.04376 256.68994 542.5594 257.23682Q543.075 257.76807 543.85626 257.76807Q544.4344 257.76807 544.84064 257.4712Q545.2625 257.1587 545.4969 256.50244ZM542.04376 254.79932L545.5125 254.79932Q545.45 254.00244 545.1219 253.61182Q544.60626 253.00244 543.8094 253.00244Q543.075 253.00244 542.575 253.48682Q542.09064 253.97119 542.04376 254.79932ZM552.3094 257.73682Q551.71564 258.23682 551.16876 258.43994Q550.6375 258.64307 550.0125 258.64307Q548.98126 258.64307 548.4344 258.14307Q547.8875 257.64307 547.8875 256.86182Q547.8875 256.4087 548.09064 256.0337Q548.29376 255.64307 548.6375 255.42432Q548.98126 255.18994 549.40314 255.08057Q549.7 254.98682 550.34064 254.90869Q551.60626 254.76807 552.21564 254.54932Q552.21564 254.33057 552.21564 254.28369Q552.21564 253.62744 551.91876 253.36182Q551.5125 253.01807 550.71564 253.01807Q549.98126 253.01807 549.6219 253.28369Q549.2625 253.53369 549.09064 254.18994L548.0594 254.04932Q548.2 253.39307 548.52814 252.98682Q548.85626 252.58057 549.46564 252.36182Q550.075 252.14307 550.8719 252.14307Q551.66876 252.14307 552.16876 252.33057Q552.66876 252.51807 552.90314 252.79932Q553.1375 253.08057 553.23126 253.51807Q553.27814 253.78369 553.27814 254.48682L553.27814 255.89307Q553.27814 257.36182 553.34064 257.75244Q553.41876 258.14307 553.6219 258.50244L552.5125 258.50244Q552.35626 258.17432 552.3094 257.73682ZM552.21564 255.37744Q551.6375 255.61182 550.4969 255.78369Q549.84064 255.87744 549.575 256.00244Q549.3094 256.11182 549.15314 256.33057Q549.0125 256.54932 549.0125 256.83057Q549.0125 257.25244 549.325 257.5337Q549.65314 257.81494 550.2625 257.81494Q550.8719 257.81494 551.34064 257.54932Q551.825 257.2837 552.04376 256.81494Q552.21564 256.45557 552.21564 255.76807L552.21564 255.37744ZM555.23126 258.50244L555.23126 252.28369L556.1844 252.28369L556.1844 253.22119Q556.54376 252.56494 556.84064 252.36182Q557.15314 252.14307 557.52814 252.14307Q558.0594 252.14307 558.60626 252.47119L558.2469 253.45557Q557.85626 253.22119 557.48126 253.22119Q557.1219 253.22119 556.84064 253.43994Q556.575 253.64307 556.46564 254.01807Q556.27814 254.58057 556.27814 255.23682L556.27814 258.50244L555.23126 258.50244ZM563.3094 256.2212L564.34064 256.36182Q564.16876 257.42432 563.46564 258.0337Q562.7625 258.64307 561.7469 258.64307Q560.46564 258.64307 559.6844 257.81494Q558.91876 256.9712 558.91876 255.40869Q558.91876 254.40869 559.2469 253.65869Q559.59064 252.89307 560.2625 252.51807Q560.95 252.14307 561.7625 252.14307Q562.7625 252.14307 563.40314 252.65869Q564.0594 253.15869 564.2469 254.11182L563.21564 254.26807Q563.075 253.64307 562.7 253.33057Q562.325 253.00244 561.79376 253.00244Q560.9969 253.00244 560.4969 253.58057Q559.9969 254.14307 559.9969 255.37744Q559.9969 256.64307 560.48126 257.20557Q560.96564 257.76807 561.73126 257.76807Q562.35626 257.76807 562.7625 257.39307Q563.1844 257.01807 563.3094 256.2212ZM565.2469 258.50244L565.2469 249.90869L566.29376 249.90869L566.29376 252.98682Q567.02814 252.14307 568.15314 252.14307Q568.85626 252.14307 569.35626 252.42432Q569.8719 252.68994 570.09064 253.17432Q570.3094 253.64307 570.3094 254.56494L570.3094 258.50244L569.2625 258.50244L569.2625 254.56494Q569.2625 253.76807 568.91876 253.40869Q568.575 253.04932 567.95 253.04932Q567.48126 253.04932 567.0594 253.29932Q566.65314 253.53369 566.46564 253.95557Q566.29376 254.36182 566.29376 255.09619L566.29376 258.50244L565.2469 258.50244ZM576.4969 256.50244L577.59064 256.62744Q577.34064 257.58057 576.6375 258.11182Q575.9344 258.64307 574.85626 258.64307Q573.4969 258.64307 572.6844 257.79932Q571.8875 256.95557 571.8875 255.43994Q571.8875 253.87744 572.7 253.01807Q573.5125 252.14307 574.79376 252.14307Q576.04376 252.14307 576.825 252.98682Q577.6219 253.83057 577.6219 255.37744Q577.6219 255.47119 577.6219 255.65869L572.98126 255.65869Q573.04376 256.68994 573.5594 257.23682Q574.075 257.76807 574.85626 257.76807Q575.4344 257.76807 575.84064 257.4712Q576.2625 257.1587 576.4969 256.50244ZM573.04376 254.79932L576.5125 254.79932Q576.45 254.00244 576.1219 253.61182Q575.60626 253.00244 574.8094 253.00244Q574.075 253.00244 573.575 253.48682Q573.09064 253.97119 573.04376 254.79932ZM579.23126 258.50244L579.23126 252.28369L580.1844 252.28369L580.1844 253.22119Q580.54376 252.56494 580.84064 252.36182Q581.15314 252.14307 581.52814 252.14307Q582.0594 252.14307 582.60626 252.47119L582.2469 253.45557Q581.85626 253.22119 581.48126 253.22119Q581.1219 253.22119 580.84064 253.43994Q580.575 253.64307 580.46564 254.01807Q580.27814 254.58057 580.27814 255.23682L580.27814 258.50244L579.23126 258.50244Z" fill-rule="nonzero"/><path fill="#9e9e9e" d="M555.0125 268.0337L555.0125 267.01807L560.575 267.01807L560.575 267.8462Q559.7625 268.7212 558.95 270.17432Q558.15314 271.61182 557.71564 273.14307Q557.3875 274.2212 557.3094 275.50244L556.21564 275.50244Q556.23126 274.48682 556.60626 273.04932Q556.9969 271.61182 557.7 270.2837Q558.41876 268.95557 559.23126 268.0337L555.0125 268.0337ZM562.5125 275.50244L562.5125 274.29932L563.71564 274.29932L563.71564 275.50244Q563.71564 276.1587 563.48126 276.56494Q563.2469 276.98682 562.7469 277.20557L562.45 276.75244Q562.77814 276.61182 562.9344 276.31494Q563.09064 276.0337 563.1219 275.50244L562.5125 275.50244ZM568.91876 275.50244L567.8719 275.50244L567.8719 268.7837Q567.48126 269.14307 566.85626 269.51807Q566.2469 269.87744 565.7625 270.04932L565.7625 269.0337Q566.6375 268.61182 567.29376 268.0337Q567.96564 267.43994 568.2469 266.87744L568.91876 266.87744L568.91876 275.50244ZM572.15314 268.9712Q572.15314 268.04932 572.60626 267.4087Q573.075 266.76807 573.95 266.76807Q574.7625 266.76807 575.29376 267.3462Q575.825 267.92432 575.825 269.0337Q575.825 270.12744 575.27814 270.7212Q574.7469 271.29932 573.96564 271.29932Q573.1844 271.29932 572.66876 270.7212Q572.15314 270.14307 572.15314 268.9712ZM573.98126 267.48682Q573.59064 267.48682 573.325 267.83057Q573.075 268.17432 573.075 269.08057Q573.075 269.9087 573.325 270.25244Q573.59064 270.58057 573.98126 270.58057Q574.3875 270.58057 574.6375 270.23682Q574.90314 269.89307 574.90314 269.00244Q574.90314 268.1587 574.6375 267.83057Q574.3719 267.48682 573.98126 267.48682ZM573.98126 275.81494L578.6844 266.76807L579.54376 266.76807L574.85626 275.81494L573.98126 275.81494ZM577.7 273.48682Q577.7 272.56494 578.15314 271.92432Q578.6219 271.2837 579.5125 271.2837Q580.325 271.2837 580.85626 271.86182Q581.3875 272.42432 581.3875 273.54932Q581.3875 274.64307 580.84064 275.23682Q580.3094 275.81494 579.5125 275.81494Q578.7469 275.81494 578.21564 275.23682Q577.7 274.6587 577.7 273.48682ZM579.54376 272.00244Q579.1375 272.00244 578.8719 272.3462Q578.6219 272.68994 578.6219 273.5962Q578.6219 274.4087 578.8875 274.75244Q579.15314 275.0962 579.54376 275.0962Q579.9344 275.0962 580.2 274.75244Q580.46564 274.4087 580.46564 273.50244Q580.46564 272.67432 580.2 272.3462Q579.9344 272.00244 579.54376 272.00244Z" fill-rule="nonzero"/><path stroke="#757575" stroke-width="1.0" stroke-linecap="butt" d="M582.45 263.00244L457.76666 263.00244L408.86118 267.34067" fill-rule="nonzero"/><path fill="#9e9e9e" d="M410.86118 267.34067C410.86118 266.23608 409.96573 265.34067 408.86118 265.34067C407.7566 265.34067 406.86118 266.23608 406.86118 267.34067C406.86118 268.44522 407.7566 269.34067 408.86118 269.34067C409.96573 269.34067 410.86118 268.44522 410.86118 267.34067" fill-rule="nonzero"/><path fill="#1a1a1a" d="M546.3719 289.50244L546.3719 280.9087L549.34064 280.9087Q550.34064 280.9087 550.8719 281.0337Q551.60626 281.20557 552.1219 281.64307Q552.8094 282.2212 553.1375 283.12744Q553.48126 284.01807 553.48126 285.1587Q553.48126 286.14307 553.2469 286.89307Q553.02814 287.64307 552.66876 288.14307Q552.3094 288.64307 551.8719 288.92432Q551.45 289.20557 550.85626 289.36182Q550.2625 289.50244 549.48126 289.50244L546.3719 289.50244ZM547.5125 288.48682L549.34064 288.48682Q550.2 288.48682 550.6844 288.33057Q551.16876 288.17432 551.45 287.87744Q551.85626 287.48682 552.075 286.79932Q552.3094 286.11182 552.3094 285.14307Q552.3094 283.79932 551.85626 283.08057Q551.41876 282.3462 550.79376 282.0962Q550.325 281.92432 549.325 281.92432L547.5125 281.92432L547.5125 288.48682ZM559.4969 287.50244L560.59064 287.62744Q560.34064 288.58057 559.6375 289.11182Q558.9344 289.64307 557.85626 289.64307Q556.4969 289.64307 555.6844 288.79932Q554.8875 287.95557 554.8875 286.43994Q554.8875 284.87744 555.7 284.01807Q556.5125 283.14307 557.79376 283.14307Q559.04376 283.14307 559.825 283.98682Q560.6219 284.83057 560.6219 286.37744Q560.6219 286.4712 560.6219 286.6587L555.98126 286.6587Q556.04376 287.68994 556.5594 288.23682Q557.075 288.76807 557.85626 288.76807Q558.4344 288.76807 558.84064 288.4712Q559.2625 288.1587 559.4969 287.50244ZM556.04376 285.79932L559.5125 285.79932Q559.45 285.00244 559.1219 284.61182Q558.60626 284.00244 557.8094 284.00244Q557.075 284.00244 556.575 284.48682Q556.09064 284.9712 556.04376 285.79932ZM566.3094 288.73682Q565.71564 289.23682 565.16876 289.43994Q564.6375 289.64307 564.0125 289.64307Q562.98126 289.64307 562.4344 289.14307Q561.8875 288.64307 561.8875 287.86182Q561.8875 287.4087 562.09064 287.0337Q562.29376 286.64307 562.6375 286.42432Q562.98126 286.18994 563.40314 286.08057Q563.7 285.98682 564.34064 285.9087Q565.60626 285.76807 566.21564 285.54932Q566.21564 285.33057 566.21564 285.2837Q566.21564 284.62744 565.91876 284.36182Q565.5125 284.01807 564.71564 284.01807Q563.98126 284.01807 563.6219 284.2837Q563.2625 284.5337 563.09064 285.18994L562.0594 285.04932Q562.2 284.39307 562.52814 283.98682Q562.85626 283.58057 563.46564 283.36182Q564.075 283.14307 564.8719 283.14307Q565.66876 283.14307 566.16876 283.33057Q566.66876 283.51807 566.90314 283.79932Q567.1375 284.08057 567.23126 284.51807Q567.27814 284.7837 567.27814 285.48682L567.27814 286.89307Q567.27814 288.36182 567.34064 288.75244Q567.41876 289.14307 567.6219 289.50244L566.5125 289.50244Q566.35626 289.17432 566.3094 288.73682ZM566.21564 286.37744Q565.6375 286.61182 564.4969 286.7837Q563.84064 286.87744 563.575 287.00244Q563.3094 287.11182 563.15314 287.33057Q563.0125 287.54932 563.0125 287.83057Q563.0125 288.25244 563.325 288.5337Q563.65314 288.81494 564.2625 288.81494Q564.8719 288.81494 565.34064 288.54932Q565.825 288.2837 566.04376 287.81494Q566.21564 287.45557 566.21564 286.76807L566.21564 286.37744ZM569.21564 289.50244L569.21564 280.9087L570.27814 280.9087L570.27814 289.50244L569.21564 289.50244ZM576.4969 287.50244L577.59064 287.62744Q577.34064 288.58057 576.6375 289.11182Q575.9344 289.64307 574.85626 289.64307Q573.4969 289.64307 572.6844 288.79932Q571.8875 287.95557 571.8875 286.43994Q571.8875 284.87744 572.7 284.01807Q573.5125 283.14307 574.79376 283.14307Q576.04376 283.14307 576.825 283.98682Q577.6219 284.83057 577.6219 286.37744Q577.6219 286.4712 577.6219 286.6587L572.98126 286.6587Q573.04376 287.68994 573.5594 288.23682Q574.075 288.76807 574.85626 288.76807Q575.4344 288.76807 575.84064 288.4712Q576.2625 288.1587 576.4969 287.50244ZM573.04376 285.79932L576.5125 285.79932Q576.45 285.00244 576.1219 284.61182Q575.60626 284.00244 574.8094 284.00244Q574.075 284.00244 573.575 284.48682Q573.09064 284.9712 573.04376 285.79932ZM579.23126 289.50244L579.23126 283.2837L580.1844 283.2837L580.1844 284.2212Q580.54376 283.56494 580.84064 283.36182Q581.15314 283.14307 581.52814 283.14307Q582.0594 283.14307 582.60626 283.4712L582.2469 284.45557Q581.85626 284.2212 581.48126 284.2212Q581.1219 284.2212 580.84064 284.43994Q580.575 284.64307 580.46564 285.01807Q580.27814 285.58057 580.27814 286.23682L580.27814 289.50244L579.23126 289.50244Z" fill-rule="nonzero"/><path fill="#9e9e9e" d="M558.325 306.50244L558.325 304.43994L554.60626 304.43994L554.60626 303.4712L558.52814 297.9087L559.3875 297.9087L559.3875 303.4712L560.54376 303.4712L560.54376 304.43994L559.3875 304.43994L559.3875 306.50244L558.325 306.50244ZM558.325 303.4712L558.325 299.61182L555.6375 303.4712L558.325 303.4712ZM562.5125 306.50244L562.5125 305.29932L563.71564 305.29932L563.71564 306.50244Q563.71564 307.1587 563.48126 307.56494Q563.2469 307.98682 562.7469 308.20557L562.45 307.75244Q562.77814 307.61182 562.9344 307.31494Q563.09064 307.0337 563.1219 306.50244L562.5125 306.50244ZM564.95 304.23682L566.0125 304.0962Q566.1844 304.98682 566.6219 305.39307Q567.0594 305.7837 567.6844 305.7837Q568.4344 305.7837 568.95 305.26807Q569.46564 304.75244 569.46564 303.98682Q569.46564 303.26807 568.98126 302.79932Q568.5125 302.31494 567.77814 302.31494Q567.48126 302.31494 567.02814 302.43994L567.15314 301.50244Q567.2625 301.51807 567.325 301.51807Q567.9969 301.51807 568.52814 301.17432Q569.075 300.81494 569.075 300.08057Q569.075 299.50244 568.6844 299.12744Q568.29376 298.73682 567.66876 298.73682Q567.0594 298.73682 566.6375 299.12744Q566.23126 299.51807 566.1219 300.2837L565.0594 300.0962Q565.2469 299.04932 565.9344 298.4712Q566.6219 297.87744 567.6375 297.87744Q568.34064 297.87744 568.9344 298.18994Q569.52814 298.48682 569.84064 299.00244Q570.15314 299.51807 570.15314 300.11182Q570.15314 300.6587 569.85626 301.12744Q569.5594 301.58057 568.98126 301.8462Q569.73126 302.01807 570.15314 302.58057Q570.575 303.12744 570.575 303.9712Q570.575 305.0962 569.7469 305.87744Q568.9344 306.6587 567.6844 306.6587Q566.5594 306.6587 565.8094 305.98682Q565.0594 305.29932 564.95 304.23682ZM572.15314 299.9712Q572.15314 299.04932 572.60626 298.4087Q573.075 297.76807 573.95 297.76807Q574.7625 297.76807 575.29376 298.3462Q575.825 298.92432 575.825 300.0337Q575.825 301.12744 575.27814 301.7212Q574.7469 302.29932 573.96564 302.29932Q573.1844 302.29932 572.66876 301.7212Q572.15314 301.14307 572.15314 299.9712ZM573.98126 298.48682Q573.59064 298.48682 573.325 298.83057Q573.075 299.17432 573.075 300.08057Q573.075 300.9087 573.325 301.25244Q573.59064 301.58057 573.98126 301.58057Q574.3875 301.58057 574.6375 301.23682Q574.90314 300.89307 574.90314 300.00244Q574.90314 299.1587 574.6375 298.83057Q574.3719 298.48682 573.98126 298.48682ZM573.98126 306.81494L578.6844 297.76807L579.54376 297.76807L574.85626 306.81494L573.98126 306.81494ZM577.7 304.48682Q577.7 303.56494 578.15314 302.92432Q578.6219 302.2837 579.5125 302.2837Q580.325 302.2837 580.85626 302.86182Q581.3875 303.42432 581.3875 304.54932Q581.3875 305.64307 580.84064 306.23682Q580.3094 306.81494 579.5125 306.81494Q578.7469 306.81494 578.21564 306.23682Q577.7 305.6587 577.7 304.48682ZM579.54376 303.00244Q579.1375 303.00244 578.8719 303.3462Q578.6219 303.68994 578.6219 304.5962Q578.6219 305.4087 578.8875 305.75244Q579.15314 306.0962 579.54376 306.0962Q579.9344 306.0962 580.2 305.75244Q580.46564 305.4087 580.46564 304.50244Q580.46564 303.67432 580.2 303.3462Q579.9344 303.00244 579.54376 303.00244Z" fill-rule="nonzero"/><path stroke="#757575" stroke-width="1.0" stroke-linecap="butt" d="M582.45 294.00244L457.76666 294.00244L368.87143 289.66418" fill-rule="nonzero"/><path fill="#9e9e9e" d="M370.87143 289.66418C370.87143 288.55963 369.97598 287.66418 368.87143 287.66418C367.76685 287.66418 366.87143 288.55963 366.87143 289.66418C366.87143 290.76877 367.76685 291.66418 368.87143 291.66418C369.97598 291.66418 370.87143 290.76877 370.87143 289.66418" fill-rule="nonzero"/><path fill="#757575" d="M19.51875 30.58125Q19.51875 27.01875 21.425 25.003124Q23.346874 22.971874 26.378124 22.971874Q28.3625 22.971874 29.940624 23.925Q31.534374 24.878124 32.3625 26.58125Q33.20625 28.26875 33.20625 30.409374Q33.20625 32.58125 32.33125 34.3Q31.45625 36.01875 29.83125 36.909374Q28.221874 37.8 26.3625 37.8Q24.346874 37.8 22.753124 36.83125Q21.159374 35.846874 20.33125 34.159374Q19.51875 32.45625 19.51875 30.58125ZM21.471874 30.6125Q21.471874 33.190624 22.8625 34.690624Q24.253124 36.175 26.346874 36.175Q28.4875 36.175 29.8625 34.675Q31.253124 33.159374 31.253124 30.39375Q31.253124 28.659374 30.659374 27.3625Q30.08125 26.05 28.940624 25.33125Q27.8 24.6125 26.378124 24.6125Q24.378124 24.6125 22.925 26.003124Q21.471874 27.378124 21.471874 30.6125ZM42.64375 33.753124L44.3625 33.971874Q44.08125 35.76875 42.909374 36.784374Q41.753124 37.784374 40.05 37.784374Q37.925 37.784374 36.628124 36.39375Q35.33125 35.003124 35.33125 32.409374Q35.33125 30.721874 35.878124 29.471874Q36.440624 28.20625 37.58125 27.58125Q38.721874 26.940624 40.065624 26.940624Q41.753124 26.940624 42.815624 27.8Q43.89375 28.659374 44.20625 30.221874L42.4875 30.4875Q42.253124 29.440624 41.628124 28.925Q41.003124 28.39375 40.128124 28.39375Q38.8 28.39375 37.971874 29.346874Q37.14375 30.3 37.14375 32.346874Q37.14375 34.440624 37.940624 35.39375Q38.7375 36.33125 40.034374 36.33125Q41.065624 36.33125 41.753124 35.70625Q42.45625 35.065624 42.64375 33.753124ZM52.64375 33.753124L54.3625 33.971874Q54.08125 35.76875 52.909374 36.784374Q51.753124 37.784374 50.05 37.784374Q47.925 37.784374 46.628124 36.39375Q45.33125 35.003124 45.33125 32.409374Q45.33125 30.721874 45.878124 29.471874Q46.440624 28.20625 47.58125 27.58125Q48.721874 26.940624 50.065624 26.940624Q51.753124 26.940624 52.815624 27.8Q53.89375 28.659374 54.20625 30.221874L52.4875 30.4875Q52.253124 29.440624 51.628124 28.925Q51.003124 28.39375 50.128124 28.39375Q48.8 28.39375 47.971874 29.346874Q47.14375 30.3 47.14375 32.346874Q47.14375 34.440624 47.940624 35.39375Q48.7375 36.33125 50.034374 36.33125Q51.065624 36.33125 51.753124 35.70625Q52.45625 35.065624 52.64375 33.753124ZM62.659374 37.55L62.659374 36.01875Q61.45625 37.784374 59.378124 37.784374Q58.45625 37.784374 57.659374 37.440624Q56.8625 37.08125 56.471874 36.55Q56.096874 36.01875 55.940624 35.2375Q55.83125 34.721874 55.83125 33.596874L55.83125 27.175L57.58125 27.175L57.58125 32.925Q57.58125 34.3 57.690624 34.784374Q57.8625 35.471874 58.39375 35.878124Q58.940624 36.26875 59.721874 36.26875Q60.51875 36.26875 61.20625 35.8625Q61.909374 35.45625 62.190624 34.76875Q62.4875 34.065624 62.4875 32.7375L62.4875 27.175L64.2375 27.175L64.2375 37.55L62.659374 37.55ZM66.8625 41.51875L66.8625 27.175L68.47188 27.175L68.47188 28.51875Q69.03438 27.7375 69.7375 27.346874Q70.45625 26.940624 71.47188 26.940624Q72.8 26.940624 73.81563 27.628124Q74.83125 28.315624 75.34688 29.565624Q75.87813 30.8 75.87813 32.284374Q75.87813 33.878124 75.3 35.159374Q74.7375 36.425 73.64375 37.1125Q72.55 37.784374 71.34688 37.784374Q70.47188 37.784374 69.76875 37.409374Q69.08125 37.034374 68.62813 36.471874L68.62813 41.51875L66.8625 41.51875ZM68.45625 32.425Q68.45625 34.425 69.26875 35.378124Q70.08125 36.33125 71.2375 36.33125Q72.40938 36.33125 73.2375 35.346874Q74.08125 34.3625 74.08125 32.26875Q74.08125 30.3 73.25313 29.315624Q72.44063 28.315624 71.31563 28.315624Q70.19063 28.315624 69.31563 29.378124Q68.45625 30.425 68.45625 32.425ZM84.64375 36.26875Q83.65938 37.096874 82.75313 37.440624Q81.84688 37.784374 80.81563 37.784374Q79.1125 37.784374 78.19063 36.95625Q77.26875 36.1125 77.26875 34.815624Q77.26875 34.05 77.6125 33.425Q77.97188 32.8 78.53438 32.425Q79.09688 32.034374 79.8 31.83125Q80.31563 31.70625 81.3625 31.565624Q83.4875 31.315624 84.4875 30.971874Q84.50313 30.6125 84.50313 30.503124Q84.50313 29.440624 84.00313 28.9875Q83.33125 28.39375 82.00313 28.39375Q80.75313 28.39375 80.15938 28.83125Q79.58125 29.26875 79.3 30.378124L77.58125 30.14375Q77.81563 29.034374 78.34688 28.3625Q78.87813 27.675 79.89375 27.315624Q80.90938 26.940624 82.25313 26.940624Q83.58125 26.940624 84.40938 27.253124Q85.2375 27.565624 85.62813 28.05Q86.01875 28.51875 86.175 29.2375Q86.26875 29.690624 86.26875 30.8625L86.26875 33.20625Q86.26875 35.659374 86.37813 36.315624Q86.4875 36.95625 86.83125 37.55L84.9875 37.55Q84.72188 37.003124 84.64375 36.26875ZM84.4875 32.346874Q83.53438 32.7375 81.6125 33.003124Q80.53438 33.159374 80.08125 33.3625Q79.64375 33.55 79.39375 33.925Q79.14375 34.3 79.14375 34.76875Q79.14375 35.471874 79.675 35.940624Q80.20625 36.409374 81.2375 36.409374Q82.25313 36.409374 83.03438 35.971874Q83.83125 35.51875 84.20625 34.753124Q84.4875 34.14375 84.4875 32.9875L84.4875 32.346874ZM92.70625 35.971874L92.95625 37.534374Q92.22188 37.690624 91.62813 37.690624Q90.675 37.690624 90.14375 37.39375Q89.62813 37.08125 89.40938 36.596874Q89.19063 36.096874 89.19063 34.51875L89.19063 28.55L87.90938 28.55L87.90938 27.175L89.19063 27.175L89.19063 24.6125L90.94063 23.55L90.94063 27.175L92.70625 27.175L92.70625 28.55L90.94063 28.55L90.94063 34.6125Q90.94063 35.3625 91.03438 35.58125Q91.12813 35.784374 91.33125 35.925Q91.55 36.05 91.94063 36.05Q92.22188 36.05 92.70625 35.971874ZM94.87813 25.253124L94.87813 23.2375L96.64375 23.2375L96.64375 25.253124L94.87813 25.253124ZM94.87813 37.55L94.87813 27.175L96.64375 27.175L96.64375 37.55L94.87813 37.55ZM98.22188 32.3625Q98.22188 29.4875 99.81563 28.096874Q101.15938 26.940624 103.08125 26.940624Q105.22188 26.940624 106.56563 28.346874Q107.925 29.753124 107.925 32.221874Q107.925 34.221874 107.33125 35.378124Q106.7375 36.51875 105.58125 37.159374Q104.44063 37.784374 103.08125 37.784374Q100.89375 37.784374 99.55 36.39375Q98.22188 34.9875 98.22188 32.3625ZM100.01875 32.3625Q100.01875 34.3625 100.87813 35.346874Q101.75313 36.33125 103.08125 36.33125Q104.39375 36.33125 105.25313 35.346874Q106.12813 34.346874 106.12813 32.3Q106.12813 30.378124 105.25313 29.39375Q104.37813 28.39375 103.08125 28.39375Q101.75313 28.39375 100.87813 29.39375Q100.01875 30.378124 100.01875 32.3625ZM109.8625 37.55L109.8625 27.175L111.45625 27.175L111.45625 28.659374Q112.59688 26.940624 114.75313 26.940624Q115.69063 26.940624 116.47188 27.284374Q117.26875 27.6125 117.65938 28.159374Q118.05 28.70625 118.20625 29.45625Q118.3 29.95625 118.3 31.175L118.3 37.55L116.53438 37.55L116.53438 31.2375Q116.53438 30.159374 116.33125 29.628124Q116.12813 29.096874 115.59688 28.784374Q115.08125 28.471874 114.37813 28.471874Q113.25313 28.471874 112.44063 29.190624Q111.62813 29.89375 111.62813 31.878124L111.62813 37.55L109.8625 37.55Z" fill-rule="nonzero"/></svg>